<svg xmlns="http://www.w3.org/2000/svg" xmlns:xlink="http://www.w3.org/1999/xlink" width="200" height="220" viewBox="0 0 200 220">
  <defs>
    <linearGradient id="linear-gradient" x1="0.501" y1="1.634" x2="0.501" y2="0.636" gradientUnits="objectBoundingBox">
      <stop offset="0" stop-color="#899ba1"/>
      <stop offset="0.345" stop-color="#7490b3" stop-opacity="0.655"/>
      <stop offset="0.703" stop-color="#6589c0" stop-opacity="0.298"/>
      <stop offset="1" stop-color="#6086c4" stop-opacity="0"/>
    </linearGradient>
    <linearGradient id="linear-gradient-2" x1="-53.947" y1="1.634" x2="-53.947" y2="0.628" xlink:href="#linear-gradient"/>
  </defs>
  <g id="elham" transform="translate(12534 2415.1)">
    <path id="SvgjsPath23143" d="M0,0H200V220H0Z" transform="translate(-12534 -2415.1)" fill="#d5cf8a"/>
    <g id="svga-group-hair-back-move" transform="translate(-12479.846 -2352.215)">
      <g id="svga-group-hair-back" transform="translate(0 0)">
        <path id="SvgjsPath7481" d="M136.884,50.705s5.814,1.1,10.71,12,2.856,23.4,2.244,32.1-2.04,36-11.118,49.8-13.362,14.6-23.868,18.4c-10.506,3.7-37.23,2.6-48.552-7.4-11.322-10.1-6.63-26.9-3.774-33,2.856-6.2,74.358-71.907,74.358-71.907" transform="translate(-59.091 -50.705)" fill="#543d23"/>
        <path id="SvgjsPath7482" d="M72.624,121.712s-2.856,7.1-3.468,12,2.652,9.5,4.59,12.1a25.8,25.8,0,0,1,6.222,17.2c.1,6,42.432-5.5,42.432-5.5a50.2,50.2,0,0,0,19.482-43.3c-17.544,6.2-35.19,12.5-52.734,18.7l-2.856-4.3-13.668-6.9Z" transform="translate(-59.091 -50.705)" fill="#4d361c"/>
      </g>
    </g>
    <g id="svga-group-wrapper" transform="translate(-12506.1 -2382.629)">
      <g id="svga-group-humanwrap-move" transform="translate(0 0)">
        <g id="svga-group-humanwrap">
          <g id="svga-group-hair-back-move-2" data-name="svga-group-hair-back-move" transform="translate(24.602 62.447)">
            <g id="svga-group-hair-back-2" data-name="svga-group-hair-back" transform="translate(0 0)">
              <path id="SvgjsPath25771" d="M69.888,197.56s-15.648-1.2-19.392-9.6-3.552-29.094,3.84-43.591c7.3-14.6,4.992-39.892,4.992-39.892,10.176-20,53.472-3.9,52.992,9.9S92.64,166.167,86.5,176.265s-13.536,21.1-13.536,21.1l-3.072.2Z" transform="translate(-48.101 -95.091)" fill="#4d361c"/>
            </g>
          </g>
          <g id="svga-group-humanbody-back" transform="translate(4.827 69.029)">
            <path id="SvgjsPath22932" d="M77.8,105.9s4.8,37.7,10,55.8c0,0-6.4,8.8-14.5,11.9-28.7,11.2-35,11.2-39.6,15.2-2.4,2.1.2,11.1,1.8,17.2a83.315,83.315,0,0,1,1.7,13.2H169.4s1.6-33-.6-39.8-7.1-2.9-21.9-4.5-28.7-10.3-31-13.2l.3-60-38.4,4.2Z" transform="translate(-32.727 -101.7)" fill="#f3d4cf"/>
          </g>
          <g id="svga-group-chinshadow-single" transform="translate(49.8 69.025)">
            <path id="SvgjsPath23431" d="M85.6,152.8c6.6,3.5,10.7,3.5,10.7,3.5s8,0,19.6-9.5l.2-45.2-38.4,4.2c.1.1,3.6,27.7,7.9,47Z" transform="translate(-77.7 -101.6)" fill="#d4958a"/>
          </g>
          <g id="svga-group-humanbody-front" transform="translate(4.085 68.229)">
            <path id="SvgjsPath22933" d="M72.1,183.1s14.6-.2,20.4,2.6c5.8,2.9,12.7,2.4,16.1-1s21.6-7,21.6-7-19.7,1.9-25,4.6-22.3-2.8-33.1.8Z" transform="translate(-31.985 -100.9)" fill="#d4958a"/>
            <path id="SvgjsPath22934" d="M74.2,173.2c6.7-1.3,14.7-6.4,14.7-6.4l6.2,5.5c-4.3-7.9-12.7-41.1-12.7-41.1l-.7.7a295.669,295.669,0,0,0,6.1,29.7s-6,8.2-13.6,11.6Z" transform="translate(-31.985 -100.9)" fill="#d4958a"/>
            <path id="SvgjsPath22935" d="M170.7,188.5c-.1-2.1-.2-4.1-.4-6.2a19.848,19.848,0,0,0-.6-3.2c-.2-.5-.4-1-.6-1.6a6.528,6.528,0,0,0-1-1.5,3.269,3.269,0,0,0-1.5-1.1,11.505,11.505,0,0,0-1.7-.6,17.745,17.745,0,0,0-3.2-.2c-2.1,0-4.1.1-6.1.1s-4-.1-6-.2-4-.4-6-.7c-1-.2-2-.4-2.9-.6l-1.5-.4c-.5-.1-1-.3-1.4-.4a66.742,66.742,0,0,1-11.2-4.4l-1.3-.7-1.3-.7a9.129,9.129,0,0,1-1.3-.8c-.4-.3-.9-.5-1.3-.8a14.8,14.8,0,0,0-1.3-.8l-1.2-.9-.6-.5-.3-.2-.3-.2c-.2-.2-.4-.3-.5-.5l-.2-.3V116.5l-.1-15v-.6l-.6.1c-6.4.8-12.9,1.5-19.3,2.3l-19.1,2.3v.5l.1.4.1.9.2,1.8c.1,1.2.3,2.3.4,3.5l.9,7c.6,4.7,1.3,9.4,2.1,14,.8,4.7,1.5,9.3,2.5,14,.9,4.5,1.8,9,3,13.5a44.823,44.823,0,0,1-3.6,4,52.964,52.964,0,0,1-4.3,3.8,29.7,29.7,0,0,1-4.8,3l-1.3.6c-.4.2-.9.3-1.3.5l-2.7,1c-7.2,2.7-14.5,5.3-21.8,7.7l-5.5,1.8a42.038,42.038,0,0,0-5.5,2.2c-.4.2-.9.5-1.3.7a10.144,10.144,0,0,0-1.3.9l-.6.5a2.407,2.407,0,0,0-.6.8,4.939,4.939,0,0,0-.5,1.6,10.728,10.728,0,0,0,0,3.1c.1,1,.3,2,.4,2.9.4,1.9.8,3.8,1.3,5.7l.8,2.8a22.912,22.912,0,0,1,.7,2.8,56.223,56.223,0,0,1,.9,5.7c.2,1.9.4,3.8.5,5.7v.8H170.1V219c.2-4.1.4-8.2.5-12.3s.2-8.2.2-12.3c0-1.8-.1-3.8-.1-5.9Zm-67.4,30.3H70.2l-16.5-.1-16-.1c-.1-1.8-.2-3.5-.4-5.3a57.712,57.712,0,0,0-.8-5.8c-.2-1-.4-1.9-.7-2.9l-.7-2.8a55.942,55.942,0,0,1-1.2-5.6,26.955,26.955,0,0,1-.4-2.8,12.178,12.178,0,0,1,0-2.7,3.582,3.582,0,0,1,.4-1.1,1.38,1.38,0,0,1,.3-.4l.5-.4a10.475,10.475,0,0,1,1.1-.8c.4-.2.8-.5,1.2-.7a48.133,48.133,0,0,1,5.3-2l5.5-1.8c7.3-2.4,14.6-5,21.8-7.8l2.7-1c.5-.2.9-.3,1.4-.5l1.4-.6a32.652,32.652,0,0,0,5-3.2,40.868,40.868,0,0,0,4.4-3.9,32.344,32.344,0,0,0,3.8-4.5l.2-.3-.1-.3c-1.3-4.5-2.3-9.1-3.3-13.7s-1.9-9.3-2.7-13.9-1.6-9.3-2.4-14l-2.2-13.9,19.3-1.8c6.2-.6,12.3-1.2,18.5-1.8l-.2,14.4-.2,15-.3,30v.4l.2.2.6.7.6.6.3.3.3.2.6.5c.4.3.9.6,1.3.9s.9.6,1.3.9.9.5,1.3.8.9.5,1.3.8l1.4.8,1.4.7c.5.2.9.5,1.4.7l1.4.7c1,.4,1.9.8,2.9,1.2s1.9.8,2.9,1.1l1.5.5a8.33,8.33,0,0,0,1.5.4c.5.1,1,.3,1.5.4l1.5.4c1,.3,2,.4,3,.6a61.729,61.729,0,0,0,6.2.8c2.1.2,4.1.2,6.2.2s4.1-.1,6.1-.1,4,.1,5,1.3a7.139,7.139,0,0,1,1.2,2.3,27.973,27.973,0,0,1,.6,2.8c.3,2,.4,4,.5,6s.1,4.1.2,6.1c.1,7.9-.1,15.8-.4,23.7-10.8.1-21.5.1-32.3.2H103.3Z" transform="translate(-31.985 -100.9)" fill="#c5796d"/>
            <path id="SvgjsPath22936" d="M150.7,219.2,147,198l-.4,21.2Z" transform="translate(-31.985 -100.9)" fill="#d4958a"/>
            <path id="SvgjsPath22937" d="M47.3,203.5s2.2,11.5,2.9,15.7h3.5Z" transform="translate(-31.985 -100.9)" fill="#d4958a"/>
          </g>
          <g id="svga-group-clothes-single" transform="translate(0 131.89)">
            <path id="SvgjsPath23124" d="M70.5,190.554S88.2,205.223,91.1,208c2.9,2.907,13.3,6.872,13.3,6.872s13.5-8.326,15.2-10.176S135.9,181.7,135.9,181.7v50.218H71.7Z" transform="translate(-30.285 -176.678)" fill="#fff"/>
            <path id="SvgjsPath23125" d="M73.7,175c.4-1.1,6.3-6.7,6.3-6.7l-5.9.3L55,175.1l3.5,1.3s-17.8,6.5-20.2,6.7c-2.5.2-7.2,0-7,2.8,0,0-2.8,1.5-2.8,3.4s6.1,20.2,8.3,30.4H83.9s-7.1-19.1-8.2-23.6c-1.3-4.5-2.4-19.9-2-21.1Zm98.9-.1a4.183,4.183,0,0,0-3-.3s-.1-2.9-1.2-3-7.7.8-11.9,1.2-13.1-.3-13.1-.3l1.2-1.1c-2.9-.1-16.2-6-17.9-6.5a22.785,22.785,0,0,0-5.4-.3s3.6,2.6,4.2,3.8,6.9,20.1,6.5,24.5-5,26.9-5,26.9h45.5c.1,0,1.3-44.2.1-44.9Z" transform="translate(-27.9 -164.56)" fill="#958e19"/>
            <path id="SvgjsPath23126" d="M173.6,177.7a7.568,7.568,0,0,0-.1-1.5,2.2,2.2,0,0,0-.1-.8.6.6,0,0,0-.1-.4c0-.1-.1-.2-.1-.3a.451.451,0,0,0-.3-.3l-.1-.1a4.075,4.075,0,0,0-1.8-.5h-.8a4.253,4.253,0,0,0-.2-1.1,4.18,4.18,0,0,0-.4-1,2.652,2.652,0,0,0-.5-.6,1.6,1.6,0,0,0-.8-.3,10.888,10.888,0,0,0-1.9.1l-1.8.2-7.1.8a53.877,53.877,0,0,1-7,.3c-1.7-.1-3.5-.1-5.2-.2l1.1-1-1.8-.2c-.8-.1-1.8-.4-2.8-.6-1-.3-1.9-.6-2.9-.9l-5.7-2.1c-1.9-.7-3.8-1.4-5.8-2.1a8.282,8.282,0,0,0-3.1-.4h-3.1a.1.1,0,0,0-.1.1l.1.1.1.1.2.1.3.3.7.6a15.38,15.38,0,0,1,1.3,1.2,14.2,14.2,0,0,1,1.2,1.3c.2.5.4,1.1.6,1.6.7,2.3,1.4,4.6,2.1,7,.7,2.3.545-1,1.145,1.3.2,1-.545-2.5-.345-1.5-.6.6-1.2,1.3-1.8,1.9-2.4,2.4-5.059,8.5-7.459,10.9l-1.8,1.8a5.5,5.5,0,0,1-.9.7,10.911,10.911,0,0,1-1.1.6c-1.5.8-2.472,2.5-3.972,3.3l-8.315,5.4c-3-.9-5.9-1.9-8.8-3a18.328,18.328,0,0,1-4.2-2.1c-1.4-.9-2.779-2.6-4.179-3.4-2.8-1.7-5.815-5.705-8.615-7.405l-3.4-2c0-.03-.01-.061-.06-.395-.529-3.4.5.269.2-3.6-.1-1.1-.2-2.3-.2-3.4v-.8a.735.735,0,0,1,.2-.6c.3-.4.7-.9,1-1.3.7-.9,1.5-1.7,2.3-2.6l1.2-1.3.6-.6.3-.3.2-.2.1-.1a.349.349,0,0,0,.1-.2H73.8c-3.2,1-6.4,2-9.7,3-3.2,1-6.4,2-9.6,3.1l-2.1.7,2.1.8,1.3.5c-3.9,1.4-7.9,2.7-11.8,4.1-1.2.4-2.3.8-3.5,1.1a15.428,15.428,0,0,1-1.7.5c-.3.1-.5.1-.8.2l-.9.1a26.453,26.453,0,0,0-3.8.5,5.474,5.474,0,0,0-1.9.9l-.4.4-.3.6a1.268,1.268,0,0,0-.1.6v.2a10.1,10.1,0,0,0-1.6,1.3,3.84,3.84,0,0,0-1.1,2.3,3.73,3.73,0,0,0,.2,1.2c.1.4.2.7.3,1.1.2.7.4,1.4.6,2.2l2.6,8.6c.9,2.9,1.7,5.8,2.5,8.7s1.5,5.8,2.1,8.8l.1.4,136.8.1v-.5c.1-4,0-8,.1-12l.2-12,.2-12v-6ZM168.2,172.4Zm-108,46.5-8.9.1c-.2-3.1-.6-6.2-1.1-9.3-.5-3.5-1.1-7-1.7-10.4l-.5-2.6-.3-1.3a3.091,3.091,0,0,0-.2-.8,4.347,4.347,0,0,0-.4-.7,7.863,7.863,0,0,0-2.1-2,14.165,14.165,0,0,0-2.3-1.4,41.341,41.341,0,0,0-10-3.6,103.606,103.606,0,0,1,9.3,5,12.717,12.717,0,0,1,3.7,3.1.758.758,0,0,1,.2.4,2.034,2.034,0,0,1,.1.5l.2,1.3.5,2.6c.7,3.4,1.4,6.9,2.2,10.3.7,3,1.5,6,2.3,9H48.6l-11.4.2c-.7-2.8-1.5-5.6-2.3-8.4l39.079-20.935L32.4,202.2c-.8-2.9-1.7-5.8-2.4-8.7a17.417,17.417,0,0,1-.5-2.2,4.253,4.253,0,0,1-.2-1.1,3.751,3.751,0,0,1-.1-1,2.4,2.4,0,0,1,.9-1.6,6.57,6.57,0,0,1,1.7-1.2l.3-.2v-.4a1.173,1.173,0,0,1,.5-1.1,3.506,3.506,0,0,1,1.4-.6,20.158,20.158,0,0,1,3.6-.3h1c.3-.1.7-.1,1-.2a12.092,12.092,0,0,0,1.8-.5c1.2-.4,2.4-.7,3.6-1.1,4.7-1.5,9.4-3.2,14-4.9l.8-.3c.1.1.2.1.4.1l2.1.6c.5.1.9.1,1.4.2-.5.4-1.1.8-1.6,1.2-1.1.9-2.2,1.7-3.2,2.6s-2.1,1.8-3.2,2.7l-.6.5.4.6c.9,1.3,1.8,2.7,2.6,4,.9,1.3,1.8,2.7,2.6,4,.4.7.8,1.4,1.1,2,.3.7.7,1.4,1,2.1l1.9,4.4c2.4,5.6,4.9,11.2,7.6,16.6-4.2.4-8.1.5-12.1.5Zm12-.1c-.8-2.8-1.8-5.5-2.7-8.3-1.1-3-2.2-6.1-3.3-9.1l-1.8-4.5a22.877,22.877,0,0,0-1-2.3c-.4-.8-.8-1.5-1.2-2.2-1.6-2.6-3.3-5-5-7.4.8-.8,1.6-1.5,2.4-2.3l3-2.9c2-1.9,4.1-3.7,6.1-5.7-1.6,1.1-3.2,2.2-4.8,3.4-.5-.2-1-.5-1.5-.7-.4-.2-.8-.3-1.3-.5l-.6-.2a.1.1,0,0,1-.1-.1.349.349,0,0,1-.2-.1l-1.2-.4-1.4-.5c2.5-.9,4.9-1.8,7.4-2.7,3.2-1.1,6.3-2.3,9.4-3.5,1.8-.1,3.6-.4,5.6-.6l-.2.1-.3.3-.7.6-1.3,1.2c-.8.8-1.7,1.6-2.5,2.4a15.378,15.378,0,0,0-1.2,1.3c-.1.1-.2.3-.3.4a1.087,1.087,0,0,0-.1.5c0,.3-.1.6-.1.9v3.5a132.194,132.194,0,0,0,1.1,13.9,21.689,21.689,0,0,0,.7,3.5c.3,1.1.7,2.2,1,3.4.7,2.2,1.4,4.4,2.2,6.6,1.3,3.9,2.7,7.8,4.1,11.6a87.83,87.83,0,0,1-10.2.4Zm15.6,0H84.6L80,206.4l-2.3-6.5c-.4-1.1-.8-2.2-1.1-3.2a32,32,0,0,1-.7-3.3c-.1-.4-1.54-8.505-1.64-8.905l2.8,1.9,8.415,7.705c1.3.9,2.779,2.6,4.079,3.6a19.121,19.121,0,0,0,4.5,2.3c3,1.3,6.1,2.3,9.2,3.3l.3.1.3-.1c3.1-1.4,5.615-4,8.615-5.5l3.972-3.4a4.129,4.129,0,0,0,1.1-.7,10.629,10.629,0,0,0,1.1-.9c.6-.6,1.2-1.2,1.8-1.9,2.3-2.5,4.959-8.7,7.159-11.2l1.3-1.5c.2,1,2.2,12.2,2.3,13.1l.1.9v.8l-.3,1.8-.6,3.6-1.4,7.1-2.7,13.7c-7.4-.1-14.9-.1-22.3-.2-5.5-.2-10.9-.2-16.2-.2Zm50.6,0-10.1-.1c.9-4.4,1.7-8.7,2.5-13.1.4-2.4.9-4.8,1.2-7.2l.6-3.6a11.075,11.075,0,0,0,.2-1.9v-1l-.1-1c-.4-2.5-1-4.9-1.6-7.2-.7-2.4-1.4-4.7-2.2-7s-1.6-4.6-2.5-6.9a6.528,6.528,0,0,0-.8-1.7,17.877,17.877,0,0,0-1.3-1.4c-.5-.4-1-.8-1.4-1.1l-.8-.5-.4-.3-.1-.1h1.3c.5,0,1,.1,1.5.1a9.367,9.367,0,0,1,2.9.6l5.6,2.4c1.9.8,3.8,1.6,5.7,2.3.9.4,1.9.7,2.9,1.1.5.2,1,.3,1.5.5h-.1l-.7.6a7.633,7.633,0,0,0-1.1.8,29.563,29.563,0,0,0-2.6,2.4,34.71,34.71,0,0,0-3.7-2.1c1.2.9,2.5,1.9,3.7,2.9l1.8,1.5a13.736,13.736,0,0,0,2,1.3c1.4.8,2.8,1.5,4.2,2.2a35.393,35.393,0,0,0,3.4,1.6c-1.4,2.6-2.8,5.3-4.1,8l-2.1,4.5a32.941,32.941,0,0,0-1.9,4.7c-.4,1.7-.8,3.3-1.1,4.9s-.6,3.2-.9,4.9c-.5,3.1-1,6-1.4,8.9Zm34.1-11c-.1,3.8-.3,7.6-.4,11.5-4.1-.1-8.1-.2-12.2-.2.4-3.5.6-7,.7-10.6.1-3.9.2-7.8.1-11.7,0-1-.1-2-.1-3l-.1-.8v-.5a5.02,5.02,0,0,1,.2-1.2,38.5,38.5,0,0,1,2.2-5.2c1.8-3.4,3.7-6.8,5.8-10.1a53.8,53.8,0,0,0-7.2,9.3,24.5,24.5,0,0,0-2.6,5.4,4.146,4.146,0,0,0-.3,1.6v.9l.1.7a27.148,27.148,0,0,1,.1,2.9c.1,3.9.2,7.8.4,11.7.1,3.5.3,7,.7,10.6-3.3-.1-6.5-.1-9.8-.1l-11.1-.1c.8-2.8,1.5-5.7,2.3-8.5.8-3.2,1.6-6.4,2.5-9.5.2-.7.6-1.4.9-2.2l1-2.2,2.2-4.4,4.4-8.9.4-.9-.9-.4c-2.9-1.2-5.8-2.4-8.6-3.7a21.16,21.16,0,0,1-2.1-1.1c-.6-.4-1.3-.9-1.9-1.3a.1.1,0,0,1-.1-.1,5.91,5.91,0,0,0,1.4-.6,9.062,9.062,0,0,0,1.6-1.1,9.015,9.015,0,0,1,1-.9l.6.1c2.4.2,4.8.4,7.1.5a43.324,43.324,0,0,0,7.2-.2l7.1-.8,1.8-.2a9.735,9.735,0,0,1,1.6-.1l.1.1a3.329,3.329,0,0,1,.3.6c.1.5.2,1.1.3,1.6l.1.9.9-.2a3.56,3.56,0,0,1,2.3.1v.2c0,.2.1.5.1.7a7.568,7.568,0,0,1,.1,1.5l.3,6c.1,4,.2,8,.1,12-.4,3.9-.5,7.9-.6,11.9Z" transform="translate(-27.9 -164.56)" fill="#767000"/>
          </g>
          <g id="svga-group-head" transform="translate(19.799)">
            <g id="svga-group-ears-left-move" transform="translate(0 51.158)">
              <g id="svga-group-ears-left" transform="translate(0 0)">
                <path id="SvgjsPath22880" d="M59.109,86.517S49.752,78.3,48.25,78.156c-1.292-.123-4.493,6.716-5.909,11.039a4.939,4.939,0,0,0,.209,3.515c1.359,3,4.37,9.262,7.068,12.4a10.416,10.416,0,0,0,3,.275c.722-.218,6.355-4.75,6.935-6.517s.7-9.472-.446-12.35Z" transform="translate(-42.008 -77.796)" fill="#f3d4cf"/>
                <path id="SvgjsPath22881" d="M59.917,89.718a32.458,32.458,0,0,1,.276,3.325c.047,1.112.047,2.223-.009,3.335-.028.56-.076,1.111-.143,1.672-.048.285-.086.56-.161.855a2.9,2.9,0,0,1-.389.808,14.253,14.253,0,0,1-2.071,2.356c-.741.7-1.5,1.368-2.271,2.014-.389.314-.779.636-1.187.931-.2.152-.409.294-.618.437l-.333.209a1.479,1.479,0,0,1-.447.161,5.763,5.763,0,0,1-1.529-.076c-.484-.067-.969-.161-1.453-.266l-.114-.029-.067-.085a31.026,31.026,0,0,1-3.135-4.741c-.922-1.662-1.757-3.382-2.565-5.111L42.513,92.9a5.139,5.139,0,0,1-.456-2.9,6.8,6.8,0,0,1,.37-1.406c.152-.447.314-.893.475-1.34.332-.884.665-1.767,1.016-2.641a34.51,34.51,0,0,1,2.46-5.054,7.968,7.968,0,0,1,.836-1.14,2.428,2.428,0,0,1,.57-.494.849.849,0,0,1,.437-.133,1.638,1.638,0,0,1,.4.1,12.452,12.452,0,0,1,2.309,1.482c1.444,1.083,2.831,2.233,4.189,3.43s2.708,2.4,4.028,3.677a14.753,14.753,0,0,1,.77,3.24Zm-9.3-9.795a12.9,12.9,0,0,0-2.175-1.349,1.742,1.742,0,0,0-.219-.067.344.344,0,0,0-.171.057,1.513,1.513,0,0,0-.428.37,8.018,8.018,0,0,0-.789,1.035,40.652,40.652,0,0,0-2.6,4.845c-.389.846-.77,1.691-1.1,2.575-.171.437-.332.874-.494,1.321a6.132,6.132,0,0,0-.38,1.34,4.852,4.852,0,0,0,.465,2.736q.6,1.3,1.254,2.565c.855,1.691,1.776,3.344,2.736,4.959a34.2,34.2,0,0,0,3.154,4.55l-.181-.1a10.463,10.463,0,0,0,2.764.276.733.733,0,0,0,.238-.1l.294-.19.589-.427c.389-.285.779-.6,1.168-.9.77-.627,1.52-1.273,2.251-1.957a16.079,16.079,0,0,0,2-2.185,2.414,2.414,0,0,0,.313-.6c.067-.228.114-.484.161-.741.076-.522.143-1.064.181-1.605.076-1.083.114-2.176.124-3.277s-.038-2.195-.124-3.287a13.536,13.536,0,0,0-.561-3.22c-2.812-2.223-5.614-4.513-8.474-6.622Z" transform="translate(-42.008 -77.796)" fill="#e4b3ab"/>
                <path id="SvgjsPath22882" d="M59.327,93.47S50.312,82.08,48.621,83.03s-4.351,6.318-4.341,8.1c.019,2.632,2.8,7.03,4.2,8.36a5.51,5.51,0,0,0,5.32,1.625c2.232-.513,5.529-7.648,5.529-7.648Z" transform="translate(-42.008 -77.796)" fill="#e4b3ab"/>
                <path id="SvgjsPath22883" d="M53.542,96.653c-.323-1.083-.694-2.147-1.074-3.2s-.791-2.1-1.216-3.135-.883-2.052-1.387-3.05a28.131,28.131,0,0,0-1.653-2.9l-.066-.1-.067.1c-.627.988-1.216,1.995-1.786,3.04-.285.523-.551,1.045-.807,1.587s-.484,1.1-.7,1.662l-.038.085.038.1c.39,1.178.8,2.337,1.226,3.506.209.58.456,1.15.694,1.719a14.593,14.593,0,0,0,.826,1.691l.161.257.209-.19a6.218,6.218,0,0,0,.731-.855A7.168,7.168,0,0,0,49.21,96a4.967,4.967,0,0,0,.5-2.3v-.048l-.019-.038c-.418-.826-.864-1.644-1.292-2.47l-.048.028c.352.865.7,1.739,1.074,2.594l-.019-.086a4.744,4.744,0,0,1-.579,2.052,6.281,6.281,0,0,1-1.254,1.615l.37.066a14.773,14.773,0,0,1-.77-1.606l-.684-1.7c-.456-1.14-.884-2.289-1.311-3.439v.19a30.912,30.912,0,0,1,1.311-3.3A21.253,21.253,0,0,1,48.2,84.5H48.07a19.469,19.469,0,0,1,1.472,2.955l1.292,3.078,1.311,3.078c.437,1.026.874,2.052,1.34,3.069l.057-.028Z" transform="translate(-42.008 -77.796)" fill="#c5796d"/>
              </g>
            </g>
            <g id="svga-group-ears-right-move" transform="translate(83.404 53.643)">
              <g id="svga-group-ears-right" transform="translate(0)">
                <path id="SvgjsPath22884" d="M130.891,86.517s9.358-8.218,10.859-8.36c1.292-.123,4.493,6.716,5.909,11.039a4.939,4.939,0,0,1-.209,3.515c-1.358,3-4.37,9.262-7.068,12.4a10.416,10.416,0,0,1-3,.275c-.722-.218-6.355-4.75-6.935-6.517s-.7-9.472.446-12.35Z" transform="translate(-129.793 -77.805)" fill="#f3d4cf"/>
                <path id="SvgjsPath22885" d="M130.863,86.488c1.33-1.273,2.66-2.489,4.028-3.676s2.755-2.347,4.189-3.43a13.515,13.515,0,0,1,2.309-1.482,1.294,1.294,0,0,1,.4-.1.849.849,0,0,1,.437.133,2.636,2.636,0,0,1,.57.494,8.768,8.768,0,0,1,.836,1.14,34.51,34.51,0,0,1,2.461,5.054c.361.874.684,1.757,1.016,2.641.161.447.323.893.475,1.34a6.8,6.8,0,0,1,.37,1.406,5.139,5.139,0,0,1-.456,2.9l-1.187,2.612c-.808,1.729-1.643,3.449-2.565,5.111a30.567,30.567,0,0,1-3.135,4.741l-.067.085-.1.019c-.484.1-.969.19-1.453.266a6.191,6.191,0,0,1-1.529.076,1.332,1.332,0,0,1-.447-.161l-.333-.209c-.209-.143-.418-.285-.617-.437-.408-.3-.8-.618-1.187-.931-.779-.636-1.539-1.311-2.271-2.014a13.877,13.877,0,0,1-2.071-2.356,2.9,2.9,0,0,1-.389-.807,5.854,5.854,0,0,1-.161-.855c-.067-.561-.114-1.121-.142-1.672-.057-1.111-.057-2.223-.01-3.335s.124-2.223.275-3.325a13.1,13.1,0,0,1,.76-3.23Zm.057.048a14.465,14.465,0,0,0-.561,3.221c-.085,1.092-.133,2.194-.124,3.287s.048,2.185.124,3.277c.038.542.1,1.083.181,1.606.048.256.1.513.161.741a2.259,2.259,0,0,0,.313.6,16.08,16.08,0,0,0,2,2.185c.722.684,1.482,1.34,2.251,1.957.39.314.77.618,1.169.9l.589.427.294.19a.733.733,0,0,0,.238.095,10.464,10.464,0,0,0,2.765-.275l-.181.1a34.2,34.2,0,0,0,3.154-4.55q1.446-2.435,2.736-4.959c.428-.846.855-1.7,1.254-2.565a4.853,4.853,0,0,0,.465-2.736,6.132,6.132,0,0,0-.38-1.34c-.152-.446-.323-.883-.494-1.32-.333-.874-.722-1.729-1.1-2.575a40.652,40.652,0,0,0-2.6-4.845,8.017,8.017,0,0,0-.788-1.035,2.419,2.419,0,0,0-.427-.37.3.3,0,0,0-.171-.057c-.048,0-.143.057-.219.066a12.9,12.9,0,0,0-2.175,1.349c-2.869,2.119-5.672,4.408-8.474,6.621Z" transform="translate(-129.793 -77.805)" fill="#e4b3ab"/>
                <path id="SvgjsPath22886" d="M130.673,93.47s9.016-11.39,10.706-10.44,4.351,6.318,4.342,8.1c-.019,2.632-2.8,7.03-4.2,8.36a5.532,5.532,0,0,1-5.32,1.625C133.969,100.605,130.673,93.47,130.673,93.47Z" transform="translate(-129.793 -77.805)" fill="#e4b3ab"/>
                <path id="SvgjsPath22887" d="M136.458,96.653c.323-1.083.693-2.147,1.074-3.2s.8-2.1,1.216-3.135.883-2.052,1.387-3.049a28.132,28.132,0,0,1,1.653-2.9l.067-.1.067.1c.627.988,1.216,1.995,1.786,3.04.285.523.551,1.045.808,1.587s.484,1.1.7,1.662l.038.085-.038.1c-.389,1.178-.8,2.337-1.225,3.506-.209.58-.456,1.15-.693,1.719a14.594,14.594,0,0,1-.826,1.691l-.161.257-.209-.19a6.218,6.218,0,0,1-.732-.855A7.169,7.169,0,0,1,140.79,96a4.967,4.967,0,0,1-.5-2.3v-.048l.019-.038c.418-.826.865-1.644,1.292-2.47l.048.028c-.352.865-.7,1.739-1.074,2.594l.019-.086a4.744,4.744,0,0,0,.579,2.052,6.282,6.282,0,0,0,1.254,1.615l-.37.066a14.771,14.771,0,0,0,.77-1.606l.684-1.7c.456-1.14.883-2.289,1.311-3.439v.19a30.909,30.909,0,0,0-1.311-3.3A21.253,21.253,0,0,0,141.8,84.5h.133a19.469,19.469,0,0,0-1.473,2.955l-1.292,3.078-1.311,3.078c-.437,1.026-.874,2.052-1.339,3.069l-.057-.028Z" transform="translate(-129.793 -77.805)" fill="#c5796d"/>
              </g>
            </g>
            <g id="svga-group-faceshape-wrap" transform="translate(11.033 0)">
              <g id="svga-group-faceshape-single">
                <path id="SvgjsPath23421" d="M126.377,50.333c-6.095-7.627-10.279-13.6-26.2-17.83a66.663,66.663,0,0,0-12.826,0c-15.919,4.226-20.1,10.2-26.2,17.83-6.459,8.039-8.642,29.889-8.642,29.889,0,9.894,1.183,33.29,12.1,48.647,16.192,22.88,29.2,22.984,29.2,22.984s12.917,0,29.2-22.984c10.916-15.357,12.1-38.752,12.1-48.647-.091,0-2.274-21.85-8.733-29.889Z" transform="translate(-52.512 -32.194)" fill="#f3d4cf"/>
                <path id="SvgjsPath23422" d="M100.178,32.5a66.663,66.663,0,0,0-12.826,0c-15.919,4.226-20.1,10.2-26.2,17.83-6.459,8.039-8.642,29.889-8.642,29.889,0,9.894,1.183,33.29,12.1,48.647,16.192,22.88,29.2,22.984,29.2,22.984s12.917,0,29.2-22.984c10.916-15.357,12.1-38.752,12.1-48.647,0,0-2.183-21.85-8.642-29.889-6.277-7.627-10.461-13.6-26.289-17.83Zm31.747,32.259c.637,2.577,1,5.153,1.455,7.73.364,2.577.637,5.153.91,7.73a126.3,126.3,0,0,1-2.729,22.674,85.3,85.3,0,0,1-3,10.822c-.637,1.752-1.274,3.5-2,5.153a47.113,47.113,0,0,1-2.456,4.844l-1.364,2.267c-.273.412-3.093,4.329-3.093,4.329l-3.366,4.226-5.549,5.875a50.672,50.672,0,0,1-8.187,6.39l-1.092.618-1.092.618a15.835,15.835,0,0,1-2.274,1.031l-1.183.412c-.364.1-.728.206-1.183.309a9.449,9.449,0,0,1-2.638.412s-1.274-.206-1.728-.309c-.364-.1-.819-.206-1.183-.309l-1.183-.412a22.155,22.155,0,0,1-2.274-1.031l-1.092-.515-1.092-.618a44.867,44.867,0,0,1-8.278-6.184l-3.73-3.71-3.548-4.02-.91-1.031-.819-1.031-1.637-2.164a37.181,37.181,0,0,1-3-4.535,40.338,40.338,0,0,1-2.547-4.947c-.728-1.649-1.455-3.4-2.092-5.256a53.208,53.208,0,0,1-1.637-5.462c-.455-1.855-.91-3.71-1.274-5.566a56.1,56.1,0,0,1-.91-5.669c-.273-1.855-.455-3.813-.637-5.669-.364-3.813-.455-7.627-.455-11.44.273-2.371.728-4.741,1.092-7.111.455-2.37,1-4.741,1.546-7.008.637-2.267,1.274-4.638,2.092-6.8a32.167,32.167,0,0,1,1.274-3.2,36.087,36.087,0,0,1,5.731-8.348,52.983,52.983,0,0,1,4.548-4.844,38.38,38.38,0,0,1,10.916-6.7l1.455-.618a30.683,30.683,0,0,1,10.734-2.37,50.536,50.536,0,0,1,6.368-.1A27.693,27.693,0,0,1,105,34.667a34.245,34.245,0,0,1,6.095,2.37c.273.1,1.455.721,1.455.721.455.309,2.365,1.34,2.82,1.752a55.19,55.19,0,0,1,6.277,5.566c1.546,1.752,3,3.5,4.457,5.359a24.581,24.581,0,0,1,3.548,6.8,44.355,44.355,0,0,1,2.274,7.524Z" transform="translate(-52.512 -32.194)" fill="#c5796d"/>
              </g>
            </g>
            <g id="svga-group-mouth-single-move" transform="translate(37.772 92.409)">
              <g id="svga-group-mouth-single">
                <path id="SvgjsPath26099" d="M86.3,122.394s4.026,4.283,6.88,5.558a19.343,19.343,0,0,0,12.109,1.217c4.931-1.126,9.979-5.27,9.979-5.27s-8.255-2.114-10.51-3.044-4.412.93-4.412.93a3.55,3.55,0,0,0-3.137-1.395c-2.059.186-10.91,2-10.91,2Z" transform="translate(-86.3 -120.374)" fill="#d7848d"/>
                <path id="SvgjsPath26100" d="M86.563,124.05c2.688.48,3.683-.65,6.339,0,1.334.32,2.646.67,3.979,1.04a11.915,11.915,0,0,0,1.916.47,12.845,12.845,0,0,0,1.969.11,25.538,25.538,0,0,0,3.99-.31c.328-.05.656-.1.995-.16s.688-.12,1.027-.16c.677-.1,7.737.12,8.415.05,1.365-.13-.915.21-8.266.92-.328.06-.656.13-.984.2l-1.016.21a24.861,24.861,0,0,1-4.138.38,15.03,15.03,0,0,1-2.106-.15,10.934,10.934,0,0,1-2.053-.53l-3.905-1.21c-2.635-.82-3.566.07-6.159-.86Z" transform="translate(-86.445 -121.561)" fill="#c86771"/>
              </g>
            </g>
            <g id="svga-group-eyes-left-move" transform="translate(16.393 49.837) rotate(-9)">
              <g id="svga-group-eyes-left" transform="translate(0 0)">
                <g id="svga-group-eyesback-left" transform="translate(1.963 0.45)">
                  <path id="SvgjsPath24208" d="M12.15,0A11.894,11.894,0,0,1,24.3,11.7,11.894,11.894,0,0,1,12.15,23.4,11.894,11.894,0,0,1,0,11.7,11.894,11.894,0,0,1,12.15,0Z" fill="#fff"/>
                </g>
                <g id="svga-group-eyesiriswrapper-left" transform="translate(9.073 7.11)">
                  <g id="svga-group-eyesiriscontrol-left">
                    <g id="svga-group-eyesiris-left">
                      <path id="SvgjsPath22952" d="M5.04,0A5.04,5.04,0,1,1,0,5.04,5.032,5.032,0,0,1,5.04,0Z" fill="#3b2a15"/>
                      <path id="SvgjsPath22953" d="M2.7,0A2.652,2.652,0,0,1,5.4,2.7,2.652,2.652,0,0,1,2.7,5.4,2.652,2.652,0,0,1,0,2.7,2.652,2.652,0,0,1,2.7,0Z" transform="translate(2.34 2.34)"/>
                      <path id="SvgjsPath22954" d="M2.25.81,1.71.27A1.022,1.022,0,0,0,.99,0,1.022,1.022,0,0,0,.27.27,1.022,1.022,0,0,0,0,.99a1.022,1.022,0,0,0,.27.72l.54.54a1.022,1.022,0,0,0,.72.27,1.022,1.022,0,0,0,.72-.27A1.089,1.089,0,0,0,2.25.81ZM4.68,5.4a.675.675,0,1,0,0-1.35A.679.679,0,0,0,4.68,5.4Z" transform="translate(2.16 2.07)" fill="#fff"/>
                    </g>
                  </g>
                </g>
                <g id="svga-group-eyesfront-left">
                  <path id="SvgjsPath24216" d="M12.69,0A12.47,12.47,0,0,0,0,12.24,12.47,12.47,0,0,0,12.69,24.48,12.47,12.47,0,0,0,25.38,12.24,12.47,12.47,0,0,0,12.69,0ZM9.9,15.12c-4.5-1.8-7.83-4.59-8.1-5.31S7.74,7.83,10.44,8.1s9.18,3.06,10.08,4.41a19.69,19.69,0,0,1,1.71,4.05C18.09,18,14.4,16.92,9.9,15.12Z" transform="translate(1.423)" fill="#f3d4cf"/>
                  <path id="SvgjsPath24217" d="M22.663,7.594c-1.53-1.98-10.35-4.14-11.07-4.32-.27-.09-1.89,0-3.87,0A8.5,8.5,0,0,1,5.383.3a.465.465,0,0,0-.63-.27.465.465,0,0,0-.27.63,7.627,7.627,0,0,0,1.89,2.7,9.782,9.782,0,0,1-1.62.09A8.555,8.555,0,0,1,2.143.934a.474.474,0,0,0-.63-.18.474.474,0,0,0-.18.63,6.938,6.938,0,0,0,1.89,2.07c-1.17.09-2.25.09-2.97.18a.285.285,0,0,0-.09.54l3.06,1.62v.09c.09.18.18.18.27.36l1.08,1.08A16.633,16.633,0,0,0,7,9.034a22.412,22.412,0,0,0,5.31,2.61,21.2,21.2,0,0,0,5.67,1.53,11.338,11.338,0,0,0,5.76-.63c.09.18.09.27.18.45.18.27.63.18.54-.18a16.3,16.3,0,0,0-1.8-5.22Zm-4.77,5.31a30.417,30.417,0,0,1-5.58-1.62,34.9,34.9,0,0,1-5.22-2.52l-2.43-1.62a10.786,10.786,0,0,1-1.08-.99l-.09-.09a61.7,61.7,0,0,1,7.92-1.8,3.828,3.828,0,0,1,.99.18c2.25.63,8.55,3.42,9.27,4.41a29.059,29.059,0,0,1,1.98,3.87,17.7,17.7,0,0,1-5.76.18Z" transform="translate(0 4.016)" fill="#664747"/>
                </g>
              </g>
            </g>
            <g id="svga-group-eyes-right-move" transform="translate(61.169 46.029) rotate(7)">
              <g id="svga-group-eyes-right" transform="translate(0 0)">
                <g id="svga-group-eyesback-right" transform="translate(0.54 0.45)">
                  <path id="SvgjsPath24209" d="M12.15,0A11.894,11.894,0,0,1,24.3,11.7,11.894,11.894,0,0,1,12.15,23.4,11.894,11.894,0,0,1,0,11.7,11.894,11.894,0,0,1,12.15,0Z" fill="#fff"/>
                </g>
                <g id="svga-group-eyesiriswrapper-right" transform="translate(8.28 7.74)">
                  <g id="svga-group-eyesiriscontrol-right">
                    <g id="svga-group-eyesiris-right">
                      <path id="SvgjsPath22955" d="M4.41,0A4.41,4.41,0,1,1,0,4.41,4.417,4.417,0,0,1,4.41,0Z" fill="#3b2a15"/>
                      <path id="SvgjsPath22956" d="M2.43,0A2.43,2.43,0,1,1,0,2.43,2.42,2.42,0,0,1,2.43,0Z" transform="translate(1.98 1.98)"/>
                      <path id="SvgjsPath22957" d="M1.98.72C1.8.54,1.71.36,1.53.27A1.344,1.344,0,0,0,.9,0,.972.972,0,0,0,.27.27.817.817,0,0,0,0,.9a.972.972,0,0,0,.27.63c.18.18.36.27.45.45a.7.7,0,0,0,.63.27.972.972,0,0,0,.63-.27A1.072,1.072,0,0,0,1.98.72ZM4.14,4.77a.587.587,0,0,0,0-1.17A.587.587,0,0,0,4.14,4.77Z" transform="translate(1.89 1.8)" fill="#fff"/>
                    </g>
                  </g>
                </g>
                <g id="svga-group-eyesfront-right">
                  <path id="SvgjsPath24218" d="M12.69,0A12.47,12.47,0,0,0,0,12.24,12.47,12.47,0,0,0,12.69,24.48,12.47,12.47,0,0,0,25.38,12.24,12.47,12.47,0,0,0,12.69,0Zm3.06,14.49a41.471,41.471,0,0,1-11.7,3.24,46.529,46.529,0,0,1,2.43-4.86c.9-1.35,8.37-4.5,10.8-4.59s6.39,1.71,6.03,2.43c-.27.63-3.33,2.07-7.56,3.78Z" fill="#f3d4cf"/>
                  <path id="SvgjsPath24221" d="M23.234,3.888c-.72-.09-1.8-.18-2.97-.36a3.95,3.95,0,0,0,.99-1.26.564.564,0,0,0-.18-.72.387.387,0,0,0-.63.18,5.748,5.748,0,0,1-1.62,1.62c-.45-.09-.9-.09-1.26-.18a5.149,5.149,0,0,0,1.08-2.52.677.677,0,0,0-.45-.63.451.451,0,0,0-.54.45A3.953,3.953,0,0,1,16.3,2.9l-.09.09a25.2,25.2,0,0,0-3.6-.27c-.72.18-8.91,1.98-10.53,4.05C1.094,8.118.374,11,.014,12.8a.2.2,0,0,0,.36.18c.09-.09.09-.27.18-.36a38.46,38.46,0,0,0,10.44-2.52q2.565-.945,5.13-2.16a17.191,17.191,0,0,0,2.52-1.35c.18-.09.36-.27.63-.45l.27-.27,3.6-1.62c.36-.09.36-.36.09-.36Zm-4.59,2.34a21.546,21.546,0,0,1-2.52,1.17c-.81.36-1.71.72-2.52,1.08s-1.71.72-2.61,1.08a50.978,50.978,0,0,1-5.22,1.8,49.263,49.263,0,0,1-4.95,1.17,28.343,28.343,0,0,1,2.34-4.5c.81-1.08,10.26-4.41,11.61-4.5,1.17-.09,3.69,1.98,4.32,2.43a1.967,1.967,0,0,0-.45.27Z" transform="translate(3.676 5.022)" fill="#664747"/>
                </g>
              </g>
            </g>
            <g id="svga-group-eyebrows-left-move" transform="translate(18.561 41.578)">
              <g id="svga-group-eyebrows-left-rotate" transform="translate(0.52 0) rotate(7.5)">
                <g id="svga-group-eyebrows-left">
                  <path id="SvgjsPath25095" d="M.03,3.585c2.16.13,4.31.18,6.47.24l3.23.05h3.22c1.07-.01,2.15.06,3.23.1a14.3,14.3,0,0,0,3.2-.24,23.7,23.7,0,0,0,3.14-.8,14.469,14.469,0,0,0,3.07-1.39l-.04-.37A15.482,15.482,0,0,0,22.24.3a22.423,22.423,0,0,0-3.25-.29,14.788,14.788,0,0,0-3.19.27c-1.05.21-2.1.45-3.16.61L9.47,1.4l-3.16.56c-2.1.4-4.21.79-6.31,1.26Z" fill="#4f3427"/>
                </g>
              </g>
            </g>
            <g id="svga-group-eyebrows-right-move" transform="translate(62.17 42.332)">
              <g id="svga-group-eyebrows-right-rotate" transform="translate(0 3.161) rotate(-7.5)">
                <g id="svga-group-eyebrows-right">
                  <path id="SvgjsPath25096" d="M24.22,1.364c-2.01.29-4.03.52-6.04.75l-3.02.32-3.02.28c-1.01.09-2.01.23-3.02.36a17.057,17.057,0,0,1-3.03.09,26.574,26.574,0,0,1-3.04-.38,15.713,15.713,0,0,1-3.04-.85L0,1.624a16.1,16.1,0,0,1,3.01-1A24.456,24.456,0,0,1,6.03.1,16.152,16.152,0,0,1,9.06.044c1.01.08,2.02.18,3.03.22l3.03.13,3.03.18c2.02.14,4.04.27,6.07.47v.32Z" fill="#4f3427"/>
                </g>
              </g>
            </g>
            <g id="svga-group-nose-single-move" transform="translate(42.649 77.414)">
              <g id="svga-group-nose-single" transform="translate(0)">
                <path id="SvgjsPath24743" d="M87.58,99.427a15.97,15.97,0,0,0-.959,3.563,3.734,3.734,0,0,0,.1,1.729l.076.181.114.171a.664.664,0,0,0,.123.152,1.01,1.01,0,0,0,.143.143,1.558,1.558,0,0,0,.7.332,4.228,4.228,0,0,0,1.71-.1l.447-.1.237-.057.123-.028.152-.019a2.137,2.137,0,0,1,1.073.256,10.091,10.091,0,0,1,1.587,1.083l.18.133a1.429,1.429,0,0,0,.161.095,1.505,1.505,0,0,0,.361.143,2.833,2.833,0,0,0,.8.1,2.492,2.492,0,0,0,1.5-.513l.152-.133.18-.161a5.566,5.566,0,0,1,1.226-.865,3.163,3.163,0,0,1,.988-.313,2.212,2.212,0,0,1,.56,0c.1.009.19.038.285.057l.247.1a2.847,2.847,0,0,0,.8.143,4.486,4.486,0,0,0,.874-.028,2.543,2.543,0,0,0,1.52-.589,1.268,1.268,0,0,0,.266-.722,3.932,3.932,0,0,0-.01-.884,10.977,10.977,0,0,0-1.045-3.524,10.217,10.217,0,0,1,1.425,3.468,4.659,4.659,0,0,1,.076.969,1.768,1.768,0,0,1-.314,1.017,2.011,2.011,0,0,1-.865.6,4.347,4.347,0,0,1-.96.256,5.661,5.661,0,0,1-.979.076,3.077,3.077,0,0,1-1.026-.161l-.19-.066a1.071,1.071,0,0,0-.171-.028,1.231,1.231,0,0,0-.37.019,2.675,2.675,0,0,0-.77.275,4.372,4.372,0,0,0-.713.465c-.114.085-.218.19-.332.285l-.161.152-.2.181a3.175,3.175,0,0,1-1.957.694,3.21,3.21,0,0,1-1.035-.143,2.565,2.565,0,0,1-.5-.209c-.076-.048-.161-.1-.238-.152l-.19-.143a11.517,11.517,0,0,0-1.463-1.035,1.55,1.55,0,0,0-.7-.209h-.076l-.1.019-.219.048-.465.095a4.5,4.5,0,0,1-1.985.029,2.068,2.068,0,0,1-1.5-1.4,4.011,4.011,0,0,1,0-1.957,12.8,12.8,0,0,1,.551-1.805,14.457,14.457,0,0,1,.76-1.672Z" transform="translate(-86.146 -99.427)" fill="#c5796d"/>
                <path id="SvgjsPath24744" d="M96.406,102.153a1.729,1.729,0,0,0-1.634-.39c-.076.019-.143.029-.209.048a1.429,1.429,0,0,0-.826-.266,1.5,1.5,0,0,0-1.054.437,1.523,1.523,0,0,0,0,2.109c.969,1.035,3.116,1.32,3.933-.066A1.6,1.6,0,0,0,96.406,102.153Z" transform="translate(-86.146 -99.427)" fill="#fbe5e2"/>
              </g>
            </g>
            <g id="svga-group-glasses-single-move" transform="translate(10.159 47.66)">
              <g id="svga-group-glasses-single">
                <path id="SvgjsPath23634" d="M67.6,79c-3.634-.287-8.032-.1-8.7,3.634-.669,3.634,1.912,10.9,5.259,14.63a24.765,24.765,0,0,0,10.9,6.789c2.964.861,7.841,1.147,10.71-.287a12.15,12.15,0,0,0,6.694-7.841c1.147-4.112.478-7.745,0-8.606-.574-.861-4.016-3.825-11.092-6.216A39.807,39.807,0,0,0,67.6,79Z" transform="translate(-56.091 -76.835)" fill="url(#linear-gradient)"/>
                <path id="SvgjsPath23640" d="M129.984,79.8c3.442-.191,7.554.191,8.224,3.634.669,3.538-1.626,10.423-4.686,14.057a21.34,21.34,0,0,1-10.232,6.5c-2.773.765-7.554,1.052-10.327-.287a12.413,12.413,0,0,1-6.694-7.841c-1.147-4.112-.574-7.745-.1-8.51.574-.765,3.825-3.729,10.71-5.929a36.645,36.645,0,0,1,13.1-1.626Z" transform="translate(-58.139 -76.871)" fill="url(#linear-gradient-2)"/>
                <path id="SvgjsPath23646" d="M135.464,78.437a39.946,39.946,0,0,0-16.16.574,48.679,48.679,0,0,0-13.578,5.642,6.1,6.1,0,0,0-2.677,3.634l-.669-.191a13.728,13.728,0,0,0-8.319-.1l-.861.287a5.835,5.835,0,0,0-2.773-3.729,55.35,55.35,0,0,0-14.057-6.024A42.79,42.79,0,0,0,59.252,77.48c-5.546.861-2.677,7.172-.669,12.144,2.008,4.877,5.929,10.71,12.814,13.483,7.172,2.869,11.188,2.486,15.4.574,4.494-2.1,6.216-7.745,6.5-10.614a16.214,16.214,0,0,0,0-3.729l1.052-.287a13.04,13.04,0,0,1,7.65.1l.861.287a24.3,24.3,0,0,0,.1,3.729c.287,2.964,2.1,8.51,6.5,10.614,4.112,1.912,8.032,2.295,14.822-.478,6.5-2.677,10.04-8.319,11.857-13C138.046,85.321,140.628,79.393,135.464,78.437ZM91.956,96.031a12.574,12.574,0,0,1-6.98,7.554c-3.347,1.243-7.554.574-9.849,0-2.391-.574-9.658-3.347-12.814-10.519-3.156-7.363-2.2-10.614-1.721-11.379s3.634-3.156,18.073-.1c14.057,2.964,13.674,7.459,13.674,7.459A16.527,16.527,0,0,1,91.956,96.031Zm40.927-2.582c-2.773,6.885-9.658,9.467-11.953,10.136a17.026,17.026,0,0,1-9.562,0,12.6,12.6,0,0,1-6.981-7.554,16.844,16.844,0,0,1-.574-6.885s-.382-4.494,13.387-7.076c13.674-2.677,16.638-.382,17.117.478C134.795,83.313,135.751,86.469,132.882,93.449Z" transform="translate(-55.97 -76.754)" fill="#fff"/>
                <path id="SvgjsPath23647" d="M135.461,78.423a34.522,34.522,0,0,0-8.893-.478,39.616,39.616,0,0,0-8.8,1.626,51.74,51.74,0,0,0-8.319,3.251,24.9,24.9,0,0,0-3.825,2.2,5.363,5.363,0,0,0-2.2,3.347l-.1.287-.382-.1a17.444,17.444,0,0,0-2.391-.669,10.5,10.5,0,0,0-2.486-.191,21.757,21.757,0,0,0-2.486.191,11.187,11.187,0,0,0-2.391.669l-.382.1-.1-.382a5.6,5.6,0,0,0-1.339-2.582A10.385,10.385,0,0,0,88.8,83.874c-1.912-1.052-3.921-2.008-5.929-2.869a46.821,46.821,0,0,0-13-3.538,40.772,40.772,0,0,0-6.789-.287c-1.147.1-2.295.191-3.347.287a3.858,3.858,0,0,0-2.773,1.339,3.72,3.72,0,0,0-.669,2.869,15.816,15.816,0,0,0,.669,3.06c.669,2.008,1.53,4.016,2.391,5.929a24.076,24.076,0,0,0,7.937,9.849,20.728,20.728,0,0,0,5.833,2.869,27.546,27.546,0,0,0,6.311,1.434,13.309,13.309,0,0,0,6.12-.956,9.025,9.025,0,0,0,2.677-1.434,10.478,10.478,0,0,0,2.008-2.1,15.417,15.417,0,0,0,2.391-5.259A14.763,14.763,0,0,0,93,92.193a15.352,15.352,0,0,0,0-2.964v-.287l.287-.1c.765-.191,1.53-.478,2.391-.669a11.327,11.327,0,0,1,2.486-.191,11.024,11.024,0,0,1,2.486.287,17.444,17.444,0,0,1,2.391.669l.287.1v.287a25.559,25.559,0,0,0,.1,3.825,15.652,15.652,0,0,0,.956,3.634,11.527,11.527,0,0,0,4.494,5.929,14.64,14.64,0,0,0,7.554,2.008,21.961,21.961,0,0,0,7.745-1.912c5.068-1.912,8.8-6.12,11-10.805.574-1.147,1.052-2.391,1.53-3.634a28.422,28.422,0,0,0,1.243-3.729,7.762,7.762,0,0,0,.287-3.921,3.346,3.346,0,0,0-2.773-2.295Zm0-.1a3.5,3.5,0,0,1,2.964,2.486,7.762,7.762,0,0,1-.287,3.921,24.375,24.375,0,0,1-1.243,3.729c-.478,1.243-.861,2.486-1.434,3.634a24.855,24.855,0,0,1-4.4,6.6,19.432,19.432,0,0,1-6.694,4.59,24.9,24.9,0,0,1-8.032,2.1,14.578,14.578,0,0,1-8.032-2.008,12.335,12.335,0,0,1-4.781-6.311,13.216,13.216,0,0,1-.956-3.825,14.14,14.14,0,0,1-.1-4.016l.287.382a20.767,20.767,0,0,0-2.295-.669,9.311,9.311,0,0,0-2.295-.191,17.13,17.13,0,0,0-2.295.191,20.123,20.123,0,0,0-2.295.574l.287-.382A17.606,17.606,0,0,1,90.9,100.7a11.973,11.973,0,0,1-2.2,2.2,10.086,10.086,0,0,1-2.869,1.434,14.758,14.758,0,0,1-6.5.956,24.117,24.117,0,0,1-6.407-1.53,23.911,23.911,0,0,1-5.833-2.964,24.463,24.463,0,0,1-7.937-10.04c-.861-1.912-1.626-3.921-2.391-5.929-.287-1.052-.574-2.1-.765-3.156a4.3,4.3,0,0,1,.669-3.06,4.843,4.843,0,0,1,2.964-1.434c1.147-.191,2.295-.287,3.442-.382a41.43,41.43,0,0,1,6.885.191,53.351,53.351,0,0,1,13.292,3.442A58.264,58.264,0,0,1,89.275,83.3a14.267,14.267,0,0,1,2.773,1.912,6.018,6.018,0,0,1,1.53,2.869l-.478-.287c.765-.191,1.626-.478,2.486-.669a11.75,11.75,0,0,1,2.582-.191,11.869,11.869,0,0,1,2.582.287,18.871,18.871,0,0,1,2.486.669l-.382.191a6.013,6.013,0,0,1,2.486-3.634,22.2,22.2,0,0,1,3.921-2.1,59.991,59.991,0,0,1,8.51-3.156,40.284,40.284,0,0,1,8.893-1.53,45.462,45.462,0,0,1,8.8.669ZM91.953,96.018a13.4,13.4,0,0,1-2.295,4.3,11.663,11.663,0,0,1-3.921,3.156,12.185,12.185,0,0,1-5.164,1.052,20.053,20.053,0,0,1-5.355-.669,21.021,21.021,0,0,1-4.972-2.1A19.8,19.8,0,0,1,66.039,98.5,19.374,19.374,0,0,1,62.883,94.3a42.053,42.053,0,0,1-2.008-4.781,18.408,18.408,0,0,1-1.052-5.068,7.942,7.942,0,0,1,.287-2.582,2.439,2.439,0,0,1,.861-1.147,3.624,3.624,0,0,1,1.243-.574,18.576,18.576,0,0,1,5.642-.574,56.376,56.376,0,0,1,5.642.574A68.183,68.183,0,0,1,84.3,82.63a23.469,23.469,0,0,1,4.972,2.295,9.2,9.2,0,0,1,2.1,1.721,3.775,3.775,0,0,1,1.147,2.391,17.2,17.2,0,0,1-.574,6.98Zm-.1,0a15.2,15.2,0,0,0,.287-6.885A3.59,3.59,0,0,0,91,87.125a11.908,11.908,0,0,0-2.1-1.53,25.9,25.9,0,0,0-4.972-2.1A66.829,66.829,0,0,0,73.211,81.1a52.676,52.676,0,0,0-5.451-.574,16.5,16.5,0,0,0-5.355.382c-.861.287-1.626.574-1.817,1.339a6.949,6.949,0,0,0-.382,2.391,18.1,18.1,0,0,0,.861,4.972A25.329,25.329,0,0,0,62.979,94.3a18.82,18.82,0,0,0,3.156,4.112,22.655,22.655,0,0,0,9.18,4.972c3.347.765,7.076,1.052,10.232-.191a12.506,12.506,0,0,0,6.311-7.172Zm41.022-2.582a18.262,18.262,0,0,1-6.885,8.128,18.73,18.73,0,0,1-5.068,2.295,22.226,22.226,0,0,1-5.642.669,10.89,10.89,0,0,1-5.451-1.53,13.293,13.293,0,0,1-3.921-3.729,11.507,11.507,0,0,1-2.008-4.877,16.7,16.7,0,0,1-.191-5.355,3.593,3.593,0,0,1,1.339-2.486,10.294,10.294,0,0,1,2.295-1.721,28.7,28.7,0,0,1,5.355-2.2,66.2,66.2,0,0,1,11.379-2.1,29.61,29.61,0,0,1,5.833-.1,15.247,15.247,0,0,1,2.869.574,5.842,5.842,0,0,1,1.339.669,2.536,2.536,0,0,1,.478.574,1.773,1.773,0,0,1,.191.669,12.606,12.606,0,0,1-.191,5.355,21.848,21.848,0,0,1-1.721,5.164Zm0,0a23.8,23.8,0,0,0,1.53-5.068,10.472,10.472,0,0,0-.1-5.164c-.1-.191-.1-.382-.287-.574a.747.747,0,0,0-.382-.382l-1.147-.574a13.131,13.131,0,0,0-2.677-.478,37.519,37.519,0,0,0-5.642.191,53.39,53.39,0,0,0-5.642.861,51.927,51.927,0,0,0-5.546,1.243,31.48,31.48,0,0,0-5.259,2.008,9.61,9.61,0,0,0-2.295,1.53,3.073,3.073,0,0,0-1.243,2.1,13.907,13.907,0,0,0,.1,5.259,18.87,18.87,0,0,0,.669,2.486,9.527,9.527,0,0,0,1.339,2.295,11.624,11.624,0,0,0,3.921,3.538,10.833,10.833,0,0,0,5.164,1.243,21.27,21.27,0,0,0,5.451-.669,18.97,18.97,0,0,0,4.972-2.1,15.85,15.85,0,0,0,4.207-3.347,15.2,15.2,0,0,0,2.869-4.4Z" transform="translate(-55.967 -76.74)" fill="#e0e0e0"/>
              </g>
            </g>
          </g>
        </g>
      </g>
    </g>
    <g id="svga-group-hair-front" transform="translate(-12500.769 -2392.043)">
      <path id="SvgjsPath7476" d="M145.962,79.308c-.918,7.7-2.856,15-4.9,18.6,0,0-.306-14.3-3.774-21.1s-13.668-14.6-14.892-20.3c0,0,1.53,3.3,3.876,4.7s10.506,7.6,12.444,9.7,5.1,7.3,6.426,8C145.248,79.008,145.656,79.108,145.962,79.308ZM68.238,135.714c0,.6-.2,2.2-.51,4.5-.714-6.6-2.142-13.9-2.142-13.9s-30.8,44.5-26.724,59.206,12.342,24.9,13.158,25.7,4.08,1.9,5.508,4.5c.51,1,10.71-8.8,5.712-20.6-4.9-11.8-6.018-19.8-1.938-26a38.782,38.782,0,0,0,1.938-3.5c-.816,4.3-1.53,7.7-1.734,8.7a21.408,21.408,0,0,0,1.53,14c2.448,5.5,6.222,5.8,6.222,5.8-1.734-2.7-1.836-7.3-.2-12.1s4.284-9.5,5.712-14.5c1.53-5.2,2.244-11.4-2.754-21.7a68.488,68.488,0,0,1-3.774-10.1Z" transform="translate(-34.006 -27.169)" fill="#543d23"/>
      <path id="SvgjsPath7477" d="M122.4,56.474s-18.564,6.793-33.456,1.7S64.464,73.258,65.688,85.247,75.276,112.92,70.38,132.3,51.2,166.469,47.124,175.061s-4.08,17.383,0,23.677,6.12,10.79,7.242,17.383c0,0-1.53-3.6-7.548-7.992-9.486-6.893-13.362-15.086-12.75-27.873s6.324-22.778,11.322-33.068c4.9-10.29,7.446-23.278,3.978-31.869s-7.446-20.48-6.018-41.66C44.778,52.578,56.712,41.289,71.6,32.7S108.018,25.7,121.686,34s11.628,15.685,11.628,15.685,4.08-2,10.2,7.093,2.04,33.368-2.346,41.061c0,0-2.59-14.265-6.058-21.058S123.624,62.169,122.4,56.474Z" transform="translate(-34.006 -26.969)" fill="#5c452b"/>
      <path id="SvgjsPath7478" d="M130.152,50.183a6.631,6.631,0,0,1-6.222.8c-4.182-1.8-7.548-7.992-11.016-11.689C107.1,33.1,105.57,29.9,92.208,29.2A47.941,47.941,0,0,0,70.788,33C56.3,41.491,44.778,52.78,43.35,73.56c-1.428,21.08,2.448,33.068,6.018,41.66s.918,21.579-3.978,31.869-10.71,20.28-11.322,33.068,3.366,20.98,12.75,27.873c6.018,4.4,7.548,7.992,7.548,7.992-1.632-4.5-4.08-6.294-8.874-10.59-4.9-4.3-9.588-16.384-8.568-25.575S46.818,154.881,51,148.487s7.548-17.383,8.976-23.277.2-10.79-3.978-20.88-6.426-36.465-5.712-40.96c1.122-8.292,3.162-13.986,9.588-20.58C69.462,33,81.906,31.5,89.352,31.4c12.036-.1,20.4,7.693,21.93,9.89s10.71,11.888,13.056,12.288,8.16-3.4,8.16-3.4l.714-.6a5.872,5.872,0,0,0,0-2.6,9.736,9.736,0,0,1-3.06,3.2Zm-25.908,9.791a3.54,3.54,0,0,0,1.02-.1,2.585,2.585,0,0,0,.816-.1c.408,0,.918-.1,1.326-.1.2,0,.51-.1.816-.1s.714-.1,1.02-.1.612-.1.918-.1.612-.1.918-.1c.2,0,.408-.1.612-.1a5.218,5.218,0,0,1,1.224-.2c.2,0,.408-.1.612-.1a5.363,5.363,0,0,1,1.122-.2c.2,0,.306-.1.408-.1a3.032,3.032,0,0,1,.918-.2.38.38,0,0,0,.306-.1c.408-.1.816-.2,1.122-.3a.38.38,0,0,0,.306-.1c.408-.1.714-.2,1.122-.3,2.244-.6,3.57-1.1,3.57-1.1s-5.1.6-11.118-5.495c-2.346-3.7-6.222-10.49-12.24-12.788-6.936-2.7-30.09-3.9-37.944,12.488s-2.754,30.47.612,37.364,8.67,20.081,8.466,28.672c-.2,8.692-2.346,20.98-4.692,26.374S47.532,167.469,44.268,176.36c-3.366,9.291-4.488,15.585,3.57,28.273,3.06,4.9,5.1,6.294,5.916,8.092-1.224-5-3.162-8.991-6.63-14.186-4.08-6.294-4.08-15.085,0-23.677S65.484,151.484,70.38,132.1s-3.468-35.066-4.692-47.054S74.154,52.88,88.944,57.975a31.745,31.745,0,0,0,5.916,1.4h.1c.2,0,.408.1.714.1.408,0,.816.1,1.224.1a2.027,2.027,0,0,1,.816.1c.408,0,.816.1,1.326.1h4.182a.989.989,0,0,0,1.02.2Z" transform="translate(-34.006 -26.969)" fill="#543d23"/>
      <path id="SvgjsPath7479" d="M64.566,148.615a60.6,60.6,0,0,1-9.486,14.7c-9.078,10.7-10.914,17.4-7.548,25.8s7.956,12.8,9.486,16.5a17.555,17.555,0,0,1,1.122,7.6s1.938-4.1,1.122-7.2c-.714-3.1-7.548-13.9-8.568-20a24.821,24.821,0,0,1,4.284-18.7c3.57-4.9,7.752-11.6,9.588-18.7Zm1.938,1.5s-2.55,11.6-6.12,17.4-4.692,13-2.04,19.1,7.752,14.1,7.344,19.4c0,0,3.468-6.4.2-13s-4.386-16.4-1.734-23.1c2.652-6.6,2.958-15.2,2.346-19.8Z" transform="translate(-34.006 -27.169)" fill="#5c452b"/>
      <path id="SvgjsPath7480" d="M94.962,59.706c.306,0,.51.1.714.1.408,0,.816.1,1.224.1a2.025,2.025,0,0,1,.816.1c.408,0,.816.1,1.326.1h1.53a20.289,20.289,0,0,1-7.752-5.4c-4.9-5.9-8.67-8.6-16.524-7.8s-16.116,11.2-15.606,22.1c.51,10.8,4.08,17.7,6.324,23.6a52.76,52.76,0,0,1-1.326-7.3c-1.122-12,8.466-32.2,23.256-27.1a44.1,44.1,0,0,0,6.018,1.5Z" transform="translate(-34.006 -26.969)" fill="#4d361c"/>
    </g>
  </g>
</svg>
