<svg id="hamid" xmlns="http://www.w3.org/2000/svg" width="200" height="220" viewBox="0 0 200 220">
  <g id="svga-group-backs-single">
    <path id="SvgjsPath9001" d="M0,0H200V220H0Z" fill="#c7c3ad"/>
  </g>
  <g id="svga-group-humanwrap-move" transform="translate(9.233 44.938)">
    <g id="svga-group-humanwrap">
      <g id="svga-group-ears-right-move" transform="translate(123.53 53.792)">
        <g id="svga-group-ears-right" transform="translate(0 0)">
          <path id="SvgjsPath5435" d="M131.224,76.653s8.533-6.153,9.9-6.253c1.179-.088,4.1,5.029,5.4,8.262a3.078,3.078,0,0,1-.191,2.637c-1.24,2.241-3.987,6.931-6.451,9.28a11.523,11.523,0,0,1-2.74.207c-.658-.157-5.8-3.56-6.329-4.878s-.635-7.095.413-9.254Z" transform="translate(-130.218 -70.078)" fill="#f2d0be"/>
          <path id="SvgjsPath5436" d="M131.139,76.516c1.209-.96,2.426-1.876,3.681-2.766,1.24-.9,2.51-1.768,3.826-2.583a12.309,12.309,0,0,1,2.1-1.112,1.937,1.937,0,0,1,.36-.076.911.911,0,0,1,.4.1,1.907,1.907,0,0,1,.513.373,7.066,7.066,0,0,1,.765.859,25.181,25.181,0,0,1,2.25,3.8c.329.657.628,1.32.934,1.989.145.335.291.669.429,1.01a4.472,4.472,0,0,1,.337,1.055,3.28,3.28,0,0,1-.413,2.185l-1.079,1.964c-.742,1.3-1.5,2.6-2.342,3.852a23.169,23.169,0,0,1-2.862,3.568l-.061.063-.1.019c-.444.082-.88.145-1.324.2a7.168,7.168,0,0,1-1.393.057,1.474,1.474,0,0,1-.406-.12l-.306-.152c-.191-.107-.383-.215-.566-.328-.367-.227-.727-.461-1.087-.7-.712-.48-1.4-.985-2.074-1.516a11.565,11.565,0,0,1-1.89-1.768,2.024,2.024,0,0,1-.352-.606,5.44,5.44,0,0,1-.153-.644c-.061-.423-.107-.84-.13-1.257a21.187,21.187,0,0,1-.008-2.514,22.91,22.91,0,0,1,.253-2.5,8.173,8.173,0,0,1,.7-2.457Zm.046.038a8.7,8.7,0,0,0-.505,2.425c-.077.821-.115,1.648-.115,2.476s.046,1.648.115,2.463c.038.41.092.815.161,1.206a5.314,5.314,0,0,0,.145.562,1.589,1.589,0,0,0,.291.455,13.178,13.178,0,0,0,1.829,1.648c.658.512,1.347,1,2.051,1.478.352.234.7.461,1.064.682l.536.316.268.139a.646.646,0,0,0,.214.069,11.683,11.683,0,0,0,2.518-.208l-.161.082a25.662,25.662,0,0,0,2.877-3.423c.872-1.213,1.714-2.457,2.495-3.732.39-.638.781-1.276,1.14-1.926a3.066,3.066,0,0,0,.421-2.059,4.1,4.1,0,0,0-.344-1.01c-.145-.335-.291-.663-.452-.992-.306-.657-.658-1.3-1.01-1.933a28.754,28.754,0,0,0-2.38-3.644,6.056,6.056,0,0,0-.719-.783,2.085,2.085,0,0,0-.39-.278.377.377,0,0,0-.153-.044c-.046,0-.13.038-.2.051A12.608,12.608,0,0,0,138.9,71.59C136.3,73.163,133.748,74.887,131.185,76.554Z" transform="translate(-130.156 -69.98)" fill="#e3b49b"/>
          <path id="SvgjsPath5437" d="M131.21,83.157s8.227-7.61,9.773-6.976,3.972,4.219,3.964,5.419c-.015,1.759-2.556,4.7-3.834,5.581a6.284,6.284,0,0,1-4.86,1.087C134.218,87.926,131.21,83.157,131.21,83.157Z" transform="translate(-130.404 -71.427)" fill="#e3b49b"/>
          <path id="SvgjsPath5438" d="M146.09,83.524c-.2-.513-.4-1.025-.643-1.515q-.344-.735-.735-1.446c-.513-.949-1.056-1.867-1.622-2.77l-.061-.092-.061.092a26.411,26.411,0,0,0-1.508,2.64c-.459.9-.872,1.837-1.27,2.786-.375.949-.765,1.9-1.11,2.862s-.689,1.936-.98,2.916l.046.023c.421-.926.819-1.867,1.224-2.8l1.194-2.809,1.179-2.809a18.6,18.6,0,0,1,1.286-2.594,19.954,19.954,0,0,1,1.5,2.686,28.341,28.341,0,0,1,1.163,2.923c-.383,1.025-.758,2.043-1.163,3.053l-.62,1.554c-.176.406-.36.819-.559,1.194a5.572,5.572,0,0,1-.949-1.263,4.351,4.351,0,0,1-.52-1.844c.329-.765.643-1.546.964-2.319l-.038-.023c-.4.75-.8,1.492-1.186,2.25l-.015.031v.046a4.524,4.524,0,0,0,.459,2.1,6.115,6.115,0,0,0,.528.9,4.926,4.926,0,0,0,.666.781l.191.176.145-.237a14.286,14.286,0,0,0,.758-1.538c.222-.52.436-1.041.635-1.569.39-1.056.773-2.12,1.125-3.2l.031-.092-.054-.084Z" transform="translate(-132.021 -73.817)" fill="#c4825f"/>
        </g>
      </g>
      <g id="svga-group-ears-left-move" transform="translate(46.68 52.813)">
        <g id="svga-group-ears-left" transform="translate(0 0)">
          <path id="SvgjsPath5431" d="M64.489,76.942S55.562,70.5,54.129,70.4c-1.233-.092-4.291,5.261-5.644,8.644a3.22,3.22,0,0,0,.2,2.759c1.3,2.345,4.171,7.252,6.749,9.708a12.055,12.055,0,0,0,2.866.217c.689-.164,6.069-3.724,6.621-5.1s.665-7.422-.432-9.682Z" transform="translate(-48.166 -70.039)" fill="#f2d0be"/>
          <path id="SvgjsPath5432" d="M65.234,79.359a22.139,22.139,0,0,1,.264,2.616,24.015,24.015,0,0,1-.008,2.63q-.038.659-.136,1.315a4.281,4.281,0,0,1-.16.674,2.119,2.119,0,0,1-.368.634,11.819,11.819,0,0,1-1.978,1.85c-.7.555-1.425,1.077-2.17,1.586-.376.251-.745.5-1.137.733-.192.119-.392.231-.592.344l-.32.159a1.542,1.542,0,0,1-.424.126,6.564,6.564,0,0,1-1.457-.059c-.464-.053-.921-.126-1.385-.211l-.1-.02-.064-.066A24.888,24.888,0,0,1,52.2,87.935c-.881-1.308-1.681-2.663-2.45-4.03L48.621,81.85a3.432,3.432,0,0,1-.432-2.286,4.337,4.337,0,0,1,.352-1.1c.144-.357.3-.707.448-1.057.32-.694.632-1.394.977-2.081a25.387,25.387,0,0,1,2.354-3.978,7.393,7.393,0,0,1,.8-.9,2.49,2.49,0,0,1,.536-.39.9.9,0,0,1,.416-.106,1.521,1.521,0,0,1,.376.079,13.359,13.359,0,0,1,2.2,1.163c1.377.852,2.7,1.758,4,2.7s2.578,1.89,3.851,2.894A10.027,10.027,0,0,1,65.234,79.359Zm-8.879-7.717a13.19,13.19,0,0,0-2.074-1.064c-.072-.013-.16-.053-.208-.053a.4.4,0,0,0-.16.046,1.585,1.585,0,0,0-.408.291,6.336,6.336,0,0,0-.753.819,30.566,30.566,0,0,0-2.49,3.812c-.368.667-.737,1.335-1.057,2.022-.16.344-.32.687-.472,1.037a4.384,4.384,0,0,0-.36,1.057,3.208,3.208,0,0,0,.44,2.154c.376.681.785,1.354,1.193,2.015.817,1.335,1.7,2.636,2.61,3.9a26.847,26.847,0,0,0,3.01,3.581l-.168-.086a12.222,12.222,0,0,0,2.634.218.675.675,0,0,0,.224-.073l.28-.145.56-.33c.376-.225.745-.469,1.113-.714.737-.489,1.449-1,2.146-1.546a13.38,13.38,0,0,0,1.913-1.724,1.856,1.856,0,0,0,.3-.476,4.12,4.12,0,0,0,.152-.588c.072-.416.136-.839.168-1.262.08-.852.112-1.718.12-2.577a23.3,23.3,0,0,0-.12-2.59,9.767,9.767,0,0,0-.528-2.537c-2.666-1.731-5.34-3.535-8.07-5.193Z" transform="translate(-48.142 -69.95)" fill="#e3b49b"/>
          <path id="SvgjsPath5433" d="M65.211,83.481s-8.607-7.961-10.224-7.3S50.832,80.6,50.84,81.851c.016,1.841,2.674,4.913,4.011,5.839a6.574,6.574,0,0,0,5.084,1.137C62.065,88.47,65.211,83.481,65.211,83.481Z" transform="translate(-48.68 -71.185)" fill="#e3b49b"/>
          <path id="SvgjsPath5434" d="M58.776,86.457c-.36-1.009-.761-2-1.161-2.994s-.847-1.961-1.329-2.914a25.37,25.37,0,0,0-1.577-2.762l-.064-.1-.064.1c-.6.945-1.161,1.905-1.7,2.9-.264.5-.528,1-.769,1.513s-.456,1.049-.673,1.585l-.032.08.032.1c.368,1.129.769,2.234,1.177,3.347.2.552.432,1.1.665,1.641a13.609,13.609,0,0,0,.793,1.609l.152.248.2-.184a5.217,5.217,0,0,0,.7-.817,6.85,6.85,0,0,0,.552-.937,4.733,4.733,0,0,0,.48-2.194v-.048l-.016-.032c-.4-.793-.825-1.569-1.241-2.354l-.04.024c.336.809.665,1.625,1.009,2.426a4.67,4.67,0,0,1-.544,1.93,5.829,5.829,0,0,1-.993,1.321c-.208-.392-.4-.817-.584-1.249L53.1,87.065c-.424-1.057-.825-2.13-1.217-3.194A30.777,30.777,0,0,1,53.1,80.812,20.4,20.4,0,0,1,54.669,78a19.456,19.456,0,0,1,1.345,2.714l1.233,2.938L58.5,86.593c.416.977.841,1.962,1.281,2.93l.048-.024c-.328-1.017-.681-2.034-1.049-3.042Z" transform="translate(-48.793 -73.616)" fill="#c4825f"/>
        </g>
      </g>
      <g id="svga-group-humanbody-back" transform="translate(6.467 48.162)">
        <path id="SvgjsPath3778" d="M180.8,184.9c-2.3-3.4-38.9-17.8-38.9-17.8l-13.4-5.2-5.6-68.8H76.8L71.3,162l-13.4,5.2S21.4,181.6,19,185c-2.3,3.4-3.3,14.9-3.3,14.9V219H184.2V199.8c-.1.1-1-11.5-3.4-14.9Z" transform="translate(-15.7 -93.1)" fill="#f2d0be"/>
      </g>
      <g id="svga-group-chinshadow-single" transform="translate(62.397 48.162)">
        <path id="SvgjsPath6253" d="M94.1,161.5s19.06,0,33.81-7.36L122.94,93.1H76.82l-5.19,65.28A97.672,97.672,0,0,0,94.1,161.5Z" transform="translate(-71.63 -93.1)" fill="#d39a7c"/>
      </g>
      <g id="svga-group-humanbody-front" transform="translate(5.567 47.262)">
        <path id="SvgjsPath3779" d="M184.5,219c-.1-6.4-.1-12.8-.1-19.2l-.3-.1a.138.138,0,0,1,.2,0,.1.1,0,0,1,.1.1v-.4l-.1-.5-.1-.9-.2-1.9c-.2-1.3-.4-2.5-.6-3.8a26.155,26.155,0,0,0-.9-3.8,16.135,16.135,0,0,0-1.5-3.6,11.929,11.929,0,0,0-2.9-2.1c-1-.6-2.1-1.1-3.2-1.7-2.1-1.1-4.3-2.1-6.5-3.1-4.4-2-8.7-3.9-13.1-5.7-4.4-1.9-8.8-3.7-13.2-5.5l-13-5.2-1.2-16.9c-.4-5.7-.9-11.5-1.3-17.2l-1.3-17.2L123.8,93l-.1-.8h-.8c-7.7,0-15.4.1-23.1.1l-23.1.2h-.5V93L75,110.2l-1.3,17.2c-.8,11.4-1.8,22.8-2.8,34.2-5.6,2.1-11.2,4.2-16.7,6.4q-8.4,3.3-16.8,6.9c-2.8,1.2-5.6,2.4-8.3,3.6a89.553,89.553,0,0,0-8.2,4.1,12.141,12.141,0,0,0-2,1.4,1.47,1.47,0,0,0-.5.6l-.3.6a5.359,5.359,0,0,0-.5,1.1,25.424,25.424,0,0,0-1.3,4.5,90.7,90.7,0,0,0-1.4,9.1L14.8,219v.9h.9l42.1.1H100c14,0,28.1-.1,42.1-.2l42.1-.5h.3V219ZM100,218l-42.1-.1-41.2.1-.1-18.1c.3-3,.6-5.9,1.2-8.9a28.755,28.755,0,0,1,1.1-4.2,7.93,7.93,0,0,1,.4-.9l.2-.4.3-.3a14.036,14.036,0,0,1,1.8-1.2c2.5-1.5,5.3-2.8,8-4.1s5.5-2.5,8.2-3.7c5.5-2.4,11.1-4.8,16.7-7.1s11.2-4.5,16.9-6.7l.2-.1v-.2c.9-11.5,1.7-23,2.7-34.4l1.4-17.2,1.5-16.7,22.6.2c7.4.1,14.8.1,22.3.1l1.3,16.4,1.5,17.2c.5,5.7,1,11.5,1.5,17.2l1.6,17.2v.3l.3.1,13.4,5c4.4,1.7,8.9,3.4,13.3,5.2s8.8,3.7,13.2,5.6c2.2,1,4.3,2,6.5,3,1.1.5,2.1,1.1,3.2,1.6a14.92,14.92,0,0,1,2.9,2,11.669,11.669,0,0,1,1.4,3.5c.3,1.2.6,2.5.8,3.7.2,1.3.4,2.5.6,3.8l.2,1.9.1.9.1.5v.4c0,6.3,0,12.6-.1,18.9l-41.8-.5c-14,.1-28.1,0-42.1,0Z" transform="translate(-14.8 -92.2)" fill="#c4825f"/>
        <path id="SvgjsPath3780" d="M125.1,142.4s-1.8,23-9.1,32.9C116,175.3,123.9,150.3,125.1,142.4Zm-34.5,16s5,7.9,11.5,10.1C102.1,168.5,92.6,170.7,90.6,158.4ZM73.4,140c6.7,25.6,6.7,25.6,8.5,30.7C81.9,170.7,82.3,158.1,73.4,140Z" transform="translate(-14.8 -92.2)" fill="#d39a7c"/>
      </g>
      <g id="svga-group-clothes-single" transform="translate(0 102.362)">
        <path id="SvgjsPath8857" d="M71.54,145.1l-5.877,2.37L65,160.834v19.147l13.27,36.113h39.81l10.142-32.511,3.223-24.17-1.611-13.459-5.118-.758-.284,8.72S99.6,174.957,99.217,175.431,71.54,153.82,71.54,153.82V145.1Z" transform="translate(-7.429 -144.342)" fill="#eaeaea"/>
        <path id="SvgjsPath8858" d="M124.572,154.863l.758-.284,4.644-8.531-5.213-.853Zm-53.364-1.517h-.379L65.9,147.564l5.971-2.464-.663,8.246Z" transform="translate(-7.489 -144.342)" fill="#c9c9c9"/>
        <path id="SvgjsPath8859" d="M43.531,167.588,44.6,169.2s-24.194,6.825-28.178,8.531c0,0-4.275-2.938-5.83,3.223S6.9,210.146,6.9,216.876H76.859a549.5,549.5,0,0,1-13.7-56.776Zm140.5,13.365c-1.555-6.161-5.83-3.223-5.83-3.223-3.984-1.8-28.178-8.531-28.178-8.531l1.069-1.611-19.725-7.393a536.906,536.906,0,0,1-13.6,56.681h69.959C187.822,210.052,185.587,187.114,184.032,180.953Z" transform="translate(-6.616 -145.124)" fill="#5a5e5f"/>
        <path id="SvgjsPath8860" d="M89,180.433s4.644,11.753,6.066,14.6c0,0-2.654,16.208-2.749,22.559h17.061s-2.37-18.957-2.938-22.843c0,0,4.171-10.426,5.4-13.175,0,0-2.559-3.223-3.6-3.412S100,177.4,100,177.4s-6.919.853-8.246,1.327A8.448,8.448,0,0,0,89,180.433Z" transform="translate(-8.654 -146.026)" fill="#222"/>
        <path id="SvgjsPath8861" d="M106.323,195.357a25.5,25.5,0,0,1-4.929,1.99h-.474a18.4,18.4,0,0,1-5.024-1.706v-.19c.569.095,1.517.19,2.749.474,1.611.379,6.161-.379,7.678-.663m-5.213,16.3c1.137,1.422,3.223,2.559,2.938.948-.19-1.611-3.128-14.976-3.223-15.166C100.731,198.011,99.973,210.143,101.11,211.565Zm-2.654-16.4s-.095-8.436-.569-9.289-1.611-.095-1.99,1.706C95.423,189.48,98.077,194.788,98.456,195.167ZM96.75,210.143c.474,2.559,1.8-.379,1.99-3.412S97.7,196.684,97.7,196.684c-.19.474-1.422,10.805-.948,13.459Zm7.014-26.255c-.948-1.043-2.37,1.8-2.654,3.791a49.924,49.924,0,0,0-.19,7.393C100.826,195.072,104.617,184.93,103.764,183.888Zm3.033,6.445a1.12,1.12,0,0,0-1.422-1.611c-.853.474-1.611,5.024-1.99,6.825C103.385,195.546,106.228,191.565,106.8,190.333Zm-2.275,17.44c.474.948,1.8,2.085,1.99,1.422s-2.559-11.848-2.559-11.848S104.048,206.826,104.522,207.773Z" transform="translate(-8.996 -146.353)"/>
        <path id="SvgjsPath8862" d="M187.408,204.962l-.874-11c-.291-3.7-.68-7.393-1.263-11-.194-.948-.291-1.8-.486-2.749a8.514,8.514,0,0,0-1.069-2.844,3.909,3.909,0,0,0-2.818-1.991,5.437,5.437,0,0,0-1.749.095,6.028,6.028,0,0,0-1.166.474c-2.235-.853-4.469-1.517-6.607-2.275l-7.092-2.085c-4.469-1.327-8.841-2.559-13.31-3.7l.583-.853.486-.663-.777-.284c-3.4-1.232-6.8-2.37-10.1-3.6l-8.938-3.033a.7.7,0,0,1,.1-.379l-2.137-13.459-5.829-1.327s-.486,4.36-.486,9.194L110.46,163.921c-2.137,1.8-4.372,3.6-6.509,5.5l-3.206,2.749-1.652,1.422-.777.758c-2.235-1.517-4.469-3.223-6.7-4.834l-6.9-5.118L70.529,153.589l.1-9.289c-.486.474-6.024,2.37-6.607,2.844v.095l-.583,8.151-.291,3.791L53.429,162.5c-3.3,1.137-6.7,2.37-10.1,3.6l-.777.284.486.663.583.853c-4.469,1.137-8.938,2.37-13.31,3.7l-7.092,2.085c-2.235.758-4.372,1.327-6.7,2.275a5.273,5.273,0,0,0-1.069-.474,3.654,3.654,0,0,0-1.749-.095,3.88,3.88,0,0,0-2.72,1.9A8.514,8.514,0,0,0,9.9,180.129c-.194.948-.291,1.9-.486,2.749-.486,3.7-.874,7.393-1.263,11l-.874,11c-.291,3.7-.583,7.393-.68,11.09v.284h.291c5.829,0,11.659.095,17.488.19l17.488.284L59.453,217h75.782l17.488-.095c5.829-.095,11.659-.095,17.488-.284,5.829-.095,11.659-.19,17.488-.19h.389v-.379c-.1-3.7-.389-7.393-.68-11.09Zm-85.595-31.279,3.3-2.749,6.607-5.4,13.213-10.9.194-.19-.389-9.1c1.749.379,3.5.758,4.858,1.043l1.069,12.891-1.069,8.057-1.36,6.066c-1.069,4.739-2.332,9.478-3.5,14.123-.68,2.749-1.457,5.592-2.235,8.341a22.842,22.842,0,0,0-.972-2.275,18.748,18.748,0,0,0-.972-1.99,12.494,12.494,0,0,0-1.166-1.9c-1.749-2.464-3.5-4.739-5.344-7.014-.972-1.137-1.943-2.275-2.915-3.317a26.676,26.676,0,0,0-3.4-3.128,10.277,10.277,0,0,0-1.069-.663,6.8,6.8,0,0,0-.777-.284c-.291-.095-.389,0-.583-.095l-2.235-.284-2.429-.284,1.166-.948Zm-37.7-18.1.194-8.057,5.538-1.99-.583,7.772,1.36,1.517h.1c4.372,3.6,8.841,7.2,13.31,10.711,2.235,1.8,4.469,3.507,6.7,5.308,1.749,1.327,3.4,2.654,5.246,3.981l-2.04.284a18.344,18.344,0,0,0-2.235.379l-1.166.19a1.075,1.075,0,0,1-.583.095,4.8,4.8,0,0,0-.68.284,16.518,16.518,0,0,0-3.692,2.938c-1.069,1.043-2.04,2.18-3.109,3.317-1.943,2.275-3.789,4.644-5.538,7.014-.874,1.232-1.749,2.464-2.526,3.7-.68,1.043-1.36,2.085-1.943,3.128-.777-2.749-1.457-5.592-2.235-8.341-1.166-4.739-2.429-9.384-3.5-14.123l-1.652-7.109-.972-4.455a48.921,48.921,0,0,1,0-6.54ZM7.28,215.673c0-3.6.291-7.109.583-10.711.291-3.7.68-7.3,1.166-11s.972-7.3,1.652-10.9a15.341,15.341,0,0,1,1.555-5.024c.486-.663.972-1.137,1.652-1.137a3.189,3.189,0,0,1,2.04.569l.389.284.389-.19c.583,1.327,1.069,2.559,1.555,3.886a22.2,22.2,0,0,1,1.263,4.834c.486,3.317.777,6.635,1.166,9.952l1.166,9.952.68,5.024.583,4.265c-5.149.095-10.493.19-15.836.19Zm52.173-.569-17.488.095c-5.829.095-11.659.095-17.488.284H23.408c-.1-3.128-.389-6.161-.583-9.289-.291-3.317-.583-6.635-.972-10.047-.389-3.317-.777-6.635-1.457-9.952a33.4,33.4,0,0,0-3.4-8.625c2.137-.853,4.469-1.517,6.8-2.275l7-2.18,14.088-4.265h.1c.291.284.486.569.777.853a26.24,26.24,0,0,0,2.429,2.18c-1.166.569-2.429,1.137-3.595,1.8l-.68.284.291.663c1.555,3.507,3.206,7.014,4.858,10.426,1.652,3.507,3.4,6.919,5.052,10.332l5.246,10.237c1.652,3.128,3.3,6.161,5.052,9.194a28.975,28.975,0,0,1-4.955.284Zm5.149,0c-1.263-3.317-2.72-6.54-4.081-9.763-1.555-3.507-3.109-7.014-4.761-10.521s-3.3-6.919-4.955-10.426c-1.554-3.223-3.206-6.445-4.858-9.668,2.235-1.327,4.469-2.559,6.7-3.886l7.287-4.455c-1.36.569-2.623,1.137-3.886,1.706l-3.886,1.8c-1.263.663-2.623,1.327-3.886,1.9a26.862,26.862,0,0,0-1.943-2.654c-.486-.663-1.069-1.232-1.554-1.9l-.291-.379c2.915-1.137,5.927-2.37,8.841-3.6l9.716-3.981a26.062,26.062,0,0,0,.68,3.507l.291,1.706.291,1.8c.389,2.37.777,4.834,1.263,7.2.972,4.739,1.846,9.573,3.012,14.313q3.06,13.649,7,27.014C71.889,215.01,68.294,215.1,64.6,215.1Zm13.213.19c-1.36-4.455-2.623-9-3.886-13.554-.486-1.9-1.069-3.7-1.554-5.592,1.652-2.18,3.4-4.265,5.149-6.351,1.943-2.275,3.886-4.455,5.927-6.635.972-1.043,2.04-2.085,3.109-3.128l.1-.095c1.166,2.938,4.469,10.805,5.732,13.365-.291,1.611-2.623,15.924-2.818,22.085Zm12.727.095c.194-6.256,2.623-20.568,2.818-21.99V193.3l-.1-.095c-1.166-2.37-4.761-11.09-5.829-13.744a12.644,12.644,0,0,1,2.429-1.706.6.6,0,0,1,.389-.095,4.3,4.3,0,0,1,.486-.095l1.069-.19c.777-.095,1.457-.19,2.235-.284,1.457-.19,2.915-.284,4.372-.474l4.372.474,2.235.19a.743.743,0,0,1,.486.095.363.363,0,0,1,.291.095,3.423,3.423,0,0,1,.777.474,21.021,21.021,0,0,1,2.72,2.37c-1.457,3.317-5.246,12.606-5.344,12.7v.19c.583,3.791,2.623,19.241,3.012,22.274l-16.419-.095Zm17.488.284c-.194-1.422-2.429-18.673-3.012-22.654.389-1.043,3.692-8.91,5.052-12.227.972.948,1.846,1.9,2.72,2.844,1.943,2.18,3.886,4.36,5.732,6.635a20.9,20.9,0,0,1,1.36,1.706,12.056,12.056,0,0,1,1.069,1.9l1.263,2.37-1.457,5.4c-1.263,4.644-2.623,9.384-4.081,14.028-2.818.095-5.732.095-8.647,0Zm11.076-.663q3.935-13.365,7-27.014c1.069-4.739,2.04-9.573,3.012-14.313.389-1.9.68-3.886,1.069-5.782a39.649,39.649,0,0,0,2.137-8.246l9.036,3.7c3.012,1.232,5.927,2.37,8.841,3.6l-.291.379a14.842,14.842,0,0,0-1.555,1.9,26.038,26.038,0,0,0-1.846,2.654c-1.263-.663-2.623-1.327-3.886-1.9l-3.886-1.8c-1.263-.569-2.623-1.232-3.886-1.706l7.287,4.455c2.235,1.327,4.469,2.654,6.7,3.886-1.652,3.223-3.3,6.445-4.858,9.668-1.749,3.412-3.3,6.919-4.955,10.426s-3.206,7.014-4.761,10.521c-1.457,3.223-2.818,6.445-4.081,9.763-3.789-.095-7.384-.19-11.076-.19Zm51.1.474-17.488-.284-17.488-.095h-5.052c1.749-3.033,3.4-6.161,5.052-9.194q2.769-5.118,5.246-10.237c1.749-3.412,3.4-6.919,5.052-10.332,1.652-3.507,3.3-6.919,4.858-10.426l.291-.663-.68-.284c-1.166-.569-2.429-1.232-3.595-1.8a26.247,26.247,0,0,0,2.429-2.18c.291-.284.486-.569.777-.853h.1L163.8,173.4l7,2.18c2.332.758,4.663,1.422,6.8,2.275a27.671,27.671,0,0,0-3.4,8.625c-.68,3.317-1.069,6.635-1.457,9.952s-.777,6.635-.972,10.047c-.194,3.128-.486,6.161-.583,9.289-.194-.284-.583-.284-.972-.284Zm1.166,0,.583-4.265.68-5.024c.486-3.317.777-6.635,1.166-9.952l1.166-9.952a22.2,22.2,0,0,1,1.263-4.834c.486-1.327.972-2.654,1.555-3.886l.389.19.389-.284a3.355,3.355,0,0,1,2.04-.569,2.233,2.233,0,0,1,1.652,1.137,15.342,15.342,0,0,1,1.554,5.024c.68,3.6,1.166,7.2,1.652,10.9.486,3.6.874,7.3,1.166,11,.291,3.6.583,7.109.583,10.711-5.149,0-10.493-.095-15.836-.19Z" transform="translate(-6.6 -144.3)" fill="#303d40"/>
        <path id="SvgjsPath8863" d="M109.253,173.243c3.317.19,9.194,8.625,9.194,8.625s8.436-14.5,9.194-18.009c.758-3.412,1.9-13.459,1.9-13.459s-2.844,9.194-3.6,10.521-16.682,12.322-16.682,12.322ZM77.5,187.461c1.9-3.317,7.962-11.09,9.384-11.848s7.2-1.517,7.2-1.517L79.87,163.765s1.99,7.772,1.99,9.573S77.5,187.461,77.5,187.461Z" transform="translate(-7.916 -144.618)" fill="#fff"/>
        <path id="SvgjsPath8864" d="M178.4,180.154c2.18.758,3.128,6.256,3.886,9.194s2.18,23.791,2.18,23.791-2.938-23.791-4.36-27.2A24.192,24.192,0,0,1,178.4,180.154Zm-28.151-8.436c1.422-.19,20.758,5.5,24.36,7.772,0,0-10.047-2.18-14.5-3.412a48.741,48.741,0,0,1-9.858-4.36Zm-15.45-2.464c.948.474,12.322,7.393,12.322,7.393s-11.09,22.843-12.227,25.687-5.118,11.09-5.118,11.09S135.556,197.5,137.168,192c1.517-5.5,5.782-14.881,5.782-14.881l-8.152-7.867ZM64.468,166.6c.474,5.024,7.393,38.483,10.332,45.307,0,0-6.256-14.5-9.194-27.962-3.033-13.459-1.137-17.346-1.137-17.346Z" transform="translate(-5.158 -145.463)" fill="#6e6e6e"/>
      </g>
      <g id="svga-group-faceshape-single" transform="translate(53.579 15.364)">
        <path id="SvgjsPath4218" d="M139.093,49.79c-2.165-8-6.2-12.806-14.955-16.648-9.15-4-24.794-3.842-24.794-3.842S83.7,29.14,74.549,33.142c-8.658,3.842-12.791,8.644-14.955,16.648-.886,3.2,0,10.885,0,10.885s2.361,17.849,2.361,23.051-.787,20.65.59,22.331,23.319,18.729,26.27,20.09c2.952,1.281,18.1,1.281,21.056,0s24.893-18.409,26.27-20.09.59-17.129.59-22.331S138.995,60.6,138.995,60.6s.984-7.6.1-10.805Z" transform="translate(-59.2 -29.299)" fill="#f2d0be"/>
        <path id="SvgjsPath4219" d="M139.093,49.79c-2.165-8-6.2-12.806-14.955-16.648-9.15-4-24.794-3.842-24.794-3.842S83.7,29.14,74.549,33.142c-8.658,3.842-12.791,8.644-14.955,16.648-.886,3.2,0,10.885,0,10.885s2.361,17.849,2.361,23.051-.787,20.65.59,22.331,23.319,18.729,26.27,20.09c2.952,1.281,18.1,1.281,21.056,0s24.893-18.409,26.27-20.09.59-17.129.59-22.331S138.995,60.6,138.995,60.6s.984-7.6.1-10.805Zm0,8.084c-.1.88-.2,1.841-.3,2.721-.787,5.443-1.574,10.885-2.263,16.328-.2,1.361-.3,2.721-.492,4.082-.1,1.361-.2,2.8-.2,4.162V97.414c0,1.361-.1,2.721-.1,4.082a13.781,13.781,0,0,1-.2,2c0,.32-.1.64-.1.96a2.407,2.407,0,0,1-.2.88l-.1.16-.3.32-.787.72-1.771,1.441c-2.361,1.921-4.821,3.842-7.183,5.683-2.46,1.841-4.821,3.762-7.281,5.6-1.181.96-2.46,1.841-3.739,2.721s-4.339,2.977-4.674,3.178a2.231,2.231,0,0,1-.689.256c-.6.12-1.83.352-2.411.408-1.574.16-3.247.24-4.92.32s-3.345.08-4.92,0c-1.673-.08-5.608-.4-6-.48a4.586,4.586,0,0,1-1.771-.64l-.984-.64c-1.279-.88-2.558-1.761-3.739-2.641-2.46-1.761-5.018-3.6-7.478-5.523-2.46-1.841-4.92-3.682-7.379-5.6-1.181-.96-2.46-1.841-3.64-2.8l-.886-.72-.886-.72a2.069,2.069,0,0,1-1.033-1.449c-.1-.64-.148-1.273-.246-1.993a13.633,13.633,0,0,1-.1-2c-.1-1.361-.1-2.721-.1-4.082V84.607c0-1.361-.1-2.721-.2-4.082-.492-5.443-1.082-10.885-1.673-16.328l-.1-2.321a14.96,14.96,0,0,1-.2-2c-.1-1.361-.2-2.721-.2-4.082s0-2.721.1-4a13.314,13.314,0,0,1,.394-1.921c.2-.64,2.263-5.443,2.46-5.683a20.854,20.854,0,0,1,2.46-3.442,33.6,33.6,0,0,1,3.247-2.961,28.488,28.488,0,0,1,3.837-2.4c1.377-.72,2.853-1.361,4.231-1.921.394-.16,2.165-.72,2.165-.72s1.968-.56,2.361-.64a76.165,76.165,0,0,1,9.741-1.521c3.247-.32,6.592-.48,9.937-.48,1.673,0,3.345.08,5.018.16.787,0,1.673.08,2.46.16s1.673.16,2.46.24a57.36,57.36,0,0,1,9.741,1.681,41.847,41.847,0,0,1,4.526,1.6c.394.16.689.32,1.082.48l1.082.56c.689.4,1.377.72,2.066,1.121a19.681,19.681,0,0,1,8.462,9.845,30.247,30.247,0,0,1,1.279,3.914,14.521,14.521,0,0,1,.305,2.961c0,.888-.108,4.17-.207,5.051Z" transform="translate(-59.2 -29.299)" fill="#c27b55"/>
      </g>
      <g id="svga-group-head" transform="translate(51.871)">
        <g id="svga-group-mouth-single-move" transform="translate(25.082 89.311)">
          <g id="svga-group-mouth-single">
            <path id="SvgjsPath5308" d="M88.53,129.83a17.674,17.674,0,0,0,10.11,4.69c6.05.54,12.45-4.15,12.45-4.15s-12.81,5.96-22.56-.54Z" transform="translate(-83.99 -124.618)" fill="#d39a7c"/>
            <path id="SvgjsPath5309" d="M83.99,123.04a15.937,15.937,0,0,0,3.56,1.38c2.32.6,5.38.95,7.57,1.65,2.99.95,3.52,2.68,4.69,2.49s2.37-2.32,4.63-2.77,8.66,0,11.37-1.49c0,0-10.89-1.46-16.48-1.65a149.356,149.356,0,0,0-15.34.39Z" transform="translate(-83.99 -122.589)" fill="#e59090"/>
          </g>
        </g>
        <g id="svga-group-eyes-left-move" transform="translate(11.726 43.163)">
          <g id="svga-group-eyes-left" transform="translate(0 0)">
            <g id="svga-group-eyesback-left" transform="translate(0.511 0.426)">
              <path id="SvgjsPath7113" d="M78.2,74.2A11.084,11.084,0,1,1,66.7,85.276,11.26,11.26,0,0,1,78.2,74.2Z" transform="translate(-66.7 -74.2)" fill="#fff"/>
            </g>
            <g id="svga-group-eyesiriswrapper-left" transform="translate(7.242 6.731)">
              <g id="svga-group-eyesiriscontrol-left">
                <g id="svga-group-eyesiris-left">
                  <path id="SvgjsPath3795" d="M79.371,81.6A4.771,4.771,0,1,1,74.6,86.371,4.763,4.763,0,0,1,79.371,81.6Z" transform="translate(-74.6 -81.6)" fill="#5a411f"/>
                  <path id="SvgjsPath3796" d="M79.756,84.2A2.556,2.556,0,1,1,77.2,86.756,2.51,2.51,0,0,1,79.756,84.2Z" transform="translate(-74.985 -81.985)"/>
                  <path id="SvgjsPath3797" d="M79.13,84.667l-.511-.511a.965.965,0,0,0-1.363,1.363l.511.511a.92.92,0,0,0,.6.256.663.663,0,0,0,.6-.256c.511-.511.511-1.022.17-1.363Zm2.3,4.345a.639.639,0,0,0,0-1.278A.639.639,0,0,0,81.43,89.012Z" transform="translate(-74.955 -81.94)" fill="#fff"/>
                </g>
              </g>
            </g>
            <g id="svga-group-eyesfront-left">
              <path id="SvgjsPath7121" d="M78.113,73.7A11.594,11.594,0,1,0,90.126,85.287,11.8,11.8,0,0,0,78.113,73.7Zm0,18.658c-4.686,0-9.116-2.386-9.2-3.152-.17-.852.767-3.578,2.726-5.793,2.045-2.215,6.816-2.982,10.905-1.278S87.57,88.95,87.57,88.95C87.655,90.484,82.8,92.358,78.113,92.358Z" transform="translate(-66.1 -73.7)" fill="#f2d0be"/>
              <path id="SvgjsPath7122" d="M86.3,86.041c.6,0,2.641,0,2.045-.17-1.022-.341-4.771-3.238-5.793-3.663A29.385,29.385,0,0,0,77.269,81.1a48.492,48.492,0,0,0-6.56,2.726c-.511.341-1.874,5.112-2.215,5.367-.17.17.341.426.682.6a.313.313,0,0,1-.085.256v.17c0,.085.085.17.085.256a1.176,1.176,0,0,0,.256.341c.17.17.426.341.6.511.426.256.852.511,1.363.767a16.664,16.664,0,0,0,5.793,1.534,17.567,17.567,0,0,0,5.964-.6,18.656,18.656,0,0,0,2.812-1.022,10.144,10.144,0,0,0,1.278-.767l.511-.511A.967.967,0,0,0,88,90.046a12.459,12.459,0,0,0-1.022-2.812c-.256-.341-.426-.767-.682-1.193Zm1.363,4.686-.511.511a9.311,9.311,0,0,1-1.278.682,17.668,17.668,0,0,1-2.812.852,22.159,22.159,0,0,1-5.793.426,18.242,18.242,0,0,1-5.623-1.448,9.31,9.31,0,0,1-1.278-.682c-.17-.17-.426-.256-.6-.426-.085-.085-.17-.17-.17-.256s0-.085-.085-.085v-.17a1.081,1.081,0,0,1,.085-.511,24.79,24.79,0,0,1,2.13-4.26,7.615,7.615,0,0,1,5.879-2.812,17,17,0,0,1,3.834.426,8.869,8.869,0,0,1,1.363.511,7.653,7.653,0,0,1,2.386,1.534A10.559,10.559,0,0,1,88,90.046a1.712,1.712,0,0,1-.341.682Z" transform="translate(-66.449 -74.795)"/>
            </g>
          </g>
        </g>
        <g id="svga-group-eyes-right-move" transform="translate(46.3 43.266)">
          <g id="svga-group-eyes-right">
            <g id="svga-group-eyesback-right" transform="translate(0.538 0.448)">
              <path id="SvgjsPath7114" d="M118.4,74.2a11.661,11.661,0,1,1-12.1,11.652A11.846,11.846,0,0,1,118.4,74.2Z" transform="translate(-106.3 -74.2)" fill="#fff"/>
            </g>
            <g id="svga-group-eyesiriswrapper-right" transform="translate(8.246 7.708)">
              <g id="svga-group-eyesiriscontrol-right">
                <g id="svga-group-eyesiris-right">
                  <path id="SvgjsPath3798" d="M119.292,82.3a4.392,4.392,0,1,1-4.392,4.392A4.4,4.4,0,0,1,119.292,82.3Z" transform="translate(-114.9 -82.3)" fill="#5a411f"/>
                  <path id="SvgjsPath3799" d="M119.53,84.6a2.33,2.33,0,1,1-2.33,2.33A2.373,2.373,0,0,1,119.53,84.6Z" transform="translate(-115.138 -82.538)"/>
                  <path id="SvgjsPath3800" d="M118.972,85.017c-.179-.179-.269-.359-.448-.448a.814.814,0,0,0-.627-.269.968.968,0,0,0-.627.269A.814.814,0,0,0,117,85.2a.968.968,0,0,0,.269.627c.179.179.359.269.448.448a.814.814,0,0,0,.627.269.968.968,0,0,0,.627-.269,1.068,1.068,0,0,0,0-1.255Zm2.151,4.033a.583.583,0,0,0,0-1.165C120.406,87.8,120.406,89.051,121.123,89.051Z" transform="translate(-115.118 -82.507)" fill="#fff"/>
                </g>
              </g>
            </g>
            <g id="svga-group-eyesfront-right">
              <path id="SvgjsPath7123" d="M118.338,73.7a12.2,12.2,0,1,0,12.638,12.19A12.419,12.419,0,0,0,118.338,73.7Zm.269,18.464c-4.93,0-10.129-1.7-9.949-3.048,0,0,1.076-4.571,5.288-6.185s8.6-.627,10.756,1.344c2.151,2.062,3.765,4.3,3.585,5.019-.09.717-4.751,2.868-9.68,2.868Z" transform="translate(-105.7 -73.7)" fill="#f2d0be"/>
              <path id="SvgjsPath7126" d="M129.526,89.222a48.581,48.581,0,0,0-3.675-3.854c-.538-.269-3.585-2.868-4.3-2.868s-5.737,0-6.812.359a17.6,17.6,0,0,0-4.213,3.048c-.269.359.179.179.627,0a12.825,12.825,0,0,0-.986,1.344A11.641,11.641,0,0,0,109,89.94a1.018,1.018,0,0,0,.269.717,1.608,1.608,0,0,0,.627.448c.448.269.9.448,1.344.717a15.25,15.25,0,0,0,2.868.9,22.157,22.157,0,0,0,5.916.627,21.7,21.7,0,0,0,5.826-1.165,10.789,10.789,0,0,0,2.689-1.344l.269-.269a.329.329,0,0,0,.09-.269v-.269c0-.09,0-.09-.09-.179C129.167,89.671,129.705,89.491,129.526,89.222Zm-1.076.986c-.09.09-.09.179-.179.179a11.642,11.642,0,0,1-2.6,1.255,25.077,25.077,0,0,1-5.737,1.165,31.805,31.805,0,0,1-5.826-.359,16.784,16.784,0,0,1-2.868-.717A9.046,9.046,0,0,1,109.9,91.1a2.724,2.724,0,0,1-.627-.448.814.814,0,0,1-.269-.627,9.25,9.25,0,0,1,3.227-4.751,9.724,9.724,0,0,1,2.51-1.345,10.946,10.946,0,0,1,2.33-.538c.179,0,.448-.09.627-.09h.627a10.639,10.639,0,0,1,4.751.807,11.4,11.4,0,0,1,2.6,2.241,32.34,32.34,0,0,1,2.51,3.316.808.808,0,0,1,.09.448C128.45,90.029,128.45,90.119,128.45,90.208Z" transform="translate(-106.042 -74.612)"/>
            </g>
          </g>
        </g>
        <g id="svga-group-eyebrows-left-move" transform="translate(8.561 45.152) rotate(-7)">
          <g id="svga-group-eyebrows-left-rotate" transform="translate(0 0)">
            <g id="svga-group-eyebrows-left">
              <path id="SvgjsPath7179" d="M0,7.061A14.4,14.4,0,0,1,7.34.561c5.057-1.84,19.422,1.19,18.567,4.07s-4.8,1.64-7.539.58S9.085-1.179,0,7.061Z" transform="translate(0 0.22)" fill="#2a232b"/>
              <path id="SvgjsPath7180" d="M25.912,4.011a3.88,3.88,0,0,0-1.4-1.16,15.684,15.684,0,0,0-1.7-.76A31.333,31.333,0,0,0,19.2,1.041,37.889,37.889,0,0,0,11.67,0a14.6,14.6,0,0,0-3.835.38,12.107,12.107,0,0,0-3.356,1.64,13.734,13.734,0,0,0-2.619,2.39A13.342,13.342,0,0,0,.819,5.781c-.164.24-.3.48-.444.72a3.915,3.915,0,0,0-.2.37l-.094.19-.047.09L.012,7.2A.215.215,0,0,0,0,7.281c.222-.18.468-.35.713-.55s.479-.36.725-.55.479-.35.725-.51.491-.34.748-.49a15.785,15.785,0,0,1,3.262-1.56,11.544,11.544,0,0,1,3.6-.63,14.021,14.021,0,0,1,1.836.13,11.64,11.64,0,0,1,1.777.42,21.818,21.818,0,0,1,3.356,1.4,16.842,16.842,0,0,0,1.707.78c.585.22,1.181.43,1.789.6a11.526,11.526,0,0,0,1.883.42,5.543,5.543,0,0,0,1.988-.03,2.845,2.845,0,0,0,.935-.37,2.438,2.438,0,0,0,.678-.66,3.12,3.12,0,0,0,.362-.8,1.222,1.222,0,0,0,.023-.46,3.293,3.293,0,0,0-.2-.41Zm-.21.81a2.549,2.549,0,0,1-.351.7,2.119,2.119,0,0,1-1.368.82,5.382,5.382,0,0,1-1.789-.02,13.86,13.86,0,0,1-1.777-.43c-.585-.18-1.158-.39-1.731-.61a15.98,15.98,0,0,1-1.637-.77,20.818,20.818,0,0,0-3.45-1.46,12.1,12.1,0,0,0-3.835-.53A12.129,12.129,0,0,0,6,3.271a15.19,15.19,0,0,0-3.262,1.72c-.257.17-.491.34-.725.53a8.894,8.894,0,0,0-.7.56c-.222.19-.468.38-.655.57s-.386.4-.62.61a16.489,16.489,0,0,1,4.736-4.92A12.5,12.5,0,0,1,8,.821a16.552,16.552,0,0,1,3.683-.39,33.9,33.9,0,0,1,3.765.18,33.317,33.317,0,0,1,3.718.59,23.6,23.6,0,0,1,3.566,1.06,10.447,10.447,0,0,1,1.649.78,3.651,3.651,0,0,1,1.263,1.1.867.867,0,0,1,.058.68Z" transform="translate(0)" fill="#1b141c"/>
            </g>
          </g>
        </g>
        <g id="svga-group-eyebrows-right-move" transform="matrix(0.951, 0.309, -0.309, 0.951, 51.205, 39.938)">
          <g id="svga-group-eyebrows-right-rotate" transform="translate(0 0)">
            <g id="svga-group-eyebrows-right" transform="translate(0)">
              <path id="SvgjsPath7181" d="M25.253,5.635A14.926,14.926,0,0,0,17.111.175C11.965-.985-1.221,3.9.091,6.625s4.863.99,7.294-.41,7.769-7.53,17.868-.58Z" transform="translate(0.139 0.225)" fill="#2a232b"/>
              <path id="SvgjsPath7182" d="M25.388,5.8l-.034-.05L25.3,5.66l-.124-.17a4.059,4.059,0,0,0-.26-.34c-.181-.22-.362-.44-.554-.65a13.32,13.32,0,0,0-1.232-1.22,14.5,14.5,0,0,0-2.915-2.02A11.7,11.7,0,0,0,16.722.08a13.286,13.286,0,0,0-3.729.13A33.687,33.687,0,0,0,5.988,2.22,28.562,28.562,0,0,0,2.723,3.73a11.808,11.808,0,0,0-1.491.97A3.427,3.427,0,0,0,.09,6.03,1.183,1.183,0,0,0,0,6.47a1.051,1.051,0,0,0,.1.45,3.178,3.178,0,0,0,.486.74,2.394,2.394,0,0,0,.757.57,2.644,2.644,0,0,0,.96.24,5.2,5.2,0,0,0,1.9-.23,11.9,11.9,0,0,0,1.717-.66c.554-.26,1.085-.54,1.6-.83a15.094,15.094,0,0,0,1.491-.99,19.037,19.037,0,0,1,2.96-1.83A10.177,10.177,0,0,1,13.6,3.29a11.251,11.251,0,0,1,1.729-.37,10.847,10.847,0,0,1,3.548.15,16.222,16.222,0,0,1,3.39,1.11c.271.12.531.25.8.38s.531.26.791.41.508.27.78.45c.271.16.542.3.78.45-.011-.01-.011-.05-.034-.07Zm-.712-.48c-.215-.16-.486-.32-.723-.48s-.5-.31-.757-.46-.52-.3-.791-.43a15.264,15.264,0,0,0-3.412-1.28,11.373,11.373,0,0,0-3.729-.25,10.909,10.909,0,0,0-3.57,1.03A18.884,18.884,0,0,0,8.644,5.34a14.143,14.143,0,0,1-1.424.98c-.508.3-1.017.58-1.548.83a11.2,11.2,0,0,1-1.627.66,4.994,4.994,0,0,1-1.695.26A2.188,2.188,0,0,1,.893,7.44a2.845,2.845,0,0,1-.463-.65A.859.859,0,0,1,.4,6.1,3.235,3.235,0,0,1,1.4,4.84a9.67,9.67,0,0,1,1.435-.98A21.049,21.049,0,0,1,6.067,2.35,31.58,31.58,0,0,1,9.514,1.28,33.2,33.2,0,0,1,13.073.6,14.849,14.849,0,0,1,16.654.5,11.871,11.871,0,0,1,20,1.58a17.234,17.234,0,0,1,5.378,4.24C25.117,5.66,24.9,5.48,24.677,5.32Z" fill="#1b141c"/>
            </g>
          </g>
        </g>
        <g id="svga-group-nose-single-move" transform="translate(21.43 59.859)">
          <g id="svga-group-nose-single" transform="translate(0 0)">
            <path id="SvgjsPath4921" d="M98.871,116.5c.654.12,4.423-3.31,4.423-3.31s2.011,1.59,3.535,1.43a3.817,3.817,0,0,0,2.929-1.96c.547-.88-.869-3.1-1.738-4.41s-3.456-5.22-3.993-7.02c-1.045-3.45-2.929-4.76-4.8-4.64a5.19,5.19,0,0,0-4.491,3.44c-.547,1.92-.7,4.28-1.758,5.76s-3.242,4-3.476,4.72-.107,2.8,1.211,3.56c1.689.97,4.2-.51,4.2-.51s3.1,2.78,3.964,2.94Z" transform="translate(-79.14 -93.111)" fill="#f2d0be"/>
            <path id="SvgjsPath4922" d="M109.792,109.483a7.9,7.9,0,0,0-1.769-2.449,11.014,11.014,0,0,1,1.358,2.589,2.766,2.766,0,0,1,.156,1.332,1.348,1.348,0,0,1-.254.563,2.314,2.314,0,0,1-.459.507,3.266,3.266,0,0,1-2.619.732,5.9,5.9,0,0,1-1.427-.366,9.487,9.487,0,0,1-1.26-.582,13.616,13.616,0,0,0,1-1.651c-.948.854-1.847,1.717-2.8,2.477a10.051,10.051,0,0,1-1.475,1.023,2.988,2.988,0,0,1-1.475.488,1.028,1.028,0,0,1-.3-.038,1.491,1.491,0,0,1-.293-.15c-.235-.141-.479-.338-.723-.516-.489-.366-.967-.769-1.456-1.154-.967-.788-1.944-1.585-3-2.327a20.539,20.539,0,0,0,1.642,2.1,7.932,7.932,0,0,1-1.5.488,3.134,3.134,0,0,1-1.8-.094,2.689,2.689,0,0,1-1.5-2.758,1.567,1.567,0,0,1,.293-.694c.166-.244,4.671-7.752,4.749-8.381.147-1.266.264-2.524.3-3.79.1-2.533-.02-.988-.547-3.474.049,2.524-.088.923-.342,3.409-.147,1.238-.283,2.486-.489,3.715-.1.619-4.309,7.743-4.485,8.034a2.5,2.5,0,0,0-.362,1.069,3.286,3.286,0,0,0,2.2,3.33,3.448,3.448,0,0,0,2.072-.1,6.519,6.519,0,0,0,1.456-.722c.235.263.459.535.694.788a18.089,18.089,0,0,0,1.378,1.332,6.7,6.7,0,0,0,.8.61,2.493,2.493,0,0,0,.557.281,2.2,2.2,0,0,0,.645.1,3.864,3.864,0,0,0,2.091-.713,8.583,8.583,0,0,0,1.515-1.285,13.029,13.029,0,0,0,1.182-1.435,5.747,5.747,0,0,0,2.619,1.36,3.937,3.937,0,0,0,1.622,0,3.4,3.4,0,0,0,1.456-.751,3.159,3.159,0,0,0,.528-.61,1.611,1.611,0,0,0,.313-.788,2.953,2.953,0,0,0-.283-1.5Z" transform="translate(-79.14 -91.347)" fill="#c4825f"/>
            <path id="Path_26931" data-name="Path 26931" d="M18.575-.012s1.754,3.887,4.459,5.07,6.724.394,6.724.394" transform="translate(9.799 0.012)" fill="none" stroke="#d9aa92" stroke-linecap="round" stroke-width="0.3"/>
            <path id="Path_26932" data-name="Path 26932" d="M30.132-.012s-1.813,3.887-4.608,5.07-6.949.394-6.949.394" transform="translate(-18.575 0.012)" fill="none" stroke="#d9aa92" stroke-linecap="round" stroke-width="0.3"/>
          </g>
        </g>
        <g id="svga-group-hair-front">
          <path id="SvgjsPath8575" d="M141.3,55.29c-.128-2.39-.7-9.41-1.234-10.76a18.688,18.688,0,0,0-4.924-7.22c-3.03-2.66-4.855-4.05-4.855-4.05a12.937,12.937,0,0,0-4.894-5.5c-3.44-2.038-8.865-2.649-8.865-2.649-.138,0-4.559-1.48-6.622-1.92a92.777,92.777,0,0,0-18.062,0c-9.069.84-12.051,2.035-18.215,3.36S64.466,35.97,63.173,37.31a17.026,17.026,0,0,0-4.362,6.27c-1.135,3.1-1.263,7.89-1.332,9.58s-.237,8.26.128,10.32,1.7,10.76,1.865,11.94S60.8,84.96,60.8,84.96l.938,4.44s-1.026-13.9,2.625-19.46c0,0,.681-13.32,1.826-16.56s2.415-4.57,7.438-8.85a16.006,16.006,0,0,1,8.914-3.65s5.985,1.239,9.3-.391c0,0,4.487,1.151,8.227-.169a6.166,6.166,0,0,0,2.714,1.65,4.027,4.027,0,0,0,3.3-.91l.128.05s1.18.72,3.7-.79c0,0,.925,2.339,5.425.209l8.748,4s2.566.51,6.454,6.68c0,0,1.54.46,2.171,3.7s1.165,8.06,1.332,10.18.2,5.02.2,5.02a28.141,28.141,0,0,1,2.2,5.94c.5,2.6.7,10.05.7,10.05s1.164-4.15,1.164-4.25,1.164-8.84,1.164-8.84l1.431-9.04c0,.02.533-6.28.4-8.68Z" transform="translate(-57.38 -22.766)" fill="#2a232b"/>
        </g>
      </g>
    </g>
  </g>
</svg>
