<svg id="mohammd" xmlns="http://www.w3.org/2000/svg" width="200" height="220" viewBox="0 0 200 220">
  <g id="svga-group-backs-single">
    <path id="SvgjsPath7419" d="M0,0H200V220H0Z" fill="#a2a3e1"/>
  </g>
  <g id="svga-group-humanwrap-move" transform="translate(10.9 27.36)">
    <g id="svga-group-humanwrap">
      <g id="svga-group-humanbody-back" transform="translate(4.8 64.34)">
        <path id="SvgjsPath7372" d="M180.8,184.9c-2.3-3.4-38.9-17.8-38.9-17.8l-13.4-5.2-5.6-68.8H76.8L71.3,162l-13.4,5.2S21.4,181.6,19,185c-2.3,3.4-3.3,14.9-3.3,14.9V219H184.2V199.8c-.1.1-1-11.5-3.4-14.9Z" transform="translate(-15.7 -93.1)" fill="#f0c7b1"/>
      </g>
      <g id="svga-group-chinshadow-single" transform="translate(61.87 65.02)">
        <path id="SvgjsPath8057" d="M85.7,157.38c2.95,2.5,14.4,2.34,17.66.34,3.2-1.96,8.57-7.52,22.92-23.62l-3.34-41H76.82l-4.05,50.95C79.04,150.94,83.8,155.78,85.7,157.38Z" transform="translate(-72.77 -93.1)" fill="#d19271"/>
      </g>
      <g id="svga-group-humanbody-front" transform="translate(3.9 63.44)">
        <path id="SvgjsPath7373" d="M184.5,219c-.1-6.4-.1-12.8-.1-19.2l-.3-.1a.138.138,0,0,1,.2,0,.1.1,0,0,1,.1.1v-.4l-.1-.5-.1-.9-.2-1.9c-.2-1.3-.4-2.5-.6-3.8a26.155,26.155,0,0,0-.9-3.8,16.135,16.135,0,0,0-1.5-3.6,11.929,11.929,0,0,0-2.9-2.1c-1-.6-2.1-1.1-3.2-1.7-2.1-1.1-4.3-2.1-6.5-3.1-4.4-2-8.7-3.9-13.1-5.7-4.4-1.9-8.8-3.7-13.2-5.5l-13-5.2-1.2-16.9c-.4-5.7-.9-11.5-1.3-17.2l-1.3-17.2L123.8,93l-.1-.8h-.8c-7.7,0-15.4.1-23.1.1l-23.1.2h-.5V93L75,110.2l-1.3,17.2c-.8,11.4-1.8,22.8-2.8,34.2-5.6,2.1-11.2,4.2-16.7,6.4q-8.4,3.3-16.8,6.9c-2.8,1.2-5.6,2.4-8.3,3.6a89.553,89.553,0,0,0-8.2,4.1,12.141,12.141,0,0,0-2,1.4,1.47,1.47,0,0,0-.5.6l-.3.6a5.359,5.359,0,0,0-.5,1.1,25.424,25.424,0,0,0-1.3,4.5,90.7,90.7,0,0,0-1.4,9.1L14.8,219v.9h.9l42.1.1H100c14,0,28.1-.1,42.1-.2l42.1-.5h.3V219ZM100,218l-42.1-.1-41.2.1-.1-18.1c.3-3,.6-5.9,1.2-8.9a28.755,28.755,0,0,1,1.1-4.2,7.93,7.93,0,0,1,.4-.9l.2-.4.3-.3a14.036,14.036,0,0,1,1.8-1.2c2.5-1.5,5.3-2.8,8-4.1s5.5-2.5,8.2-3.7c5.5-2.4,11.1-4.8,16.7-7.1s11.2-4.5,16.9-6.7l.2-.1v-.2c.9-11.5,1.7-23,2.7-34.4l1.4-17.2,1.5-16.7,22.6.2c7.4.1,14.8.1,22.3.1l1.3,16.4,1.5,17.2c.5,5.7,1,11.5,1.5,17.2l1.6,17.2v.3l.3.1,13.4,5c4.4,1.7,8.9,3.4,13.3,5.2s8.8,3.7,13.2,5.6c2.2,1,4.3,2,6.5,3,1.1.5,2.1,1.1,3.2,1.6a14.92,14.92,0,0,1,2.9,2,11.669,11.669,0,0,1,1.4,3.5c.3,1.2.6,2.5.8,3.7.2,1.3.4,2.5.6,3.8l.2,1.9.1.9.1.5v.4c0,6.3,0,12.6-.1,18.9l-41.8-.5c-14,.1-28.1,0-42.1,0Z" transform="translate(-14.8 -92.2)" fill="#c27b55"/>
        <path id="SvgjsPath7374" d="M125.1,142.4s-1.8,23-9.1,32.9C116,175.3,123.9,150.3,125.1,142.4Zm-34.5,16s5,7.9,11.5,10.1C102.1,168.5,92.6,170.7,90.6,158.4ZM73.4,140c6.7,25.6,6.7,25.6,8.5,30.7C81.9,170.7,82.3,158.1,73.4,140Z" transform="translate(-14.8 -92.2)" fill="#d19271"/>
      </g>
      <g id="svga-group-clothes-single" transform="translate(0 118.74)">
        <path id="SvgjsPath7254" d="M69.9,150.1l-1.8.9s-1.4,2.9-2.4,5.1S61,162,61,162a20.019,20.019,0,0,0-.6,2.9s-12.3,4.2-15.9,5.6-19.2,6.3-21.3,6.4a15,15,0,0,0-5.1,1.8,9.328,9.328,0,0,0-3.9,4.5c-1,2.8-2.6,34.4-2.6,36.8H187.5s-1.8-32.4-3.5-34.9c-.6-.9-.2-2.6-5.9-5.1s-17-7-20.8-8.5-19.3-7.2-19.3-7.2a4.552,4.552,0,0,0-2.3-3.4c-2.1-1.1-5.3-9.8-5.3-9.8l-1.3-1.3a91.82,91.82,0,0,1,.2,9.6c-.2,4.5-4.7,11.7-7.9,13.8s-9,5.7-11.3,6.6-2.8,3.4-3.8,5.9-2.6,5.9-2.6,5.9a69.509,69.509,0,0,1-5.3-7.6c-1.7-3.2-4-5.5-8.3-5.1-4.2.4-5.5-.9-7-1.7-1.5-.9-10.6-15.1-11.9-18.7a40.165,40.165,0,0,1-1.3-8.4Z" transform="translate(-10.9 -147.5)" fill="#625092"/>
        <path id="SvgjsPath7255" d="M188.3,220c-.4-6.9-.8-13.8-1.3-20.7-.3-3.5-.6-6.9-1.1-10.4a23.816,23.816,0,0,0-.5-2.6,5.271,5.271,0,0,0-.5-1.5l-.1-.2-.1-.2-.3-.6a7.317,7.317,0,0,0-1.9-2.3c-.8-.6-1.5-1-2.3-1.5a49.969,49.969,0,0,0-4.8-2.1l-4.8-2-9.6-4c-6.2-2.5-15.8-5.4-21.9-8.3a5.6,5.6,0,0,0-2.4-3.3l-.3-.1a.31.31,0,0,0-.2-.1c-.1-.1-.1-.1-.2-.1a3.171,3.171,0,0,1-.5-.6,7.837,7.837,0,0,1-1-1.5,60.682,60.682,0,0,1-3.1-6.9l-.1-.2-.1-.1-1.3-1.3-1.9-1.9.2,2.8q.3,3.45.3,6.9v2.6l-.1.8a18.116,18.116,0,0,1-.9,3.1,26.246,26.246,0,0,1-3.3,5.9,17.874,17.874,0,0,1-2.2,2.5,10.593,10.593,0,0,1-1.2,1,6.376,6.376,0,0,1-1.4.8c-4.1,2.1-4.9,3.8-9.2,5.5a4.869,4.869,0,0,0-1.8,1.1,8.346,8.346,0,0,0-1.2,1.6,28.057,28.057,0,0,0-1.3,3.3l-.9,2.1c-.5,1-.9,2-1.4,3-1.2-1.6-2.5-3.2-3.6-4.9-.3-.5-.6-1-.9-1.6a16.286,16.286,0,0,0-1.1-1.7,8.614,8.614,0,0,0-3-2.7,7.845,7.845,0,0,0-4-.9c-.5.1-3.5.1-7.7-1.7-.5-.2-1.5-1.9-2.3-2.9-.7-1-1.5-2.1-2.2-3.1-1.4-2.1-2.8-4.2-4.1-6.4-.7-1.1-1.3-2.2-1.9-3.3a12.811,12.811,0,0,1-1.4-3.4c.1-1.6.4-4.6.5-5.7,0,0,.1-2.2.1-2.4-1.2-.1-3.2,1.1-3.9,1.4l-1.5,3a26.389,26.389,0,0,1-1.5,2.9,25.6,25.6,0,0,1-2,2.6c-.7.8-1.5,1.6-2.3,2.4l-.1.1v.1a5.732,5.732,0,0,1-.4,1.4,5.067,5.067,0,0,0-.2,1.3c-3.2,1.4-9.4,2.7-12.6,4.1s-6.6,2.4-10,3.5c-3.4,1-6.8,2.1-10.1,3-.9.2-1.7.5-2.5.7l-1.2.3c-.2,0-.3.1-.6.1-.2,0-.5.1-.7.1a27.584,27.584,0,0,0-2.7.8l-1.2.6-.6.3c-.3.1-.4.3-.6.4a9.779,9.779,0,0,0-3.6,4.4,3.926,3.926,0,0,0-.3,1.4l-.2,1.3-.3,2.7c-.3,3.5-.6,7.1-.8,10.6l-.7,10.6c-.2,3.6-.4,7-.5,10.6v.9h.9l22-.1,22-.2,22-.2,22-.1c7.3-.1,14.7,0,22,0s14.7,0,22,.1l44,.3h.8l-.3-1.2Zm-68.2-44.9c.5-.3,1.1-.6,1.6-.9a5.665,5.665,0,0,0,1.5-1.2,20.936,20.936,0,0,0,2.4-2.8,32.252,32.252,0,0,0,3.6-6.3,18.93,18.93,0,0,0,1-3.6l.1-1v-2.7c0-1,0-2-.1-3a43.73,43.73,0,0,0,2.3,4.9,17.393,17.393,0,0,0,1.1,1.8,6.469,6.469,0,0,0,.8.9,3.111,3.111,0,0,0,.6.4l.4.2a4.741,4.741,0,0,1,1,1,7.838,7.838,0,0,1,.5,1.4l.1.6v.1c.5,2.7,1.1,5.3,1.7,8,.6,2.6,1.4,5.3,2.2,7.9l2.3,7.8,1.1,3.9c.2.8.5,1.7.7,2.5a12.971,12.971,0,0,1-3.9-1.4,26.838,26.838,0,0,1-2.3-1.7,22.688,22.688,0,0,0-2.5-1.8,28.554,28.554,0,0,0-5.4-3l-1.4-.6c-.4-.2-.9-.4-1.3-.6-.8-.5-1.6-1-2.4-1.6a20,20,0,0,1-2.2-1.9,8.7,8.7,0,0,1-.9-1.1,2.092,2.092,0,0,1-.4-.6l-.2-.3-.3-.4a9.127,9.127,0,0,0-5.6-2.8,3.4,3.4,0,0,0-1-.1,45.322,45.322,0,0,0,4.9-2Zm-12.8,10.4c.9-2.2.5-4.6,6.9-7.5a6,6,0,0,1,2.3.2,7.467,7.467,0,0,1,4.5,2.7l.2.2.2.3c.1.1.2.3.3.4a21.034,21.034,0,0,1-5.9,3.2c-1.7.5-3.3.9-5,1.4-1.5.3-2.9.7-4.4.9l.9-1.8Zm-4.5,6.1a43.876,43.876,0,0,1-4,5.6l-.4.4c-1.7-3.4-5.1-8.9-6.2-10.7a6.6,6.6,0,0,0,1.4.1,36.171,36.171,0,0,0,5.7-.1C100.5,188.5,101.6,190.1,102.8,191.6ZM91,179.5a6.216,6.216,0,0,1,3.3.8,8.158,8.158,0,0,1,2.5,2.4,8.272,8.272,0,0,1,.9,1.6,15.053,15.053,0,0,0,1,1.7l.6.9a50.5,50.5,0,0,1-5.6-.6c-2-.3-4-.6-6-1s-6.6-2.2-8.4-2.7c.5-.6,1-1.1,1.5-1.7a4.778,4.778,0,0,1,1.8-1.7,6.344,6.344,0,0,1,2.4-.3c.1,0,5.4.6,6,.6ZM61.4,162.2c.8-.8,1.5-1.6,2.2-2.4a26.93,26.93,0,0,0,2-2.7c.6-1,.9-2,1.4-3l1.3-3c.5-.3,1-.6,1.6-.9v.8l.1.9c.1.6.1,1.3.2,1.9.2,1.3.4,2.5.7,3.8a18.352,18.352,0,0,0,1.5,3.6c.6,1.1,1.2,2.2,1.8,3.4,1.3,2.2,2.6,4.4,3.9,6.5.7,1.1,1.4,2.1,2.1,3.2a23.4,23.4,0,0,0,2.4,3.1,2.361,2.361,0,0,0,.9.6.1.1,0,0,1,.1.1,6.753,6.753,0,0,0-1.4.2,5.67,5.67,0,0,0-1.3.8c-.4.4-.6.7-.9,1L78.1,182c-1.3,1.3-2.6,2.5-3.9,3.7s-2.7,2.4-4,3.6a47.314,47.314,0,0,1-4.3,3.1c-2.5,1.6-5.1,3.1-7.7,4.5.5-5.5,1-11,1.4-16.5l.7-9.1c.2-2,.3-3.9.5-5.9l.2-.1v-.2a7.844,7.844,0,0,1,.2-1.4,6.052,6.052,0,0,1,.2-1.5Zm-5.8,57.2-22-.2-21.1-.1c.3-6.7.6-13.5,1-20.2.2-3.5.4-7.1.8-10.6.1-.9.2-1.8.3-2.6l.2-1.3c0-.2.1-.4.1-.6a1.268,1.268,0,0,0,.1-.6,7.643,7.643,0,0,1,3.1-3.6,2.186,2.186,0,0,0,.5-.3l.6-.3a6.118,6.118,0,0,1,1.2-.5,22.5,22.5,0,0,1,2.4-.8c.2,0,.4-.1.6-.1l.7-.1c.5-.1.9-.2,1.3-.3.9-.2,1.7-.5,2.6-.7,3.4-1,6.8-2.1,10.1-3.2a92.539,92.539,0,0,0,10-3.7c3.1-1.4,9.2-2.8,12.3-4.2-.3,1.9-.6,3.7-.9,5.6-.5,3-1,6.1-1.3,9.1-.8,6.1-1.4,12.2-2.1,18.3l-.2,1.8,1.6-.8A89.213,89.213,0,0,0,67,194a34.575,34.575,0,0,0,4.4-3.4c1.3-1.2,2.7-2.5,3.9-3.8,1.3-1.3,2.6-2.6,3.8-3.9l.3-.3c3.6,1.7,4.4,2.8,8.2,3.6,1.2.2,2.4.4,3.5.6l-.1.1c.1.1,4.8,7.7,6.7,11.6a.52.52,0,0,0-.2.4,6.263,6.263,0,0,0-.7,2.2A24.216,24.216,0,0,0,97,205l.5,3.7.4,3.7c.2,2.4.5,4.9.9,7.3l-21.2-.1-22-.2Zm43.3.3c.2-2.5.2-4.9.2-7.4a48.321,48.321,0,0,0-.3-7.6,21.956,21.956,0,0,1-.1-3.6,5.732,5.732,0,0,1,.4-1.4c.1-.2.3-.4.4-.6l.3-.3.4-.4a32.409,32.409,0,0,0,2.4-3.1c.7-1.1,1.3-2.2,2-3.3v-.1l.9-2.4.9-2a23.717,23.717,0,0,0,4.6-.3c.8-.1,1.5-.3,2.2-.4-1.5,2.6-6.5,11.1-7.8,12.9s-1.1,3.3-.9,5c0,.4.1.8.1,1.3.1,2.1.8,11.5,1,13.6H99.5Zm22.7,0H106.7c-.2-2-.9-11.6-1-13.7,0-.5-.1-.9-.1-1.3-.2-1.7-.3-2.9.8-4.4,1.5-2.1,6.3-10.5,6.6-10.9l1.6-2.8c1-.4,1.8-.8,3.4-1.5a11.95,11.95,0,0,0,3.9-3,.1.1,0,0,0,.1.1c.3.4.7.8,1,1.2a22.842,22.842,0,0,0,2.2,2.2,12.029,12.029,0,0,0,2.6,1.8,6.109,6.109,0,0,0,1.4.7l1.4.6a31.016,31.016,0,0,1,5,2.9,20.281,20.281,0,0,1,2.3,1.8,16.41,16.41,0,0,0,2.5,1.9,14.523,14.523,0,0,0,6.1,1.9l1.3.1-.3-1.3c-.3-1.4-.7-2.7-1.1-4l-1.2-3.9-2.5-7.8c-.8-2.6-1.7-5.1-2.5-7.7-.7-2.4-1.4-4.8-2-7.1,2.9,1.4,9.4,2.8,12.3,4.1,1.6.7,3.1,1.4,4.8,2.1l4.8,2,9.6,3.9,4.8,1.9c1.6.7,3.2,1.2,4.7,2,1.4.8,2.9,1.7,3.5,2.9a4.167,4.167,0,0,1,.2.6c0,.1.1.2.2.4a1.438,1.438,0,0,1,.2.3,4.053,4.053,0,0,1,.3,1c.2.8.3,1.6.5,2.5.5,3.4.8,6.8,1.1,10.2.6,6.6,1.1,13.2,1.5,19.9l-43.2.3c-7.2,0-14.6,0-21.9.1ZM111.7,182a1.5,1.5,0,1,1-1.5,1.5A1.538,1.538,0,0,1,111.7,182Zm-10.1,18.4a1.5,1.5,0,1,1-1.5,1.5A1.538,1.538,0,0,1,101.6,200.4Zm-73.8-4.5a26.154,26.154,0,0,0-.9-3.8c-.4-1.2-.9-2.4-1.3-3.6-1-2.3-2-4.6-3.1-6.9l1.2,3.6,1.2,3.6,1.2,3.6a23.254,23.254,0,0,1,.8,3.6c.4,2.5.6,5,.9,7.5l.4,3.8c.2,1.2.3,2.5.5,3.8,0-2.5,0-5.1-.2-7.6-.2-2.6-.4-5.1-.7-7.6Zm150.5-9.2a21.419,21.419,0,0,0-1.3,1.9c-.8,1.3-1.5,2.7-2.2,4.1a71.16,71.16,0,0,0-3.6,8.6v.2c-.2,2.5-.3,5-.4,7.6-.1,2.5-.2,5-.2,7.6q.6-3.75.9-7.5c.3-2.5.5-5,.7-7.5,1.1-2.9,2.2-5.7,3.4-8.6.6-1.4,1.2-2.8,1.9-4.2a12.548,12.548,0,0,1,2.5-3.8,8.518,8.518,0,0,0-1.7,1.6Z" transform="translate(-10.9 -147.5)" fill="#3d2873"/>
        <path id="SvgjsPath7256" d="M135.7,164.5a53.836,53.836,0,0,0,1.7,12.6c.3,1.3,4.5,13.8,4.4,13.8,0,0-6.8-5.8-8.1-6.6a117.978,117.978,0,0,0-12.3-6.2c-.3-.1-.5.3-.2.4,7.3,4,15.5,8.1,21.4,14.1a.271.271,0,0,0,.4-.2c-3.6-9.2-4.6-18.4-6.7-27.9-.2-.4-.6-.3-.6,0Zm43.6,17.9c-5-2.4-10.5-3.8-15.7-5.7-6.6-2.4-16.5-5.3-22.9-8.2-.3-.2-.6.3-.3.5,5.1,3.5,14.5,5.8,20.3,8,5.9,2.2,12.2,4.8,18.4,6.1.3,0,.6-.5.2-.7Zm-2.4,2.3a22.022,22.022,0,0,0-5.6,9.2c-.1.2.3.4.4.2a26.252,26.252,0,0,1,5.6-9C177.4,184.8,177.1,184.5,176.9,184.7Zm6,2.1a.3.3,0,0,0-.6,0c.1,5.9.2,11.8.8,17.6a.3.3,0,0,0,.6,0A172.733,172.733,0,0,0,182.9,186.8Zm-105-9.3c-6.2,5.9-13,11.3-19.1,17.2-.2.2.1.7.4.5,7.2-4.7,13.5-10.9,19.5-17C79,177.8,78.3,177.1,77.9,177.5Z" transform="translate(-10.9 -147.5)" fill="#7869a1"/>
      </g>
      <g id="svga-group-head" transform="translate(38.03)">
        <g id="svga-group-ears-left-move" transform="translate(0 44.658)">
          <g id="svga-group-ears-left">
            <path id="SvgjsPath7601" d="M68.41,84.17a47.6,47.6,0,0,0-4.51-7.21c-1.93-2.19-6.82-5.79-7.98-5.54s-6.31,14.04-6.82,16.1,6.18,8.63,6.82,9.79.52,3.99.39,4.76,5.15,2.83,7.85,2.19S74.21,94.72,68.41,84.17Z" transform="translate(-48.93 -71.018)" fill="#f0c7b1"/>
            <path id="SvgjsPath7602" d="M68.03,90.6s-5.92-8.11-9.91-10.82-5.67,7.73-5.41,8.76,4.64,6.31,6.31,7.08,7.33-.64,9.01-5.02Z" transform="translate(-48.93 -71.018)" fill="#e1ac8f"/>
            <path id="SvgjsPath7603" d="M49.09,87.02a3.287,3.287,0,0,0-.16.67,2.053,2.053,0,0,0,.11.7,10.188,10.188,0,0,0,1.26,2.35c.49.73,1.03,1.43,1.58,2.12,1.09,1.38,2.25,2.71,3.34,4.05a6.031,6.031,0,0,1,.36.49,2.455,2.455,0,0,1,.21.52,5.978,5.978,0,0,1,.19,1.22,14.483,14.483,0,0,1-.04,2.55l-.04.31a.759.759,0,0,0,.24.63,3.033,3.033,0,0,0,.61.47,8.366,8.366,0,0,0,1.24.61,15.673,15.673,0,0,0,2.57.82,10.225,10.225,0,0,0,2.72.29,3.708,3.708,0,0,0,1.43-.3,3.011,3.011,0,0,0,.64-.35,3.991,3.991,0,0,0,.57-.42,14.389,14.389,0,0,0,4.78-9.42,18.323,18.323,0,0,0,.07-2.67,16.458,16.458,0,0,0-.43-2.62,19.676,19.676,0,0,0-1.9-4.91c-.79-1.57-1.65-3.09-2.54-4.6-.45-.76-.92-1.5-1.44-2.22a15.228,15.228,0,0,0-1.79-1.97,28.138,28.138,0,0,0-4.17-3.28,9.718,9.718,0,0,0-1.18-.67c-.2-.1-.43-.18-.65-.27a1.693,1.693,0,0,0-.87-.07c-.46.23-.48.42-.65.62-.13.2-.25.39-.36.59-.22.39-.42.79-.61,1.19-1.46,3.22-2.59,6.54-3.8,9.83l-.87,2.48-.42,1.26Zm.13.69a3.935,3.935,0,0,1,.14-.6l.4-1.25c.28-.83.59-1.65.9-2.47.61-1.64,1.28-3.26,1.97-4.86s1.41-3.2,2.19-4.75q.285-.585.6-1.14c.11-.18.22-.36.33-.53.06-.09.12-.15.17-.23a.506.506,0,0,1,.09-.08.817.817,0,0,1,.14.01,2.5,2.5,0,0,1,.26.07,5.236,5.236,0,0,1,.56.24c.37.18.75.39,1.12.6a36.507,36.507,0,0,1,4.2,3.05,14.994,14.994,0,0,1,1.85,1.8c.55.66,1.06,1.38,1.55,2.1.97,1.45,1.83,2.98,2.66,4.52a15.569,15.569,0,0,1,1.76,10.07,16.218,16.218,0,0,1-1.65,4.84,13.168,13.168,0,0,1-3.12,3.96,3.236,3.236,0,0,1-.49.36,2.58,2.58,0,0,1-.51.28,2.666,2.666,0,0,1-1.12.22,10.649,10.649,0,0,1-2.49-.26,15.922,15.922,0,0,1-2.44-.73,9.769,9.769,0,0,1-1.13-.53,2.988,2.988,0,0,1-.44-.31l-.03-.03.03-.26a15.214,15.214,0,0,0-.01-2.7,7.4,7.4,0,0,0-.26-1.36,3,3,0,0,0-.31-.69,5,5,0,0,0-.43-.55c-1.16-1.35-2.37-2.59-3.51-3.92-.57-.66-1.12-1.33-1.64-2.03a8.592,8.592,0,0,1-1.28-2.23,4.65,4.65,0,0,1-.06-.61Z" transform="translate(-48.93 -71.018)" fill="#e1ac8f"/>
            <path id="SvgjsPath7604" d="M54.5,82.01a4.97,4.97,0,0,1,1.37-1.89,1.152,1.152,0,0,1,1.21-.16,2.482,2.482,0,0,1,.87.83,25.955,25.955,0,0,1,2.38,3.94,52.185,52.185,0,0,1,3.21,8.56l-.08.03c-1.35-2.74-2.56-5.51-3.83-8.25a37.147,37.147,0,0,0-1.98-4.06,2.051,2.051,0,0,0-.7-.78.884.884,0,0,0-.93.11,4.657,4.657,0,0,0-1.21,1.81,14.3,14.3,0,0,0-.94,4.35,4.64,4.64,0,0,0,.04,1.06,1.584,1.584,0,0,0,.11.43c.09.16.16.32.26.47a19.879,19.879,0,0,0,1.25,1.84c.45.6.9,1.2,1.38,1.78l.71.87c.06.07.12.13.18.2a14.884,14.884,0,0,0,.48-1.78l.43-2.13c-.6-.94-1.19-1.89-1.75-2.86l.07-.05q1.125,1.335,2.19,2.7l.06.07-.01.12q-.091,1.145-.27,2.28a11.231,11.231,0,0,1-.53,2.33,1.165,1.165,0,0,1-.12.2.514.514,0,0,1-.13.13.607.607,0,0,1-.1.07.5.5,0,0,1-.21.05.583.583,0,0,1-.35-.11l-.07-.06a.769.769,0,0,1-.13-.12c-.15-.15-.28-.29-.41-.43-.26-.29-.51-.58-.76-.88-.48-.6-.96-1.2-1.39-1.84a21.844,21.844,0,0,1-1.24-1.97c-.1-.17-.18-.36-.27-.54a2.593,2.593,0,0,1-.16-.67,6.063,6.063,0,0,1,.03-1.21,14.191,14.191,0,0,1,1.34-4.44Z" transform="translate(-48.93 -71.018)" fill="#c27b55"/>
          </g>
        </g>
        <g id="svga-group-ears-right-move" transform="translate(80.286 44.668)">
          <g id="svga-group-ears-right">
            <path id="SvgjsPath7605" d="M131.59,84.17a47.6,47.6,0,0,1,4.51-7.21c1.93-2.19,6.82-5.79,7.98-5.54s6.31,14.04,6.82,16.1-6.18,8.63-6.82,9.79-.52,3.99-.39,4.76-5.15,2.83-7.85,2.19-10.05-9.54-4.25-20.09Z" transform="translate(-129.216 -71.028)" fill="#f0c7b1"/>
            <path id="SvgjsPath7606" d="M131.97,90.6s5.92-8.11,9.91-10.82,5.67,7.73,5.41,8.76-4.64,6.31-6.31,7.08-7.33-.64-9.01-5.02Z" transform="translate(-129.216 -71.028)" fill="#e1ac8f"/>
            <path id="SvgjsPath7607" d="M150.49,85.77l-.87-2.48c-1.22-3.29-2.34-6.61-3.8-9.83-.19-.4-.39-.8-.61-1.19a6.221,6.221,0,0,0-.36-.59c-.17-.2-.19-.39-.65-.62a1.693,1.693,0,0,0-.87.07,4.218,4.218,0,0,0-.65.27,9.718,9.718,0,0,0-1.18.67,28.279,28.279,0,0,0-4.17,3.28,15.228,15.228,0,0,0-1.79,1.97,24.761,24.761,0,0,0-1.44,2.22c-.89,1.51-1.76,3.04-2.54,4.6a19.528,19.528,0,0,0-1.9,4.91,17.673,17.673,0,0,0-.43,2.62,18.322,18.322,0,0,0,.07,2.67,14.3,14.3,0,0,0,4.78,9.42,3.5,3.5,0,0,0,.57.42,3.011,3.011,0,0,0,.64.35,3.567,3.567,0,0,0,1.43.3,10.225,10.225,0,0,0,2.72-.29,15.373,15.373,0,0,0,2.57-.82,10.939,10.939,0,0,0,1.24-.61,3.033,3.033,0,0,0,.61-.47.776.776,0,0,0,.24-.63l-.04-.31a15.514,15.514,0,0,1-.04-2.55,6.758,6.758,0,0,1,.19-1.22,2.454,2.454,0,0,1,.21-.52c.1-.15.23-.33.36-.49,1.1-1.34,2.26-2.67,3.34-4.05.55-.69,1.08-1.39,1.58-2.12a10.015,10.015,0,0,0,1.26-2.35,2.28,2.28,0,0,0,.11-.7,3.135,3.135,0,0,0-.16-.67l-.42-1.26Zm.19,2.53a8.592,8.592,0,0,1-1.28,2.23c-.51.7-1.07,1.37-1.64,2.03-1.14,1.33-2.36,2.57-3.51,3.92a6.59,6.59,0,0,0-.43.55,3.493,3.493,0,0,0-.31.69,7.4,7.4,0,0,0-.26,1.36,14.323,14.323,0,0,0-.01,2.7l.03.26c-.01.01-.01.02-.03.03a1.99,1.99,0,0,1-.44.31,7.82,7.82,0,0,1-1.13.53,15.923,15.923,0,0,1-2.44.73,10.594,10.594,0,0,1-2.49.26,2.831,2.831,0,0,1-1.12-.22,2.152,2.152,0,0,1-.51-.28,2.673,2.673,0,0,1-.49-.36,13.168,13.168,0,0,1-3.12-3.96,16.123,16.123,0,0,1-1.65-4.84,15.507,15.507,0,0,1,1.76-10.07c.83-1.54,1.69-3.07,2.66-4.52.49-.72,1-1.43,1.55-2.1a15,15,0,0,1,1.85-1.8,36.507,36.507,0,0,1,4.2-3.05,11.036,11.036,0,0,1,1.12-.6,4.492,4.492,0,0,1,.56-.24c.09-.03.17-.04.26-.07a.88.88,0,0,1,.14-.01c.01.01.06.05.09.08a1.953,1.953,0,0,1,.17.23c.12.16.22.35.33.53q.315.555.6,1.14c.78,1.55,1.5,3.15,2.19,4.75s1.36,3.22,1.97,4.86c.31.82.62,1.64.9,2.47l.4,1.25a3.022,3.022,0,0,1,.14.6,1.155,1.155,0,0,1-.06.61Z" transform="translate(-129.216 -71.028)" fill="#e1ac8f"/>
            <path id="SvgjsPath7608" d="M145.5,82.01a4.97,4.97,0,0,0-1.37-1.89,1.152,1.152,0,0,0-1.21-.16,2.482,2.482,0,0,0-.87.83,25.956,25.956,0,0,0-2.38,3.94,52.187,52.187,0,0,0-3.21,8.56l.08.03c1.35-2.74,2.56-5.51,3.83-8.25a37.146,37.146,0,0,1,1.98-4.06,2.051,2.051,0,0,1,.7-.78.884.884,0,0,1,.93.11,4.657,4.657,0,0,1,1.21,1.81,14.3,14.3,0,0,1,.94,4.35,5.288,5.288,0,0,1-.04,1.06,1.584,1.584,0,0,1-.11.43c-.09.16-.16.32-.26.47a19.879,19.879,0,0,1-1.25,1.84c-.45.6-.9,1.2-1.38,1.78l-.71.87c-.06.07-.12.13-.18.2a14.885,14.885,0,0,1-.48-1.78l-.43-2.13c.6-.94,1.19-1.89,1.75-2.86l-.07-.05q-1.125,1.335-2.19,2.7l-.06.07.01.12q.09,1.14.27,2.28a11.231,11.231,0,0,0,.53,2.33,1.165,1.165,0,0,0,.12.2.514.514,0,0,0,.13.13.607.607,0,0,0,.1.07.5.5,0,0,0,.21.05.583.583,0,0,0,.35-.11l.07-.06a.769.769,0,0,0,.13-.12c.15-.15.28-.29.41-.43.26-.29.51-.58.76-.88.48-.6.96-1.2,1.39-1.84a21.844,21.844,0,0,0,1.24-1.97c.1-.17.18-.36.27-.54a2.593,2.593,0,0,0,.16-.67,6.064,6.064,0,0,0-.03-1.21,14.191,14.191,0,0,0-1.34-4.44Z" transform="translate(-129.216 -71.028)" fill="#c27b55"/>
          </g>
        </g>
        <g id="svga-group-faceshape-wrap" transform="translate(10.27 1.939)">
          <g id="svga-group-faceshape-single">
            <path id="SvgjsPath8047" d="M140.4,54.9c-2.2-10-6.3-16-15.2-20.8-9.3-5-25.2-4.8-25.2-4.8s-15.9-.2-25.2,4.8c-8.8,4.8-13,10.8-15.2,20.8-.9,4,0,13.6,0,13.6s1.6,12.3,1.7,18.2c.2,5.8,1.4,18,2.2,25.1.98,7.08,1.46,7.68,1.46,7.68,12.25,14.4,22.69,25.32,25.74,27.9,2.95,2.5,14.4,2.34,17.66.34,3.46-2.12,9.44-8.42,26.53-27.68,0,0,.27-1.05,1.07-8.15s2.13-16.31,2.54-25.19c.2-5.8,1.7-18.2,1.7-18.2.1-.1,1.1-9.6.2-13.6Z" transform="translate(-59.2 -29.299)" fill="#f0c7b1"/>
            <path id="SvgjsPath8048" d="M140.4,54.9c-2.2-10-6.3-16-15.2-20.8-9.3-5-25.2-4.8-25.2-4.8s-15.9-.2-25.2,4.8c-8.8,4.8-13,10.8-15.2,20.8-.9,4,0,13.6,0,13.6s1.6,12.3,1.7,18.2c.2,5.8,1.4,18,2.2,25.1.98,7.08,1.46,7.68,1.46,7.68,12.25,14.4,22.69,25.32,25.74,27.9,2.95,2.5,14.4,2.34,17.66.34,3.46-2.12,9.44-8.42,26.53-27.68,0,0,.27-1.05,1.07-8.15s2.13-16.31,2.54-25.19c.2-5.8,1.7-18.2,1.7-18.2.1-.1,1.1-9.6.2-13.6Zm-.03,10.19-.33,3.24-.06.13c-.55,4.29-1.13,8.57-1.59,12.87-.24,2.14-.41,4.33-.56,6.47-.17,2.14-.39,4.28-.63,6.42-.49,4.28-1.14,8.54-1.72,12.82-.3,2.13-.6,4.3-.86,6.43l-.43,3.2-.23,1.59-.13.78-.08.41-10.86,12.02c-3.72,4.04-7.41,8.17-11.32,11.92a37.667,37.667,0,0,1-3,2.6c-.25.2-.51.36-.77.54a4.823,4.823,0,0,1-.71.37,10.056,10.056,0,0,1-1.76.52,30.934,30.934,0,0,1-7.89.51,21,21,0,0,1-3.86-.56,8.075,8.075,0,0,1-1.66-.61c-.1-.07-.51-.34-.64-.46-.25-.21-.49-.43-.74-.66-1.98-1.83-3.9-3.82-5.82-5.78-3.83-3.94-7.58-7.98-11.27-12.06l-5.53-6.13-1.36-1.54-.68-.77-.17-.19a2.836,2.836,0,0,1-.2-.42,39.552,39.552,0,0,1-.85-3.96c-.5-2.7-.79-5.41-1.12-8.16-.31-2.74-.65-5.47-.9-8.22s-.51-5.49-.7-8.23c-.21-2.73-.23-5.5-.48-8.26-.21-2.76-.48-5.5-.78-8.25-.27-2.76-.67-5.47-.76-8.21a65.758,65.758,0,0,1,.06-8.19,15.572,15.572,0,0,1,.28-1.97c.14-.64.33-1.31.49-1.97.37-1.31.78-2.6,1.27-3.85a25.731,25.731,0,0,1,3.93-6.95,26.248,26.248,0,0,1,5.88-5.34,39.772,39.772,0,0,1,3.44-2.08,28.165,28.165,0,0,1,3.64-1.58,46.989,46.989,0,0,1,7.83-1.97,78.377,78.377,0,0,1,8.09-1,76.612,76.612,0,0,1,8.16-.24,70.527,70.527,0,0,1,16.2,2.02,31.451,31.451,0,0,1,14.03,7.99,24.763,24.763,0,0,1,4.57,6.77,39.575,39.575,0,0,1,2.54,7.83,19.941,19.941,0,0,1,.33,3.37c.03,1.13.01,2.27-.03,3.4-.1,1.13-.16,2.26-.26,3.39Z" transform="translate(-59.2 -29.299)" fill="#c27b55"/>
          </g>
        </g>
        <g id="svga-group-mouth-single-move" transform="translate(32.065 95.688)">
          <g id="svga-group-mouth-single">
            <path id="SvgjsPath7444" d="M119.9,121.9a3.45,3.45,0,0,0-.9-.8c-.3-.1-.8-.1-.8.4a1.02,1.02,0,0,0,.5.8c-.66,1.22-2.4,1.46-3.8,1.56a14.1,14.1,0,0,1-4.49-.17c-3.42-.92-6.52-1.82-9.62-1.62-2.9.1-5.13.98-7.93,1.78-3.3.9-7.66,2.74-9.96-.66a2.7,2.7,0,0,0,.8-.7.536.536,0,0,0-.5-.9c-1,.3-2.3,1.6-2.2,2.7a.382.382,0,0,0,.5.3,9.428,9.428,0,0,0,1-1,5.641,5.641,0,0,0,4.7,2.7,24.112,24.112,0,0,0,5.9-.9,37.177,37.177,0,0,1,6.6-.8c4.1-.1,8.1.2,12.2.4,2.4.1,5.7.4,7.5-1.5a1.374,1.374,0,0,0,.5.8c.1.1.3,0,.4-.1.7-.59,0-1.69-.4-2.29Z" transform="translate(-80.995 -121.048)" fill="#d4918d"/>
            <path id="SvgjsPath7445" d="M105.6,128.4a83.722,83.722,0,0,1-10,.5c-.3,0-.3.4-.1.4a19.615,19.615,0,0,0,10.2-.2A.354.354,0,0,0,105.6,128.4Z" transform="translate(-80.995 -121.048)" fill="#d19271"/>
          </g>
        </g>
        <g id="svga-group-eyes-left-move" transform="translate(17.17 48.24)">
          <g id="svga-group-eyes-left">
            <g id="svga-group-eyesback-left" transform="translate(0.6 0)">
              <path id="SvgjsPath7310" d="M79.421,74.2c7.067,0,12.721,5.236,12.721,11.736S86.488,97.672,79.421,97.672,66.7,92.436,66.7,85.936,72.354,74.2,79.421,74.2Z" transform="translate(-66.7 -74.2)" fill="#fff"/>
            </g>
            <g id="svga-group-eyesiriswrapper-left" transform="translate(8.5 6)">
              <g id="svga-group-eyesiriscontrol-left">
                <g id="svga-group-eyesiris-left">
                  <path id="SvgjsPath7389" d="M80.2,81.6a5.6,5.6,0,1,1-5.6,5.6A5.591,5.591,0,0,1,80.2,81.6Z" transform="translate(-74.6 -81.6)" fill="#2d2e32"/>
                  <path id="SvgjsPath7390" d="M80.2,84.2a3,3,0,1,1-3,3A2.946,2.946,0,0,1,80.2,84.2Z" transform="translate(-74.6 -81.6)"/>
                  <path id="SvgjsPath7391" d="M79.5,84.8l-.6-.6a1.132,1.132,0,0,0-1.6,1.6l.6.6a1.08,1.08,0,0,0,.7.3.779.779,0,0,0,.7-.3c.6-.6.6-1.2.2-1.6Zm2.7,5.1a.75.75,0,0,0,0-1.5A.75.75,0,0,0,82.2,89.9Z" transform="translate(-74.6 -81.6)" fill="#fff"/>
                </g>
              </g>
            </g>
            <g id="svga-group-eyesfront-left">
              <path id="SvgjsPath7318" d="M80.2,73.7c-7.8,0-14.1,5.523-14.1,12.314s6.3,12.314,14.1,12.314S92.691,93.711,92.691,86.92,88,73.7,80.2,73.7Zm4.1,19.168a12.913,12.913,0,0,1-9.8-.181c-2.3-.905-5.7-5.043-6.4-5.768,1.8-1.087,5.2-3.7,6.2-4.153,1.2-.634,7-1.449,10-.815,2,.453,4.6,3.066,6,4.424C89.6,87.372,87.8,91.42,84.3,92.868Z" transform="translate(-66.1 -73.7)" fill="#e9bfa8"/>
              <path id="SvgjsPath7319" d="M91.5,89.2V89a20.679,20.679,0,0,0-.3-3.5,8.468,8.468,0,0,0-.4-1.7,7.741,7.741,0,0,0-.7-1.6A18.6,18.6,0,0,0,88,79.4a29.558,29.558,0,0,0-2.4-2.6h-.1a28.063,28.063,0,0,0-3.1-.8,17.5,17.5,0,0,0-3.2-.4,8.6,8.6,0,0,0-1.6.1,4.418,4.418,0,0,0-1.6.6,8.181,8.181,0,0,0-2.5,2,20.654,20.654,0,0,0-1.9,2.5c-.6.9-1.2,1.7-1.8,2.6A20.166,20.166,0,0,0,67,89.1l.9-.6a31.235,31.235,0,0,0,4.9,4.7,8.272,8.272,0,0,0,1.6.9c.5.2,1.1.4,1.7.6a19.676,19.676,0,0,0,3.5.6,10.781,10.781,0,0,0,6.7-2.2,11.971,11.971,0,0,0,2.4-2.6,23.989,23.989,0,0,0,1.6-2.7A11.985,11.985,0,0,1,91.4,89l.1.2Zm-2-.3c-.3.5-.7.9-1,1.4A11.435,11.435,0,0,1,86,92.7a8.714,8.714,0,0,1-3.1,1.4,12.7,12.7,0,0,1-3.4.5,13.318,13.318,0,0,1-3.4-.5,7.579,7.579,0,0,1-1.6-.6,10.929,10.929,0,0,1-1.5-.8c-.9-.7-1.8-1.4-2.7-2.2-.8-.7-1.5-1.5-2.2-2.2l4.8-3,1.5-.9c.5-.2,1.1-.3,1.6-.5,1.1-.2,2.3-.4,3.4-.5,1.2-.1,2.3-.1,3.4-.1a10.1,10.1,0,0,1,1.7.3,10.092,10.092,0,0,1,1.5.7,13.948,13.948,0,0,1,2.7,2.1l1.2,1.2a2.836,2.836,0,0,1-.4,1.3Zm-3.2-4.8a7.973,7.973,0,0,0-1.6-.8,11.627,11.627,0,0,0-1.8-.4,20.454,20.454,0,0,0-3.5,0,21.359,21.359,0,0,0-3.5.6,10.927,10.927,0,0,0-1.7.5l-1.5.9c-1.9,1.3-3.9,2.6-5.7,3.9A17.539,17.539,0,0,1,68.3,86,23.263,23.263,0,0,1,70,83.4a46.962,46.962,0,0,1,3.8-5,11.169,11.169,0,0,1,2.4-1.9,5.783,5.783,0,0,1,1.4-.5,7.569,7.569,0,0,1,1.5-.1A26.116,26.116,0,0,1,85.2,77c.8.8,1.6,1.6,2.3,2.4a24.716,24.716,0,0,1,2.1,2.7,5.066,5.066,0,0,1,.7,1.5,10.462,10.462,0,0,1,.4,1.7,17.329,17.329,0,0,1,.3,3.2,22.2,22.2,0,0,0-4.7-4.4Z" transform="translate(-66.1 -75.6)"/>
            </g>
          </g>
        </g>
        <g id="svga-group-eyes-right-move" transform="translate(58.327 48.745)">
          <g id="svga-group-eyes-right">
            <g id="svga-group-eyesback-right" transform="translate(0.242)">
              <path id="SvgjsPath7311" d="M119.2,74.2c7.167,0,12.9,5.124,12.9,11.484s-5.734,11.484-12.9,11.484-12.9-5.124-12.9-11.484S112.034,74.2,119.2,74.2Z" transform="translate(-106.3 -74.2)" fill="#fff"/>
            </g>
            <g id="svga-group-eyesiriswrapper-right" transform="translate(8.091 6.195)">
              <g id="svga-group-eyesiriscontrol-right">
                <g id="svga-group-eyesiris-right">
                  <path id="SvgjsPath7392" d="M119.8,82.3a4.9,4.9,0,1,1-4.9,4.9A4.908,4.908,0,0,1,119.8,82.3Z" transform="translate(-114.9 -82.3)" fill="#2d2e32"/>
                  <path id="SvgjsPath7393" d="M119.8,84.6a2.6,2.6,0,1,1-2.6,2.6A2.647,2.647,0,0,1,119.8,84.6Z" transform="translate(-114.9 -82.3)"/>
                  <path id="SvgjsPath7394" d="M119.2,85.1c-.2-.2-.3-.4-.5-.5a.908.908,0,0,0-.7-.3,1.08,1.08,0,0,0-.7.3.908.908,0,0,0-.3.7,1.08,1.08,0,0,0,.3.7c.2.2.4.3.5.5a.908.908,0,0,0,.7.3,1.08,1.08,0,0,0,.7-.3,1.191,1.191,0,0,0,0-1.4Zm2.4,4.5a.65.65,0,0,0,0-1.3C120.8,88.2,120.8,89.6,121.6,89.6Z" transform="translate(-114.9 -82.3)" fill="#fff"/>
                </g>
              </g>
            </g>
            <g id="svga-group-eyesfront-right" transform="translate(0 0)">
              <path id="SvgjsPath7320" d="M119.022,73.7c-7.369,0-13.322,5.41-13.322,12.062s5.952,12.062,13.322,12.062,13.322-5.41,13.322-12.062S126.391,73.7,119.022,73.7Zm6.271,18.93a15.367,15.367,0,0,1-10.3-.355c-3.212-1.242-4.759-4.916-5.421-6.069,1.323-1.064,3.438-3.307,5.233-3.661a27.291,27.291,0,0,1,9.448.621c.85.355,4.5,2.686,6.1,3.484-.661.976-2.988,5.094-5.066,5.981Z" transform="translate(-105.7 -73.7)" fill="#e9bfa8"/>
              <path id="SvgjsPath7323" d="M131.906,88.8a10,10,0,0,0-1.252-2.5,18.327,18.327,0,0,0-1.638-2.2c-.289-.4-.578-.7-.867-1.1a10.7,10.7,0,0,0-1.06-1,13.761,13.761,0,0,0-2.312-1.6,11.286,11.286,0,0,0-2.5-1.1,8.558,8.558,0,0,0-2.7-.5,25.315,25.315,0,0,0-5.491.3h-.193a19.486,19.486,0,0,0-2.119,1.9c-.674.7-1.349,1.4-1.927,2.1a5.711,5.711,0,0,0-.771,1.3,7.584,7.584,0,0,0-.385,1.4,14.8,14.8,0,0,0-.289,2.9V89l.193-.1a10.3,10.3,0,0,1,1.156-1,22.234,22.234,0,0,0,1.445,2.6,10.145,10.145,0,0,0,2.408,2.6,11.973,11.973,0,0,0,3.179,1.6,14.242,14.242,0,0,0,3.468.7,10.148,10.148,0,0,0,3.468-.2,11.316,11.316,0,0,0,1.734-.5,3.36,3.36,0,0,0,.867-.4c.289-.2.482-.3.771-.5a12.574,12.574,0,0,0,2.408-2.7l1.734-2.7a2.052,2.052,0,0,0,.674.4Zm-22.928-2.9a5.14,5.14,0,0,1,.482-1.3,8.373,8.373,0,0,1,.771-1.2,13.094,13.094,0,0,1,2.023-2c.674-.6,1.349-1.2,2.119-1.8a31.316,31.316,0,0,1,5.3-.2,11.942,11.942,0,0,1,2.6.5,13.651,13.651,0,0,1,2.5,1.1,12.532,12.532,0,0,1,2.216,1.5,8.808,8.808,0,0,1,.963.9c.289.3.578.7.867,1l1.734,2.1A11.407,11.407,0,0,1,132,88.8c-1.83-1.1-3.757-2.2-5.588-3.2-.482-.2-.963-.5-1.445-.7a9.769,9.769,0,0,0-1.638-.4c-1.06-.2-2.119-.3-3.179-.4a16.882,16.882,0,0,0-3.179,0,9.16,9.16,0,0,0-1.638.2,4.162,4.162,0,0,0-1.541.6,30.411,30.411,0,0,0-5.106,3.7,6.486,6.486,0,0,1,.289-2.7Zm20.038,4.9a13.993,13.993,0,0,1-2.312,2.5,6.908,6.908,0,0,1-3.083,1.2,19.086,19.086,0,0,1-3.372.2,13.291,13.291,0,0,1-3.372-.6,12.267,12.267,0,0,1-3.083-1.4,14.117,14.117,0,0,1-4.046-4.9c.385-.3.867-.7,1.252-1a24.948,24.948,0,0,1,2.7-1.7,8.263,8.263,0,0,1,1.445-.5,8.139,8.139,0,0,1,1.541-.2,16.907,16.907,0,0,1,3.179.1c1.06.1,2.119.2,3.179.4.482.1,1.06.2,1.541.3a9.561,9.561,0,0,1,1.445.7c1.541.8,3.083,1.6,4.624,2.3a10.62,10.62,0,0,1-1.638,2.6Z" transform="translate(-106.359 -76.105)"/>
            </g>
          </g>
        </g>
        <g id="svga-group-eyebrows-left-move" transform="translate(14.99 43.475)">
          <g id="svga-group-eyebrows-left-rotate">
            <g id="svga-group-eyebrows-left">
              <path id="SvgjsPath7234" d="M63.94,80.729s3.31-7.922,13.8-12.573c5.23-2.317,11.76-1.449,12.42.252s-2.6,4.139-4.27,3.861-8.07-1.2-9.51-.677C72.29,73.1,69.42,74.663,63.94,80.729Z" transform="translate(-63.92 -66.631)" fill="#2a232b"/>
              <path id="SvgjsPath7235" d="M63.92,80.769a8.543,8.543,0,0,1,.78-1.721,18.361,18.361,0,0,1,.99-1.608,22.506,22.506,0,0,1,2.42-2.981,30.1,30.1,0,0,1,2.9-2.65A29.21,29.21,0,0,1,74.36,69.6a35.619,35.619,0,0,1,3.69-1.755,18.106,18.106,0,0,1,4.03-1.025,18.755,18.755,0,0,1,4.19-.122,11.79,11.79,0,0,1,2.07.356,3.7,3.7,0,0,1,1.85,1,1.736,1.736,0,0,1-.01,1.929A5.193,5.193,0,0,1,88.85,71.5a5.625,5.625,0,0,1-1.89,1,2.758,2.758,0,0,1-1.2.1l-1.02-.148c-1.37-.191-2.74-.356-4.11-.478-.69-.061-1.37-.122-2.05-.148a8.87,8.87,0,0,0-1.95.078,23.8,23.8,0,0,0-6.95,3.667A64.124,64.124,0,0,0,63.92,80.769Zm.04-.061a37.629,37.629,0,0,1,5.33-5.562,21.456,21.456,0,0,1,3.32-2.277,26.392,26.392,0,0,1,3.82-1.651,9.1,9.1,0,0,1,2.2-.113c.71.026,1.41.078,2.1.148,1.39.139,2.77.322,4.15.53l1.03.165a1.959,1.959,0,0,0,.86-.052,5.373,5.373,0,0,0,1.68-.826,4.589,4.589,0,0,0,1.27-1.295,1.377,1.377,0,0,0,.13-1.521,3.354,3.354,0,0,0-1.61-.921,10.147,10.147,0,0,0-1.99-.4,16.356,16.356,0,0,0-4.12.1,15.514,15.514,0,0,0-3.91,1.095,33.71,33.71,0,0,0-3.51,1.894A30.505,30.505,0,0,0,63.96,80.708Z" transform="translate(-63.92 -66.631)" fill="#1b141c"/>
            </g>
          </g>
        </g>
        <g id="svga-group-eyebrows-right-move" transform="translate(60.43 45.678)">
          <g id="svga-group-eyebrows-right-rotate">
            <g id="svga-group-eyebrows-right">
              <path id="SvgjsPath7236" d="M132.69,78.739a23.832,23.832,0,0,0-13.45-9.205c-4.6-1.226-8.47.791-8.65,2.477s4.62,2.521,5.89,1.964,3.29-1.73,4.53-1.5c3.53.661,6.12,1.6,11.68,6.258Z" transform="translate(-110.36 -69.038)" fill="#2a232b"/>
              <path id="SvgjsPath7237" d="M132.67,78.716a28.9,28.9,0,0,0-4.37-4.285,28.342,28.342,0,0,0-5.37-3.3c-.47-.244-.97-.453-1.47-.653a14.723,14.723,0,0,0-1.52-.557,10.146,10.146,0,0,0-3.18-.662,8.707,8.707,0,0,0-3.22.435,5.81,5.81,0,0,0-1.43.679,3.392,3.392,0,0,0-1.06,1.01.917.917,0,0,0-.03,1.158,3.064,3.064,0,0,0,1.21.758,9.408,9.408,0,0,0,3.11.531c1.87-.017,3.71-2.291,6.33-1.568a17.341,17.341,0,0,1,3.22.958,18,18,0,0,1,2.89,1.55,32.2,32.2,0,0,1,4.89,3.946Zm.04.052c-1.79-1.263-3.41-2.517-5.26-3.588a17.907,17.907,0,0,0-5.95-2.265c-.25-.044-.57-.122-.75-.131a2.842,2.842,0,0,0-.7.078,10.936,10.936,0,0,0-1.47.514c-.49.209-.97.435-1.47.671a4.33,4.33,0,0,1-.85.322,4.72,4.72,0,0,1-.91.078,9.161,9.161,0,0,1-3.37-.671,3.264,3.264,0,0,1-1.4-.984,1.343,1.343,0,0,1-.19-.392,2.128,2.128,0,0,1-.03-.435,2.048,2.048,0,0,1,.32-.749,3.576,3.576,0,0,1,1.23-1.063,7.426,7.426,0,0,1,1.52-.662,10.722,10.722,0,0,1,3.33-.453,12.775,12.775,0,0,1,3.31.549,14.386,14.386,0,0,1,1.59.488,16.412,16.412,0,0,1,1.55.592,22.27,22.27,0,0,1,5.47,3.414,16.944,16.944,0,0,1,4.03,4.686Z" transform="translate(-110.36 -69.038)" fill="#1b141c"/>
            </g>
          </g>
        </g>
        <g id="svga-group-nose-single-move" transform="translate(41.551 61.909)">
          <g id="svga-group-nose-single">
            <path id="SvgjsPath8543" d="M97.717,113.66c.574.1,3.884-2.838,3.884-2.838s1.766,1.363,3.1,1.226a3.353,3.353,0,0,0,2.572-1.681c.48-.755-.763-2.658-1.526-3.781s-3.035-4.476-3.507-6.019c-.917-2.958-2.572-4.081-4.219-3.978a4.543,4.543,0,0,0-3.944,2.95c-.48,1.646-.617,3.67-1.543,4.939a46,46,0,0,0-3.052,4.047,2.94,2.94,0,0,0,1.063,3.052c1.483.832,3.687-.437,3.687-.437s2.727,2.384,3.481,2.521Z" transform="translate(-89.005 -89.609)" fill="#f0c7b1"/>
            <path id="SvgjsPath8544" d="M107.237,107.674a7.221,7.221,0,0,0-1.552-2.238,10.219,10.219,0,0,1,1.192,2.367,2.626,2.626,0,0,1,.137,1.218,1.257,1.257,0,0,1-.223.514,2.088,2.088,0,0,1-.4.463,2.787,2.787,0,0,1-2.3.669,5.012,5.012,0,0,1-1.252-.334,8.171,8.171,0,0,1-1.106-.532,12.558,12.558,0,0,0,.875-1.509c-.832.78-1.621,1.569-2.461,2.264a8.819,8.819,0,0,1-1.295.935,2.551,2.551,0,0,1-1.295.446.868.868,0,0,1-.266-.034,1.289,1.289,0,0,1-.257-.137c-.206-.129-.42-.309-.634-.472-.429-.334-.849-.7-1.278-1.055-.849-.72-1.706-1.449-2.632-2.126a18.692,18.692,0,0,0,1.44,1.921,6.766,6.766,0,0,1-1.312.446,2.646,2.646,0,0,1-1.578-.086,2.482,2.482,0,0,1-1.32-2.521,1.464,1.464,0,0,1,.257-.634c.146-.223.309-.454.48-.677.343-.446.7-.875,1.08-1.3l.566-.634a8.444,8.444,0,0,0,.574-.72,9.511,9.511,0,0,0,.917-1.569,7.106,7.106,0,0,0,.506-1.766c.1-.583.189-1.158.257-1.732.129-1.158.231-2.306.266-3.464a29.217,29.217,0,0,0-.437-6.919,58.9,58.9,0,0,1-.343,6.859c-.129,1.132-.249,2.272-.429,3.4-.086.566-.171,1.123-.274,1.681a5.917,5.917,0,0,1-.463,1.535,8.009,8.009,0,0,1-.806,1.415,5.385,5.385,0,0,1-.489.634c-.2.223-.386.437-.566.669-.369.454-.729.917-1.063,1.4-.171.24-.334.489-.489.755a2.346,2.346,0,0,0-.317.977,3.006,3.006,0,0,0,1.929,3.044,2.912,2.912,0,0,0,1.818-.094,5.632,5.632,0,0,0,1.278-.66c.206.24.4.489.609.72a16.185,16.185,0,0,0,1.209,1.218,5.915,5.915,0,0,0,.7.557,2.156,2.156,0,0,0,.489.257,1.864,1.864,0,0,0,.566.094,3.3,3.3,0,0,0,1.835-.652,7.621,7.621,0,0,0,1.329-1.175,11.82,11.82,0,0,0,1.037-1.312,4.978,4.978,0,0,0,2.3,1.243,3.32,3.32,0,0,0,1.423,0,2.946,2.946,0,0,0,1.278-.686,2.858,2.858,0,0,0,.463-.557,1.508,1.508,0,0,0,.274-.72,2.8,2.8,0,0,0-.249-1.372Z" transform="translate(-88.938 -88.45)" fill="#c27b55"/>
          </g>
        </g>
        <g id="svga-group-hair-front" transform="translate(9.019)">
          <path id="SvgjsPath7465" d="M58.02,71.24a12.213,12.213,0,0,1,2.59,3.33c.74,1.66,0,4.62.55,4.99s2.4-4.99,2.4-4.99l1.78-14.849,22.75-7.77s17.01.92,25.34.55L136,60.641l.06,14.109,2.4,4.62a52.727,52.727,0,0,1,1.11-5.92,21.127,21.127,0,0,1,2.03-2.59s1.48-13.5.74-17.38-5.55-13.69-14.24-20.16-35.69-5.55-40.5-5.18-15.17,3.51-15.17,3.51l.92,1.29-2.59,1.11-.37,1.48s-5.36,3.33-7.4,5.73-3.88,7.03-4.44,10.91-.53,19.07-.53,19.07Z" transform="translate(-57.949 -27.36)" fill="#2a232b"/>
          <path id="SvgjsPath7466" d="M58.07,71.22a12.535,12.535,0,0,1,2.4,2.86,6.754,6.754,0,0,1,.62,3.7c0,.31-.01.62,0,.93a3.116,3.116,0,0,0,.05.44.843.843,0,0,0,.1.26c-.06.02.12-.1.17-.22.08-.12.16-.25.23-.38.14-.27.27-.55.4-.83.49-1.14.91-2.31,1.31-3.49l-.01.06,1.57-15.628.01-.15.11-.11,23.33-7.78-.29-.14c4.21.23,8.43.4,12.65.56,4.22.14,8.44.26,12.65.14l-.16.06,22.83,8.26.05.04v.07l.22,14.878-.03-.1,2.42,4.61-.49.08c.22-1.54.45-3.08.75-4.62a10.426,10.426,0,0,1,.28-1.17,4.186,4.186,0,0,1,.65-1.08c.48-.63.98-1.23,1.5-1.82l-.08.17c.4-4.12.74-8.25.84-12.37a19.217,19.217,0,0,0-.5-6.04,30.24,30.24,0,0,0-2.5-5.58,43.056,43.056,0,0,0-7.42-9.75,27.863,27.863,0,0,0-4.72-3.86,22.144,22.144,0,0,0-5.58-2.32,72.763,72.763,0,0,0-12.16-2c-4.11-.36-8.24-.51-12.38-.52-2.07,0-4.13.02-6.2.1-1.03.04-2.06.09-3.08.16-1,.09-2.01.25-3.02.42-4.04.76-8.05,1.84-12.02,2.98l.22-.63.92,1.3.29.41-.46.19-2.6,1.09.22-.26-.38,1.48-.04.15-.13.08c-1.41.88-2.81,1.82-4.15,2.81A18.091,18.091,0,0,0,62.83,42a24.611,24.611,0,0,0-3.82,9.12,34.16,34.16,0,0,0-.51,4.98q-.135,2.52-.21,5.04c-.1,3.36-.17,6.76-.22,10.08Zm-.09.04c-.04-3.4-.04-6.74-.01-10.11.02-1.68.05-3.36.1-5.05a34.334,34.334,0,0,1,.45-5.05,27.58,27.58,0,0,1,1.43-4.88,20.62,20.62,0,0,1,2.39-4.52,18.766,18.766,0,0,1,3.72-3.52c1.35-1.03,2.74-1.99,4.17-2.9l-.17.23.36-1.48.04-.18.18-.08,2.58-1.13-.17.6-.93-1.29-.34-.47.55-.17c3.98-1.2,7.98-2.32,12.08-3.15,1.03-.19,2.06-.38,3.13-.47,1.05-.08,2.09-.13,3.12-.17,2.08-.08,4.16-.11,6.24-.11,4.16,0,8.32.14,12.47.5a69.2,69.2,0,0,1,12.35,2.04,23.563,23.563,0,0,1,5.84,2.47,28.954,28.954,0,0,1,4.87,4.01,43.809,43.809,0,0,1,7.53,10.01,30.343,30.343,0,0,1,2.51,5.78,11.748,11.748,0,0,1,.48,3.16c.02,1.05.02,2.09-.02,3.13-.16,4.16-.54,8.29-.99,12.42l-.01.1-.07.07c-.51.57-1.02,1.16-1.49,1.76a3.821,3.821,0,0,0-.57.9c-.11.34-.19.73-.27,1.1-.31,1.51-.55,3.05-.78,4.58l-.12.8-.37-.72-2.39-4.63-.03-.05v-.05l-.05-14.888.05.11-22.29-8.03-.07.05h-.09c-4.24.19-8.47.13-12.7.05s-8.45-.26-12.68-.46l-.17-.01-.12-.13-22.17,7.79.12-.25L63.8,74.58v.03l-.01.03c-.43,1.18-.88,2.35-1.41,3.49-.13.29-.27.57-.43.85a3.537,3.537,0,0,1-.26.41,1.508,1.508,0,0,1-.17.2.406.406,0,0,1-.36.13.613.613,0,0,1-.33-.52,2.774,2.774,0,0,1-.04-.49c-.01-.32.01-.63.02-.95a6.645,6.645,0,0,0-.51-3.6,12.542,12.542,0,0,0-2.32-2.9Z" transform="translate(-57.949 -27.36)" fill="#1b141c"/>
        </g>
      </g>
    </g>
  </g>
</svg>
