<svg id="reza" xmlns="http://www.w3.org/2000/svg" width="200" height="220" viewBox="0 0 200 220">
  <g id="svga-group-backs-single">
    <path id="SvgjsPath4565" d="M0,0H200V220H0Z" fill="#acc79d"/>
  </g>
  <g id="svga-group-humanwrap-move" transform="translate(6.6 27.037)">
    <g id="svga-group-humanwrap">
      <g id="svga-group-humanbody-back" transform="translate(9.1 65.063)">
        <path id="SvgjsPath3778" d="M180.8,184.9c-2.3-3.4-38.9-17.8-38.9-17.8l-13.4-5.2-5.6-68.8H76.8L71.3,162l-13.4,5.2S21.4,181.6,19,185c-2.3,3.4-3.3,14.9-3.3,14.9V219H184.2V199.8c-.1.1-1-11.5-3.4-14.9Z" transform="translate(-15.7 -93.1)" fill="#e1b49c"/>
      </g>
      <g id="svga-group-chinshadow-single" transform="translate(65.5 65.547)">
        <path id="SvgjsPath6403" d="M80.4,152.5c5,8,14,6.5,14,6.5s9,1.4,14-6.6c0,0,2.7,0,12.7-1.3a16.774,16.774,0,0,0,6.4-2.2L123,93.1H76.8l-4.7,58.7c6.5.7,8.3.7,8.3.7Z" transform="translate(-72.1 -93.1)" fill="#d19271"/>
      </g>
      <g id="svga-group-humanbody-front" transform="translate(8.2 64.163)">
        <path id="SvgjsPath3779" d="M184.5,219c-.1-6.4-.1-12.8-.1-19.2l-.3-.1a.138.138,0,0,1,.2,0,.1.1,0,0,1,.1.1v-.4l-.1-.5-.1-.9-.2-1.9c-.2-1.3-.4-2.5-.6-3.8a26.155,26.155,0,0,0-.9-3.8,16.135,16.135,0,0,0-1.5-3.6,11.929,11.929,0,0,0-2.9-2.1c-1-.6-2.1-1.1-3.2-1.7-2.1-1.1-4.3-2.1-6.5-3.1-4.4-2-8.7-3.9-13.1-5.7-4.4-1.9-8.8-3.7-13.2-5.5l-13-5.2-1.2-16.9c-.4-5.7-.9-11.5-1.3-17.2l-1.3-17.2L123.8,93l-.1-.8h-.8c-7.7,0-15.4.1-23.1.1l-23.1.2h-.5V93L75,110.2l-1.3,17.2c-.8,11.4-1.8,22.8-2.8,34.2-5.6,2.1-11.2,4.2-16.7,6.4q-8.4,3.3-16.8,6.9c-2.8,1.2-5.6,2.4-8.3,3.6a89.553,89.553,0,0,0-8.2,4.1,12.141,12.141,0,0,0-2,1.4,1.47,1.47,0,0,0-.5.6l-.3.6a5.359,5.359,0,0,0-.5,1.1,25.424,25.424,0,0,0-1.3,4.5,90.7,90.7,0,0,0-1.4,9.1L14.8,219v.9h.9l42.1.1H100c14,0,28.1-.1,42.1-.2l42.1-.5h.3V219ZM100,218l-42.1-.1-41.2.1-.1-18.1c.3-3,.6-5.9,1.2-8.9a28.755,28.755,0,0,1,1.1-4.2,7.93,7.93,0,0,1,.4-.9l.2-.4.3-.3a14.036,14.036,0,0,1,1.8-1.2c2.5-1.5,5.3-2.8,8-4.1s5.5-2.5,8.2-3.7c5.5-2.4,11.1-4.8,16.7-7.1s11.2-4.5,16.9-6.7l.2-.1v-.2c.9-11.5,1.7-23,2.7-34.4l1.4-17.2,1.5-16.7,22.6.2c7.4.1,14.8.1,22.3.1l1.3,16.4,1.5,17.2c.5,5.7,1,11.5,1.5,17.2l1.6,17.2v.3l.3.1,13.4,5c4.4,1.7,8.9,3.4,13.3,5.2s8.8,3.7,13.2,5.6c2.2,1,4.3,2,6.5,3,1.1.5,2.1,1.1,3.2,1.6a14.92,14.92,0,0,1,2.9,2,11.669,11.669,0,0,1,1.4,3.5c.3,1.2.6,2.5.8,3.7.2,1.3.4,2.5.6,3.8l.2,1.9.1.9.1.5v.4c0,6.3,0,12.6-.1,18.9l-41.8-.5c-14,.1-28.1,0-42.1,0Z" transform="translate(-14.8 -92.2)" fill="#c27b55"/>
        <path id="SvgjsPath3780" d="M125.1,142.4s-1.8,23-9.1,32.9C116,175.3,123.9,150.3,125.1,142.4Zm-34.5,16s5,7.9,11.5,10.1C102.1,168.5,92.6,170.7,90.6,158.4ZM73.4,140c6.7,25.6,6.7,25.6,8.5,30.7C81.9,170.7,82.3,158.1,73.4,140Z" transform="translate(-14.8 -92.2)" fill="#d19271"/>
      </g>
      <g id="svga-group-clothes-single" transform="translate(0 116.263)">
        <path id="SvgjsPath4421" d="M71.9,145.1l-6.2,2.5L65,161.7v20.2L79,220h42l10.7-34.3,3.4-25.5L133.4,146l-5.4-.8-.3,9.2s-26.2,22.2-26.6,22.7-29.2-22.8-29.2-22.8v-9.2Z" transform="translate(-6.6 -144.3)" fill="#eaeaea"/>
        <path id="SvgjsPath4422" d="M127.8,155.4l.8-.3,4.9-9-5.5-.9Zm-56.3-1.6h-.4l-5.2-6.1,6.3-2.6-.7,8.7Z" transform="translate(-6.6 -144.3)" fill="#c9c9c9"/>
        <path id="SvgjsPath4423" d="M44.6,168l1.1,1.7s-24.9,7.2-29,9c0,0-4.4-3.1-6,3.4S6.9,212.9,6.9,220h72a591.761,591.761,0,0,1-14.1-59.9Zm144.6,14.1c-1.6-6.5-6-3.4-6-3.4-4.1-1.9-29-9-29-9l1.1-1.7L135,160.2A578.225,578.225,0,0,1,121,220h72C193.1,212.8,190.8,188.6,189.2,182.1Z" transform="translate(-6.6 -144.3)" fill="#161e20"/>
        <path id="SvgjsPath4424" d="M89,180.6S93.9,193,95.4,196c0,0-2.8,17.1-2.9,23.8h18s-2.5-20-3.1-24.1c0,0,4.4-11,5.7-13.9,0,0-2.7-3.4-3.8-3.6s-8.7-.8-8.7-.8-7.3.9-8.7,1.4a8.913,8.913,0,0,0-2.9,1.8Z" transform="translate(-6.6 -144.3)" fill="#222"/>
        <path id="SvgjsPath4425" d="M106.9,196a26.906,26.906,0,0,1-5.2,2.1h-.5a19.416,19.416,0,0,1-5.3-1.8v-.2c.6.1,1.6.2,2.9.5,1.7.4,6.5-.4,8.1-.7m-5.5,17.2c1.2,1.5,3.4,2.7,3.1,1-.2-1.7-3.3-15.8-3.4-16C101,198.8,100.2,211.6,101.4,213.1Zm-2.8-17.3s-.1-8.9-.6-9.8-1.7-.1-2.1,1.8C95.4,189.8,98.2,195.4,98.6,195.8Zm-1.8,15.8c.5,2.7,1.9-.4,2.1-3.6s-1.1-10.6-1.1-10.6c-.2.5-1.5,11.4-1,14.2Zm7.4-27.7c-1-1.1-2.5,1.9-2.8,4a52.671,52.671,0,0,0-.2,7.8C101.1,195.7,105.1,185,104.2,183.9Zm3.2,6.8a1.182,1.182,0,0,0-1.5-1.7c-.9.5-1.7,5.3-2.1,7.2C103.8,196.2,106.8,192,107.4,190.7ZM105,209.1c.5,1,1.9,2.2,2.1,1.5s-2.7-12.5-2.7-12.5S104.5,208.1,105,209.1Z" transform="translate(-6.6 -144.3)"/>
        <path id="SvgjsPath4426" d="M192.7,208.3l-.9-11.6c-.3-3.9-.7-7.8-1.3-11.6-.2-1-.3-1.9-.5-2.9a9.123,9.123,0,0,0-1.1-3,4.03,4.03,0,0,0-2.9-2.1,5.462,5.462,0,0,0-1.8.1,6.118,6.118,0,0,0-1.2.5c-2.3-.9-4.6-1.6-6.8-2.4l-7.3-2.2c-4.6-1.4-9.1-2.7-13.7-3.9l.6-.9.5-.7-.8-.3c-3.5-1.3-7-2.5-10.4-3.8l-9.2-3.2a.756.756,0,0,1,.1-.4l-2.2-14.2-6-1.4s-.5,4.6-.5,9.7l-13.8,11c-2.2,1.9-4.5,3.8-6.7,5.8l-3.3,2.9-1.7,1.5-.8.8c-2.3-1.6-4.6-3.4-6.9-5.1L87,165.5,72.4,154.1l.1-9.8c-.5.5-6.2,2.5-6.8,3v.1l-.6,8.6-.3,4-10,3.5c-3.4,1.2-6.9,2.5-10.4,3.8l-.8.3.5.7.6.9c-4.6,1.2-9.2,2.5-13.7,3.9l-7.3,2.2c-2.3.8-4.5,1.4-6.9,2.4a5.36,5.36,0,0,0-1.1-.5,3.673,3.673,0,0,0-1.8-.1,4,4,0,0,0-2.8,2,9.123,9.123,0,0,0-1.1,3c-.2,1-.3,2-.5,2.9-.5,3.9-.9,7.8-1.3,11.6l-.9,11.6c-.3,3.9-.6,7.8-.7,11.7v.3h.3c6,0,12,.1,18,.2l18,.3L61,221h78l18-.1c6-.1,12-.1,18-.3,6-.1,12-.2,18-.2h.4V220c-.1-3.9-.4-7.8-.7-11.7Zm-88.1-33,3.4-2.9,6.8-5.7,13.6-11.5.2-.2-.4-9.6c1.8.4,3.6.8,5,1.1l1.1,13.6-1.1,8.5-1.4,6.4c-1.1,5-2.4,10-3.6,14.9-.7,2.9-1.5,5.9-2.3,8.8a24.424,24.424,0,0,0-1-2.4,19.988,19.988,0,0,0-1-2.1,13.242,13.242,0,0,0-1.2-2c-1.8-2.6-3.6-5-5.5-7.4-1-1.2-2-2.4-3-3.5a27.726,27.726,0,0,0-3.5-3.3,10.54,10.54,0,0,0-1.1-.7,6.89,6.89,0,0,0-.8-.3c-.3-.1-.4,0-.6-.1l-2.3-.3-2.5-.3,1.2-1ZM65.8,156.2l.2-8.5,5.7-2.1-.6,8.2,1.4,1.6h.1c4.5,3.8,9.1,7.6,13.7,11.3,2.3,1.9,4.6,3.7,6.9,5.6,1.8,1.4,3.5,2.8,5.4,4.2l-2.1.3a18.459,18.459,0,0,0-2.3.4l-1.2.2a1.083,1.083,0,0,1-.6.1,4.875,4.875,0,0,0-.7.3,17.081,17.081,0,0,0-3.8,3.1c-1.1,1.1-2.1,2.3-3.2,3.5-2,2.4-3.9,4.9-5.7,7.4-.9,1.3-1.8,2.6-2.6,3.9-.7,1.1-1.4,2.2-2,3.3-.8-2.9-1.5-5.9-2.3-8.8-1.2-5-2.5-9.9-3.6-14.9l-1.7-7.5-1-4.7a52.9,52.9,0,0,1,0-6.9ZM7.3,219.6c0-3.8.3-7.5.6-11.3.3-3.9.7-7.7,1.2-11.6s1-7.7,1.7-11.5c.4-1.9.7-3.9,1.6-5.3.5-.7,1-1.2,1.7-1.2a3.223,3.223,0,0,1,2.1.6l.4.3.4-.2c.6,1.4,1.1,2.7,1.6,4.1a23.889,23.889,0,0,1,1.3,5.1c.5,3.5.8,7,1.2,10.5l1.2,10.5.7,5.3.6,4.5c-5.3.1-10.8.2-16.3.2ZM61,219l-18,.1c-6,.1-12,.1-18,.3H23.9c-.1-3.3-.4-6.5-.6-9.8-.3-3.5-.6-7-1-10.6-.4-3.5-.8-7-1.5-10.5a35.758,35.758,0,0,0-3.5-9.1c2.2-.9,4.6-1.6,7-2.4l7.2-2.3L46,170.2h.1c.3.3.5.6.8.9a27.249,27.249,0,0,0,2.5,2.3c-1.2.6-2.5,1.2-3.7,1.9l-.7.3.3.7c1.6,3.7,3.3,7.4,5,11,1.7,3.7,3.5,7.3,5.2,10.9L60.9,209c1.7,3.3,3.4,6.5,5.2,9.7a29.106,29.106,0,0,1-5.1.3Zm5.3,0c-1.3-3.5-2.8-6.9-4.2-10.3-1.6-3.7-3.2-7.4-4.9-11.1s-3.4-7.3-5.1-11c-1.6-3.4-3.3-6.8-5-10.2,2.3-1.4,4.6-2.7,6.9-4.1l7.5-4.7c-1.4.6-2.7,1.2-4,1.8l-4,1.9c-1.3.7-2.7,1.4-4,2a28.318,28.318,0,0,0-2-2.8c-.5-.7-1.1-1.3-1.6-2l-.3-.4c3-1.2,6.1-2.5,9.1-3.8l10-4.2a28.111,28.111,0,0,0,.7,3.7l.3,1.8.3,1.9c.4,2.5.8,5.1,1.3,7.6,1,5,1.9,10.1,3.1,15.1q3.15,14.4,7.2,28.5C73.8,218.9,70.1,219,66.3,219Zm13.6.2c-1.4-4.7-2.7-9.5-4-14.3-.5-2-1.1-3.9-1.6-5.9,1.7-2.3,3.5-4.5,5.3-6.7,2-2.4,4-4.7,6.1-7,1-1.1,2.1-2.2,3.2-3.3l.1-.1c1.2,3.1,4.6,11.4,5.9,14.1-.3,1.7-2.7,16.8-2.9,23.3Zm13.1.1c.2-6.6,2.7-21.7,2.9-23.2V196l-.1-.1c-1.2-2.5-4.9-11.7-6-14.5a13.016,13.016,0,0,1,2.5-1.8.6.6,0,0,1,.4-.1,4.331,4.331,0,0,1,.5-.1l1.1-.2c.8-.1,1.5-.2,2.3-.3,1.5-.2,3-.3,4.5-.5l4.5.5,2.3.2a.749.749,0,0,1,.5.1.367.367,0,0,1,.3.1,3.509,3.509,0,0,1,.8.5,21.8,21.8,0,0,1,2.8,2.5c-1.5,3.5-5.4,13.3-5.5,13.4v.2c.6,4,2.7,20.3,3.1,23.5L93,219.3Zm18,.3c-.2-1.5-2.5-19.7-3.1-23.9.4-1.1,3.8-9.4,5.2-12.9,1,1,1.9,2,2.8,3,2,2.3,4,4.6,5.9,7a21.965,21.965,0,0,1,1.4,1.8,12.81,12.81,0,0,1,1.1,2l1.3,2.5-1.5,5.7c-1.3,4.9-2.7,9.9-4.2,14.8-2.9.1-5.9.1-8.9,0Zm11.4-.7q4.05-14.1,7.2-28.5c1.1-5,2.1-10.1,3.1-15.1.4-2,.7-4.1,1.1-6.1a42.677,42.677,0,0,0,2.2-8.7l9.3,3.9c3.1,1.3,6.1,2.5,9.1,3.8l-.3.4a15.583,15.583,0,0,0-1.6,2,27.5,27.5,0,0,0-1.9,2.8c-1.3-.7-2.7-1.4-4-2l-4-1.9c-1.3-.6-2.7-1.3-4-1.8l7.5,4.7c2.3,1.4,4.6,2.8,6.9,4.1-1.7,3.4-3.4,6.8-5,10.2-1.8,3.6-3.4,7.3-5.1,11s-3.3,7.4-4.9,11.1c-1.5,3.4-2.9,6.8-4.2,10.3-3.9-.1-7.6-.2-11.4-.2Zm52.6.5-18-.3-18-.1h-5.2c1.8-3.2,3.5-6.5,5.2-9.7q2.85-5.4,5.4-10.8c1.8-3.6,3.5-7.3,5.2-10.9,1.7-3.7,3.4-7.3,5-11l.3-.7-.7-.3c-1.2-.6-2.5-1.3-3.7-1.9a27.25,27.25,0,0,0,2.5-2.3c.3-.3.5-.6.8-.9h.1l14.5,4.5,7.2,2.3c2.4.8,4.8,1.5,7,2.4a29.625,29.625,0,0,0-3.5,9.1c-.7,3.5-1.1,7-1.5,10.5s-.8,7-1,10.6c-.2,3.3-.5,6.5-.6,9.8-.2-.3-.6-.3-1-.3Zm1.2,0,.6-4.5.7-5.3c.5-3.5.8-7,1.2-10.5l1.2-10.5a23.889,23.889,0,0,1,1.3-5.1c.5-1.4,1-2.8,1.6-4.1l.4.2.4-.3a3.391,3.391,0,0,1,2.1-.6,2.3,2.3,0,0,1,1.7,1.2c.9,1.4,1.2,3.4,1.6,5.3.7,3.8,1.2,7.6,1.7,11.5.5,3.8.9,7.7,1.2,11.6.3,3.8.6,7.5.6,11.3-5.3,0-10.8-.1-16.3-.2Z" transform="translate(-6.6 -144.3)" fill="#010101"/>
        <path id="SvgjsPath4427" d="M111,174.5c3.5.2,9.7,9.1,9.7,9.1s8.9-15.3,9.7-19c.8-3.6,2-14.2,2-14.2s-3,9.7-3.8,11.1-17.6,13-17.6,13Zm-33.5,15c2-3.5,8.4-11.7,9.9-12.5s7.6-1.6,7.6-1.6L80,164.5s2.1,8.2,2.1,10.1S77.5,189.5,77.5,189.5Z" transform="translate(-6.6 -144.3)" fill="#fff"/>
        <path id="SvgjsPath4428" d="M184.7,180.9c2.3.8,3.3,6.6,4.1,9.7s2.3,25.1,2.3,25.1-3.1-25.1-4.6-28.7A25.524,25.524,0,0,1,184.7,180.9ZM155,172c1.5-.2,21.9,5.8,25.7,8.2,0,0-10.6-2.3-15.3-3.6A51.422,51.422,0,0,1,155,172Zm-16.3-2.6c1,.5,13,7.8,13,7.8s-11.7,24.1-12.9,27.1-5.4,11.7-5.4,11.7,6.1-16.8,7.8-22.6c1.6-5.8,6.1-15.7,6.1-15.7l-8.6-8.3Zm-74.2-2.8c.5,5.3,7.8,40.6,10.9,47.8,0,0-6.6-15.3-9.7-29.5-3.2-14.2-1.2-18.3-1.2-18.3Z" transform="translate(-6.6 -144.3)" fill="#252d2f"/>
      </g>
      <g id="svga-group-head" transform="translate(45.766)">
        <g id="svga-group-ears-left-move" transform="translate(0 48.664)">
          <g id="svga-group-ears-left">
            <path id="SvgjsPath6730" d="M64.99,79.961a45.215,45.215,0,0,0-4.285-6.849c-1.833-2.081-6.479-5.5-7.581-5.263S47.13,81.187,46.645,83.144s5.871,8.2,6.479,9.3.494,3.79.37,4.522,4.893,2.688,7.458,2.08S70.5,89.984,64.99,79.961Z" transform="translate(-46.484 -67.467)" fill="#e1b49c"/>
            <path id="SvgjsPath6731" d="M64.628,86.07S59,78.365,55.214,75.791s-5.387,7.343-5.139,8.322,4.408,5.994,5.995,6.726,6.963-.608,8.559-4.769Z" transform="translate(-46.484 -67.467)" fill="#e1ac8f"/>
            <path id="SvgjsPath6732" d="M46.635,82.669a3.123,3.123,0,0,0-.152.636,1.95,1.95,0,0,0,.1.665,9.679,9.679,0,0,0,1.2,2.232c.465.694.978,1.359,1.5,2.014,1.035,1.311,2.138,2.574,3.173,3.847a5.73,5.73,0,0,1,.342.465,2.332,2.332,0,0,1,.2.494,5.68,5.68,0,0,1,.181,1.159,13.759,13.759,0,0,1-.038,2.423L53.1,96.9a.721.721,0,0,0,.228.6,2.882,2.882,0,0,0,.579.447,7.949,7.949,0,0,0,1.178.579,14.889,14.889,0,0,0,2.442.779,9.714,9.714,0,0,0,2.584.276,3.523,3.523,0,0,0,1.358-.285,2.861,2.861,0,0,0,.608-.333,3.791,3.791,0,0,0,.542-.4,13.669,13.669,0,0,0,4.541-8.949,17.407,17.407,0,0,0,.067-2.536,15.635,15.635,0,0,0-.409-2.489,18.692,18.692,0,0,0-1.805-4.664c-.751-1.492-1.568-2.936-2.413-4.37-.427-.722-.874-1.425-1.368-2.109a14.466,14.466,0,0,0-1.7-1.871,26.731,26.731,0,0,0-3.961-3.116,9.232,9.232,0,0,0-1.121-.637c-.19-.095-.409-.171-.618-.256a1.608,1.608,0,0,0-.826-.066c-.437.218-.456.4-.618.589-.124.19-.237.37-.342.561-.209.37-.4.75-.579,1.131-1.387,3.059-2.46,6.213-3.61,9.339l-.826,2.356-.4,1.2Zm.124.656a3.738,3.738,0,0,1,.133-.57l.38-1.187c.266-.789.56-1.568.855-2.347.58-1.558,1.216-3.1,1.872-4.617s1.34-3.04,2.08-4.513q.271-.556.57-1.083c.1-.171.209-.342.313-.5.057-.085.114-.143.161-.219a.481.481,0,0,1,.086-.076.776.776,0,0,1,.133.01,2.38,2.38,0,0,1,.247.066,4.976,4.976,0,0,1,.532.228c.351.171.712.37,1.064.57a34.681,34.681,0,0,1,3.99,2.9,14.245,14.245,0,0,1,1.757,1.71c.523.627,1.007,1.311,1.473,2,.922,1.377,1.739,2.831,2.527,4.294A14.791,14.791,0,0,1,66.6,89.547a15.407,15.407,0,0,1-1.568,4.6,12.51,12.51,0,0,1-2.964,3.762,3.075,3.075,0,0,1-.465.342,2.451,2.451,0,0,1-.485.266,2.533,2.533,0,0,1-1.064.209,10.117,10.117,0,0,1-2.366-.247,15.127,15.127,0,0,1-2.318-.694,9.28,9.28,0,0,1-1.074-.5,2.839,2.839,0,0,1-.418-.295l-.028-.029.028-.247a14.453,14.453,0,0,0-.009-2.565,7.03,7.03,0,0,0-.247-1.292,2.847,2.847,0,0,0-.294-.655,4.751,4.751,0,0,0-.409-.522c-1.1-1.283-2.251-2.461-3.334-3.724-.542-.627-1.064-1.264-1.558-1.929A8.162,8.162,0,0,1,46.816,83.9a4.417,4.417,0,0,1-.057-.579Z" transform="translate(-46.484 -67.467)" fill="#e1ac8f"/>
            <path id="SvgjsPath6733" d="M51.775,77.91a4.721,4.721,0,0,1,1.3-1.8,1.094,1.094,0,0,1,1.149-.152,2.358,2.358,0,0,1,.826.789,24.657,24.657,0,0,1,2.261,3.743,49.576,49.576,0,0,1,3.049,8.132l-.076.028c-1.282-2.6-2.432-5.235-3.638-7.838a35.29,35.29,0,0,0-1.881-3.857,1.948,1.948,0,0,0-.665-.741.84.84,0,0,0-.883.1,4.424,4.424,0,0,0-1.15,1.719,13.588,13.588,0,0,0-.893,4.132,4.408,4.408,0,0,0,.038,1.007,1.505,1.505,0,0,0,.1.409c.085.152.152.3.247.446a18.884,18.884,0,0,0,1.188,1.748c.428.57.855,1.14,1.311,1.691l.674.827c.057.066.114.123.171.19a14.14,14.14,0,0,0,.456-1.691l.409-2.023c-.57-.893-1.13-1.8-1.662-2.717l.066-.048q1.069,1.268,2.08,2.565l.057.066-.009.114q-.086,1.088-.257,2.166a10.67,10.67,0,0,1-.5,2.214,1.107,1.107,0,0,1-.114.19.488.488,0,0,1-.124.123.577.577,0,0,1-.1.066.474.474,0,0,1-.2.048.554.554,0,0,1-.333-.1l-.066-.057a.731.731,0,0,1-.124-.114c-.143-.143-.266-.275-.389-.409-.247-.275-.485-.551-.722-.836-.456-.57-.912-1.14-1.32-1.748a20.751,20.751,0,0,1-1.178-1.872c-.095-.161-.171-.342-.257-.513a2.463,2.463,0,0,1-.152-.636,5.76,5.76,0,0,1,.028-1.149,13.481,13.481,0,0,1,1.273-4.218Z" transform="translate(-46.484 -67.467)" fill="#c27b55"/>
          </g>
        </g>
        <g id="svga-group-ears-right-move" transform="translate(74.507 48.674)">
          <g id="svga-group-ears-right">
            <path id="SvgjsPath6734" d="M125.01,79.961a45.215,45.215,0,0,1,4.284-6.849c1.833-2.081,6.479-5.5,7.581-5.263s5.994,13.338,6.479,15.295-5.871,8.2-6.479,9.3-.494,3.79-.37,4.522-4.893,2.688-7.458,2.08-9.547-9.063-4.037-19.086Z" transform="translate(-122.755 -67.477)" fill="#e1b49c"/>
            <path id="SvgjsPath6735" d="M125.371,86.07s5.624-7.7,9.414-10.279,5.387,7.343,5.14,8.322-4.408,5.994-5.994,6.726-6.964-.608-8.56-4.769Z" transform="translate(-122.755 -67.477)" fill="#e1ac8f"/>
            <path id="SvgjsPath6736" d="M142.965,81.481l-.826-2.356c-1.159-3.126-2.223-6.28-3.61-9.339-.181-.38-.37-.76-.579-1.131a5.909,5.909,0,0,0-.342-.56c-.161-.19-.18-.37-.617-.589a1.608,1.608,0,0,0-.826.066,4.008,4.008,0,0,0-.617.257,9.231,9.231,0,0,0-1.121.636,26.866,26.866,0,0,0-3.962,3.116,14.467,14.467,0,0,0-1.7,1.872,23.523,23.523,0,0,0-1.368,2.109c-.846,1.435-1.672,2.888-2.413,4.37a18.551,18.551,0,0,0-1.8,4.665,16.789,16.789,0,0,0-.408,2.489,17.406,17.406,0,0,0,.067,2.536,13.585,13.585,0,0,0,4.541,8.949,3.323,3.323,0,0,0,.542.4,2.861,2.861,0,0,0,.608.332,3.389,3.389,0,0,0,1.359.285,9.714,9.714,0,0,0,2.584-.275,14.6,14.6,0,0,0,2.441-.779,10.392,10.392,0,0,0,1.178-.58,2.881,2.881,0,0,0,.579-.447.737.737,0,0,0,.228-.6l-.038-.294a14.739,14.739,0,0,1-.038-2.423,6.421,6.421,0,0,1,.18-1.159,2.332,2.332,0,0,1,.2-.494c.1-.143.218-.314.342-.465,1.045-1.273,2.147-2.536,3.173-3.848.523-.656,1.026-1.32,1.5-2.014a9.515,9.515,0,0,0,1.2-2.232,2.167,2.167,0,0,0,.1-.665,2.978,2.978,0,0,0-.152-.636l-.4-1.2Zm.181,2.4A8.163,8.163,0,0,1,141.93,86c-.484.665-1.017,1.3-1.558,1.929-1.083,1.263-2.242,2.441-3.335,3.724a6.262,6.262,0,0,0-.408.522,3.319,3.319,0,0,0-.294.656,7.031,7.031,0,0,0-.247,1.292,13.607,13.607,0,0,0-.009,2.565l.029.247c-.01.01-.01.019-.029.029a1.891,1.891,0,0,1-.418.294,7.428,7.428,0,0,1-1.074.5,15.128,15.128,0,0,1-2.318.694,10.065,10.065,0,0,1-2.366.247,2.69,2.69,0,0,1-1.064-.209,2.045,2.045,0,0,1-.484-.266,2.54,2.54,0,0,1-.465-.342,12.51,12.51,0,0,1-2.964-3.762,15.317,15.317,0,0,1-1.567-4.6,14.731,14.731,0,0,1,1.672-9.567c.789-1.463,1.606-2.916,2.527-4.294.465-.684.95-1.359,1.473-2a14.245,14.245,0,0,1,1.758-1.71,34.682,34.682,0,0,1,3.99-2.9,10.485,10.485,0,0,1,1.064-.57,4.268,4.268,0,0,1,.532-.228c.085-.028.161-.038.247-.066a.835.835,0,0,1,.133-.01c.01.01.057.048.086.076a1.856,1.856,0,0,1,.161.219c.114.152.209.332.314.5q.3.527.57,1.083c.741,1.473,1.425,2.993,2.081,4.513s1.292,3.059,1.872,4.617c.294.779.589,1.558.855,2.347l.38,1.188a2.871,2.871,0,0,1,.133.57,1.1,1.1,0,0,1-.057.579Z" transform="translate(-122.755 -67.477)" fill="#e1ac8f"/>
            <path id="SvgjsPath6737" d="M138.225,77.91a4.721,4.721,0,0,0-1.3-1.8,1.094,1.094,0,0,0-1.15-.152,2.358,2.358,0,0,0-.827.789,24.659,24.659,0,0,0-2.261,3.743,49.579,49.579,0,0,0-3.049,8.132l.076.028c1.283-2.6,2.432-5.235,3.638-7.838a35.291,35.291,0,0,1,1.881-3.857,1.948,1.948,0,0,1,.665-.741.84.84,0,0,1,.883.1,4.424,4.424,0,0,1,1.15,1.719,13.587,13.587,0,0,1,.893,4.132,5.024,5.024,0,0,1-.038,1.007,1.505,1.505,0,0,1-.1.409c-.085.152-.152.3-.247.446a18.887,18.887,0,0,1-1.187,1.748c-.428.57-.855,1.14-1.311,1.691l-.675.827c-.057.066-.114.123-.171.19a14.139,14.139,0,0,1-.456-1.691l-.408-2.023c.57-.893,1.13-1.8,1.662-2.717l-.066-.048q-1.069,1.268-2.081,2.565l-.057.066.009.114q.085,1.083.257,2.166a10.67,10.67,0,0,0,.5,2.214,1.107,1.107,0,0,0,.114.19.488.488,0,0,0,.124.123.577.577,0,0,0,.1.066.474.474,0,0,0,.2.048.554.554,0,0,0,.333-.1l.067-.057a.73.73,0,0,0,.124-.114c.143-.143.266-.275.39-.409.247-.275.484-.551.722-.836.456-.57.912-1.14,1.32-1.748a20.75,20.75,0,0,0,1.178-1.872c.1-.161.171-.342.257-.513a2.463,2.463,0,0,0,.152-.636,5.761,5.761,0,0,0-.029-1.149,13.481,13.481,0,0,0-1.273-4.218Z" transform="translate(-122.755 -67.477)" fill="#c27b55"/>
          </g>
        </g>
        <g id="svga-group-faceshape-wrap" transform="translate(8.329 1.998)">
          <g id="svga-group-faceshape-single">
            <path id="SvgjsPath6391" d="M134.688,121.942c-.556-7.785-3.523-23.354-3.708-29.275s.464-19.3.464-19.3l.278-3.509s.742-8-.093-12.609c-2.04-10.964-5.655-17.324-13.906-22.586-8.622-5.482-23.177-5.372-23.177-5.372s-14.648-.219-23.27,5.263C63.209,39.93,59.408,46.179,57.369,57.143c-.834,4.386.093,15.131.093,15.131s1.113,15.021.927,20.942-1.483,21.051-2.04,28.946c-.556,7.785,1.205,26.534,13.906,28.507,9.364,1.425,11.681,1.535,11.681,1.535,4.635,8.771,12.7,7.017,12.7,7.017s8.158,1.535,12.794-7.236c0,0,2.689.329,11.959-1.1,12.886-1.974,15.946-21.161,15.3-28.946Z" transform="translate(-55.448 -29.016)" fill="#e1b49c"/>
            <path id="SvgjsPath6392" d="M134.694,121.894c-.464-6.135-1.484-12.161-2.319-18.186-.464-3.068-.835-6.025-1.113-9.093-.186-3.068-.093-6.135,0-9.2s.278-6.135.464-9.2c.093-3.068.464-6.025.649-9.2a44.815,44.815,0,0,0-.185-9.312,50.783,50.783,0,0,0-2.319-8.983,26.012,26.012,0,0,0-4.359-7.888,27.521,27.521,0,0,0-6.307-5.7,23.725,23.725,0,0,0-3.524-2.082c-1.206-.548-2.5-1.1-3.71-1.534a37.563,37.563,0,0,0-7.7-1.753,61.881,61.881,0,0,0-15.582-.438A46.149,46.149,0,0,0,73.48,33.155a23.725,23.725,0,0,0-3.524,2.082,25.481,25.481,0,0,0-3.246,2.629,25.044,25.044,0,0,0-5.379,6.683,37.138,37.138,0,0,0-3.339,8.326c-.371,1.424-.742,2.958-1.02,4.492a38.451,38.451,0,0,0-.371,4.6c-.093,6.245.556,12.27.835,18.405.186,3.068.278,6.135.371,9.2a74.543,74.543,0,0,1-.371,9.093l-1.484,18.3-.371,4.6a39.935,39.935,0,0,0-.093,4.711,53.16,53.16,0,0,0,1.113,9.312,33.715,33.715,0,0,0,3.246,8.655,14.94,14.94,0,0,0,6.307,6.025,13.31,13.31,0,0,0,3.9,1.205l3.9.548,7.42.986a14.636,14.636,0,0,0,2.319,3.177,10.988,10.988,0,0,0,3.246,2.52,11.712,11.712,0,0,0,3.71,1.315,11.082,11.082,0,0,0,3.8,0,14.624,14.624,0,0,0,3.8-.11,9.218,9.218,0,0,0,3.71-1.424,11.376,11.376,0,0,0,3.246-2.629,15.314,15.314,0,0,0,2.319-3.287c1.762,0,3.524-.219,5.194-.329,1.855-.219,3.617-.438,5.472-.767a17.178,17.178,0,0,0,5.379-1.753,13.666,13.666,0,0,0,1.206-.767c.371-.329.835-.548,1.206-.876a10.535,10.535,0,0,0,2.04-2.191A28.378,28.378,0,0,0,133.3,134.6a36.161,36.161,0,0,0,1.113-6.354,23.937,23.937,0,0,0,.278-6.354Zm-.278,6.464a35.087,35.087,0,0,1-1.206,6.245,39.281,39.281,0,0,1-2.133,5.916,21.9,21.9,0,0,1-3.246,5.04,13.579,13.579,0,0,1-2.04,2.082c-.371.329-.742.548-1.113.876a13.652,13.652,0,0,1-1.206.767,14.443,14.443,0,0,1-5.194,1.534c-1.762.219-3.617.438-5.379.657a44.174,44.174,0,0,1-5.379.219h-.278l-.186.329a15.059,15.059,0,0,1-2.319,3.177,10.3,10.3,0,0,1-2.968,2.3,13,13,0,0,1-3.432,1.205,12.783,12.783,0,0,1-3.524.11h-.185a9.6,9.6,0,0,1-3.524-.11,12.4,12.4,0,0,1-3.339-1.205,9.947,9.947,0,0,1-2.875-2.3,18.115,18.115,0,0,1-2.226-3.177l-.185-.329-.371-.11-7.7-1.1-3.9-.548a13.364,13.364,0,0,1-3.524-1.1,14.409,14.409,0,0,1-5.658-5.478,29.1,29.1,0,0,1-3.153-8,47.227,47.227,0,0,1-1.113-8.874c0-1.534,0-2.958.093-4.492l.371-4.6c.464-6.135.927-12.27,1.3-18.405,1.02-12.38-1.206-24.65-1.3-36.81a23.778,23.778,0,0,1,.278-4.492c.278-1.424.556-2.958.927-4.382A30.724,30.724,0,0,1,61.979,45.1,28.614,28.614,0,0,1,73.944,33.922a37.013,37.013,0,0,1,7.42-2.41,45.179,45.179,0,0,1,7.7-1.1,61.089,61.089,0,0,1,15.489.767,35.33,35.33,0,0,1,14.562,5.478,25.916,25.916,0,0,1,5.936,5.587,26.484,26.484,0,0,1,4.081,7.45,53.118,53.118,0,0,1,2.319,8.655,48.514,48.514,0,0,1,.278,8.983c-.093,2.958-.371,6.135-.464,9.2s-.186,6.135-.186,9.2-.093,6.135.186,9.2.835,6.025,1.206,9.093c.835,6.025,1.948,12.051,2.5,18.186-.185,1.862-.371,4.054-.557,6.135Z" transform="translate(-55.448 -29.016)" fill="#c27b55"/>
            <path id="SvgjsPath6393" d="M94.272,142.871s.768-3.7,3.936-4.6C101.376,137.273,94.272,142.871,94.272,142.871Z" transform="translate(-56.843 -17.554)" fill="#d19271"/>
          </g>
        </g>
        <g id="svga-group-mouth-single-move" transform="translate(32.925 98.114)">
          <g id="svga-group-mouth-single">
            <path id="SvgjsPath6564" d="M88.64,129.04s3.92,4.45,11.7,5.26,12.4-6.49,12.4-6.49a13.23,13.23,0,0,1-11.7,7.67C92.29,135.8,88.96,129.63,88.64,129.04Z" transform="translate(-85.276 -122.29)" fill="#d19271"/>
            <path id="SvgjsPath6565" d="M86.4,124.2a8.663,8.663,0,0,0,4.5-.743c1.8-1.04,3.884-3.546,6-3.388a14.36,14.36,0,0,1,3.771.808,7.086,7.086,0,0,1,3.973-.808c1.885.337,3.154,3.313,5.554,3.982a23.148,23.148,0,0,0,4.1.817,10.5,10.5,0,0,1-6.1.52c-3.4-.594-5.6-1.411-7.2-1.337-1.5.074-5.2,1.262-8.5,1.04C89.3,124.942,87.6,124.719,86.4,124.2Z" transform="translate(-85.276 -120.007)" fill="#da7c87"/>
            <path id="SvgjsPath6566" d="M115.6,126.5c-1.3.1-2.4.7-3.8.8a11.985,11.985,0,0,1-3.8-.3c-2.4-.5-4.6-1.5-7-1.4-2.5,0-4.8.9-7.3,1.1a19.669,19.669,0,0,1-8-1.1c-.3-.1-.6.4-.3.5a17.862,17.862,0,0,0,7.3,1.8c2.9.1,5.5-.9,8.3-1s5.4,1,8.2,1.3c2.1.2,5,.1,6.6-1.1.2-.3.1-.7-.2-.6Z" transform="translate(-85.276 -122.29)" fill="#cb5f6c"/>
          </g>
        </g>
        <g id="svga-group-eyes-left-move" transform="matrix(0.996, 0.087, -0.087, 0.996, 16.266, 52.23)">
          <g id="svga-group-eyes-left">
            <g id="svga-group-eyesback-left" transform="translate(0.574 0.478)">
              <path id="SvgjsPath7179" d="M12.911,0A12.639,12.639,0,0,1,25.823,12.432,12.639,12.639,0,0,1,12.911,24.865,12.639,12.639,0,0,1,0,12.432,12.639,12.639,0,0,1,12.911,0Z" transform="translate(0 0)" fill="#fff"/>
            </g>
            <g id="svga-group-eyesiriswrapper-left" transform="translate(8.129 7.555)">
              <g id="svga-group-eyesiriscontrol-left">
                <g id="svga-group-eyesiris-left">
                  <path id="SvgjsPath6947" d="M5.356,0A5.356,5.356,0,1,1,0,5.356,5.347,5.347,0,0,1,5.356,0Z" fill="#352613"/>
                  <path id="SvgjsPath6948" d="M2.869,0A2.818,2.818,0,0,1,5.738,2.869,2.818,2.818,0,0,1,2.869,5.738,2.818,2.818,0,0,1,0,2.869,2.818,2.818,0,0,1,2.869,0Z" transform="translate(2.487 2.487)"/>
                  <path id="SvgjsPath6949" d="M2.391.861,1.817.287A1.086,1.086,0,0,0,1.052,0,1.086,1.086,0,0,0,.287.287,1.086,1.086,0,0,0,0,1.052a1.086,1.086,0,0,0,.287.765l.574.574a1.033,1.033,0,0,0,.669.287A.745.745,0,0,0,2.2,2.391c.574-.574.574-1.148.191-1.53ZM4.973,5.738a.717.717,0,0,0,0-1.435A.721.721,0,0,0,4.973,5.738Z" transform="translate(2.295 2.2)" fill="#fff"/>
                </g>
              </g>
            </g>
            <g id="svga-group-eyesfront-left" transform="translate(0 0)">
              <path id="SvgjsPath7187" d="M13.485,0A13.251,13.251,0,0,0,0,13.006,13.251,13.251,0,0,0,13.485,26.012,13.251,13.251,0,0,0,26.971,13.006,13.251,13.251,0,0,0,13.485,0Zm8.99,11c-.191.287-1.339,4.112-3.443,5.929s-10.9,3.73-13.39,2.965S2.965,13.676,2.3,12.146C2.3,12.146,23.623,8.894,22.475,11Z" fill="#e1b49c"/>
              <path id="SvgjsPath7188" d="M8.129,8.7A73.844,73.844,0,0,1,0,9.086s8.608,2.1,13.964-1.913C15.111,6.312,16.259,0,16.259,0S15.016,4.973,13.39,6.79C12.529,8.034,9.755,8.608,8.129,8.7Z" transform="translate(6.695 13.292)" fill="#d19271"/>
              <path id="SvgjsPath7189" d="M6.312,13.216a22.193,22.193,0,0,0,3.634-.478,25.013,25.013,0,0,0,3.634-.861L15.3,11.3a7.242,7.242,0,0,0,1.722-.861A5.925,5.925,0,0,0,18.363,9.1a9.082,9.082,0,0,0,.956-1.626,21.777,21.777,0,0,0,1.435-3.443.179.179,0,0,0,0-.287c-.1-.1-.1-.1-.191-.1h.191l2.774-2.2S20.371.3,19.032.018C17.789-.269,6.025,2.983,4.973,3.174A35.162,35.162,0,0,0,0,5.565a2.676,2.676,0,0,0,.574-.1c.191.478.287,1.052.478,1.626.1.574.287,1.243.383,1.817a7.883,7.883,0,0,0,.574,1.817,5.316,5.316,0,0,0,.861,1.626,2.3,2.3,0,0,0,.765.574,3.04,3.04,0,0,0,.861.287H6.312Zm-2.678-.478a1.947,1.947,0,0,1-.669-.574A7.288,7.288,0,0,1,1.626,8.817,12.3,12.3,0,0,0,1.243,7,10,10,0,0,0,.861,5.374c3.347-.383,15.207-1.722,16.163-1.722.861-.1,2.774,0,3.539,0,.1,0,.191.1.287.191a.179.179,0,0,1,0,.287,21.168,21.168,0,0,1-1.53,3.347,8.667,8.667,0,0,1-1.052,1.53,8.259,8.259,0,0,1-1.339,1.243,11.161,11.161,0,0,1-3.347,1.339c-1.148.383-2.391.669-3.539.956a23.917,23.917,0,0,1-3.634.574,11.527,11.527,0,0,1-1.817,0A9.919,9.919,0,0,1,3.634,12.738Z" transform="translate(1.626 6.867)"/>
            </g>
          </g>
        </g>
        <g id="svga-group-eyes-right-move" transform="matrix(0.998, -0.07, 0.07, 0.998, 51.998, 53.423)">
          <g id="svga-group-eyes-right" transform="translate(0)">
            <g id="svga-group-eyesback-right" transform="translate(0.6 0.5)">
              <path id="SvgjsPath7180" d="M13.5,0A13.216,13.216,0,0,1,27,13,13.216,13.216,0,0,1,13.5,26,13.216,13.216,0,0,1,0,13,13.216,13.216,0,0,1,13.5,0Z" transform="translate(0)" fill="#fff"/>
            </g>
            <g id="svga-group-eyesiriswrapper-right" transform="translate(9.2 8.599)">
              <g id="svga-group-eyesiriscontrol-right">
                <g id="svga-group-eyesiris-right">
                  <path id="SvgjsPath6950" d="M4.9,0A4.9,4.9,0,1,1,0,4.9,4.908,4.908,0,0,1,4.9,0Z" fill="#352613"/>
                  <path id="SvgjsPath6951" d="M2.6,0A2.647,2.647,0,0,1,5.2,2.6,2.647,2.647,0,0,1,2.6,5.2,2.647,2.647,0,0,1,0,2.6,2.647,2.647,0,0,1,2.6,0Z" transform="translate(2.3 2.3)"/>
                  <path id="SvgjsPath6952" d="M2.2.8C2,.6,1.9.4,1.7.3A.908.908,0,0,0,1,0,1.08,1.08,0,0,0,.3.3.908.908,0,0,0,0,1a1.08,1.08,0,0,0,.3.7c.2.2.4.3.5.5a.908.908,0,0,0,.7.3,1.08,1.08,0,0,0,.7-.3A1.191,1.191,0,0,0,2.2.8ZM4.6,5.3A.65.65,0,0,0,4.6,4C3.8,3.9,3.8,5.3,4.6,5.3Z" transform="translate(2.1 2)" fill="#fff"/>
                </g>
              </g>
            </g>
            <g id="svga-group-eyesfront-right" transform="translate(0)">
              <path id="SvgjsPath7190" d="M14.1,0A13.856,13.856,0,0,0,0,13.6,13.856,13.856,0,0,0,14.1,27.2,13.856,13.856,0,0,0,28.2,13.6,13.856,13.856,0,0,0,14.1,0Zm9.8,18.7c-2.6.7-12.7.7-14.9-1s-3.5-5.2-3.6-5.4c-1.2-1.9,21.1,1.1,21.1,1.1C25.8,14.8,26.5,18.1,23.9,18.7Z" fill="#e1b49c"/>
              <path id="SvgjsPath7193" d="M19.5,1.7c-1.1-.2-12.6-.9-14-.6S0,0,0,0L2.9,2.2h.2a.1.1,0,0,0-.1.1.188.188,0,0,0,0,.3c.2.5.5,1.1.7,1.6.3.5.5,1,.8,1.5a16.965,16.965,0,0,0,1,1.4l.6.6.3.3a.52.52,0,0,0,.4.2,8.509,8.509,0,0,0,1.7.6c.6.1,1.2.2,1.7.3a20.554,20.554,0,0,0,3.5.2h3.5c1.2-.1,2.3-.1,3.5-.3a3.486,3.486,0,0,0,1.7-.6,3.072,3.072,0,0,0,1-1.5,13.634,13.634,0,0,0,.4-1.7,6.642,6.642,0,0,1,.3-1.5,8.658,8.658,0,0,0,1.1.1A32.776,32.776,0,0,0,19.5,1.7Zm4,3.7a8.586,8.586,0,0,1-.3,1.7,2.3,2.3,0,0,1-.9,1.4,2.834,2.834,0,0,1-1.6.6,40.957,40.957,0,0,1-7,.2c-1.2-.1-2.3-.2-3.5-.3a12.255,12.255,0,0,1-3.3-.8c-.1-.1-.2-.1-.4-.2l-.3-.3-.6-.6A7.551,7.551,0,0,1,4.5,5.7,18.185,18.185,0,0,1,2.9,2.6a.188.188,0,0,1,0-.3c.1-.1.1-.1.2-.1.8,0,2.9-.1,3.8,0S19.6,3.4,23.8,3.8a4.973,4.973,0,0,0-.3,1.6Z" transform="translate(2.5 9.699)"/>
              <path id="SvgjsPath7194" d="M5.6,12.6A23.152,23.152,0,0,1,1.9,7.3s1.7,5,2.6,6.1S15,15.9,16,15.8s-3.4-.8-4.6-1.1S6.7,13.6,5.6,12.6ZM.9,0,0,.6,16.8,1.7Z" transform="translate(3.4 7.299)" fill="#d19271"/>
            </g>
          </g>
        </g>
        <g id="svga-group-eyebrows-left-move" transform="translate(14.903 47.183)">
          <g id="svga-group-eyebrows-left-rotate" transform="translate(1.279 0) rotate(7.5)">
            <g id="svga-group-eyebrows-left">
              <path id="SvgjsPath7606" d="M27.1.223S25.214,4.032,23.7,4.782s-18.121.882-18.121.882S1.333,7.506,0,8.9L3.458,2.167l.393.314L14.287.931,13.071,1.6,26.109,0,24.767,1.791,27.1.223Z" transform="translate(0.3 0.2)" fill="#2a232b"/>
              <path id="SvgjsPath7607" d="M0,9.795l.411-.5a11.558,11.558,0,0,1,1.122-1,4.562,4.562,0,0,1,.709-.422c.2-.167.506-.254.709-.422.506-.254,1.011-.509,1.417-.761A8.14,8.14,0,0,1,5.884,6.01c2.2.042,4.3,0,6.4-.033,2.2-.04,4.3-.077,6.5-.2,1.1-.1,2.2-.121,3.2-.221a11.022,11.022,0,0,0,1.605-.274l.2-.085c.1,0,.1-.084.2-.085a.58.58,0,0,1,.3-.169l.306-.251.206-.249c.307-.333.515-.663.822-1l.622-.992a4.784,4.784,0,0,0,.523-.99,1.07,1.07,0,0,0,.211-.494l.106-.247.1-.165,0-.164-1.217.758c-.3.169-.507.336-.811.505L26.305.165l.1-.165-.3.005L22.8.392,19.5.778c-1.1.1-2.205.285-3.307.386l-2.205.285.4-.171L15.3.772l-1.1.183-2.607.374L8.981,1.7l-5.114.746-.394-.238-.2-.16L3.171,2.3,1.492,5.762,1.051,7.568C.738,8.146.524,8.722.211,9.3L0,9.795Zm.621-.91a8.777,8.777,0,0,1,.73-1.321L2.19,5.831,3.861,2.694l.2.16.1.08.1,0L9.47,2.185l2.607-.374,1.5-.191-.4.089-.809.423,1.1-.1,3.307-.386c1.1-.1,2.205-.285,3.209-.466L23.195.712,26.2.331,25.064,1.986l-.309.414.407-.334,1.117-.756A10.123,10.123,0,0,0,27.4.473l-.1.084,0,.082-.1.084-.106.247-.311.5-.622.992A15.089,15.089,0,0,1,24.71,4.364l-.206.249-.2.167c-.1.084-.2.085-.3.169l-.1.084-.2.085a9.543,9.543,0,0,1-1.6.192c-1.1.1-2.1.2-3.2.221-2.2.121-4.3.159-6.5.28-2.2.04-4.3.159-6.5.2-1.011.509-2.02.936-3.033,1.526-.506.254-.913.589-1.419.843a2.561,2.561,0,0,0-.811.505ZM23.885,1.108c-.606.256-1.113.592-1.619.847a16.609,16.609,0,0,0-1.62.928c-.507.336-1.013.59-1.62.928s-1.015.672-1.52.927l.4.156a10.04,10.04,0,0,0,.438-1.643l.108-.329-.406.253c-.609.42-1.219.839-1.728,1.257a13.869,13.869,0,0,0,1.924-1.1l-.3-.076c-.213.576-.424,1.07-.636,1.565l-.211.494L17.7,4.98c.507-.336,1.013-.59,1.52-.927l1.522-1.008,1.522-1.008a9.857,9.857,0,0,0,1.62-.928Zm-10.928,1.5c-.707.34-1.417.761-2.226,1.185-.709.422-1.417.761-2.126,1.183l.4.156a5.342,5.342,0,0,1,.419-.825,5.342,5.342,0,0,1,.419-.825l.209-.413-.5.173c-.5.173-1.109.429-1.613.6a12.466,12.466,0,0,0-1.515.681c-.506.254-1.011.509-1.417.761a6.361,6.361,0,0,0-1.22.921c.406-.253.911-.507,1.417-.761a12.467,12.467,0,0,1,1.515-.681c.5-.173,1.009-.427,1.513-.6s1.009-.427,1.613-.6l-.3-.158a5.342,5.342,0,0,1-.419.825c-.106.247-.211.494-.319.823l-.211.494L9.2,5.215c.709-.422,1.319-.841,2.028-1.263C11.637,3.536,12.346,3.114,12.957,2.613Z" fill="#1b141c"/>
            </g>
          </g>
        </g>
        <g id="svga-group-eyebrows-right-move" transform="translate(55.131 49.384)">
          <g id="svga-group-eyebrows-right-rotate" transform="translate(0.476 0) rotate(3.75)">
            <g id="svga-group-eyebrows-right">
              <path id="SvgjsPath7608" d="M0,.753S2.262,4.356,3.555,5c1.394.564,15.716-1.2,15.716-1.2s3.986,1.366,5.273,2.59L20.612,0l-.3.332L11.11,0l1.2.484L.8.417,2.186,2.051,0,.753Z" transform="translate(0.097 0.394)" fill="#2a232b"/>
              <path id="SvgjsPath7609" d="M24.738,6.857c-.294-.586-.688-1.087-.982-1.673l-.982-1.673L20.808.251,20.711,0l-.2.17-.3.255-4.5-.213L13.41.147l-2.3-.064-1-.075.9.413.4.165L.606.678.7.846,1.89,2.18a5.693,5.693,0,0,0-.8-.413A4.38,4.38,0,0,1,0,1.1l0,.168.1.167.2.25.295.5a5.961,5.961,0,0,0,.689,1,8.587,8.587,0,0,0,.69.919c.2.25.494.584.79.918l.2.25.3.166c.1.083.2.082.3.166.1,0,.1.083.2.082l.2,0a8.377,8.377,0,0,0,1.4.072c.9-.008,1.9-.1,2.8-.192,1.9-.1,3.7-.368,5.605-.553,1.8-.184,3.7-.452,5.507-.72.5.164.9.328,1.395.492s.9.413,1.394.576a4.513,4.513,0,0,0,.7.33c.2.082.4.249.6.331a4.9,4.9,0,0,1,1.091.831l.4.417-.1-.419Zm-1.19-.914a9.351,9.351,0,0,0-1.293-.661,25.93,25.93,0,0,0-2.787-1.153c-1.8.184-3.7.452-5.606.637s-3.7.368-5.605.553c-.9.092-1.9.185-2.8.192a7.8,7.8,0,0,1-1.4-.072l-.3,0c-.1-.083-.2-.082-.3-.166l-.2-.166-.2-.166A14.854,14.854,0,0,1,1.48,3.108,8.587,8.587,0,0,0,.79,2.19L.5,1.688l-.2-.25L.2,1.27V1.186L.1,1.1a7.538,7.538,0,0,0,1.093.663l1.093.663.4.249-.3-.334L1.1.842,3.7.9,6.6.963c.9-.008,1.9.068,2.9.059l2.9.059.9-.008L12.5.743l-.3-.166,1.3.073,2.3.064,4.6.128h.1l.1-.085.1-.169L22.573,3.6l.983,1.588c.3.418.491.836.787,1.254a5.431,5.431,0,0,0-.795-.5ZM3.2,1.412a8.478,8.478,0,0,0,1.593.659,7.673,7.673,0,0,1,1.492.744l1.492.744L9.267,4.3l-.3.171a10.85,10.85,0,0,0-.683-1.591l-.1-.335.3.25a18.762,18.762,0,0,1,1.688,1.078,17.844,17.844,0,0,1-1.79-.909l.2-.17c.295.5.489,1,.783,1.59l.195.5-.5-.248L7.571,3.9A13.123,13.123,0,0,1,6.08,3.068c-.5-.332-.994-.58-1.391-.828-.5-.248-.994-.58-1.491-.828Zm9.6.169a22.344,22.344,0,0,1,2.09.906c.7.33,1.293.661,1.989.991l-.3.171c-.2-.25-.295-.5-.492-.752s-.295-.5-.492-.752l-.2-.335.5.164c.5.164,1,.244,1.5.407s.9.328,1.395.492a10.386,10.386,0,0,1,1.393.66,12.24,12.24,0,0,1,1.192.746c-.4-.249-.9-.413-1.293-.661-.5-.164-.9-.328-1.395-.492s-.9-.328-1.395-.492-1-.244-1.4-.408l.3-.255a2.709,2.709,0,0,1,.392.753,2.709,2.709,0,0,1,.392.753l.295.5-.6-.331a12.747,12.747,0,0,1-1.888-1.076A8.411,8.411,0,0,1,12.8,1.581Z" fill="#1b141c"/>
            </g>
          </g>
        </g>
        <g id="svga-group-beardwrap" transform="translate(24.126 93.775) rotate(-3)">
          <g id="svga-group-beard-single-move" transform="translate(0 0)">
            <g id="svga-group-beard-single">
              <path id="SvgjsPath6178" d="M42.288,2.612C38.392-.343,16.247,2.544,10.442.434,7.978-.495,5.872-.005,3.328,2.612s-3.9,7.345-3.1,13.17l.557-1.013S.545,22.958,2.772,27.01l.636-1.6s.557,3.63,5.248,9.455c2.942,3.8,9.3,4.559,12.324,4.728l-.159-1.182s2.783,2.195,8.189.338v.507s8.825-.084,13.039-10.637l.08,1.52A52.585,52.585,0,0,0,45.15,20c1.272-6.416.954-14.52-2.862-17.391ZM34.257,21.1c-.863.953-6.181,2.354-6.181,2.354l-1.264-4.412s-4.752-.114-6.763-.354c-.39-.045-1.169,5.065-1.876,4.922-4.134-.844-9.2-5.632-11.745-12.555-1.193-3.377-1.272-6.332.477-7.682,1.908-1.6,25.3,1.639,28.385.76,2.385-.675,4.293-1.52,5.486,1.1C41.97,7.762,38.869,16.2,34.257,21.1Z" transform="translate(0.279 0.096)" fill="#2a232b"/>
              <path id="SvgjsPath6179" d="M45.829,8.868a13.472,13.472,0,0,0-1.113-3.462A8.181,8.181,0,0,0,42.569,2.62a6.446,6.446,0,0,0-5.249-.929C35.491,2.029,10.44.425,9.8.256A5.821,5.821,0,0,0,5.669.509,8.566,8.566,0,0,0,2.488,3.3,14.312,14.312,0,0,0,.659,7.179a20.61,20.61,0,0,0-.4,8.528l.08.422.239-.338L.9,15.285c0,1.942.159,3.8.318,5.741.159,1.013.318,2.111.557,3.124a12.957,12.957,0,0,0,1.034,2.955l.159.253.159-.338L3.6,25.839a21.117,21.117,0,0,0,2.386,5.319,29.251,29.251,0,0,0,1.75,2.617A11.363,11.363,0,0,0,9.8,36.139a13.708,13.708,0,0,0,5.487,2.786,24.357,24.357,0,0,0,5.964.929h.477l-.08-.507-.08-.338a8.8,8.8,0,0,0,1.352.507,9.5,9.5,0,0,0,2.227.253A18.388,18.388,0,0,0,27.3,39.6c.318-.084.716-.169,1.034-.253l.477-.169V39.6h.4a15.736,15.736,0,0,0,4.374-1.013A13.96,13.96,0,0,0,37.4,36.224a14.8,14.8,0,0,0,3.022-3.377,27.426,27.426,0,0,0,1.511-2.617l.08,1.52.636-1.435a43.674,43.674,0,0,0,2.227-6.923,43.521,43.521,0,0,0,1.193-7.177,28.434,28.434,0,0,0-.239-7.346Zm0,7.261A44.84,44.84,0,0,1,44.4,23.221c-.477,1.773-1.034,3.546-1.67,5.235l-.08-1.52-.636,1.6a22.311,22.311,0,0,1-2.068,3.884A15.65,15.65,0,0,1,37,35.633a12.607,12.607,0,0,1-3.658,2.2,11.154,11.154,0,0,1-3.658.929v-.675l-.557.169-.954.338c-.318.084-.636.169-1.034.253a15.834,15.834,0,0,1-2.068.169,8.024,8.024,0,0,1-1.988-.253A6.062,6.062,0,0,1,21.256,38l-.8-.591.159.929.08.675a28.834,28.834,0,0,1-5.408-.76,13.369,13.369,0,0,1-5.249-2.533,13.5,13.5,0,0,1-1.988-2.28c-.636-.844-1.193-1.689-1.75-2.533A19.4,19.4,0,0,1,3.76,25.332L3.6,24.826l-.159.507-.557,1.351a14.538,14.538,0,0,1-.954-2.617c-.239-1.013-.4-2.026-.557-3.04a53.826,53.826,0,0,1-.318-6.248v-.507l-.239.507L.5,15.369a18.737,18.737,0,0,1,.636-7.852A10.954,10.954,0,0,1,2.965,3.887,7.952,7.952,0,0,1,5.987,1.438a5.667,5.667,0,0,1,3.738-.169c.636.169,25.846,1.1,27.6.844a6.558,6.558,0,0,1,5.169.844,7.307,7.307,0,0,1,2.147,2.786A17.261,17.261,0,0,1,45.67,9.206a25.01,25.01,0,0,1,.159,6.923ZM41.456,5.153a3.489,3.489,0,0,0-.4-.76,2.955,2.955,0,0,0-1.272-1.182,2.858,2.858,0,0,0-1.67-.169,30.3,30.3,0,0,0-2.942.76c-1.909.507-24.653-.844-25.607-1.013a4.538,4.538,0,0,0-1.511,0,3.133,3.133,0,0,0-1.352.76A4.378,4.378,0,0,0,5.748,6.5a13.41,13.41,0,0,0,.4,3.124,22.93,22.93,0,0,0,6.2,10.554,15.788,15.788,0,0,0,5.09,3.293,12.35,12.35,0,0,0,2.942.675c.954.084,1.988.169,2.942.169a22.924,22.924,0,0,0,5.885-.675,15.518,15.518,0,0,0,2.783-.929,9.7,9.7,0,0,0,2.465-1.6,35.058,35.058,0,0,0,3.658-4.9,23.538,23.538,0,0,0,2.624-5.572,21.411,21.411,0,0,0,.8-3.04,2.756,2.756,0,0,0,.08-.844V5.913a2.6,2.6,0,0,0-.159-.76Zm-.477,2.364a12.18,12.18,0,0,1-.636,2.955,26.938,26.938,0,0,1-5.805,10.638,9.7,9.7,0,0,1-2.465,1.6,15.3,15.3,0,0,1-2.783.844,19.214,19.214,0,0,1-5.805.338c-.954-.084-1.909-.169-2.863-.338a10.509,10.509,0,0,1-2.783-.76,16.993,16.993,0,0,1-4.851-3.208,23.083,23.083,0,0,1-3.9-4.559A19.464,19.464,0,0,1,6.544,9.459a9.989,9.989,0,0,1-.4-3.04A4.863,4.863,0,0,1,7.1,3.633a2.152,2.152,0,0,1,1.193-.675,4.077,4.077,0,0,1,1.431,0c.954.169,23.937,2.026,25.846,1.52.954-.253,1.909-.591,2.783-.76a1.987,1.987,0,0,1,2.227.929,2.154,2.154,0,0,1,.318.591,1.669,1.669,0,0,1,.159.675c0,.253.08.507.08.675a2.278,2.278,0,0,0-.159.929ZM10.52,25.248a19.667,19.667,0,0,1-1.511-3.8,8.309,8.309,0,0,0,.954,4.137,6.649,6.649,0,0,0,2.863,2.955A18.487,18.487,0,0,1,10.52,25.248Zm2.545,5.4a5.47,5.47,0,0,0-1.591-1.1,7.516,7.516,0,0,0,1.193,1.6,5.47,5.47,0,0,0,1.591,1.1A8.116,8.116,0,0,0,13.065,30.651Z" fill="#1b141c"/>
            </g>
          </g>
        </g>
        <g id="svga-group-nose-single-move" transform="translate(38.047 79.753)">
          <g id="svga-group-nose-single">
            <path id="SvgjsPath6470" d="M104.025,102.515a6.078,6.078,0,0,1-3.629.066c-1.073-.275-2.356.656-2.8,1.074a3.314,3.314,0,0,1-3.733.865c-2.109-.76-2.043-1.492-3.182-1.767s-1.966.627-3.249.276a2.306,2.306,0,0,1-1.767-2.66,13.448,13.448,0,0,1,1.406-4.712c.627-.988,9.795-4.085,16.5.409a9.413,9.413,0,0,1,1.387,4.1c-.028,1.834-.133,2.033-.931,2.347Z" transform="translate(-85.406 -93.694)" fill="#e8b89e"/>
            <path id="SvgjsPath6471" d="M87.077,95.656a18.3,18.3,0,0,0-1.083,4.009,4.159,4.159,0,0,0,.114,1.948l.085.209c.038.066.085.123.123.19a.851.851,0,0,0,.143.181c.057.048.095.114.152.152a1.73,1.73,0,0,0,.789.371,4.754,4.754,0,0,0,1.919-.124l.5-.114.266-.057.143-.028.171-.019a2.439,2.439,0,0,1,1.206.294,11.561,11.561,0,0,1,1.786,1.226l.2.152c.066.038.114.076.181.114a1.847,1.847,0,0,0,.4.161,2.873,2.873,0,0,0,.9.114,2.783,2.783,0,0,0,1.681-.57l.161-.152.2-.19a5.352,5.352,0,0,1,.427-.361,5.482,5.482,0,0,1,.96-.608,3.9,3.9,0,0,1,1.111-.352,2.309,2.309,0,0,1,.95.067l.275.1a3.124,3.124,0,0,0,.9.161,5.754,5.754,0,0,0,.988-.029,2.831,2.831,0,0,0,1.71-.665,1.405,1.405,0,0,0,.295-.817,4.389,4.389,0,0,0-.01-1,12.353,12.353,0,0,0-1.178-3.961,11.374,11.374,0,0,1,1.6,3.9,5.2,5.2,0,0,1,.086,1.093,1.957,1.957,0,0,1-.352,1.14,2.334,2.334,0,0,1-.979.674,5.376,5.376,0,0,1-1.083.295,6.088,6.088,0,0,1-1.1.085,3.671,3.671,0,0,1-1.159-.181l-.209-.076a1.311,1.311,0,0,0-.19-.028,1.562,1.562,0,0,0-.418.019,3.138,3.138,0,0,0-.865.3,5.379,5.379,0,0,0-.807.532c-.123.1-.247.209-.37.323l-.181.171-.228.2a3.624,3.624,0,0,1-2.2.779,3.775,3.775,0,0,1-1.169-.161,3.2,3.2,0,0,1-.56-.238c-.085-.048-.181-.114-.266-.171l-.219-.161a13.18,13.18,0,0,0-1.644-1.169,1.73,1.73,0,0,0-.8-.238h-.085l-.114.019-.247.048-.522.1a5.042,5.042,0,0,1-2.232.038,2.344,2.344,0,0,1-1.055-.57,2.289,2.289,0,0,1-.627-1.007,4.438,4.438,0,0,1,0-2.2,13.273,13.273,0,0,1,.627-2.033c.275-.646.57-1.283.9-1.9Z" transform="translate(-85.406 -93.694)" fill="#c27b55"/>
            <path id="SvgjsPath6472" d="M97,98.715a1.939,1.939,0,0,0-1.843-.437c-.085.019-.161.038-.238.057a1.627,1.627,0,0,0-.931-.3,1.681,1.681,0,0,0-1.187,2.869c1.083,1.159,3.506,1.492,4.427-.076A1.791,1.791,0,0,0,97,98.714Z" transform="translate(-85.406 -93.694)" fill="#f8d5c3"/>
          </g>
        </g>
        <g id="svga-group-hair-front" transform="translate(7.283)">
          <path id="SvgjsPath3867" d="M55.7,75.8a13.328,13.328,0,0,1,2.486,3.68c.71,1.835,0,5.106.528,5.515s2.3-5.515,2.3-5.515l1.238-23.707L77.7,39.215,84.1,47.183s16.33,1.017,24.326.608l6.749-5.725L130.09,56.787l.528,22.889,2.3,5.106a66.255,66.255,0,0,1,1.066-6.543,23.157,23.157,0,0,1,1.949-2.862s1.421-14.92.71-19.208-5.328-15.13-13.67-22.281S88.714,27.754,84.1,28.163s-14.563,3.879-14.563,3.879l.883,1.426L67.93,34.694l-.355,1.636s-5.146,3.68-7.1,6.333-3.725,7.77-4.262,12.058S55.7,75.8,55.7,75.8Z" transform="translate(-55.631 -27.355)" fill="#39343a"/>
          <path id="SvgjsPath3868" d="M55.747,75.73a13.551,13.551,0,0,1,2.3,3.154,8.435,8.435,0,0,1,.6,4.081c0,.342-.01.684,0,1.026a3.929,3.929,0,0,0,.048.485,1.011,1.011,0,0,0,.1.287c-.058.022.115-.11.163-.243.077-.132.154-.276.221-.419.134-.3.259-.607.384-.915.47-1.257.874-2.548,1.258-3.849l-.01.066,1.1-23.67.01-.165.106-.121L77.434,38.869l.317-.331.288.364,6.384,7.963-.278-.154c4.042.254,8.093.441,12.144.618,4.051.154,8.1.287,12.144.154l-.154.066,6.787-5.647.134-.11.125.121L130.2,56.66l.048.044v.077l.614,22.842-.029-.11,2.323,5.085-.47.088c.211-1.7.432-3.4.72-5.1a12.955,12.955,0,0,1,.269-1.29,4.792,4.792,0,0,1,.624-1.191c.461-.695.941-1.357,1.44-2.007l-.077.188c.384-4.544.71-9.1.806-13.644a24.254,24.254,0,0,0-.48-6.662,36,36,0,0,0-2.4-6.155,47.423,47.423,0,0,0-7.123-10.754,27.9,27.9,0,0,0-4.531-4.257,19.847,19.847,0,0,0-5.357-2.559A61.6,61.6,0,0,0,104.9,29.053c-3.946-.4-7.91-.563-11.885-.574-1.987,0-3.965.022-5.952.11-.989.044-1.978.1-2.957.176-.96.1-1.93.276-2.9.463a113.924,113.924,0,0,0-11.539,3.287l.211-.695.883,1.434.278.452-.442.21-2.5,1.2.211-.287-.365,1.632-.038.165-.125.088c-1.354.971-2.7,2.007-3.984,3.1A18.564,18.564,0,0,0,60.317,43.5,29.451,29.451,0,0,0,56.65,53.561a43.11,43.11,0,0,0-.49,5.493q-.13,2.779-.2,5.559c-.1,3.706-.163,7.456-.211,11.118Zm-.086.044c-.038-3.75-.038-7.434-.01-11.151.019-1.853.048-3.706.1-5.57a43.369,43.369,0,0,1,.432-5.57A33.935,33.935,0,0,1,57.552,48.1a24.068,24.068,0,0,1,2.294-4.985,19.363,19.363,0,0,1,3.571-3.882c1.3-1.136,2.63-2.195,4-3.2l-.163.254.346-1.632.038-.2.173-.088,2.477-1.246-.163.662-.893-1.423-.326-.518.528-.188a115.3,115.3,0,0,1,11.6-3.474,26.919,26.919,0,0,1,3-.518c1.008-.088,2.006-.143,3-.188,2-.088,3.994-.121,5.99-.121,3.994,0,7.987.154,11.971.551a58.6,58.6,0,0,1,11.856,2.25,21.157,21.157,0,0,1,5.606,2.724,29.036,29.036,0,0,1,4.675,4.423,48.356,48.356,0,0,1,7.229,11.041,36.235,36.235,0,0,1,2.41,6.375,14.749,14.749,0,0,1,.461,3.485c.019,1.158.019,2.305-.019,3.452-.154,4.588-.518,9.144-.95,13.7l-.01.11-.067.077c-.49.629-.979,1.279-1.43,1.941a4.349,4.349,0,0,0-.547.993c-.106.375-.182.805-.259,1.213-.3,1.665-.528,3.364-.749,5.052l-.115.882-.355-.794-2.294-5.107-.029-.055v-.055l-.451-22.853.048.121L115.046,42.245l.269.011-6.71,5.768-.067.055h-.086c-4.07.21-8.131.143-12.192.055s-8.112-.287-12.173-.507l-.163-.011-.115-.143L77.4,39.52l.6.022L62.525,56.065l.115-.276L61.248,79.436v.033l-.01.033c-.413,1.3-.845,2.592-1.354,3.849-.125.32-.259.629-.413.938a4.021,4.021,0,0,1-.25.452,1.626,1.626,0,0,1-.163.221.366.366,0,0,1-.346.143.7.7,0,0,1-.317-.574,3.505,3.505,0,0,1-.038-.54c-.01-.353.01-.695.019-1.048a8.322,8.322,0,0,0-.49-3.971,13.688,13.688,0,0,0-2.227-3.2Z" transform="translate(-55.631 -27.355)" fill="#1b141c"/>
        </g>
      </g>
    </g>
  </g>
</svg>
