<svg id="zahra" xmlns="http://www.w3.org/2000/svg" width="200" height="220" viewBox="0 0 200 220">
  <g id="svga-group-backs-single">
    <path id="SvgjsPath21365" d="M0,0H200V220H0Z" fill="#b6b7c0"/>
  </g>
  <g id="svga-group-humanwrap-move" transform="translate(20.645 12.91)">
    <g id="svga-group-humanwrap">
      <g id="svga-group-hair-back-move" transform="translate(14.419 77.156)">
        <g id="svga-group-hair-back" transform="translate(0 0)">
          <path id="SvgjsPath22156" d="M164.16,148.67c.192,5.7,2.208,13.4-2.592,17.6-4.512,4-11.616,1.8-16.8,1.3a8.851,8.851,0,0,0-2.3,0,10.965,10.965,0,0,0,2.88-2.4c3.84-4.4,1.632-9.1-2.208-12a8.951,8.951,0,0,0-.1-1.6c1.824-.2,3.552-.5,5.376-.8,4.7-.8,3.456-8.6-1.056-8.5-2.3,0-4.608.1-6.816.1a6.008,6.008,0,0,0-.288-6.2,121.076,121.076,0,0,0,1.536-30.594c-.384-4-.192-9.7-4.032-12.1-3.936-2.5-10.944-1.3-15.456-1.4-22.752-.6-45.5-1.4-68.352-2.1-2.5-.1-5.28,2.5-4.992,5.2,1.152,9.3,2.208,18.6,3.456,27.794q.864,6.6,2.016,13.2c.48,3.2.672,7.5,3.264,9.7a15.9,15.9,0,0,0-3.744.4,4.379,4.379,0,0,0-2.88,5.3,6.168,6.168,0,0,0,2.784,3.6c-1.44.7-2.112,3.1-.288,4.1a2.474,2.474,0,0,0-1.92,2.5,9.637,9.637,0,0,0,.48,2.9,9.965,9.965,0,0,1-2.976.2c-2.592-.1-5.28-.6-7.872-.8a5.207,5.207,0,0,0-3.264.3c-1.248.8-1.44,2.5-2.112,3.8-3.744,2-5.472.2-4.512,5.6,0,.1.288.1.288,0,0-3.6,2.5-2.9,4.608-3.4a6.78,6.78,0,0,0,.96-.8,4.826,4.826,0,0,1,4.416-1.9c1.344.1,2.688.8,4.032.9,2.3.2,5.472-.3,7.1-2a12.885,12.885,0,0,0,4.608,5.1h-.192c-5.376-.4-1.824,1.7-4.992,4.6-.192.2,0,.7.288.6,1.728-.6.48-.1,1.92-1.3.384-.3.1-1.3.384-1.5,2.016-1.5,6.624.7,9.12.4a11.746,11.746,0,0,0,6.912-3.6,15.082,15.082,0,0,0,1.92-1.6,8.973,8.973,0,0,0,3.072,1.2,9.571,9.571,0,0,0,6.624,2.9,24.426,24.426,0,0,0,7.584-.7,26.415,26.415,0,0,0,3.936-1.4c1.344-.6,1.824-.9,2.784-.7,1.824.4,3.36,1.8,5.376,2a13.01,13.01,0,0,0,5.856-.5,13.136,13.136,0,0,0,7.3-5.6c0-.1.1-.1.1-.2h.1c2.016,1,3.84,2.5,6.528,2.4a7.209,7.209,0,0,0,2.112-.3c.1.1.192.3.288.4s.192.3.288.4a1.376,1.376,0,0,1,.288.4l.192.2c.1.1.192.1.288.2l.192.2c.864.7,2.592,1.7,3.648,1a6.123,6.123,0,0,0,3.552.2.527.527,0,0,0,0-1c-1.632-.4-3.264-.5-4.8-1.5a2.572,2.572,0,0,1-.576-.5,5.453,5.453,0,0,1-.288-1.2l.576-.3a15.833,15.833,0,0,0,12.192,1.7,2.2,2.2,0,0,0-.288.5c-1.056,2.4,3.072,3.6,1.344,6.2-.384.6.384,1.1.864.7a3.519,3.519,0,0,0,1.536-2.9c0-.7-1.152-2.2-1.152-2.5.192-1.9,6.72-.1,8.256.1a23.175,23.175,0,0,0,6.432-.3c3.168-.7,7.392-2.2,9.024-5.4,2.112-4.4.192-11.7-.672-16.3-.288-.7-1.152-.6-1.152,0Zm15.936-7.1c-.1-.6-.864-.8-1.056-.1-4.032,1.3-5.952.4-5.664-2.4a10.826,10.826,0,0,0-.384-1.7,4.218,4.218,0,0,0-.864-1.4c-.672-.8-1.632-1.1-2.4-1.8a10.357,10.357,0,0,0-1.44-.8c-2.016-2.4-2.592-4.9-1.536-7.4.96-4,4.128-8.8-.288-11.8-.48-.3-.864.4-.576.8,3.936,4.7-2.88,10.9-1.632,16.2a5.991,5.991,0,0,0,1.92,3.3,21.649,21.649,0,0,0,1.92,1.3c2.016,1.7,2.592,3.7,3.264,6.2.576,2.3,1.536,4.5,4.32,4.6a4.255,4.255,0,0,0,4.416-5Z" transform="translate(-31.131 -89.979)" fill="#301c12"/>
        </g>
      </g>
      <g id="svga-group-humanbody-back" transform="translate(12.082 88.889)">
        <path id="SvgjsPath19428" d="M77.8,105.9s4.8,37.7,10,55.8c0,0-6.4,8.8-14.5,11.9-28.7,11.2-35,11.2-39.6,15.2-2.4,2.1.2,11.1,1.8,17.2a83.315,83.315,0,0,1,1.7,13.2H169.4s1.6-33-.6-39.8-7.1-2.9-21.9-4.5-28.7-10.3-31-13.2l.3-60-38.4,4.2Z" transform="translate(-32.727 -101.7)" fill="#f3d4cf"/>
      </g>
      <g id="svga-group-chinshadow-single" transform="translate(57.055 88.748)">
        <path id="SvgjsPath21583" d="M85.6,152.8c6.6,3.5,10.7,3.5,10.7,3.5s8,0,19.6-9.5l.2-45.2-38.4,4.2c.1.1,3.6,27.7,7.9,47Z" transform="translate(-77.7 -101.6)" fill="#d4958a"/>
      </g>
      <g id="svga-group-humanbody-front" transform="translate(11.339 88.089)">
        <path id="SvgjsPath19429" d="M72.1,183.1s14.6-.2,20.4,2.6c5.8,2.9,12.7,2.4,16.1-1s21.6-7,21.6-7-19.7,1.9-25,4.6-22.3-2.8-33.1.8Z" transform="translate(-31.985 -100.9)" fill="#d4958a"/>
        <path id="SvgjsPath19430" d="M74.2,173.2c6.7-1.3,14.7-6.4,14.7-6.4l6.2,5.5c-4.3-7.9-12.7-41.1-12.7-41.1l-.7.7a295.669,295.669,0,0,0,6.1,29.7s-6,8.2-13.6,11.6Z" transform="translate(-31.985 -100.9)" fill="#d4958a"/>
        <path id="SvgjsPath19431" d="M170.7,188.5c-.1-2.1-.2-4.1-.4-6.2a19.848,19.848,0,0,0-.6-3.2c-.2-.5-.4-1-.6-1.6a6.528,6.528,0,0,0-1-1.5,3.269,3.269,0,0,0-1.5-1.1,11.505,11.505,0,0,0-1.7-.6,17.745,17.745,0,0,0-3.2-.2c-2.1,0-4.1.1-6.1.1s-4-.1-6-.2-4-.4-6-.7c-1-.2-2-.4-2.9-.6l-1.5-.4c-.5-.1-1-.3-1.4-.4a66.742,66.742,0,0,1-11.2-4.4l-1.3-.7-1.3-.7a9.129,9.129,0,0,1-1.3-.8c-.4-.3-.9-.5-1.3-.8a14.8,14.8,0,0,0-1.3-.8l-1.2-.9-.6-.5-.3-.2-.3-.2c-.2-.2-.4-.3-.5-.5l-.2-.3V116.5l-.1-15v-.6l-.6.1c-6.4.8-12.9,1.5-19.3,2.3l-19.1,2.3v.5l.1.4.1.9.2,1.8c.1,1.2.3,2.3.4,3.5l.9,7c.6,4.7,1.3,9.4,2.1,14,.8,4.7,1.5,9.3,2.5,14,.9,4.5,1.8,9,3,13.5a44.823,44.823,0,0,1-3.6,4,52.964,52.964,0,0,1-4.3,3.8,29.7,29.7,0,0,1-4.8,3l-1.3.6c-.4.2-.9.3-1.3.5l-2.7,1c-7.2,2.7-14.5,5.3-21.8,7.7l-5.5,1.8a42.038,42.038,0,0,0-5.5,2.2c-.4.2-.9.5-1.3.7a10.144,10.144,0,0,0-1.3.9l-.6.5a2.407,2.407,0,0,0-.6.8,4.939,4.939,0,0,0-.5,1.6,10.728,10.728,0,0,0,0,3.1c.1,1,.3,2,.4,2.9.4,1.9.8,3.8,1.3,5.7l.8,2.8a22.912,22.912,0,0,1,.7,2.8,56.223,56.223,0,0,1,.9,5.7c.2,1.9.4,3.8.5,5.7v.8H170.1V219c.2-4.1.4-8.2.5-12.3s.2-8.2.2-12.3c0-1.8-.1-3.8-.1-5.9Zm-67.4,30.3H70.2l-16.5-.1-16-.1c-.1-1.8-.2-3.5-.4-5.3a57.712,57.712,0,0,0-.8-5.8c-.2-1-.4-1.9-.7-2.9l-.7-2.8a55.942,55.942,0,0,1-1.2-5.6,26.955,26.955,0,0,1-.4-2.8,12.178,12.178,0,0,1,0-2.7,3.582,3.582,0,0,1,.4-1.1,1.38,1.38,0,0,1,.3-.4l.5-.4a10.475,10.475,0,0,1,1.1-.8c.4-.2.8-.5,1.2-.7a48.133,48.133,0,0,1,5.3-2l5.5-1.8c7.3-2.4,14.6-5,21.8-7.8l2.7-1c.5-.2.9-.3,1.4-.5l1.4-.6a32.652,32.652,0,0,0,5-3.2,40.868,40.868,0,0,0,4.4-3.9,32.344,32.344,0,0,0,3.8-4.5l.2-.3-.1-.3c-1.3-4.5-2.3-9.1-3.3-13.7s-1.9-9.3-2.7-13.9-1.6-9.3-2.4-14l-2.2-13.9,19.3-1.8c6.2-.6,12.3-1.2,18.5-1.8l-.2,14.4-.2,15-.3,30v.4l.2.2.6.7.6.6.3.3.3.2.6.5c.4.3.9.6,1.3.9s.9.6,1.3.9.9.5,1.3.8.9.5,1.3.8l1.4.8,1.4.7c.5.2.9.5,1.4.7l1.4.7c1,.4,1.9.8,2.9,1.2s1.9.8,2.9,1.1l1.5.5a8.33,8.33,0,0,0,1.5.4c.5.1,1,.3,1.5.4l1.5.4c1,.3,2,.4,3,.6a61.729,61.729,0,0,0,6.2.8c2.1.2,4.1.2,6.2.2s4.1-.1,6.1-.1,4,.1,5,1.3a7.139,7.139,0,0,1,1.2,2.3,27.973,27.973,0,0,1,.6,2.8c.3,2,.4,4,.5,6s.1,4.1.2,6.1c.1,7.9-.1,15.8-.4,23.7-10.8.1-21.5.1-32.3.2H103.3Z" transform="translate(-31.985 -100.9)" fill="#c5796d"/>
        <path id="SvgjsPath19432" d="M150.7,219.2,147,198l-.4,21.2Z" transform="translate(-31.985 -100.9)" fill="#d4958a"/>
        <path id="SvgjsPath19433" d="M47.3,203.5s2.2,11.5,2.9,15.7h3.5Z" transform="translate(-31.985 -100.9)" fill="#d4958a"/>
      </g>
      <g id="svga-group-clothes-single" transform="translate(0.543 128.889)">
        <path id="SvgjsPath19551" d="M89.034,143.2c-.554.1-16.5,3.7-19.162,4.9-2.769,1.2-1.329,6.9-2.437,7.8-1,.9-13.292,12.7-12.516,14s6.757,4,6.424,5.5a3.472,3.472,0,0,1-1,2s-24.922,5.4-27.359,7.5c-2.326,2.1-3.877,6.9-2.326,9.8a30.313,30.313,0,0,0,.111,10c1,5.2,1.994,9.4,1.994,9.4l.222,5.8H189.055s-.665-15-.443-17.9,1.994-13.7.775-16.2a25.173,25.173,0,0,1-1.772-5.1s-1.772-7.5-6.092-8.9c-4.431-1.3-22.264.7-25.476,0s-.222-.9-.222-.9,2.437-1.6,2.215-3.1-5.428-4.4-6.646-7.3,0-6.4-2.658-7.5a32.236,32.236,0,0,1-8.861-6c-3.212-2.9-13.513-4-13.513-4s0,12.2-.222,14.2.222,8-.222,11.1-16.172,15.7-17.39,16.8-14.289-11.5-16.5-14.2,1.44-6,1.44-9.1-3.655-13-3.655-14.8A12.4,12.4,0,0,0,89.034,143.2Z" transform="translate(-28.953 -141.7)" fill="#3e3243"/>
        <path id="SvgjsPath19552" d="M60.642,175.2Zm128.981,25.7a89.388,89.388,0,0,0,1-9.5,19.1,19.1,0,0,0-.111-5,3.722,3.722,0,0,0-.442-1.3c-.111-.3-.332-.7-.442-1.1a13.079,13.079,0,0,1-.664-2.2,3.889,3.889,0,0,1-.221-1.1l-.332-1.2a21.029,21.029,0,0,0-.885-2.4,13.586,13.586,0,0,0-2.765-4.4,6.815,6.815,0,0,0-2.434-1.7,7.724,7.724,0,0,0-1.438-.4c-.442-.1-.885-.1-1.438-.2-1.77-.1-3.65-.1-5.42-.1-3.54.1-7.08.2-10.509.4-1.77.1-3.54.1-5.2.1h-.664a5.018,5.018,0,0,0,1.217-1.6,2.972,2.972,0,0,0,.111-2.2,5.685,5.685,0,0,0-1.106-1.4c-1.549-1.4-3.1-2.6-4.314-3.9a6.1,6.1,0,0,1-.774-1,3.371,3.371,0,0,1-.442-1.1,16.243,16.243,0,0,1-.442-2.6,10.706,10.706,0,0,0-.553-3,5.121,5.121,0,0,0-1.217-1.6,2.458,2.458,0,0,0-.885-.5l-.664-.3a29.4,29.4,0,0,1-4.867-3c-.774-.6-1.549-1.2-2.212-1.8a12.966,12.966,0,0,0-2.655-1.9,26.926,26.926,0,0,0-6.084-2,61.049,61.049,0,0,0-6.195-1.1l-1.217-.1v1.1c0,4.1,0,8.1-.111,12.2a6.856,6.856,0,0,1-.111,1.5l-.111.8v3.9a53.856,53.856,0,0,1-.111,6c0,.2-.111.5-.111.7l-.111.2-.111.3a7.325,7.325,0,0,1-.774,1.2,21.726,21.726,0,0,1-2.1,2.3,60.766,60.766,0,0,1-4.646,4.4c-1.659,1.4-3.208,2.9-4.867,4.2l-2.434,2.1-1.217,1.1-.664.5a5.519,5.519,0,0,1-1.217-.7l-1.327-.9a22.452,22.452,0,0,1-2.434-2c-1.659-1.4-3.208-2.8-4.757-4.3s-3.1-2.9-4.535-4.5a6.44,6.44,0,0,1-1.77-2.3,3.928,3.928,0,0,1,.332-2.7c.332-.9.774-1.9,1.217-2.9a6.26,6.26,0,0,0,.332-3.2,53.551,53.551,0,0,0-1.549-6c-.553-1.7-1-3.3-1.549-5a2.685,2.685,0,0,1-.221-.9l-.332-1.5c-.111-.5-.111-1-.221-1.5l-.332-1.5-.221-.7-.111-.4-.111-.2v-.2a.1.1,0,0,0-.111-.1c-.442.1-.664.1-1,.2l-.885.2-1.881.4-3.65.8c-2.434.6-4.867,1.1-7.411,1.7-1.217.3-2.434.6-3.65,1a8.144,8.144,0,0,0-.885.3,6.124,6.124,0,0,0-.885.6,3.657,3.657,0,0,0-.885,1.7,20.072,20.072,0,0,0-.442,3.5,7.067,7.067,0,0,1-.221,1.6c0,.1-.111.2-.111.3v.1a.4.4,0,0,1-.221.1l-.664.6c-3.54,3.3-6.969,6.7-10.177,10.3a12.232,12.232,0,0,0-1.106,1.4,5.533,5.533,0,0,0-.553.8.728.728,0,0,0-.221.5v.5a.944.944,0,0,0,.111.3l.111.1a8.529,8.529,0,0,0,1.549,1.3l1.549,1a20,20,0,0,1,2.765,2.1c.221.2.221.4.332.4v.1c0,.1-.111.2-.111.4-.111.2-.221.5-.332.7,0,.1-.111.2-.221.3v.1c-6.416,1.4-12.942,2.9-19.358,4.6-1.659.4-3.208.9-4.867,1.4l-1.217.4-1.217.5a2.664,2.664,0,0,0-1.217.9,8.967,8.967,0,0,0-.885,1,11.861,11.861,0,0,0-1.991,4.5,7.679,7.679,0,0,0,.442,4.7,35,35,0,0,0-.332,4.8,38.151,38.151,0,0,0,.442,5l2.1,9.5.221,5.7v.8h.885l38.938-.3c12.942-.1,26-.2,38.938-.2s26,0,38.938.1l38.938.3h.774v-.7l-.221-9.5-.111-4.7v-2.4c.442-.1.442-.8.553-1.6Zm-75.995-19.1c1.659-1.4,3.319-2.8,4.867-4.2,1.659-1.4,3.208-2.9,4.757-4.4.774-.8,1.549-1.6,2.212-2.4a16.963,16.963,0,0,0,1-1.4l.221-.4c0-.1.111-.2.111-.3.332-.3.664-.5,1-.8.885-.7,1.881-1.3,2.876-2a14.244,14.244,0,0,0,4.757-5.5,6.042,6.042,0,0,0,.332-3.7,7.2,7.2,0,0,0-1.77-3.2,15.471,15.471,0,0,0-5.863-4.1,23.7,23.7,0,0,1,4.425,5,7,7,0,0,1,1.106,2.7,5.7,5.7,0,0,1-.332,2.7,16.335,16.335,0,0,1-3.872,5c-.774.8-1.659,1.6-2.434,2.5l-.111.1a52.52,52.52,0,0,0,.111-5.9v-3.7l.111-.8c0-.5.111-1.1.111-1.6.111-3.7.221-7.4.221-11.1,1.549.2,3.1.5,4.646.8a23.421,23.421,0,0,1,5.531,1.8,7.66,7.66,0,0,1,2.1,1.6c.774.7,1.549,1.3,2.323,1.9.221.2.553.4.774.6.442,1.1.885,2.2,1.217,3.3a14.162,14.162,0,0,1,.664,4.7,3.89,3.89,0,0,1-.221,1.1,3.464,3.464,0,0,1-.664.9c-.553.6-1.217,1.2-1.77,1.9a41.82,41.82,0,0,0-3.429,3.9q2.157-1.65,3.982-3.3c.664-.6,1.327-1.2,1.881-1.8a3.173,3.173,0,0,0,.885-1.1,5.617,5.617,0,0,0,.332-1.3,11,11,0,0,0-1-5,11.76,11.76,0,0,0-1.327-2.6,23.387,23.387,0,0,0,3.872,2.2,5.71,5.71,0,0,0,.774.3c.111.1.332.1.442.2a1.811,1.811,0,0,1,.553.7,11.914,11.914,0,0,1,.442,2.5,14.649,14.649,0,0,0,.553,2.9,8.88,8.88,0,0,0,.664,1.5c0,.1.111.1.111.1v.3a7.052,7.052,0,0,1-.774,3.4,6.919,6.919,0,0,1-2.434,2.5,62.836,62.836,0,0,1-6.969,3.8l-7.19,3.6c-4.757,2.4-9.624,4.8-14.27,7.5-1.217.7-2.323,1.4-3.429,2.1l-1.659,1.2-.442.4c-.111.1-.221.3-.332.4l-.553.8c-1.327,1.9-2.544,3.9-3.761,5.8a47.18,47.18,0,0,0-4.757-3.1,12.532,12.532,0,0,0,1.217-1.2c.774-.7,1.438-1.4,2.1-2.1.553-.6,1.217-1.3,1.77-2l.442-.3,1.217-1,2.655-2.4Zm-2.655,14.5ZM107.986,184.6ZM67.943,156.2c.111-.1.111-.2.221-.3.111-.2.111-.4.221-.5.111-.6.111-1.2.221-1.8a15.971,15.971,0,0,1,.332-3.3,3.342,3.342,0,0,1,.664-1.4c.111-.2.332-.3.553-.5a8.144,8.144,0,0,1,.885-.3c1.217-.4,2.323-.8,3.54-1.1,2.434-.7,4.867-1.3,7.3-1.9l3.65-.9,1.881-.5.885-.2c.221-.1.664-.1.774-.2v.1l.111.2.111.4.221.7a7.023,7.023,0,0,1,.221,1.5c.111.5,0,1,.111,1.5l.332,1.5a2.684,2.684,0,0,1,.221.9,47.8,47.8,0,0,0-5.752,2.3,10.143,10.143,0,0,0-2.765,1.9A7.646,7.646,0,0,0,80,157a6.286,6.286,0,0,0-.111,3.2,15.525,15.525,0,0,0,.664,3.1,53.54,53.54,0,0,0,1.991,5.9l1.217,2.9c.221.5.332.9.553,1.4a3.014,3.014,0,0,0,1.106,1.4,32.657,32.657,0,0,0,5.752,3.4c1.991,1,4.093,1.9,6.084,2.7,1.991.9,4.2,1.6,6.084,2.6-3.761-2.2-7.965-3.9-11.836-6a49.138,49.138,0,0,1-5.531-3.4,2.572,2.572,0,0,1-.774-1.1c-.221-.5-.332-1-.553-1.5l-1.217-2.9a36.257,36.257,0,0,1-1.991-5.8l-.664-3a6.419,6.419,0,0,1,0-2.9c.442-1.9,2.212-3.3,4.093-4.4,1.77-1,3.65-1.8,5.531-2.7.442,1.6.885,3.3,1.327,4.9a40.43,40.43,0,0,1,1.327,5.9c.332,1.9-.885,3.7-1.659,5.7a5.37,5.37,0,0,0-.442,1.9l-.664-1.2a24.026,24.026,0,0,1-1.659-3.4,8.907,8.907,0,0,1-.664-3.4c0-1.2.111-2.5.221-3.8a7.748,7.748,0,0,0-1.991,3.7,7.192,7.192,0,0,0,.332,4.3,13.377,13.377,0,0,0,2.323,3.5,11.071,11.071,0,0,0,2.323,2.1,3.4,3.4,0,0,0,.774,1.2c.332.4.774.8,1.106,1.2,1.438,1.6,2.987,3.1,4.535,4.6s3.1,3,4.757,4.4c.774.7,1.659,1.4,2.544,2.1.442.3.885.7,1.327,1a7.436,7.436,0,0,0,1.659.9,6.731,6.731,0,0,1-.885.9,19.782,19.782,0,0,0-1.881,2.3c-.332.5-.664.9-1,1.4l-1.659-.9a21.759,21.759,0,0,0-3.872-1.6c-1.327-.4-2.544-.7-3.872-1.1-2.544-.7-5.2-1.4-7.743-2.2a41.48,41.48,0,0,1-7.3-2.8,8.14,8.14,0,0,1-1.438-.9,1.6,1.6,0,0,1-.442-.4V180l-.111-.5a35.85,35.85,0,0,0-1.438-3.6c-1.106-2.3-2.212-4.5-3.429-6.7-.664-1.1-1.217-2.2-1.991-3.3a11.524,11.524,0,0,1-.885-1.6,7.846,7.846,0,0,1-.553-1.7c-.553-2.2-.774-4.5-1.438-6.7-.111.4,0,.4,0,.3Zm-9.513,15.3-1.549-1a14.728,14.728,0,0,1-1.217-.9c0-.1,0-.1.111-.2a5.616,5.616,0,0,1,.442-.7,12.232,12.232,0,0,1,1.106-1.4c2.987-3.6,6.416-7,9.845-10.4l.332-.4c.221,2.2.221,4.4.664,6.6a14.9,14.9,0,0,0,.442,1.9c.221.6.553,1.3.774,1.8l1.659,3.3c1.106,2.2,2.1,4.5,3.1,6.8.442,1.1.885,2.3,1.217,3.4l.111.4.111.3a.732.732,0,0,0,.221.4,2.8,2.8,0,0,0,.885,1,9.857,9.857,0,0,0,1.881,1.2,45.038,45.038,0,0,0,7.743,2.9c2.655.8,5.2,1.4,7.854,2.1l3.982.9a21.027,21.027,0,0,1,3.54,1.3,56.341,56.341,0,0,1,6.416,3.5c-.221-.1-.553-.1-.774-.2q-3.982-.9-7.965-1.5c-5.31-.8-10.73-1.5-16.15-2.1-2.655-.3-5.42-.5-8.075-.8-.332,0-.664-.1-.885-.1h-.332c-.111,0-.111-.1-.221-.1a13.1,13.1,0,0,1-1.106-1.2c-.664-1-1.327-2.1-1.881-3.1-.553-1.1-1.217-2.2-1.881-3.3a18.562,18.562,0,0,0-2.544-3,44.034,44.034,0,0,0-3.982-3.7v-.3a2.856,2.856,0,0,0-.664-1,16.731,16.731,0,0,0-3.208-2.4Zm52.654,48c-12.942-.1-26-.1-38.938-.2L33.983,219l-.111-5v-.2l-1.991-9.6a33.767,33.767,0,0,1-.442-4.7,32.532,32.532,0,0,1,.332-4.7v-.3l-.111-.2a5.848,5.848,0,0,1-.332-3.9,8.818,8.818,0,0,1,1.659-3.9,5.635,5.635,0,0,1,.664-.8l.332-.3c.111-.1.221-.1.332-.2l1.106-.5,1.106-.4c1.549-.5,3.1-1,4.757-1.4,6.416-1.8,12.942-3.3,19.358-4.8h.221l.111-.1c.332-.2.332-.3.553-.5a2.158,2.158,0,0,0,.332-.5,1.511,1.511,0,0,0,.332-.9v-.2c1.106,1.2,2.1,2.4,3.1,3.6.332.5.774,1,1.106,1.5l.553.8a5.737,5.737,0,0,1,.442.8l1.659,3.3a26.017,26.017,0,0,0,1.881,3.4,6.536,6.536,0,0,0,1.438,1.7c.221.1.332.3.553.4.111.1.221.1.442.1l.332.1c.442.1.774.1,1.106.2,2.765.4,5.42.5,8.186.7,5.42.3,10.841.4,16.15,1a73.829,73.829,0,0,1,7.965,1.4,19.2,19.2,0,0,1,3.65,1.4c.111.1.221.1.442.2h.111l.221.1c.664.3.664-.9.553-.7,0-.1-.111-.1-.111-.1l-.111-.1-.221-.2-.774-.6a13.764,13.764,0,0,0-1.438-1.1c1.549-1.8,3.1-3.5,4.535-5.3l.664-.8.221-.3.332-.3a14.619,14.619,0,0,1,1.659-1c1.106-.6,2.323-1.3,3.54-1.9l14.491-7.1c2.434-1.2,4.757-2.4,7.19-3.7a70.331,70.331,0,0,0,6.969-4.2,7.875,7.875,0,0,0,2.655-3.2,6.333,6.333,0,0,0,.553-2.8c1.327,1.4,2.876,2.6,4.093,3.8.332.3.664.6.664.8a1.225,1.225,0,0,1-.111.5,4.369,4.369,0,0,1-1.217,1.3c-.221.1-.442.1-.664.2-.111,0-.221.1-.442.1-.111,0-.111,0-.221.1-.111,0-.221.1-.332.1a13.986,13.986,0,0,0-3.319,1.6c-4.093,2.4-7.743,5.2-11.615,7.6-1,.6-1.881,1.2-2.876,1.7a8.784,8.784,0,0,1-1.438.6c-.553.2-1.217.3-1.77.5a63.492,63.492,0,0,0-6.637,2.6,59.89,59.89,0,0,0-6.305,3.2c-1,.6-1.991,1.2-2.987,1.9a7.444,7.444,0,0,0-2.323,2.5,7.584,7.584,0,0,1,2.765-2,21.956,21.956,0,0,1,3.1-1.5c2.1-1,4.314-1.8,6.526-2.7,2.212-.8,4.425-1.6,6.637-2.3l1.659-.5c.664-.2,1.327-.5,1.881-.7,1.106-.6,2.1-1.2,3.1-1.8,3.982-2.6,7.522-5.4,11.283-7.9a13.8,13.8,0,0,1,2.1-1.2c.111.1.111.2.221.3a.361.361,0,0,0,.221.1l.111.1c.221.1.332.1.442.2.221.1.553.1.774.2a7.176,7.176,0,0,0,1.549.2h1.327c1.77,0,3.54-.1,5.31-.2,3.54-.2,6.969-.4,10.509-.5,1.77,0,3.429,0,5.088.1a5.435,5.435,0,0,1,3.982,1.6,13.791,13.791,0,0,1,2.434,3.8,13.2,13.2,0,0,1,.774,2.2c.111.4.221.7.332,1.1l.332,1.2a20.154,20.154,0,0,0,.774,2.4,5.808,5.808,0,0,0,.553,1.2,1.6,1.6,0,0,1,.221.5c0,.1.111.2.111.4a20.267,20.267,0,0,1,.111,4.5c-.111,3.1-.553,6.3-.885,9.4a17.432,17.432,0,0,0-.111,2.4v2.4l.111,4.8.442,8.8L166.5,219c.221-1.6.553-3.1.885-4.7.332-1.7.664-3.4.885-5.1.332-1.7.553-3.4.774-5.1.111-.9.221-1.7.332-2.6l.111-1.3c0-.4.111-.9.111-1.2a10.385,10.385,0,0,1,2.212-4.2,39.741,39.741,0,0,1,3.429-4c2.434-2.6,5.088-5.1,7.743-7.6a55.513,55.513,0,0,0-8.96,6.6,47.3,47.3,0,0,0-3.872,4c-1.106,1.5-2.323,3-2.655,5.1l-.885,10.4c-.111,1.7-.221,3.5-.332,5.2a34.781,34.781,0,0,0,.111,4.8l-16.04.1c-13.274.1-26.327.1-39.269.1ZM48.916,202.6a10.439,10.439,0,0,0-1.327-2,6.732,6.732,0,0,0-.885-.9l-.885-.8a19.485,19.485,0,0,0-3.982-2.4,31.667,31.667,0,0,0-4.314-1.7,17.426,17.426,0,0,0-4.535-1,72.752,72.752,0,0,1,7.965,4.1,28.46,28.46,0,0,1,3.429,2.5,4.9,4.9,0,0,1,.774.7c.221.2.442.5.664.7a5.533,5.533,0,0,1,.553.8,2.363,2.363,0,0,1,.442.9c1.217,2.5,2.1,5.1,3.208,7.7s2.1,5.2,3.319,7.8a67.672,67.672,0,0,0-1.659-8.2,40.378,40.378,0,0,0-2.765-8.2Z" transform="translate(-28.953 -141.7)" fill="#201424"/>
        <path id="SvgjsPath19554" d="M137.387,152.1c-1.3-3.3-3.244-2.5-4.974-4.1s-3.136-1.1-5.731-1.9a45.786,45.786,0,0,0,4.109,2.5c.973.4,3.028,6.9,2.7,9.5s-6.056,8.1-7.894,10.6-9.841,9.4-13.409,11.8-7.57,8.3-7.57,8.3,11.679-9.9,15.031-11.2c3.244-1.3,13.193-10.2,13.625-12.3s4.326-4.5,5.731-6.3-.324-3.6-1.622-6.9Zm37.74,29.5c1.19,1.7,3.244-.5,2.379-.9s-1.19-5.8-2.812-6.7-19.249.7-23.574.7-6.056,3.3-12.111,6.2a88.789,88.789,0,0,0,10.814-3c4.542-1.7,11.679-.9,16.545-.7A10.886,10.886,0,0,1,175.127,181.6Zm4.866,19c.433-5.8.865-14.1.865-14.1a6.609,6.609,0,0,0-3.677.4c-2.163.8-4.109,2.9-8.327,7.8,0,0,5.407-2.2,7.462-1.6,2.055.7,1.19,11,1.3,15.7a15.817,15.817,0,0,0,2.812,9.1c.865.8-.865-11.5-.433-17.3ZM77.371,176.7c-1.19-1.3-7.678-16.1-8.11-19s.433-8.2.108-8.3c-4.109-1.9-4.974,7.8-.973,13.9s5.731,15.1,7.245,16.4,23.574,8.6,21.411,7.4c-2.163-1.3-18.6-9.1-19.681-10.4ZM72.4,185.6c-.973-1.4-7.137-11.1-9.732-12.7s-6.164-3.4-6.164-3.4c2.6,1.1,9.841,9.9,12,13.2s1.3,5.1,3.136,5.4,12.76,2.1,12.76,2.1-11.03-3.2-12-4.6Z" transform="translate(-22.782 -141.7)" fill="#4f4652"/>
      </g>
      <g id="svga-group-head">
        <g id="svga-group-ears-left-move" transform="translate(27.173 70.789)">
          <g id="svga-group-ears-left" transform="translate(0 0)">
            <path id="SvgjsPath21621" d="M59.109,86.517S49.752,78.3,48.25,78.156c-1.292-.123-4.493,6.716-5.909,11.039a4.939,4.939,0,0,0,.209,3.515c1.359,3,4.37,9.262,7.068,12.4a10.416,10.416,0,0,0,3,.275c.722-.218,6.355-4.75,6.935-6.517s.7-9.472-.446-12.35Z" transform="translate(-42.008 -77.796)" fill="#f3d4cf"/>
            <path id="SvgjsPath21622" d="M59.917,89.718a32.458,32.458,0,0,1,.276,3.325c.047,1.112.047,2.223-.009,3.335-.028.56-.076,1.111-.143,1.672-.048.285-.086.56-.161.855a2.9,2.9,0,0,1-.389.808,14.253,14.253,0,0,1-2.071,2.356c-.741.7-1.5,1.368-2.271,2.014-.389.314-.779.636-1.187.931-.2.152-.409.294-.618.437l-.333.209a1.479,1.479,0,0,1-.447.161,5.763,5.763,0,0,1-1.529-.076c-.484-.067-.969-.161-1.453-.266l-.114-.029-.067-.085a31.026,31.026,0,0,1-3.135-4.741c-.922-1.662-1.757-3.382-2.565-5.111L42.513,92.9a5.139,5.139,0,0,1-.456-2.9,6.8,6.8,0,0,1,.37-1.406c.152-.447.314-.893.475-1.34.332-.884.665-1.767,1.016-2.641a34.51,34.51,0,0,1,2.46-5.054,7.968,7.968,0,0,1,.836-1.14,2.428,2.428,0,0,1,.57-.494.849.849,0,0,1,.437-.133,1.638,1.638,0,0,1,.4.1,12.452,12.452,0,0,1,2.309,1.482c1.444,1.083,2.831,2.233,4.189,3.43s2.708,2.4,4.028,3.677a14.753,14.753,0,0,1,.77,3.24Zm-9.3-9.795a12.9,12.9,0,0,0-2.175-1.349,1.742,1.742,0,0,0-.219-.067.344.344,0,0,0-.171.057,1.513,1.513,0,0,0-.428.37,8.018,8.018,0,0,0-.789,1.035,40.652,40.652,0,0,0-2.6,4.845c-.389.846-.77,1.691-1.1,2.575-.171.437-.332.874-.494,1.321a6.132,6.132,0,0,0-.38,1.34,4.852,4.852,0,0,0,.465,2.736q.6,1.3,1.254,2.565c.855,1.691,1.776,3.344,2.736,4.959a34.2,34.2,0,0,0,3.154,4.55l-.181-.1a10.463,10.463,0,0,0,2.764.276.733.733,0,0,0,.238-.1l.294-.19.589-.427c.389-.285.779-.6,1.168-.9.77-.627,1.52-1.273,2.251-1.957a16.079,16.079,0,0,0,2-2.185,2.414,2.414,0,0,0,.313-.6c.067-.228.114-.484.161-.741.076-.522.143-1.064.181-1.605.076-1.083.114-2.176.124-3.277s-.038-2.195-.124-3.287a13.536,13.536,0,0,0-.561-3.22c-2.812-2.223-5.614-4.513-8.474-6.622Z" transform="translate(-42.008 -77.796)" fill="#e4b3ab"/>
            <path id="SvgjsPath21623" d="M59.327,93.47S50.312,82.08,48.621,83.03s-4.351,6.318-4.341,8.1c.019,2.632,2.8,7.03,4.2,8.36a5.51,5.51,0,0,0,5.32,1.625c2.232-.513,5.529-7.648,5.529-7.648Z" transform="translate(-42.008 -77.796)" fill="#e4b3ab"/>
            <path id="SvgjsPath21624" d="M53.542,96.653c-.323-1.083-.694-2.147-1.074-3.2s-.791-2.1-1.216-3.135-.883-2.052-1.387-3.05a28.131,28.131,0,0,0-1.653-2.9l-.066-.1-.067.1c-.627.988-1.216,1.995-1.786,3.04-.285.523-.551,1.045-.807,1.587s-.484,1.1-.7,1.662l-.038.085.038.1c.39,1.178.8,2.337,1.226,3.506.209.58.456,1.15.694,1.719a14.593,14.593,0,0,0,.826,1.691l.161.257.209-.19a6.218,6.218,0,0,0,.731-.855A7.168,7.168,0,0,0,49.21,96a4.967,4.967,0,0,0,.5-2.3v-.048l-.019-.038c-.418-.826-.864-1.644-1.292-2.47l-.048.028c.352.865.7,1.739,1.074,2.594l-.019-.086a4.744,4.744,0,0,1-.579,2.052,6.281,6.281,0,0,1-1.254,1.615l.37.066a14.773,14.773,0,0,1-.77-1.606l-.684-1.7c-.456-1.14-.884-2.289-1.311-3.439v.19a30.912,30.912,0,0,1,1.311-3.3A21.253,21.253,0,0,1,48.2,84.5H48.07a19.469,19.469,0,0,1,1.472,2.955l1.292,3.078,1.311,3.078c.437,1.026.874,2.052,1.34,3.069l.057-.028Z" transform="translate(-42.008 -77.796)" fill="#c5796d"/>
          </g>
        </g>
        <g id="svga-group-ears-right-move" transform="translate(113.338 70.798)">
          <g id="svga-group-ears-right" transform="translate(0 0)">
            <path id="SvgjsPath21625" d="M130.891,86.517s9.358-8.218,10.859-8.36c1.292-.123,4.493,6.716,5.909,11.039a4.939,4.939,0,0,1-.209,3.515c-1.358,3-4.37,9.262-7.068,12.4a10.416,10.416,0,0,1-3,.275c-.722-.218-6.355-4.75-6.935-6.517s-.7-9.472.446-12.35Z" transform="translate(-129.793 -77.805)" fill="#f3d4cf"/>
            <path id="SvgjsPath21626" d="M130.863,86.488c1.33-1.273,2.66-2.489,4.028-3.676s2.755-2.347,4.189-3.43a13.515,13.515,0,0,1,2.309-1.482,1.294,1.294,0,0,1,.4-.1.849.849,0,0,1,.437.133,2.636,2.636,0,0,1,.57.494,8.768,8.768,0,0,1,.836,1.14,34.51,34.51,0,0,1,2.461,5.054c.361.874.684,1.757,1.016,2.641.161.447.323.893.475,1.34a6.8,6.8,0,0,1,.37,1.406,5.139,5.139,0,0,1-.456,2.9l-1.187,2.612c-.808,1.729-1.643,3.449-2.565,5.111a30.567,30.567,0,0,1-3.135,4.741l-.067.085-.1.019c-.484.1-.969.19-1.453.266a6.191,6.191,0,0,1-1.529.076,1.332,1.332,0,0,1-.447-.161l-.333-.209c-.209-.143-.418-.285-.617-.437-.408-.3-.8-.618-1.187-.931-.779-.636-1.539-1.311-2.271-2.014a13.877,13.877,0,0,1-2.071-2.356,2.9,2.9,0,0,1-.389-.807,5.854,5.854,0,0,1-.161-.855c-.067-.561-.114-1.121-.142-1.672-.057-1.111-.057-2.223-.01-3.335s.124-2.223.275-3.325a13.1,13.1,0,0,1,.76-3.23Zm.057.048a14.465,14.465,0,0,0-.561,3.221c-.085,1.092-.133,2.194-.124,3.287s.048,2.185.124,3.277c.038.542.1,1.083.181,1.606.048.256.1.513.161.741a2.259,2.259,0,0,0,.313.6,16.08,16.08,0,0,0,2,2.185c.722.684,1.482,1.34,2.251,1.957.39.314.77.618,1.169.9l.589.427.294.19a.733.733,0,0,0,.238.095,10.464,10.464,0,0,0,2.765-.275l-.181.1a34.2,34.2,0,0,0,3.154-4.55q1.446-2.435,2.736-4.959c.428-.846.855-1.7,1.254-2.565a4.853,4.853,0,0,0,.465-2.736,6.132,6.132,0,0,0-.38-1.34c-.152-.446-.323-.883-.494-1.32-.333-.874-.722-1.729-1.1-2.575a40.652,40.652,0,0,0-2.6-4.845,8.017,8.017,0,0,0-.788-1.035,2.419,2.419,0,0,0-.427-.37.3.3,0,0,0-.171-.057c-.048,0-.143.057-.219.066a12.9,12.9,0,0,0-2.175,1.349c-2.869,2.119-5.672,4.408-8.474,6.621Z" transform="translate(-129.793 -77.805)" fill="#e4b3ab"/>
            <path id="SvgjsPath21627" d="M130.673,93.47s9.016-11.39,10.706-10.44,4.351,6.318,4.342,8.1c-.019,2.632-2.8,7.03-4.2,8.36a5.532,5.532,0,0,1-5.32,1.625C133.969,100.605,130.673,93.47,130.673,93.47Z" transform="translate(-129.793 -77.805)" fill="#e4b3ab"/>
            <path id="SvgjsPath21628" d="M136.458,96.653c.323-1.083.693-2.147,1.074-3.2s.8-2.1,1.216-3.135.883-2.052,1.387-3.049a28.132,28.132,0,0,1,1.653-2.9l.067-.1.067.1c.627.988,1.216,1.995,1.786,3.04.285.523.551,1.045.808,1.587s.484,1.1.7,1.662l.038.085-.038.1c-.389,1.178-.8,2.337-1.225,3.506-.209.58-.456,1.15-.693,1.719a14.594,14.594,0,0,1-.826,1.691l-.161.257-.209-.19a6.218,6.218,0,0,1-.732-.855A7.169,7.169,0,0,1,140.79,96a4.967,4.967,0,0,1-.5-2.3v-.048l.019-.038c.418-.826.865-1.644,1.292-2.47l.048.028c-.352.865-.7,1.739-1.074,2.594l.019-.086a4.744,4.744,0,0,0,.579,2.052,6.282,6.282,0,0,0,1.254,1.615l-.37.066a14.771,14.771,0,0,0,.77-1.606l.684-1.7c.456-1.14.883-2.289,1.311-3.439v.19a30.909,30.909,0,0,0-1.311-3.3A21.253,21.253,0,0,0,141.8,84.5h.133a19.469,19.469,0,0,0-1.473,2.955l-1.292,3.078-1.311,3.078c-.437,1.026-.874,2.052-1.339,3.069l-.057-.028Z" transform="translate(-129.793 -77.805)" fill="#c5796d"/>
          </g>
        </g>
        <g id="svga-group-faceshape-wrap" transform="translate(35.871 19.301)">
          <g id="svga-group-faceshape-single">
            <path id="SvgjsPath21573" d="M130.464,49.79c-6.432-7.4-10.848-13.2-27.648-17.3a76.508,76.508,0,0,0-13.536,0c-16.8,4.1-21.216,9.9-27.648,17.3-6.816,7.8-9.12,28.994-9.12,28.994,0,9.6,1.248,32.294,12.768,47.191,17.088,22.2,30.816,22.3,30.816,22.3s13.632,0,30.816-22.3c11.52-14.9,12.768-37.592,12.768-47.191-.1,0-2.4-21.2-9.216-28.994Z" transform="translate(-52.512 -32.194)" fill="#f3d4cf"/>
            <path id="SvgjsPath21574" d="M102.816,32.493a76.508,76.508,0,0,0-13.536,0c-16.8,4.1-21.216,9.9-27.648,17.3-6.816,7.8-9.12,28.994-9.12,28.994,0,9.6,1.248,32.294,12.768,47.191,17.088,22.2,30.816,22.3,30.816,22.3s13.632,0,30.816-22.3c11.52-14.9,12.768-37.592,12.768-47.191,0,0-2.3-21.2-9.12-28.994-6.624-7.4-11.04-13.2-27.744-17.3Zm33.5,31.294c.672,2.5,1.056,5,1.536,7.5.384,2.5.672,5,.96,7.5a113.106,113.106,0,0,1-2.88,22,77.575,77.575,0,0,1-3.168,10.5c-.672,1.7-1.344,3.4-2.112,5a44.4,44.4,0,0,1-2.592,4.7l-1.44,2.2c-.288.4-3.264,4.2-3.264,4.2l-3.552,4.1-5.856,5.7a53.126,53.126,0,0,1-8.64,6.2l-1.152.6-1.152.6a17.46,17.46,0,0,1-2.4,1l-1.248.4c-.384.1-.768.2-1.248.3a10.773,10.773,0,0,1-2.784.4s-1.344-.2-1.824-.3c-.384-.1-.864-.2-1.248-.3l-1.248-.4a24.437,24.437,0,0,1-2.4-1l-1.152-.5-1.152-.6a47.276,47.276,0,0,1-8.736-6l-3.936-3.6-3.744-3.9-.96-1-.864-1-1.728-2.1a35.977,35.977,0,0,1-3.168-4.4,38.07,38.07,0,0,1-2.688-4.8c-.768-1.6-1.536-3.3-2.208-5.1a48.53,48.53,0,0,1-1.728-5.3c-.48-1.8-.96-3.6-1.344-5.4a50.374,50.374,0,0,1-.96-5.5c-.288-1.8-.48-3.7-.672-5.5a107.282,107.282,0,0,1-.48-11.1c.288-2.3.768-4.6,1.152-6.9.48-2.3,1.056-4.6,1.632-6.8.672-2.2,1.344-4.5,2.208-6.6a29.775,29.775,0,0,1,1.344-3.1,34.953,34.953,0,0,1,6.048-8.1,53.472,53.472,0,0,1,4.8-4.7,41.266,41.266,0,0,1,11.52-6.5l1.536-.6a34.875,34.875,0,0,1,11.328-2.3,58.007,58.007,0,0,1,6.72-.1,31.355,31.355,0,0,1,6.528,1.4,38.112,38.112,0,0,1,6.432,2.3c.288.1,1.536.7,1.536.7.48.3,2.5,1.3,2.976,1.7a57.04,57.04,0,0,1,6.624,5.4c1.632,1.7,3.168,3.4,4.7,5.2a23.238,23.238,0,0,1,3.744,6.6,40.476,40.476,0,0,1,2.4,7.3Z" transform="translate(-52.512 -32.194)" fill="#c5796d"/>
          </g>
        </g>
        <g id="svga-group-mouth-single-move" transform="translate(65.725 110.008)">
          <g id="svga-group-mouth-single">
            <path id="SvgjsPath20193" d="M82.27,117.135a10.67,10.67,0,0,0,3.515.285c1.14-.1,2.47-.19,3.515-.285a11.46,11.46,0,0,1,5.985,1.045c1.235.475,2.09,1.33,2.565,1.235s1.14-.855,2.375-1.995,3.135-1.235,5.32-1.14c.76,0,1.9.1,2.945.19a9.3,9.3,0,0,0,3.04-.38c.1,0-2.09-.475-3.61-1.045-2.755-.95-9.5-1.9-13.87-1.045-2.185.475-4.845,1.33-7.98,2.28-1.235.38-3.04.38-3.8.855Zm3.61,4.37s7.125,1.805,11.4,1.71,10.735-3.23,10.735-3.23a32.588,32.588,0,0,1-5.225,2.755,20.254,20.254,0,0,1-10.64.76c-4.845-1.045-6.27-2-6.27-2Z" transform="translate(-82.27 -113.667)" fill="#d7848d"/>
          </g>
        </g>
        <g id="svga-group-eyes-left-move" transform="translate(42.21 67.15)">
          <g id="svga-group-eyes-left" transform="translate(0 0)">
            <g id="svga-group-eyesback-left" transform="translate(4.95 0.45)">
              <path id="SvgjsPath21315" d="M72.18,69.48a11.708,11.708,0,1,1-12.15,11.7A11.894,11.894,0,0,1,72.18,69.48Z" transform="translate(-60.03 -69.48)" fill="#fff"/>
            </g>
            <g id="svga-group-eyesiriswrapper-left" transform="translate(12.06 7.11)">
              <g id="svga-group-eyesiriscontrol-left">
                <g id="svga-group-eyesiris-left">
                  <path id="SvgjsPath19448" d="M72.18,76.14a5.04,5.04,0,1,1-5.04,5.04A5.032,5.032,0,0,1,72.18,76.14Z" transform="translate(-67.14 -76.14)" fill="#3b2a15"/>
                  <path id="SvgjsPath19449" d="M72.18,78.48a2.7,2.7,0,1,1-2.7,2.7A2.652,2.652,0,0,1,72.18,78.48Z" transform="translate(-67.14 -76.14)"/>
                  <path id="SvgjsPath19450" d="M71.55,79.02l-.54-.54a1.019,1.019,0,0,0-1.44,1.44l.54.54a1.095,1.095,0,0,0,1.44,0A1.089,1.089,0,0,0,71.55,79.02Zm2.43,4.59a.675.675,0,1,0,0-1.35A.675.675,0,0,0,73.98,83.61Z" transform="translate(-67.14 -76.14)" fill="#fff"/>
                </g>
              </g>
            </g>
            <g id="svga-group-eyesfront-left">
              <path id="SvgjsPath21323" d="M72.18,69.03A12.248,12.248,0,1,0,84.87,81.27,12.47,12.47,0,0,0,72.18,69.03Zm2.88,18.36a10.593,10.593,0,0,1-8.82-.18c-2.34-.99-5.94-4.95-5.94-4.95s3.42-3.33,5.31-4.05,9-1.53,10.98,0,3.96,3.42,3.96,3.42c-.45.72-1.98,4.32-5.49,5.76Z" transform="translate(-55.08 -69.03)" fill="#f3d4cf"/>
              <path id="SvgjsPath21324" d="M60.12,82.17s4.32-3.24,5.4-3.87,6.93-1.08,9.63-.36c3.87,1.08,6.39,5.04,6.39,5.04a20.469,20.469,0,0,0-.63-4.59c-.72-2.43-4.68-6.21-4.68-6.21s-4.95-1.71-7.56-.81S64.44,74.88,63,76.95c-1.44,1.98-2.43,3.33-2.88,5.22Z" transform="translate(-55.08 -69.03)" fill="#ebc3bd"/>
              <path id="SvgjsPath21325" d="M81.54,83.16v-.18a18.611,18.611,0,0,0-.27-3.15,7.622,7.622,0,0,0-.36-1.53,6.967,6.967,0,0,0-.63-1.44,16.741,16.741,0,0,0-1.89-2.52c-.72-.81-1.44-1.62-2.16-2.34h-.09a25.258,25.258,0,0,0-2.79-.72,15.754,15.754,0,0,0-2.88-.36,7.742,7.742,0,0,0-1.44.09,3.976,3.976,0,0,0-1.44.54,7.363,7.363,0,0,0-2.25,1.8,18.588,18.588,0,0,0-1.71,2.25c-.54.81-1.08,1.62-1.62,2.34-.99,1.62-1.89,2.34-2.34,4.23l.36.27a26.12,26.12,0,0,0,4.59,4.32,7.445,7.445,0,0,0,1.44.81c.45.18.99.36,1.53.54a17.708,17.708,0,0,0,3.15.54,9.7,9.7,0,0,0,6.03-1.98,10.774,10.774,0,0,0,2.16-2.34,13.287,13.287,0,0,0,1.44-2.43,11.4,11.4,0,0,1,.99,1.17l.18.09Zm-.99-1.35c-.09-.09-.09-.09-.09,0a13.322,13.322,0,0,0-.72,1.17c-.27.45-.63.81-.9,1.26a10.291,10.291,0,0,1-2.25,2.16,7.843,7.843,0,0,1-2.79,1.26,11.43,11.43,0,0,1-3.06.45,11.986,11.986,0,0,1-3.06-.45,6.822,6.822,0,0,1-1.44-.54,9.836,9.836,0,0,1-1.35-.72c-.81-.63-1.62-1.26-2.43-1.98-.72-.72-1.44-1.44-2.07-2.16l-.36-.27a5.2,5.2,0,0,1,.45-1.26c.09-.09.09-.18.18-.36a20.936,20.936,0,0,1,1.53-2.34,42.267,42.267,0,0,1,3.42-4.5,10.052,10.052,0,0,1,2.16-1.71,5.2,5.2,0,0,1,1.26-.45,6.811,6.811,0,0,1,1.35-.09,23.5,23.5,0,0,1,5.49.99c.72.72,1.44,1.44,2.07,2.16a22.245,22.245,0,0,1,1.89,2.43,4.559,4.559,0,0,1,.63,1.35,9.415,9.415,0,0,1,.36,1.53c.18.99.27,1.89.36,2.88.18.09-.63-.81-.63-.81Z" transform="translate(-55.08 -69.03)" fill="#664747"/>
              <path id="SvgjsPath21326" d="M81.63,83.25s-1.35-3.78-3.51-5.22c-1.62-1.08-6.57-2.34-10.26-1.8s-7.65,3.33-8.64,3.69a5.021,5.021,0,0,1-4.14.09,13.11,13.11,0,0,0,4.59,2.88,30.854,30.854,0,0,1,6.3-3.87,15.434,15.434,0,0,1,8.73-.81c2.61.72,3.69,1.35,6.93,5.04Z" transform="translate(-55.08 -69.03)" fill="#664747"/>
            </g>
          </g>
        </g>
        <g id="svga-group-eyes-right-move" transform="translate(86.63 67.15)">
          <g id="svga-group-eyes-right" transform="translate(0 0)">
            <g id="svga-group-eyesback-right" transform="translate(0.54 0.45)">
              <path id="SvgjsPath21316" d="M107.82,69.48a11.708,11.708,0,1,1-12.15,11.7A11.894,11.894,0,0,1,107.82,69.48Z" transform="translate(-95.67 -69.48)" fill="#fff"/>
            </g>
            <g id="svga-group-eyesiriswrapper-right" transform="translate(8.28 7.74)">
              <g id="svga-group-eyesiriscontrol-right">
                <g id="svga-group-eyesiris-right">
                  <path id="SvgjsPath19451" d="M107.82,76.77a4.41,4.41,0,1,1-4.41,4.41A4.417,4.417,0,0,1,107.82,76.77Z" transform="translate(-103.41 -76.77)" fill="#3b2a15"/>
                  <path id="SvgjsPath19452" d="M107.82,78.75a2.43,2.43,0,1,1-2.43,2.43A2.42,2.42,0,0,1,107.82,78.75Z" transform="translate(-103.41 -76.77)"/>
                  <path id="SvgjsPath19453" d="M107.28,79.29c-.18-.18-.27-.36-.45-.45a1.344,1.344,0,0,0-.63-.27.972.972,0,0,0-.63.27.817.817,0,0,0-.27.63.972.972,0,0,0,.27.63c.18.18.36.27.45.45a.7.7,0,0,0,.63.27.972.972,0,0,0,.63-.27A1.072,1.072,0,0,0,107.28,79.29Zm2.16,4.05a.587.587,0,0,0,0-1.17A.587.587,0,0,0,109.44,83.34Z" transform="translate(-103.41 -76.77)" fill="#fff"/>
                </g>
              </g>
            </g>
            <g id="svga-group-eyesfront-right">
              <path id="SvgjsPath21327" d="M107.82,69.03a12.248,12.248,0,1,0,12.69,12.24,12.47,12.47,0,0,0-12.69-12.24Zm6.21,18.9c-2.34,1.08-6.3,1.17-9.81-.36s-4.86-5.22-5.4-6.03a36.7,36.7,0,0,1,3.69-3.15c1.98-1.62,9.27-.99,11.16-.18s5.31,3.87,5.31,3.87-2.61,4.77-4.95,5.85Z" transform="translate(-95.13 -69.03)" fill="#f3d4cf"/>
              <path id="SvgjsPath21330" d="M118.89,81.9a18.224,18.224,0,0,0-5.67-2.7c-1.17-.36-6.48-1.26-9.18-.72s-6.3,4.32-6.3,4.32a14.814,14.814,0,0,1,.63-3.87c.72-1.98,4.68-5.13,4.68-5.13s4.32-.72,6.84,0a13.434,13.434,0,0,1,6.3,3.87A10.351,10.351,0,0,1,118.89,81.9Z" transform="translate(-95.13 -69.03)" fill="#ebc3bd"/>
              <path id="SvgjsPath21331" d="M118.44,80.46c-.45-.72-.9-1.44-1.44-2.16a9.566,9.566,0,0,0-.81-.99,4.717,4.717,0,0,0-.99-.9,13.183,13.183,0,0,0-2.16-1.53,11.044,11.044,0,0,0-2.34-1.08,12.61,12.61,0,0,0-2.52-.54,24.536,24.536,0,0,0-5.13.27h-.18a18.8,18.8,0,0,0-1.98,1.8,13.513,13.513,0,0,0-1.8,2.07,5.1,5.1,0,0,0-.72,1.17,7.5,7.5,0,0,0-.36,1.35,14.651,14.651,0,0,0-.27,2.79v.18l.18-.09A10.787,10.787,0,0,1,99,81.81a21.067,21.067,0,0,0,1.35,2.43,9.653,9.653,0,0,0,2.25,2.43,9.32,9.32,0,0,0,2.97,1.53,13.75,13.75,0,0,0,3.24.63,9.832,9.832,0,0,0,3.24-.18,10.881,10.881,0,0,0,1.62-.45,3.2,3.2,0,0,0,.81-.36c.27-.18.45-.27.72-.45a11.9,11.9,0,0,0,2.25-2.52c.63-.9,1.17-1.8,1.71-2.7-.18.09-.18-.81-.72-1.71ZM117,84.69a13.913,13.913,0,0,1-2.16,2.43,6.737,6.737,0,0,1-2.88,1.17,18.5,18.5,0,0,1-3.15.18,19.223,19.223,0,0,1-3.15-.54,9.326,9.326,0,0,1-2.88-1.35,14.7,14.7,0,0,1-3.87-4.86,9.564,9.564,0,0,1-.99.81v-.18a9.77,9.77,0,0,1,.36-2.25,5.2,5.2,0,0,1,.45-1.26,7.506,7.506,0,0,1,.72-1.08,13.017,13.017,0,0,1,1.89-1.98,18,18,0,0,1,1.98-1.71,30.36,30.36,0,0,1,4.95-.18,11.534,11.534,0,0,1,2.43.45c.81.27,1.53.63,2.34.99a8.5,8.5,0,0,1,2.07,1.44,4.266,4.266,0,0,1,.9.9,9.564,9.564,0,0,1,.81.99c.45.54,1.98,3.6,1.98,3.6-.54.72-1.17,1.62-1.8,2.43Z" transform="translate(-95.13 -69.03)" fill="#664747"/>
              <path id="SvgjsPath21332" d="M97.38,83.34s4.14-3.78,6.21-4.41,7.56,0,9.36.54a57.707,57.707,0,0,1,6.75,3.42c.63.36,3.24-1.62,3.78-2.34a6.3,6.3,0,0,1-4.5-.45c-.9-.36-5.49-2.88-8.01-2.97-2.61-.09-7.02,0-8.28.72C99.54,79.38,97.38,83.34,97.38,83.34Z" transform="translate(-95.13 -69.03)" fill="#664747"/>
            </g>
          </g>
        </g>
        <g id="svga-group-eyebrows-left-move" transform="translate(43.087 57.267)">
          <g id="svga-group-eyebrows-left-rotate" transform="translate(0 1.91) rotate(-3.75)">
            <g id="svga-group-eyebrows-left">
              <path id="SvgjsPath20551" d="M0,5.63S7.64.23,8.86.01,28.35,3.1,28.81,4.13a3.293,3.293,0,0,1-1.4,3.76C26.08,8.53,14.78,3.91,9.5,2.72,7.5,2.27,0,5.63,0,5.63Z" transform="translate(0.03 0.29)" fill="#4f3427"/>
              <path id="SvgjsPath20552" d="M0,5.94c.01.02.08.01.08,0l.03-.01.06-.02.12-.05.23-.09.47-.18.94-.35c.63-.23,1.26-.45,1.89-.67A32.8,32.8,0,0,1,7.65,3.45c.32-.07.64-.12.96-.16a2.9,2.9,0,0,1,.89.02q.96.24,1.92.54c1.27.39,2.55.8,3.81,1.23,2.54.85,5.07,1.71,7.65,2.49.64.19,1.29.39,1.95.55a12.068,12.068,0,0,0,2.04.38,1.754,1.754,0,0,0,.62-.06l.09-.03.06-.04.12-.07a1.6,1.6,0,0,0,.23-.16,3.059,3.059,0,0,0,.69-.8,3.915,3.915,0,0,0,.53-1.9,2.6,2.6,0,0,0-.16-.99.488.488,0,0,0-.06-.13c-.04-.07-.09-.09-.13-.13a1.492,1.492,0,0,0-.24-.14,4.781,4.781,0,0,0-.48-.19c-.65-.22-1.3-.39-1.95-.55-1.31-.33-2.62-.61-3.94-.9C19.62,1.83,17,1.23,14.35.73,13.02.49,11.69.26,10.34.1,10,.06,9.66.02,9.31.01,9.22.01,9.13,0,9.03,0a1.09,1.09,0,0,0-.17.01c-.06.01-.1.03-.15.04a2.8,2.8,0,0,0-.52.22C7.57.59,7.01.94,6.45,1.29,5.33,2,4.26,2.77,3.18,3.53Q2.37,4.1,1.59,4.7L.8,5.29l-.39.3-.19.15-.1.08c-.05.01-.1.08-.12.12Zm.92-.49-.34.16.32-.2.83-.53L3.4,3.82c1.11-.71,2.23-1.41,3.36-2.09.56-.34,1.14-.67,1.71-.95l.21-.1c.07-.04.13-.04.19-.07L8.96.58h.08a1.848,1.848,0,0,1,.23.01c.32.02.65.06.98.1,1.32.18,2.65.38,3.98.59s2.66.4,3.99.62,2.65.45,3.97.72,2.63.57,3.92.92a16.809,16.809,0,0,1,1.9.6c.15.06.3.12.44.19a1.419,1.419,0,0,1,.18.11c.02.02.05.04.04.04.01,0,.02.06.03.08a2.287,2.287,0,0,1,.09.87,3.7,3.7,0,0,1-.57,1.69,2.623,2.623,0,0,1-.6.64,1.877,1.877,0,0,1-.18.12l-.09.05-.05.03h-.03a1.139,1.139,0,0,1-.38.01,11.309,11.309,0,0,1-1.91-.42c-.64-.18-1.28-.38-1.91-.58-2.54-.82-5.05-1.74-7.61-2.57-1.28-.41-2.56-.82-3.86-1.17-.65-.18-1.31-.35-1.98-.49a3.01,3.01,0,0,0-1.12,0c-.35.05-.69.12-1.02.2A30.88,30.88,0,0,0,3.65,4.26c-.62.25-1.23.52-1.84.79l-.89.4Z" fill="#402619"/>
            </g>
          </g>
        </g>
        <g id="svga-group-eyebrows-right-move" transform="translate(87.443 60.701)">
          <g id="svga-group-eyebrows-right-rotate" transform="translate(0 3.54) rotate(-7.5)">
            <g id="svga-group-eyebrows-right">
              <path id="SvgjsPath20553" d="M26.9,6.052S20.082.3,18.952.022.682,2.182.2,3.192a3.4,3.4,0,0,0,1.11,3.82c1.21.7,11.94-3.37,16.91-4.31C20.1,2.342,26.9,6.052,26.9,6.052Z" transform="translate(0.18 0.288)" fill="#4f3427"/>
              <path id="SvgjsPath20554" d="M27.022,6.24l-.09-.08L26.762,6l-.35-.32-.7-.63c-.47-.42-.94-.84-1.42-1.24-.96-.81-1.92-1.62-2.93-2.39-.5-.38-1.01-.76-1.56-1.1a2.93,2.93,0,0,0-.47-.24.784.784,0,0,0-.14-.05,1.154,1.154,0,0,0-.16-.02,2.348,2.348,0,0,0-.26-.01c-.33,0-.64.02-.96.05-1.26.1-2.51.26-3.76.44-2.49.37-4.96.85-7.43,1.3-1.24.23-2.47.45-3.7.72-.61.14-1.23.28-1.84.46a4.277,4.277,0,0,0-.46.17.894.894,0,0,0-.23.13,1.309,1.309,0,0,0-.13.12.687.687,0,0,0-.06.13A3.058,3.058,0,0,0,0,4.5,4.318,4.318,0,0,0,.4,6.43a2.836,2.836,0,0,0,.6.83,1.632,1.632,0,0,0,.2.17l.11.08.06.04.08.04a1.562,1.562,0,0,0,.57.09,10.832,10.832,0,0,0,1.92-.28c.62-.13,1.23-.3,1.84-.46,2.43-.66,4.83-1.4,7.24-2.13q1.8-.555,3.6-1.05c.6-.16,1.21-.32,1.81-.44a2.128,2.128,0,0,1,.83.02,7.615,7.615,0,0,1,.89.21,32.82,32.82,0,0,1,3.5,1.3c.57.25,1.15.5,1.72.76l.85.4.43.2.21.1.11.05.05.03.03.01c-.01,0,.06.02.07,0a.339.339,0,0,0-.1-.16Zm-1.56-.86c-.55-.3-1.11-.6-1.67-.88A27.78,27.78,0,0,0,20.3,3c-.31-.1-.62-.18-.94-.25a2.976,2.976,0,0,0-1.04-.05c-.63.11-1.25.25-1.86.39-1.23.29-2.44.64-3.65.99-2.41.71-4.8,1.5-7.2,2.21-.6.17-1.2.34-1.81.49a10.579,10.579,0,0,1-1.79.33.965.965,0,0,1-.36-.03l-.03-.01-.04-.03L1.5,6.98a.653.653,0,0,1-.16-.13,2.346,2.346,0,0,1-.53-.67,3.91,3.91,0,0,1-.44-1.71A2.424,2.424,0,0,1,.5,3.61c.01-.03.03-.08.03-.08l.04-.04a.768.768,0,0,1,.18-.1,3.073,3.073,0,0,1,.42-.17,15.427,15.427,0,0,1,1.8-.5c1.22-.29,2.45-.53,3.69-.73s2.48-.37,3.73-.53,2.49-.3,3.74-.43,2.49-.28,3.73-.4c.31-.03.62-.05.92-.06h.21a.564.564,0,0,1,.07.01.689.689,0,0,0,.08.03,1.3,1.3,0,0,1,.17.08L19.5.8c.52.31,1.04.66,1.54,1.03,1.01.73,2.02,1.48,3.02,2.24l1.5,1.14.75.57.28.22-.31-.18-.82-.44Z" fill="#402619"/>
            </g>
          </g>
        </g>
        <g id="svga-group-nose-single-move" transform="translate(69.498 94.974)">
          <g id="svga-group-nose-single" transform="translate(0 0)">
            <path id="SvgjsPath22499" d="M87.58,99.427a15.97,15.97,0,0,0-.959,3.563,3.734,3.734,0,0,0,.1,1.729l.076.181.114.171a.664.664,0,0,0,.123.152,1.01,1.01,0,0,0,.143.143,1.558,1.558,0,0,0,.7.332,4.228,4.228,0,0,0,1.71-.1l.447-.1.237-.057.123-.028.152-.019a2.137,2.137,0,0,1,1.073.256,10.091,10.091,0,0,1,1.587,1.083l.18.133a1.429,1.429,0,0,0,.161.095,1.505,1.505,0,0,0,.361.143,2.833,2.833,0,0,0,.8.1,2.492,2.492,0,0,0,1.5-.513l.152-.133.18-.161a5.566,5.566,0,0,1,1.226-.865,3.163,3.163,0,0,1,.988-.313,2.212,2.212,0,0,1,.56,0c.1.009.19.038.285.057l.247.1a2.847,2.847,0,0,0,.8.143,4.486,4.486,0,0,0,.874-.028,2.543,2.543,0,0,0,1.52-.589,1.268,1.268,0,0,0,.266-.722,3.932,3.932,0,0,0-.01-.884,10.977,10.977,0,0,0-1.045-3.524,10.217,10.217,0,0,1,1.425,3.468,4.659,4.659,0,0,1,.076.969,1.768,1.768,0,0,1-.314,1.017,2.011,2.011,0,0,1-.865.6,4.347,4.347,0,0,1-.96.256,5.661,5.661,0,0,1-.979.076,3.077,3.077,0,0,1-1.026-.161l-.19-.066a1.071,1.071,0,0,0-.171-.028,1.231,1.231,0,0,0-.37.019,2.675,2.675,0,0,0-.77.275,4.372,4.372,0,0,0-.713.465c-.114.085-.218.19-.332.285l-.161.152-.2.181a3.175,3.175,0,0,1-1.957.694,3.21,3.21,0,0,1-1.035-.143,2.565,2.565,0,0,1-.5-.209c-.076-.048-.161-.1-.238-.152l-.19-.143a11.517,11.517,0,0,0-1.463-1.035,1.55,1.55,0,0,0-.7-.209h-.076l-.1.019-.219.048-.465.095a4.5,4.5,0,0,1-1.985.029,2.068,2.068,0,0,1-1.5-1.4,4.011,4.011,0,0,1,0-1.957,12.8,12.8,0,0,1,.551-1.805,14.457,14.457,0,0,1,.76-1.672Z" transform="translate(-86.146 -99.427)" fill="#c5796d"/>
            <path id="SvgjsPath22500" d="M96.406,102.153a1.729,1.729,0,0,0-1.634-.39c-.076.019-.143.029-.209.048a1.429,1.429,0,0,0-.826-.266,1.5,1.5,0,0,0-1.054.437,1.523,1.523,0,0,0,0,2.109c.969,1.035,3.116,1.32,3.933-.066A1.6,1.6,0,0,0,96.406,102.153Z" transform="translate(-86.146 -99.427)" fill="#fbe5e2"/>
          </g>
        </g>
        <g id="svga-group-hair-front" transform="translate(0 0)">
          <path id="SvgjsPath8022" d="M6.934,23.587S5.028,39.538,4.8,48.183L22.859,51.26s14.019-1.35,15.589-2.114l1.008-12.874s0-5.767-.336-10.571c0,0,1.57,7.693,2.132,12.11a103.064,103.064,0,0,1,.336,12.11s7.184.188,8.2-.2a81.941,81.941,0,0,0-.233-12.486S50.632.412,47.938.025,27.219,3.972,27.219,3.972,21.5.131,19.59.507,6.017,9.728,4.337,12.805-5.87,32.033,6.934,23.587Z" transform="translate(27.804 22.596) rotate(1)" fill="#3a241a"/>
          <path id="SvgjsPath8022-2" data-name="SvgjsPath8022" d="M6.952,24.051S8.058,42,7.872,50.919l14.922,3.176S34.378,52.7,35.676,51.913l.833-13.285s0-5.951-.278-10.909c0,0,1.3,7.939,1.762,12.5s.278,12.5.278,12.5,5.937.194,6.775-.206a105.53,105.53,0,0,0-.192-12.885s.892-38-1.334-38.4S26.4,5.3,26.4,5.3s-4.73-3.964-6.305-3.575S3.42-1.956,2.032,1.22s-5.661,31.547,4.92,22.832Z" transform="matrix(0.998, -0.07, 0.07, 0.998, 68.617, 21.756)" fill="#3a241a"/>
          <path id="SvgjsPath22154" d="M178.464,135.373c.384-.1.576-.7.1-.8-12.288-3.5-1.056-13.1-3.456-20.4-1.536-4.7-6.336-5.4-9.024-8.9-3.456-4.6,3.456-10.8,4.32-15.6.768-4.3-1.92-8.2-3.36-12.1.288-1.8.576-3.7.96-5.5a30.609,30.609,0,0,0,.768-7.2c.1-.4.192-.9.288-1.4a16.224,16.224,0,0,0-5.376-15.1,14,14,0,0,0-7.2-3.3,8.958,8.958,0,0,0-.384-2.8,10.494,10.494,0,0,0-3.072-4.8,12.28,12.28,0,0,0-4.992-2.7c-3.168-.8-7.1.8-9.888-1.5-3.456-2.9-3.84-8.1-7.872-10.8a12.423,12.423,0,0,0-12.48-.8.1.1,0,0,0-.1.1,12.868,12.868,0,0,0-4.9-1.9,39.32,39.32,0,0,0-4.9.2,9.928,9.928,0,0,1-3.072-.5c-.288-.2-.576-.3-.864-.5a13.023,13.023,0,0,0-2.784-.9,15.057,15.057,0,0,0-1.824-.4,13.634,13.634,0,0,0-11.712,3.7c-2.688,2.5-4.512,5.3-8.352,5.6-8.448-2.3-20.736,2.4-19.776,11.5v.4c-3.84-1.9-7.68,2.7-6.144,2.8a16.719,16.719,0,0,0-8.448,3.5,16.094,16.094,0,0,0-4.032,5.5,12.3,12.3,0,0,0-1.248,1.1,13.9,13.9,0,0,0-4.224,9.4c0,4.6,3.072,8.1,4.128,12.4a7.013,7.013,0,0,1,.192,1.4,11.9,11.9,0,0,1-3.456,5,17.761,17.761,0,0,0-10.368,7.3c-3.648,2.5-6.624,5.5-7.3,10.4a13.383,13.383,0,0,0,4.512,12.1c2.208,1.9,5.28,3.2,6.816,5.8.1.1.1.3.192.4-3.456,5.5-11.808,9.9-13.344,16.5a11.834,11.834,0,0,0,2.3,9.9c2.592,3.1,7.008,3.3,4.608,9.4-.48,1.2-1.056,1.5-1.056,2.9a.448.448,0,0,0,.864.2c1.824-3.5,6.528-5.1,3.648-9.8-1.632-2.6-4.992-3.2-6.432-6.1-1.344-2.6-.768-5.1.576-7.3.576,6,6.048,11.7,11.712,10,2.208,2.6,3.648,5.2,1.152,9-1.344,2.1-4.32,4.8-3.264,7.7,1.056,3,4.416,3.6,7.2,2.7a14.865,14.865,0,0,0,6.336,5.5,8.25,8.25,0,0,0,3.264,4.4c2.016,1.3,5.76,1.9,6.816-1a1.085,1.085,0,0,0-1.056-1.4c-1.92,0-3.264.7-4.9-.9l-.288-.3a7.207,7.207,0,0,0,6.144-3.5,11.67,11.67,0,0,0,2.016-7.5,8.157,8.157,0,0,0,2.688,2.8c1.632,1,3.936,1.6,5.76.6,1.44-.8,2.592-2.9,1.632-4.5a1.009,1.009,0,0,0-1.728,0,4.466,4.466,0,0,1-.96,1.3c-1.344-.2-1.536-3.3-1.248-4.5s2.112-2.2,2.976-2.9c1.152-.9,2.3-1.3,3.168-2.6a8.137,8.137,0,0,0,.768-7.7,12.682,12.682,0,0,0-5.184-6.1c-2.5-1.7-4.8-2.7-5.76-5.9-.96-3.3.576-6.2,1.152-9.3v-.3a6.941,6.941,0,0,0,1.92-3.5c1.248-7.3-9.6-9.2-7.872-16a6.933,6.933,0,0,1,.96-2.1,9.825,9.825,0,0,1,.96-1.1,40.924,40.924,0,0,1,3.264-2.5c1.728-1.1,3.744-1.9,5.664-3,3.168-1.7,5.376-3.8,5.568-7.7.192-4.5-2.4-8.1-4.32-11.8-4.224-8.2.672-14.6,7.488-18.1a5.935,5.935,0,0,0,1.728-.6.814.814,0,0,0,.672-.1c.192-.2.384-.3.576-.5h.192c7.3-4.3,14.3-10.1,23.232-8.2,5.088,1.1,10.464,4.6,9.312,10.8-.672,3.5-2.112,6.8-1.92,10.4.288,5.8,4.9,8.9,9.984,9.5a33.844,33.844,0,0,0,7.776-.4c6.528,1.7,12.48,5.9,11.232,14.1-1.056,6.7-7.3,11-9.12,17.5a13.2,13.2,0,0,0-.1,6.7,9.953,9.953,0,0,0,.576,3.3c.96,2.4,2.784,4,4.416,5.8,4.416,5-.288,8.3-3.84,11.6a13.394,13.394,0,0,0-4.128,6.9,7.983,7.983,0,0,0-1.152,1.4c-2.016,3.3-1.92,9.9,2.784,10.5.672.1.96-1,.384-1.3-2.112-1-2.208-3.6-1.44-5.8a13.082,13.082,0,0,0,.96,1.5,12.848,12.848,0,0,0,2.88,2.3c2.3,1.7,2.4,4,1.92,6.7-.1.3-.1.6-.192.9,0,.1,0,.1-.1.2-.576,2.3-1.344,4.3-.576,6.8a6.448,6.448,0,0,0,1.728,2.7,5.97,5.97,0,0,1-4.7-3.6c-.384-.7-1.344-.2-1.248.5,1.152,5.4,6.72,7.1,10.176,4.1h.192a15.741,15.741,0,0,1,5.856.8c2.592,1.9,5.472,3.1,8.832,2.6a21.6,21.6,0,0,0,8.448-1.6c4.9-1.5,9.5-6.8,9.312-11.8,3.744,3.2,10.368,2.6,10.656-4.2a.963.963,0,0,0-1.824-.5c-1.44,3.2-3.648,2.9-6.72-1.1a29.454,29.454,0,0,1,1.248-3.1,16.742,16.742,0,0,0,1.056-3.1,7.106,7.106,0,0,0-1.92-6.4,15.082,15.082,0,0,0-1.92-1.6c-.1-.2-.288-.4-.384-.6-.672-1.6-1.44-3.2-2.112-4.8a15.894,15.894,0,0,0,1.632-3.7,23.8,23.8,0,0,0,2.592-8.3,18.668,18.668,0,0,0,.1-3.3c.192.3.384.5.576.8,1.344,2.7-.384,6-.96,8.7-1.248,6.3,2.4,12.2,8.448,11.3Zm-147.456-21.4c-2.016-2.5-5.184-3.9-7.584-6.5a11.093,11.093,0,0,1-.96-13.8,8.234,8.234,0,0,0-.48,5.5c1.248,4.6,5.28,6.9,8.16,10.2.384.5.768.9,1.056,1.3A5.456,5.456,0,0,1,31.008,113.977ZM64.224,57.189c-2.976,4.2-3.264,8.6-1.248,13.3,1.344,3.1,3.552,5.8,4.32,9.2.864,3.7-.96,5.9-3.36,7.5a13.057,13.057,0,0,0-.576-12.4c0-.1-.1-.1-.1-.2-2.3-5.2-3.552-9.5-1.248-15a1.1,1.1,0,0,0-.192-1.2,15.183,15.183,0,0,1,4.032-3.4c.192-.1.288-.2.48-.3a12.591,12.591,0,0,0-2.112,2.5Zm46.848,9c-1.248-3.2-.288-5.9.768-9,1.248-3.7,2.592-7,.672-10.7-4.8-9.1-14.592-9.5-23.328-6.2.672-.5,1.248-1,1.92-1.5a24,24,0,0,1,10.56-2,19.267,19.267,0,0,1,10.08,3.3c1.92,2.9,3.648,5.7,3.744,9.4.1,4-1.824,7.6-2.112,11.5-.384,4.4,1.248,8.1,4.608,10.1-3.168-.3-5.76-1.7-6.912-4.9Z" transform="translate(-16.525 -12.894)" fill="#382218"/>
          <path id="SvgjsPath22155" d="M142.464,121.476a13.8,13.8,0,0,0-3.072-1.8,20.9,20.9,0,0,0-3.264-1.1,27.9,27.9,0,0,1-3.072-1c-1.92-.8-3.648-1.8-4.512-3.6a8.268,8.268,0,0,1-.288-5.9,20.354,20.354,0,0,1,2.88-5.8c2.5-3.6,5.568-6.9,7.968-10.9a23.21,23.21,0,0,0,1.536-3.1,19.661,19.661,0,0,0,.96-3.4,14.812,14.812,0,0,0-.192-7.1,12.191,12.191,0,0,0-1.536-3.2l-.576-.7-.576-.6a7.3,7.3,0,0,0-1.344-1.1,12.527,12.527,0,0,0-6.528-1.7c-4.512-.1-8.736,1.6-13.056,1.5a10.336,10.336,0,0,1-5.952-1.9,6.645,6.645,0,0,1-1.824-2.5,6.8,6.8,0,0,1-.192-3.1,14.815,14.815,0,0,1,2.688-5.9c1.152-1.9,2.592-3.8,3.168-6.2a15.588,15.588,0,0,0,.384-3.7,16.079,16.079,0,0,0-.768-3.6,14.344,14.344,0,0,0-3.936-5.9,14.84,14.84,0,0,0-6.144-3.3,17.428,17.428,0,0,0-6.816-.3,26.446,26.446,0,0,0-12.288,5.4,66.789,66.789,0,0,0-9.6,9.4l.1.1a83.939,83.939,0,0,1,10.08-8.7,39.735,39.735,0,0,1,5.664-3.2,26.545,26.545,0,0,1,6.144-1.6,14.387,14.387,0,0,1,11.616,3.4,11.929,11.929,0,0,1,2.016,2.4,15.3,15.3,0,0,1,1.44,2.8,10.587,10.587,0,0,1,.48,6.2,23.426,23.426,0,0,1-2.784,5.9,16.7,16.7,0,0,0-2.592,6.5,7.6,7.6,0,0,0,.384,3.6,6.9,6.9,0,0,0,2.208,2.8,11.537,11.537,0,0,0,6.432,1.9c4.512,0,8.736-1.6,13.056-1.4a11.533,11.533,0,0,1,6.048,1.7,10.931,10.931,0,0,1,1.248,1l.576.6.48.6a8.54,8.54,0,0,1,1.248,2.9,14.869,14.869,0,0,1-.1,6.5,18.293,18.293,0,0,1-2.592,6c-2.3,3.7-5.472,6.9-8.16,10.7a22.758,22.758,0,0,0-3.264,6.3,11.907,11.907,0,0,0-.576,3.7,8.777,8.777,0,0,0,.864,3.8,7.2,7.2,0,0,0,2.5,2.9,13.968,13.968,0,0,0,3.168,1.7c2.112.8,4.32,1.3,6.24,2.1a8.788,8.788,0,0,1,4.608,3.7,5.2,5.2,0,0,1,.48,2.7,5.708,5.708,0,0,1-1.152,2.6,18.467,18.467,0,0,1-4.992,3.9,17.971,17.971,0,0,0-2.784,2,9.178,9.178,0,0,0-2.208,2.9,6.941,6.941,0,0,0-.768,3.7,6.213,6.213,0,0,0,.576,1.9,6.321,6.321,0,0,0,1.248,1.5c1.92,1.6,4.224,2,5.856,3.2a3.742,3.742,0,0,1,1.632,2.4,5.793,5.793,0,0,1-.384,3.1c-.864,2-2.784,3.4-4.608,4.6l.1.2a12.842,12.842,0,0,0,4.992-4.5,5.619,5.619,0,0,0,.672-3.5,5.04,5.04,0,0,0-1.824-3.1c-1.824-1.5-4.128-2-5.568-3.4a3.676,3.676,0,0,1-1.248-2.5,5.362,5.362,0,0,1,.672-2.9,11.129,11.129,0,0,1,4.608-4.1c.96-.6,1.92-1.1,2.88-1.8a15.674,15.674,0,0,0,2.688-2.4,7.317,7.317,0,0,0,1.632-3.5,7.172,7.172,0,0,0-.576-4,9.832,9.832,0,0,0-2.5-2.8ZM64.416,56.289a21.079,21.079,0,0,1,3.552-2.1,53.328,53.328,0,0,1,7.968-2.6v-.2a41.6,41.6,0,0,0-8.352,1.8,14.25,14.25,0,0,0-7.1,5.2,12.765,12.765,0,0,0-1.92,4.2,10.212,10.212,0,0,0,.192,4.8,15.132,15.132,0,0,0,2.208,4.1c.864,1.2,1.92,2.2,2.88,3.3a27.581,27.581,0,0,1,2.688,3.2,7.647,7.647,0,0,1,1.44,3.7,6.306,6.306,0,0,1-.864,3.9,11.993,11.993,0,0,1-2.784,3.1c-2.208,1.7-4.9,2.8-7.2,4.6a11.6,11.6,0,0,0-2.976,3.2,7.049,7.049,0,0,0-1.152,4.4,6.637,6.637,0,0,0,2.016,4.2,17.079,17.079,0,0,0,3.552,2.6,22.869,22.869,0,0,1,3.36,2.4c.288.2.384.5.672.7a2.192,2.192,0,0,1,.48.8,4.872,4.872,0,0,1,.384,1.7,4.674,4.674,0,0,1-1.44,3.2,12.477,12.477,0,0,1-3.168,2.3c-.576.3-1.152.6-1.824.9a12.16,12.16,0,0,0-1.92,1.1,11.736,11.736,0,0,0-3.456,3.2,6.719,6.719,0,0,0-1.056,2.4,6.409,6.409,0,0,0,.1,2.7,8.352,8.352,0,0,0,2.784,3.9,12.279,12.279,0,0,1,2.592,3,6.036,6.036,0,0,1,.48,3.7c-.384,2.7-2.016,5.3-2.208,8.5a8.855,8.855,0,0,0,.288,2.3,4.494,4.494,0,0,0,1.344,1.9,3.889,3.889,0,0,0,2.016,1,2.3,2.3,0,0,0,2.112-.5l-.1-.2a2.9,2.9,0,0,1-3.552-.9,4.289,4.289,0,0,1-.96-1.7,4.618,4.618,0,0,1-.1-2c.288-2.8,2.016-5.2,2.688-8.2a7.265,7.265,0,0,0-.384-4.9,15.381,15.381,0,0,0-2.88-3.6,7.755,7.755,0,0,1-2.112-3.1,3.889,3.889,0,0,1,.672-3.2,9.312,9.312,0,0,1,2.88-2.6,15.364,15.364,0,0,1,1.728-1c.576-.3,1.248-.7,1.92-1a15.554,15.554,0,0,0,3.648-2.8,7.473,7.473,0,0,0,1.44-2,6.033,6.033,0,0,0,.576-2.6,5.7,5.7,0,0,0-.672-2.5c-.192-.4-.48-.7-.672-1.1l-.864-.9a21.714,21.714,0,0,0-3.744-2.4,29.868,29.868,0,0,1-3.456-2.2,5.166,5.166,0,0,1-1.824-3.3,6.306,6.306,0,0,1,.864-3.9,10.264,10.264,0,0,1,2.688-3.1c2.208-1.8,4.8-2.8,7.2-4.6a13.617,13.617,0,0,0,3.072-3.2,7.652,7.652,0,0,0,1.344-4.4,8.83,8.83,0,0,0-1.44-4.4,31.523,31.523,0,0,0-2.688-3.6c-1.92-2.2-3.84-4.2-4.7-6.8a9,9,0,0,1,1.248-7.6,13.1,13.1,0,0,1,2.5-2.8ZM50.88,147.471a8.519,8.519,0,0,1-.192-4.4,25.153,25.153,0,0,0,.384-4.7,8.077,8.077,0,0,0-.672-2.5,4.646,4.646,0,0,0-1.728-1.9c-1.344-1-2.688-1.5-3.648-2.4a3.19,3.19,0,0,1-.96-3.3,6.774,6.774,0,0,1,1.92-3.3,24.3,24.3,0,0,1,3.456-2.5,23.3,23.3,0,0,0,1.92-1.4,7.543,7.543,0,0,0,1.728-1.8,6.878,6.878,0,0,0,1.728-5,5.929,5.929,0,0,0-.864-2.6,6.738,6.738,0,0,0-1.824-1.9,27.6,27.6,0,0,0-4.032-2.3,12.241,12.241,0,0,1-3.36-2.4,5.543,5.543,0,0,1-1.248-3.7,8.965,8.965,0,0,1,1.056-4.1,12.593,12.593,0,0,1,2.592-3.4c2.112-2.1,4.608-3.8,6.72-6.1a12.73,12.73,0,0,0,2.5-3.9,7.858,7.858,0,0,0,.672-4.7,8.127,8.127,0,0,0-2.016-4.2q-1.44-1.5-3.168-3a15.321,15.321,0,0,1-2.976-3.2,11.948,11.948,0,0,1-1.632-3.8,12.421,12.421,0,0,1,1.728-8.2,14.954,14.954,0,0,1,6.048-5.8,21.617,21.617,0,0,1,8.256-2.2,50.982,50.982,0,0,1,8.736,0v-.2a43.365,43.365,0,0,0-8.832-.8,21,21,0,0,0-8.832,1.9,14.821,14.821,0,0,0-3.936,2.5,15.513,15.513,0,0,0-2.976,3.7,13.4,13.4,0,0,0-1.824,9.4,10.336,10.336,0,0,0,2.112,4.4,34.039,34.039,0,0,0,3.36,3.2,30.7,30.7,0,0,1,3.36,2.9,8.041,8.041,0,0,1,2.016,3.8,8.243,8.243,0,0,1-.576,4.3,13.114,13.114,0,0,1-2.5,3.7c-2.016,2.2-4.608,3.7-6.912,5.7a12.04,12.04,0,0,0-4.512,8.3,6.7,6.7,0,0,0,1.536,4.8,11.949,11.949,0,0,0,3.84,2.9,27.093,27.093,0,0,1,3.744,2.2,5.623,5.623,0,0,1,1.248,1.4,3.473,3.473,0,0,1,.48,1.7,5.188,5.188,0,0,1-1.344,3.5,10.792,10.792,0,0,1-3.168,2.7,30.346,30.346,0,0,0-3.744,2.8,8.49,8.49,0,0,0-2.4,4.5,5.642,5.642,0,0,0,.192,2.8,4.094,4.094,0,0,0,1.536,2.2c1.344,1.1,2.784,1.5,3.936,2.3a4.33,4.33,0,0,1,1.92,3.3,23.822,23.822,0,0,1-.1,4.5,9.792,9.792,0,0,0,.576,4.7,6.615,6.615,0,0,0,1.344,2,2.862,2.862,0,0,0,2.112.7v-.2a3.817,3.817,0,0,1-2.784-2.9Zm106.752-22a14.928,14.928,0,0,0,1.536-3.6,11.123,11.123,0,0,0,.192-4,6.266,6.266,0,0,0-1.92-3.7,7.561,7.561,0,0,0-3.552-1.8c-1.248-.3-2.5-.4-3.648-.6a15.892,15.892,0,0,1-3.264-.6,4.1,4.1,0,0,1-2.3-1.7c-1.056-1.6-.768-4.1.192-5.9a31.182,31.182,0,0,1,4.32-5.4,65.148,65.148,0,0,0,4.608-5.7,30.642,30.642,0,0,0,5.952-13.7A19.055,19.055,0,0,0,156,64.287a11.709,11.709,0,0,0-2.784-2.6,10.982,10.982,0,0,0-3.456-1.6,15.019,15.019,0,0,0-7.3-.1c-4.8.9-8.928,3.5-13.344,5-2.208.7-4.512,1.4-6.816,1a4.477,4.477,0,0,1-2.784-1.8,7.473,7.473,0,0,1-1.152-3.3c-.192-2.4.672-4.7,1.536-7a26.786,26.786,0,0,0,1.632-7.3,23.431,23.431,0,0,0-3.456-14.5,19.365,19.365,0,0,0-12.288-7.9,24.178,24.178,0,0,0-14.3,1.4,31.674,31.674,0,0,0-11.616,8.7A50.019,50.019,0,0,0,72,46.591l.192.1a58.641,58.641,0,0,1,8.448-11.7,33.727,33.727,0,0,1,11.424-8,22.969,22.969,0,0,1,13.44-1.1,20.578,20.578,0,0,1,6.336,2.5,17.492,17.492,0,0,1,4.992,4.7,21.767,21.767,0,0,1,3.744,13.4,25.756,25.756,0,0,1-1.344,7.1c-.768,2.3-1.632,4.7-1.344,7.3a7.037,7.037,0,0,0,1.248,3.6,4.823,4.823,0,0,0,3.072,2c2.5.5,4.9-.2,7.1-.9,4.512-1.5,8.736-3.8,13.344-4.5a15.157,15.157,0,0,1,6.72.3,11.958,11.958,0,0,1,2.976,1.5,13.9,13.9,0,0,1,2.4,2.4,17.918,17.918,0,0,1,3.072,13.2c-.672,4.7-2.976,8.9-5.856,12.7-1.44,1.9-2.976,3.7-4.512,5.5a36.257,36.257,0,0,0-4.7,5.9,9.494,9.494,0,0,0-1.056,4,6.281,6.281,0,0,0,1.056,4.1,6.869,6.869,0,0,0,3.36,2.5,16.287,16.287,0,0,0,3.648.6c2.3.2,4.7.3,6.144,1.8a4.609,4.609,0,0,1,1.44,2.7,9.533,9.533,0,0,1-.1,3.3,12.961,12.961,0,0,1-1.248,3.2,29.122,29.122,0,0,1-2.016,2.8c-1.536,1.8-3.36,3.4-4.9,5.4a13.331,13.331,0,0,0-1.92,3.2,9.8,9.8,0,0,0-.768,3.7,9.366,9.366,0,0,0,.672,3.7,5.558,5.558,0,0,0,2.592,2.6l.1-.2a4.8,4.8,0,0,1-2.208-2.6,8.593,8.593,0,0,1-.48-3.5,9.805,9.805,0,0,1,.864-3.4,13.7,13.7,0,0,1,1.92-2.9c1.536-1.8,3.36-3.3,5.088-5.1a9.7,9.7,0,0,0,2.688-3ZM64.7,40.692a23.641,23.641,0,0,1-.192-8.2,7.18,7.18,0,0,1,.576-1.9,14.466,14.466,0,0,1,.768-1.8,11.863,11.863,0,0,1,2.5-2.9,8.312,8.312,0,0,1,3.36-1.7,12.359,12.359,0,0,1,1.92-.1,13.578,13.578,0,0,1,1.92.5,13.32,13.32,0,0,0,4.032,1,4.1,4.1,0,0,0,2.112-.7c.192-.1.288-.2.48-.3l.384-.4a7.183,7.183,0,0,0,.768-.9,16.271,16.271,0,0,0,1.92-3.9A13.878,13.878,0,0,1,87.072,16a3.653,3.653,0,0,1,1.248-.9,2.037,2.037,0,0,1,1.536,0,11.854,11.854,0,0,1,3.264,1.8A8.978,8.978,0,0,0,95.04,18a5.636,5.636,0,0,0,2.3.6,4.886,4.886,0,0,0,2.4-.4,11.766,11.766,0,0,0,1.92-1l1.728-1.1a13.334,13.334,0,0,1,1.728-.8,3.361,3.361,0,0,1,3.552.7l.192-.1a7.735,7.735,0,0,0-3.936-1.6,7.391,7.391,0,0,0-2.112.6c-.672.3-1.248.6-1.824.9a6.612,6.612,0,0,1-3.456.9,6.809,6.809,0,0,1-3.168-1.6A13.584,13.584,0,0,0,90.432,13a4.818,4.818,0,0,0-4.608,1.7c-1.92,2.6-4.992,10-6.24,10.1a8.981,8.981,0,0,1-3.84-.9,9.606,9.606,0,0,0-4.128-.9,8.878,8.878,0,0,0-4.128,1.4,8.773,8.773,0,0,0-2.976,3.3,11.775,11.775,0,0,0-1.344,4.3,16.935,16.935,0,0,0,1.44,8.5l.1.2Zm-2.784.2.1-.2C59.136,39.092,58.752,39.892,61.92,40.892ZM49.44,170.966a3.256,3.256,0,0,1-2.5-.6c-1.44-1.1-2.112-3-2.976-4.7a9.171,9.171,0,0,0-1.824-2.5,7.38,7.38,0,0,0-2.784-1.4c-2.016-.4-3.936-.3-5.664-.5a4.28,4.28,0,0,1-2.3-.8,3.282,3.282,0,0,1-1.248-1.9,7.828,7.828,0,0,1,1.248-4.9,17.953,17.953,0,0,0,2.592-5.5,6.227,6.227,0,0,0-.1-3.5,8.158,8.158,0,0,0-1.824-2.9,23.155,23.155,0,0,0-5.088-3.1,11.364,11.364,0,0,1-4.224-3,5.1,5.1,0,0,1-.864-4.7,10.7,10.7,0,0,1,2.5-4.6c2.5-2.7,6.048-4.4,8.736-7.5a11.744,11.744,0,0,0,2.688-5.5,7.148,7.148,0,0,0-.192-3.2,7.933,7.933,0,0,0-1.536-2.8c-2.688-3.1-6.72-4.1-9.024-7a7.706,7.706,0,0,1-1.728-5.2,10.634,10.634,0,0,1,1.536-5.4,17.013,17.013,0,0,1,3.744-4.2,29.772,29.772,0,0,1,4.7-3.1,22.307,22.307,0,0,0,4.7-3.5,7.547,7.547,0,0,0,1.728-2.7,7.663,7.663,0,0,0,.48-3.3c-.288-2.2-1.44-4-2.3-5.7a11.2,11.2,0,0,1-1.536-5.1,14.51,14.51,0,0,1,4.128-9.9,20.12,20.12,0,0,1,9.5-5.3,68.766,68.766,0,0,1,11.04-1.8v-.2a61.964,61.964,0,0,0-11.328,1,25.225,25.225,0,0,0-5.472,1.8,16.154,16.154,0,0,0-4.9,3.4,16.381,16.381,0,0,0-3.456,5,14.826,14.826,0,0,0-1.344,6.1,12.145,12.145,0,0,0,1.824,6c.96,1.7,2.016,3.3,2.208,5a6.057,6.057,0,0,1-1.536,4.8,16.92,16.92,0,0,1-4.32,3.5c-3.168,2.1-6.432,4.4-8.448,7.9a13,13,0,0,0-1.632,5.7,8.776,8.776,0,0,0,1.824,5.7c2.592,3.1,6.528,4.4,8.736,7.2a5.539,5.539,0,0,1,1.152,2.4,5.938,5.938,0,0,1,0,2.6,10.509,10.509,0,0,1-2.5,4.7c-2.4,2.7-5.952,4.3-8.832,7.2a11.583,11.583,0,0,0-3.072,5.4,7.688,7.688,0,0,0-.192,3.3,7.414,7.414,0,0,0,1.344,3.1,10.133,10.133,0,0,0,2.4,2.2c.864.6,1.728,1,2.592,1.5a22.066,22.066,0,0,1,4.7,2.8,4.17,4.17,0,0,1,1.44,4.2,22.99,22.99,0,0,1-2.3,5,15.107,15.107,0,0,0-1.152,2.9,6.729,6.729,0,0,0-.1,3.4,4.464,4.464,0,0,0,1.92,2.8,6.981,6.981,0,0,0,3.072,1c2.016.2,3.84-.1,5.568.2a4.826,4.826,0,0,1,2.3,1,9.34,9.34,0,0,1,1.728,2.1c.96,1.6,1.824,3.6,3.456,4.8a3.18,3.18,0,0,0,1.44.6,2.694,2.694,0,0,0,1.536-.1,2.5,2.5,0,0,0,2.016-2.1h-.192a2.556,2.556,0,0,1-2.112,1.9ZM177.024,78.984a6.188,6.188,0,0,0-1.632-1.9c-1.248-1-2.5-1.7-3.552-2.4a5,5,0,0,1-2.016-2.9,10.633,10.633,0,0,1,0-3.9c.384-2.8,1.536-5.6,1.536-8.8a16.058,16.058,0,0,0-2.784-8.7,17.136,17.136,0,0,0-6.72-5.7,20.281,20.281,0,0,0-8.352-1.8,26.911,26.911,0,0,0-8.448,1.1,39.287,39.287,0,0,1-8.064,1.9,9.7,9.7,0,0,1-3.84-.5,7.012,7.012,0,0,1-2.976-2.4c-1.632-2.1-2.4-4.9-2.976-7.7a32.346,32.346,0,0,0-2.5-8.6,11.967,11.967,0,0,0-15.168-5.5l.1.2a11.645,11.645,0,0,1,13.728,6c1.152,2.5,1.536,5.3,2.112,8.2a19.791,19.791,0,0,0,3.36,8.4,7.614,7.614,0,0,0,3.744,2.6,8.332,8.332,0,0,0,4.416.3c2.88-.4,5.472-1.6,8.16-2.4a23.148,23.148,0,0,1,8.256-1,17.926,17.926,0,0,1,7.872,2.2,17.106,17.106,0,0,1,5.952,5.6,14.761,14.761,0,0,1,2.3,7.8c0,2.7-1.152,5.4-1.728,8.4a10.131,10.131,0,0,0,0,4.8,7.09,7.09,0,0,0,1.056,2.3,7,7,0,0,0,1.728,1.7c1.248.9,2.5,1.5,3.456,2.3a4.268,4.268,0,0,1,1.632,3,6.166,6.166,0,0,1-.96,3.6,15.124,15.124,0,0,1-2.5,3.2,19.063,19.063,0,0,0-2.784,3.4,10.054,10.054,0,0,0-1.536,4.3,6.084,6.084,0,0,0,.384,2.3,3.813,3.813,0,0,0,1.44,1.8,3.226,3.226,0,0,0,2.016.8,2.738,2.738,0,0,0,2.112-.7l-.1-.2a2.963,2.963,0,0,1-3.648-.5,3.56,3.56,0,0,1-1.056-1.6,6.735,6.735,0,0,1-.192-2,8.9,8.9,0,0,1,1.536-3.7,27.635,27.635,0,0,1,2.784-3.1,19.5,19.5,0,0,0,2.88-3.4,9.24,9.24,0,0,0,1.344-4.7,3.075,3.075,0,0,0-.384-2.1ZM132.48,25.695c1.056,1.5,2.4.8,1.44-1.1-2.016-3.9-7.1-5.6-10.656-3.8l.1.2a10.557,10.557,0,0,1,9.12,4.7Zm37.632,109.078c-.768-.9-1.536-1.7-2.112-2.5a6.446,6.446,0,0,1-.768-1.4l-.192-.7a2.024,2.024,0,0,1-.1-.8,9.065,9.065,0,0,1,.288-3.2c.576-2.2,1.632-4.3,2.4-6.5a14.188,14.188,0,0,0,.768-3.5,7.891,7.891,0,0,0-.576-3.6c-.864-2.3-2.688-4-4.224-5.6s-3.168-3.3-3.84-5.3a9.193,9.193,0,0,1,.288-6.2,43.992,43.992,0,0,1,2.784-6.2,20.532,20.532,0,0,0,2.112-6.9,9.024,9.024,0,0,0-.288-3.6,5.6,5.6,0,0,0-1.824-3l-.1.1a6.9,6.9,0,0,1,1.344,3.1,9.533,9.533,0,0,1-.1,3.3,21.792,21.792,0,0,1-2.4,6.3,35.367,35.367,0,0,0-3.072,6.4,15.8,15.8,0,0,0-.768,3.7,8.531,8.531,0,0,0,.576,3.8c2.112,4.8,7.1,6.3,8.928,10.5a7.663,7.663,0,0,1,.48,3.3,10.5,10.5,0,0,1-.864,3.3c-.768,2.2-2.016,4.2-2.784,6.4a9.34,9.34,0,0,0-.576,3.7,7.269,7.269,0,0,0,1.152,3.7c1.344,2.1,3.168,3.6,3.84,5.5a3.068,3.068,0,0,1,0,2.6,4.767,4.767,0,0,1-2.016,1.9,9.032,9.032,0,0,0-2.88,2.4,5.648,5.648,0,0,0-1.056,4.1c.288,2.6,1.44,4.7,1.728,6.8a10.665,10.665,0,0,1-1.056,6.2,10.065,10.065,0,0,1-10.944,5.3l-.1.2a9.99,9.99,0,0,0,6.816-.1,10.4,10.4,0,0,0,5.472-4.6,12.445,12.445,0,0,0,1.632-7.2,14.032,14.032,0,0,0-.864-3.6,13.665,13.665,0,0,1-.672-3.2,3.6,3.6,0,0,1,.576-2.5,8.321,8.321,0,0,1,2.4-1.9,5.969,5.969,0,0,0,2.688-2.9,5.3,5.3,0,0,0-.1-4.2,9.462,9.462,0,0,0-2.016-3.4Z" transform="translate(-16.525 -12.894)" fill="#29160d"/>
        </g>
      </g>
    </g>
  </g>
</svg>
