<svg width="501" height="255" viewBox="0 0 501 255" fill="none" xmlns="http://www.w3.org/2000/svg">
<g clip-path="url(#clip0_389_468)">
<path d="M80.3911 200.337C80.3911 200.337 88.1248 214.056 143.82 220.301C199.516 226.547 227.616 247.37 263.008 253.615C298.401 259.86 342.126 218.742 380.125 224.987C418.124 231.233 463.92 207.441 467.543 200.337H80.3911Z" fill="#EDEDED"/>
<path d="M482.53 197.612H474.292L111.531 197.683C111.531 197.683 107.861 194.785 102.143 189.808C99.6939 187.673 96.8666 185.161 93.7794 182.326C92.6716 181.302 91.5244 180.234 90.3378 179.12C79.5326 168.961 66.4593 155.494 55.8431 141.231C44.6599 126.173 36.1543 110.147 35.9496 95.9473C35.9496 95.6323 35.9496 95.3094 35.9496 94.9943C36.0677 81.2595 38.7769 66.4456 45.4632 52.695C49.512 44.3151 54.9463 36.6789 61.5371 30.1081C79.5326 12.1834 108.648 -0.370134 153.838 -0.007861C206.541 0.409541 261.197 20.0589 310.561 47.2452C320.885 52.9313 330.974 58.9482 340.771 65.1856C348.016 69.8006 355.089 74.5259 361.988 79.3615C380.218 92.1014 397.75 105.811 414.509 120.432C450.02 151.485 474.954 180.853 482.53 197.612Z" fill="url(#paint0_linear_389_468)"/>
<path style="mix-blend-mode:overlay" opacity="0.45" d="M482.53 197.612H474.292L111.531 197.683C111.531 197.683 107.861 194.785 102.143 189.808C99.6939 187.673 96.8666 185.161 93.7794 182.326C92.6716 181.302 91.5244 180.234 90.3378 179.12C79.5326 168.961 66.4593 155.494 55.8431 141.231C44.6599 126.173 36.1543 110.147 35.9496 95.9473C40.4622 93.5847 51.0233 88.7648 59.7572 90.9542C71.2082 93.813 73.6575 107.422 73.6575 107.422C73.6575 107.422 81.8638 100.806 90.4559 103.949C99.0481 107.091 100.355 116.195 100.355 116.195C100.355 116.195 110.491 110.966 119.611 113.195C128.731 115.423 136.047 124.22 126.274 129.985C116.5 135.75 105.679 131.277 105.419 131.174C105.553 131.348 109.357 136.498 102.435 142.838C95.3466 149.28 122.494 154.872 122.494 154.872C122.494 154.872 123.486 137.215 141.741 139.192C159.997 141.168 174.645 151.005 174.645 151.005C174.645 151.005 175.567 123.984 190.144 119.046C204.722 114.108 212.195 129.969 212.195 129.969C212.195 129.969 244.485 109.068 255.448 128.552C266.41 148.036 266.859 151.729 266.859 151.729C266.859 151.729 276.2 100.539 305.512 102.901C334.825 105.264 340.267 125.567 339.755 127.638C339.243 129.71 348.174 114.502 356.987 122.756C365.799 131.009 370.91 142.531 370.91 142.531L417.289 137.018C417.289 137.018 412.564 127.867 414.486 120.361C450.02 151.485 474.954 180.853 482.53 197.612Z" fill="url(#paint1_linear_389_468)"/>
<path style="mix-blend-mode:hard-light" d="M340.763 65.1934H203.674C220.851 65.1934 224.237 58.9482 234.389 55.5696C234.877 55.4042 235.357 55.2624 235.838 55.1443C245.288 52.7816 253.164 58.1527 259.236 57.9086C265.615 57.6487 272.624 50.8837 279.925 48.5368C282.406 47.7492 284.965 48.0012 287.596 48.6234C292.715 49.8283 298.078 52.4351 303.536 51.4034C308.261 50.5056 308.639 48.584 310.545 47.2531C320.877 52.947 330.966 58.956 340.763 65.1934Z" fill="url(#paint2_linear_389_468)"/>
<path style="mix-blend-mode:hard-light" d="M163.265 52.7029H45.4632C49.4478 44.4649 54.7702 36.9442 61.2142 30.4467L61.5371 30.1238C64.485 29.5176 67.4768 29.1489 70.4837 29.0213C89.1722 28.2337 93.1257 42.2915 93.1257 42.2915C93.1257 42.2915 98.0164 35.7863 106.861 38.9129C115.705 42.0395 112.594 45.9379 119.619 48.017C120.553 48.2802 121.528 48.3657 122.494 48.269C129.188 47.6862 137.646 40.3541 145.12 43.0712C153.712 46.1978 148.105 52.7029 163.265 52.7029Z" fill="url(#paint3_linear_389_468)"/>
<path d="M498.218 202.991H60.0723C59.7237 202.991 59.3786 202.922 59.0566 202.789C58.7346 202.656 58.442 202.46 58.1956 202.214C57.9491 201.967 57.7536 201.675 57.6202 201.353C57.4869 201.031 57.4182 200.686 57.4182 200.337C57.4182 199.988 57.4869 199.643 57.6202 199.321C57.7536 198.999 57.9491 198.707 58.1956 198.46C58.442 198.214 58.7346 198.018 59.0566 197.885C59.3786 197.752 59.7237 197.683 60.0723 197.683H498.218C498.567 197.683 498.912 197.752 499.234 197.885C499.556 198.018 499.848 198.214 500.095 198.46C500.341 198.707 500.537 198.999 500.67 199.321C500.803 199.643 500.872 199.988 500.872 200.337C500.872 200.686 500.803 201.031 500.67 201.353C500.537 201.675 500.341 201.967 500.095 202.214C499.848 202.46 499.556 202.656 499.234 202.789C498.912 202.922 498.567 202.991 498.218 202.991Z" fill="#353B48"/>
<g style="mix-blend-mode:overlay" opacity="0.25">
<path d="M287.596 48.6234C279.783 50.6237 270.978 59.0978 265.269 60.3421C258.07 61.9172 249.738 58.2551 241.642 56.2232C239.726 55.7204 237.775 55.3597 235.806 55.1443C245.257 52.7816 253.132 58.1527 259.204 57.9086C265.584 57.6487 272.593 50.8836 279.893 48.5367C282.406 47.7413 284.934 48.0012 287.596 48.6234Z" fill="white"/>
</g>
<g style="mix-blend-mode:overlay" opacity="0.25">
<path d="M122.494 48.269C115.461 51.939 112.208 43.5831 106.081 40.8424C99.056 37.6922 94.1102 47.4972 92.0311 45.804C89.952 44.1107 89.0384 36.8259 81.0999 33.0535C76.5951 30.9114 67.8927 30.4467 61.2142 30.4467L61.5371 30.1238C64.485 29.5176 67.4768 29.1489 70.4837 29.0213C89.1723 28.2337 93.1258 42.2915 93.1258 42.2915C93.1258 42.2915 98.0165 35.7863 106.861 38.9129C115.705 42.0395 112.594 45.9379 119.619 48.017C120.553 48.2802 121.528 48.3657 122.494 48.269Z" fill="white"/>
</g>
<path d="M311.655 31.1713C311.655 31.1713 360.846 75.0851 380.361 69.0997C399.877 63.1143 277.239 5.04825 311.655 31.1713Z" fill="url(#paint4_linear_389_468)"/>
<path d="M28.1922 75.786C28.1922 75.786 11.4647 105.24 40.7143 136.286C47.4794 143.468 48.2669 156.817 34.7289 157.55C21.1909 158.282 0.116064 125.26 0.864237 98.6959C1.61241 72.1318 32.7207 60.1453 28.1922 75.786Z" fill="url(#paint5_linear_389_468)"/>
<path d="M363.689 232.272C363.689 232.272 335.337 238.517 328.084 248.149C324.516 252.875 338.668 252.15 350.71 246.976C363.263 241.573 373.628 231.611 363.689 232.272Z" fill="#ECECEC"/>
<path d="M158.264 230.453C158.264 230.453 169.29 230.193 179 233.965C188.711 237.738 190.814 249.315 181.166 250.748C171.519 252.182 149.609 239.344 150.845 234.092C151.759 230.233 158.264 230.453 158.264 230.453Z" fill="#ECECEC"/>
<g style="mix-blend-mode:overlay">
<path d="M107.971 167.662L101.742 189.264C99.2844 187.13 96.4571 184.618 93.3778 181.782L92.0232 179.27C92.0232 179.27 94.3859 151.572 86.5655 140.475C94.063 145.713 97.6463 166.661 97.6463 166.661L96.4808 168.237H97.6463C98.9601 171.008 99.8292 173.968 100.222 177.01C105.018 152.092 100.356 140.042 100.222 139.719C103.016 143.415 105.101 147.597 106.372 152.052C108.672 159.755 107.814 164.606 107.814 164.606L105.947 167.677L107.971 167.662Z" fill="#292D32"/>
</g>
<path d="M296.826 188.91C298.103 187.751 299.285 186.492 300.362 185.145C300.63 184.799 300.874 184.452 301.094 184.106L302.016 185.232L301.701 183.46C301.701 183.46 308.048 181.239 310.364 175.128C308.97 181.861 306.284 186.838 303.126 189.17C301.888 190.146 300.347 190.656 298.771 190.611C293.825 190.343 296.826 188.91 296.826 188.91Z" fill="#FF6348"/>
<g style="mix-blend-mode:overlay" opacity="0.25">
<path d="M310.332 175.12C308.3 181.255 304.244 190.65 296.613 190.508C296.57 190.5 296.532 190.476 296.505 190.443C296.477 190.409 296.462 190.367 296.462 190.323C296.462 190.28 296.477 190.238 296.505 190.204C296.532 190.17 296.57 190.147 296.613 190.138C304.04 190.406 308.229 181.082 310.309 175.12H310.332Z" fill="white"/>
</g>
<g style="mix-blend-mode:overlay" opacity="0.25">
<path d="M296.826 188.91C298.103 187.751 299.285 186.493 300.362 185.145C300.936 186.687 301.874 188.067 303.095 189.17C301.857 190.146 300.315 190.656 298.739 190.611C293.825 190.343 296.826 188.91 296.826 188.91Z" fill="#292D32"/>
</g>
<g style="mix-blend-mode:overlay">
<path d="M247.509 176.742C247.509 176.742 232.837 162.999 235.208 144.602C236.72 153.123 242.918 163.291 242.918 163.291L242.13 165.582L244.887 165.047C244.887 165.047 248.36 144.059 240.547 133.962C251.085 144.815 250.959 160.975 250.959 160.975L248.99 163.992L250.974 164.858C250.974 164.858 248.667 172.733 255.527 169.693C262.386 166.653 266.725 140.625 260.527 134.002C267.962 140.389 266.725 162.353 266.725 163.086C266.725 163.818 263.504 166.764 263.504 166.764L265.977 168.544C265.977 168.544 264.457 183.373 247.509 176.742Z" fill="#292D32"/>
</g>
<g style="mix-blend-mode:overlay">
<path d="M314.695 196.281C314.695 196.281 309.6 191.509 310.427 185.114C310.982 187.404 311.885 189.595 313.104 191.611L312.837 192.399L313.789 192.21C313.789 192.21 314.994 184.917 312.285 181.412C315.947 185.185 315.9 190.8 315.9 190.8L315.215 191.832L315.9 192.131C315.9 192.131 315.113 194.856 317.475 193.808C319.838 192.761 321.366 183.712 319.216 181.412C321.799 183.633 321.366 191.257 321.366 191.517C321.366 191.776 320.247 192.792 320.247 192.792L321.106 193.414C321.106 193.414 320.57 198.644 314.695 196.281Z" fill="#292D32"/>
</g>
<path d="M295.211 189.296L291.069 189.579C294.054 186.901 293.613 184.326 293.164 183.153C293.078 182.917 292.969 182.69 292.841 182.475L294.794 182.16L293.699 180.672C293.699 180.672 297.243 176.577 298.574 165.669C300.209 168.43 301.1 171.567 301.16 174.775C301.221 177.982 300.449 181.151 298.921 183.972C297.95 185.917 296.7 187.711 295.211 189.296Z" fill="#FFCA51"/>
<g style="mix-blend-mode:overlay" opacity="0.25">
<path d="M298.574 165.669C300.149 173.608 300.015 182.995 294.274 189.296C294.116 189.477 293.833 189.217 294.014 189.044C299.779 182.877 300.031 173.56 298.574 165.669Z" fill="white"/>
</g>
<g style="mix-blend-mode:overlay" opacity="0.25">
<path d="M295.211 189.296L291.069 189.579C294.054 186.901 293.613 184.326 293.164 183.153C294.022 183.661 294.974 183.992 295.963 184.128C296.951 184.263 297.957 184.199 298.921 183.94C297.952 185.897 296.703 187.701 295.211 189.296Z" fill="#292D32"/>
</g>
<path d="M322.201 197.132H255.054L265.812 188.406C265.812 188.406 280.145 181.034 286.123 182.57C292.1 184.106 291.14 189.138 291.14 189.138C291.441 188.82 291.767 188.528 292.116 188.264C293.439 187.232 295.959 185.822 298.519 187.342C302.157 189.516 301.582 192.375 301.559 192.517C301.677 192.398 303.859 190.28 305.631 190.942C306.796 191.469 307.705 192.438 308.159 193.635C308.159 193.635 310.521 190.367 312.482 191.564C313.828 192.482 314.913 193.733 315.632 195.194C315.632 195.194 318.798 192.036 322.201 197.132Z" fill="#30A092"/>
<g style="mix-blend-mode:overlay" opacity="0.25">
<path d="M309.245 197.132H255.054L265.812 188.406C265.812 188.406 280.145 181.034 286.123 182.57C292.1 184.106 291.14 189.138 291.14 189.138C291.441 188.82 291.767 188.528 292.116 188.264C292.258 189.365 292.258 190.479 292.116 191.579C292.116 191.579 295.148 190.438 297.149 192.083C299.149 193.729 298.535 195.234 298.535 195.234C299.421 194.781 300.402 194.546 301.397 194.546C302.393 194.546 303.374 194.781 304.26 195.234C305.881 195.968 307.546 196.602 309.245 197.132Z" fill="#292D32"/>
</g>
<path d="M187.545 149.863V76.1798H159.548V76.4318L125.848 130.631L111.121 154.344L112.783 171.458H159.548V197.132H187.545V171.458H199.878V149.863H187.545ZM159.548 149.863H137.788L157.807 115.471L159.548 112.651V149.863Z" fill="#292D32"/>
<path d="M285.068 86.2367C277.717 77.3112 267.335 72.8484 253.92 72.8484C240.505 72.8484 230.136 77.2797 222.812 86.1422C215.461 95.0048 211.786 107.606 211.786 123.945V146.043C211.786 162.267 215.461 174.839 222.812 183.759C230.162 192.679 240.574 197.142 254.046 197.147C267.398 197.147 277.741 192.716 285.075 183.854C292.41 174.991 296.085 162.39 296.101 146.051V124.031C296.112 107.745 292.434 95.1466 285.068 86.2367ZM239.878 118.526C240.041 110.446 241.219 104.408 243.414 100.413C245.609 96.4171 249.111 94.422 253.92 94.4273C258.845 94.4273 262.444 96.5747 264.717 100.869C266.991 105.164 268.125 111.659 268.119 120.353V150.28C268.062 158.975 266.901 165.357 264.638 169.426C262.376 173.495 258.858 175.529 254.085 175.529C249.155 175.529 245.556 173.429 243.288 169.229C241.146 165.286 240.014 159.188 239.894 150.934C239.894 150.438 239.894 149.926 239.894 149.414L239.878 118.526Z" fill="#292D32"/>
<path d="M384.582 149.863V76.1798H356.601V76.4318L308.166 154.344L309.828 171.458H356.601V197.132H384.59V171.458H396.892V149.863H384.582ZM356.593 149.863H334.825L354.844 115.471L356.593 112.651V149.863Z" fill="#292D32"/>
<g style="mix-blend-mode:overlay" opacity="0.25">
<path d="M182.34 76.1798C178.591 80.9681 165.746 79.2591 162.855 79.5662C159.579 79.9128 136.819 119.991 133.716 125.079C131.684 128.379 128.125 129.938 125.88 130.592L159.564 76.3924V76.1404L182.34 76.1798Z" fill="white"/>
</g>
<g style="mix-blend-mode:overlay" opacity="0.25">
<path d="M384.582 76.1798V131.97C377.416 126.024 381.369 82.0628 380.235 80.6058C379.101 79.1489 364.098 80.0861 361.334 79.2198C359.711 78.5976 358.288 77.547 357.215 76.1798H384.582Z" fill="white"/>
</g>
<g style="mix-blend-mode:overlay" opacity="0.25">
<path d="M259.827 182.452C237.271 183.491 239.878 150.95 239.878 150.95C239.993 159.203 241.125 165.302 243.272 169.245C245.54 173.445 249.139 175.545 254.07 175.545C258.826 175.545 262.344 173.511 264.623 169.442C266.901 165.373 268.062 158.991 268.104 150.296V120.369C268.104 111.664 266.97 105.17 264.701 100.885C262.433 96.601 258.834 94.4536 253.904 94.4431C253.904 94.4431 267.86 92.742 273.554 113.392C279.248 134.041 282.382 181.412 259.827 182.452Z" fill="#292D32"/>
</g>
<path d="M230.16 86.1422C230.16 86.1422 220.788 79.3693 219.748 68.8161C226.513 70.722 230.16 78.9362 230.16 78.9362C230.16 78.9362 228.427 71.3914 230.16 66.2408C235.192 73.4706 233.806 79.3693 230.16 86.1422Z" fill="#292D32"/>
<path style="mix-blend-mode:hard-light" d="M417.313 147.453C417.313 147.453 417.313 147.674 417.045 147.989C416.66 148.343 416.203 148.611 415.706 148.776C411.422 150.406 402.68 146.413 397.931 143.767C393.182 141.121 379.637 143.295 370.517 142.058C361.397 140.822 357.53 135.876 349.324 133.86C341.118 131.844 310.545 140.656 308.844 133.805C307.143 126.953 341.48 60.2712 344.417 64.9256C347.355 69.5801 357.53 69.8793 364.657 73.5887C371.785 77.2981 377.904 95.6401 385.827 97.4751C386.925 97.7328 387.985 98.1354 388.977 98.6722C395.277 102.043 399.845 110.485 400.003 117.447C400.192 125.488 411.17 131.978 415.195 136.301C419.219 140.625 417.313 147.453 417.313 147.453Z" fill="url(#paint6_linear_389_468)"/>
<g style="mix-blend-mode:overlay" opacity="0.25">
<path d="M417.313 147.453C417.313 147.453 417.313 147.674 417.045 147.989C418.471 139.2 410.335 135.026 402.869 128.835C395.199 122.456 398.428 117.644 396.86 111.139C395.978 107.288 392.04 102.137 388.977 98.625C395.277 101.996 399.845 110.438 400.003 117.4C400.192 125.441 411.17 131.931 415.195 136.254C419.219 140.578 417.313 147.453 417.313 147.453Z" fill="white"/>
</g>
<path d="M449.461 189.516V192.115C448.608 192.098 447.756 192.14 446.909 192.241L445.421 192.391L445.184 190.186L446.208 190.028L449.461 189.516Z" fill="url(#paint7_linear_389_468)"/>
<path d="M417.14 146.256L415.108 148.107C415.043 148.168 414.996 148.245 414.971 148.33C414.945 148.415 414.942 148.505 414.962 148.592C414.982 148.679 415.024 148.759 415.084 148.824C415.144 148.889 415.22 148.938 415.305 148.965L417.022 149.516L420.959 153.864C421.003 153.908 421.055 153.943 421.113 153.967C421.17 153.99 421.232 154.003 421.294 154.003C421.356 154.003 421.418 153.99 421.475 153.967C421.533 153.943 421.585 153.908 421.629 153.864L422.282 153.273C422.327 153.229 422.361 153.177 422.385 153.12C422.409 153.062 422.421 153.001 422.421 152.938C422.421 152.876 422.409 152.815 422.385 152.757C422.361 152.7 422.327 152.648 422.282 152.604L418.345 148.256L417.959 146.5C417.934 146.419 417.89 146.345 417.83 146.285C417.77 146.226 417.696 146.182 417.615 146.158C417.534 146.133 417.448 146.13 417.365 146.147C417.282 146.164 417.205 146.202 417.14 146.256Z" fill="#353B48"/>
<path d="M432.765 149.028C432.245 149.705 431.568 150.603 430.867 151.477C430.607 151.808 430.339 152.139 430.079 152.454C428.992 153.793 428 154.903 427.717 154.958C426.929 155.084 422.55 152.596 421.897 152.596C421.243 152.596 419.786 153.667 419.392 153.572C418.998 153.478 416.856 151.493 416.919 151.005C416.982 150.517 418.904 148.823 419.849 148.563C420.38 148.521 420.914 148.577 421.424 148.729H421.526C423.377 149.138 426.031 149.973 426.441 149.761C426.902 149.281 427.28 148.727 427.559 148.122C427.724 147.815 427.898 147.5 428.063 147.177C428.229 146.854 428.481 146.39 428.67 146.004L429.15 145.027C429.67 145.768 430.235 146.475 430.843 147.146C431.397 147.856 432.044 148.489 432.765 149.028Z" fill="url(#paint8_linear_389_468)"/>
<path d="M450.658 154.194C450.658 155.636 450.658 157.006 450.548 158.132C450.201 162.582 449.855 166.228 448.335 166.315C446.815 166.402 446.515 154.257 446.594 153.517C446.594 153.375 446.594 153.068 446.633 152.674C446.633 151.351 446.689 148.981 446.712 147.949C446.704 147.789 446.704 147.629 446.712 147.469L446.996 147.296L450.311 145.177C450.311 145.177 450.5 148.052 450.595 151.32C450.595 151.769 450.595 152.226 450.595 152.682C450.595 153.139 450.658 153.698 450.658 154.194Z" fill="url(#paint9_linear_389_468)"/>
<g style="mix-blend-mode:overlay" opacity="0.25">
<path d="M450.658 154.194C449.767 155.067 448.612 155.621 447.374 155.77C445.295 155.77 448.342 151.548 449.028 151.446C449.303 151.446 449.933 151.383 450.603 151.351C450.603 151.8 450.603 152.257 450.603 152.714C450.603 153.171 450.658 153.698 450.658 154.194Z" fill="#292D32"/>
</g>
<path d="M450.642 152.698C449.524 153.081 448.32 153.141 447.169 152.871C446.982 152.832 446.801 152.766 446.633 152.674C445.358 151.958 445.846 149.847 446.712 147.949C446.807 147.721 446.909 147.508 447.011 147.296L450.327 145.177C450.327 145.177 450.571 148.902 450.642 152.698Z" fill="#353B48"/>
<path d="M443.609 128.686C443.518 129.248 443.308 129.785 442.995 130.261C442.575 130.964 442.043 131.595 441.42 132.127C441.109 132.442 440.689 132.626 440.246 132.639C439.183 132.49 437.884 130.773 437.837 130.45C437.789 130.127 438.971 130.001 438.821 129.048C438.671 128.095 438.033 127.914 437.608 128.095C437.284 128.336 437.024 128.653 436.852 129.018C436.68 129.384 436.602 129.787 436.624 130.19C436.317 130.19 435.742 129.001 434.671 128.339C434.366 128.145 434.026 128.011 433.67 127.945C433.124 127.845 432.561 127.894 432.04 128.087C431.765 124.638 433.844 123.118 435.45 123.724C435.45 123.724 434.867 122.582 434.017 122.338C434.562 122.401 435.079 122.615 435.509 122.956C435.939 123.297 436.265 123.751 436.45 124.268C436.635 123.581 437.02 122.966 437.556 122.499C438.091 122.032 438.754 121.735 439.459 121.645C441.932 121.346 442.412 124.598 442.412 124.598C442.682 123.779 442.782 122.914 442.704 122.055C442.931 123.176 442.899 124.334 442.609 125.441C443.003 125.586 443.349 125.837 443.609 126.167C443.868 126.496 444.032 126.891 444.082 127.308C443.082 126.52 443.019 126.607 443.019 126.607C443.265 126.888 443.446 127.22 443.548 127.58C443.65 127.939 443.671 128.317 443.609 128.686Z" fill="#2F172B"/>
<path d="M441.42 132.12C441.223 132.655 441.042 133.167 440.955 133.348C440.758 133.805 438.223 135.931 436.411 133.482C435.345 131.97 434.74 130.181 434.671 128.331C435.742 128.993 436.317 130.143 436.624 130.182C436.602 129.779 436.68 129.376 436.852 129.011C437.024 128.645 437.284 128.328 437.608 128.087C438.065 127.906 438.671 128.087 438.821 129.04C438.971 129.993 437.813 130.119 437.837 130.442C437.86 130.765 439.183 132.482 440.247 132.631C440.689 132.618 441.109 132.434 441.42 132.12Z" fill="url(#paint10_linear_389_468)"/>
<path d="M442.68 121.976C442.636 121.85 442.575 121.731 442.499 121.621C442.584 121.725 442.645 121.846 442.68 121.976Z" fill="#2F172B"/>
<path d="M451.453 144.76C451.22 145.2 450.957 145.623 450.666 146.028L450.406 146.366C449.98 146.91 449.491 147.402 448.949 147.831C448.951 147.863 448.951 147.894 448.949 147.926C448.949 147.996 448.949 148.107 449.004 148.264C449.067 148.619 449.154 149.17 449.248 149.839L449.295 150.17C449.295 150.485 449.374 150.808 449.406 151.147C449.406 151.344 449.453 151.54 449.469 151.737C449.484 151.934 449.469 151.958 449.469 152.068C449.516 152.596 449.54 153.131 449.547 153.643V153.974C449.554 154.503 449.504 155.031 449.398 155.549C449.368 155.662 449.331 155.772 449.288 155.88C449.249 155.994 449.191 156.101 449.114 156.195C449.01 156.315 448.877 156.407 448.728 156.463C447.586 156.974 444.539 156.998 441.522 156.841C438.915 156.699 436.332 156.415 435.025 156.195C434.696 156.147 434.379 156.04 434.088 155.88C433.928 155.795 433.784 155.683 433.662 155.549C433.593 155.478 433.532 155.398 433.481 155.313C433.222 154.8 433.124 154.221 433.198 153.651C433.249 153.151 433.339 152.656 433.466 152.17V152.084C433.466 151.974 433.521 151.863 433.552 151.753C433.686 151.225 433.836 150.698 433.954 150.178C433.954 150.099 433.954 150.02 434.009 149.942V149.847C434.135 149.217 434.222 148.697 434.277 148.272C434.283 148.159 434.283 148.046 434.277 147.933C434.35 147.503 434.35 147.064 434.277 146.634C434.277 146.634 434.009 147.295 433.678 147.933C433.615 148.044 433.552 148.162 433.481 148.272C433.237 148.697 432.969 149.06 432.757 149.06C432.715 149.068 432.672 149.068 432.631 149.06C432.292 148.837 431.982 148.572 431.709 148.272L431.371 147.933L430.662 147.146C430.434 146.894 430.205 146.626 429.993 146.358L429.717 146.02C429.426 145.657 429.166 145.311 428.929 145.019C428.8 144.843 428.687 144.656 428.591 144.46C428.55 144.387 428.523 144.307 428.512 144.224C428.509 144.19 428.509 144.156 428.512 144.122C428.635 143.582 428.806 143.055 429.024 142.547C429.024 142.436 429.11 142.326 429.158 142.208C429.355 141.735 429.583 141.2 429.843 140.633L430.008 140.302C430.252 139.79 430.52 139.262 430.796 138.727L430.985 138.396C431.292 137.853 431.615 137.325 431.954 136.821L432.19 136.49C432.583 135.922 433.031 135.395 433.529 134.915C433.657 134.793 433.794 134.68 433.938 134.577L434.167 134.411C434.75 134.042 435.371 133.733 436.017 133.49C437.274 133.007 438.609 132.761 439.955 132.765C441.008 132.767 442.05 132.97 443.026 133.364C443.782 133.675 444.494 134.082 445.145 134.577L445.578 134.915C446.15 135.391 446.677 135.918 447.153 136.49L447.429 136.821C447.828 137.325 448.199 137.851 448.539 138.396C448.61 138.506 448.681 138.617 448.744 138.727C449.052 139.237 449.333 139.763 449.587 140.302L449.752 140.633C449.988 141.137 450.209 141.657 450.422 142.208C450.422 142.318 450.508 142.428 450.548 142.547C450.737 143.043 450.918 143.562 451.083 144.122C451.083 144.224 451.146 144.334 451.185 144.445C451.398 144.563 451.422 144.657 451.453 144.76Z" fill="#FF6348"/>
<g style="mix-blend-mode:overlay" opacity="0.25">
<path d="M445.759 134.978H433.726C433.854 134.856 433.991 134.743 434.135 134.64H445.326L445.759 134.978Z" fill="white"/>
</g>
<g style="mix-blend-mode:overlay" opacity="0.25">
<path d="M447.61 136.868H432.15L432.387 136.538H447.35L447.61 136.868Z" fill="white"/>
</g>
<g style="mix-blend-mode:overlay" opacity="0.25">
<path d="M448.925 138.79H430.993L431.182 138.459H448.744C448.791 138.546 448.862 138.656 448.925 138.79Z" fill="white"/>
</g>
<g style="mix-blend-mode:overlay" opacity="0.25">
<path d="M449.933 140.664H430.024L430.189 140.334H449.768L449.933 140.664Z" fill="white"/>
</g>
<g style="mix-blend-mode:overlay" opacity="0.25">
<path d="M450.729 142.57H429.205C429.205 142.46 429.292 142.35 429.339 142.232H450.603C450.642 142.342 450.689 142.452 450.729 142.57Z" fill="white"/>
</g>
<g style="mix-blend-mode:overlay" opacity="0.25">
<path d="M451.367 144.468H428.764C428.723 144.395 428.697 144.315 428.685 144.232C428.682 144.198 428.682 144.164 428.685 144.13H451.264C451.264 144.232 451.327 144.342 451.367 144.453V144.468Z" fill="white"/>
</g>
<g style="mix-blend-mode:overlay" opacity="0.25">
<path d="M450.658 146.028L450.398 146.366H430.126L429.851 146.028H450.658Z" fill="white"/>
</g>
<g style="mix-blend-mode:overlay" opacity="0.25">
<path d="M431.505 147.926H433.781C433.718 148.036 433.655 148.154 433.584 148.264H431.812L431.505 147.926Z" fill="white"/>
</g>
<g style="mix-blend-mode:overlay" opacity="0.25">
<path d="M449.012 148.241H434.356C434.362 148.128 434.362 148.015 434.356 147.902H448.917C448.965 147.996 448.988 148.107 449.012 148.241Z" fill="white"/>
</g>
<g style="mix-blend-mode:overlay" opacity="0.25">
<path d="M449.303 150.154H434.009C434.009 150.076 434.009 149.997 434.064 149.918V149.824H449.232L449.303 150.154Z" fill="white"/>
</g>
<g style="mix-blend-mode:overlay" opacity="0.25">
<path d="M449.532 152.052H433.544C433.544 151.942 433.6 151.832 433.631 151.722H449.5C449.484 151.832 449.532 151.942 449.532 152.052Z" fill="white"/>
</g>
<g style="mix-blend-mode:overlay" opacity="0.25">
<path d="M449.587 153.62V153.95H433.206C433.198 153.84 433.198 153.73 433.206 153.62H449.587Z" fill="white"/>
</g>
<g style="mix-blend-mode:overlay" opacity="0.25">
<path d="M449.437 155.518C449.408 155.63 449.371 155.741 449.327 155.848H434.119C433.96 155.763 433.816 155.651 433.694 155.518H449.437Z" fill="white"/>
</g>
<path d="M449.784 187.35C449.067 187.807 444.271 188.327 444.271 188.327L444.121 187.453L443.231 182.208L441.144 169.804L439.018 185.255L438.404 189.815C438.404 189.815 432.481 190.138 432.481 188.705C432.481 188.532 432.481 187.917 432.481 186.909C432.654 180.609 433.316 159.936 433.474 155.273C433.654 155.528 433.889 155.74 434.162 155.892C434.434 156.045 434.737 156.135 435.049 156.155L435.277 156.195C438.293 156.675 446.673 157.353 448.76 156.423C448.854 157.211 448.941 158.376 449.02 159.873C449.351 165.89 449.587 176.695 449.697 182.806C449.76 185.547 449.784 187.35 449.784 187.35Z" fill="#353B48"/>
<g style="mix-blend-mode:overlay" opacity="0.25">
<path d="M443.231 182.184L441.144 169.78C441.144 169.78 441.711 164.795 441.932 164.228C442.152 163.661 443.672 164.102 444.294 163.669C444.641 164.496 442.467 165.535 442.294 168.134C442.176 170.008 442.838 177.908 443.231 182.184Z" fill="#292D32"/>
</g>
<g style="mix-blend-mode:overlay" opacity="0.25">
<path d="M434.679 157.975C434.679 157.975 434.482 160.802 436.789 162.165" stroke="white" stroke-width="0.46" stroke-linecap="round" stroke-linejoin="round"/>
</g>
<g style="mix-blend-mode:overlay" opacity="0.25">
<path d="M435.175 161.763L435.143 162.306" stroke="white" stroke-width="0.46" stroke-linecap="round" stroke-linejoin="round"/>
<path d="M435.096 163.401L433.985 186.823" stroke="white" stroke-width="0.46" stroke-linecap="round" stroke-linejoin="round" stroke-dasharray="1.39 1.39"/>
<path d="M433.962 187.366L433.93 187.917" stroke="white" stroke-width="0.46" stroke-linecap="round" stroke-linejoin="round"/>
</g>
<g style="mix-blend-mode:overlay" opacity="0.25">
<path d="M443.263 164.448L445.342 186.744" stroke="white" stroke-width="0.46" stroke-linecap="round" stroke-linejoin="round" stroke-dasharray="1.39 1.39"/>
</g>
<g style="mix-blend-mode:overlay" opacity="0.25">
<path d="M445.019 158.424C445.019 158.424 444.783 161.149 445.019 161.668C445.255 162.188 446.271 162.637 446.492 162.747C446.712 162.858 447.697 161.96 447.744 161.416C447.791 160.873 447.854 158.534 447.854 158.534C446.92 158.352 445.964 158.315 445.019 158.424Z" stroke="white" stroke-width="0.46" stroke-linecap="round" stroke-linejoin="round"/>
</g>
<g style="mix-blend-mode:overlay" opacity="0.25">
<path d="M449.784 187.35C449.067 187.807 444.271 188.327 444.271 188.327L444.121 187.453C445.523 186.665 448.295 184.901 449.721 182.814C449.76 185.547 449.784 187.35 449.784 187.35Z" fill="#292D32"/>
</g>
<path d="M450.067 189.422L449.461 189.516L445.184 190.186L444.885 190.233C444.736 190.258 444.584 190.252 444.437 190.218C444.29 190.183 444.151 190.12 444.029 190.031C443.906 189.942 443.803 189.83 443.724 189.701C443.645 189.572 443.593 189.429 443.57 189.28V189.185C443.524 188.885 443.599 188.579 443.777 188.333C443.955 188.087 444.223 187.92 444.523 187.87L449.721 187.083C450.021 187.037 450.328 187.113 450.573 187.293C450.818 187.473 450.981 187.743 451.028 188.043V188.138C451.067 188.435 450.988 188.735 450.808 188.975C450.629 189.215 450.363 189.375 450.067 189.422Z" fill="#4C3146"/>
<g style="mix-blend-mode:overlay" opacity="0.25">
<path d="M439.018 185.255L438.404 189.815C438.404 189.815 432.481 190.138 432.481 188.705C432.481 188.532 432.481 187.917 432.481 186.909C433.915 186.831 437.144 186.445 439.018 185.255Z" fill="#292D32"/>
</g>
<path d="M438.931 190.115V190.217C438.901 190.52 438.753 190.798 438.518 190.991C438.284 191.185 437.982 191.277 437.679 191.249L433.159 190.831L432.481 190.768C432.178 190.738 431.899 190.59 431.704 190.356C431.51 190.121 431.415 189.82 431.442 189.516V189.422C431.47 189.119 431.616 188.84 431.849 188.645C432.083 188.45 432.383 188.356 432.686 188.382L437.923 188.87C438.221 188.904 438.493 189.053 438.682 189.286C438.871 189.519 438.96 189.816 438.931 190.115Z" fill="#4C3146"/>
<g style="mix-blend-mode:overlay" opacity="0.25">
<path d="M449.028 159.881C446.607 160.234 444.14 160.09 441.777 159.458C439.414 158.826 437.205 157.718 435.285 156.203C438.301 156.683 446.681 157.36 448.768 156.431C448.862 157.187 448.949 158.384 449.028 159.881Z" fill="#292D32"/>
</g>
<g style="mix-blend-mode:overlay" opacity="0.25">
<path d="M434.064 149.918C434.623 147.319 434.411 146.626 434.411 146.626C434.411 146.626 433.45 148.989 432.891 149.052C432.631 149.052 431.709 148.178 430.796 147.146C431.775 146.956 432.684 146.504 433.426 145.839C434.395 144.736 434.293 140.019 434.671 139.987C435.049 139.956 435.915 148.705 433.497 152.139C433.678 151.391 433.907 150.643 434.064 149.918Z" fill="#292D32"/>
</g>
<g style="mix-blend-mode:overlay" opacity="0.25">
<path d="M451.453 144.76C450.835 145.945 449.98 146.99 448.941 147.831C448.941 147.831 447.657 141.082 447.271 140.42C446.964 139.9 447.397 139.357 448.106 141.657C448.65 143.437 450.083 144.807 451.367 144.452C451.398 144.555 451.422 144.657 451.453 144.76Z" fill="#292D32"/>
</g>
<g style="mix-blend-mode:overlay" opacity="0.25">
<path d="M449.154 156.163C449.05 156.284 448.917 156.376 448.768 156.431C447.626 156.943 444.578 156.967 441.562 156.809C443.625 156.533 448.563 155.439 449.437 151.131C449.634 153.139 449.729 155.447 449.154 156.163Z" fill="#292D32"/>
</g>
<g style="mix-blend-mode:overlay" opacity="0.25">
<path d="M443.231 133.427C442.963 133.75 442.515 133.891 441.766 133.718C440.286 133.372 438.333 134.065 437.317 133.907C436.937 133.864 436.569 133.744 436.238 133.553C437.494 133.07 438.829 132.824 440.176 132.828C441.223 132.832 442.26 133.035 443.231 133.427Z" fill="#292D32"/>
</g>
<path d="M432.765 149.028C432.245 149.705 431.568 150.603 430.867 151.477C429.552 150.578 428.415 149.443 427.512 148.13C428.11 147.051 428.764 145.728 429.087 145.035C429.607 145.776 430.172 146.483 430.78 147.154C431.354 147.865 432.022 148.496 432.765 149.028Z" fill="#353B48"/>
<g style="mix-blend-mode:overlay" opacity="0.25">
<path d="M432.765 149.028C432.245 149.705 431.568 150.603 430.867 151.477C430.607 151.808 430.339 152.139 430.079 152.454C430.086 150.224 429.588 148.022 428.622 146.012L429.103 145.035C429.622 145.776 430.188 146.483 430.796 147.154C431.365 147.864 432.027 148.495 432.765 149.028Z" fill="#292D32"/>
</g>
<g style="mix-blend-mode:overlay" opacity="0.25">
<path d="M428.016 147.177C427.871 148.01 427.539 148.798 427.047 149.485C426.787 149.887 427 151.682 426.756 151.47C426.512 151.257 426.409 150.383 426.086 150.083C424.579 149.54 423.041 149.088 421.479 148.729C423.33 149.138 425.984 149.973 426.393 149.761C426.855 149.281 427.233 148.727 427.512 148.122C427.677 147.815 427.85 147.5 428.016 147.177Z" fill="white"/>
</g>
<g style="mix-blend-mode:overlay" opacity="0.25">
<path d="M442.995 130.253C442.575 130.956 442.043 131.587 441.42 132.119C441.109 132.434 440.689 132.618 440.246 132.631C439.183 132.482 437.884 130.765 437.837 130.442C437.789 130.119 438.971 129.993 438.821 129.04C438.671 128.087 438.033 127.906 437.608 128.087C437.284 128.328 437.024 128.645 436.852 129.011C436.68 129.376 436.602 129.779 436.624 130.182C436.317 130.182 435.742 128.993 434.671 128.331C434.366 128.137 434.026 128.003 433.67 127.938C434.226 127.833 434.798 127.862 435.34 128.024C436.317 128.434 436.348 128.812 436.348 128.812C436.414 128.384 436.614 127.988 436.92 127.682C437.226 127.376 437.621 127.176 438.049 127.111C439.38 126.882 440.428 130.497 442.995 130.253Z" fill="#292D32"/>
</g>
<path d="M438.404 197.132H428.055C427.982 196.892 427.945 196.642 427.945 196.391C427.922 196.057 428.007 195.723 428.187 195.44C428.367 195.157 428.632 194.938 428.945 194.816L429.882 194.399C431.182 193.785 432.576 192.974 432.804 192.501L433.009 192.595C433.404 192.774 433.812 192.922 434.23 193.037C434.458 193.104 434.693 193.143 434.931 193.155C435.505 193.155 436.632 192.855 437.34 192.769C437.663 192.721 437.9 192.729 437.963 192.832C438.175 194.005 438.304 195.192 438.348 196.384C438.38 196.832 438.404 197.132 438.404 197.132Z" fill="#1F3247"/>
<path d="M437.64 191.249C437.553 191.729 437.451 192.312 437.34 192.777C436.829 192.84 436.096 193.021 435.505 193.107C435.316 193.142 435.123 193.161 434.931 193.162C434.264 193.083 433.614 192.894 433.009 192.603C433.009 192.091 433.072 191.32 433.119 190.831L434.891 190.989L437.64 191.249Z" fill="url(#paint11_linear_389_468)"/>
<path d="M450.808 197.132H444.562C444.481 196.894 444.446 196.642 444.46 196.391C444.472 196.031 444.558 195.678 444.712 195.352C445.161 194.352 444.925 192.729 445.145 192.422H445.421C446.761 192.248 448.11 192.155 449.461 192.146H449.61C450.028 192.288 450.508 195.013 450.713 196.399C450.76 196.746 450.8 197.014 450.808 197.132Z" fill="#1F3247"/>
<g style="mix-blend-mode:overlay" opacity="0.25">
<path d="M438.348 196.391C438.348 196.833 438.404 197.132 438.404 197.132H428.055C427.982 196.892 427.945 196.642 427.945 196.391H438.348Z" fill="#292D32"/>
</g>
<g style="mix-blend-mode:overlay" opacity="0.25">
<path d="M450.808 197.132H444.562C444.481 196.894 444.446 196.643 444.46 196.391H450.713C450.76 196.746 450.8 197.014 450.808 197.132Z" fill="#292D32"/>
</g>
<path d="M434.23 193.044C433.269 193.69 431.481 194.816 430.875 194.816C430.503 194.814 430.147 194.667 429.882 194.407C431.182 193.792 432.576 192.981 432.804 192.509L433.009 192.603C433.404 192.782 433.812 192.93 434.23 193.044Z" fill="#122230"/>
<g style="mix-blend-mode:overlay" opacity="0.25">
<path d="M437.64 191.249C437.553 191.729 437.451 192.312 437.34 192.777C436.829 192.84 436.096 193.021 435.505 193.107L434.891 190.989L437.64 191.249Z" fill="#292D32"/>
</g>
<g style="mix-blend-mode:overlay" opacity="0.25">
<path d="M449.461 189.516V192.115C448.608 192.098 447.756 192.14 446.909 192.241L446.208 190.028L449.461 189.516Z" fill="#292D32"/>
</g>
<path style="mix-blend-mode:hard-light" d="M96.5437 147.453C96.5437 147.453 94.6457 140.586 98.6622 136.262C102.679 131.938 113.626 125.449 113.854 117.408C114.082 109.367 120.099 99.2943 128.03 97.4357C135.961 95.5771 142.064 77.2193 149.199 73.5493C156.335 69.8793 166.525 69.5643 169.439 64.8862C172.353 60.2082 206.714 126.922 205.013 133.765C203.312 140.609 172.723 131.812 164.533 133.821C156.342 135.829 152.46 140.775 143.348 142.019C134.236 143.263 120.682 141.05 115.933 143.728C111.184 146.406 102.435 150.367 98.1582 148.737C96.4256 148.067 96.5437 147.453 96.5437 147.453Z" fill="url(#paint12_linear_389_468)"/>
<path d="M98.2055 148.721L96.2681 146.776C96.2061 146.711 96.128 146.664 96.042 146.64C95.9559 146.616 95.8649 146.615 95.7783 146.637C95.6917 146.66 95.6127 146.705 95.5493 146.768C95.4859 146.831 95.4404 146.91 95.4175 146.996L94.945 148.737L90.771 152.887C90.6839 152.977 90.6352 153.097 90.6352 153.222C90.6352 153.347 90.6839 153.467 90.771 153.557L91.3931 154.187C91.4828 154.274 91.6029 154.322 91.7279 154.322C91.8528 154.322 91.9729 154.274 92.0626 154.187L96.2366 150.036L97.9771 149.572C98.0642 149.55 98.1438 149.505 98.2079 149.442C98.2719 149.379 98.3179 149.3 98.3412 149.213C98.3645 149.127 98.3642 149.035 98.3403 148.949C98.3164 148.862 98.2699 148.784 98.2055 148.721Z" fill="#353B48"/>
<path d="M78.0678 128.016C78.0678 128.016 78.0206 128.804 77.8867 129.773C77.7856 131.058 77.4323 132.31 76.8471 133.458L76.7841 133.545C75.9493 134.648 74.3584 134.372 73.5473 133.002C74.0277 132.411 74.2324 131.655 73.9174 131.356C73.248 130.726 73.4291 128.946 74.3821 129.158C75.335 129.371 75.4846 131.938 75.8312 131.875C76.1777 131.812 77.4771 129.591 78.0678 128.016Z" fill="url(#paint13_linear_389_468)"/>
<path d="M78.3277 126.922C78.2994 127.298 78.2117 127.667 78.0678 128.016C77.9733 128.276 77.8552 128.552 77.7291 128.804C77.0597 130.237 76.0595 131.804 75.8312 131.852C75.4846 131.915 75.335 129.355 74.3821 129.135C73.4291 128.914 73.248 130.71 73.9174 131.332C74.2324 131.631 74.0277 132.387 73.5473 132.978C73.3278 133.336 72.979 133.597 72.573 133.705C72.1669 133.814 71.7347 133.762 71.3658 133.561C69.7906 132.584 69.4835 126.473 69.4992 125.992C69.487 125.679 69.5215 125.366 69.6016 125.063C69.7309 124.531 69.9868 124.039 70.3474 123.628C70.7081 123.216 71.1628 122.898 71.6729 122.7C74.0355 121.7 78.3277 121.921 78.3277 126.922Z" fill="#353B48"/>
<path d="M90.7474 152.438C90.7388 152.502 90.7257 152.565 90.708 152.627C90.6371 152.903 90.5505 153.092 90.4481 153.131C90.0284 153.137 89.6091 153.103 89.1959 153.029C88.243 152.903 86.8332 152.682 85.581 152.438C84.4027 152.261 83.2447 151.968 82.1237 151.564C81.4478 151.012 80.8838 150.336 80.462 149.572L79.9816 148.784C79.194 147.524 78.5482 146.256 78.4065 145.909L78.3592 145.823V145.909C78.2871 146.886 78.0994 147.851 77.8 148.784C77.7055 149.044 77.6032 149.304 77.485 149.572C77.3784 149.797 77.2574 150.015 77.1228 150.225C76.9474 150.566 76.8514 150.942 76.8418 151.325C76.8323 151.709 76.9095 152.089 77.0676 152.438C77.0676 152.541 77.1385 152.635 77.1779 152.73C77.2409 152.887 77.3118 153.053 77.3826 153.21C77.5008 153.486 77.6347 153.761 77.7607 153.998C78.1285 154.556 78.3356 155.204 78.3592 155.872C78.3349 155.943 78.2913 156.006 78.2332 156.053C78.1757 156.106 78.1153 156.156 78.0521 156.203C77.6659 156.453 77.2541 156.662 76.8235 156.825C73.7442 158.109 66.8531 159.581 63.8604 156.825C63.8067 156.782 63.7566 156.734 63.7108 156.683C63.6284 156.606 63.5623 156.514 63.5163 156.411C63.4703 156.308 63.4454 156.197 63.443 156.085C63.4853 155.746 63.6187 155.424 63.8289 155.155C64.2918 154.535 64.7178 153.888 65.1047 153.218C65.2376 152.963 65.3534 152.7 65.4512 152.43C65.6202 151.981 65.7339 151.513 65.7899 151.036C65.8529 150.54 65.9001 150.044 65.9395 149.564C65.9395 149.304 65.9789 149.044 65.9868 148.776C66.0498 147.776 66.0577 146.815 66.0498 145.902C66.0498 145.642 66.0498 145.39 66.0498 145.114C66.0498 144.098 65.9868 143.137 65.9474 142.247C65.9474 141.98 65.9474 141.728 65.9474 141.46C65.9048 140.501 65.9232 139.541 66.0025 138.585C66.024 138.32 66.0635 138.057 66.1207 137.798C66.2788 136.689 66.8225 135.671 67.6564 134.923L67.7509 134.836C68.058 134.584 68.3573 134.356 68.633 134.151C68.9086 133.947 69.263 133.726 69.5386 133.553C71.3973 132.434 72.3423 132.592 72.3423 132.592C72.3423 132.592 72.9172 132.592 73.7678 132.781C74.7984 132.947 75.811 133.211 76.792 133.569L77.1858 133.734C77.4693 133.852 77.7449 133.986 78.0127 134.128C78.2804 134.269 78.3828 134.332 78.5561 134.443C78.7293 134.553 78.9892 134.734 79.2019 134.899C79.7231 135.298 80.1663 135.789 80.5092 136.349C80.7691 136.774 81.029 137.254 81.2968 137.774C81.4228 138.018 81.5488 138.278 81.6748 138.562C82.1001 139.475 82.5096 140.46 82.8955 141.436C82.9979 141.688 83.1003 141.948 83.1948 142.224C83.5964 143.255 83.9823 144.248 84.2422 145.09C84.3367 145.366 84.4233 145.626 84.51 145.878L85.0613 147.571C85.1636 147.894 85.8488 148.201 86.6836 148.477C86.9593 148.579 87.2585 148.666 87.5657 148.752C88.1563 148.918 88.7706 149.075 89.314 149.217C89.7236 149.327 90.1016 149.43 90.3772 149.524C90.6529 149.619 90.8734 149.705 90.9128 149.784C90.9373 149.82 90.9559 149.86 90.9679 149.902C91.0367 150.754 90.9622 151.611 90.7474 152.438Z" fill="#FF6348"/>
<g style="mix-blend-mode:overlay" opacity="0.25">
<path d="M77.8552 134.403C78.0914 134.529 78.3198 134.671 78.5325 134.813H68.0502L68.5857 134.403H77.8552ZM77.9024 134.222H68.5227C68.2471 134.427 67.9478 134.655 67.6406 134.907L67.5461 134.994H79.0916C78.7192 134.697 78.3212 134.433 77.9024 134.206V134.222Z" fill="white"/>
<path d="M81.0684 138.05L81.2653 138.459H66.097C66.097 138.31 66.1364 138.176 66.16 138.05H81.0684ZM81.1786 137.869H65.9947C65.9375 138.128 65.898 138.391 65.8765 138.656H81.5409C81.4149 138.388 81.2889 138.128 81.1629 137.869H81.1786Z" fill="white"/>
<path d="M82.6514 141.696L82.8167 142.106H66.034C66.034 141.964 66.034 141.83 66.034 141.696H82.6592M82.7852 141.515H65.8372C65.8372 141.767 65.8372 142.019 65.8372 142.302H83.053C82.9585 142.043 82.8561 141.783 82.7537 141.515H82.7852Z" fill="white"/>
<path d="M83.9981 145.334L84.0926 145.626L84.132 145.744H66.168C66.168 145.61 66.168 145.476 66.168 145.334H84.0138M84.1398 145.153H65.9947C65.9947 145.413 65.9947 145.665 65.9947 145.941H84.3997C84.3131 145.705 84.2265 145.445 84.132 145.153H84.1398Z" fill="white"/>
<path d="M77.5008 148.981C77.4456 149.13 77.3905 149.264 77.3354 149.39H66.0734V148.981H77.4771M77.7449 148.8H65.9317C65.9317 149.052 65.9317 149.312 65.8844 149.587H77.4614C77.5795 149.335 77.6819 149.075 77.7764 148.8H77.7449Z" fill="white"/>
<path d="M87.4239 148.981L88.7864 149.351H88.9439H80.5644L80.3045 148.942H87.3924M87.3924 148.76H79.9265L80.4069 149.548H90.204C89.9283 149.453 89.5503 149.351 89.1408 149.241C88.5974 149.099 87.9831 148.942 87.3924 148.776V148.76Z" fill="white"/>
<path d="M76.9101 152.627C76.9101 152.627 76.9101 152.698 76.9101 152.737V152.8L76.9889 153.013H65.2544C65.3174 152.871 65.3804 152.737 65.4355 152.604H76.8314M76.9574 152.415H65.3883C65.2904 152.684 65.1746 152.948 65.0417 153.202H77.3512C77.2803 153.045 77.2094 152.879 77.1464 152.722C77.1464 152.627 77.0755 152.533 77.0361 152.43L76.9574 152.415Z" fill="white"/>
<path d="M90.519 152.627C90.4908 152.739 90.4512 152.847 90.4009 152.95H90.33C90.1567 152.95 89.7787 152.911 89.2195 152.84C88.6604 152.769 88.243 152.706 87.6917 152.619H90.519M90.7553 152.454H85.5889C86.8726 152.698 88.2508 152.919 89.2038 153.045C89.5796 153.101 89.9582 153.138 90.3379 153.155H90.456C90.5584 153.155 90.645 152.927 90.7159 152.651C90.7336 152.589 90.7467 152.526 90.7553 152.462V152.454Z" fill="white"/>
<path d="M77.6189 156.266C77.3418 156.42 77.0551 156.557 76.7605 156.675H63.8998L63.8053 156.589L63.6793 156.715L63.7738 156.557C63.6927 156.474 63.6309 156.375 63.5926 156.266H77.6189ZM78.2017 156.085H63.38C63.3824 156.197 63.4073 156.308 63.4533 156.411C63.4993 156.514 63.5654 156.606 63.6478 156.683C63.6936 156.734 63.7437 156.782 63.7974 156.825H76.7605C77.1911 156.662 77.6029 156.453 77.9891 156.203C78.0523 156.156 78.1128 156.106 78.1702 156.053L78.2017 156.085Z" fill="white"/>
</g>
<path d="M79.3279 190.209C79.2826 190.351 79.2191 190.486 79.1389 190.611C78.2805 192.099 75.9099 192.249 75.0357 191.965C74.9409 191.943 74.8521 191.9 74.7759 191.839C74.2482 191.383 73.7993 187.61 70.9956 166.205V166.354C70.9405 169.394 70.3104 174.797 69.6331 179.743C68.8929 185.255 68.1132 190.209 68.0108 190.989C67.9714 191.245 67.8562 191.484 67.68 191.674C67.4086 191.928 67.0874 192.122 66.7368 192.245C66.3862 192.368 66.0139 192.416 65.6435 192.387C65.2732 192.358 64.9129 192.253 64.5856 192.077C64.2583 191.901 63.9711 191.659 63.7423 191.367C63.6442 191.247 63.5547 191.121 63.4745 190.989C64.0743 183.234 64.0401 175.443 63.3721 167.693C63.1204 165.4 63.0545 163.09 63.1752 160.786C63.2464 159.396 63.4121 158.012 63.6714 156.644C66.6326 159.652 73.9095 158.03 76.9652 156.715C77.3313 156.565 77.6821 156.38 78.0127 156.163C78.8632 159.668 78.5403 169.827 79.3279 190.209Z" fill="#353B48"/>
<g style="mix-blend-mode:overlay" opacity="0.25">
<path d="M77.0755 133.828C72.0431 133.986 70.6097 141.806 70.6097 141.806L69.4284 133.624C71.287 132.505 72.2321 132.663 72.2321 132.663C73.8955 132.808 75.528 133.201 77.0755 133.828Z" fill="#292D32"/>
</g>
<path d="M85.077 197.069H75.0593C75.0129 196.666 74.9893 196.261 74.9885 195.856C74.9885 195.69 74.9885 195.501 74.9885 195.32C74.9885 194.131 74.9885 192.729 75.0436 191.973C75.358 192.065 75.6851 192.105 76.0123 192.091C76.8926 192.101 77.7551 191.843 78.4852 191.351C78.7577 191.157 78.9858 190.907 79.1546 190.619C79.8449 191.876 80.9181 192.88 82.2182 193.485C83.2656 194.06 84.2422 194.438 84.6517 194.73C84.8221 194.865 84.961 195.036 85.0589 195.23C85.1568 195.425 85.2114 195.638 85.2187 195.856C85.2438 196.265 85.1958 196.676 85.077 197.069Z" fill="#1F3247"/>
<path d="M67.806 195.848C67.806 196.636 67.7194 197.061 67.7194 197.061H62.0018C62.0726 196.651 62.1593 196.273 62.2538 195.848C62.633 194.34 63.1334 192.865 63.7501 191.438C64.0903 191.864 64.5504 192.179 65.0711 192.342C65.5918 192.505 66.1494 192.508 66.672 192.351C67.059 192.25 67.4088 192.039 67.68 191.745C67.8194 193.108 67.8615 194.479 67.806 195.848Z" fill="#1F3247"/>
<path d="M96.0948 151.107C95.9846 151.737 93.7322 153.714 93.0549 153.517C92.938 153.48 92.8247 153.433 92.7163 153.375C92.1275 152.948 91.4331 152.689 90.708 152.627C90.9057 151.749 90.9536 150.844 90.8498 149.95L91.2908 149.745C91.9922 149.359 92.763 149.115 93.5589 149.028C94.252 149.162 96.1972 150.477 96.0948 151.107Z" fill="url(#paint14_linear_389_468)"/>
<g style="mix-blend-mode:overlay" opacity="0.25">
<path d="M78.3277 155.903C78.2598 156.041 78.153 156.156 78.0206 156.234C76.2171 157.518 67.0815 160.172 63.6793 156.715C63.2304 156.25 63.4036 155.785 63.7974 155.187C64.6625 155.786 65.6647 156.157 66.7114 156.266C69.7513 156.762 75.1539 155.935 77.7371 154.061C78.0967 154.61 78.3008 155.247 78.3277 155.903Z" fill="#292D32"/>
</g>
<g style="mix-blend-mode:overlay" opacity="0.25">
<path d="M90.708 152.627C90.6371 152.903 90.5505 153.092 90.4481 153.131C90.0284 153.137 89.6091 153.103 89.1959 153.029C89.5499 151.799 89.5499 150.494 89.1959 149.264C89.7505 149.358 90.2839 149.55 90.771 149.831C90.7956 149.868 90.8142 149.908 90.8261 149.95C90.9378 150.842 90.8978 151.748 90.708 152.627Z" fill="#292D32"/>
</g>
<g style="mix-blend-mode:overlay" opacity="0.25">
<path d="M77.1464 152.73C75.9808 151.596 76.4848 150.698 77.1464 148.445C77.8079 146.193 76.4848 145.232 76.2722 142.72C76.0596 140.208 76.2722 138.782 77.8473 137.12C77.2938 138.521 77.0475 140.024 77.1249 141.528C77.2024 143.032 77.6018 144.502 78.2962 145.839C78.2224 147.376 77.7996 148.876 77.0598 150.225C76.8753 150.62 76.787 151.052 76.802 151.488C76.8171 151.923 76.9351 152.349 77.1464 152.73Z" fill="#292D32"/>
</g>
<g style="mix-blend-mode:overlay" opacity="0.25">
<path d="M77.7291 128.828C77.0597 130.261 76.0596 131.828 75.8312 131.875C75.4846 131.938 75.335 129.379 74.3821 129.158C73.4291 128.938 73.248 130.733 73.9174 131.356C74.2324 131.655 74.0277 132.411 73.5473 133.002C73.3278 133.36 72.979 133.62 72.573 133.729C72.1669 133.837 71.7347 133.786 71.3658 133.584C69.7906 132.608 69.4835 126.496 69.4992 126.016C69.487 125.703 69.5215 125.39 69.6016 125.087C70.3892 125.087 72.1691 125.142 72.5943 126.748C72.8662 127.584 72.9941 128.461 72.9723 129.339C72.9792 129.106 73.0376 128.878 73.1435 128.67C73.2494 128.462 73.4001 128.281 73.5847 128.138C73.7693 127.996 73.9832 127.896 74.211 127.847C74.4387 127.797 74.6747 127.798 74.9018 127.851C75.7918 128.032 76.7762 128.646 77.7291 128.828Z" fill="#292D32"/>
</g>
<path d="M71.224 126.677C71.224 126.677 70.5782 125.315 68.4912 125.701C66.4042 126.087 65.467 128.764 66.4121 133.088C66.4121 129.253 66.9948 128.363 66.9948 128.363C66.9948 128.363 66.1207 130.725 67.2547 135.978C68.3888 141.231 69.0503 146.35 66.2152 148.579C71.8461 145.429 72.169 141.649 71.8461 137.097C71.5232 132.545 72.5313 128.552 71.224 126.677Z" fill="#353B48"/>
<g style="mix-blend-mode:overlay" opacity="0.25">
<path d="M74.6105 131.316C74.8078 131.813 75.1097 132.261 75.4956 132.631C75.8815 133 76.3425 133.283 76.8471 133.458L76.7841 133.545L76.6817 133.663C75.7008 133.306 74.6882 133.042 73.6575 132.875C74.0592 132.308 74.2088 131.655 73.9174 131.379C73.248 130.749 73.4291 128.969 74.3821 129.182C75.335 129.395 75.4846 131.962 75.8312 131.899C76.1777 131.836 77.4771 129.615 78.0678 128.04C78.0678 128.04 78.0206 128.827 77.8867 129.796C77.4749 130.603 76.9585 131.353 76.3509 132.025C75.6343 132.639 75.3586 131.875 75.1617 131.403C74.9649 130.93 74.6577 130.914 74.6105 131.316Z" fill="#292D32"/>
</g>
<g style="mix-blend-mode:overlay" opacity="0.25">
<path d="M64.8212 160.778C64.8212 160.778 64.6637 163.724 65.0338 164.511C65.4096 165.095 65.9417 165.562 66.5696 165.858C66.5696 165.858 68.0108 165.252 68.3888 164.385C68.6489 163.127 68.7599 161.842 68.7196 160.558C68.7196 160.558 65.8371 159.81 64.8212 160.778Z" stroke="white" stroke-width="0.46" stroke-miterlimit="10"/>
</g>
<g style="mix-blend-mode:overlay" opacity="0.25">
<path d="M77.1464 158.424C77.1596 159.147 76.9862 159.863 76.6427 160.5C76.2992 161.137 75.7973 161.675 75.1854 162.062" stroke="white" stroke-width="0.46" stroke-linecap="round" stroke-linejoin="round"/>
</g>
<g style="mix-blend-mode:overlay" opacity="0.25">
<path d="M76.6502 160.511L78.3277 189.697" stroke="white" stroke-width="0.46" stroke-linecap="round" stroke-linejoin="round"/>
</g>
<g style="mix-blend-mode:overlay" opacity="0.25">
<path d="M70.9956 166.354C70.9405 169.394 70.3104 174.797 69.6331 179.743C69.5308 173.93 68.7117 166.716 68.9795 165.567C69.5237 166.081 70.2468 166.364 70.9956 166.354Z" fill="#292D32"/>
</g>
<g style="mix-blend-mode:overlay" opacity="0.25">
<path d="M69.4284 167.118L67.0342 190.934" stroke="white" stroke-width="0.46" stroke-linecap="round" stroke-linejoin="round"/>
</g>
<g style="mix-blend-mode:overlay" opacity="0.25">
<path d="M76.9731 156.785C75.5477 158.179 71.1531 161.637 63.1831 160.857C63.2542 159.467 63.42 158.083 63.6793 156.715C66.6405 159.723 73.9253 158.101 76.9731 156.785Z" fill="#292D32"/>
</g>
<g style="mix-blend-mode:overlay" opacity="0.25">
<path d="M62.2538 195.848H67.806C67.806 196.636 67.7194 197.061 67.7194 197.061H62.0018C62.0569 196.651 62.1593 196.281 62.2538 195.848Z" fill="#292D32"/>
</g>
<g style="mix-blend-mode:overlay" opacity="0.25">
<path d="M85.077 197.069H75.0515C75.0121 196.793 74.9963 196.36 74.9806 195.856H85.2187C85.2417 196.265 85.1937 196.676 85.077 197.069Z" fill="#292D32"/>
</g>
<g style="mix-blend-mode:overlay" opacity="0.25">
<path d="M82.2103 193.477C80.4147 194.352 79.1153 192.54 78.4852 191.335C78.7577 191.141 78.9859 190.892 79.1547 190.603C79.8416 191.862 80.912 192.869 82.2103 193.477Z" fill="white"/>
</g>
<g style="mix-blend-mode:overlay" opacity="0.25">
<path d="M66.672 192.343C66.4829 194.997 65.5615 195.1 65.0969 194.824C64.6322 194.549 64.9551 192.871 65.0969 192.328C65.61 192.481 66.1559 192.486 66.672 192.343Z" fill="#292D32"/>
</g>
<g style="mix-blend-mode:overlay" opacity="0.25">
<path d="M74.9806 195.312C74.9806 194.123 74.9806 192.721 75.0357 191.965C75.3501 192.057 75.6773 192.097 76.0044 192.083C76.1225 192.942 76.2328 194.903 74.9806 195.312Z" fill="#292D32"/>
</g>
<g style="mix-blend-mode:overlay" opacity="0.25">
<path d="M90.708 152.627C90.9057 151.749 90.9536 150.844 90.8498 149.95L91.2908 149.745C92.0939 150.799 92.5875 152.056 92.7163 153.375C92.1275 152.948 91.4331 152.689 90.708 152.627Z" fill="#292D32"/>
</g>
<g style="mix-blend-mode:overlay" opacity="0.25">
<path d="M86.5654 148.524C84.9903 148.682 83.9193 150.335 83.7854 150.005C83.6515 149.674 84.4942 148.8 84.3918 148.28C84.2894 147.76 81.8638 141.515 80.5328 138.459C79.9475 137.091 79.2494 135.774 78.4458 134.521C78.6663 134.663 78.879 134.813 79.0916 134.978C79.6128 135.377 80.056 135.868 80.3989 136.427C80.6588 136.853 80.9187 137.333 81.1865 137.853C81.3125 138.097 81.4385 138.357 81.5645 138.64C81.9898 139.554 82.3993 140.538 82.7852 141.515C82.8876 141.767 82.99 142.027 83.0845 142.302C83.4861 143.334 83.872 144.327 84.1319 145.169C84.2264 145.445 84.313 145.705 84.3997 145.957L84.951 147.65C85.0455 147.941 85.6834 148.241 86.5654 148.524Z" fill="white"/>
</g>
<path d="M467.157 198.644C466.637 198.258 450.241 154.013 469.11 128.772C467.539 139.497 467.145 150.362 467.937 161.172L465.464 163.645L468.197 164.433C468.197 164.433 470.008 189.193 470.929 192.052C468.921 173.56 473.891 162.755 473.891 162.755C473.891 162.755 473.009 175.884 474.678 180.703L473.379 182.452L474.678 182.184C474.678 182.184 473.773 190.123 474.678 192.509C474.678 192.509 485.224 161.007 480.278 147.177C486.783 157.29 484.964 174.167 484.964 174.167L483.27 174.836L484.31 175.624C484.31 175.624 481.577 193.627 475.332 198.699" fill="#353B48"/>
<g style="mix-blend-mode:overlay">
<path d="M356.687 193.454C356.687 193.454 342.078 192.131 336.211 196.234C338.991 192.296 350.056 190.461 350.056 190.461L350.844 191.076V190.461C352.311 189.778 353.876 189.329 355.482 189.13C342.165 186.492 335.794 189.028 335.794 189.028C337.755 187.566 339.968 186.477 342.322 185.815C344.456 185.105 346.717 184.858 348.954 185.09L350.568 186.082V185.011L364.744 189.17" fill="#292D32"/>
</g>
<path d="M412.942 194.249C412.942 194.249 411.367 184.358 419.447 177.506C419.361 185.484 417.124 192.343 412.942 194.249Z" stroke="#1F3247" stroke-width="0.93" stroke-miterlimit="10"/>
<path d="M358.57 187.736L356.995 191.572C355.931 187.705 353.427 186.957 352.175 186.846C351.926 186.819 351.675 186.819 351.427 186.846L352.017 184.956L350.19 185.271C350.19 185.271 348.111 180.278 338.936 174.245C342.135 174.012 345.34 174.61 348.238 175.984C351.137 177.357 353.63 179.458 355.475 182.082C356.773 183.808 357.815 185.712 358.57 187.736Z" fill="#FFCA51"/>
<g style="mix-blend-mode:overlay" opacity="0.25">
<path d="M338.92 174.23C346.733 176.348 355.073 180.656 358.152 188.61C358.164 188.633 358.171 188.659 358.172 188.685C358.173 188.711 358.169 188.737 358.16 188.761C358.15 188.785 358.135 188.806 358.117 188.824C358.098 188.842 358.075 188.856 358.051 188.865C358.026 188.873 358 188.876 357.975 188.874C357.949 188.872 357.924 188.864 357.901 188.851C357.879 188.838 357.859 188.82 357.844 188.799C357.829 188.778 357.819 188.754 357.814 188.729C354.86 180.853 346.63 176.443 338.912 174.23H338.92Z" fill="white"/>
</g>
<g style="mix-blend-mode:overlay" opacity="0.25">
<path d="M358.57 187.736L356.994 191.572C355.931 187.705 353.427 186.957 352.175 186.846C353.017 186.309 353.743 185.609 354.309 184.786C354.876 183.964 355.272 183.036 355.475 182.058C356.775 183.792 357.817 185.704 358.57 187.736Z" fill="#292D32"/>
</g>
<path d="M419.447 169.347C404.35 181.751 400.444 187.917 400.444 187.917L397.758 186.744C397.758 186.744 397.758 186.831 397.758 186.972C397.758 187.642 397.821 189.595 397.758 190.249C397.695 190.902 392.316 193.706 389.253 195.312L387.173 196.391L384.653 193.871L384.913 193.375L386.221 190.831C388.949 187.122 392.079 183.726 395.553 180.703C401.42 175.561 409.705 170.213 419.447 169.347Z" fill="#FF6348"/>
<g style="mix-blend-mode:overlay" opacity="0.25">
<path d="M386.181 195.446C394.001 184.499 405.681 171.82 419.447 169.347C408.681 171.379 400.144 179.199 393.08 187.122C390.711 189.83 388.507 192.678 386.48 195.651C386.362 195.848 386.031 195.651 386.181 195.446Z" fill="white"/>
</g>
<g style="mix-blend-mode:overlay" opacity="0.25">
<path d="M397.758 190.248C397.695 190.808 392.316 193.706 389.253 195.312C387.769 194.753 386.32 194.106 384.913 193.375L386.221 190.831C388.949 187.122 392.079 183.726 395.553 180.703C395.92 182.916 396.669 185.048 397.766 187.004C397.782 187.618 397.829 189.595 397.758 190.248Z" fill="#292D32"/>
</g>
<path d="M409.949 161.196C399.144 170.182 394.198 177.695 392.166 181.53C391.676 182.41 391.255 183.326 390.906 184.271L388.544 183.405L389.505 185.57L386.071 192.509L384.567 195.549V183.452C385.031 182.562 385.661 181.396 386.473 180.058C388.31 176.993 390.438 174.113 392.828 171.458C394.086 170.055 395.439 168.739 396.876 167.52C400.583 164.27 405.101 162.085 409.949 161.196Z" fill="#F7B345"/>
<g style="mix-blend-mode:overlay" opacity="0.25">
<path d="M384.409 188.264C388.567 177.53 396.222 167.788 406.65 162.605L409.949 161.196L406.665 162.637C399.191 166.433 393.159 172.655 388.89 179.813C387.24 182.538 385.855 185.416 384.756 188.406C384.739 188.452 384.705 188.489 384.66 188.51C384.616 188.53 384.565 188.533 384.519 188.516C384.473 188.499 384.436 188.465 384.415 188.421C384.395 188.376 384.392 188.326 384.409 188.28V188.264Z" fill="white"/>
</g>
<g style="mix-blend-mode:overlay" opacity="0.25">
<path d="M390.906 184.271L388.544 183.405L389.505 185.57L386.071 192.509L384.567 192.729V183.452C385.031 182.562 385.661 181.396 386.473 180.058C387.256 180.699 388.17 181.163 389.15 181.417C390.13 181.672 391.154 181.71 392.151 181.53C391.666 182.41 391.25 183.327 390.906 184.271Z" fill="#292D32"/>
</g>
<path d="M423.692 197.132H384.583V191.619C385.055 190.697 385.812 189.952 386.74 189.493C387.29 189.212 387.884 189.031 388.497 188.957C389.283 188.803 390.098 188.918 390.812 189.282C391.526 189.646 392.097 190.238 392.434 190.965C392.434 190.965 393.151 188.878 396.073 188.603C398.995 188.327 400.649 192.792 400.759 193.052C400.759 192.832 400.538 190.367 402.712 190.209C404.886 190.052 404.956 193.131 404.956 193.131C404.956 193.131 406.784 191.154 409.123 191.28C409.794 191.324 410.434 191.582 410.948 192.015C411.463 192.449 411.825 193.036 411.981 193.69C412.466 193.082 413.123 192.634 413.867 192.406C414.61 192.179 415.405 192.181 416.148 192.414C419.014 193.076 419.337 197.132 423.692 197.132Z" fill="#30A092"/>
<g style="mix-blend-mode:overlay" opacity="0.25">
<path d="M411.477 197.132H384.583V191.619C385.055 190.697 385.812 189.952 386.74 189.493C387.914 189.579 389.977 189.957 390.836 191.548C391.582 192.915 392.036 194.422 392.167 195.974C392.167 195.974 394.789 192.217 396.892 192.863C398.995 193.509 400.089 195.974 400.089 195.974C400.089 195.974 402.295 193.611 404.153 194.399C405.075 194.84 408.406 196.037 411.477 197.132Z" fill="#292D32"/>
</g>
<path d="M334.282 198.644C334.14 198.534 329.556 186.098 334.833 178.994C334.391 182.011 334.28 185.066 334.502 188.106L333.809 188.807L334.597 189.02C334.597 189.02 335.108 195.982 335.384 196.785C334.817 191.587 336.219 188.547 336.219 188.547C336.219 188.547 335.967 192.241 336.447 193.596L336.077 194.084L336.447 194.013C336.313 194.974 336.313 195.95 336.447 196.911C336.447 196.911 339.408 188.059 338.022 184.169C339.85 187.012 339.338 191.753 339.338 191.753L338.857 191.942L339.156 192.154C339.156 192.154 338.369 197.218 336.628 198.644" fill="#353B48"/>
<g style="mix-blend-mode:overlay">
<path d="M155.775 194.627C155.775 194.627 132.7 179.081 119.202 180.53C127.416 176.529 147.467 183.594 147.467 183.594L148.254 185.366L148.821 184.35C151.881 184.551 154.89 185.234 157.736 186.374C138.048 169.835 125.155 168.221 125.155 168.221C129.746 167.579 134.416 167.793 138.93 168.851C146.805 170.591 150.593 173.702 150.593 173.702L152.373 176.852L153.358 175.088L173.046 194.927" fill="#292D32"/>
</g>
<path d="M137.788 196.454C137.788 196.454 128.054 194.375 121.911 187.09C132.354 188.13 136.874 191.902 137.788 196.454Z" stroke="#1F3247" stroke-width="0.93" stroke-miterlimit="10"/>
<path d="M170.345 152.619C169.51 172.143 171.495 179.16 171.495 179.16L168.825 180.381L169.006 180.53C169.518 180.963 171.007 182.231 171.44 182.72C171.873 183.208 170.384 189.083 169.542 192.438C169.195 193.777 168.951 194.706 168.951 194.706L165.391 194.895L165.194 194.375L164.179 191.706C163.235 187.198 162.794 182.599 162.863 177.994C162.942 170.198 164.494 160.456 170.345 152.619Z" fill="#FF765E"/>
<g style="mix-blend-mode:overlay" opacity="0.25">
<path d="M167.589 194.816C164.659 181.664 163.013 164.567 170.345 152.627C164.675 161.999 164.832 173.568 165.99 184.129C166.424 187.691 167.077 191.224 167.943 194.706C167.949 194.729 167.95 194.754 167.946 194.777C167.943 194.801 167.934 194.824 167.922 194.844C167.909 194.865 167.893 194.882 167.874 194.897C167.854 194.911 167.832 194.921 167.809 194.927C167.786 194.932 167.762 194.933 167.738 194.93C167.714 194.926 167.692 194.918 167.671 194.905C167.651 194.893 167.633 194.877 167.619 194.857C167.605 194.838 167.594 194.816 167.589 194.793V194.816Z" fill="white"/>
</g>
<g style="mix-blend-mode:overlay" opacity="0.25">
<path d="M171.44 182.72C171.818 183.145 170.384 189.083 169.542 192.438C168.132 193.168 166.68 193.815 165.194 194.375L164.179 191.706C163.235 187.198 162.794 182.599 162.863 177.994C164.748 179.19 166.827 180.048 169.006 180.53C169.518 180.963 171.007 182.231 171.44 182.72Z" fill="#292D32"/>
</g>
<path d="M184.127 166.071C179.307 174.482 177.921 180.538 177.528 183.507C177.424 184.195 177.371 184.89 177.37 185.586H175.645L176.787 186.76L176.244 192.076L176.008 194.399L173.102 186.579C173.188 185.893 173.314 185.003 173.519 183.925C173.965 181.502 174.645 179.128 175.551 176.837C176.028 175.632 176.586 174.462 177.22 173.332C178.824 170.332 181.211 167.823 184.127 166.071Z" fill="#F7B345"/>
<g style="mix-blend-mode:overlay" opacity="0.25">
<path d="M174.062 189.737C174.204 181.538 176.968 173.025 182.914 167.205L184.111 166.071L182.93 167.221C178.63 171.481 176.11 177.301 175.055 183.2C174.65 185.35 174.452 187.533 174.464 189.721C174.464 189.957 174.094 189.989 174.094 189.721L174.062 189.737Z" fill="white"/>
</g>
<g style="mix-blend-mode:overlay" opacity="0.25">
<path d="M177.354 185.586H175.63L176.771 186.76L176.228 192.076L175.307 192.58L173.102 186.579C173.188 185.893 173.314 185.003 173.519 183.924C174.18 184.149 174.882 184.228 175.577 184.156C176.271 184.084 176.942 183.863 177.543 183.507C177.429 184.195 177.366 184.889 177.354 185.586Z" fill="#292D32"/>
</g>
<path d="M200.666 197.069H190.884L148.357 197.108H135.756C135.756 197.108 136.795 193.698 141.741 192.139C146.687 190.579 148.12 193.816 148.12 193.816C148.12 193.816 147.853 187.342 153.712 185.153C159.571 182.964 162.17 190.343 162.17 190.343C162.17 190.343 163.344 186.689 169.589 186.405C175.834 186.122 175.189 190.973 175.189 190.973C176.48 189.723 178.048 188.795 179.765 188.265C181.483 187.735 183.301 187.619 185.072 187.925C191.451 188.823 192.105 193.879 192.105 193.879C192.105 193.879 197.673 192.202 200.666 197.069Z" fill="#30A092"/>
<g style="mix-blend-mode:overlay" opacity="0.25">
<path d="M190.884 197.069L148.357 197.108C150.554 195.147 154.145 192.611 157.973 192.572C164.218 192.501 165.226 194.761 165.226 194.761C165.226 194.761 169.077 190.682 172.109 191.375C175.141 192.068 175.259 195.312 175.259 195.312C175.259 195.312 184.994 193.084 190.884 197.069Z" fill="#292D32"/>
</g>
<path d="M207.691 199.786C207.691 199.786 200.603 187.279 202.745 175.128C204.003 180.838 206.442 186.222 209.904 190.934L207.825 192.58H209.904L214.33 201.006L208.336 199.778V200.353L207.691 199.786Z" fill="#353B48"/>
</g>
<defs>
<linearGradient id="paint0_linear_389_468" x1="258.582" y1="196.651" x2="260.661" y2="36.3376" gradientUnits="userSpaceOnUse">
<stop offset="0.03" stop-color="#FFE8AE"/>
<stop offset="1" stop-color="#FEF5DA"/>
</linearGradient>
<linearGradient id="paint1_linear_389_468" x1="258.094" y1="115.872" x2="260.827" y2="190.044" gradientUnits="userSpaceOnUse">
<stop/>
<stop offset="1" stop-opacity="0"/>
</linearGradient>
<linearGradient id="paint2_linear_389_468" x1="271.782" y1="49.915" x2="272.301" y2="68.131" gradientUnits="userSpaceOnUse">
<stop stop-color="white"/>
<stop offset="1" stop-color="white" stop-opacity="0"/>
</linearGradient>
<linearGradient id="paint3_linear_389_468" x1="103.088" y1="19.9644" x2="104.648" y2="60.0429" gradientUnits="userSpaceOnUse">
<stop stop-color="white"/>
<stop offset="1" stop-color="white" stop-opacity="0"/>
</linearGradient>
<linearGradient id="paint4_linear_389_468" x1="359.554" y1="179.908" x2="342.378" y2="31.9588" gradientUnits="userSpaceOnUse">
<stop stop-color="#E8D197"/>
<stop offset="1" stop-color="#FEF5DA"/>
</linearGradient>
<linearGradient id="paint5_linear_389_468" x1="47.944" y1="338.41" x2="18.9937" y2="89.072" gradientUnits="userSpaceOnUse">
<stop stop-color="#E8D197"/>
<stop offset="1" stop-color="#FEF5DA"/>
</linearGradient>
<linearGradient id="paint6_linear_389_468" x1="453.737" y1="185.681" x2="329.336" y2="98.7588" gradientUnits="userSpaceOnUse">
<stop stop-color="white"/>
<stop offset="1" stop-color="white" stop-opacity="0"/>
</linearGradient>
<linearGradient id="paint7_linear_389_468" x1="447.39" y1="193.73" x2="447.279" y2="187.657" gradientUnits="userSpaceOnUse">
<stop stop-color="#FECBA6"/>
<stop offset="1" stop-color="#D17878"/>
</linearGradient>
<linearGradient id="paint8_linear_389_468" x1="417.817" y1="157.156" x2="437.159" y2="138.766" gradientUnits="userSpaceOnUse">
<stop stop-color="#FECBA6"/>
<stop offset="1" stop-color="#D17878"/>
</linearGradient>
<linearGradient id="paint9_linear_389_468" x1="448.5" y1="164.314" x2="448.76" y2="143.318" gradientUnits="userSpaceOnUse">
<stop stop-color="#FECBA6"/>
<stop offset="1" stop-color="#D17878"/>
</linearGradient>
<linearGradient id="paint10_linear_389_468" x1="435.624" y1="130.789" x2="440.113" y2="131.765" gradientUnits="userSpaceOnUse">
<stop stop-color="#FECBA6"/>
<stop offset="1" stop-color="#D17878"/>
</linearGradient>
<linearGradient id="paint11_linear_389_468" x1="434.143" y1="197.037" x2="436.049" y2="187.886" gradientUnits="userSpaceOnUse">
<stop stop-color="#FECBA6"/>
<stop offset="1" stop-color="#D17878"/>
</linearGradient>
<linearGradient id="paint12_linear_389_468" x1="60.1274" y1="185.681" x2="184.521" y2="98.7588" gradientUnits="userSpaceOnUse">
<stop stop-color="white"/>
<stop offset="1" stop-color="white" stop-opacity="0"/>
</linearGradient>
<linearGradient id="paint13_linear_389_468" x1="75.9887" y1="128.426" x2="74.4687" y2="136.798" gradientUnits="userSpaceOnUse">
<stop stop-color="#FECBA6"/>
<stop offset="1" stop-color="#D17878"/>
</linearGradient>
<linearGradient id="paint14_linear_389_468" x1="98.4969" y1="149.784" x2="89.7078" y2="152.289" gradientUnits="userSpaceOnUse">
<stop stop-color="#FECBA6"/>
<stop offset="1" stop-color="#D17878"/>
</linearGradient>
<clipPath id="clip0_389_468">
<rect width="500" height="254.261" fill="white" transform="translate(0.880005)"/>
</clipPath>
</defs>
</svg>
