<svg xmlns="http://www.w3.org/2000/svg" width="484" height="396.682" viewBox="0 0 484 396.682">
  <g id="aboutus" transform="translate(3435.5 5117.532)">
    <g id="aboutus-2" data-name="aboutus">
      <g id="Creative_team-amico_2_" data-name="Creative team-amico (2)" transform="translate(-3452.122 -5140.982)">
        <path id="freepik--floor--inject-5" d="M225.169,0A396.24,396.24,0,0,1,310.6,9.246C336.99,15.1,360.881,23.405,381.059,33.2c20.238,9.824,36.758,21.153,48.307,33.008,5.335,5.478,14.175,14.978,16.711,29.352,2.5,14.187-1.369,33.247-3.182,38.328a84.467,84.467,0,0,1-12.1,22.274,85.906,85.906,0,0,1-12.37,13.24,54.193,54.193,0,0,1-5.671,4.365l-375.86-.677a49.885,49.885,0,0,1-6.316-4.449c-12.165-9.867-28.954-26.669-31.17-54.429S10.168,69,21.712,57.6c11.5-11.363,27.916-21.562,48.032-30.1,20.064-8.519,43.832-15.4,70.129-20.142A483.226,483.226,0,0,1,225.169,0Z" transform="translate(35.963 245.865)" fill="#fcf2f2"/>
        <g id="freepik--Shadows--inject-184">
          <ellipse id="freepik--Shadow--inject-184" cx="56.927" cy="33.3" rx="56.927" ry="33.3" transform="translate(71.013 318.141)" fill="#e9cccc"/>
          <ellipse id="freepik--shadow--inject-184-2" data-name="freepik--shadow--inject-184" cx="56.75" cy="32.77" rx="56.75" ry="32.77" transform="translate(272.17 354.092)" fill="#e9cccc"/>
          <path id="freepik--shadow--inject-184-3" data-name="freepik--shadow--inject-184" d="M403.49,365.86l-57.52-33.21,57.52-33.35,57.65,33.28Z" transform="translate(-44 3.64)" fill="#e9cccc"/>
          <ellipse id="freepik--shadow--inject-184-4" data-name="freepik--shadow--inject-184" cx="57.68" cy="33.3" rx="57.68" ry="33.3" transform="translate(192.32 318.14)" fill="#e9cccc"/>
          <path id="freepik--shadow--inject-184-5" data-name="freepik--shadow--inject-184" d="M216.77,416.37c7.52,4.35,19.73,4.35,27.25,0s7.53-11.39,0-15.73-19.73-4.35-27.25,0S209.24,412,216.77,416.37Z" fill="#e0e0e0"/>
        </g>
        <g id="freepik--character-1--inject-184" transform="translate(36.482 15.755)">
          <g id="freepik--Character--inject-184">
            <g id="freepik--Bottom--inject-184">
              <path id="Path_26959" data-name="Path 26959" d="M112.69,304c.3-4.12,2.94-45.63,2.94-45.63l-20,13.95c2.73,23.8,4,30.73,4.11,34.69h0a3.52,3.52,0,0,0-.1,1c0,4.71,6.07,7.49,9.94,10.62a71.717,71.717,0,0,0,10.47,7.32c2.81,1.51,8.52,1.64,9.22-.29-4.71-3.85-10.16-8.06-13.9-12.46C113.62,311.09,112.34,308.9,112.69,304Z" fill="#c8856a"/>
              <path id="Path_26960" data-name="Path 26960" d="M137.34,330.7c.24,0,.61,2.85-.7,4.06-1.51,1.4-6,3.7-11.83,2.89s-9-2.76-11.4-4.87-5.64-5.07-8.3-5.7c-2.47-.58-5.15-1.77-5.93-2.59s-.69-4.45-.69-4.45Z" fill="#263238"/>
              <path id="Path_26961" data-name="Path 26961" d="M99.74,305.82a1,1,0,0,0-.89.85c-.18,1,.45,3.08-.28,6.52a27.06,27.06,0,0,0,0,8.1c.33,1.86,4.35,3.15,6.92,4.2a32.551,32.551,0,0,1,8.33,5.63c2.76,2.43,8.56,5,12.39,4.94,4.53,0,9.62-1.61,10.79-3.86,1.45-2.78.31-4.39-6.4-7.72-1.27-.63-5.74-3.46-7.26-4.49-4.12-2.77-8.19-6.63-10.09-11.54a2.71,2.71,0,0,0-1-1.5,2,2,0,0,0-1.31-.13,10.621,10.621,0,0,0-3.23,1c-.9.46-2.18,1-2.16,2.24a4.41,4.41,0,0,0,.25,1.25c.08.25.15.59-.06.74s-.45,0-.63-.19a30.779,30.779,0,0,1-2.9-2.57,7.3,7.3,0,0,0-1.06-1.16,10.6,10.6,0,0,1-1.15-.79C99.66,306.94,99.76,306.4,99.74,305.82Z" fill="#37474f"/>
              <path id="Path_26962" data-name="Path 26962" d="M113.85,331.12c-1.17-1-2.42-2-3.66-2.93h0s7.89,5.13,11.08,2.8c2.06-1.5,1.08-3.33,1-3.91s5-3.09,7-3.34h0c.56.33,1,.59,1.32.74,6.71,3.33,7.85,4.94,6.4,7.72-1.17,2.25-4.86,4-10.71,4C122.49,336.21,116.61,333.55,113.85,331.12Z" fill="#455a64"/>
              <path id="Path_26963" data-name="Path 26963" d="M98.92,309.37a16.559,16.559,0,0,0,1.53,1.4c1.66,1.39,5.57,5.78,10,9.56,4.29,3.63,11.31,8,12.48,7.85s3-1-1.22-2.8-12.92-8.52-16.57-13.48h0a30.778,30.778,0,0,1-2.9-2.57,7.3,7.3,0,0,0-1.06-1.16c-.24-.19-.52-.33-.78-.5a2.059,2.059,0,0,1-.37-.29,1.2,1.2,0,0,1-.22-.35,2,2,0,0,1-.11-.78v-.43a1,1,0,0,0-.54.21,1.09,1.09,0,0,0-.35.64,20.94,20.94,0,0,0,.11,2.7Z" fill="#263238"/>
              <path id="Path_26964" data-name="Path 26964" d="M122.68,327.52a.39.39,0,0,1-.27-.1.46.46,0,0,1,0-.62,9.58,9.58,0,0,1,7.64-3.24.45.45,0,0,1,.37.49.42.42,0,0,1-.46.39,8.9,8.9,0,0,0-6.92,2.92.41.41,0,0,1-.36.16Z" fill="#f0f0f0"/>
              <path id="Path_26965" data-name="Path 26965" d="M119,325.12a.39.39,0,0,1-.26-.1.46.46,0,0,1-.06-.62,9.61,9.61,0,0,1,7.65-3.23.442.442,0,0,1-.09.88,8.9,8.9,0,0,0-6.92,2.91A.42.42,0,0,1,119,325.12Z" fill="#f0f0f0"/>
              <path id="Path_26966" data-name="Path 26966" d="M115.39,322.85a.39.39,0,0,1-.26-.1.46.46,0,0,1-.06-.62,9.6,9.6,0,0,1,7.65-3.24.44.44,0,0,1,.36.49.41.41,0,0,1-.45.39,8.88,8.88,0,0,0-6.92,2.92A.42.42,0,0,1,115.39,322.85Z" fill="#f0f0f0"/>
              <path id="Path_26967" data-name="Path 26967" d="M112,320.25a.39.39,0,0,1-.26-.1.47.47,0,0,1-.06-.62,9.63,9.63,0,0,1,7.65-3.23.443.443,0,0,1-.09.88,8.94,8.94,0,0,0-6.92,2.91.39.39,0,0,1-.32.16Z" fill="#f0f0f0"/>
              <path id="Path_26968" data-name="Path 26968" d="M108.71,317.66a.39.39,0,0,1-.26-.1.46.46,0,0,1-.07-.62c1.62-2.19,5.28-3.63,8.35-3.28a.44.44,0,0,1,.37.49.42.42,0,0,1-.45.39c-2.77-.32-6.18,1-7.62,2.95A.4.4,0,0,1,108.71,317.66Z" fill="#f0f0f0"/>
              <path id="Path_26969" data-name="Path 26969" d="M60.57,281.79c-.68,13.74-.4,20.82-1.38,33.29-.19,2.34-.75,18.2-.38,23.11.55,7.38,9.25,7.32,10.16,3s2.51-22.58,2.74-24.48c.78-8,3.31-13.92,6.89-32.3Z" fill="#c8856a"/>
              <path id="Path_26970" data-name="Path 26970" d="M71.89,344.58c-.28,4.28-1,7.1-2.49,9.6s-4.39,3.27-7.28,2.52-6.59-2.74-7.4-6.43a23.43,23.43,0,0,1,.05-10.17Z" fill="#263238"/>
              <path id="Path_26971" data-name="Path 26971" d="M59.3,313.55c-1.2.09-1.58,5.82-2.3,11.56-.78,6.15-1.38,8.72-2.07,13.76-.79,5.76-.5,8.34,1.5,11.84s9.13,7,12.69,2c2.9-4.05,3-8.57,2.81-14.33A125.323,125.323,0,0,1,72.38,324c.26-4.32.58-8.5-.45-9-.08.63-.17,1.44-.25,2.06s-.2,2.82-.87,2.83a8.761,8.761,0,0,1,0-1.62,1.9,1.9,0,0,0-.32-1.4,2.25,2.25,0,0,0-1.32-.6c-1.17-.24-3-.77-4.17-.88-.6-.06-2.44-.12-3-.12a4.839,4.839,0,0,0-1.51.21,1.07,1.07,0,0,0-.65.58,2.09,2.09,0,0,0-.07.66,4.66,4.66,0,0,1-.15,1.18c0,.17-.16.38-.34.34s-.19-.21-.19-.35c0-.7.09-1.2.13-2,0-.38.08-.89.09-1.26S59.27,313.92,59.3,313.55Z" fill="#37474f"/>
              <path id="Path_26972" data-name="Path 26972" d="M55.21,337.23c-.12.83-.86,6.34.64,7.34s2.53-3.24,2.53-3.24,3.81-1.14,9.34,1.31c-.29.89.55,3.85,2.08,3.23s2.14-6.92,2.15-7c.2,5.52,0,9.89-2.83,13.83-3.56,5-10.69,1.51-12.69-2s-2.29-6.08-1.5-11.84C55,338.29,55.1,337.75,55.21,337.23Z" fill="#455a64"/>
              <path id="Path_26973" data-name="Path 26973" d="M58.81,341.7c0,2.09-2.09,1.37-2.16-1.58s.33-9.94.35-15c.72-5.74,1.1-11.47,2.3-11.56v.21l-.17,2.92a12.508,12.508,0,0,0-.08,1.25c0,4.25.55,12.49.16,16.38a69.31,69.31,0,0,0-.4,7.38Z" fill="#263238"/>
              <path id="Path_26974" data-name="Path 26974" d="M67.08,342.58a69.621,69.621,0,0,0,1.18-7.31c.43-3.85,2.15-11.6,3-15.8a11.11,11.11,0,0,0,.43-2.37c.08-.58.16-1.31.23-1.93v-.12c.74.36.78,2.67.64,5.55-.16,1.67-.44,3.73-.83,6.23-1,4.95-1.53,11.84-2.22,14.71S66.68,344.63,67.08,342.58Z" fill="#263238"/>
              <path id="Path_26975" data-name="Path 26975" d="M67.84,342.81a.3.3,0,0,1-.16-.05,14.11,14.11,0,0,0-9.19-1,.45.45,0,0,1-.54-.32.44.44,0,0,1,.32-.54,14.78,14.78,0,0,1,9.82,1.1.428.428,0,0,1-.25.81Z" fill="#f0f0f0"/>
              <path id="Path_26976" data-name="Path 26976" d="M68.86,338.29a.331.331,0,0,1-.14,0,17.51,17.51,0,0,0-10.29-1.12.45.45,0,0,1-.53-.34.46.46,0,0,1,.34-.53,18.1,18.1,0,0,1,10.86,1.19.46.46,0,0,1,.21.6.45.45,0,0,1-.45.2Z" fill="#f0f0f0"/>
              <path id="Path_26977" data-name="Path 26977" d="M58.74,332.83a.45.45,0,0,1-.37-.3.44.44,0,0,1,.28-.56c5.36-1.78,11.26,1.29,11.48,1.41a.44.44,0,0,1,.19.59.45.45,0,0,1-.6.19s-5.8-3-10.79-1.35a.4.4,0,0,1-.19.02Z" fill="#f0f0f0"/>
              <path id="Path_26978" data-name="Path 26978" d="M59.07,328.78a.46.46,0,0,1-.37-.29.45.45,0,0,1,.27-.57c5.9-2.07,11.5,1.25,11.71,1.38a.443.443,0,0,1-.47.75s-5.45-3.22-10.94-1.29a.46.46,0,0,1-.2.02Z" fill="#f0f0f0"/>
              <path id="Path_26979" data-name="Path 26979" d="M58.22,324.2a.439.439,0,0,1-.11-.85c5.53-2,12.8,1.39,13,1.52a.45.45,0,0,1,.16.61.44.44,0,0,1-.61.15s-7.14-3.34-12.27-1.45a.471.471,0,0,1-.17.02Z" fill="#ebebeb"/>
              <path id="Path_26980" data-name="Path 26980" d="M66.18,187.62C63.48,206,64.41,220,63.42,231.83s-3.19,29-3.3,38c-.2,16.37-.54,33.62-.54,33.62S69,307.38,75,305.58c0,0,5.64-29,7.4-38.51,2.52-13.5,7.38-44.56,7.38-44.56l4.81,35.37s-.72,4.66.19,14.8c.53,6,3.74,24.07,3.74,24.07s9.83,3.28,15.18-1.58c0,0,2.16-33.63,2.6-39.11.62-7.77-1.58-78.11-1.07-83.23C113.13,173.2,112.8,171.55,66.18,187.62Z" fill="#d71920"/>
              <path id="Path_26981" data-name="Path 26981" d="M66.18,187.62C63.48,206,64.41,220,63.42,231.83s-3.19,29-3.3,38c-.2,16.37-.54,33.62-.54,33.62S69,307.38,75,305.58c0,0,5.64-29,7.4-38.51,2.52-13.5,7.38-44.56,7.38-44.56l4.81,35.37s-.72,4.66.19,14.8c.53,6,3.74,24.07,3.74,24.07s9.83,3.28,15.18-1.58c0,0,2.16-33.63,2.6-39.11.62-7.77-1.58-78.11-1.07-83.23C113.13,173.2,112.8,171.55,66.18,187.62Z" fill="#fff" opacity="0.4"/>
              <path id="Path_26982" data-name="Path 26982" d="M76,204.41c-2.45,3.52-5.74,4.06-8.32,4.33a3.65,3.65,0,0,1-1.87-.3s6.1.89,9.69-6c1.82-3.47,2.38-10.26,2.38-10.26l1.81.68A22.39,22.39,0,0,1,76,204.41Z" fill="#d71920" opacity="0.3"/>
              <path id="Path_26983" data-name="Path 26983" d="M76,204.41c-2.45,3.52-5.74,4.06-8.32,4.33a3.65,3.65,0,0,1-1.87-.3s6.1.89,9.69-6c1.82-3.47,2.38-10.26,2.38-10.26l1.81.68A22.39,22.39,0,0,1,76,204.41Z" opacity="0.1"/>
              <path id="Path_26984" data-name="Path 26984" d="M89.74,222.51l2.34-13.58s9.26-2.39,13.31-8.45c-2.7,7.56-11.3,10.75-11.3,10.75l-3.21,13.19,3.67,33.46Z" fill="#d71920" opacity="0.3"/>
              <path id="Path_26985" data-name="Path 26985" d="M89.74,222.51l2.34-13.58s9.26-2.39,13.31-8.45c-2.7,7.56-11.3,10.75-11.3,10.75l-3.21,13.19,3.67,33.46Z" opacity="0.1"/>
            </g>
            <g id="freepik--Top--inject-184">
              <path id="Path_26986" data-name="Path 26986" d="M199.84,123.55a1.46,1.46,0,0,0-1.05-.14c-3.44.53-6,3.58-8.79,5.36-.91.58-3.25,2.27-4.47,1.64-.81-.42,1.24-1.89,2.1-3.84s-1-4.14-1.72-2.67-2.78,2.57-5.38,4.88-4.07,4.67-6.33,5.8-24.61,6.8-24.61,6.8l1.2,15.6c8.22-2.45,23.58-9.15,27.21-10.6s7-1.23,12.78-4.65c2.71-1.6,6-3.77,6.61-7.12a9,9,0,0,1,.49-2.32,9.608,9.608,0,0,1,.78-1.11,5.18,5.18,0,0,0,.73-1.47,1.57,1.57,0,0,0,.09-.88c-.1-.45-.52-.78-.65-1.22a1.73,1.73,0,0,1,.38-1.42,6.67,6.67,0,0,0,.87-1.25,1.17,1.17,0,0,0-.24-1.39Z" fill="#c8856a"/>
              <path id="Path_26987" data-name="Path 26987" d="M103.94,121.45c-1.26,4.86,6.93,16.6,11.21,27.39,9.72,4.42,17.22,7.8,23.58,10.16,3,1.1,4.85,1.43,7.36.57,9.07-3.08,24.9-10.27,24.9-10.27-2.48-1.54-5.17-10.26-4.18-12.45L144,142.64s-12.74-8.41-18.66-12.36C118.37,125.65,114.4,122.4,103.94,121.45Z" fill="#37474f"/>
              <g id="freepik--Chest--inject-184">
                <path id="Path_26988" data-name="Path 26988" d="M72.14,123.9s-10.27,3.46-8.1,21c.82,6.6,2.3,10.37,2.81,18.24,0,0,.15,13.86-1.15,26.33,10.78,7.4,35.05,7.88,49.9,2.29,0-22.06.19-37.44-.3-48.14A61.39,61.39,0,0,0,112.79,130a12.26,12.26,0,0,0-9.87-8.73h0L88.6,119.88C80.56,121.21,77.59,121.69,72.14,123.9Z" fill="#455a64"/>
              </g>
              <path id="Path_26989" data-name="Path 26989" d="M102.92,121.24h0L88.6,119.88c-8,1.33-11,1.81-16.46,4,0,0-4.67,1.58-7,8l10.67,9.44,5.16-1.17c.16-6.3,5.4-13,5.4-13a19.36,19.36,0,0,0,12,2.54c6.44-.95,4.48-6.31,4.48-6.31s6.8,2.87,10.62,8.76c-.19-.74-.39-1.47-.59-2.17a12.26,12.26,0,0,0-9.96-8.73Z" fill="#37474f"/>
              <g id="freepik--Head--inject-184">
                <path id="Path_26990" data-name="Path 26990" d="M108.77,93.05c1.55-4.46-.74-10-3.2-12.56C102,76.85,96.62,74.34,88,76.55,82.34,78,78.07,80.29,76.9,86c-3.69.32-6,6-2.12,13.86,3.21,6.52,8.5,11.46,8.85,15Z"/>
                <path id="Path_26991" data-name="Path 26991" d="M110,109.18c-.66,3.39-2.39,6-5.42,6.68a25.79,25.79,0,0,1-4.83.4l-.29,5.6c2.34,2,2.32,4.57.16,5.4-3.44,1.3-10.62.72-16.1-5.78l-.1-13a4.7,4.7,0,0,1-5.5.38,6.76,6.76,0,0,1-2.73-8.09c1.28-3.34,4.45-2.25,5.47-1.34s2.25,2.85,3.08,2.84a2,2,0,0,0,1.72-2,17.049,17.049,0,0,0-.54-4,9.38,9.38,0,0,0,2.62-2.92,6.85,6.85,0,0,0,.77-4.52c4-3.33,15.41-5.18,18.32-3.27,1.8,2.66,2.69,9.71,3.24,13.42a30.84,30.84,0,0,1,.13,10.2Z" fill="#d99a80"/>
                <path id="Path_26992" data-name="Path 26992" d="M99.77,116.25c-3.4.08-10.33-1-12.29-2.73s-3-5.55-3-5.55.65,4.86,2.22,6.91,5.15,2.71,7.3,3.12a45.489,45.489,0,0,0,5.62.51Z" fill="#af6152"/>
                <path id="Path_26993" data-name="Path 26993" d="M96.61,97.86a1.37,1.37,0,1,1-1.48-1.32,1.39,1.39,0,0,1,1.48,1.32Z" fill="#263238"/>
                <path id="Path_26994" data-name="Path 26994" d="M94.35,93.44l-2.63,2.08A1.77,1.77,0,0,1,92,93.1a1.64,1.64,0,0,1,2.35.34Z" fill="#263238"/>
                <path id="Path_26995" data-name="Path 26995" d="M106.85,92.91l-3.16-1.22a1.62,1.62,0,0,1,2.13-1,1.79,1.79,0,0,1,1.03,2.22Z" fill="#263238"/>
                <path id="Path_26996" data-name="Path 26996" d="M106.69,96a1.37,1.37,0,1,1-1.49-1.31A1.4,1.4,0,0,1,106.69,96Z" fill="#263238"/>
                <path id="Path_26997" data-name="Path 26997" d="M99.99,95.03l1.98,9.58,4.96-2.8Z" fill="#af6152"/>
                <path id="Path_26998" data-name="Path 26998" d="M97.37,107.15l5.8.53a2.86,2.86,0,0,1-3.09,2.72,3.06,3.06,0,0,1-2.71-3.25Z" fill="#af6152"/>
                <path id="Path_26999" data-name="Path 26999" d="M100.08,110.4a2.171,2.171,0,0,0,.36,0,2.65,2.65,0,0,0-3-2.22,3,3,0,0,0,2.64,2.22Z" fill="#ffa8a7"/>
              </g>
              <path id="Path_27000" data-name="Path 27000" d="M149.41,182.44a1.48,1.48,0,0,0-.76-.74c-3.09-1.6-6.94-.65-10.26-.88-1.08-.07-4-.09-4.57-1.32-.41-.83,2.11-.8,4-1.85s1.68-3.92.2-3.18-3.77.43-7.23.75-6,1.36-8.53.93-23.86-9.09-23.86-9.09l-8.27,13.29c8.07,2.89,24.42,6.58,28.21,7.56s6.35,3.14,13,3.82c3.13.31,7,.5,9.55-1.82a8.591,8.591,0,0,1,1.77-1.59,9.161,9.161,0,0,1,1.28-.43,5.669,5.669,0,0,0,1.47-.75,1.7,1.7,0,0,0,.59-.66c.18-.43,0-.93.19-1.37a1.69,1.69,0,0,1,1.15-.91,7,7,0,0,0,1.44-.5A1.17,1.17,0,0,0,149.41,182.44Z" fill="#d99a80"/>
              <path id="Path_27001" data-name="Path 27001" d="M72.14,123.9c-12.57,4.8-12.62,16-8.16,26.72A112.86,112.86,0,0,0,77.64,175a14.135,14.135,0,0,0,9,5.69c9.69,2.49,21,4.57,21,4.57-1.25-2.64,2.13-11.94,4.69-12.71l-20.89-9.27s-4.69-10.68-8-17C80.23,140.23,79,130.2,72.14,123.9Z" fill="#37474f"/>
            </g>
          </g>
        </g>
        <g id="freepik--character-3--inject-184" transform="translate(-45 8.085)">
          <g id="freepik--Ladder--inject-184">
            <path id="Path_27002" data-name="Path 27002" d="M419.86,252l-19.18,52.67c-.86,1.71,2,2.65,3.28,1.91a3.2,3.2,0,0,0,.9-1L423.71,254Z" fill="#37474f"/>
            <path id="Path_27003" data-name="Path 27003" d="M393.91,323.91l-29.13-16.89.91-4.03,29.13,16.89Z" fill="#37474f"/>
            <path id="Path_27004" data-name="Path 27004" d="M373.19,281.6l-17.65,48.52c-.86,1.71,2,2.65,3.28,1.91a1.76,1.76,0,0,0,.88-.95h0L376.91,284Z" fill="#37474f"/>
            <path id="Path_27005" data-name="Path 27005" d="M439.68,297.36l-27.55-15.97,1.37-3.75,27.09,15.69Z" fill="#263238"/>
            <path id="Path_27006" data-name="Path 27006" d="M448.35,328.64a1.746,1.746,0,0,0-.05-.38l-14.94-70-5.95-3.43,15.83,74a1.24,1.24,0,0,0,.62.72,4.32,4.32,0,0,0,3.9,0,1,1,0,0,0,.6-.65,1.947,1.947,0,0,0-.01-.26Z" fill="#455a64"/>
            <path id="Path_27007" data-name="Path 27007" d="M399.89,321.44,383.47,312a2.16,2.16,0,0,1-1-1.7v-.39a2.19,2.19,0,0,1,1-1.7l48.4-28.07a2.18,2.18,0,0,1,2,0l16.42,9.48a2.19,2.19,0,0,1,1,1.7v.39a2.16,2.16,0,0,1-1,1.7l-48.4,28.07a2.18,2.18,0,0,1-2-.04Z" fill="#d71920"/>
            <path id="Path_27008" data-name="Path 27008" d="M451,290.32l-50.08,29-18.09-10.44a2.15,2.15,0,0,1,.69-.74l48.4-28.07a2.18,2.18,0,0,1,2,0l16.42,9.48A2,2,0,0,1,451,290.32Z" fill="#fff" opacity="0.3"/>
            <path id="Path_27009" data-name="Path 27009" d="M382.78,308.91a1.94,1.94,0,0,0-.29,1v.39a2.16,2.16,0,0,0,1,1.7l16.42,9.48a2,2,0,0,0,1,.23v-2.32Z" opacity="0.25"/>
            <path id="Path_27010" data-name="Path 27010" d="M400.87,319.35v2.32a2,2,0,0,0,1-.23l19.7-11.37,28.7-16.7a2.16,2.16,0,0,0,1-1.7v-.39a1.94,1.94,0,0,0-.29-1Z" opacity="0.15"/>
            <path id="Path_27011" data-name="Path 27011" d="M405.57,345.88l-16.42-9.48a2.19,2.19,0,0,1-1-1.7v-.39a2.16,2.16,0,0,1,1-1.7l48.4-28.07a2.18,2.18,0,0,1,2,0L455.93,314a2.16,2.16,0,0,1,1,1.7v.39a2.19,2.19,0,0,1-1,1.7l-48.4,28.07A2.18,2.18,0,0,1,405.57,345.88Z" fill="#d71920"/>
            <path id="Path_27012" data-name="Path 27012" d="M456.62,314.75l-50.07,29L388.46,333.3a2,2,0,0,1,.69-.73l48.4-28.07a2.12,2.12,0,0,1,2,0l16.37,9.5A1.9,1.9,0,0,1,456.62,314.75Z" fill="#fff" opacity="0.3"/>
            <path id="Path_27013" data-name="Path 27013" d="M388.45,333.34a2.11,2.11,0,0,0-.28,1v.39a2.19,2.19,0,0,0,1,1.7l16.42,9.48a2.06,2.06,0,0,0,1,.23v-2.32Z" opacity="0.25"/>
            <path id="Path_27014" data-name="Path 27014" d="M406.55,343.79v2.32a2.08,2.08,0,0,0,1-.23l19.69-11.38,28.71-16.69a2.19,2.19,0,0,0,1-1.7v-.39a2,2,0,0,0-.29-1Z" opacity="0.15"/>
            <path id="Path_27015" data-name="Path 27015" d="M393,295.93l-27.28-15.75a2.16,2.16,0,0,1-1-1.69v-.4a2.16,2.16,0,0,1,1-1.69l48.4-28.07a2.12,2.12,0,0,1,2,0l27.29,15.75a2.16,2.16,0,0,1,1,1.69v.39a2.16,2.16,0,0,1-1,1.7L395,295.93A2.12,2.12,0,0,1,393,295.93Z" fill="#d71920"/>
            <path id="Path_27016" data-name="Path 27016" d="M394,293.85v2.32a2,2,0,0,0,1-.24l19.7-11.37,28.71-16.7a2.16,2.16,0,0,0,1-1.7v-.39a2,2,0,0,0-.29-1Z" opacity="0.15"/>
            <path id="Path_27017" data-name="Path 27017" d="M365.07,277.13a2,2,0,0,0-.29,1v.4a2.16,2.16,0,0,0,1,1.69L393,295.93a2,2,0,0,0,1,.24v-2.32Z" opacity="0.25"/>
            <path id="Path_27018" data-name="Path 27018" d="M444.1,264.81l-50.08,29-28.95-16.72a2.11,2.11,0,0,1,.69-.73l48.4-28.07a2.18,2.18,0,0,1,2,0l27.29,15.74A2,2,0,0,1,444.1,264.81Z" fill="#fff" opacity="0.3"/>
            <path id="Path_27019" data-name="Path 27019" d="M389.53,293.9l13,60.92a1.109,1.109,0,0,1,0,.4,1.5,1.5,0,0,1,0,.19,1.18,1.18,0,0,1-.6.65,3.9,3.9,0,0,1-1.95.46,3.8,3.8,0,0,1-1.95-.46,1.41,1.41,0,0,1-.56-.51l-.06-.19v-.09l-13.88-64.8" fill="#455a64"/>
          </g>
          <g id="freepik--character--inject-184-2" data-name="freepik--character--inject-184">
            <path id="freepik--shadow--inject-184-6" data-name="freepik--shadow--inject-184" d="M429.76,287.33a36.356,36.356,0,0,0-6.12-2.45l-25.11,14.56a2.288,2.288,0,0,0,.29.18c4.82,2.53,7.12,4.17,11.73,5.63a21.53,21.53,0,0,0,8.35.89c6.36-.52,9.77-3.25,13.34-6.84a8.77,8.77,0,0,0,2.64-5.85C434.89,290.65,432.26,288.6,429.76,287.33Zm-23.5-.58,17.95-10.4a2.329,2.329,0,0,1,.11-.51,3.45,3.45,0,0,0,.1-1.46,2.72,2.72,0,0,0-.67-1.16,13.2,13.2,0,0,0-5.17-3.1c-6.12-2.45-12.71-4.69-19.2-3.51a31.719,31.719,0,0,0-8.07,2.92A97.565,97.565,0,0,0,381,275.32c-2,1.27-4.8,3.61-3.59,6.3,2.08,4.63,8.9,5.55,13.28,5.79a88.1,88.1,0,0,0,13-.69A10.779,10.779,0,0,1,406.26,286.75Z" opacity="0.15"/>
            <g id="freepik--bottom--inject-184-2" data-name="freepik--bottom--inject-184">
              <path id="Path_27020" data-name="Path 27020" d="M412.39,229.19c1.76,12.25,4.78,31,6.67,45.51.31,1.7-.19,1.95-.1,3.08.13,1.42,11.27,1.84,11.17.09a6.93,6.93,0,0,0,.36-2.51c-.09-7.49,2.72-20.77,3.24-32.72.39-9-1.52-13.46-2.69-18,0,0,2.85-26.77,3.58-52.5a46,46,0,0,0-8-27.65l-21.15,3.64s2.68,28.51,4.3,54.71C410.21,209.75,410.63,216.94,412.39,229.19Z" fill="#ffbda7"/>
              <path id="Path_27021" data-name="Path 27021" d="M394.63,152.53c-2.64,5.22-13.61,29.93-18.32,46.15-1.14,3.9-2.58,6.57,2.35,18.73,2.47,6.09,11.61,26.65,14.68,34.92a36.069,36.069,0,0,1,2.11,7.9c4.64,3,12.33.81,12.33.81s-1-5.67-1.34-8.3c-1.59-13.92-1-34.59-9.91-44.87,6.73-11.09,26.09-42.24,30.41-61.62Z" fill="#ffbda7"/>
              <path id="Path_27022" data-name="Path 27022" d="M414.958,262.03c3.48,2.21,10.19,1.92,12.63,1.76a13.92,13.92,0,0,0,6.05-1.6c.761-7.081.258-30.6-1.3-37.55,0,0,1.64-19.74,4.91-50.54.43-4.09,2-11.44.07-19-1.83-7.29-7-15.56-7.33-18.66l-35.79,1.3-1.57,10.65c-2.64,5.22-12.84,32.83-17.43,49.08-1.84,6.48-1.75,9.52,2.68,19.56,2.16,4.89,7.55,23.136,10.61,29.916,7,1.83,18.3-4.31,18.27-8.27-1.34-7.27-4.92-24.306-9.47-31.216,3.1-5.12,11-18.65,11-18.65.61,6.95.53,8.76,1,16.46.45,6.92,1.17,12,2.58,22.26C412.88,234.5,413.878,257.53,414.958,262.03Z" fill="#37474f"/>
              <path id="Path_27023" data-name="Path 27023" d="M433.22,249.56l.48-5.3c-5.09,3.59-15.71,2.65-19.16,0l.91,5.3C419.32,252.25,430.08,251.9,433.22,249.56Z" transform="translate(0 16)" fill="#263238"/>
              <path id="Path_27024" data-name="Path 27024" d="M404.86,231.6l-1-5.58c-4.19,5.15-15.33,7.21-19.63,5.49l2.21,5.6C391.16,238.75,402.32,234.89,404.86,231.6Z" transform="translate(2.745 12)" fill="#263238"/>
              <path id="Path_27025" data-name="Path 27025" d="M408.3,188.78l-1.37-18.05a20.93,20.93,0,0,1-9.64-10.06s.69,7.58,7,11.58L406.16,186l-8.87,21.81Z" fill="#263238"/>
              <path id="Path_27026" data-name="Path 27026" d="M433.21,284.47a7.421,7.421,0,0,1-.18,1.91c-.37.81-1.42,1.13-2.07,2.56-1,2.32-.83,5.54-1.49,8.65a8.38,8.38,0,0,1-5.19,6,16.51,16.51,0,0,1-10.62.83c-2.37-.61-3.08-1.45-3.51-2a9,9,0,0,1-.2-2.09s3.65-1.66,4.86-2.06S433.21,284.47,433.21,284.47Z" fill="#263238"/>
              <path id="Path_27027" data-name="Path 27027" d="M433.21,284.47a5.349,5.349,0,0,1-1.18,1.34,13.447,13.447,0,0,0-1.65,1.55c-1,1.2-1,2.59-1.34,4.1-.24,1.15-.25,2.34-.46,3.5-.35,2-.48,3.8-1.86,5.23s-4.2,2.16-6.23,2.43c-5.7.75-8.19.06-9.68-1.48-1.14-1.17-1-2.8,1.84-6.32a7.45,7.45,0,0,0,3.09-3.4c1.76-4.05,2.48-8.29,2.47-16.7,0-.89,4.38-1,6.77-.15a.78.78,0,0,1,.39.21c.33.36.18.93.34,1.36a1,1,0,0,0,.68.66,1.21,1.21,0,0,0,1.15-.73,6,6,0,0,1,.69-1.27,2,2,0,0,1,1.19-.56,6,6,0,0,1,1.34,0,19.279,19.279,0,0,0,1.37,5.2,7.75,7.75,0,0,1,1.08,5.03Z" fill="#455a64"/>
              <path id="Path_27028" data-name="Path 27028" d="M427.38,299.34a10.68,10.68,0,0,0-6.82-5.5c-5.15-1.49-7.7.61-8.94,1.92-1.47,1.56-2.38,4.17-1.17,5.54,1.73,2,4.28,2.31,9.14,1.93C425.81,302.75,427.38,299.34,427.38,299.34Z" fill="#fafafa"/>
              <path id="Path_27029" data-name="Path 27029" d="M409.18,267.87a4.709,4.709,0,0,1,.14,1.9c-.36.81-1.18,1.6-4.7,3.39a9.89,9.89,0,0,0-3.73,4,14.22,14.22,0,0,1-6.55,5.55,19.63,19.63,0,0,1-11.59,1c-4.82-1-5.15-3.82-5.15-3.82s-.2-2.69,1-3.09S409.18,267.87,409.18,267.87Z" fill="#263238"/>
              <path id="Path_27030" data-name="Path 27030" d="M407.79,258.75c-.07,2.92,2.11,5.57,1.39,9.12-1.39,3.34-5.88,3.31-7.88,6s-4.39,6.77-10.75,7.9-11.12-1-12.26-2.8.07-3.6,4-6,10.41-9.13,10.42-9.14a15.257,15.257,0,0,0,1.54-2.23c.51-.91.52-1.9.19-3.91,1.15-.48,5.31-1.45,8.29.94.44.35.49,1.11.69,1.63a1.26,1.26,0,0,0,.3.53,1,1,0,0,0,.79.2,2.5,2.5,0,0,0,1.52-.68c.55-.54.29-1.86.87-2.37.34-.3.75-.23.86,0A2.86,2.86,0,0,1,407.79,258.75Z" fill="#455a64"/>
              <path id="Path_27031" data-name="Path 27031" d="M394.69,280.31a8.06,8.06,0,0,0-4.56-7c-4.73-2.53-7.66-1-9.14,0-1.77,1.22-4.31,3.78-2.83,5.71s4.18,3.11,9.06,3.26A11.65,11.65,0,0,0,394.69,280.31Z" fill="#fafafa"/>
            </g>
            <g id="freepik--top--inject-184-2" data-name="freepik--top--inject-184">
              <g id="freepik--Hair--inject-184">
                <path id="freepik--hair--inject-184-2" data-name="freepik--hair--inject-184" d="M413.49,46c3-2.75,10.72-2.58,14.26,2.27s.68,4.87,6.17,9.81a9.69,9.69,0,0,1,3.18,6.87,8.68,8.68,0,0,1-1,4.47c-.78,1.31-1.46,2-.61,3.62,1,1.93,2.8,3.32,4.17,5,1.55,1.9,2.6,4.55,1.63,6.79-.57,1.31-1.76,2.33-2.06,3.72a7.079,7.079,0,0,0,.24,2.92,10.75,10.75,0,0,1-.06,5.63,8.21,8.21,0,0,1-4,4.38,15.35,15.35,0,0,1-5.81,1.56,27.33,27.33,0,0,1-14.84-2.84,17.87,17.87,0,0,1-6.54-5.33,11.43,11.43,0,0,1-2.11-5.46c-.16-1.73.82-2.67,1-4.28.38-3.5-1.46-7.06-1.71-10.55-.42-6-2.15-10.73.62-15.14S409.76,49.4,413.49,46Z" fill="#263238"/>
                <path id="Path_27032" data-name="Path 27032" d="M423.64,56c2.88-2.31-2.38-7.75-6.3-8.38s-3.76,2.54-3.76,2.54Z" fill="#d71920"/>
              </g>
              <g id="freepik--chest--inject-184-2" data-name="freepik--chest--inject-184">
                <path id="Path_27033" data-name="Path 27033" d="M317.36,118.31l-1.81-3.51a1.82,1.82,0,0,1,1.92-.81c1.4.2,2.95,2.56,5.74,3.45s6.66,1.14,6.58.7-2.52-2.52-2.73-4.13.85-2.44,2.68-1a44.123,44.123,0,0,0,5.69,3.75c2.9,1.7,5,3.41,7.42,3.58h0l23.73-2.66s14.75-13.72,19.85-18.4c4.73-4.34,6.21-6.48,12.92-7.21l-5.27,22.27S378.81,126.48,375.49,129s-5,2.9-11.59,2.81c-4-.06-21.17-.8-23.79-.79-3.11,0-4.28.43-6.66.26a27.38,27.38,0,0,1-9.2-2.11c-3.72-1.59-5.36-3.95-6.81-7.28S317.36,118.31,317.36,118.31Z" fill="#ffbda7"/>
                <path id="Path_27234" data-name="Path 27234" d="M343.644,120.34l22.936-2.66s14.75-13.72,19.85-18.4c4.73-4.34,6.21-6.48,12.92-7.21l-5.27,22.27S378.81,126.48,375.49,129s-5,2.9-11.59,2.81c-4-.06-21.05-1.034-21.05-1.034Z" transform="translate(0 0)" fill="#e35e63"/>
                <path id="Path_27034" data-name="Path 27034" d="M394.2,137.71c-.69-6.85-1.8-11.87-2-14.05-5.48-4.51-5.66-10.9-2.73-17.15,2.85-6.09,8.78-13.07,9.88-14.47A88.4,88.4,0,0,1,411,91.19,58.18,58.18,0,0,1,425.71,93c4.13,4.61,7.22,8,7.13,17.66-.08,9.32-3.89,14-2.85,25.76C424.05,140.8,402.28,141.87,394.2,137.71Z" fill="#d71920"/>
              </g>
              <g id="freepik--head--inject-184-2" data-name="freepik--head--inject-184">
                <path id="Path_27036" data-name="Path 27036" d="M418.72,85.68c1.56-4.48,3.81-5.33,6.72-9,3.38-4.2,5.15-15.08-1.77-20.93-3.84-8.65-13.84-7.73-21.13-6.56-9.53,1.54-17.62,10.3-9.4,20.28Z" fill="#37474f"/>
                <path id="Path_27037" data-name="Path 27037" d="M424.8,69.55c-1.49-1-3.48-1.14-4.63,1.12-.31.6-1.3,2.28-1.94,2.47-2,.59-3.34-2.91-3.54-4.38a39.445,39.445,0,0,0-.48-4.37,7.65,7.65,0,0,1-5-4.25c-.46-.89-.24-1.19-1.19-1a20.851,20.851,0,0,1-2.95.48,14.83,14.83,0,0,1-7.2-.81c-.5-.23-1-.88-1.64-.75-.44.09-.78.68-1,1A10.632,10.632,0,0,0,394,61.81,29.648,29.648,0,0,0,393.1,72a2.811,2.811,0,0,0,0,.29c.44,9.27,2.83,13.09,5.45,14.33,1.62.76,3.55,1,6.64.64v5.27s-5.59,6.35-3.39,11.15c6.77-.52,15.05-7.37,16.82-11.28l.1-14.07s1.44,2.25,4.65-.25C426.06,76,427.14,71.1,424.8,69.55Z" fill="#ffbda7"/>
                <path id="Path_27038" data-name="Path 27038" d="M405.49,70.17a1.27,1.27,0,0,0,1.12,1.36A1.19,1.19,0,0,0,408,70.46a1.27,1.27,0,0,0-1.12-1.37,1.19,1.19,0,0,0-1.39,1.08Z" fill="#263238"/>
                <path id="Path_27039" data-name="Path 27039" d="M394.28,65.18l3.07-1.12a1.56,1.56,0,0,0-2-1,1.72,1.72,0,0,0-1.07,2.12Z" fill="#263238"/>
                <path id="Path_27040" data-name="Path 27040" d="M406.25,64.27l3.05,1.17a1.56,1.56,0,0,0-.88-2.1,1.71,1.71,0,0,0-2.17.93Z" fill="#263238"/>
                <path id="Path_27041" data-name="Path 27041" d="M406.72,77.91l-5.32,1.82a2.82,2.82,0,0,0,3.83,1.65,2.65,2.65,0,0,0,1.49-3.47Z" fill="#b16668"/>
                <path id="Path_27042" data-name="Path 27042" d="M403.68,81.57a3,3,0,0,1,2.92-2.68,2.48,2.48,0,0,1,.27,0,2.47,2.47,0,0,1-1.64,2.46A3.24,3.24,0,0,1,403.68,81.57Z" fill="#f28f8f"/>
                <path id="Path_27043" data-name="Path 27043" d="M394.84,69.84A1.27,1.27,0,0,0,396,71.2a1.19,1.19,0,0,0,1.34-1.07,1.27,1.27,0,0,0-1.12-1.36,1.19,1.19,0,0,0-1.38,1.07Z" fill="#263238"/>
                <path id="Path_27044" data-name="Path 27044" d="M405.2,87.22c3.27-.5,10.18-2.29,11.37-4.86A7.68,7.68,0,0,1,413.92,86c-2.08,1.6-8.71,3-8.71,3Z" fill="#f0997a"/>
                <path id="Path_27045" data-name="Path 27045" d="M412.1,66.45l9.59,2.63a2.68,2.68,0,0,0-1.44,1.44l-8.17-2.09Z" fill="#263238"/>
                <path id="Path_27046" data-name="Path 27046" d="M390.6,66.9a2.43,2.43,0,0,0,.57,1.27,1.06,1.06,0,0,1,.23.45,22.8,22.8,0,0,0,.81,3.42,3.76,3.76,0,0,0,3.68,2.42,5.42,5.42,0,0,0,1.26-.11h.09a3.62,3.62,0,0,0,1-.4h.15l.11-.08.1-.08.11-.09.1-.09a1.887,1.887,0,0,0,.2-.2,4.56,4.56,0,0,0,.81-1.3c.53-1.2.39-2.87,1.27-3.07h.21c1.19,0,1.06,1.84,1.73,3.14a4.45,4.45,0,0,0,4.35,2.6h.59a5.12,5.12,0,0,0,.62-.09l.2-.05h.3a3,3,0,0,0,.7-.33,1.881,1.881,0,0,0,.23-.16,3.437,3.437,0,0,0,.41-.35,4.18,4.18,0,0,0,.77-1.21,21.639,21.639,0,0,0,.7-3.4,1.339,1.339,0,0,1,.2-.49,2.36,2.36,0,0,0,.57-1.22,1.06,1.06,0,0,0-.72-1.08l-.63-.08a19.46,19.46,0,0,0-6.27.09c-2,.55-2.67,1.19-3.78,1.17s-1.71-.68-3.6-1.29A17.31,17.31,0,0,0,391.8,66l-.59.07A1,1,0,0,0,390.6,66.9Zm13.09,1.22a1.5,1.5,0,0,1,.56-.46l.11-.06h.05l.28-.13.26-.11a8.508,8.508,0,0,1,.85-.27l.34-.08a8.3,8.3,0,0,1,.87-.14h.2a5,5,0,0,1,3.55.69c.45.4.25,2.17.07,3.07v.07a.638.638,0,0,0,0,.07,3.472,3.472,0,0,1-.08.36l-.06.22h0a1.225,1.225,0,0,1-.13.38h0v.21a.588.588,0,0,1,0,.08.541.541,0,0,1,0,.11l-.06.12-.08.12a.57.57,0,0,1-.08.13,3,3,0,0,1-2.67,1.27,3.67,3.67,0,0,1-2.83-1.07h0a4,4,0,0,1-.93-1.82,4.16,4.16,0,0,1-.22-2.76Zm-11.27-.91a1.469,1.469,0,0,1,.47-.3h0l.2-.08h.42l.44-.07H395a3.507,3.507,0,0,1,.89.08A5.39,5.39,0,0,1,399.07,68a4.36,4.36,0,0,1,.12,2.73,5.5,5.5,0,0,1-.17.67h0a.63.63,0,0,1,0,.07h0v.08s-.05.11-.08.16a.61.61,0,0,1-.07.14v.05a.471.471,0,0,1-.05.1l-.05.08h0a3,3,0,0,1-2.84,1.31,3.46,3.46,0,0,1-1.43-.34,4.1,4.1,0,0,1-1.88-2.92C392.29,69.38,392,67.6,392.42,67.21Z" fill="#263238"/>
                <path id="Path_27047" data-name="Path 27047" d="M401.84,69.07l-.61,8.1-4.55-1.39,4.59-6.87A.92.92,0,0,1,401.84,69.07Z" fill="#f0997a"/>
              </g>
            </g>
          </g>
        </g>
        <g id="freepik--light-bulb--inject-184">
          <g id="freepik--Socket--inject-184">
            <path id="Path_27048" data-name="Path 27048" d="M271.64,326.59h0L269.82,307H230.19l-1.84,19.63h0c-.39,3.47,1.7,7,6.29,9.66,8.48,4.89,22.23,4.89,30.7,0C270,333.6,272,330.06,271.64,326.59Z" fill="#37474f"/>
            <path id="Path_27049" data-name="Path 27049" d="M236,315.84c-7.77-4.48-7.77-11.74,0-16.22s20.33-4.47,28.08,0,7.76,11.74,0,16.22S243.73,320.31,236,315.84Z" fill="#455a64"/>
            <path id="Path_27050" data-name="Path 27050" d="M271.21,321.78l-.62-6.57c-.56,2.53-2.53,5-5.9,6.92-8.1,4.68-21.25,4.68-29.37,0-3.37-1.94-5.33-4.39-5.9-6.92l-.62,6.57c.5,2.71,2.53,5.33,6.13,7.4,8.33,4.81,21.84,4.81,30.16,0C268.68,327.11,270.72,324.49,271.21,321.78Z" fill="#d71920"/>
            <path id="Path_27051" data-name="Path 27051" d="M250.32,328c11.05,0,17.76-3.81,20.79-7.31l-.46-4.86c-5.17,3.56-12.19,5.5-20,5.5H250a40,40,0,0,1-14.86-2.49c.2-1.24.44-2.6.71-4.1L234.18,307h-2.31L230,308.7l-1.68,17.89h0c-.39,3.47,1.7,7,6.29,9.66,8.48,4.89,22.23,4.89,30.7,0,.28-.16.56-.33.83-.51,0,0-6.42,3.2-16.28,2.78s-15.91-4.18-16.09-6.95a36.2,36.2,0,0,1,.42-6.82C238.09,326.69,243.46,328,250.32,328Z" opacity="0.2"/>
            <path id="Path_27052" data-name="Path 27052" d="M283.61,282.6a27.271,27.271,0,0,1,.42-5.35c1.27-5.86-2-12-9.75-16.48-13.41-7.74-35.15-7.74-48.56,0-7.79,4.5-11,10.62-9.75,16.48a27.27,27.27,0,0,1,.42,5.35,11.491,11.491,0,0,0,.28,2.32,27.071,27.071,0,0,1,.72,5.15,10.739,10.739,0,0,0,.33,2.37,23.189,23.189,0,0,1,.64,4.84,11.349,11.349,0,0,0,.3,2.15,25.38,25.38,0,0,1,.65,4.85c.2,4.37,3.18,8.71,9,12.05,12,6.93,31.46,6.93,43.46,0,5.78-3.34,8.76-7.68,9-12.05a25.379,25.379,0,0,1,.65-4.85,11.351,11.351,0,0,0,.3-2.15,23.19,23.19,0,0,1,.64-4.84,10.743,10.743,0,0,0,.33-2.37,27.072,27.072,0,0,1,.72-5.15,12.252,12.252,0,0,0,.2-2.32Z" fill="#37474f"/>
            <ellipse id="freepik--shadow--inject-184-7" data-name="freepik--shadow--inject-184" cx="26.17" cy="15.11" rx="26.17" ry="15.11" transform="translate(223.83 258.33)" fill="#263238"/>
            <path id="Path_27053" data-name="Path 27053" d="M273.09,303.05c-6.34,3.65-14.79,5.48-23.09,5.51s-16.75-1.86-23.08-5.51a20.75,20.75,0,0,1-7.95-7.49,18.351,18.351,0,0,1-1.24-3.12h0a23,23,0,0,1,.64,4.82,11.35,11.35,0,0,0,.3,2.15,2,2,0,0,1,.05.26,21.1,21.1,0,0,0,8.9,10.09c6.14,3.55,14.34,5.33,22.39,5.35s16.26-1.8,22.39-5.35a21.08,21.08,0,0,0,8.89-10.07.461.461,0,0,1,.06-.28,11.35,11.35,0,0,0,.3-2.15,23.192,23.192,0,0,1,.64-4.84,19.1,19.1,0,0,1-1.25,3.12,20.72,20.72,0,0,1-7.95,7.51Z" fill="#455a64"/>
            <path id="Path_27054" data-name="Path 27054" d="M283.33,284.92a12.25,12.25,0,0,0,.28-2.32,27.271,27.271,0,0,1,.42-5.35,19.761,19.761,0,0,1-1.09,3.11c-1.55,3.08-4.43,6-8.66,8.44-6.66,3.85-15.55,5.78-24.28,5.8s-17.62-2-24.27-5.8c-4.23-2.43-7.12-5.36-8.67-8.44a19.761,19.761,0,0,1-1.09-3.11h0a27.23,27.23,0,0,1,.42,5.34,11.49,11.49,0,0,0,.28,2.32v.16a21.86,21.86,0,0,0,9.51,11c6.53,3.76,15.24,5.65,23.79,5.68s17.27-1.92,23.79-5.68a21.84,21.84,0,0,0,9.5-11A.3.3,0,0,0,283.33,284.92Z" fill="#455a64"/>
            <path id="Path_27055" data-name="Path 27055" d="M256.41,299.46a6.42,6.42,0,0,0-6.42-6.69h0a6.41,6.41,0,0,0-6.41,6.69s0,2.37,0,2.79L245,345.16a3.91,3.91,0,0,0,3.9,3.74h2.15a3.91,3.91,0,0,0,3.9-3.74l1.44-42.91C256.43,301.83,256.41,299.46,256.41,299.46Z" fill="#455a64"/>
            <path id="Path_27056" data-name="Path 27056" d="M251.07,348.9h-2.15a3.91,3.91,0,0,1-3.9-3.74l-1.44-42.91a6.42,6.42,0,0,1,6.41-6.7h0a6.43,6.43,0,0,1,6.42,6.7L255,345.16a3.91,3.91,0,0,1-3.93,3.74Z" fill="#37474f"/>
            <path id="Path_27057" data-name="Path 27057" d="M250,372h0a1.93,1.93,0,0,1-1.92-1.87l-1.66-65.31A3.58,3.58,0,0,1,250,301.1h0a3.59,3.59,0,0,1,3.59,3.72l-1.67,65.31A1.92,1.92,0,0,1,250,372Z" fill="#d71920"/>
            <path id="Path_27058" data-name="Path 27058" d="M248.07,370.15a1.92,1.92,0,1,0,3.84,0l.21-7.12-.08-.22s-.27,3.31-2,2.49c-1.27-.59-2.05-4.53-2.31-8.46Z" opacity="0.2"/>
            <path id="Path_27059" data-name="Path 27059" d="M253.58,304.84a3.59,3.59,0,0,0-3.59-3.72h0a4,4,0,0,0-.6.05c2.19.42,2.89,1.76,3,7.09.13,5.57-.42,59.58-.42,59.59Z" fill="#fff" opacity="0.5"/>
            <path id="Path_27060" data-name="Path 27060" d="M283.79,282.38a3.45,3.45,0,0,0-3.42.36,10.85,10.85,0,0,0-4.86,8.83l1.17,37.59a1.83,1.83,0,0,0,.81,1.66l2.42,1.4a1.85,1.85,0,0,0,1.83-.19l2.09-1.2a5.9,5.9,0,0,0,2.65-4.45l1.17-39.22c0-1.68-.51-2.85-1.43-3.38Z" fill="#263238"/>
            <path id="Path_27061" data-name="Path 27061" d="M281.74,332c-1.42.82-2.61.16-2.65-1.48L277.92,293a10.85,10.85,0,0,1,4.86-8.83c2.78-1.6,5-.24,4.87,3l-1.17,39.22a5.9,5.9,0,0,1-2.65,4.45Z" fill="#37474f"/>
            <path id="Path_27062" data-name="Path 27062" d="M283.79,282.38l2.43,1.4a3.41,3.41,0,0,0-3.44.35A10.72,10.72,0,0,0,278.4,290l-2.4-1.44a10.68,10.68,0,0,1,4.38-5.82A3.43,3.43,0,0,1,283.79,282.38Z" fill="#455a64"/>
            <path id="Path_27063" data-name="Path 27063" d="M287.38,292.35l-2.19-1.26-2.41,1.39v61.35c2.54,1.47,4.89,1.53,6.79.43l2.39-1.38c2.39-1.36,4.05-4.57,4.45-9.18l2.19-25.27C299.45,308.52,294.19,296.28,287.38,292.35Z" fill="#d71920"/>
            <g id="Group_4385" data-name="Group 4385" opacity="0.2">
              <path id="Path_27064" data-name="Path 27064" d="M287.38,292.35l-2.19-1.26-2.41,1.39v61.35c2.54,1.47,4.89,1.53,6.79.43l2.39-1.38c2.39-1.36,4.05-4.57,4.45-9.18l2.19-25.27C299.45,308.52,294.19,296.28,287.38,292.35Z" fill="#fff"/>
            </g>
            <path id="Path_27065" data-name="Path 27065" d="M282.78,353.83h0V292.48l2.19,1.26c6.81,3.93,12.07,16.17,11.22,26.08L294,345.09C293.29,353.38,288.48,357.12,282.78,353.83Z" fill="#d71920"/>
            <path id="Path_27066" data-name="Path 27066" d="M282.78,353.83h0V292.48l2.19,1.26c6.81,3.93,12.07,16.17,11.22,26.08L294,345.09C293.29,353.38,288.48,357.12,282.78,353.83Z" opacity="0.2"/>
            <path id="Path_27067" data-name="Path 27067" d="M294.06,344.39c-.35,4-4.36,5.6-7.27,2.5s-4-7.11-4-19.57v26.51c5.7,3.29,10.51-.45,11.22-8.74Z" opacity="0.2"/>
            <path id="Path_27068" data-name="Path 27068" d="M216.21,282.38a3.45,3.45,0,0,1,3.42.36,10.81,10.81,0,0,1,4.85,8.83l-1.16,37.59a1.83,1.83,0,0,1-.81,1.66l-2.42,1.4a1.85,1.85,0,0,1-1.83-.19l-2.09-1.2a5.9,5.9,0,0,1-2.65-4.45l-1.17-39.22c0-1.68.51-2.85,1.43-3.38Z" fill="#263238"/>
            <path id="Path_27069" data-name="Path 27069" d="M218.26,332c1.42.82,2.61.16,2.65-1.48L222.07,293a10.81,10.81,0,0,0-4.85-8.83c-2.78-1.6-5-.24-4.87,3l1.17,39.22a5.9,5.9,0,0,0,2.65,4.45Z" fill="#37474f"/>
            <path id="Path_27070" data-name="Path 27070" d="M216.21,282.38c-.42.23-2,1.16-2.43,1.4a3.41,3.41,0,0,1,3.44.35A10.72,10.72,0,0,1,221.6,290l2.41-1.39a10.68,10.68,0,0,0-4.38-5.82A3.43,3.43,0,0,0,216.21,282.38Z" fill="#455a64"/>
            <path id="Path_27071" data-name="Path 27071" d="M212.62,292.35l2.19-1.26,2.41,1.39v61.35c-2.54,1.47-4.89,1.53-6.79.43L208,352.88c-2.39-1.36-4-4.57-4.45-9.18l-2.19-25.27C200.55,308.52,205.81,296.28,212.62,292.35Z" fill="#d71920"/>
            <g id="Group_4386" data-name="Group 4386" opacity="0.2">
              <path id="Path_27072" data-name="Path 27072" d="M212.62,292.35l2.19-1.26,2.41,1.39v61.35c-2.54,1.47-4.89,1.53-6.79.43L208,352.88c-2.39-1.36-4-4.57-4.45-9.18l-2.19-25.27C200.55,308.52,205.81,296.28,212.62,292.35Z" fill="#fff"/>
            </g>
            <path id="Path_27073" data-name="Path 27073" d="M217.22,353.83h0V292.48L215,293.74c-6.81,3.93-12.07,16.17-11.22,26.08L206,345.09C206.71,353.38,211.52,357.12,217.22,353.83Z" fill="#d71920"/>
            <path id="Path_27074" data-name="Path 27074" d="M217.22,353.83h0V292.48L215,293.74c-6.81,3.93-12.07,16.17-11.22,26.08L206,345.09C206.71,353.38,211.52,357.12,217.22,353.83Z" opacity="0.2"/>
            <path id="Path_27075" data-name="Path 27075" d="M205.94,344.39c.35,4,4.36,5.6,7.27,2.5s4-7.11,4-19.57v26.51c-5.7,3.29-10.51-.45-11.22-8.74Z" opacity="0.2"/>
          </g>
          <g id="freepik--Bulb--inject-184">
            <path id="Path_27076" data-name="Path 27076" d="M250,58.26a86.32,86.32,0,0,0-86.32,86.32c0,68.52,56.54,79.9,56.54,107.52,0,4.4,2.91,8.8,8.72,12.15,11.63,6.72,30.49,6.72,42.12,0,5.81-3.36,8.72-7.76,8.72-12.16h0c0-27.62,56.54-39,56.54-107.52a86.318,86.318,0,0,0-86.31-86.31Z" fill="#d71920"/>
            <path id="Path_27077" data-name="Path 27077" d="M250,58.26a86.32,86.32,0,0,0-86.32,86.32c0,68.52,56.54,79.9,56.54,107.52,0,4.4,2.91,8.8,8.72,12.15,11.63,6.72,30.49,6.72,42.12,0,5.81-3.36,8.72-7.76,8.72-12.16h0c0-27.62,56.54-39,56.54-107.52a86.318,86.318,0,0,0-86.31-86.31Z" fill="#fff" opacity="0.6"/>
            <path id="Path_27078" data-name="Path 27078" d="M293.92,93.11a13.161,13.161,0,0,0-3,1.8c-3.43,2.69-4.83,7.45-4.19,11.76,1.22,8.35,9.26,13.56,13.91,20a73.94,73.94,0,0,1,11.25,23.53c.69,2.52,1.59,6.69,2.88,8.95a6.75,6.75,0,0,0,8.59,2.9c3.35-1.79,5.09-6,5.56-9.27,2.8-19.53-1.19-34.14-11-49.17C312.49,95.47,304,88.77,293.92,93.11Z" fill="#fff" opacity="0.2"/>
            <path id="Path_27079" data-name="Path 27079" d="M312.52,172.61a9.51,9.51,0,0,0,.9,7.74,5.53,5.53,0,0,0,7.58,1.72,8.94,8.94,0,0,0,4.1-7.47c-.05-3.17-2.1-6.54-5.61-6.89C316.22,167.39,313.4,170,312.52,172.61Z" fill="#fff" opacity="0.2"/>
            <path id="Path_27080" data-name="Path 27080" d="M232.72,243.36c-1.92-10.93-4.9-16.8-18.37-23.71s-36.78-17.4-46.56-45.55c13,43.18,52.43,54.93,52.43,78,0,4.4,2.91,8.8,8.72,12.15a35.148,35.148,0,0,0,8,3.29C235.74,260.61,233.91,250.17,232.72,243.36Z" fill="#d71920" opacity="0.25"/>
            <path id="Path_27081" data-name="Path 27081" d="M267.28,243.36c1.92-10.93,4.9-16.8,18.37-23.71s36.78-17.4,46.56-45.55c-13,43.18-52.43,54.93-52.43,78,0,4.4-2.91,8.8-8.72,12.15a35.26,35.26,0,0,1-8,3.29C264.26,260.61,266.09,250.17,267.28,243.36Z" fill="#d71920" opacity="0.25"/>
            <circle id="Ellipse_176" data-name="Ellipse 176" cx="26.17" cy="26.17" r="26.17" transform="translate(215.808 127.708) rotate(-22.5)" fill="#d71920"/>
            <circle id="Ellipse_177" data-name="Ellipse 177" cx="26.17" cy="26.17" r="26.17" transform="translate(215.808 127.708) rotate(-22.5)" opacity="0.15"/>
            <circle id="Ellipse_178" data-name="Ellipse 178" cx="26.17" cy="26.17" r="26.17" transform="translate(215.801 130.746) rotate(-22.5)" fill="#d71920"/>
            <path id="Path_27082" data-name="Path 27082" d="M259.43,169.32,251,146.06l21.44,12.38c.18-.29.35-.59.51-.89l-21.44-12.38,24.38-4.29c-.05-.34-.11-.68-.18-1l-24.37,4.3,15.9-19q-.37-.34-.78-.66l-15.91,19V118.76h-1v24.75l-15.91-19q-.41.32-.78.66l15.9,19-24.37-4.3c-.07.33-.13.67-.18,1l24.37,4.29-21.43,12.38c.16.3.33.6.51.89L249,146.06l-8.47,23.26,1,.35L250,146.41l8.47,23.26Z" opacity="0.2"/>
            <circle id="Ellipse_179" data-name="Ellipse 179" cx="20.58" cy="20.58" r="20.58" transform="translate(229.42 124.47)" fill="#37474f"/>
            <path id="Path_27083" data-name="Path 27083" d="M250,124.47a20.58,20.58,0,0,0-20.48,18.62,20.57,20.57,0,0,0,41,.13A20.57,20.57,0,0,0,250,124.47Z" fill="#455a64"/>
            <path id="Path_27084" data-name="Path 27084" d="M266.44,139.82a6.14,6.14,0,1,1-1.8-4.345,6.15,6.15,0,0,1,1.8,4.345Z" fill="#e0e0e0"/>
            <path id="Path_27085" data-name="Path 27085" d="M262.6,152a3.54,3.54,0,1,1-3.54-3.54A3.54,3.54,0,0,1,262.6,152Z" fill="#e0e0e0"/>
            <circle id="Ellipse_180" data-name="Ellipse 180" cx="15.12" cy="15.12" r="15.12" transform="translate(230.247 192.362) rotate(-22.5)" fill="#d71920"/>
            <circle id="Ellipse_181" data-name="Ellipse 181" cx="15.12" cy="15.12" r="15.12" transform="translate(230.247 192.362) rotate(-22.5)" opacity="0.15"/>
            <circle id="Ellipse_182" data-name="Ellipse 182" cx="15.12" cy="15.12" r="15.12" transform="translate(230.247 194.109) rotate(-22.5)" fill="#d71920"/>
            <path id="Path_27086" data-name="Path 27086" d="M255.45,216.39,250.56,203l12.38,7.15.3-.52-12.39-7.15L264.94,200a2.831,2.831,0,0,0-.11-.58l-14.08,2.48,9.19-11-.45-.38-9.19,10.95v-14.3h-.6v14.3l-9.19-10.95-.45.38,9.19,11-14.08-2.48a4.211,4.211,0,0,1-.11.58l14.09,2.48-12.39,7.15.3.52L249.44,203l-4.89,13.43.56.2L250,203.16l4.89,13.43Z" opacity="0.2"/>
            <circle id="Ellipse_183" data-name="Ellipse 183" cx="11.87" cy="11.87" r="11.87" transform="translate(233.219 202.37) rotate(-45)" fill="#37474f"/>
            <path id="Path_27087" data-name="Path 27087" d="M250,190.5a11.85,11.85,0,0,0-11.81,10.74,11.87,11.87,0,0,0,23.63.07A11.87,11.87,0,0,0,250,190.5Z" fill="#455a64"/>
            <path id="Path_27088" data-name="Path 27088" d="M259.48,199.35a3.54,3.54,0,1,1-3.54-3.54A3.54,3.54,0,0,1,259.48,199.35Z" fill="#e0e0e0"/>
            <path id="Path_27089" data-name="Path 27089" d="M257.27,206.37a2,2,0,1,1-2-2,2.05,2.05,0,0,1,2,2Z" fill="#e0e0e0"/>
            <path id="Path_27090" data-name="Path 27090" d="M285.46,68.49h0a.3.3,0,0,1-.08-.08,1.541,1.541,0,0,1-.17-.19C274.62,56.49,253.14,53.67,250,53.67s-24.62,2.82-35.21,14.55l-.18.19a.6.6,0,0,1-.08.08h0c-7.76,8.67-5.34,19.59,7.25,26.86,15.58,9,40.84,9,56.42,0C290.8,88.08,293.22,77.16,285.46,68.49Z" fill="#455a64"/>
            <path id="Path_27091" data-name="Path 27091" d="M235.22,58.85c-8.19,2.47-24,10.4-21.21,22.53,2.66,11.39,25.37,18.47,34,18-11.7-1.57-23.17-13.51-24.6-21.45S228.2,62,235.22,58.85Z" fill="#37474f"/>
            <path id="Path_27092" data-name="Path 27092" d="M257.58,57.93c6.5,1.5,21.17,8.42,28.39,16.26C282.37,67.79,269.88,59.23,257.58,57.93Z" fill="#e0e0e0"/>
            <path id="Path_27093" data-name="Path 27093" d="M253.05,56.26,250,26.38l-3,29.88h0a1.51,1.51,0,0,0,.89,1.24,4.77,4.77,0,0,0,4.32,0,1.51,1.51,0,0,0,.89-1.24Z" fill="#e0e0e0"/>
            <path id="Path_27094" data-name="Path 27094" d="M252.93,26.38A2.93,2.93,0,1,1,250,23.45a2.93,2.93,0,0,1,2.93,2.93Z" fill="#d71920"/>
            <path id="Path_27095" data-name="Path 27095" d="M249.94,28a2.71,2.71,0,0,1-2.13-3.59,2.9,2.9,0,0,0-.74,1.93,2.93,2.93,0,0,0,5.86,0A3,3,0,0,1,249.94,28Z" opacity="0.2"/>
            <circle id="Ellipse_184" data-name="Ellipse 184" cx="0.86" cy="0.86" r="0.86" transform="translate(249.14 23.97)" fill="#fff" opacity="0.3"/>
            <circle id="Ellipse_185" data-name="Ellipse 185" cx="0.44" cy="0.44" r="0.44" transform="translate(251.29 25.06)" fill="#fff" opacity="0.3"/>
            <g id="Group_4387" data-name="Group 4387" opacity="0.5">
              <path id="Path_27096" data-name="Path 27096" d="M276.17,243.11a17.45,17.45,0,0,1-5.1,5.24c-1,.71-2.11,1.25-3.18,1.86a35,35,0,0,1-3.4,1.44,43.79,43.79,0,0,1-29,0c-1.17-.39-2.28-.95-3.4-1.45a32.593,32.593,0,0,1-3.18-1.86,17.3,17.3,0,0,1-5.1-5.23,18.339,18.339,0,0,0,5.4,4.76,35.94,35.94,0,0,0,3.19,1.68,34.333,34.333,0,0,0,3.38,1.26,48,48,0,0,0,28.4,0,31.867,31.867,0,0,0,3.37-1.27,31.266,31.266,0,0,0,3.19-1.67,18.52,18.52,0,0,0,5.43-4.76Z" fill="#d71920"/>
              <path id="Path_27097" data-name="Path 27097" d="M251,258.34a1,1,0,1,1-.95-1A1,1,0,0,1,251,258.34Z" fill="#d71920"/>
              <circle id="Ellipse_186" data-name="Ellipse 186" cx="0.96" cy="0.96" r="0.96" transform="translate(265.35 253.34)" fill="#d71920"/>
              <circle id="Ellipse_187" data-name="Ellipse 187" cx="0.96" cy="0.96" r="0.96" transform="translate(232.72 253.34)" fill="#d71920"/>
            </g>
          </g>
        </g>
        <g id="freepik--character-2--inject-184" transform="translate(-15.483 -38.432)">
          <g id="freepik--character--inject-184-3" data-name="freepik--character--inject-184">
            <g id="freepik--bottom--inject-184-3" data-name="freepik--bottom--inject-184">
              <path id="Path_27098" data-name="Path 27098" d="M386.12,433.23c2.76-8,4.11-28.6,1.36-34.89-1.69-3.86-6.3-5.91-11.29-4.44-7.83,2.29-24.48,12.08-24.48,12.08Z" fill="#263238"/>
              <path id="Path_27099" data-name="Path 27099" d="M379.81,408l-25,9.81-1.29-.11,1.73-4.3c-13.94-1.49-37.21-12-49.25-5.83-6.09,3.12-8.61,12.14-4.95,18.43,3,5.09,12.93,11.8,22.73,16.09,11.19,4.9,18.61,8.11,27.57,8.56,10.95.55,16.11-2.26,21-4.73,5.16-2.57,12.69-4.56,14.25-15.07C388,421.31,383.27,414.76,379.81,408Z" fill="#37474f"/>
              <path id="Path_27100" data-name="Path 27100" d="M313.21,408.71a13,13,0,0,1,9.41,6.14l23.4,3.22.55-1.9-22.23-2.74C322.19,410,317.48,408.57,313.21,408.71Z" opacity="0.2"/>
            </g>
            <g id="freepik--top--inject-184-3" data-name="freepik--top--inject-184">
              <path id="Path_27101" data-name="Path 27101" d="M351.57,348.93l3.24,19.05,14.74-1.48-2.29-21.16Z" fill="#e2ab94"/>
              <path id="Path_27102" data-name="Path 27102" d="M380.66,405.06c-2.32-6.13-2.21-11.11-1.56-14,2.79-12.36,3.12-16.51,1.82-24.17-1.05-6.16-3.88-13.5-10.87-13.11a14.76,14.76,0,0,0-1.85.17c.67,5.34-10.11,7.46-15.05,4.27-2.22.52-10.07,2.61-10.07,2.61-4.46,5.71-9.65,15.23-11.15,20.65-2.64,9.54,5.85,16.06,5.85,16.06-.25,6.93,1.65,16-1.34,25.51,0,0,1.35,12.33,24.9,9.69,21-2.35,24.78-11.58,24.78-11.58C384.2,413.09,383.78,413.29,380.66,405.06Z" fill="#d71920"/>
              <path id="Path_27103" data-name="Path 27103" d="M380.66,405.06c-2.32-6.13-2.21-11.11-1.56-14,2.79-12.36,3.12-16.51,1.82-24.17-1.05-6.16-3.88-13.5-10.87-13.11a14.76,14.76,0,0,0-1.85.17c.67,5.34-10.11,7.46-15.05,4.27-2.22.52-10.07,2.61-10.07,2.61-4.46,5.71-9.65,15.23-11.15,20.65-2.64,9.54,5.85,16.06,5.85,16.06-.25,6.93,1.65,16-1.34,25.51,0,0,1.35,12.33,24.9,9.69,21-2.35,24.78-11.58,24.78-11.58C384.2,413.09,383.78,413.29,380.66,405.06Z" fill="#fff" opacity="0.6"/>
              <path id="Path_27104" data-name="Path 27104" d="M350.53,318.23c-3.08,1.56-9.48,4.81-9.77,15.6-.31,11.52,1.19,15.42,2.78,16.92,1.07,1,6.6,1.38,9.48.5,3.61-1.1,11.43-4.9,15.1-10.81,4.31-6.95,5.2-16.21.22-19.84C361.34,315.49,353.14,316.9,350.53,318.23Z" fill="#e2ab94"/>
              <path id="Path_27105" data-name="Path 27105" d="M341.16,332.14s-3.72,5.71-3.31,6.2a12.48,12.48,0,0,0,3,1.36Z" fill="#ce8a8a"/>
              <path id="Path_27106" data-name="Path 27106" d="M343.83,351c1.3.72,5,1.18,8.16.54l-.37-1.94a28.915,28.915,0,0,1-3.8,1.15,13,13,0,0,1-3.99.25Z" fill="#874c4c"/>
              <path id="Path_27107" data-name="Path 27107" d="M338.18,318.58a4.54,4.54,0,0,1,.39-1.29,4.83,4.83,0,0,1,3.92-2.69,5.08,5.08,0,0,1,3.89-5.16A8.16,8.16,0,0,1,353,311c1.54-1.93,4.14-2.33,6.59-2s4.86,2.46,5,4.68c1.71-1.26,4.66-.76,6.26.58a6,6,0,0,1,2.17,5.67c4,2.39,4.45,7.24,4.45,9.53,0,5.22-.87,8.42-4.39,12.65a36.78,36.78,0,0,0-5.42,7.66c-4.32,2.8-11.39,1.66-11.39,1.66-5-2.22-6-8.21-5.55-10.19a2.1,2.1,0,0,0,1.72,1.33,4.14,4.14,0,0,0,3.73-1.4c2.82-2.76,3-7.19-.6-8.36-2.38-.79-3.6.82-5.15,2.1l-1.68,4.54a2.65,2.65,0,0,1-1.62-3.41,2.58,2.58,0,0,1,1.14-1.35,7.86,7.86,0,0,1-2.11-3.34,4.78,4.78,0,0,1,.77-4,4.92,4.92,0,0,1-2.84-3.74c.05.35-.94,1.62-1.12,2a9.43,9.43,0,0,0-1,2.38c-.18,1.2.18,2.4-.81,3.41s-4.53,1-4.59-.75c.74.5,1.76.3,1.86-.63.15-1.31-1.55-2.34-1.92-3.46-.64-1.9,1.1-3.69,2.9-3.73a6,6,0,0,1-1.22-4.25Z" fill="#263238"/>
              <path id="Path_27108" data-name="Path 27108" d="M290,364.77c2.17.13,4.25,3,4.33,4.49s-3.16,2.59-3.16,2.59Z" fill="#874c4c"/>
              <g id="freepik--Brush--inject-184">
                <path id="Path_27109" data-name="Path 27109" d="M284.6,360.05l2.87,16.82a1.09,1.09,0,0,0,.8.79,3.47,3.47,0,0,0,3.13-.53,1.1,1.1,0,0,0,.49-1L289,359.3Z" fill="#455a64"/>
                <path id="Path_27110" data-name="Path 27110" d="M289.76,363.63l-3.99,3.3-1.17-6.88,4.42-.75Z" opacity="0.15"/>
                <path id="Path_27111" data-name="Path 27111" d="M288.94,345.42l.59,3.43,2.67-2.22,1.22,7a7.46,7.46,0,0,1-2.34,6.33l-4.69,3.89a2.49,2.49,0,0,1-2.2.67c-.07,0-2.87-1-3.47-1.29a2.39,2.39,0,0,1-1.25-1.94l-1.21-7Z" fill="#37474f"/>
                <path id="Path_27112" data-name="Path 27112" d="M286.39,363.89l4.69-3.89a7.46,7.46,0,0,0,2.34-6.33l-1.22-7-10.68,8.87,1.21,7C283.09,364.66,284.73,365.26,286.39,363.89Z" fill="#455a64"/>
                <path id="Path_27113" data-name="Path 27113" d="M281.52,355.5l10.68-8.87-1.75-10.27-10.69,8.87Z" fill="#f5f5f5"/>
                <path id="Path_27114" data-name="Path 27114" d="M281.52,355.5l-1.76-10.27-3.26-1.21,1.76,10.27Z" fill="#e0e0e0"/>
                <path id="Path_27115" data-name="Path 27115" d="M282.04,358.55l10.69-8.87.24,1.4-10.68,8.94Z" fill="#fafafa"/>
                <path id="Path_27116" data-name="Path 27116" d="M282.04,358.55l-3.26-1.2.26,1.47,3.25,1.2Z" fill="#e6e6e6"/>
                <path id="Path_27117" data-name="Path 27117" d="M277,347.16s1.42,2.28,3.4,2.07l-.68-4L276.5,344Z" fill="#d71920"/>
                <path id="Path_27118" data-name="Path 27118" d="M280.44,349.23a4.31,4.31,0,0,0,4-1.16c1.23-1.3,1.08-5.06,3.79-5.6,1.9-.38,3.54,1.41,3.54,1.41l-1.28-7.52-10.69,8.87Z" fill="#d71920"/>
                <path id="Path_27119" data-name="Path 27119" d="M280.44,349.23a4.31,4.31,0,0,0,4-1.16c1.23-1.3,1.08-5.06,3.79-5.6,1.9-.38,3.54,1.41,3.54,1.41l-1.28-7.52-10.69,8.87Z" fill="#fff" opacity="0.3"/>
                <path id="Path_27120" data-name="Path 27120" d="M290.45,336.36l-3.26-1.21-10.69,8.87,3.26,1.21Z" fill="#d71920"/>
                <path id="Path_27121" data-name="Path 27121" d="M290.45,336.36l-3.26-1.21-10.69,8.87,3.26,1.21Z" fill="#fff" opacity="0.5"/>
              </g>
              <path id="Path_27122" data-name="Path 27122" d="M289.74,386.84c-4.16-4.39-5.35-4.57-6.65-6.68-2.07-3.36-2-6.31-2.45-9.62s2-4.86,4.83-5.4l1,5.73c.39,2.58,4.56,3.59,4.58.08.06-2.12-.22-4.08.12-5.18.69-2.2,2-2.29,2.81-2.11.63.14.17,1.68.71,4.23.7,3.27,1.79,4.26,1.45,8a5.09,5.09,0,0,0,1.31,3.59c2.43,3.38,14.66,11.56,16.86,13.64,0,0,14.41-23.55,18-27.51,3-3.32,7.61-4.12,10.79-4.71,5.13,1.5,5.08,16.14-3.62,23.54,0,0-12.31,17.49-17.3,22.35-3.41,3.32-6.15,6.3-14.65-.64C299.65,399.7,292.19,389.43,289.74,386.84Z" fill="#e2ab94"/>
              <path id="Path_27123" data-name="Path 27123" d="M314.28,393.09a18.54,18.54,0,0,0-2.07,6.45,22.8,22.8,0,0,1,.72-7.57Z" fill="#874c4c"/>
              <path id="Path_27235" data-name="Path 27235" d="M289.74,386.84l7.71-7.36s14.66,11.56,16.86,13.64c0,0,14.41-23.55,18-27.51,3-3.32,7.61-4.12,10.79-4.71,5.13,1.5,5.08,16.14-3.62,23.54,0,0-12.31,17.49-17.3,22.35-3.41,3.32-6.15,6.3-14.65-.64C299.65,399.7,289.74,386.84,289.74,386.84Z" fill="#c75054"/>
            </g>
          </g>
        </g>
        <g id="freepik--paint-pot--inject-184">
          <g id="freepik--paint-pot--inject-184-2" data-name="freepik--paint-pot--inject-184">
            <path id="Path_27124" data-name="Path 27124" d="M246.85,380.86l-32.2-.44-.28,26.3h0c0,2.38,1.52,4.77,4.65,6.62,6.24,3.7,16.44,3.81,22.77.25,3.19-1.8,4.79-4.19,4.78-6.59Z" fill="#37474f"/>
            <path id="Path_27125" data-name="Path 27125" d="M219.44,373.9c-6.32,3.56-6.39,9.45-.14,13.15s16.44,3.81,22.77.25,6.4-9.45.14-13.15S225.77,370.34,219.44,373.9Z" fill="#455a64"/>
            <path id="Path_27126" data-name="Path 27126" d="M245.47,380.75a4,4,0,0,1-.23,1.26,7.79,7.79,0,0,1-3.85,4.07,23.81,23.81,0,0,1-21.38-.23,7.78,7.78,0,0,1-3.73-4.06,4,4,0,0,1-.23-1.35c0-2,1.47-3.86,4.08-5.31a23.81,23.81,0,0,1,21.38.23C244.08,376.88,245.49,378.79,245.47,380.75Z" fill="#263238"/>
            <path id="Path_27127" data-name="Path 27127" d="M245.24,382a7.79,7.79,0,0,1-3.85,4.07,23.81,23.81,0,0,1-21.38-.23,7.78,7.78,0,0,1-3.73-4.06,7.69,7.69,0,0,1,3.85-4.05,23.64,23.64,0,0,1,21.38.23,7.84,7.84,0,0,1,3.73,4.04Z" fill="#d71920"/>
            <path id="Path_27128" data-name="Path 27128" d="M241.39,386.08a12.748,12.748,0,0,0,1.46-1c-5.88,3.16-16,1.83-19.14-.65s-3.57-6.71,1.55-8.6a18.23,18.23,0,0,0-5.13,1.88,7.69,7.69,0,0,0-3.85,4.05,7.78,7.78,0,0,0,3.73,4.06,23.81,23.81,0,0,0,21.38.23Z" opacity="0.15"/>
            <path id="Path_27129" data-name="Path 27129" d="M237.62,390.71c.7-.4,1.27-.06,1.26.75a2.78,2.78,0,0,1-1.3,2.18c-.7.4-1.27.07-1.26-.74a2.82,2.82,0,0,1,1.3-2.19Z" fill="#263238"/>
            <path id="Path_27130" data-name="Path 27130" d="M214.6,385c-1.77,3.49-5.29,11.8-.72,15.18.19.14.37.26.56.38v1.68c-.45-.28-.93-.59-1.38-.92-6.84-5.07.87-18.07,1.21-18.61a.6.6,0,0,1,.38-.3Z" fill="#e0e0e0"/>
            <path id="Path_27131" data-name="Path 27131" d="M238.21,392.51c-.19.4-5.16,9.91-13.35,11.82a11.759,11.759,0,0,1-2.82.34,14.18,14.18,0,0,1-7.62-2.39V400.6c3.38,2.35,6.78,3.16,10.11,2.38,7.55-1.76,12.39-11,12.42-11.12a.71.71,0,0,1,.95-.3.68.68,0,0,1,.31.95Z" fill="#e0e0e0"/>
          </g>
        </g>
        <g id="freepik--Gears--inject-184" transform="translate(53.567 0)">
          <g id="freepik--Gear--inject-184" transform="translate(77.12 376.929)">
            <path id="Path_27189" data-name="Path 27189" d="M111.33,391.721l-2.385.41a.978.978,0,0,0-.791-.035l-3.61,2.737a.92.92,0,0,1-.774-.053,11.827,11.827,0,0,0-3.007-1.36.715.715,0,0,1-.516-.527l-.3-1.559a.586.586,0,0,0-.527-.434H94.193a.586.586,0,0,0-.527.434l-.27,1.459a.727.727,0,0,1-.522.522,8.381,8.381,0,0,0-3.059,1.424.8.8,0,0,1-.744.094l-3.6-2.737a.967.967,0,0,0-.791.035l-3.722.275v3.083h0a.275.275,0,0,0,.141.24l2.819,2.028a.381.381,0,0,1,.053.586,6.975,6.975,0,0,0-1.008,1.407.885.885,0,0,1-.639.428l-4.736-.768a.481.481,0,0,0-.44.475v3.71a.481.481,0,0,0,.445.469l4.741.3a.885.885,0,0,1,.639.428c.105.193.229.387.358.586l-2.344.586v3.089h0a.287.287,0,0,0,.164.24l3.558,2.051a.943.943,0,0,0,.785.035l3.6-1.67a1.33,1.33,0,0,1,.826-.047,21.364,21.364,0,0,0,2.8.662.692.692,0,0,1,.522.51l.451,2.344a.586.586,0,0,0,.527.434H99.45a.586.586,0,0,0,.527-.434l.451-2.344a.692.692,0,0,1,.522-.51,21.374,21.374,0,0,0,2.8-.662,1.331,1.331,0,0,1,.826.047l3.6,1.67a.955.955,0,0,0,.791-.035l3.552-2.051a.3.3,0,0,0,.17-.234h0v-3.095l-2.508-.381a6.12,6.12,0,0,0,.492-.774.885.885,0,0,1,.645-.428l4.736-.3a.481.481,0,0,0,.445-.469v-3.745a.481.481,0,0,0-.445-.475l-4.736-.3a.867.867,0,0,1-.639-.422c-.264-.481-.586.117-1.014-.334a.375.375,0,0,1,.053-.586l2.813-2.028a.3.3,0,0,0,.147-.234h0V392.4Zm-8.481,6c3.323,1.911,3.516,4.349.205,6.265a13.3,13.3,0,0,1-12.073,0c-3.317-1.946-3.464-4.384-.147-6.295A13.291,13.291,0,0,1,102.85,397.722Z" transform="translate(-77.132 -387.811)" fill="#d71920"/>
            <path id="Path_27190" data-name="Path 27190" d="M111.33,391.721l-2.385.41a.978.978,0,0,0-.791-.035l-3.61,2.737a.92.92,0,0,1-.774-.053,11.827,11.827,0,0,0-3.007-1.36.715.715,0,0,1-.516-.527l-.3-1.559a.586.586,0,0,0-.527-.434H94.193a.586.586,0,0,0-.527.434l-.27,1.459a.727.727,0,0,1-.522.522,8.381,8.381,0,0,0-3.059,1.424.8.8,0,0,1-.744.094l-3.6-2.737a.967.967,0,0,0-.791.035l-3.722.275v3.083h0a.275.275,0,0,0,.141.24l2.819,2.028a.381.381,0,0,1,.053.586,6.975,6.975,0,0,0-1.008,1.407.885.885,0,0,1-.639.428l-4.736-.768a.481.481,0,0,0-.44.475v3.71a.481.481,0,0,0,.445.469l4.741.3a.885.885,0,0,1,.639.428c.105.193.229.387.358.586l-2.344.586v3.089h0a.287.287,0,0,0,.164.24l3.558,2.051a.943.943,0,0,0,.785.035l3.6-1.67a1.33,1.33,0,0,1,.826-.047,21.364,21.364,0,0,0,2.8.662.692.692,0,0,1,.522.51l.451,2.344a.586.586,0,0,0,.527.434H99.45a.586.586,0,0,0,.527-.434l.451-2.344a.692.692,0,0,1,.522-.51,21.374,21.374,0,0,0,2.8-.662,1.331,1.331,0,0,1,.826.047l3.6,1.67a.955.955,0,0,0,.791-.035l3.552-2.051a.3.3,0,0,0,.17-.234h0v-3.095l-2.508-.381a6.12,6.12,0,0,0,.492-.774.885.885,0,0,1,.645-.428l4.736-.3a.481.481,0,0,0,.445-.469v-3.745a.481.481,0,0,0-.445-.475l-4.736-.3a.867.867,0,0,1-.639-.422c-.264-.481-.586.117-1.014-.334a.375.375,0,0,1,.053-.586l2.813-2.028a.3.3,0,0,0,.147-.234h0V392.4Zm-8.481,6c3.323,1.911,3.516,4.349.205,6.265a13.3,13.3,0,0,1-12.073,0c-3.317-1.946-3.464-4.384-.147-6.295A13.291,13.291,0,0,1,102.85,397.722Z" transform="translate(-77.132 -387.811)" fill="#fff" opacity="0.3"/>
            <path id="Path_27191" data-name="Path 27191" d="M86.427,395.907l-.715,5.579-.234,4.964-3.821-.047,1.647-.082a6.808,6.808,0,0,1-.358-.586.885.885,0,0,0-.639-.428l-4.741-.3a.481.481,0,0,1-.445-.469v-3.71a.481.481,0,0,1,.44-.475l4.765.774a.885.885,0,0,0,.639-.428,6.975,6.975,0,0,1,1.008-1.395.381.381,0,0,0-.053-.586L81.1,396.692a.275.275,0,0,1-.141-.24h0v-3.083l1.758-.129Z" transform="translate(-77.12 -388.78)" opacity="0.1"/>
            <path id="Path_27192" data-name="Path 27192" d="M108.071,396.23l5.949,3.434.674,3.739H112c.176-1.225-.7-2.467-2.573-3.516a13.272,13.272,0,0,0-12.015,0c-1.946,1.119-2.69,2.432-2.344,3.71H93.12s1.131-4.982,3.065-6.447S108.071,396.23,108.071,396.23Z" transform="translate(-83.743 -389.976)" opacity="0.1"/>
            <path id="Path_27193" data-name="Path 27193" d="M138.425,405.22l1.565.1a.481.481,0,0,1,.445.475v3.71a.481.481,0,0,1-.445.469l-4.736.3a.674.674,0,0,0-.234.07v-4.466Z" transform="translate(-101.086 -393.739)" fill="#d71920"/>
            <path id="Path_27194" data-name="Path 27194" d="M95.074,419.934a1.1,1.1,0,0,0-.358.082l-3.6,1.67a.927.927,0,0,1-.322.064V418.4l4.278-2.508Z" transform="translate(-82.778 -398.155)" fill="#d71920"/>
            <path id="Path_27195" data-name="Path 27195" d="M111.691,426.214a.545.545,0,0,1-.457.264h-5.228a.533.533,0,0,1-.316-.111V422.7l5.99-.7Z" transform="translate(-88.946 -400.684)" fill="#d71920"/>
            <path id="Path_27196" data-name="Path 27196" d="M130.45,421.563v-4.284l3.171-1.829,1.1.639v3.094h0a.3.3,0,0,1-.17.234L131,421.469A.914.914,0,0,1,130.45,421.563Z" transform="translate(-99.194 -397.973)" fill="#d71920"/>
            <path id="Path_27197" data-name="Path 27197" d="M135.537,393.47h0a.281.281,0,0,1-.141.246l-2.819,2.028a.369.369,0,0,0-.053.586c.281.311.832,1.495,1.231,1.653l1.629-1.172a.293.293,0,0,0,.141-.24h0Z" transform="translate(-100.003 -388.875)" fill="#d71920"/>
            <g id="Group_4388" data-name="Group 4388" transform="translate(8.012 4.595)" opacity="0.7">
              <path id="Path_27198" data-name="Path 27198" d="M138.425,405.22l1.565.1a.481.481,0,0,1,.445.475v3.71a.481.481,0,0,1-.445.469l-4.736.3a.674.674,0,0,0-.234.07v-4.466Z" transform="translate(-109.098 -398.334)" fill="#fff"/>
              <path id="Path_27199" data-name="Path 27199" d="M135.357,410.226l4.736-.3a.3.3,0,0,0,.281-.293v-3.71a.311.311,0,0,0-.275-.3l-1.547-.1-3.241.627v4.1Z" transform="translate(-109.218 -398.458)" fill="#fff"/>
              <path id="Path_27200" data-name="Path 27200" d="M95.074,419.934a1.1,1.1,0,0,0-.358.082l-3.6,1.67a.927.927,0,0,1-.322.064V418.4l4.278-2.508Z" transform="translate(-90.79 -402.75)" fill="#fff"/>
              <path id="Path_27201" data-name="Path 27201" d="M91.16,421.743l3.6-1.67a1.025,1.025,0,0,1,.258-.076V416.41l-3.933,2.3v3.053Z" transform="translate(-90.914 -402.965)" fill="#fff"/>
              <path id="Path_27202" data-name="Path 27202" d="M111.691,426.214a.545.545,0,0,1-.457.264h-5.228a.533.533,0,0,1-.316-.111V422.7l5.99-.7Z" transform="translate(-96.957 -405.279)" fill="#fff"/>
              <path id="Path_27203" data-name="Path 27203" d="M130.45,421.563v-4.284l3.171-1.829,1.1.639v3.094h0a.3.3,0,0,1-.17.234L131,421.469A.914.914,0,0,1,130.45,421.563Z" transform="translate(-107.206 -402.568)" fill="#fff"/>
              <path id="Path_27204" data-name="Path 27204" d="M131.037,421.462l3.552-2.051c.053,0,.082-.064.082-.082v-2.995l-.926-.533-2.995,1.723v4.015a.692.692,0,0,0,.287-.076Z" transform="translate(-107.33 -402.713)" fill="#fff"/>
              <path id="Path_27205" data-name="Path 27205" d="M135.537,393.47h0a.281.281,0,0,1-.141.246l-2.819,2.028a.369.369,0,0,0-.053.586c.281.311.856,1.518,1.231,1.653l1.629-1.172a.293.293,0,0,0,.141-.24h0Z" transform="translate(-108.015 -393.47)" fill="#fff"/>
              <path id="Path_27206" data-name="Path 27206" d="M135.412,396.992c.053-.035.07-.07.07-.094v-.3h0V394.29l-2.684,1.934a.193.193,0,0,0-.088.147.223.223,0,0,0,.064.17,5.276,5.276,0,0,1,.416.621,4.735,4.735,0,0,0,.674.938Z" transform="translate(-108.141 -393.809)" fill="#fff"/>
            </g>
            <path id="Path_27207" data-name="Path 27207" d="M108.16,387.9l-3.6,1.67a1.331,1.331,0,0,1-.826.047,21.22,21.22,0,0,0-2.8-.662.692.692,0,0,1-.522-.51l-.451-2.374a.551.551,0,0,0-.522-.434H94.2a.551.551,0,0,0-.522.434l-.451,2.374a.692.692,0,0,1-.522.51,21.462,21.462,0,0,0-2.8.662,1.331,1.331,0,0,1-.826-.047l-3.6-1.67a.943.943,0,0,0-.785.035l-3.558,2.051a.264.264,0,0,0,0,.481l2.819,2.028a.381.381,0,0,1,.053.586,7.471,7.471,0,0,0-1.008,1.395.873.873,0,0,1-.639.428l-4.765.322a.481.481,0,0,0-.44.469v2.649a.481.481,0,0,0,.44.469l4.741.3a.873.873,0,0,1,.639.428,7.472,7.472,0,0,0,1.008,1.395.381.381,0,0,1-.053.586l-2.819,2.028a.264.264,0,0,0,0,.481l3.558,2.051a.944.944,0,0,0,.785.035l3.6-1.67a1.331,1.331,0,0,1,.826-.047,21.452,21.452,0,0,0,2.8.662.692.692,0,0,1,.522.51l.451,2.374a.551.551,0,0,0,.522.434h5.234a.551.551,0,0,0,.522-.434l.451-2.374a.692.692,0,0,1,.522-.51,21.456,21.456,0,0,0,2.8-.662,1.331,1.331,0,0,1,.826.047l3.6,1.67a.944.944,0,0,0,.785-.035l3.558-2.051a.264.264,0,0,0,0-.481l-2.819-2.028a.381.381,0,0,1-.053-.586,7.471,7.471,0,0,0,1.008-1.395.873.873,0,0,1,.639-.428l4.741-.3a.481.481,0,0,0,.44-.469V395.7a.481.481,0,0,0-.44-.469l-4.741-.3a.873.873,0,0,1-.639-.428,7.473,7.473,0,0,0-1.008-1.395.381.381,0,0,1,.053-.586l2.819-2.028a.264.264,0,0,0,0-.481l-3.558-2.051A.943.943,0,0,0,108.16,387.9Zm-5.333,5.621c3.317,1.916,3.317,5.023,0,6.939a13.284,13.284,0,0,1-12.021,0c-3.323-1.917-3.317-5.023,0-6.939a13.333,13.333,0,0,1,12.044,0Z" transform="translate(-77.132 -385.634)" fill="#d71920"/>
            <g id="Group_4389" data-name="Group 4389" transform="translate(0.018 0.006)" opacity="0.55">
              <path id="Path_27208" data-name="Path 27208" d="M108.16,387.9l-3.6,1.67a1.331,1.331,0,0,1-.826.047,21.22,21.22,0,0,0-2.8-.662.692.692,0,0,1-.522-.51l-.451-2.374a.551.551,0,0,0-.522-.434H94.2a.551.551,0,0,0-.522.434l-.451,2.374a.692.692,0,0,1-.522.51,21.462,21.462,0,0,0-2.8.662,1.331,1.331,0,0,1-.826-.047l-3.6-1.67a.943.943,0,0,0-.785.035l-3.558,2.051a.264.264,0,0,0,0,.481l2.819,2.028a.381.381,0,0,1,.053.586,7.471,7.471,0,0,0-1.008,1.395.873.873,0,0,1-.639.428l-4.765.322a.481.481,0,0,0-.44.469v2.649a.481.481,0,0,0,.44.469l4.741.3a.873.873,0,0,1,.639.428,7.472,7.472,0,0,0,1.008,1.395.381.381,0,0,1-.053.586l-2.819,2.028a.264.264,0,0,0,0,.481l3.558,2.051a.944.944,0,0,0,.785.035l3.6-1.67a1.331,1.331,0,0,1,.826-.047,21.452,21.452,0,0,0,2.8.662.692.692,0,0,1,.522.51l.451,2.374a.551.551,0,0,0,.522.434h5.234a.551.551,0,0,0,.522-.434l.451-2.374a.692.692,0,0,1,.522-.51,21.456,21.456,0,0,0,2.8-.662,1.331,1.331,0,0,1,.826.047l3.6,1.67a.944.944,0,0,0,.785-.035l3.558-2.051a.264.264,0,0,0,0-.481l-2.819-2.028a.381.381,0,0,1-.053-.586,7.471,7.471,0,0,0,1.008-1.395.873.873,0,0,1,.639-.428l4.741-.3a.481.481,0,0,0,.44-.469V395.7a.481.481,0,0,0-.44-.469l-4.741-.3a.873.873,0,0,1-.639-.428,7.473,7.473,0,0,0-1.008-1.395.381.381,0,0,1,.053-.586l2.819-2.028a.264.264,0,0,0,0-.481l-3.558-2.051A.943.943,0,0,0,108.16,387.9Zm-5.333,5.621c3.317,1.916,3.317,5.023,0,6.939a13.284,13.284,0,0,1-12.021,0c-3.323-1.917-3.317-5.023,0-6.939a13.333,13.333,0,0,1,12.044,0Z" transform="translate(-77.15 -385.64)" fill="#fff"/>
            </g>
            <g id="Group_4390" data-name="Group 4390" transform="translate(0.018 0)" opacity="0.2">
              <path id="Path_27209" data-name="Path 27209" d="M96.367,399.783a3.276,3.276,0,0,0-.457,1.641c0,1.377.914,2.661,2.573,3.622a13.507,13.507,0,0,0,12.2,0c1.659-.961,2.573-2.245,2.573-3.622s-.914-2.661-2.573-3.622a13.5,13.5,0,0,0-12.191,0A5.585,5.585,0,0,0,96.367,399.783Zm2.2-1.829a13.284,13.284,0,0,1,12.021,0c3.323,1.916,3.317,5.023,0,6.939a13.284,13.284,0,0,1-12.021,0c-3.323-1.917-3.317-5.023,0-6.939Z" transform="translate(-84.915 -390.066)" fill="#fff"/>
              <path id="Path_27210" data-name="Path 27210" d="M77.59,398.782l4.741.3a.873.873,0,0,1,.639.428,7.474,7.474,0,0,0,1.008,1.395.381.381,0,0,1-.053.586l-2.819,2.028a.264.264,0,0,0,0,.481l3.558,2.051a.944.944,0,0,0,.785.035l3.6-1.67a1.33,1.33,0,0,1,.826-.047,21.451,21.451,0,0,0,2.8.662.692.692,0,0,1,.522.51l.451,2.374a.551.551,0,0,0,.522.434h5.234a.551.551,0,0,0,.522-.434l.451-2.374a.692.692,0,0,1,.522-.51,21.456,21.456,0,0,0,2.8-.662,1.33,1.33,0,0,1,.826.047l3.6,1.67a.944.944,0,0,0,.785-.035L112.479,404a.264.264,0,0,0,0-.481l-2.819-2.028a.381.381,0,0,1-.053-.586,7.47,7.47,0,0,0,1.008-1.395.873.873,0,0,1,.639-.428l4.741-.3a.481.481,0,0,0,.44-.469v-2.649a.481.481,0,0,0-.44-.469l-4.741-.3a.873.873,0,0,1-.639-.428,7.472,7.472,0,0,0-1.008-1.395.381.381,0,0,1,.053-.586l2.819-2.028a.264.264,0,0,0,0-.481l-3.558-2.051a.943.943,0,0,0-.785-.035l-3.6,1.67a1.331,1.331,0,0,1-.826.047,21.229,21.229,0,0,0-2.8-.662.692.692,0,0,1-.522-.51l-.451-2.374a.551.551,0,0,0-.522-.434H94.176a.551.551,0,0,0-.522.434l-.451,2.374a.692.692,0,0,1-.522.51,21.446,21.446,0,0,0-2.8.662,1.33,1.33,0,0,1-.826-.047l-3.6-1.67a.943.943,0,0,0-.785.035l-3.558,2.051a.264.264,0,0,0,0,.481l2.819,2.028a.381.381,0,0,1,.053.586,7.472,7.472,0,0,0-1.008,1.395.873.873,0,0,1-.639.428l-4.741.328a.481.481,0,0,0-.44.469v2.649A.481.481,0,0,0,77.59,398.782Zm-.264-.469v-2.649a.3.3,0,0,1,.275-.293l4.741-.3a1.038,1.038,0,0,0,.779-.516,7.034,7.034,0,0,1,.973-1.36.586.586,0,0,0,.152-.445.539.539,0,0,0-.234-.393L81.2,390.325c-.047-.029-.076-.07-.07-.1a.147.147,0,0,1,.076-.088l3.558-2.051a.78.78,0,0,1,.627-.029l3.6,1.67a1.547,1.547,0,0,0,.949.059,20.916,20.916,0,0,1,2.778-.662.856.856,0,0,0,.662-.645l.451-2.374a.381.381,0,0,1,.352-.3h5.234a.381.381,0,0,1,.352.3l.451,2.374a.856.856,0,0,0,.662.645,20.916,20.916,0,0,1,2.778.662,1.5,1.5,0,0,0,.949-.059l3.6-1.67a.78.78,0,0,1,.627.029l3.558,2.051c.047.029.076.064.076.088a.1.1,0,0,1-.064.1l-2.819,2.028a.551.551,0,0,0-.082.838,7.032,7.032,0,0,1,.985,1.36,1.037,1.037,0,0,0,.779.516l4.741.3a.3.3,0,0,1,.275.293v2.649a.293.293,0,0,1-.275.293l-4.741.3a1.031,1.031,0,0,0-.779.516,7.034,7.034,0,0,1-.985,1.36.586.586,0,0,0-.152.445.539.539,0,0,0,.234.393l2.813,2.028c.047.029.076.07.07.1s0,.059-.076.088l-3.558,2.051a.779.779,0,0,1-.627.029l-3.61-1.67a1.5,1.5,0,0,0-.949-.059,21.14,21.14,0,0,1-2.778.662.868.868,0,0,0-.662.645l-.451,2.38a.381.381,0,0,1-.352.293H94.182a.381.381,0,0,1-.352-.293l-.451-2.38a.856.856,0,0,0-.662-.645,21.138,21.138,0,0,1-2.76-.662,1.5,1.5,0,0,0-.949.059l-3.6,1.67a.78.78,0,0,1-.627-.029l-3.558-2.051c-.047-.029-.076-.059-.076-.088a.093.093,0,0,1,.07-.1l2.813-2.028a.621.621,0,0,0,.17-.182.522.522,0,0,0,.064-.211.586.586,0,0,0-.152-.445,7.034,7.034,0,0,1-.985-1.36,1.037,1.037,0,0,0-.779-.516l-4.741-.3a.3.3,0,0,1-.275-.293Z" transform="translate(-77.15 -385.63)" fill="#fff"/>
            </g>
          </g>
          <g id="freepik--gear--inject-184-2" data-name="freepik--gear--inject-184" transform="translate(114.096 364.608)">
            <path id="Path_27211" data-name="Path 27211" d="M167.58,370.926l-2.092.867a1.219,1.219,0,0,0-.744-.059l-2.544.8a1.758,1.758,0,0,1-1.084-.07,13.815,13.815,0,0,0-1.36-.5.721.721,0,0,1-.492-.738l.152-1.242a.586.586,0,0,0-.51-.639l-3.27-.34a.908.908,0,0,0-.844.457l-.639,1.248c-.147.287-.586.24-.938.264a15.853,15.853,0,0,0-1.6.5,1.676,1.676,0,0,1-1.061-.211l-1.758-1.172a1.213,1.213,0,0,0-1.026-.105l-.844.34-2.04-1.653v2.708h0a.439.439,0,0,0,.129.3l1.172,1.26a.5.5,0,0,1-.07.768,6.363,6.363,0,0,0-.715.639,1.465,1.465,0,0,1-.967.41l-2.4-.34-1.829-.322v2.7h0a.486.486,0,0,0,.422.469l2.843.486a.961.961,0,0,1,.715.668,4.436,4.436,0,0,0,.217.586.586.586,0,0,1-.24.774l-2.344-1.313v2.708h0a.381.381,0,0,0,.164.293l1.664,1.395a1.172,1.172,0,0,0,1,.193l2.549-.8a1.834,1.834,0,0,1,1.078.07,12.142,12.142,0,0,0,1.366.5.709.709,0,0,1,.334.234v1.823h0a.586.586,0,0,0,.51.557l3.264.34a.9.9,0,0,0,.844-.457l.656-1.266a1.172,1.172,0,0,1,.844-.557c.586-.041,1.137-.111,1.694-.205a1.612,1.612,0,0,1,1.055.211l1.758,1.172a1.26,1.26,0,0,0,1.026.105l2.62-1.049a.387.387,0,0,0,.27-.346h0v-2.7a3.109,3.109,0,0,0-.586-.2l.064-.064a1.465,1.465,0,0,1,.967-.41l2.989.117a.8.8,0,0,0,.756-.527l.451-1.448a.526.526,0,0,0,0-.164h0v-2.69l-3.264,1.711a.991.991,0,0,1-.7-.668,4.1,4.1,0,0,0-.211-.586.586.586,0,0,1,.24-.774l2.1-1.055a.369.369,0,0,0,.234-.328h0Zm-7.748,4.384c1.963,1.635,1.125,3.382-1.711,4.513s-6.593,1.237-8.557-.4-1.266-3.886,1.571-5.023S157.863,373.681,159.832,375.31Z" transform="translate(-140.21 -366.289)" fill="#d71920"/>
            <path id="Path_27212" data-name="Path 27212" d="M167.58,370.926l-2.092.867a1.219,1.219,0,0,0-.744-.059l-2.544.8a1.758,1.758,0,0,1-1.084-.07,13.815,13.815,0,0,0-1.36-.5.721.721,0,0,1-.492-.738l.152-1.242a.586.586,0,0,0-.51-.639l-3.27-.34a.908.908,0,0,0-.844.457l-.639,1.248c-.147.287-.586.24-.938.264a15.853,15.853,0,0,0-1.6.5,1.676,1.676,0,0,1-1.061-.211l-1.758-1.172a1.213,1.213,0,0,0-1.026-.105l-.844.34-2.04-1.653v2.708h0a.439.439,0,0,0,.129.3l1.172,1.26a.5.5,0,0,1-.07.768,6.363,6.363,0,0,0-.715.639,1.465,1.465,0,0,1-.967.41l-2.4-.34-1.829-.322v2.7h0a.486.486,0,0,0,.422.469l2.843.486a.961.961,0,0,1,.715.668,4.436,4.436,0,0,0,.217.586.586.586,0,0,1-.24.774l-2.344-1.313v2.708h0a.381.381,0,0,0,.164.293l1.664,1.395a1.172,1.172,0,0,0,1,.193l2.549-.8a1.834,1.834,0,0,1,1.078.07,12.142,12.142,0,0,0,1.366.5.709.709,0,0,1,.334.234v1.823h0a.586.586,0,0,0,.51.557l3.264.34a.9.9,0,0,0,.844-.457l.656-1.266a1.172,1.172,0,0,1,.844-.557c.586-.041,1.137-.111,1.694-.205a1.612,1.612,0,0,1,1.055.211l1.758,1.172a1.26,1.26,0,0,0,1.026.105l2.62-1.049a.387.387,0,0,0,.27-.346h0v-2.7a3.109,3.109,0,0,0-.586-.2l.064-.064a1.465,1.465,0,0,1,.967-.41l2.989.117a.8.8,0,0,0,.756-.527l.451-1.448a.526.526,0,0,0,0-.164h0v-2.69l-3.264,1.711a.991.991,0,0,1-.7-.668,4.1,4.1,0,0,0-.211-.586.586.586,0,0,1,.24-.774l2.1-1.055a.369.369,0,0,0,.234-.328h0Zm-7.748,4.384c1.963,1.635,1.125,3.382-1.711,4.513s-6.593,1.237-8.557-.4-1.266-3.886,1.571-5.023S157.863,373.681,159.832,375.31Z" transform="translate(-140.21 -366.289)" fill="#fff" opacity="0.3"/>
            <path id="Path_27213" data-name="Path 27213" d="M167.475,375.018l-.229,3.206-1.289.035a2.614,2.614,0,0,0-1.055-1.653c-1.969-1.635-5.861-2.045-8.7-.908-1.7.68-2.626,1.758-2.678,2.866h-.492s-1.348-2.684.082-4.22a7.948,7.948,0,0,1,2.667-1.723,1.7,1.7,0,0,0,.891.129c.557-.094,1.032-.457,1.6-.5.322,0,.791,0,.938-.264l.1-.193a6.836,6.836,0,0,1,1.307.064C163.243,372.287,167.475,375.018,167.475,375.018Z" transform="translate(-145.28 -367.58)" opacity="0.1"/>
            <path id="Path_27214" data-name="Path 27214" d="M149.853,388.4l-2.52.785a1.113,1.113,0,0,1-.633,0v-3.329l.135.076a.586.586,0,0,0,.24-.774h0l2.778-1.606Z" transform="translate(-142.896 -372.448)" fill="#d71920"/>
            <path id="Path_27215" data-name="Path 27215" d="M164.139,389.033a12.13,12.13,0,0,0,1.213-.123V392.1a.92.92,0,0,0-.275.311l-.656,1.266a.873.873,0,0,1-.481.4v-4.917Z" transform="translate(-150.032 -374.667)" fill="#d71920"/>
            <path id="Path_27216" data-name="Path 27216" d="M185.057,372.52a.381.381,0,0,1-.24.322l-2.1,1.055a.586.586,0,0,0-.24.768,3.517,3.517,0,0,1,.211.586.979.979,0,0,0,.7.662l.527.094.9-.451a.393.393,0,0,0,.24-.334h0Z" transform="translate(-157.681 -367.883)" fill="#d71920"/>
            <path id="Path_27217" data-name="Path 27217" d="M182.348,380.909a.444.444,0,0,1,.035.094.991.991,0,0,0,.7.668l3.264-1.711v2.684h0a.527.527,0,0,1,0,.164l-.451,1.448a.8.8,0,0,1-.756.527l-2.989-.117a1.261,1.261,0,0,0-.469.094v-3.6Z" transform="translate(-157.375 -370.962)" fill="#d71920"/>
            <path id="Path_27218" data-name="Path 27218" d="M175.59,393.126V389.8l3.071-.967a4.039,4.039,0,0,1,.5.182v2.7h0a.387.387,0,0,1-.27.346l-2.62,1.049a1.225,1.225,0,0,1-.686.023Z" transform="translate(-154.854 -374.634)" fill="#d71920"/>
            <g id="Group_4391" data-name="Group 4391" transform="translate(3.804 4.637)" opacity="0.7">
              <path id="Path_27219" data-name="Path 27219" d="M149.853,388.4l-2.52.785a1.113,1.113,0,0,1-.633,0v-3.329l.135.076a.586.586,0,0,0,.24-.774h0l2.778-1.606Z" transform="translate(-146.7 -377.086)" fill="#fff"/>
              <path id="Path_27220" data-name="Path 27220" d="M147.11,386.394h0v2.866a.8.8,0,0,0,.34,0l2.344-.738v-4.3l-2.274,1.313a.838.838,0,0,1-.088.586.809.809,0,0,1-.322.276Z" transform="translate(-146.87 -377.363)" fill="#fff"/>
              <path id="Path_27221" data-name="Path 27221" d="M164.139,389.033a12.13,12.13,0,0,0,1.213-.123V392.1a.92.92,0,0,0-.275.311l-.656,1.266a.873.873,0,0,1-.481.4v-4.917Z" transform="translate(-153.836 -379.304)" fill="#fff"/>
              <path id="Path_27222" data-name="Path 27222" d="M164.387,393.761l.651-1.266a1.107,1.107,0,0,1,.252-.316V389.36a9.029,9.029,0,0,1-.908.082l-.041.035v4.36a.333.333,0,0,0,.047-.076Z" transform="translate(-154.001 -379.49)" fill="#fff"/>
              <path id="Path_27223" data-name="Path 27223" d="M185.057,372.52a.381.381,0,0,1-.24.322l-2.1,1.055a.586.586,0,0,0-.24.768,3.517,3.517,0,0,1,.211.586.979.979,0,0,0,.7.662l.527.094.9-.451a.393.393,0,0,0,.24-.334h0Z" transform="translate(-161.485 -372.52)" fill="#fff"/>
              <path id="Path_27224" data-name="Path 27224" d="M184.857,375.735c.076-.035.117-.088.117-.123v-.4h0V373.49l-2.01,1.008a.352.352,0,0,0-.135.475,3.638,3.638,0,0,1,.229.586.744.744,0,0,0,.51.5l.457.076Z" transform="translate(-161.637 -372.922)" fill="#fff"/>
              <path id="Path_27225" data-name="Path 27225" d="M182.348,380.909a.444.444,0,0,1,.035.094.991.991,0,0,0,.7.668l3.264-1.711v2.684h0a.527.527,0,0,1,0,.164l-.451,1.448a.8.8,0,0,1-.756.527l-2.989-.117a1.261,1.261,0,0,0-.469.094v-3.6Z" transform="translate(-161.179 -375.6)" fill="#fff"/>
              <path id="Path_27226" data-name="Path 27226" d="M182.268,384.7l2.989.117a.586.586,0,0,0,.527-.369l.457-1.442a.465.465,0,0,0,0-.1V380.6l-3,1.571h-.076a1.172,1.172,0,0,1-.826-.7l-.328.111v3.153A1.22,1.22,0,0,1,182.268,384.7Z" transform="translate(-161.315 -375.864)" fill="#fff"/>
              <path id="Path_27227" data-name="Path 27227" d="M175.59,393.126V389.8l3.071-.967a4.039,4.039,0,0,1,.5.182v2.7h0a.387.387,0,0,1-.27.346l-2.62,1.049a1.225,1.225,0,0,1-.686.023Z" transform="translate(-158.658 -379.271)" fill="#fff"/>
              <path id="Path_27228" data-name="Path 27228" d="M176.363,393.061l2.614-1.049a.155.155,0,0,0,.129-.135v-.539h0v-2l-.275-.094-2.831.9V393.1A.932.932,0,0,0,176.363,393.061Z" transform="translate(-158.828 -379.441)" fill="#fff"/>
            </g>
            <path id="Path_27229" data-name="Path 27229" d="M164.745,367.346l-2.544.8a1.811,1.811,0,0,1-1.084-.07,13.842,13.842,0,0,0-1.36-.5.709.709,0,0,1-.492-.738l.152-1.242a.586.586,0,0,0-.51-.639l-3.27-.34a.92.92,0,0,0-.844.457l-.639,1.272a1.172,1.172,0,0,1-.844.551,16.106,16.106,0,0,0-1.694.211,1.717,1.717,0,0,1-1.061-.211l-1.758-1.172a1.254,1.254,0,0,0-1.026-.105l-2.614,1.049a.369.369,0,0,0-.141.639l1.172,1.266a.5.5,0,0,1-.07.762,6.985,6.985,0,0,0-.715.639,1.436,1.436,0,0,1-.967.41l-2.989-.117a.8.8,0,0,0-.756.533l-.451,1.442a.5.5,0,0,0,.4.656l2.842.486a.961.961,0,0,1,.709.662,4.191,4.191,0,0,0,.217.586.586.586,0,0,1-.24.768l-2.1,1.055a.352.352,0,0,0-.07.633l1.67,1.389a1.172,1.172,0,0,0,1,.2l2.544-.8a1.758,1.758,0,0,1,1.078.07,13.963,13.963,0,0,0,1.366.5.715.715,0,0,1,.492.738L150,380.427a.586.586,0,0,0,.51.633l3.27.346a.932.932,0,0,0,.844-.457l.651-1.272a1.137,1.137,0,0,1,.844-.551,16.3,16.3,0,0,0,1.694-.211,1.688,1.688,0,0,1,1.055.211l1.758,1.172a1.26,1.26,0,0,0,1.026.105l2.62-1.049a.369.369,0,0,0,.141-.639l-1.172-1.266a.5.5,0,0,1,.076-.762,7.673,7.673,0,0,0,.715-.639,1.442,1.442,0,0,1,.967-.416l2.989.123a.8.8,0,0,0,.756-.533l.451-1.442a.5.5,0,0,0-.4-.656l-2.842-.486a.979.979,0,0,1-.7-.662,3.517,3.517,0,0,0-.211-.586.586.586,0,0,1,.24-.768l2.1-1.055a.352.352,0,0,0,.07-.633l-1.67-1.389a1.172,1.172,0,0,0-1.037-.2Zm-4.911,3.6c1.969,1.635,1.26,3.88-1.571,5.017s-6.734.733-8.7-.908-1.266-3.886,1.571-5.017S157.864,369.3,159.833,370.945Z" transform="translate(-140.211 -364.608)" fill="#d71920"/>
            <g id="Group_4392" data-name="Group 4392" transform="translate(0.002)" opacity="0.55">
              <path id="Path_27230" data-name="Path 27230" d="M164.745,367.346l-2.544.8a1.811,1.811,0,0,1-1.084-.07,13.842,13.842,0,0,0-1.36-.5.709.709,0,0,1-.492-.738l.152-1.242a.586.586,0,0,0-.51-.639l-3.27-.34a.92.92,0,0,0-.844.457l-.639,1.272a1.172,1.172,0,0,1-.844.551,16.106,16.106,0,0,0-1.694.211,1.717,1.717,0,0,1-1.061-.211l-1.758-1.172a1.254,1.254,0,0,0-1.026-.105l-2.614,1.049a.369.369,0,0,0-.141.639l1.172,1.266a.5.5,0,0,1-.07.762,6.985,6.985,0,0,0-.715.639,1.436,1.436,0,0,1-.967.41l-2.989-.117a.8.8,0,0,0-.756.533l-.451,1.442a.5.5,0,0,0,.4.656l2.842.486a.961.961,0,0,1,.709.662,4.191,4.191,0,0,0,.217.586.586.586,0,0,1-.24.768l-2.1,1.055a.352.352,0,0,0-.07.633l1.67,1.389a1.172,1.172,0,0,0,1,.2l2.544-.8a1.758,1.758,0,0,1,1.078.07,13.963,13.963,0,0,0,1.366.5.715.715,0,0,1,.492.738L150,380.427a.586.586,0,0,0,.51.633l3.27.346a.932.932,0,0,0,.844-.457l.651-1.272a1.137,1.137,0,0,1,.844-.551,16.3,16.3,0,0,0,1.694-.211,1.688,1.688,0,0,1,1.055.211l1.758,1.172a1.26,1.26,0,0,0,1.026.105l2.62-1.049a.369.369,0,0,0,.141-.639l-1.172-1.266a.5.5,0,0,1,.076-.762,7.673,7.673,0,0,0,.715-.639,1.442,1.442,0,0,1,.967-.416l2.989.123a.8.8,0,0,0,.756-.533l.451-1.442a.5.5,0,0,0-.4-.656l-2.842-.486a.979.979,0,0,1-.7-.662,3.517,3.517,0,0,0-.211-.586.586.586,0,0,1,.24-.768l2.1-1.055a.352.352,0,0,0,.07-.633l-1.67-1.389a1.172,1.172,0,0,0-1.037-.2Zm-4.911,3.6c1.969,1.635,1.26,3.88-1.571,5.017s-6.734.733-8.7-.908-1.266-3.886,1.571-5.017S157.864,369.3,159.833,370.945Z" transform="translate(-140.213 -364.608)" fill="#fff"/>
            </g>
            <g id="Group_4393" data-name="Group 4393" transform="translate(0.002)" opacity="0.2">
              <path id="Path_27231" data-name="Path 27231" d="M153.909,375.857a2.813,2.813,0,0,0,1.172,2.591c2.022,1.682,6.025,2.11,8.926.944a4.057,4.057,0,0,0,2.8-2.813,2.8,2.8,0,0,0-1.172-2.59c-2.022-1.688-6.025-2.11-8.926-.949a4.841,4.841,0,0,0-2.479,1.922A2.6,2.6,0,0,0,153.909,375.857Zm2.889-2.6c2.837-1.137,6.728-.733,8.7.908s1.26,3.856-1.577,5.029-6.734.733-8.7-.908-1.266-3.9,1.577-5.029Z" transform="translate(-145.876 -367.826)" fill="#fff"/>
              <path id="Path_27232" data-name="Path 27232" d="M140.241,372.234a.5.5,0,0,0,.4.656l2.842.486a.961.961,0,0,1,.709.662,4.191,4.191,0,0,0,.217.586.586.586,0,0,1-.24.768l-2.1,1.055a.352.352,0,0,0-.07.633l1.67,1.389a1.172,1.172,0,0,0,1,.2l2.544-.8a1.758,1.758,0,0,1,1.078.07,13.963,13.963,0,0,0,1.366.5.715.715,0,0,1,.492.738L150,380.427a.586.586,0,0,0,.51.633l3.27.346a.932.932,0,0,0,.844-.457l.651-1.272a1.137,1.137,0,0,1,.844-.551,16.3,16.3,0,0,0,1.694-.211,1.688,1.688,0,0,1,1.055.211l1.758,1.172a1.26,1.26,0,0,0,1.026.105l2.62-1.049a.369.369,0,0,0,.141-.639l-1.172-1.266a.5.5,0,0,1,.076-.762,7.673,7.673,0,0,0,.715-.639,1.442,1.442,0,0,1,.967-.416l2.989.123a.8.8,0,0,0,.756-.533l.451-1.442a.5.5,0,0,0-.4-.656l-2.842-.486a.979.979,0,0,1-.7-.662,3.517,3.517,0,0,0-.211-.586.586.586,0,0,1,.24-.768l2.1-1.055a.352.352,0,0,0,.07-.633l-1.67-1.389a1.172,1.172,0,0,0-1-.2l-2.544.8a1.811,1.811,0,0,1-1.084-.07,13.842,13.842,0,0,0-1.36-.5.709.709,0,0,1-.492-.738l.152-1.242a.586.586,0,0,0-.51-.639l-3.27-.34a.92.92,0,0,0-.844.457l-.674,1.272a1.172,1.172,0,0,1-.844.551,16.106,16.106,0,0,0-1.694.211,1.717,1.717,0,0,1-1.061-.211l-1.758-1.172a1.254,1.254,0,0,0-1.026-.105l-2.614,1.049a.369.369,0,0,0-.141.639l1.172,1.266a.5.5,0,0,1-.07.762,6.985,6.985,0,0,0-.715.639,1.436,1.436,0,0,1-.967.41l-2.989-.117a.8.8,0,0,0-.756.527Zm.217.07.451-1.448a.586.586,0,0,1,.527-.369l2.989.117a1.659,1.659,0,0,0,1.143-.481,7.069,7.069,0,0,1,.692-.586.768.768,0,0,0,.3-.545.744.744,0,0,0-.205-.586l-1.172-1.26a.187.187,0,0,1-.064-.158.2.2,0,0,1,.129-.117l2.614-1.049a1.043,1.043,0,0,1,.815.088l1.758,1.172a1.834,1.834,0,0,0,1.219.246c.545-.094,1.108-.164,1.676-.205a1.366,1.366,0,0,0,1.032-.68l.651-1.266a.68.68,0,0,1,.615-.334l3.27.34a.363.363,0,0,1,.234.129.334.334,0,0,1,.07.258l-.152,1.237a.944.944,0,0,0,.651.985,13.877,13.877,0,0,1,1.342.5,2.016,2.016,0,0,0,1.243.076l2.544-.8a.961.961,0,0,1,.785.158l1.67,1.389c.059.047.088.1.082.135a.206.206,0,0,1-.111.117l-2.1,1.055a.791.791,0,0,0-.346,1.073,3.453,3.453,0,0,1,.205.533,1.207,1.207,0,0,0,.873.826l2.843.486a.275.275,0,0,1,.2.123.293.293,0,0,1,0,.234l-.451,1.448a.586.586,0,0,1-.533.369l-2.989-.123a1.711,1.711,0,0,0-1.137.481,7.117,7.117,0,0,1-.692.621.768.768,0,0,0-.3.545.727.727,0,0,0,.205.557l1.172,1.26c.053.059.082.117.07.158a.2.2,0,0,1-.129.117l-2.614,1.043a1.014,1.014,0,0,1-.815-.082l-1.758-1.172a1.846,1.846,0,0,0-1.225-.246c-.539.094-1.1.164-1.67.205a1.377,1.377,0,0,0-1.031.674l-.651,1.272a.668.668,0,0,1-.586.334l-3.27-.34a.363.363,0,0,1-.234-.129.334.334,0,0,1-.07-.258l.147-1.242a.944.944,0,0,0-.645-.985,12.483,12.483,0,0,1-1.342-.492,2.016,2.016,0,0,0-1.243-.076l-2.544.8a.973.973,0,0,1-.791-.158l-1.664-1.389a.2.2,0,0,1-.088-.141.182.182,0,0,1,.117-.111l2.1-1.055a.739.739,0,0,0,.322-.3.826.826,0,0,0,0-.768,4.507,4.507,0,0,1-.2-.533,1.2,1.2,0,0,0-.873-.826l-2.848-.486a.264.264,0,0,1-.217-.357Z" transform="translate(-140.213 -364.608)" fill="#fff"/>
            </g>
          </g>
        </g>
      </g>
      <path id="Path_27240" data-name="Path 27240" d="M0,0H484" transform="translate(-3435.5 -4721.35)" fill="none" stroke="#d71920" stroke-width="1"/>
    </g>
    <path id="Path_27238" data-name="Path 27238" d="M395.65,145.1c-2.31.25-4.63-.85-7.77-1.33s-5.27-.34-6.58-1.1-1.63,1.85,0,2.92,3.94,1.18,3.53,1.92c-.63,1.09-3.27.94-4.26,1-3.06,0-6.54-1.08-9.45.22a1.32,1.32,0,0,0-.74.63,1.09,1.09,0,0,0,.5,1.2,6.6,6.6,0,0,0,1.29.53,1.55,1.55,0,0,1,1,.9c.12.41,0,.87.1,1.27a1.42,1.42,0,0,0,.51.63,5.13,5.13,0,0,0,1.29.77,4.29,4.29,0,0,1,2.69,2c2.15,2.26,5.75,2.32,8.64,2.21,6.17-.24,8.64-2.07,12.17-2.75s18.71-3.14,26.27-5.32c7.92-2.29,6.19-3.89,7.46-12s2.25-24.71,2.84-31.19c.67-7.43-.85-13-9.43-14.63-4.46,1.4-7.78,10.35-6.21,22.76l-2,21.79S398,144.85,395.65,145.1Z" transform="translate(-3497.179 -5132.897)" fill="#ffbda7"/>
    <path id="Path_27239" data-name="Path 27239" d="M400.348,143.047c-2.31.25.281,12.874,3.811,12.194s13.122-2.261,20.682-4.441c7.92-2.29,6.19-3.89,7.46-12s2.25-24.71,2.84-31.19c.67-7.43-.85-13-9.43-14.63-4.46,1.4-7.78,10.35-6.21,22.76l-2,21.79S402.7,142.8,400.348,143.047Z" transform="translate(-3497.179 -5132.897)" fill="#e35e63"/>
  </g>
</svg>
