<svg xmlns="http://www.w3.org/2000/svg" xmlns:xlink="http://www.w3.org/1999/xlink" width="142" height="142" viewBox="0 0 142 142">
  <defs>
    <clipPath id="clip-path">
      <rect id="Rectangle_677" data-name="Rectangle 677" width="142" height="142" transform="translate(-5129 -2953)" fill="#fff"/>
    </clipPath>
  </defs>
  <g id="akhshan" transform="translate(5129 2953)" clip-path="url(#clip-path)">
    <g id="Group_4388" data-name="Group 4388">
      <g id="akhshan-2" data-name="akhshan" transform="translate(893.576 77.479)">
        <path id="Path_26957" data-name="Path 26957" d="M-6002.584-2998.314h-31.829l16-16.164,35.161,35.995-10.164,10.665h-7.5l-.671-29.551" transform="translate(67.639 -6)" fill="#c48b3a"/>
        <path id="Path_26958" data-name="Path 26958" d="M-6026.183-2970.075h33.588l-16.724,17.145-36.257-36.82,11.665-11.243h6.885l-.066,29.755" transform="translate(58 5.644)" fill="#c48b3a"/>
        <path id="Path_26959" data-name="Path 26959" d="M-6036.008-3000.992h25.337v10.146h-15.716v9.619h26.455" transform="translate(66.81 6.586)" fill="none" stroke="#c48b3a" stroke-width="1"/>
      </g>
      <path id="Path_26969" data-name="Path 26969" d="M-54.913-8.566q.375,3.352.6,5.607t.223,3.592a3.094,3.094,0,0,1-1.529,2.643A10.611,10.611,0,0,1-59.1,4.787a13.937,13.937,0,0,1-3.141.475,5.8,5.8,0,0,1-4.178-1.307A5.447,5.447,0,0,1-67.757-.105q0-.68.07-1.676t.293-2.988h2.133a35.53,35.53,0,0,0-.363,4.184,2.71,2.71,0,0,0,.932,2.262,4.789,4.789,0,0,0,2.971.738,12.053,12.053,0,0,0,2.7-.334,15.06,15.06,0,0,0,2.842-.967l-1.359-9.551,2.543-.8Zm-7.09-4.1,2.156,2.168L-62-8.344-64.159-10.5ZM-46.282.352a5.627,5.627,0,0,1-3.949-1.2,5.061,5.061,0,0,1-1.348-3.744l-.258-10.758,2.684-.4v12.5a4.148,4.148,0,0,0,2.871.855h1.055V.352Zm14.091-13.934-1.992-2,1.992-2,2,2Zm-1.969,3.457-1.992-2,1.992-2,1.969,1.969,1.922-1.922,2,2-2,2-1.969-1.969Zm13.266,7.734V.352h-1.031A7.024,7.024,0,0,1-23.777.1a7.189,7.189,0,0,1-1.652-.662,4.579,4.579,0,0,1-1.453.75,5.673,5.673,0,0,1-1.711.258A6.236,6.236,0,0,1-30.533.135a5.833,5.833,0,0,1-1.752-.92A5.871,5.871,0,0,1-34.1.094a7.6,7.6,0,0,1-2.227.328A9.673,9.673,0,0,1-38.66.141a6.626,6.626,0,0,1-1.969-.809,5.848,5.848,0,0,1-2,.75,13.894,13.894,0,0,1-2.859.27h-1.066V-2.391l4.887-.012V-8.824h2.32l.059,6.258a8.414,8.414,0,0,0,1.389.252,15.9,15.9,0,0,0,1.705.088q.82,0,1.576-.07a9.019,9.019,0,0,0,1.283-.2V-8.824h2.32L-30.96-2.5a6.3,6.3,0,0,0,1.125.2,14.375,14.375,0,0,0,1.453.07,11.185,11.185,0,0,0,1.5-.082l-.281-6.516,2.648-.41V-2.4Zm1.341,0a8.192,8.192,0,0,0,2.918-.469,7.729,7.729,0,0,0,2.156-1.225q.926-.756,2.379-2.209l.527-.527-1.137-.387q-1.793-.621-2.631-.867A5.085,5.085,0,0,0-16.7-8.32a1.488,1.488,0,0,0-.908.375A15.621,15.621,0,0,0-18.99-6.633l-.937-2.309A15.868,15.868,0,0,1-18.591-10.2a4,4,0,0,1,1.031-.633,2.779,2.779,0,0,1,1.02-.187,3.934,3.934,0,0,1,.814.088,10.679,10.679,0,0,1,1.154.34q.738.252,2.355.85,1.559.574,2.186.762a6.79,6.79,0,0,0,1.26.252q.633.064,2.227.111l-.4,2.859L-9.72-5.93a42.776,42.776,0,0,1-3.756,4,8.854,8.854,0,0,1-2.83,1.793,9.981,9.981,0,0,1-3.352.492H-22.2V-2.391Zm4.031-14.824,2.156,2.168-2.156,2.156-2.156-2.156ZM-1.066,0h-2.18l-.562-15.422,2.719-.34Z" transform="translate(-5022 -2833)" fill="#c48b3a"/>
    </g>
  </g>
</svg>
