<svg id="amirHosein" xmlns="http://www.w3.org/2000/svg" width="200" height="220" viewBox="0 0 200 220">
  <g id="svga-group-backs-single">
    <path id="SvgjsPath11277" d="M0,0H200V220H0Z" fill="#80b0db"/>
  </g>
  <g id="svga-group-humanwrap-move" transform="translate(10.573 8.059)">
    <g id="svga-group-humanwrap">
      <g id="svga-group-humanbody-back" transform="translate(5.127 83.941)">
        <path id="SvgjsPath11230" d="M180.8,184.9c-2.3-3.4-38.9-17.8-38.9-17.8l-13.4-5.2-5.6-68.8H76.8L71.3,162l-13.4,5.2S21.4,181.6,19,185c-2.3,3.4-3.3,14.9-3.3,14.9V219H184.2V199.8c-.1.1-1-11.5-3.4-14.9Z" transform="translate(-15.7 -93.1)" fill="#f0c7b1"/>
      </g>
      <g id="svga-group-chinshadow-single" transform="translate(61.927 84.391)">
        <path id="SvgjsPath11226" d="M73.4,148.4c11.3,14.1,20.9,13.8,20.9,13.8s9.6.3,20.9-13.9A97.15,97.15,0,0,0,126,131.2l-3.1-38.1H76.8l-4.3,54.2a10.627,10.627,0,0,1,.9,1.1Z" transform="translate(-72.5 -93.1)" fill="#d19271"/>
      </g>
      <g id="svga-group-humanbody-front" transform="translate(4.227 83.041)">
        <path id="SvgjsPath11231" d="M184.5,219c-.1-6.4-.1-12.8-.1-19.2l-.3-.1a.138.138,0,0,1,.2,0,.1.1,0,0,1,.1.1v-.4l-.1-.5-.1-.9-.2-1.9c-.2-1.3-.4-2.5-.6-3.8a26.155,26.155,0,0,0-.9-3.8,16.135,16.135,0,0,0-1.5-3.6,11.929,11.929,0,0,0-2.9-2.1c-1-.6-2.1-1.1-3.2-1.7-2.1-1.1-4.3-2.1-6.5-3.1-4.4-2-8.7-3.9-13.1-5.7-4.4-1.9-8.8-3.7-13.2-5.5l-13-5.2-1.2-16.9c-.4-5.7-.9-11.5-1.3-17.2l-1.3-17.2L123.8,93l-.1-.8h-.8c-7.7,0-15.4.1-23.1.1l-23.1.2h-.5V93L75,110.2l-1.3,17.2c-.8,11.4-1.8,22.8-2.8,34.2-5.6,2.1-11.2,4.2-16.7,6.4q-8.4,3.3-16.8,6.9c-2.8,1.2-5.6,2.4-8.3,3.6a89.553,89.553,0,0,0-8.2,4.1,12.141,12.141,0,0,0-2,1.4,1.47,1.47,0,0,0-.5.6l-.3.6a5.359,5.359,0,0,0-.5,1.1,25.424,25.424,0,0,0-1.3,4.5,90.7,90.7,0,0,0-1.4,9.1L14.8,219v.9h.9l42.1.1H100c14,0,28.1-.1,42.1-.2l42.1-.5h.3V219ZM100,218l-42.1-.1-41.2.1-.1-18.1c.3-3,.6-5.9,1.2-8.9a28.755,28.755,0,0,1,1.1-4.2,7.93,7.93,0,0,1,.4-.9l.2-.4.3-.3a14.036,14.036,0,0,1,1.8-1.2c2.5-1.5,5.3-2.8,8-4.1s5.5-2.5,8.2-3.7c5.5-2.4,11.1-4.8,16.7-7.1s11.2-4.5,16.9-6.7l.2-.1v-.2c.9-11.5,1.7-23,2.7-34.4l1.4-17.2,1.5-16.7,22.6.2c7.4.1,14.8.1,22.3.1l1.3,16.4,1.5,17.2c.5,5.7,1,11.5,1.5,17.2l1.6,17.2v.3l.3.1,13.4,5c4.4,1.7,8.9,3.4,13.3,5.2s8.8,3.7,13.2,5.6c2.2,1,4.3,2,6.5,3,1.1.5,2.1,1.1,3.2,1.6a14.92,14.92,0,0,1,2.9,2,11.669,11.669,0,0,1,1.4,3.5c.3,1.2.6,2.5.8,3.7.2,1.3.4,2.5.6,3.8l.2,1.9.1.9.1.5v.4c0,6.3,0,12.6-.1,18.9l-41.8-.5c-14,.1-28.1,0-42.1,0Z" transform="translate(-14.8 -92.2)" fill="#c27b55"/>
        <path id="SvgjsPath11232" d="M125.1,142.4s-1.8,23-9.1,32.9C116,175.3,123.9,150.3,125.1,142.4Zm-34.5,16s5,7.9,11.5,10.1C102.1,168.5,92.6,170.7,90.6,158.4ZM73.4,140c6.7,25.6,6.7,25.6,8.5,30.7C81.9,170.7,82.3,158.1,73.4,140Z" transform="translate(-14.8 -92.2)" fill="#d19271"/>
      </g>
      <g id="svga-group-clothes-single" transform="translate(0 126.841)">
        <path id="SvgjsPath11118" d="M67.8,137.1c-1.1-1.6-5.2,6-4.4,9.6.8,3.7-.8,3.1-.6,6.8s-2.5,3.9-2.7,5.4a27.8,27.8,0,0,0,.2,4.8s-11.8,2.1-16.4,4.4S26.4,175,24.2,176s-5.6,2.5-5.8,3.5-1.7-1.4-3.5,2.9-4.4,11.4-3.8,14.3-.4,9.8-.2,11.9,0,11.4,0,11.4H188.4s-1.2-10.6-.6-14.2,0-13.1-.4-15.2-1.5-7.3-3.1-8.1c0,0,0-3.5-5-6s-15-5-19.7-6.8-15.6-6.4-17-6.9-3.1-1.2-3.1-1.2l-1.9-.2s1.7-6.9,0-8.7-1.7-5.2-2.5-6,2.9-6.2-2.5-8.9c0,0,1.4,2.5-10.2,6.8s-31.2,3.3-41.2,1-12.6-7.3-13.4-8.5Z" transform="translate(-10.573 -136)" fill="#eef9ff"/>
        <path id="SvgjsPath11119" d="M132,138.2ZM55,168.5c-2.4.7-4.9,1.4-7.3,2.1a51.98,51.98,0,0,0-7.2,2.6l-.5.3-.3.3-.7.6-1.5,1.1-3,2.3c1.1-.6,2.2-1.2,3.3-1.9.5-.3,1.1-.7,1.6-1l.8-.6.4-.3.3-.2a35.94,35.94,0,0,1,3.5-1.2l3.6-1.1c2.4-.7,4.8-1.5,7.2-2.3,1.2-.4,2.4-.9,3.6-1.4a9.83,9.83,0,0,0,3.3-1.9,15.063,15.063,0,0,1-3.5,1.4c-1.2.5-2.4.8-3.6,1.2Zm134.4,51.4c-.3-3.1-.6-6.3-.7-9.5a34.542,34.542,0,0,1,.1-4.6c.2-1.7.2-3.3.3-4.9a79.817,79.817,0,0,0-.5-9.7,42.578,42.578,0,0,0-1-4.9,22.5,22.5,0,0,0-.8-2.4l-.6-1.2a5.5,5.5,0,0,0-.7-.9c0-.2-.1-.3-.1-.5l-.3-.9a5.071,5.071,0,0,0-.9-1.6,9.446,9.446,0,0,0-2.5-2.4,29.586,29.586,0,0,0-6-2.8c-4-1.4-8.1-2.6-12.1-3.9-2-.6-3.9-1.3-5.9-2.1l-5.9-2.4L146,163l-2.9-1.2c-1-.4-2-.8-3-1.1h-.2l-.8-.1a20.147,20.147,0,0,0,.5-5.5,5.84,5.84,0,0,0-.4-1.8,2.664,2.664,0,0,0-.6-1l-.2-.3c-.1-.1-.1-.2-.2-.2a8.856,8.856,0,0,1-1.1-2.6c-.1-.5-.3-1-.4-1.6a3.552,3.552,0,0,0-.4-.9c0-.1-.1-.1-.1-.2a13.12,13.12,0,0,1,.3-1.5c.1-.5.2-1.1.3-1.7a6.481,6.481,0,0,0-.7-3.6,6.828,6.828,0,0,0-2.7-2.4,15.762,15.762,0,0,0-3.1-.9c-1.8-.3-2.8-.4-2.8-.4s.3,4.5.4,5.8a13.017,13.017,0,0,1-1.7.8,50.053,50.053,0,0,1-8.2,2.9,78.778,78.778,0,0,1-17.5,1.8,94.368,94.368,0,0,1-17.6-1.5,30.112,30.112,0,0,1-8.3-2.8l-1.5-.9a1.268,1.268,0,0,1-.1-.6c0-.5.4-5.2.4-5.4a33.4,33.4,0,0,0-5.8.8c-.1,0-.2.1-.3.1a4.348,4.348,0,0,0-.7.6c-.4.5-.7,1-1.1,1.6a20.653,20.653,0,0,0-1.5,3.4,9.226,9.226,0,0,0-.5,3.7,7.321,7.321,0,0,1,.1,3.6,8.651,8.651,0,0,0-.6,3.7,4.061,4.061,0,0,1-1.1,3.3,15.932,15.932,0,0,0-1.3,1.3,1.929,1.929,0,0,0-.3,1v.9c0,1.2.1,2.3.2,3.5-3.6.6-7.1,1.4-10.6,2.3a33.084,33.084,0,0,0-5.3,1.8,53.194,53.194,0,0,1-5,2.1c-3.4,1.3-6.9,2.6-10.3,3.9a55.459,55.459,0,0,0-5.2,2c-.8.4-1.7.7-2.5,1.2a11.045,11.045,0,0,0-2.5,1.5,4.349,4.349,0,0,0-.6.7h-.4a3.553,3.553,0,0,0-1,.2,3.8,3.8,0,0,0-1.3,1.2,8.264,8.264,0,0,0-.7,1.3c-.7,1.7-1.4,3.4-2.1,5.2-.6,1.8-1.2,3.5-1.7,5.4a25,25,0,0,0-.5,2.9,8.533,8.533,0,0,0,0,1.6l.1.6v.6a49.106,49.106,0,0,1-.1,5.4,51.478,51.478,0,0,0-.2,5.6c.1,3.6,0,7.3,0,11v.9h.9l44.4-.4c14.8-.1,29.6-.2,44.4-.1,14.8,0,29.6.2,44.4.3l44.4.3h1l-.7-1.2ZM137,153.3l.1.1c.1.1.1.2.2.4a5.066,5.066,0,0,1,.2,1.3,20.645,20.645,0,0,1-.8,6l-.3,1.1h.2c-.9.8-1.7,1.5-2.6,2.2a9.362,9.362,0,0,0,.4-1.6,9.637,9.637,0,0,0,0-2.4,10.548,10.548,0,0,0-.6-2.4,19.99,19.99,0,0,0-1-2.1v-.2c1.5-.8,2.8-1.6,4.2-2.4Zm-10.2,9.5-.1-.2c-.4-.9-.9-1.8-1.4-2.7q3.3-1.65,6.6-3.6l.1.1a12.812,12.812,0,0,1,1.1,2,8.083,8.083,0,0,1,.7,2.2,9.079,9.079,0,0,1,.3,2.3,10.868,10.868,0,0,1-.1,1.8,44.647,44.647,0,0,1-4.3,3.3,35.293,35.293,0,0,1-3.2,2.1c0-.1.1-.3.1-.4.1-1.1.1-2.3.1-3.4a20.765,20.765,0,0,0,.1-3.5Zm-4.3.6a4.171,4.171,0,0,0-.9-1.6l2.7-1.2a.367.367,0,0,1,.3-.1c.5.9.9,1.7,1.4,2.6.1,1.1.2,2.2.2,3.3.1,1.1.1,2.3.2,3.4v.6a5.94,5.94,0,0,0-.8.4,15.545,15.545,0,0,1-2.3.8c-.3.1-.6.1-.9.2.2-1.7.3-3.4.4-5-.2-1.2-.1-2.3-.3-3.4Zm-9.3,4.8a11.224,11.224,0,0,1-.8-2.6c-.1-.4-.1-.7-.2-1.1l.9-.1a10.622,10.622,0,0,0,1.9-.4l1-.2,1-.3c1.2-.4,2.5-.9,3.7-1.4a2.9,2.9,0,0,1,.9,1.5,25.344,25.344,0,0,1,.3,3l.2,5.1a6.752,6.752,0,0,1-1.4.2c-2.4.4-4.8.7-7.2,1,0-.1.1-.3.1-.4a6.6,6.6,0,0,0,.1-1.4,7.4,7.4,0,0,0-.5-2.9Zm-19.9,3.9a12.09,12.09,0,0,0,.5,1.8,2.186,2.186,0,0,0,.3.5c-1.4,0-2.7-.1-4-.2a5.02,5.02,0,0,1-1.2-.2l-.6-.1-.6-.2-2.4-.9h-.1c-.1-.7-.1-1.3-.2-2a9.652,9.652,0,0,1,0-1.7,9.362,9.362,0,0,1,.4-1.6,4.711,4.711,0,0,0,.4-1.7H86c.6.1,1.2.3,1.9.4a2.92,2.92,0,0,0,.9.2,3.6,3.6,0,0,0,1.1.2,21.749,21.749,0,0,0,2.5.1,9.853,9.853,0,0,1,.2,1.7v.1c.2,1.2.4,2.4.7,3.6Zm.8,1.7a11.272,11.272,0,0,1-.3-1.8c-.1-1.2-.3-2.4-.4-3.7,0-.6-.1-1.1-.1-1.7h.6a136,136,0,0,0,15.5-1.7l2.1-.3c.1.4.1.8.2,1.1a8.8,8.8,0,0,0,1,2.7,7.13,7.13,0,0,1,.7,2.6,11.483,11.483,0,0,1,.1,1.9c-1,.1-1.9.3-2.9.4-3.4.4-6.8.8-10.2.9-2,.1-3.9.2-5.9.2a.548.548,0,0,1-.4-.6ZM136,146.2h0C135.9,146.1,135.9,146.2,136,146.2Zm-2.8-6.8a.1.1,0,0,1,.1-.1,2.545,2.545,0,0,1,1.1,1.2,4.515,4.515,0,0,1,.5,2.6c-.1.5-.1,1-.2,1.5s-.3,1-.4,1.7a2.814,2.814,0,0,0,.1.8c0,.1.1.2.1.3l.2.2c.1.1.1.3.2.5a8.332,8.332,0,0,0,.4,1.5,11.327,11.327,0,0,0,1.3,3.3c.1.1.2.3.3.4-1.3.6-2.6,1.2-4,1.8a13.733,13.733,0,0,0-.5-2.8c-.2-.7-.6-1.2-.7-1.8a2.544,2.544,0,0,1,.1-1.7,12.31,12.31,0,0,0,.2-2,4.552,4.552,0,0,0-.5-2,6.191,6.191,0,0,0-1.1-1.7,6.47,6.47,0,0,0-.9-.8c.3-.2.7-.4,1-.6a11.545,11.545,0,0,0,1.9-1.4,2.361,2.361,0,0,0,.8-.9Zm-6.7,4.4a25.907,25.907,0,0,0,2.9-1.4,5.648,5.648,0,0,1,1.6,2.5,3.722,3.722,0,0,1,.2,1.8,11.27,11.27,0,0,1-.3,1.8c-.1.3-.1.6-.2,1a1.986,1.986,0,0,0,.1,1.1,17.076,17.076,0,0,0,.7,1.8,9.291,9.291,0,0,1,.5,2.9c-2.2,1-4.5,2.1-6.8,3v-1.4a8.393,8.393,0,0,0-.7-2.6l-.6-1.2-.3-.6c-.1-.2-.2-.3-.3-.5a1.645,1.645,0,0,1-.2-.9.9.9,0,0,1,.6-.6l.3-.1v-.2a25.349,25.349,0,0,0-.4-2.9,8.264,8.264,0,0,0-.8-2.2,23.151,23.151,0,0,0,3.7-1.3Zm-3.8,1.4a8.506,8.506,0,0,1,.4,2.2,23.484,23.484,0,0,1,.1,2.6,1.591,1.591,0,0,0-.9.9,1.891,1.891,0,0,0,.1,1.5l.3.6c.1.2.2.3.3.5.2.4.3.7.5,1.1a11.2,11.2,0,0,1,.6,2.3v1.7a1.421,1.421,0,0,1-.6.2l-3,1.2a17.329,17.329,0,0,0-.3-3.2,5.332,5.332,0,0,0-.7-2c-.1-.2-.2-.3-.3-.5a.52.52,0,0,1-.2-.4,6.891,6.891,0,0,1-.3-.8,3.722,3.722,0,0,1,.2-1.8,6.465,6.465,0,0,0,.4-2,6.071,6.071,0,0,0-1.3-3.2,12.292,12.292,0,0,0,4.7-.9Zm-4.8,1.4h0a5.2,5.2,0,0,1,1,3.1c0,1.2-1.1,2.3-.9,3.9a2.016,2.016,0,0,0,.3,1.1c.1.2.2.3.3.5a.52.52,0,0,1,.2.4,7.756,7.756,0,0,1,.5,1.8,18.7,18.7,0,0,1,.3,3.4c-1.1.4-2.1.7-3.2,1a22.09,22.09,0,0,1-3.7.8l-.4.1a9.8,9.8,0,0,0-1.4-5.3c-.3-.5-.6-.7-.7-1.1a1.448,1.448,0,0,1,.1-1.1,5.079,5.079,0,0,1,1.6-2l.1-.1V153a27.15,27.15,0,0,0-.1-2.9,10.266,10.266,0,0,0-.5-2.4c2.3-.4,4.4-.7,6.5-1.1Zm-54.5-.4a10.6,10.6,0,0,1,.5-3.5,20.25,20.25,0,0,1,1.4-3.4,7.837,7.837,0,0,1,1-1.5,4.35,4.35,0,0,1,.7-.6.428.428,0,0,1,.7.1,15.7,15.7,0,0,0,6.5,6,30.98,30.98,0,0,0,8.4,2.9,84.761,84.761,0,0,0,8.8,1.3c2.9.3,5.9.5,8.9.6a85.38,85.38,0,0,0,11.3-.4,2.769,2.769,0,0,1,.1.9,6.533,6.533,0,0,1,0,1.4,24.519,24.519,0,0,1-.2,2.7,4.837,4.837,0,0,0-1.9,2.1,2.459,2.459,0,0,0-.1,1.7,2.994,2.994,0,0,0,.4.8,6.124,6.124,0,0,1,.4.6,9.336,9.336,0,0,1,1,2.5,9.863,9.863,0,0,1,.3,2.4l-2.6.2c-2.5.4-5.1.8-7.6,1.1-2.6.4-5.1.7-7.6,1-.3,0-.6.1-.9.1a1.483,1.483,0,0,1-.1-.7,19.474,19.474,0,0,1,1-3.8v-.2c0-2.1.1-4.3,0-6.5l.1-3.2a31.624,31.624,0,0,1,.3-3.2,16.539,16.539,0,0,0-.7,3.2c-.2,1.1-.3,2.1-.4,3.2-.2,2.1-.2,4.3-.3,6.4-.2.6-.5,1.2-.7,1.9a15.525,15.525,0,0,0-.4,2.1,2.2,2.2,0,0,0,.1.8c-.7,0-1.3.1-1.9.1a2.2,2.2,0,0,1-.8-.1c-.3-.1-.7-.1-1-.2-.7-.1-1.3-.2-1.9-.3h-.3c0-.3-.1-.6-.1-.9a12.223,12.223,0,0,1-.2-3.3,5.818,5.818,0,0,1,.5-1.6,11.627,11.627,0,0,0,.4-1.8,21.145,21.145,0,0,0,.2-3.5,19.979,19.979,0,0,0-.2-3.5,6.609,6.609,0,0,1,.3-3.4,6.574,6.574,0,0,0-.8,3.4c0,1.2,0,2.3-.1,3.4-.1,1.2-.1,2.3-.3,3.4a9.362,9.362,0,0,1-.4,1.6,8.447,8.447,0,0,0-.5,1.7,10.775,10.775,0,0,0,.2,3.6c0,.2.1.4.1.6-2.2-.2-4.3-.4-6.5-.5,2.2.5,4.4.9,6.6,1.4v.1a11.044,11.044,0,0,1-.3,1.6,9.908,9.908,0,0,0-.2,1.8c0,.6.1,1.2.1,1.8a11.627,11.627,0,0,0,.4,1.8l-4.5-1.6c-1.7-.6-3.4-1.2-5.2-1.8a5.019,5.019,0,0,1,.2-1.2c.1-.3.2-.7.3-1a1.978,1.978,0,0,0,.2-1.1,6.477,6.477,0,0,0-.5-2.1,6.8,6.8,0,0,1-.2-2,10.944,10.944,0,0,1,1.4-3.8,9.487,9.487,0,0,0,1.2-3.7c.6.1,1.2.3,1.7.4a15.563,15.563,0,0,0,5.7.4,13.733,13.733,0,0,1-2.8-.5c-.9-.2-1.8-.5-2.7-.7-.7-.2-1.3-.4-2-.6a10.622,10.622,0,0,1-.4-1.9,4.956,4.956,0,0,1,0-2.1c.2-.7.3-1.4.5-2.1a5.155,5.155,0,0,1,.9-2,4.738,4.738,0,0,0-1.2,1.9,18.028,18.028,0,0,0-.8,2.1,9.345,9.345,0,0,0-.2,2.3,7.719,7.719,0,0,0,.2,1.5c-.8-.2-1.6-.5-2.5-.7-1.4-.4-2.9-.9-4.4-1.3v-1.2a14.769,14.769,0,0,0-.1-2.1,4.333,4.333,0,0,1,.4-1.9,21.675,21.675,0,0,1,1.6-3.8,10.382,10.382,0,0,0-1.2,1.7,11.085,11.085,0,0,0-.9,1.9,10.376,10.376,0,0,0-.4,1c-.1.2-.1.3-.2.5,0,.1-.1.2-.1.3v.3c0,.7-.1,1.4-.1,2.1v.9a14.621,14.621,0,0,0-2-.5,12.213,12.213,0,0,1-.1-2.7,26.353,26.353,0,0,1,.2-2.8,26.808,26.808,0,0,1,.7-2.7,8.532,8.532,0,0,1,1.3-2.5,12.418,12.418,0,0,0-1.7,2.3,14.764,14.764,0,0,0-1,2.7,13.524,13.524,0,0,0-.4,2.9,19.219,19.219,0,0,0,0,2.4c-.8-.2-1.7-.4-2.6-.6a4.465,4.465,0,0,0,0-2.8Zm11.8,22.9c-1.9-.7-3.9-1.4-5.8-2a17.6,17.6,0,0,1,.2-4c.2-.7.4-1.6.6-2.4a10.445,10.445,0,0,0,0-2.5V152c1.3.5,2.7.9,4.1,1.3.9.3,1.9.5,2.8.8a8.944,8.944,0,0,1-1.1,3.5,9.96,9.96,0,0,0-1.4,4.2,5.114,5.114,0,0,0,.3,2.2,8.929,8.929,0,0,1,.6,2,2.769,2.769,0,0,1-.1.9,4.1,4.1,0,0,0-.1,1.1,1.417,1.417,0,0,0-.1,1.1Zm-6.3-3.7c.1.6.2,1.1.3,1.6-1.4-.5-2.8-.9-4.1-1.4-.1-1.2-.2-2.4-.2-3.6a4.776,4.776,0,0,1,.4-1.8,5.382,5.382,0,0,0,1-2,8.223,8.223,0,0,0-.1-4.4c-.1-.4-.2-.7-.3-1V152a2.56,2.56,0,0,1,1-1.3,14.272,14.272,0,0,0,2.2.8v6.6a16.95,16.95,0,0,1,.1,2.3,22.447,22.447,0,0,1-.3,2.4,11.267,11.267,0,0,0,0,2.6ZM19.2,179.7Zm-7.4,39.5c.1-3.4.2-6.8.1-10.3a49.645,49.645,0,0,1,.2-5.4,51.478,51.478,0,0,0,.2-5.6l-.1-.7-.1-.7a2.428,2.428,0,0,1,0-1.2c.1-.8.2-1.7.4-2.6a51.648,51.648,0,0,1,1.6-5.2c.6-1.7,1.3-3.4,1.9-5.1a3.25,3.25,0,0,1,1.3-1.8.367.367,0,0,1,.3-.1,2.142,2.142,0,0,1,.6.1,1.087,1.087,0,0,0,.5-.1.215.215,0,0,0,.2-.2c1.5,3,3,5.9,4.5,8.8.8,1.6,1.6,3.1,2.3,4.7.3.8.7,1.6.9,2.3.2.8.3,1.7.5,2.5.3,1.7.5,3.5.7,5.2l.7,5.3c.4,3.4.9,6.7,1.5,10.1H11.8Zm132.3.2c-14.8.1-29.6.3-44.4.3-14.8.1-29.6,0-44.4-.1L30,219.4c.1-3.4.1-6.8-.1-10.2-.2-3.6-.5-7.1-1-10.7a25.578,25.578,0,0,0-.5-2.7,15.67,15.67,0,0,0-1-2.6,43.911,43.911,0,0,0-2.7-4.7,90.791,90.791,0,0,0-5.7-8.1c.1-.1.1-.1.1-.2a.349.349,0,0,1,.1-.2v-.1q0-.15.3-.3a11.609,11.609,0,0,1,2.2-1.3c.8-.4,1.6-.8,2.5-1.2,1.6-.8,3.4-1.4,5.1-2.1,3.4-1.4,6.9-2.7,10.2-4.1,1.7-.7,3.4-1.5,5-2.3a30.9,30.9,0,0,1,5.1-1.8c3.5-1,7.1-1.8,10.7-2.6l.2-.1v-.2a22.177,22.177,0,0,1-.3-3.7v-.9a2.353,2.353,0,0,1,.2-.8,7.967,7.967,0,0,1,1.3-1.3,4.665,4.665,0,0,0,1.2-3.6,10.869,10.869,0,0,1,.1-1.8,16.689,16.689,0,0,1,.5-1.8c.1-.2.1-.4.2-.6a22.879,22.879,0,0,0,2.3,1,3.956,3.956,0,0,0-1,1.5,4.869,4.869,0,0,0-.1,1.2c.1.4.2.7.3,1.1a7.4,7.4,0,0,1,.2,3.9,5.626,5.626,0,0,1-.7,1.8,3.329,3.329,0,0,0-.3.6,1.268,1.268,0,0,0-.1.6v1.1a19.677,19.677,0,0,0,.6,3.5c-1.3-.4-2.7-.9-4.1-1.3l4.2,1.8v0c4.9,2.2,9.9,4.3,14.9,6.3l4.8,1.9,2.4,1,.6.2.7.2a7.006,7.006,0,0,0,1.4.3,53.806,53.806,0,0,0,10.6.2,159.31,159.31,0,0,0,20.6-2.8c.8-.2,1.7-.4,2.6-.6a9.336,9.336,0,0,0,2.5-1c.1,0,.1-.1.2-.1v.3c0-.1.1-.2.1-.4a42.67,42.67,0,0,0,4.1-2.9,79.518,79.518,0,0,0,6.6-6.4l.7.1,1.8.2c.9.3,1.9.7,2.8,1.1l2.9,1.2,5.8,2.4,5.9,2.4c1.9.8,4,1.5,6,2.2,4,1.3,8.1,2.4,12,3.9a30.691,30.691,0,0,1,5.5,2.5,7.277,7.277,0,0,1,2,1.9c.3.4.5.8.7,1.1a1.421,1.421,0,0,1,.2.6,1.087,1.087,0,0,1,.1.5v.4a27.061,27.061,0,0,0-3.7,2.1,23.119,23.119,0,0,0-4,3.7,10.1,10.1,0,0,0-1.4,2.5,25.026,25.026,0,0,0-.9,2.5c-.6,1.7-1,3.4-1.5,5.1-.4,1.7-.8,3.4-1.1,5.2l-.3,2.7a25.282,25.282,0,0,0-.1,2.8c.4,3.3.6,6.5.8,9.9H144.1Zm27.3-.2a54.97,54.97,0,0,0,.7-9.9,46.145,46.145,0,0,1,.7-5c.3-1.7.7-3.4,1.1-5.1s.8-3.4,1.3-5a19.053,19.053,0,0,1,1.8-4.7,23.674,23.674,0,0,1,3.3-3.8,38.76,38.76,0,0,1,3.1-2.6v.2l.5.1a3.609,3.609,0,0,1,.4.5c.2.3.3.6.5.9.3.6.5,1.4.8,2.1a40.828,40.828,0,0,1,1,4.5,74.022,74.022,0,0,1,.5,9.4,33.9,33.9,0,0,1-.2,4.6,27.852,27.852,0,0,0-.1,5c.1,2.9.4,5.8.6,8.6l-16,.2Z" transform="translate(-10.573 -136)" fill="#a5cbe0"/>
      </g>
      <g id="svga-group-head" transform="translate(39.612)">
        <g id="svga-group-ears-left-move" transform="translate(0 62.727)">
          <g id="svga-group-ears-left" transform="translate(0 0)">
            <path id="SvgjsPath11128" d="M65.1,76.342s-10.593-9.31-12.293-9.462c-1.463-.133-5.092,7.61-6.7,12.5a5.573,5.573,0,0,0,.238,3.99c1.539,3.392,4.949,10.488,8.008,14.041a11.814,11.814,0,0,0,3.4.313c.817-.238,7.2-5.386,7.857-7.381s.788-10.735-.513-14Z" transform="translate(-45.735 -66.453)" fill="#f0c7b1"/>
            <path id="SvgjsPath11129" d="M66.015,79.98c.171,1.244.266,2.508.314,3.762s.057,2.518-.01,3.781q-.045.948-.161,1.89a7.264,7.264,0,0,1-.19.969,3.248,3.248,0,0,1-.437.912,15.564,15.564,0,0,1-2.347,2.66c-.836.8-1.691,1.548-2.575,2.28-.446.361-.883.713-1.349,1.055-.228.171-.466.332-.7.494l-.38.228a1.6,1.6,0,0,1-.5.181,6.445,6.445,0,0,1-1.729-.085c-.551-.076-1.093-.181-1.644-.3l-.124-.029-.076-.095a35.491,35.491,0,0,1-3.553-5.368c-1.045-1.881-1.995-3.828-2.907-5.795L46.3,83.562a5.828,5.828,0,0,1-.513-3.287,7.214,7.214,0,0,1,.418-1.587c.171-.513.351-1.017.532-1.52.38-1,.75-2,1.159-2.993a38.843,38.843,0,0,1,2.793-5.719,10.253,10.253,0,0,1,.95-1.292,3.057,3.057,0,0,1,.637-.56.922.922,0,0,1,.494-.152,1.537,1.537,0,0,1,.447.114,15.148,15.148,0,0,1,2.612,1.672c1.634,1.226,3.2,2.527,4.75,3.885,1.558,1.34,3.059,2.717,4.569,4.161a16.832,16.832,0,0,1,.865,3.7ZM55.48,68.884a14.852,14.852,0,0,0-2.46-1.529,2.259,2.259,0,0,0-.247-.076.41.41,0,0,0-.19.066,1.931,1.931,0,0,0-.484.418,8.709,8.709,0,0,0-.893,1.178,45.806,45.806,0,0,0-2.955,5.481c-.437.96-.874,1.919-1.254,2.907-.19.494-.38.988-.561,1.492a7.255,7.255,0,0,0-.428,1.52,5.432,5.432,0,0,0,.522,3.1c.447.979.931,1.948,1.416,2.9.969,1.919,2.014,3.79,3.1,5.614A37.811,37.811,0,0,0,54.616,97.1l-.2-.123a12.041,12.041,0,0,0,3.126.314.708.708,0,0,0,.266-.1l.332-.209.665-.475c.447-.323.883-.674,1.32-1.026.874-.7,1.719-1.444,2.546-2.223a17.441,17.441,0,0,0,2.271-2.479,2.794,2.794,0,0,0,.361-.684,6.96,6.96,0,0,0,.181-.845c.085-.6.161-1.206.2-1.815.1-1.226.133-2.47.143-3.705s-.038-2.489-.143-3.724a16.656,16.656,0,0,0-.627-3.648c-3.163-2.489-6.336-5.082-9.576-7.467Z" transform="translate(-45.735 -66.453)" fill="#e1ac8f"/>
            <path id="SvgjsPath11130" d="M65.351,84.227S55.138,71.326,53.219,72.4s-4.93,7.153-4.921,9.187c.019,2.983,3.173,7.961,4.759,9.462a6.268,6.268,0,0,0,6.032,1.843c2.527-.579,6.26-8.664,6.26-8.664Z" transform="translate(-45.735 -66.453)" fill="#e1ac8f"/>
            <path id="SvgjsPath11131" d="M57.579,84.208c-.427-1.2-.9-2.375-1.377-3.553S55.2,78.328,54.625,77.2a30.1,30.1,0,0,0-1.872-3.277l-.076-.114-.076.114c-.712,1.121-1.377,2.261-2.014,3.439-.313.589-.627,1.188-.912,1.8s-.542,1.244-.8,1.881l-.038.095.038.114c.437,1.34.912,2.65,1.4,3.971.237.656.513,1.3.789,1.948A16.148,16.148,0,0,0,52,89.072l.18.295.238-.219a6.19,6.19,0,0,0,.826-.969,8.128,8.128,0,0,0,.655-1.112,5.616,5.616,0,0,0,.57-2.6v-.057l-.019-.038c-.475-.94-.978-1.862-1.472-2.793l-.047.029c.4.959.789,1.928,1.2,2.878a5.541,5.541,0,0,1-.646,2.29,6.916,6.916,0,0,1-1.178,1.567c-.247-.465-.475-.969-.693-1.482l-.77-1.928c-.5-1.254-.979-2.527-1.444-3.79a36.519,36.519,0,0,1,1.444-3.629,24.2,24.2,0,0,1,1.862-3.334,23.085,23.085,0,0,1,1.6,3.22l1.463,3.486,1.482,3.487c.494,1.159,1,2.327,1.52,3.477l.057-.028c-.389-1.206-.807-2.413-1.244-3.61Z" transform="translate(-45.735 -66.453)" fill="#c27b55"/>
          </g>
        </g>
        <g id="svga-group-ears-right-move" transform="translate(79.014 62.757)">
          <g id="svga-group-ears-right" transform="translate(0)">
            <path id="SvgjsPath11132" d="M124.9,76.342s10.592-9.31,12.293-9.462c1.463-.133,5.092,7.61,6.7,12.5a5.573,5.573,0,0,1-.238,3.99c-1.539,3.392-4.95,10.488-8.009,14.041a11.814,11.814,0,0,1-3.4.313c-.817-.238-7.2-5.386-7.856-7.381s-.789-10.735.513-14Z" transform="translate(-123.648 -66.481)" fill="#f0c7b1"/>
            <path id="SvgjsPath11133" d="M124.868,76.313c1.5-1.444,3.011-2.822,4.569-4.161,1.539-1.349,3.116-2.66,4.75-3.886A14.6,14.6,0,0,1,136.8,66.6a2.046,2.046,0,0,1,.447-.114.98.98,0,0,1,.494.152,2.451,2.451,0,0,1,.636.561,10.252,10.252,0,0,1,.95,1.292A40.31,40.31,0,0,1,142.12,74.2c.408.988.779,1.985,1.159,2.993.18.5.361,1.007.532,1.52a7.785,7.785,0,0,1,.418,1.586,5.828,5.828,0,0,1-.513,3.287l-1.34,2.954c-.922,1.957-1.862,3.9-2.907,5.795a34.565,34.565,0,0,1-3.553,5.368l-.076.1-.124.028c-.551.123-1.092.219-1.643.3a7.359,7.359,0,0,1-1.729.085,1.6,1.6,0,0,1-.5-.181l-.38-.228c-.238-.161-.475-.323-.7-.494-.456-.342-.9-.694-1.349-1.054-.883-.722-1.739-1.482-2.575-2.28a15.932,15.932,0,0,1-2.347-2.66,3.249,3.249,0,0,1-.437-.912,9.659,9.659,0,0,1-.19-.969c-.076-.637-.133-1.264-.161-1.891-.067-1.264-.067-2.518-.009-3.781s.142-2.518.313-3.762a14.346,14.346,0,0,1,.865-3.7Zm.057.057a15.517,15.517,0,0,0-.627,3.648c-.1,1.235-.142,2.479-.142,3.724s.057,2.479.142,3.705c.048.618.114,1.226.2,1.815.057.294.1.589.181.845a2.5,2.5,0,0,0,.361.684,17.969,17.969,0,0,0,2.271,2.479c.817.77,1.672,1.51,2.546,2.223.437.352.874.694,1.32,1.026l.665.475.333.209a.708.708,0,0,0,.266.1,12.041,12.041,0,0,0,3.126-.314l-.2.123a37.813,37.813,0,0,0,3.572-5.149c1.083-1.824,2.128-3.7,3.1-5.615.484-.96.969-1.919,1.415-2.9a5.432,5.432,0,0,0,.523-3.1,7.1,7.1,0,0,0-.428-1.52c-.18-.5-.361-1-.56-1.492-.38-.988-.817-1.957-1.254-2.907a45.084,45.084,0,0,0-2.954-5.481,8.709,8.709,0,0,0-.893-1.178,2.657,2.657,0,0,0-.484-.418.409.409,0,0,0-.19-.067,2.258,2.258,0,0,0-.247.076A14.851,14.851,0,0,0,134.5,68.9C131.281,71.269,128.107,73.862,124.925,76.37Z" transform="translate(-123.648 -66.481)" fill="#e1ac8f"/>
            <path id="SvgjsPath11134" d="M124.65,84.227s10.212-12.9,12.132-11.827,4.931,7.153,4.921,9.187c-.019,2.983-3.173,7.961-4.759,9.462a6.268,6.268,0,0,1-6.033,1.843C128.383,92.312,124.65,84.227,124.65,84.227Z" transform="translate(-123.648 -66.481)" fill="#e1ac8f"/>
            <path id="SvgjsPath11135" d="M141.113,81.044c-.247-.636-.494-1.273-.8-1.881q-.428-.912-.912-1.8c-.636-1.178-1.311-2.318-2.014-3.439l-.076-.114-.076.114a32.787,32.787,0,0,0-1.871,3.277c-.57,1.121-1.083,2.28-1.577,3.458-.465,1.178-.95,2.356-1.377,3.553s-.855,2.4-1.216,3.619l.057.029c.523-1.15,1.017-2.318,1.52-3.477l1.482-3.487,1.463-3.486a23.085,23.085,0,0,1,1.6-3.22,24.768,24.768,0,0,1,1.862,3.335,35.181,35.181,0,0,1,1.444,3.629c-.475,1.273-.941,2.536-1.444,3.79l-.77,1.928c-.218.5-.447,1.017-.693,1.482a6.916,6.916,0,0,1-1.178-1.568,5.4,5.4,0,0,1-.646-2.29c.408-.95.8-1.919,1.2-2.878l-.048-.029c-.494.931-1,1.853-1.473,2.793l-.019.038v.057a5.616,5.616,0,0,0,.57,2.6,7.592,7.592,0,0,0,.656,1.111,6.115,6.115,0,0,0,.826.969l.238.219.18-.295a17.732,17.732,0,0,0,.941-1.91c.275-.646.542-1.292.789-1.948.484-1.311.959-2.631,1.4-3.971l.038-.114-.067-.1Z" transform="translate(-123.648 -66.481)" fill="#c27b55"/>
          </g>
        </g>
        <g id="svga-group-faceshape-wrap" transform="translate(9.831 21.246)">
          <g id="svga-group-faceshape-single">
            <path id="SvgjsPath11212" d="M137.592,54.895c-2.156-10-6.174-16-14.9-20.8-9.114-5-24.7-4.8-24.7-4.8s-15.582-.2-24.7,4.8c-8.624,4.8-12.74,10.8-14.9,20.8-.882,4,0,13.6,0,13.6s1.176,11.9,1.176,15.3-.588,9.6.2,16.4,6.664,23.5,17.738,37.6S98,151.585,98,151.585s9.408.3,20.482-13.8,16.954-30.9,17.738-37.6c.784-6.8.2-13,.2-16.4s1.176-15.3,1.176-15.3c-.1-.1.882-9.6,0-13.6Z" transform="translate(-58.016 -29.296)" fill="#f0c7b1"/>
            <path id="SvgjsPath11213" d="M137.592,54.895c-2.156-10-6.174-16-14.9-20.8-9.114-5-24.7-4.8-24.7-4.8s-15.582-.2-24.7,4.8c-8.624,4.8-12.74,10.8-14.9,20.8-.882,4,0,13.6,0,13.6s1.176,11.9,1.176,15.3-.588,9.6.2,16.4,6.664,23.5,17.738,37.6S98,151.585,98,151.585s9.408.3,20.482-13.8,16.954-30.9,17.738-37.6c.784-6.8.2-13,.2-16.4s1.176-15.3,1.176-15.3c-.1-.1.882-9.6,0-13.6Zm0,10.1c-.1,1.1-.2,2.2-.294,3.4l-.49,4.9c-.2,1.6-.392,3.3-.49,4.9-.2,1.7-.294,3.3-.392,5s0,3.3,0,5c0,3.3-.1,6.6-.392,9.8,0,.4-.1.8-.1,1.2l-.1.6-.1.6a15.808,15.808,0,0,1-.49,2.3c-.392,1.6-.882,3.1-1.372,4.7-1.078,3.1-2.254,6.1-3.626,9.1a90.7,90.7,0,0,1-4.508,8.7,24.009,24.009,0,0,1-1.274,2.1,24.01,24.01,0,0,1-1.274,2.1l-1.372,2-1.372,2c-.49.7-.98,1.3-1.47,2l-.686,1-.392.5-.392.5-1.568,1.9c-.49.6-1.078,1.2-1.666,1.8a42.2,42.2,0,0,1-7.252,6.1,22.885,22.885,0,0,1-4.116,2.1,18.025,18.025,0,0,1-2.156.7,16.32,16.32,0,0,1-2.156.4,15.82,15.82,0,0,1-2.058-.2c-.686-.2-1.47-.4-2.156-.6a23.227,23.227,0,0,1-4.214-2,39,39,0,0,1-7.448-5.9,62.864,62.864,0,0,1-6.174-7.4c-1.96-2.6-3.724-5.4-5.39-8.1a91.455,91.455,0,0,1-4.606-8.7c-1.372-3-2.646-6-3.724-9.1-.294-.8-.49-1.6-.784-2.3l-.392-1.2-.294-1.2-.294-1.2a5.112,5.112,0,0,1-.2-1.2c-.1-.4-.1-.8-.2-1.2l-.1-1.2a83.508,83.508,0,0,1-.294-9.9c0-1.7.1-3.3.1-5a42.765,42.765,0,0,0-.294-5c-.2-3.3-.49-6.6-.784-9.9a83.509,83.509,0,0,1-.294-9.9,19.8,19.8,0,0,1,.2-2.4,9.648,9.648,0,0,1,.49-2.3,43.239,43.239,0,0,1,1.47-4.7,28.477,28.477,0,0,1,4.8-8.2c.49-.6,1.078-1.1,1.666-1.7.588-.5,1.176-1,1.862-1.5.588-.5,1.274-.9,1.96-1.4a21.91,21.91,0,0,1,2.058-1.2c.392-.2.686-.4,1.078-.6l1.078-.5.49-.3.588-.2,1.078-.4c.392-.1.784-.3,1.078-.4.392-.1.784-.3,1.078-.4l1.176-.3,1.176-.3a76.668,76.668,0,0,1,9.408-1.5c1.568-.1,3.234-.3,4.8-.3.784,0,1.568-.1,2.352-.1h2.352c3.234.1,6.37.3,9.6.7a42.14,42.14,0,0,1,9.31,2.2c.392.1.784.3,1.078.4l1.078.5.588.3.49.3,1.078.6a35.441,35.441,0,0,1,4.018,2.7,22.339,22.339,0,0,1,3.43,3.4,22.882,22.882,0,0,1,2.744,4.1,38.667,38.667,0,0,1,3.234,9.3,19.069,19.069,0,0,1,.294,3.4v3.4c0,1,0,2.1-.1,3.2Z" transform="translate(-58.016 -29.296)" fill="#c27b55"/>
          </g>
        </g>
        <g id="svga-group-mouth-single-move" transform="translate(31.412 114.616)">
          <g id="svga-group-mouth-single" transform="translate(0 0)">
            <g id="svga-group-mouth-single-move-2" data-name="svga-group-mouth-single-move">
              <g id="svga-group-mouth-single-2" data-name="svga-group-mouth-single">
                <path id="SvgjsPath5557" d="M117.639,121.9a3.322,3.322,0,0,0-.848-.8c-.283-.1-.754-.1-.754.4a1.03,1.03,0,0,0,.471.8c-.622,1.22-2.261,1.46-3.579,1.56a12.525,12.525,0,0,1-4.229-.17c-3.221-.92-6.141-1.82-9.061-1.62-2.731.1-4.832.98-7.469,1.78-3.108.9-7.215,2.74-9.381-.66a2.592,2.592,0,0,0,.754-.7.534.534,0,0,0-.471-.9A3.2,3.2,0,0,0,81,124.29a.36.36,0,0,0,.471.3,9.177,9.177,0,0,0,.942-1,5.264,5.264,0,0,0,4.427,2.7,21.494,21.494,0,0,0,5.557-.9,33.081,33.081,0,0,1,6.216-.8c3.862-.1,7.629.2,11.491.4,2.261.1,5.369.4,7.064-1.5a1.388,1.388,0,0,0,.471.8c.094.1.283,0,.377-.1.659-.59,0-1.69-.377-2.29Z" transform="translate(-80.995 -121.048)" fill="#da7c87"/>
                <path id="SvgjsPath5558" d="M105.6,128.4a83.722,83.722,0,0,1-10,.5c-.3,0-.3.4-.1.4a19.615,19.615,0,0,0,10.2-.2A.354.354,0,0,0,105.6,128.4Z" transform="translate(-82.135 -121.871)" fill="#d19271"/>
              </g>
            </g>
          </g>
        </g>
        <g id="svga-group-eyes-left-move" transform="translate(16.52 67.001)">
          <g id="svga-group-eyes-left" transform="translate(0 0)">
            <g id="svga-group-eyesback-left" transform="translate(2.25 0.45)">
              <path id="SvgjsPath11170" d="M72.18,66.78a11.708,11.708,0,1,1-12.15,11.7A11.894,11.894,0,0,1,72.18,66.78Z" transform="translate(-60.03 -66.78)" fill="#fff"/>
            </g>
            <g id="svga-group-eyesiriswrapper-left" transform="translate(9.36 7.11)">
              <g id="svga-group-eyesiriscontrol-left">
                <g id="svga-group-eyesiris-left">
                  <path id="SvgjsPath11247" d="M72.18,73.44a5.04,5.04,0,1,1-5.04,5.04A5.032,5.032,0,0,1,72.18,73.44Z" transform="translate(-67.14 -73.44)" fill="#553d1e"/>
                  <path id="SvgjsPath11248" d="M72.18,75.78a2.7,2.7,0,1,1-2.7,2.7A2.652,2.652,0,0,1,72.18,75.78Z" transform="translate(-67.14 -73.44)"/>
                  <path id="SvgjsPath11249" d="M71.55,76.32l-.54-.54a1.019,1.019,0,0,0-1.44,1.44l.54.54a.972.972,0,0,0,.63.27.7.7,0,0,0,.63-.27c.54-.54.54-1.08.18-1.44Zm2.43,4.59a.675.675,0,1,0,0-1.35A.675.675,0,0,0,73.98,80.91Z" transform="translate(-67.14 -73.44)" fill="#fff"/>
                </g>
              </g>
            </g>
            <g id="svga-group-eyesfront-left">
              <path id="SvgjsPath11178" d="M72.18,66.33A12.248,12.248,0,1,0,84.87,78.57,12.47,12.47,0,0,0,72.18,66.33Zm7.47,17.82c-.72,1.26-10.35,4.23-12.24,3.87s-6.57-6.66-6.84-7.65,5.58-8.28,8.28-9.63c0,0,5.85-.09,9,1.35s4.23,6.12,3.87,7.11A34.612,34.612,0,0,1,79.65,84.15Z" transform="translate(-57.78 -66.33)" fill="#f0c7b1"/>
              <path id="SvgjsPath11179" d="M81.99,78.12a7.216,7.216,0,0,0-.45-1.89,9.257,9.257,0,0,0-1.98-3.24,5.912,5.912,0,0,0-1.53-1.08c-.27-.09-.54-.27-.81-.36,1.8.18,3.42.18,4.05-.27,0,0-11.34-2.7-12.96-2.61s-8.28,9.45-8.91,10.62a9.7,9.7,0,0,1-1.62,1.98,22.249,22.249,0,0,0,2.7-.45c.27.54.54.9.81,1.35.72.99,1.53,1.98,2.34,2.97a18.517,18.517,0,0,0,2.7,2.61,2.815,2.815,0,0,0,.9.45,1.841,1.841,0,0,0,.99,0,13.972,13.972,0,0,0,1.89-.36c1.17-.27,2.43-.63,3.6-.99s2.34-.81,3.51-1.26a14.683,14.683,0,0,0,1.71-.81c.27-.18.54-.27.72-.63.18-.27.27-.54.45-.81.54-1.08.99-2.25,1.53-3.42a9.337,9.337,0,0,0,.36-.9A1.534,1.534,0,0,0,81.99,78.12ZM68.58,70.74h.18a5.161,5.161,0,0,0-.63.36C68.31,70.92,68.49,70.83,68.58,70.74Zm13.14,8.28c-.09.27-.18.54-.27.9-.45,1.17-.9,2.34-1.44,3.42-.18.27-.27.54-.45.81a4.991,4.991,0,0,1-.72.54c-.54.27-1.08.54-1.71.81-1.17.45-2.34.81-3.51,1.17s-2.43.63-3.6.9a12.424,12.424,0,0,1-1.8.27c-.27,0-.63.09-.81,0a2.7,2.7,0,0,1-.72-.36,17.287,17.287,0,0,1-2.61-2.52,35.268,35.268,0,0,1-2.25-2.88c-.27-.45-.63-.9-.81-1.26a.088.088,0,0,0,.09-.09c.36-.45,4.5-6.57,6.57-8.91a6.389,6.389,0,0,1,1.26-.9h.9c1.26.09,3.15.36,5.13.63.45.09.9.18,1.26.27a9.6,9.6,0,0,1,1.71.63,5.491,5.491,0,0,1,1.44,1.08,10.831,10.831,0,0,1,1.89,3.06,11.99,11.99,0,0,1,.45,1.71,1.871,1.871,0,0,1,0,.72Z" transform="translate(-57.78 -66.33)"/>
            </g>
          </g>
        </g>
        <g id="svga-group-eyes-right-move" transform="translate(55.935 67.001)">
          <g id="svga-group-eyes-right" transform="translate(0 0)">
            <g id="svga-group-eyesback-right" transform="translate(0.54 0.45)">
              <path id="SvgjsPath11171" d="M107.82,66.78a11.708,11.708,0,1,1-12.15,11.7A11.894,11.894,0,0,1,107.82,66.78Z" transform="translate(-95.67 -66.78)" fill="#fff"/>
            </g>
            <g id="svga-group-eyesiriswrapper-right" transform="translate(8.28 7.74)">
              <g id="svga-group-eyesiriscontrol-right">
                <g id="svga-group-eyesiris-right">
                  <path id="SvgjsPath11250" d="M107.82,74.07a4.41,4.41,0,1,1-4.41,4.41A4.417,4.417,0,0,1,107.82,74.07Z" transform="translate(-103.41 -74.07)" fill="#553d1e"/>
                  <path id="SvgjsPath11251" d="M107.82,76.14a2.34,2.34,0,1,1-2.34,2.34A2.383,2.383,0,0,1,107.82,76.14Z" transform="translate(-103.41 -74.07)"/>
                  <path id="SvgjsPath11252" d="M107.28,76.59c-.18-.18-.27-.36-.45-.45a.817.817,0,0,0-.63-.27.972.972,0,0,0-.63.27.817.817,0,0,0-.27.63.972.972,0,0,0,.27.63c.18.18.36.27.45.45a.817.817,0,0,0,.63.27.972.972,0,0,0,.63-.27,1.072,1.072,0,0,0,0-1.26Zm2.16,4.05a.585.585,0,0,0,0-1.17C108.72,79.38,108.72,80.64,109.44,80.64Z" transform="translate(-103.41 -74.07)" fill="#fff"/>
                </g>
              </g>
            </g>
            <g id="svga-group-eyesfront-right">
              <path id="SvgjsPath11180" d="M107.82,66.33a12.248,12.248,0,1,0,12.69,12.24,12.47,12.47,0,0,0-12.69-12.24Zm4.05,20.07c-1.62.27-9.9-1.53-10.44-2.7a39.141,39.141,0,0,1-1.53-4.59c-.27-.9,1.08-4.86,3.96-5.85s8.01-.45,8.01-.45c2.25,1.44,6.75,8.28,6.39,9.09s-.45,3.42-6.39,4.5Z" transform="translate(-95.13 -66.33)" fill="#f0c7b1"/>
              <path id="SvgjsPath11183" d="M120.69,83.07a7.563,7.563,0,0,1-1.17-1.89c-.45-.99-5.49-9.72-6.93-9.99-1.35-.18-11.52,1.17-11.52,1.17a7.368,7.368,0,0,0,3.42.54c-.18.09-.36.09-.54.18a7.175,7.175,0,0,0-1.44.72,6.672,6.672,0,0,0-1.98,2.52,4.431,4.431,0,0,0-.54,1.53c-.09.27-.09.54-.18.81v.45c0,.18.09.27.09.36.27.99.63,1.98.99,3.06a6.2,6.2,0,0,0,.27.72c.09.09.09.27.18.36a1.242,1.242,0,0,0,.27.36,5.389,5.389,0,0,0,1.44.72,30.436,30.436,0,0,0,3.06.99c1.08.27,2.07.54,3.15.72a9.918,9.918,0,0,0,1.62.18,2.447,2.447,0,0,0,.81,0c.27,0,.54-.09.81-.09a9.382,9.382,0,0,0,3.06-.99,6.26,6.26,0,0,0,2.52-2.07,5.307,5.307,0,0,0,.36-.72c0-.09.09-.18.09-.27a10.933,10.933,0,0,0,2.16.63Zm-8.19-9.81c-.18-.09-.27-.18-.45-.27h.18C112.23,73.08,112.41,73.17,112.5,73.26Zm5.4,9.27a2.7,2.7,0,0,1-.36.72,5.1,5.1,0,0,1-2.25,1.89,16.435,16.435,0,0,1-2.97.99c-.27.09-.54.09-.72.18h-.72a7.926,7.926,0,0,1-1.53-.18c-1.08-.18-2.07-.36-3.15-.54-.99-.27-2.07-.45-3.06-.81a10,10,0,0,1-1.44-.63l-.27-.27c-.09-.09-.09-.27-.18-.36a6.2,6.2,0,0,0-.27-.72,30.365,30.365,0,0,1-.9-3.06l-.09-.36v-.36a1.7,1.7,0,0,1,.18-.72,6.967,6.967,0,0,1,.63-1.44,8.075,8.075,0,0,1,1.89-2.43,6.2,6.2,0,0,1,2.88-1.08c.45-.09.81-.09,1.26-.18,1.53,0,2.97-.09,3.96-.09h1.17a10.786,10.786,0,0,1,1.08.99c1.62,2.16,4.68,7.74,4.95,8.19a.088.088,0,0,0,.09.09C117.99,82.35,117.99,82.44,117.9,82.53Z" transform="translate(-95.13 -66.33)"/>
            </g>
          </g>
        </g>
        <g id="svga-group-eyebrows-left-move" transform="translate(17.015 57.631)">
          <g id="svga-group-eyebrows-left-rotate">
            <g id="svga-group-eyebrows-left" transform="translate(0 0)">
              <path id="SvgjsPath11096" d="M83.52,62.55a39.414,39.414,0,0,1-.9,6.39s-14.49-4.14-16.2-4.32-7.56,3.69-7.56,3.69l5.85-8.82,3.42.27-.54-.81,7.2,1.71,6.75,1.08.45,2.52.36-2.52.45,2.52.72-1.71Z" transform="translate(-58.32 -58.59)" fill="#432d22"/>
              <path id="SvgjsPath11097" d="M83.52,62.55l-.09.09a2.694,2.694,0,0,1-.36.72,4.389,4.389,0,0,0-.27.63l-.36-2.25-.18-.81-.18.81-.27,1.44-.27-1.44v-.18h-.18l-3.51-.63-1.71-.27c-.54-.09-1.17-.18-1.71-.27-2.34-.54-4.59-1.08-6.93-1.62l-.72-.18.45.72.27.09-2.79-.18h-.18l-.09.09c-.99,1.53-1.89,2.97-2.88,4.5l-2.88,4.5-.36.54.54-.36a32.022,32.022,0,0,1,5.4-3.06c.45-.18.99-.36,1.44-.54a1.982,1.982,0,0,1,.72-.09l.36.09.36.09c.99.27,2.07.54,3.06.81,2.07.63,4.05,1.17,6.12,1.71s4.05,1.08,6.12,1.62l.18.09v-.18c.27-1.08.36-2.16.54-3.24.09-.54.09-1.08.18-1.62a2.492,2.492,0,0,1,.09-.81v-.72l.09-.09Zm-.09.36-.09.36-.09.81-.27,1.62c-.18.99-.36,1.98-.63,2.97-1.98-.63-3.96-1.17-5.94-1.8-2.07-.63-4.05-1.17-6.12-1.62-.99-.27-2.07-.45-3.06-.72l-.36-.09-.36-.09a2.492,2.492,0,0,0-.81.09c-.54.18-.99.36-1.44.54a38.569,38.569,0,0,0-4.95,2.79l2.61-3.78c.99-1.44,1.98-2.88,2.88-4.23l3.24.27.63.09-.36-.63-.09-.09c2.07.54,4.14.99,6.21,1.44l3.51.54,3.33.45.45,2.25.18,1.08.18-1.08.27-1.8.36,1.71.09.27.09-.27.27-.81a6.2,6.2,0,0,1,.27-.72v.45Zm-2.61,4.23a18.948,18.948,0,0,0-.18-2.25c-.09-.36-.09-.72-.18-1.08a5.074,5.074,0,0,0-.36-1.08,4.382,4.382,0,0,1,.09,1.08,4.517,4.517,0,0,0,.18,1.08A19.9,19.9,0,0,0,80.82,67.14Zm-1.08-1.53c-.18-.27-.27-.63-.45-.9l-.45-.9-.9-1.71-.18-.45v.54c0,1.44,0,2.88.09,4.32l.27-.09c-.27-.36-.54-.81-.81-1.17l-.81-1.08a9.533,9.533,0,0,0-.9-1.08,5.157,5.157,0,0,0-.99-.99c.27.36.63.72.9,1.08l.81,1.08a13.166,13.166,0,0,1,.81,1.17,8.218,8.218,0,0,1,.72,1.17l.27.45v-.54c0-1.44-.09-2.88-.09-4.32l-.18.09.99,1.71.54.81a1.617,1.617,0,0,0,.36.81Z" transform="translate(-58.32 -58.59)" fill="#341f15"/>
            </g>
          </g>
        </g>
        <g id="svga-group-eyebrows-right-move" transform="translate(57.46 59.251)">
          <g id="svga-group-eyebrows-right-rotate">
            <g id="svga-group-eyebrows-right" transform="translate(0 0)">
              <path id="SvgjsPath11098" d="M96.48,65.88a25.734,25.734,0,0,0,2.07,4.95s13.41-5.49,15.12-5.85,8.1,1.8,8.1,1.8l-7.38-6.21-3.24.72.36-.72L104.76,63l-6.39,1.8v2.07l-.81-1.98v2.07l-1.08-1.08Z" transform="translate(-96.48 -60.03)" fill="#432d22"/>
              <path id="SvgjsPath11099" d="M121.86,66.69l-3.6-3.15c-1.17-1.08-2.43-2.07-3.69-3.15l-.09-.09h-.09l-2.7.54.09-.18.36-.63-.72.27c-2.16.72-4.32,1.53-6.48,2.34l-1.62.54-1.62.54-3.33.99h-.18v1.35l-.54-1.17-.27-.63v.63l.09,1.8c-.09-.18-.27-.27-.36-.45-.18-.18-.27-.36-.45-.54l-.09-.09v.27l.09.18.09.36a1.669,1.669,0,0,1,.18.63c.18.45.27.81.45,1.26.27.81.72,1.71,1.08,2.52l.09.18.18-.09c1.89-.72,3.78-1.44,5.76-2.25,1.89-.72,3.78-1.53,5.67-2.25.99-.36,1.89-.72,2.88-1.08l.36-.09.36-.09a1.982,1.982,0,0,1,.72-.09,8.867,8.867,0,0,1,1.53.18,48.555,48.555,0,0,1,5.94,1.62l.54.18-.63-.36Zm-7.47-1.89a2.492,2.492,0,0,0-.81.09l-.36.09-.36.09a27.048,27.048,0,0,0-2.88.99c-1.98.72-3.87,1.44-5.76,2.16s-3.69,1.53-5.49,2.34a12.818,12.818,0,0,1-1.08-2.25c-.18-.36-.36-.81-.54-1.26l-.27-.63-.09-.27-.09-.18v-.09a1.883,1.883,0,0,1,.36.54,3.811,3.811,0,0,1,.45.63l.18.18V65.52l.54,1.35.36.81V64.89l3.24-.9c1.08-.27,2.25-.63,3.33-.9,1.98-.72,3.87-1.35,5.85-2.07v.09l-.27.54.63-.18,3.15-.72c1.17.99,2.43,1.98,3.6,2.97l3.24,2.61a52.853,52.853,0,0,0-5.4-1.44,4.391,4.391,0,0,1-1.53-.09Zm-14.4,4.23a6.123,6.123,0,0,1-.18-1.8v-.9a1.623,1.623,0,0,1,.18-.9c0,.27.09.63.09.9s.09.63.09.9C100.08,67.86,100.08,68.49,99.99,69.03Zm.81-1.35a6.2,6.2,0,0,1,.27-.72l.27-.72.54-1.53.18-.36.09.36c.27,1.17.45,2.34.72,3.42h-.27l.54-1.08a3.716,3.716,0,0,1,.63-.99c.18-.36.45-.63.63-.99a3.524,3.524,0,0,1,.72-.9,3.716,3.716,0,0,0-.63.99,6.054,6.054,0,0,1-.63.99l-.54,1.08-.54,1.08-.18.36-.09-.36c-.27-1.17-.45-2.34-.72-3.42h.27l-.63,1.44-.36.72a1.2,1.2,0,0,1-.27.63Z" transform="translate(-96.48 -60.03)" fill="#341f15"/>
            </g>
          </g>
        </g>
        <g id="svga-group-nose-single-move" transform="translate(40.268 81.99)">
          <g id="svga-group-nose-single" transform="translate(0 0)">
            <path id="SvgjsPath11282" d="M87.12,79.9a26.859,26.859,0,0,0-.531,4,5.649,5.649,0,0,0,.063.963,3.031,3.031,0,0,0,.108.432l.189.477q.364.958.675,1.944a15.068,15.068,0,0,1,.477,2.025,6.011,6.011,0,0,1,.063,1.071,2.673,2.673,0,0,1-.279,1.089,7.8,7.8,0,0,1-1.224,1.7,13.732,13.732,0,0,1-1.494,1.4c.423-.531.846-1.062,1.233-1.62a9.134,9.134,0,0,0,1-1.7,2.132,2.132,0,0,0,.162-.882,4.92,4.92,0,0,0-.108-.954,14.759,14.759,0,0,0-.5-1.926c-.189-.639-.4-1.278-.63-1.917l-.162-.486a3.081,3.081,0,0,1-.117-.558,4.735,4.735,0,0,1,0-1.071,12.5,12.5,0,0,1,.387-2.034A17.393,17.393,0,0,1,87.12,79.9Z" transform="translate(-80.443 -79.758)" fill="#c27b55"/>
            <path id="SvgjsPath11283" d="M93.33,79.758a10.7,10.7,0,0,1,1.134,1.764c.081.153.162.315.234.477.036.09.072.153.108.252a2.106,2.106,0,0,1,.081.3,4.621,4.621,0,0,1,.045,1.107,11.341,11.341,0,0,1-.378,2.07c-.171.675-.4,1.323-.639,1.98a12.191,12.191,0,0,1,.108-2.079c.081-.684.162-1.359.216-2.016a4.826,4.826,0,0,0,0-.954,5.082,5.082,0,0,0-.27-.918c-.216-.648-.441-1.3-.639-1.98Z" transform="translate(-80.443 -79.758)" fill="#c27b55"/>
            <path id="SvgjsPath11284" d="M98.316,96.741a4.588,4.588,0,0,1,1.377,1.593c.216.72-.288,2.313-1.008,2.385s-3.393-.576-3.753-.216-.72,3.978-1.809,4.41-5.418.5-5.922-.288-1.008-3.609-1.665-3.753-3.393.072-4.05,0-1.08-1.593-.288-3.105,4.266-3.177,6.651-3.321A40.617,40.617,0,0,1,94.518,95a22.659,22.659,0,0,1,3.8,1.737Z" transform="translate(-80.443 -79.758)" fill="#e8b9a0"/>
            <path id="SvgjsPath11285" d="M98.316,96.741a6.279,6.279,0,0,1,1.035.981,1.848,1.848,0,0,1,.351.621,1.893,1.893,0,0,1,.027.711,2.974,2.974,0,0,1-.5,1.332.813.813,0,0,1-.612.36,4.834,4.834,0,0,1-.72-.045c-.477-.054-.945-.126-1.422-.171-.234-.027-.468-.045-.711-.063a2.441,2.441,0,0,0-.684.036.245.245,0,0,0-.108.063.377.377,0,0,0-.063.135c-.036.108-.072.216-.1.333-.063.225-.108.459-.162.693-.1.468-.207.936-.333,1.4a6.231,6.231,0,0,1-.531,1.368,1.365,1.365,0,0,1-.576.576,4.075,4.075,0,0,1-.729.207,14.9,14.9,0,0,1-2.9.2,10.22,10.22,0,0,1-1.467-.135,3.255,3.255,0,0,1-.756-.225,1.038,1.038,0,0,1-.4-.3,3.266,3.266,0,0,1-.207-.369c-.4-.918-.612-1.845-.963-2.691a2,2,0,0,0-.3-.522c-.027-.027-.045-.045-.054-.045s0,.009.009,0l-.063-.009c-.09-.009-.207-.018-.315-.027-.45-.018-.927,0-1.4.009l-1.431.036c-.243,0-.477.009-.747-.009a.885.885,0,0,1-.279-.063,1.051,1.051,0,0,1-.234-.153,1.407,1.407,0,0,1-.288-.378,2.807,2.807,0,0,1-.216-1.584,4,4,0,0,1,.5-1.458,3.876,3.876,0,0,1,1.053-1.107,8.985,8.985,0,0,1,1.242-.783,12.664,12.664,0,0,1,2.7-1.062,9.658,9.658,0,0,1,1.422-.27A9.763,9.763,0,0,1,88.83,94.3c.954.036,1.908.135,2.853.261s1.89.252,2.826.414c.648.252,1.3.513,1.944.8.324.144.639.288.945.45a4.8,4.8,0,0,1,.918.513Zm0,0a8.208,8.208,0,0,0-.909-.522c-.315-.153-.63-.306-.954-.441-.639-.279-1.287-.54-1.953-.774a41.435,41.435,0,0,0-5.679-.477,10.41,10.41,0,0,0-1.4.09,9.146,9.146,0,0,0-1.368.324,12.1,12.1,0,0,0-2.565,1.134,7.825,7.825,0,0,0-1.143.792,3.573,3.573,0,0,0-.873.981,3.336,3.336,0,0,0-.387,1.242,2.131,2.131,0,0,0,.18,1.206.651.651,0,0,0,.144.189c.027.018.045.036.063.045a.033.033,0,0,0,.027.009h.045a5.621,5.621,0,0,0,.675,0l1.422-.045c.477-.018.954-.036,1.449-.009a3.233,3.233,0,0,1,.4.036l.108.018a.751.751,0,0,1,.171.072.912.912,0,0,1,.216.18,2.633,2.633,0,0,1,.4.711c.189.468.333.927.477,1.377s.27.909.441,1.323c.036.09.1.207.126.261a.492.492,0,0,0,.171.117,2.72,2.72,0,0,0,.612.189,9.757,9.757,0,0,0,1.377.171,14.633,14.633,0,0,0,2.808-.081,3.424,3.424,0,0,0,.648-.144.979.979,0,0,0,.423-.414,5.357,5.357,0,0,0,.549-1.269c.144-.45.27-.909.387-1.368l.189-.693a2.738,2.738,0,0,1,.126-.351.637.637,0,0,1,.108-.18.414.414,0,0,1,.2-.117,2.275,2.275,0,0,1,.738-.018c.243.018.477.054.711.09l1.413.216a6.163,6.163,0,0,0,.7.063.746.746,0,0,0,.576-.333,2.819,2.819,0,0,0,.522-1.305,2.039,2.039,0,0,0-.018-.7,1.914,1.914,0,0,0-.342-.621,6.093,6.093,0,0,0-1.008-.972Z" transform="translate(-80.443 -79.758)" fill="#c27b55"/>
          </g>
        </g>
        <g id="svga-group-hair-front" transform="translate(6.687 0)">
          <path id="SvgjsPath11325" d="M61.054,84.692a18.065,18.065,0,0,0,1.666-7.3c.2-4.6,0-10.9.2-14.2a66.218,66.218,0,0,1,1.47-10,14.1,14.1,0,0,1,1.764-5.3c1.176-1.8,2.352-3.6,5.1-4.3s7.448-3,8.526-4.3c0,0,8.428,12.2,9.114,11.8,0,0,5.194,2.6,7.056,2.8s7.8-.233,12.054,0,6.688-.361,12.152-2.9,6.468-13.9,10.78-.1a50.49,50.49,0,0,1,1.176,10.4c.1,6.1.294,10.1.784,11.9a49.158,49.158,0,0,1,1.176,7.3,4.445,4.445,0,0,0,.588,2.5,50.464,50.464,0,0,0,2.156-5.8c.49-2,1.862-11.6,2.058-13.1s.588-6.4.882-8.5c.294-2,0-9.5,0-9.5s.1-4.7-.588-6.1c-.686-1.3-1.372-3.5-2.842-4.8a14.16,14.16,0,0,0-.1-2.7c-.2-1.1-2.058-5.3-8.036-10.6s-13.034-9.4-21.168-9.4c0,0,2.842-.4,4.7-.6,0,0-5.39-.7-7.938-.3L108,11s-7.056-1.4-12.054.1c0,0,.686-1.2,4.116-2.5a19.311,19.311,0,0,0-15.092,3.1s-5.782-.3-11.466,6.8a26.8,26.8,0,0,0-4.606,1.8c-.98.7-6.076,3.1-6.762,11.4,0,0-4.9.6-5.39,11l.49,8.7a19.05,19.05,0,0,0-1.764,7.3c0,3.7.98,6,1.078,7.8s.686,5.2.686,5.2a44.229,44.229,0,0,1,2.058,5.9,64.131,64.131,0,0,0,1.764,7.1Z" transform="translate(-54.88 -8.054)" fill="#3e2b22"/>
          <path id="SvgjsPath11326" d="M140.14,46.5a15.339,15.339,0,0,0,0-3,16.23,16.23,0,0,0-.588-3,23.57,23.57,0,0,0-1.078-2.8,16.711,16.711,0,0,0-1.568-2.4,8.789,8.789,0,0,0-1.176-5,20.675,20.675,0,0,0-3.038-4.2,55.128,55.128,0,0,0-7.546-6.9,33.874,33.874,0,0,0-8.918-4.9,20.678,20.678,0,0,0-4.9-1.2,20.906,20.906,0,0,0-5-.1,22.1,22.1,0,0,1,9.8,1.7,32.866,32.866,0,0,1,8.624,5.1,39.49,39.49,0,0,1,3.822,3.3,30.3,30.3,0,0,1,3.528,3.6,23.394,23.394,0,0,1,2.842,4.1,7.8,7.8,0,0,1,1.078,4.6v.2l.2.2a18.834,18.834,0,0,1,1.568,2.3,20.516,20.516,0,0,1,1.078,2.6,8.832,8.832,0,0,1,.49,2.8,14.336,14.336,0,0,1,0,2.9c.2,3.1.2,6.2.1,9.3s-.686,6.1-1.078,9.2-.784,6.2-1.274,9.2a33.157,33.157,0,0,1-.882,4.5c-.49,1.4-1.078,2.9-1.47,4.4.49-1.5,1.078-2.9,1.666-4.3a34.858,34.858,0,0,0,1.078-4.6c.588-3.1,1.078-6.1,1.47-9.2l.686-4.6a36.282,36.282,0,0,0,.49-4.7,70.457,70.457,0,0,0,0-9.1Zm-7.35,1.3a21.394,21.394,0,0,1,.588-2.4,22.821,22.821,0,0,1,.784-2.4l.784-2.4.392-1.2.2-.6.1-.3.1-.2v-.1c-.1,0,0,0-.1.1l-.1.1-.2.3-.294.5-.588,1.1a24.252,24.252,0,0,0-1.078,2.3,21.921,21.921,0,0,0-1.568,4.9,22.171,22.171,0,0,0-.2,3.6c-.1-.5-.294-1-.392-1.5a34.339,34.339,0,0,0-1.96-5.3,20.9,20.9,0,0,0-2.94-4.9c-2.352-3-5.782-4.9-9.212-6.3a15.644,15.644,0,0,1-8.036-6.9,11.725,11.725,0,0,1-1.764-5.1,5.8,5.8,0,0,1,.392-2.6,4.671,4.671,0,0,1,1.666-2,7.429,7.429,0,0,1,5-1.5,12.129,12.129,0,0,1,5.194,1.6,11.98,11.98,0,0,0-5.194-1.8,7.144,7.144,0,0,0-5.292,1.4,5.069,5.069,0,0,0-1.862,2.2,5.861,5.861,0,0,0-.49,2.9,11.352,11.352,0,0,0,1.764,5.4,16.589,16.589,0,0,0,8.33,7.3,21.073,21.073,0,0,1,8.722,6.1,25.937,25.937,0,0,1,3.92,7.5,16.277,16.277,0,0,0-6.566-8,12.29,12.29,0,0,0-5.88-1.8h-.392a36.01,36.01,0,0,0-9.8-1.7h-2.45l-.784-.1a8.668,8.668,0,0,1-1.568-.3,9.091,9.091,0,0,1-1.47-.6,10.552,10.552,0,0,1-4.7-4.1,14.878,14.878,0,0,1-2.254-6,14.019,14.019,0,0,1,.49-6.4A10.232,10.232,0,0,1,98.1,13.7a16.8,16.8,0,0,1,6.174-2.1,14.442,14.442,0,0,0-6.37,1.7,10.114,10.114,0,0,0-4.508,5A8.576,8.576,0,0,0,92.9,20a10.043,10.043,0,0,0-.2,1.7c0,.6-.1,1.1-.1,1.7s.1,1.1.1,1.7a17.107,17.107,0,0,0,2.254,6.5,12.4,12.4,0,0,0,5.194,4.4,12.763,12.763,0,0,0,6.664.9,28.236,28.236,0,0,1,6.468.5c.588.1,1.274.2,1.862.3a30.433,30.433,0,0,0-4.312.2c-4.116.5-8.036,2-11.956,2.6a23.96,23.96,0,0,1-5.978.2,15.878,15.878,0,0,1-5.782-1.4,12.707,12.707,0,0,1-4.7-3.6,15.117,15.117,0,0,1-2.744-5.3,17.67,17.67,0,0,1-.686-6,18,18,0,0,1,1.078-6,16.226,16.226,0,0,1,8.428-8.2A18.752,18.752,0,0,1,99.176,8.8a9.091,9.091,0,0,0-1.47.6,7.276,7.276,0,0,0-1.176.7,2.435,2.435,0,0,0-.882,1.1l-.1.4.392-.1a11.135,11.135,0,0,1,3.038-.7c1.078-.1,2.058-.2,3.136-.2s2.156.1,3.136.1a29.865,29.865,0,0,1,3.136.4c-1.078-.2-2.058-.4-3.136-.5s-2.156-.2-3.136-.2c-1.078,0-2.156,0-3.234.1a12.336,12.336,0,0,0-2.646.5c.2-.2.294-.4.49-.5A10.626,10.626,0,0,1,97.8,9.9a17.664,17.664,0,0,1,2.45-.8l1.078-.2-1.078-.3A19.554,19.554,0,0,0,88.1,9.6a13.254,13.254,0,0,0-3.626,2.1,15.628,15.628,0,0,0-4.214,1.2,19.677,19.677,0,0,0-4.606,2.8c-.392.3-.686.6-1.078.9-.294.3-.588.7-.882,1a10.468,10.468,0,0,1-.784,1.1,14.921,14.921,0,0,0-8.134,4.6,14.459,14.459,0,0,0-2.646,5.2,15.155,15.155,0,0,0-.49,3.6,6.537,6.537,0,0,0-3.528,3,12.8,12.8,0,0,0-1.47,5,43.507,43.507,0,0,0,0,10.1v.2a34.594,34.594,0,0,0-1.764,8.4v2.2a17.267,17.267,0,0,0,.392,2.2c.294,1.4.49,2.8.686,4.2a31.61,31.61,0,0,0,.784,4.2,17.476,17.476,0,0,0,.686,2.1c.294.6.49,1.3.784,2,.882,2.7,1.666,5.4,2.352,8.2a64.532,64.532,0,0,0-1.862-8.4,17.477,17.477,0,0,0-.686-2.1,7.734,7.734,0,0,1-.588-2c-.294-1.4-.392-2.8-.588-4.2s-.392-2.8-.686-4.2a7.609,7.609,0,0,1-.294-2v-2a29.178,29.178,0,0,1,1.176-6.5c.686,2.9,2.156,8.2,5.586,12.4,0,1.1.1,2.2,0,3.4,0,1.9-.1,3.8-.1,5.6a52.176,52.176,0,0,1-.294,5.6,27.12,27.12,0,0,1-.294,2.8,8.412,8.412,0,0,1-.686,2.7,8.718,8.718,0,0,0,.882-2.7,27.912,27.912,0,0,0,.49-2.8c.2-1.9.392-3.8.588-5.6.2-1.9.2-3.8.294-5.7s0-3.8,0-5.6a53.013,53.013,0,0,1,1.47-11.1,11.414,11.414,0,0,1,2.156-5,10.041,10.041,0,0,1,4.508-3,10.856,10.856,0,0,0-4.9,2.7,7.772,7.772,0,0,0-1.568,2.4c-.392.9-.686,1.8-.98,2.7a35.454,35.454,0,0,0-1.176,5.6,56.164,56.164,0,0,0-.588,5.7v.6a32.96,32.96,0,0,1-5-13.1h-.1c-.2-1.6-.294-3.2-.392-4.8a46.474,46.474,0,0,1,.1-5.2,11.991,11.991,0,0,1,1.176-4.9,6.579,6.579,0,0,1,3.234-3.1,16.527,16.527,0,0,0,.1,2.2A9.654,9.654,0,0,0,63.9,39.6,8.134,8.134,0,0,0,69.09,42a13.383,13.383,0,0,0,10.584-3,15.514,15.514,0,0,1-5.1,2.2,13.974,13.974,0,0,1-5.39.1,8.764,8.764,0,0,1-4.7-2.3,8.785,8.785,0,0,1-2.058-4.9,14.536,14.536,0,0,1,2.646-10.4,15.868,15.868,0,0,1,4.214-3.5,18.649,18.649,0,0,1,3.234-1.4c-.2.4-.294.7-.49,1.1a17.2,17.2,0,0,0-1.176,5.4,20.525,20.525,0,0,0,.392,5.5A12.337,12.337,0,0,0,73.4,35.9a7.454,7.454,0,0,0,2.156,1.8,11.045,11.045,0,0,0,2.548.9,8.078,8.078,0,0,0,5.1-.6,18.941,18.941,0,0,0,3.332,2.1,20.841,20.841,0,0,0,3.293,1.028,16.224,16.224,0,0,0,2.783.372,25.548,25.548,0,0,0,6.174-.2c4.116-.7,7.938-2.2,11.956-2.8a28.013,28.013,0,0,1,7.644-.1l1.176.3c-.2-.1-.392-.1-.588-.2a13.555,13.555,0,0,1,3.528,1.3,17.064,17.064,0,0,1,7.35,9.2,1.882,1.882,0,0,1,.2.7,35.1,35.1,0,0,1,1.078,5.4.917.917,0,0,0,.1.5,12.492,12.492,0,0,1-.2,1.9c.1-.3.2-.5.294-.8.1,1.3,0,2.6,0,3.9a86.2,86.2,0,0,0,.882,11.2c.294,1.8.686,3.7,1.078,5.5a20.676,20.676,0,0,1,.1,5.5c.1-.9.294-1.8.392-2.8a13.391,13.391,0,0,0-.1-2.8c-.1-.9-.294-1.8-.49-2.8a27.465,27.465,0,0,1-.392-2.8,84.246,84.246,0,0,1-.588-11.1,35.617,35.617,0,0,0-.1-5.6c0-.3-.1-.7-.1-1,.1-.5.1-1,.2-1.5.294-1.3.294-3,.588-4.6ZM78.4,38.4a7.676,7.676,0,0,1-4.214-2.6,13.361,13.361,0,0,1-1.862-4.9,23.729,23.729,0,0,1-.294-5.3,16.927,16.927,0,0,1,1.96-6.9c.2,0,.49-.1.784-.1a1.637,1.637,0,0,0-.686.1,9.493,9.493,0,0,1,2.058-2.4,18.627,18.627,0,0,1,4.312-3,25.357,25.357,0,0,1,3.822-1.5,16.311,16.311,0,0,0-5.1,6.4,17.5,17.5,0,0,0-1.176,6.3,22.592,22.592,0,0,0,.686,6.3,15.048,15.048,0,0,0,2.94,5.7A9.651,9.651,0,0,0,83.4,38.2a8.564,8.564,0,0,1-5,.2Z" transform="translate(-54.88 -8.054)" fill="#2f1d15"/>
        </g>
      </g>
    </g>
  </g>
</svg>
