<svg xmlns="http://www.w3.org/2000/svg" id="Layer_1" data-name="Layer 1" viewBox="0 0 63.78 63"><defs><style>.cls-1{fill:#ffffff;}</style></defs><path class="cls-1" d="M59.64,32.49c0,11.74-8.3,22.53-20.24,25.8a27.87,27.87,0,0,1-9,1A27.58,27.58,0,0,1,5.55,39.91a26.52,26.52,0,0,1-1.13-9.57A27.38,27.38,0,0,1,25.73,5.43,27.73,27.73,0,0,1,59,26.17,29,29,0,0,1,59.64,32.49Zm-39.57.11a7.85,7.85,0,1,0,8,7.83A7.91,7.91,0,0,0,20.07,32.6Zm23.86-1.21a7.85,7.85,0,1,0-8-7.83A7.88,7.88,0,0,0,43.93,31.39ZM47.86,44.2A7.95,7.95,0,1,0,39.93,52,7.94,7.94,0,0,0,47.86,44.2ZM32,19.79a7.93,7.93,0,1,0-8,7.83A7.88,7.88,0,0,0,32,19.79Zm-.18,15.9A3.5,3.5,0,1,0,28.3,32.2,3.53,3.53,0,0,0,31.85,35.69Z" transform="translate(-0.11 -0.5)"></path><path class="cls-1" d="M61.85,28.21A30.34,30.34,0,0,0,50.48,8.36l1.82.48c1.54.4,3.09.77,4.61,1.22a9.66,9.66,0,0,1,7,9.82,19.4,19.4,0,0,1-.71,3.5c-.36,1.48-.78,2.95-1.18,4.42C62,27.91,61.91,28,61.85,28.21Z" transform="translate(-0.11 -0.5)"></path><path class="cls-1" d="M36.44,61.65A31.22,31.22,0,0,0,56,50.14c-.2.74-.4,1.47-.59,2.21-.37,1.36-.72,2.72-1.11,4.07a9.9,9.9,0,0,1-11.94,6.77Z" transform="translate(-0.11 -0.5)"></path><path class="cls-1" d="M8.26,13c.23-.86.45-1.72.68-2.57.28-1,.54-2.08.86-3.11A9.85,9.85,0,0,1,18.38.53,13.2,13.2,0,0,1,23,1.14c1.37.37,2.75.72,4.12,1.08l.48.15A30.72,30.72,0,0,0,16.91,5.93,31.78,31.78,0,0,0,8.26,13Z" transform="translate(-0.11 -0.5)"></path><path class="cls-1" d="M12.84,55.46c-1.41-.37-2.82-.72-4.22-1.12a16.87,16.87,0,0,1-3-1,9.47,9.47,0,0,1-5.5-8.75,9.63,9.63,0,0,1,.33-2.44c.4-1.66.87-3.31,1.32-5,0-.08.06-.17.12-.34A29.59,29.59,0,0,0,5.67,47.18,32.43,32.43,0,0,0,12.84,55.46Z" transform="translate(-0.11 -0.5)"></path></svg>