<svg xmlns="http://www.w3.org/2000/svg" width="512" height="190.285" viewBox="0 0 512 190.285">
  <path id="swirl-arrow-right-icon" d="M0,62.269c32.208,3.5,65.126,11.155,82.935,11.576,5.87.14,13.175-.651,5.825-3.929A172.988,172.988,0,0,0,27.3,55.625a147.983,147.983,0,0,0,15.993-4.683C86.208,36.225,134.457,27.248,181.6,27.186c39.015-.053,79.822,5.737,115.535,22.126A232.8,232.8,0,0,0,261.981,90.1c-21.629,32.107-31.567,79.665,13.75,96.773,37.675,14.221,72.262-18.318,76.731-54.787,3.222-26.29-6.915-45.475-19.352-63.408a92.8,92.8,0,0,0-19.168-20.1C406.881-16.905,494.724,26.293,512,117.512,507.09,5.165,386.456-21.164,306.068,42.942c-70.469-46-210.713-30.084-282.411,7.5C33.12,41.152,41.192,28,46.523,15.437c.79-1.859,4.569-8.993,4.29-12.878A2.387,2.387,0,0,0,48.465.006,3.973,3.973,0,0,0,45.6,1.356c-2.92,2.749-9.2,13.053-15.44,23.057C20.9,39.255,12.885,50.13,0,62.269ZM304.367,55.7a233.11,233.11,0,0,0-37.028,43.982c-16.542,25.678-22.453,56.275,1.472,72.95,14.806,10.319,30.931,9.682,44.76,1.389C363.379,144.147,339.318,77.023,304.367,55.7Z" fill="#129996" fill-rule="evenodd"/>
</svg>
