<svg xmlns="http://www.w3.org/2000/svg" width="1015" height="521" viewBox="0 0 1015 521">
  <g id="bi2" transform="translate(-1216 -1706)">
    <rect id="Rectangle_95" data-name="Rectangle 95" width="1015" height="521" transform="translate(1216 1706)" fill="#f5f5f5"/>
    <g id="bi2-2" data-name="bi2" transform="translate(1462.175 1768.744)">
      <g id="freepik--gears-3--inject-3" transform="translate(467.978 89.357)">
        <g id="Group_2" data-name="Group 2" transform="translate(0)">
          <path id="Path_3" data-name="Path 3" d="M627.95,257.3a24.031,24.031,0,0,1-2.813,8.587l4.639,4.891-5.492,6.405-5.544-3.837a24.047,24.047,0,0,1-8.06,4.089l-.178,6.732-8.409.646-1.21-6.628a24,24,0,0,1-8.58-2.813l-4.9,4.639L581,274.516l3.845-5.544a23.945,23.945,0,0,1-4.089-8.053l-6.739-.186-.646-8.409,6.628-1.2a23.994,23.994,0,0,1,2.82-8.587l-4.639-4.891,5.492-6.405,5.544,3.837a24.008,24.008,0,0,1,8.053-4.089l.178-6.732,8.416-.646,1.2,6.628a24.084,24.084,0,0,1,8.587,2.813l4.891-4.639,6.405,5.492-3.837,5.581a24.083,24.083,0,0,1,4.089,8.053l6.732.186.646,8.409Zm-23.972-15.5a12.409,12.409,0,1,0,12.409,12.409A12.409,12.409,0,0,0,603.978,241.8Z" transform="translate(-573.37 -173.164)" fill="none" stroke="#263238" stroke-linejoin="round" stroke-width="1"/>
          <path id="Path_4" data-name="Path 4" d="M665.565,189.305a24.084,24.084,0,0,1-2.813,8.587l4.653,4.921-5.492,6.405-5.544-3.837a24.047,24.047,0,0,1-8.06,4.089l-.178,6.732-8.409.646-1.21-6.628a24,24,0,0,1-8.58-2.813l-4.9,4.639-6.405-5.492,3.844-5.544a23.913,23.913,0,0,1-4.089-8.06l-6.739-.178L611,184.362l6.628-1.21a24.008,24.008,0,0,1,2.82-8.58l-4.639-4.9,5.492-6.405,5.544,3.844a23.876,23.876,0,0,1,8.053-4.089l.178-6.739,8.416-.646,1.2,6.635a23.935,23.935,0,0,1,8.609,2.813l4.891-4.639,6.405,5.492-3.874,5.552a24.083,24.083,0,0,1,4.089,8.053l6.732.178.646,8.416Zm-23.972-15.5a12.369,12.369,0,1,1,0,.03Z" transform="translate(-583.072 -155.64)" fill="none" stroke="#263238" stroke-linejoin="round" stroke-width="1"/>
        </g>
      </g>
      <g id="freepik--Arrow--inject-3" transform="translate(0.5 21.975)">
        <path id="Path_9" data-name="Path 9" d="M418.794,31.395l14.769,23.119L299.3,137.452,166.986,179.927a16.491,16.491,0,0,0-3.058,1.343L.5,272.574l3.162,35.981,174.977-97.827,132.628-42.572a16.69,16.69,0,0,0,3.622-1.67L451.2,82.249l14.918,23.423L506.787,27.55Z" transform="translate(-0.5 -27.55)" fill="#263238" stroke="#263238" stroke-linejoin="round" stroke-width="1"/>
      </g>
      <g id="freepik--gear-2--inject-3" transform="translate(275.478 114.985)">
        <g id="Group_5" data-name="Group 5">
          <g id="Group_3" data-name="Group 3">
            <path id="Path_10" data-name="Path 10" d="M424.845,192.759l6.732-.186.646-8.409-6.628-1.2a24.084,24.084,0,0,0-2.813-8.55l4.639-4.891.148-1.915-.905.972-4.72-5.5-5.544,3.837a24.083,24.083,0,0,0-8.053-4.089l-.186-6.732-8.409-.646-1.2,6.628a23.988,23.988,0,0,0-8.587,2.813l-4.891-4.639-5.485,4.705-.779-1.128-.141,1.915,3.837,5.544a24.046,24.046,0,0,0-4.082,8.06l-6.739.178L371,187.935l6.628,1.21a23.854,23.854,0,0,0,2.813,8.58l-3.711,3.9-.787-.92-.148,1.915,5.492,6.405,5.544-3.844a23.942,23.942,0,0,0,8.082,4.112l.186,6.739,8.409.638,1.2-6.628a23.891,23.891,0,0,0,8.594-2.835l4.891,4.639,6.405-5.492.148-1.915-.92.794-3.065-4.453a24.084,24.084,0,0,0,4.082-8.023Z" transform="translate(-371 -153.535)" fill="#263238" stroke="#263238" stroke-linejoin="round" stroke-width="1"/>
            <path id="Path_11" data-name="Path 11" d="M431.79,190l.646-8.416-6.628-1.2a24.084,24.084,0,0,0-2.791-8.587l4.639-4.891-5.492-6.405-5.544,3.837a24.046,24.046,0,0,0-8.06-4.089l-.178-6.732-8.416-.646-1.2,6.628a24,24,0,0,0-8.58,2.813l-4.9-4.639-6.405,5.492,3.844,5.544a23.913,23.913,0,0,0-4.089,8.06l-6.739.178-.646,8.409,6.628,1.21a24.009,24.009,0,0,0,2.82,8.58l-4.639,4.9,5.492,6.405L387.1,202.6a23.876,23.876,0,0,0,8.053,4.089l.178,6.739,8.416.646,1.2-6.635a23.936,23.936,0,0,0,8.587-2.813l4.891,4.639,6.405-5.492-3.859-5.537a24.083,24.083,0,0,0,4.089-8.053Z" transform="translate(-371.064 -152.87)" fill="#d71920" stroke="#263238" stroke-linejoin="round" stroke-width="1"/>
          </g>
          <g id="Group_4" data-name="Group 4" transform="translate(22.963 24.292)">
            <path id="Path_12" data-name="Path 12" d="M402.074,193.04l-.134,1.729,2,7.593,7.57,2.063,5.581-5.522.134-1.722Z" transform="translate(-401.94 -187.518)" fill="#263238" stroke="#263238" stroke-linejoin="round" stroke-width="1"/>
            <path id="Path_13" data-name="Path 13" d="M407.7,185.6l-5.581,5.522,2,7.593,7.57,2.071,5.581-5.522-2-7.593Z" transform="translate(-401.986 -185.6)" fill="#fff" stroke="#263238" stroke-linejoin="round" stroke-width="1"/>
          </g>
        </g>
      </g>
      <g id="freepik--gear-1--inject-3" transform="translate(145.092 156.517)">
        <g id="Group_8" data-name="Group 8">
          <g id="Group_6" data-name="Group 6">
            <path id="Path_14" data-name="Path 14" d="M249.349,246.6l6.68-.7v-8.439l-6.68-.69a23.854,23.854,0,0,0-3.466-8.342l4.253-5.24v-1.915l-.861,1.076-5.128-5.128-5.21,4.253a23.98,23.98,0,0,0-8.342-3.459l-.7-6.68h-8.431l-.7,6.68a23.98,23.98,0,0,0-8.342,3.459l-5.2-4.253-5.106,5.106-.861-1.054v1.915l4.245,5.24a23.98,23.98,0,0,0-3.459,8.342l-6.68.69V245.9l6.68.7a24.039,24.039,0,0,0,3.436,8.342l-3.384,4.171-.861-.861v1.922l5.937,5.937,5.2-4.253a23.853,23.853,0,0,0,8.342,3.466l.7,6.68h8.431l.7-6.68a23.853,23.853,0,0,0,8.342-3.466l5.232,4.253,5.937-5.937v-1.922l-.779.861-3.392-4.171a23.906,23.906,0,0,0,3.466-8.342Z" transform="translate(-195.333 -209.477)" fill="#263238" stroke="#263238" stroke-linejoin="round" stroke-width="1"/>
            <path id="Path_15" data-name="Path 15" d="M256.038,243.334v-8.4l-6.68-.7a23.854,23.854,0,0,0-3.466-8.342l4.253-5.232-5.937-5.937-5.232,4.253a23.853,23.853,0,0,0-8.342-3.466l-.7-6.68h-8.483l-.7,6.68a23.854,23.854,0,0,0-8.342,3.466l-5.2-4.253-5.937,5.937,4.245,5.232a23.98,23.98,0,0,0-3.525,8.3l-6.68.7v8.431l6.68.7a23.98,23.98,0,0,0,3.473,8.357l-4.245,5.232,5.937,5.937,5.2-4.245a23.979,23.979,0,0,0,8.342,3.459l.7,6.68h8.431l.7-6.68a23.979,23.979,0,0,0,8.342-3.459l5.232,4.245,5.937-5.937-4.253-5.232a23.853,23.853,0,0,0,3.466-8.342Z" transform="translate(-195.32 -208.83)" fill="#d71920" stroke="#263238" stroke-linejoin="round" stroke-width="1"/>
          </g>
          <g id="Group_40" data-name="Group 40" transform="translate(-165.722 96)">
            <path id="Path_14-2" data-name="Path 14" d="M249.349,246.6l6.68-.7v-8.439l-6.68-.69a23.854,23.854,0,0,0-3.466-8.342l4.253-5.24v-1.915l-.861,1.076-5.128-5.128-5.21,4.253a23.98,23.98,0,0,0-8.342-3.459l-.7-6.68h-8.431l-.7,6.68a23.98,23.98,0,0,0-8.342,3.459l-5.2-4.253-5.106,5.106-.861-1.054v1.915l4.245,5.24a23.98,23.98,0,0,0-3.459,8.342l-6.68.69V245.9l6.68.7a24.039,24.039,0,0,0,3.436,8.342l-3.384,4.171-.861-.861v1.922l5.937,5.937,5.2-4.253a23.853,23.853,0,0,0,8.342,3.466l.7,6.68h8.431l.7-6.68a23.853,23.853,0,0,0,8.342-3.466l5.232,4.253,5.937-5.937v-1.922l-.779.861-3.392-4.171a23.906,23.906,0,0,0,3.466-8.342Z" transform="translate(-195.333 -209.477)" fill="#263238" stroke="#263238" stroke-linejoin="round" stroke-width="1"/>
            <path id="Path_15-2" data-name="Path 15" d="M256.038,243.334v-8.4l-6.68-.7a23.854,23.854,0,0,0-3.466-8.342l4.253-5.232-5.937-5.937-5.232,4.253a23.853,23.853,0,0,0-8.342-3.466l-.7-6.68h-8.483l-.7,6.68a23.854,23.854,0,0,0-8.342,3.466l-5.2-4.253-5.937,5.937,4.245,5.232a23.98,23.98,0,0,0-3.525,8.3l-6.68.7v8.431l6.68.7a23.98,23.98,0,0,0,3.473,8.357l-4.245,5.232,5.937,5.937,5.2-4.245a23.979,23.979,0,0,0,8.342,3.459l.7,6.68h8.431l.7-6.68a23.979,23.979,0,0,0,8.342-3.459l5.232,4.245,5.937-5.937-4.253-5.232a23.853,23.853,0,0,0,3.466-8.342Z" transform="translate(-195.32 -208.83)" fill="#d71920" stroke="#263238" stroke-linejoin="round" stroke-width="1"/>
          </g>
          <g id="Group_7" data-name="Group 7" transform="translate(22.637 24.158)">
            <path id="Path_16" data-name="Path 16" d="M225.82,249.38v1.729l2.568,7.414,7.711,1.484,5.143-5.93v-1.729Z" transform="translate(-225.82 -243.443)" fill="#263238" stroke="#263238" stroke-linejoin="round" stroke-width="1"/>
            <path id="Path_363" data-name="Path 363" d="M225.82,249.38v1.729l2.568,7.414,7.711,1.484,5.143-5.93v-1.729Z" transform="translate(-391.542 -147.443)" fill="#263238" stroke="#263238" stroke-linejoin="round" stroke-width="1"/>
            <path id="Path_17" data-name="Path 17" d="M230.963,241.38l-5.143,5.937,2.568,7.414,7.711,1.484,5.143-5.93-2.575-7.422Z" transform="translate(-225.82 -241.38)" fill="#fff" stroke="#263238" stroke-linejoin="round" stroke-width="1"/>
            <path id="Path_362" data-name="Path 362" d="M230.963,241.38l-5.143,5.937,2.568,7.414,7.711,1.484,5.143-5.93-2.575-7.422Z" transform="translate(-391.542 -145.38)" fill="#fff" stroke="#263238" stroke-linejoin="round" stroke-width="1"/>
          </g>
        </g>
      </g>
      <g id="freepik--Calendar--inject-3" transform="translate(251.817 9.246)">
        <g id="Group_12" data-name="Group 12" transform="translate(0 0)">
          <rect id="Rectangle_1" data-name="Rectangle 1" width="81.135" height="65.46" fill="none" stroke="#263238" stroke-linecap="round" stroke-linejoin="round" stroke-width="1"/>
          <g id="Group_9" data-name="Group 9" transform="translate(4.921 16.64)">
            <rect id="Rectangle_2" data-name="Rectangle 2" width="10.383" height="10.383" fill="none" stroke="#263238" stroke-linecap="round" stroke-linejoin="round" stroke-width="1"/>
            <rect id="Rectangle_3" data-name="Rectangle 3" width="10.383" height="10.383" transform="translate(15.222)" fill="none" stroke="#263238" stroke-linecap="round" stroke-linejoin="round" stroke-width="1"/>
            <rect id="Rectangle_4" data-name="Rectangle 4" width="10.383" height="10.383" transform="translate(30.452)" fill="none" stroke="#263238" stroke-linecap="round" stroke-linejoin="round" stroke-width="1"/>
            <rect id="Rectangle_5" data-name="Rectangle 5" width="10.383" height="10.383" transform="translate(45.681)" fill="none" stroke="#263238" stroke-linecap="round" stroke-linejoin="round" stroke-width="1"/>
            <rect id="Rectangle_6" data-name="Rectangle 6" width="10.383" height="10.383" transform="translate(60.903)" fill="none" stroke="#263238" stroke-linecap="round" stroke-linejoin="round" stroke-width="1"/>
          </g>
          <g id="Group_10" data-name="Group 10" transform="translate(4.921 32.56)">
            <rect id="Rectangle_7" data-name="Rectangle 7" width="10.383" height="10.383" transform="translate(0 0)" fill="none" stroke="#263238" stroke-linecap="round" stroke-linejoin="round" stroke-width="1"/>
            <rect id="Rectangle_8" data-name="Rectangle 8" width="10.383" height="10.383" transform="translate(15.222 0)" fill="none" stroke="#263238" stroke-linecap="round" stroke-linejoin="round" stroke-width="1"/>
            <rect id="Rectangle_9" data-name="Rectangle 9" width="10.383" height="10.383" transform="translate(30.452 0)" fill="none" stroke="#263238" stroke-linecap="round" stroke-linejoin="round" stroke-width="1"/>
            <rect id="Rectangle_10" data-name="Rectangle 10" width="10.383" height="10.383" transform="translate(45.681 0)" fill="none" stroke="#263238" stroke-linecap="round" stroke-linejoin="round" stroke-width="1"/>
            <rect id="Rectangle_11" data-name="Rectangle 11" width="10.383" height="10.383" transform="translate(60.903 0)" fill="none" stroke="#263238" stroke-linecap="round" stroke-linejoin="round" stroke-width="1"/>
          </g>
          <g id="Group_11" data-name="Group 11" transform="translate(4.921 48.479)">
            <rect id="Rectangle_12" data-name="Rectangle 12" width="10.383" height="10.383" transform="translate(0 0)" fill="none" stroke="#263238" stroke-linecap="round" stroke-linejoin="round" stroke-width="1"/>
            <rect id="Rectangle_13" data-name="Rectangle 13" width="10.383" height="10.383" transform="translate(15.222 0)" fill="none" stroke="#263238" stroke-linecap="round" stroke-linejoin="round" stroke-width="1"/>
            <rect id="Rectangle_14" data-name="Rectangle 14" width="10.383" height="10.383" transform="translate(30.452 0)" fill="none" stroke="#263238" stroke-linecap="round" stroke-linejoin="round" stroke-width="1"/>
            <rect id="Rectangle_15" data-name="Rectangle 15" width="10.383" height="10.383" transform="translate(45.681 0)" fill="none" stroke="#263238" stroke-linecap="round" stroke-linejoin="round" stroke-width="1"/>
            <rect id="Rectangle_16" data-name="Rectangle 16" width="10.383" height="10.383" transform="translate(60.903 0)" fill="none" stroke="#263238" stroke-linecap="round" stroke-linejoin="round" stroke-width="1"/>
          </g>
          <rect id="Rectangle_17" data-name="Rectangle 17" width="70.255" height="5.537" transform="translate(5.44 5.218)" fill="none" stroke="#263238" stroke-linecap="round" stroke-linejoin="round" stroke-width="1"/>
        </g>
      </g>
      <g id="freepik--chart-3--inject-3" transform="translate(363.842 178.122)">
        <g id="Group_13" data-name="Group 13" transform="translate(0)">
          <path id="Path_18" data-name="Path 18" d="M587.114,390a16.12,16.12,0,0,1-20.462,1.158L552.447,410.5a40.078,40.078,0,0,0,50.958-2.88Zm-27.038-11.823a16.053,16.053,0,0,1,6.212-12.706l-14.755-18.94A40.078,40.078,0,0,0,545.7,404.24l18.25-15.586a15.994,15.994,0,0,1-3.874-10.48Zm16.105-40.115a40.607,40.607,0,0,0-10.027,1.262l6,23.26a16.1,16.1,0,0,1,20.128,15.586,14.991,14.991,0,0,1-.156,2.227l23.75,3.362a40.122,40.122,0,0,0-39.722-45.726Z" transform="translate(-536.059 -332.686)" fill="none" stroke="#263238" stroke-linejoin="round" stroke-width="1"/>
          <path id="Path_19" data-name="Path 19" d="M579.926,376.318l-9.893-12.706-14.755-18.94-4.7-6.019,17.6-7.823,1.707,6.635h.007l6,23.26Z" transform="translate(-539.803 -330.83)" fill="none" stroke="#263238" stroke-linejoin="round" stroke-width="1"/>
          <path id="Path_20" data-name="Path 20" d="M577.206,392.12l-9.53,12.981-14.205,19.349-4.639,6.309-8.8-6.843,6.694-5.73,18.243-15.6Z" transform="translate(-537.083 -346.632)" fill="none" stroke="#263238" stroke-linejoin="round" stroke-width="1"/>
          <path id="Path_21" data-name="Path 21" d="M638.547,398.963l-12.714,31.8-8.491-9.188-16.291-17.627L590.12,392.12l15.942,2.249,23.779,3.362Z" transform="translate(-549.997 -346.632)" fill="none" stroke="#263238" stroke-linejoin="round" stroke-width="1"/>
        </g>
      </g>
      <g id="freepik--chart-2--inject-3" transform="translate(120.865 260.809)">
        <g id="Group_14" data-name="Group 14" transform="translate(0)">
          <rect id="Rectangle_18" data-name="Rectangle 18" width="8.822" height="48.104" transform="translate(0 11.093)" fill="none" stroke="#263238" stroke-linecap="round" stroke-linejoin="round" stroke-width="1"/>
          <rect id="Rectangle_19" data-name="Rectangle 19" width="8.822" height="29.849" transform="translate(12.899 29.348)" fill="none" stroke="#263238" stroke-linecap="round" stroke-linejoin="round" stroke-width="1"/>
          <rect id="Rectangle_20" data-name="Rectangle 20" width="8.822" height="26.63" transform="translate(25.791 32.573)" fill="none" stroke="#263238" stroke-linecap="round" stroke-linejoin="round" stroke-width="1"/>
          <rect id="Rectangle_21" data-name="Rectangle 21" width="8.822" height="34.149" transform="translate(38.69 25.054)" fill="none" stroke="#263238" stroke-linecap="round" stroke-linejoin="round" stroke-width="1"/>
          <rect id="Rectangle_22" data-name="Rectangle 22" width="8.822" height="35.217" transform="translate(51.588 23.979)" fill="none" stroke="#263238" stroke-linecap="round" stroke-linejoin="round" stroke-width="1"/>
          <rect id="Rectangle_23" data-name="Rectangle 23" width="8.822" height="59.203" transform="translate(64.487)" fill="none" stroke="#263238" stroke-linecap="round" stroke-linejoin="round" stroke-width="1"/>
          <rect id="Rectangle_24" data-name="Rectangle 24" width="8.822" height="32.355" transform="translate(77.385 26.842)" fill="none" stroke="#263238" stroke-linecap="round" stroke-linejoin="round" stroke-width="1"/>
          <rect id="Rectangle_25" data-name="Rectangle 25" width="8.822" height="41.661" transform="translate(90.284 17.536)" fill="none" stroke="#263238" stroke-linecap="round" stroke-linejoin="round" stroke-width="1"/>
          <rect id="Rectangle_26" data-name="Rectangle 26" width="8.822" height="20.187" transform="translate(103.183 39.016)" fill="none" stroke="#263238" stroke-linecap="round" stroke-linejoin="round" stroke-width="1"/>
          <rect id="Rectangle_27" data-name="Rectangle 27" width="8.822" height="33.104" transform="translate(115.991 26.093)" fill="none" stroke="#263238" stroke-linecap="round" stroke-linejoin="round" stroke-width="1"/>
          <rect id="Rectangle_28" data-name="Rectangle 28" width="8.822" height="32.355" transform="translate(128.889 26.842)" fill="none" stroke="#263238" stroke-linecap="round" stroke-linejoin="round" stroke-width="1"/>
          <rect id="Rectangle_29" data-name="Rectangle 29" width="8.822" height="47.095" transform="translate(141.782 12.101)" fill="none" stroke="#263238" stroke-linecap="round" stroke-linejoin="round" stroke-width="1"/>
          <rect id="Rectangle_30" data-name="Rectangle 30" width="8.822" height="20.187" transform="translate(154.68 39.016)" fill="none" stroke="#263238" stroke-linecap="round" stroke-linejoin="round" stroke-width="1"/>
        </g>
      </g>
      <g id="freepik--chart-1--inject-3" transform="translate(0.5 9.246)">
        <g id="Group_16" data-name="Group 16" transform="translate(0 0)">
          <g id="Group_15" data-name="Group 15" transform="translate(100.833 48.427)">
            <line id="Line_1" data-name="Line 1" x2="15.356" fill="none" stroke="#263238" stroke-linejoin="round" stroke-width="1"/>
            <line id="Line_2" data-name="Line 2" x2="15.356" transform="translate(0 3.414)" fill="none" stroke="#263238" stroke-linejoin="round" stroke-width="1"/>
            <line id="Line_3" data-name="Line 3" x2="15.356" transform="translate(0 6.828)" fill="none" stroke="#263238" stroke-linejoin="round" stroke-width="1"/>
          </g>
          <path id="Path_22" data-name="Path 22" d="M42.88,42.463V37.98h95.407" transform="translate(-29.751 -12.731)" fill="none" stroke="#263238" stroke-linejoin="round" stroke-width="1"/>
          <line id="Line_4" data-name="Line 4" y1="7.422" transform="translate(13.129 43.15)" fill="none" stroke="#263238" stroke-linejoin="round" stroke-width="1"/>
          <line id="Line_5" data-name="Line 5" y1="7.422" transform="translate(13.129 63.568)" fill="none" stroke="#263238" stroke-linejoin="round" stroke-width="1"/>
          <line id="Line_6" data-name="Line 6" y2="9.173" transform="translate(108.589 20.38)" fill="none" stroke="#263238" stroke-linejoin="round" stroke-width="1"/>
          <line id="Line_7" data-name="Line 7" y2="4.253" transform="translate(76.341 25.561)" fill="none" stroke="#263238" stroke-linejoin="round" stroke-width="1"/>
          <line id="Line_8" data-name="Line 8" y2="8.246" transform="translate(62.818 16.662)" fill="none" stroke="#263238" stroke-linejoin="round" stroke-width="1"/>
          <line id="Line_9" data-name="Line 9" y2="4.253" transform="translate(45.013 25.561)" fill="none" stroke="#263238" stroke-linejoin="round" stroke-width="1"/>
          <rect id="Rectangle_31" data-name="Rectangle 31" width="31.35" height="16.105" transform="translate(47.7)" fill="none" stroke="#263238" stroke-linejoin="round" stroke-width="1"/>
          <rect id="Rectangle_32" data-name="Rectangle 32" width="26.266" height="13.493" transform="translate(0 29.606)" fill="none" stroke="#263238" stroke-linejoin="round" stroke-width="1"/>
          <rect id="Rectangle_33" data-name="Rectangle 33" width="26.266" height="13.493" transform="translate(0 50.505)" fill="none" stroke="#263238" stroke-linejoin="round" stroke-width="1"/>
          <rect id="Rectangle_34" data-name="Rectangle 34" width="26.266" height="13.493" transform="translate(0 71.398)" fill="none" stroke="#263238" stroke-linejoin="round" stroke-width="1"/>
          <rect id="Rectangle_35" data-name="Rectangle 35" width="26.266" height="13.493" transform="translate(31.817 29.606)" fill="none" stroke="#263238" stroke-linejoin="round" stroke-width="1"/>
          <rect id="Rectangle_36" data-name="Rectangle 36" width="26.266" height="13.493" transform="translate(63.642 29.606)" fill="none" stroke="#263238" stroke-linejoin="round" stroke-width="1"/>
          <rect id="Rectangle_37" data-name="Rectangle 37" width="26.266" height="13.493" transform="translate(95.459 29.606)" fill="none" stroke="#263238" stroke-linejoin="round" stroke-width="1"/>
          <rect id="Rectangle_38" data-name="Rectangle 38" width="26.266" height="13.493" transform="translate(95.459 6.969)" fill="none" stroke="#263238" stroke-linejoin="round" stroke-width="1"/>
        </g>
      </g>
      <g id="freepik--Character--inject-3" transform="translate(70.273 5.925)">
        <g id="Group_25" data-name="Group 25">
          <g id="Group_17" data-name="Group 17" transform="translate(92.164 41.826)">
            <path id="Path_23" data-name="Path 23" d="M219.343,62.28l23.972,13.411-3.006,3.882-21.62-4.661Z" transform="translate(-218.69 -62.28)" fill="#d71920" stroke="#263238" stroke-linejoin="round" stroke-width="1"/>
            <path id="Path_24" data-name="Path 24" d="M255.361,85.345l-.208-.312,3.459.379,5.93,1.573-6.279-6.613-7.437-.022-3.006,3.882,4.891,3.562,6.116,1.425-.2-1.833Z" transform="translate(-226.2 -66.939)" fill="#fff" stroke="#263238" stroke-linecap="round" stroke-linejoin="round" stroke-width="1"/>
          </g>
          <line id="Line_10" data-name="Line 10" x2="0.007" y2="1.358" transform="translate(97.382 57.991)" fill="none" stroke="#263238" stroke-linecap="round" stroke-linejoin="round" stroke-width="1"/>
          <g id="Group_21" data-name="Group 21" transform="translate(22.028)">
            <path id="Path_25" data-name="Path 25" d="M159.852,128.73l-2.286,38.17L124.19,185.974l2.308,7.489,49.793-17.627,10.086-34.029Z" transform="translate(-124.19 -37.586)" fill="#263238" stroke="#263238" stroke-linecap="round" stroke-linejoin="round" stroke-width="1"/>
            <path id="Path_26" data-name="Path 26" d="M174.65,113.37s-4.075,11.318-2.85,12.951c7.778,10.391,43.841,26.028,43.841,26.028l28.2,30.177,7.207-6.338-20.165-32.767L209,123.731l1.121-5.091Z" transform="translate(-136.406 -33.626)" fill="#263238" stroke="#263238" stroke-linecap="round" stroke-linejoin="round" stroke-width="1"/>
            <path id="Path_27" data-name="Path 27" d="M224.794,57.36l3.347,7.422a22.577,22.577,0,0,1,2,9.737L230,81.807,224.66,98.321l.742-28.166Z" transform="translate(-150.093 -19.186)" fill="#d71920" stroke="#263238" stroke-linejoin="round" stroke-width="1"/>
            <path id="Path_28" data-name="Path 28" d="M198.06,43.18l-13.8,14.591-8.535,37.5,35.439,5.269,3.919-30.162-2.8-13.626-.1-3.05,2.479,1.455L211.5,50.55l-2.471-3.755Z" transform="translate(-137.475 -15.53)" fill="#fff" stroke="#263238" stroke-linecap="round" stroke-linejoin="round" stroke-width="1"/>
            <g id="Group_18" data-name="Group 18" transform="translate(38.764 79.781)">
              <path id="Path_29" data-name="Path 29" d="M176.42,114.941l34.734,5.084.186-1.373-34.074-5.232Z" transform="translate(-176.42 -113.42)" fill="#949494" stroke="#263238" stroke-linecap="round" stroke-linejoin="round" stroke-width="1"/>
              <path id="Path_30" data-name="Path 30" d="M192.01,117.45l.26-1.64,1.388.26-.26,1.9" transform="translate(-180.439 -114.036)" fill="#263238" stroke="#263238" stroke-linecap="round" stroke-linejoin="round" stroke-width="1"/>
              <path id="Path_31" data-name="Path 31" d="M218.84,121.88l.26-1.64,1.38.26-.26,1.907" transform="translate(-187.357 -115.178)" fill="#263238" stroke="#263238" stroke-linecap="round" stroke-linejoin="round" stroke-width="1"/>
              <path id="Path_32" data-name="Path 32" d="M212.112,119.5c-.045.571-.876.972-1.855.891s-1.729-.616-1.677-1.187.876-.965,1.855-.883S212.164,118.925,212.112,119.5Z" transform="translate(-184.711 -114.68)" fill="#fff" stroke="#263238" stroke-linecap="round" stroke-linejoin="round" stroke-width="1"/>
            </g>
            <path id="Path_33" data-name="Path 33" d="M227.389,79.83l2.3,7.741s.846,9.96.141,11.838-6.361,10.584-6.361,10.584Z" transform="translate(-149.786 -24.979)" fill="#263238" stroke="#263238" stroke-linecap="round" stroke-linejoin="round" stroke-width="1"/>
            <g id="Group_20" data-name="Group 20" transform="translate(60.315)">
              <g id="Group_19" data-name="Group 19">
                <path id="Path_34" data-name="Path 34" d="M225.866,18.43a43.789,43.789,0,0,0-2.783-6.865c-1.581-2.917-8.312-4.342-12.016-1.818s-4.075,8.379-3.377,10.242,1.232,9.893,1.232,9.893l-.742,5.492,9.6,6.969,1.321-8.951s5.039.193,5.789-1.187.742-6.761.742-6.761,1.855-.7,1.945-1.662S225.866,18.43,225.866,18.43Z" transform="translate(-205.959 -6.574)" fill="#fff" stroke="#263238" stroke-linecap="round" stroke-linejoin="round" stroke-width="1"/>
                <path id="Path_35" data-name="Path 35" d="M209.675,20.2s1.722,2.278,3.362.5a13.512,13.512,0,0,0,3.407-5.359c.438-1.752-3.629-4.23-.438-4.72s4.683,2.6,6.576.289.794-2.88-6.212-4.512-11.326,1.061-10.88,5.774a60.667,60.667,0,0,0,2.227,10.391Z" transform="translate(-205.458 -5.925)" fill="#263238" stroke="#263238" stroke-linecap="round" stroke-linejoin="round" stroke-width="1"/>
                <path id="Path_36" data-name="Path 36" d="M229.488,24.712a3.444,3.444,0,1,1-2.568-4.134,3.444,3.444,0,0,1,2.568,4.134Z" transform="translate(-209.9 -9.679)" fill="none" stroke="#263238" stroke-linecap="round" stroke-linejoin="round" stroke-width="1"/>
                <path id="Path_37" data-name="Path 37" d="M232.13,21.977a3.139,3.139,0,0,1,1.284,0,3.236,3.236,0,0,1,.148,6.257" transform="translate(-212.334 -10.046)" fill="none" stroke="#263238" stroke-linecap="round" stroke-linejoin="round" stroke-width="1"/>
                <line id="Line_11" data-name="Line 11" x1="8.669" y2="0.809" transform="translate(4.217 13.467)" fill="#fff" stroke="#263238" stroke-linecap="round" stroke-linejoin="round" stroke-width="1"/>
                <path id="Path_38" data-name="Path 38" d="M212.2,27.024s-.824-3.711-2.59-3.429-2.182,5.715-.7,6.62a3.586,3.586,0,0,0,3.273-.082s.683,3.125,2.108,4.3" transform="translate(-206.116 -10.476)" fill="#fff" stroke="#263238" stroke-linecap="round" stroke-linejoin="round" stroke-width="1"/>
              </g>
              <path id="Path_39" data-name="Path 39" d="M229.044,24.156c-.126.512-.379.9-.571.846s-.252-.5-.134-1.009.379-.9.571-.854S229.163,23.636,229.044,24.156Z" transform="translate(-211.341 -10.362)" fill="#263238"/>
              <path id="Path_40" data-name="Path 40" d="M226.17,19.369a3.021,3.021,0,0,1,2.323-.111" transform="translate(-210.798 -9.316)" fill="none" stroke="#263238" stroke-linecap="round" stroke-linejoin="round" stroke-width="1"/>
              <path id="Path_41" data-name="Path 41" d="M230.83,33.006a2.085,2.085,0,0,1-2.16-.586" transform="translate(-211.442 -12.756)" fill="none" stroke="#263238" stroke-linecap="round" stroke-linejoin="round" stroke-width="1"/>
            </g>
            <path id="Path_42" data-name="Path 42" d="M206.175,39.42,218.91,50.2l-3.971,5.166L204,42.04Z" transform="translate(-144.766 -14.56)" fill="#fff" stroke="#263238" stroke-linecap="round" stroke-linejoin="round" stroke-width="1"/>
          </g>
          <g id="Group_22" data-name="Group 22" transform="translate(40.145 27.895)">
            <path id="Path_43" data-name="Path 43" d="M190.578,43.51s7.474,8.787,10.346,16.246c1.922,5.01-1.811,15.385-2.189,16.506-2.182,6.561-31.669,34.816-33.613,36.278S148.6,100.19,148.6,100.19l21.241-20.781,4.609-17.241,5.106-13.1S187.527,43.532,190.578,43.51Z" transform="translate(-148.6 -43.51)" fill="#d71920" stroke="#263238" stroke-linejoin="round" stroke-width="1"/>
            <path id="Path_44" data-name="Path 44" d="M187.225,114.03l-18.985,8.921,1.945,7.771Z" transform="translate(-153.664 -61.691)" fill="#d71920" stroke="#263238" stroke-linejoin="round" stroke-width="1"/>
            <path id="Path_45" data-name="Path 45" d="M210.26,59.18l.727,1.945,3.889,1.455-3.4,1.455,3.4,9.715-.245,6.553" transform="translate(-164.497 -47.55)" fill="none" stroke="#263238" stroke-linecap="round" stroke-linejoin="round" stroke-width="1"/>
          </g>
          <g id="Group_23" data-name="Group 23" transform="translate(27.706 28.828)">
            <path id="Path_46" data-name="Path 46" d="M188.7,50.773s-5.136-6.286-5.937-6-31.135,9.752-31.669,10.049S131.84,82.977,131.84,82.977l5.27,3.08L153.3,70.13l27.542-9.6" transform="translate(-131.84 -44.767)" fill="#d71920" stroke="#263238" stroke-linejoin="round" stroke-width="1"/>
            <path id="Path_47" data-name="Path 47" d="M161.63,73.325l-1.024,3.318-.416-6.613" transform="translate(-139.149 -51.28)" fill="none" stroke="#263238" stroke-linecap="round" stroke-linejoin="round" stroke-width="1"/>
          </g>
          <path id="Path_48" data-name="Path 48" d="M201.814,58.618l1.343,2.048S197.012,71.658,191.817,72.7s-18.978-.98-18.978-.98l-18.555,2.8-6.175,3.934,7.1,4.357,18.948-7.066,17.887,1.41,12.721-15.586.534-4.995-1.225-1.217Z" transform="translate(-108.329 -18.67)" fill="#263238" stroke="#263238" stroke-linecap="round" stroke-linejoin="round" stroke-width="1"/>
          <g id="Group_24" data-name="Group 24" transform="translate(0 73.885)">
            <path id="Path_49" data-name="Path 49" d="M122.047,111.587h-.089a1.061,1.061,0,0,1-.594-1.373c.861-2.152,3.614-5.863,7.9-4.409,4.119,1.38,4.015,5.759,3.384,7.875a1.061,1.061,0,1,1-2.026-.609c.045-.163,1.18-4.186-2.034-5.262-3.511-1.15-5.2,2.969-5.262,3.184A1.061,1.061,0,0,1,122.047,111.587Z" transform="translate(-101.415 -105.476)" fill="#263238"/>
            <path id="Path_50" data-name="Path 50" d="M130.194,143.79,94.51,133.133l9.344-25.383,32.441,9.685Z" transform="translate(-94.51 -106.063)" fill="#949494" stroke="#263238" stroke-linecap="round" stroke-linejoin="round" stroke-width="1"/>
            <path id="Path_51" data-name="Path 51" d="M107.8,110.83l10.094,13.2a3.874,3.874,0,0,0,4.453,1.277l15.749-5.937" transform="translate(-97.936 -106.857)" fill="none" stroke="#263238" stroke-linecap="round" stroke-linejoin="round" stroke-width="1"/>
          </g>
          <path id="Path_52" data-name="Path 52" d="M135.578,99.338l.3,4.156-.742,4.178s-.3,1.343-.742,1.343-1.343-1.046-1.343-1.046v-1.046l-.9,2.093a5.087,5.087,0,0,1-2.531-.156c-.742-.453-.742-2.227-.742-2.227l-2.835-2.969-.148-1.789,4.453-5.6Z" transform="translate(-102.603 -29.22)" fill="#fff" stroke="#263238" stroke-linecap="round" stroke-linejoin="round" stroke-width="1"/>
          <path id="Path_53" data-name="Path 53" d="M276.135,196.807l6.68-1.269s8.075-2.828,8.275-2.019-8.906,8.684-9.485,9.492-7.073,2.62-7.073,2.62l1.009,1.618-4.453,2.019a5.589,5.589,0,0,1-1.818-2.227,7.192,7.192,0,0,1-.371-3.9Z" transform="translate(-139.44 -54.253)" fill="#949494" stroke="#263238" stroke-linecap="round" stroke-linejoin="round" stroke-width="1"/>
          <path id="Path_54" data-name="Path 54" d="M121.658,205.512l-2.227-1-3.243,1.848-1.818,1.21,1.618,4.238h1.818l1.418,3.637a15.1,15.1,0,0,0-.2,3.436c.2.8,5.247,6.457,6.056,5.648s-1.009-7.667-1.009-8.275-.1-3.221-.1-3.221Z" transform="translate(-99.63 -57.124)" fill="#949494" stroke="#263238" stroke-linecap="round" stroke-linejoin="round" stroke-width="1"/>
        </g>
      </g>
      <g id="freepik--Hand--inject-3" transform="translate(284.368 141.032)">
        <g id="Group_31" data-name="Group 31">
          <path id="Path_55" data-name="Path 55" d="M401.289,268.81l25.516,13.174s16.469,14.324,18.607,16.625,3.948,6.257,4.935,9.552,4.78,30.622,4.78,30.622l11.355,48.732-41.325,10.532s-12.179-37.369-12.676-38.356-15.645-11.326-21.212-19.92-6.42-11.689-6.42-11.689l6.257-22.718,3.459-9.552,1.314-26.667Z" transform="translate(-383.461 -208.808)" fill="#fff" stroke="#263238" stroke-linejoin="round" stroke-width="1"/>
          <path id="Path_56" data-name="Path 56" d="M420.16,274.058a77.97,77.97,0,0,0,2.605,10.9c1.418,3.785,6.108,8.06,5.685,11.875s-2.368,13.975,1.662,15.868c0,0,7.578-14.918,6.628-17.293s-14.68-23.683-14.68-23.683Z" transform="translate(-392.564 -209.559)" fill="#263238" stroke="#263238" stroke-linejoin="round" stroke-width="1"/>
          <path id="Path_57" data-name="Path 57" d="M387.1,335.4l11.749,6.583a12.849,12.849,0,0,1,8.29,1.893s6.635,0,9.708-1.418,1.3-11.674,1.3-11.674,4.861-7.986,4.149-11.066-4.973-7.815-4.973-7.815l-7.1-10.391s2.13-3.08,2.13-5.685-4.5-6.873-4.5-6.873Z" transform="translate(-384.041 -214.001)" fill="#263238" stroke="#263238" stroke-linejoin="round" stroke-width="1"/>
          <g id="Group_26" data-name="Group 26" transform="translate(8.18)">
            <path id="Path_58" data-name="Path 58" d="M403.5,219.4s2.227,4.23,2.227,7.177-3.837,106.34-3.837,106.34l8.646,1.106,4.75-108.18s.742-5.151,4.416-7.726Z" transform="translate(-396.034 -195.739)" fill="#b8b8b8" stroke="#263238" stroke-linecap="round" stroke-linejoin="round" stroke-width="1"/>
            <path id="Path_59" data-name="Path 59" d="M400.927,191.657l1.737,10.034a11.385,11.385,0,0,0,7.11,1.143,8.06,8.06,0,0,0,5.841-4.193l-1.573-10.532a1.915,1.915,0,0,1,1.907.26c2.479,2.167,7.251,7.86,7.533,12.81.379,6.605-4.26,10.561-11.675,11.934-10.287,1.907-13.968-4.186-15.111-6.724s1.714-12.535,2.16-13.456S400.927,191.657,400.927,191.657Z" transform="translate(-394.626 -187.965)" fill="#949494" stroke="#263238" stroke-linecap="round" stroke-linejoin="round" stroke-width="1"/>
            <path id="Path_60" data-name="Path 60" d="M403.886,371.759a9.648,9.648,0,1,0,9.411,9.685A9.552,9.552,0,0,0,403.886,371.759Zm6.168,11.726c-.23.742.534,1.952.1,2.561s-1.841.319-2.442.742-.69,1.893-1.41,2.137-1.648-.839-2.42-.839-1.722,1.076-2.42.839-.816-1.685-1.418-2.137-2-.148-2.434-.742.334-1.833.1-2.561-1.544-1.269-1.544-2.041,1.328-1.343,1.544-2.041-.534-1.952-.1-2.561,1.841-.327,2.434-.779.7-1.893,1.418-2.137,1.64.846,2.42.846,1.722-1.076,2.42-.846.816,1.685,1.41,2.137,2.011.156,2.442.779-.334,1.826-.1,2.561,1.544,1.262,1.544,2.041S410.269,382.78,410.053,383.485Z" transform="translate(-394 -235.35)" fill="#b8b8b8" stroke="#263238" stroke-linecap="round" stroke-linejoin="round" stroke-width="1"/>
          </g>
          <g id="Group_27" data-name="Group 27" transform="translate(0 106.752)">
            <path id="Path_61" data-name="Path 61" d="M385.555,331.8s-2.546,6.68-2.546,9.708-.557,3.347,3.028,4.936,19.423,5.418,22.206,5.811,6.286.638,7.719-.475,3.028-4.379,1.915-6.769a6.613,6.613,0,0,0-3.711-3.184l-12.617-2.546Z" transform="translate(-382.978 -331.8)" fill="#fff" stroke="#263238" stroke-linejoin="round" stroke-width="1"/>
            <path id="Path_62" data-name="Path 62" d="M423.519,355.876a4.253,4.253,0,0,1-1.989-.742,17.138,17.138,0,0,0,.794-2.145c.319-1.121.876-4.379.876-4.379s2.865,0,3.9.876" transform="translate(-392.917 -336.134)" fill="none" stroke="#263238" stroke-linejoin="round" stroke-width="1"/>
          </g>
          <g id="Group_28" data-name="Group 28" transform="translate(1.443 92.339)">
            <path id="Path_63" data-name="Path 63" d="M390.754,312.38s-3.711.957-4.453,3.347-1.989,7.882-1.032,10.027,17.352,8.758,17.352,8.758,13.055,2.546,14.97,2.308,2.969-3.711,2.464-6.605-.4-5.017-2.709-5.893-7.08-2.308-7.956-2.546-6.368-2.865-6.368-2.865Z" transform="translate(-384.922 -312.38)" fill="#fff" stroke="#263238" stroke-linejoin="round" stroke-width="1"/>
            <path id="Path_64" data-name="Path 64" d="M429.479,331.122a2.486,2.486,0,0,0-2.227-.237,11.733,11.733,0,0,1-.082,4.7,15.891,15.891,0,0,1-1.351,4.216,18.967,18.967,0,0,0,3.021.557" transform="translate(-395.466 -317.11)" fill="none" stroke="#263238" stroke-linejoin="round" stroke-width="1"/>
          </g>
          <g id="Group_29" data-name="Group 29" transform="translate(0.51 74.927)">
            <path id="Path_65" data-name="Path 65" d="M389.235,288.92s-5.262,2.071-5.455,5.641-.371,6.962,1.484,8.275,11.875,8.654,15.979,9.782,13.4,2.182,15.474,1.239,3.763-5.826,1.885-8.839-10.962-6.68-11.719-7.073-4.512-2.82-4.512-2.82Z" transform="translate(-383.665 -288.92)" fill="#fff" stroke="#263238" stroke-linejoin="round" stroke-width="1"/>
            <path id="Path_66" data-name="Path 66" d="M428.109,310.5a12.861,12.861,0,0,0-3.837-.275c-2.227.156-2.709.638-2.709.638s.957,3.659.082,5.574-1.195,2.464-1.195,2.464,3.985,1.277,5.774.438" transform="translate(-393.149 -294.403)" fill="none" stroke="#263238" stroke-linejoin="round" stroke-width="1"/>
          </g>
          <g id="Group_30" data-name="Group 30" transform="translate(5.262 58.041)">
            <path id="Path_67" data-name="Path 67" d="M401.38,267.275s-4.705-1.878-6.4-.742-4.512,7.9-4.884,12.031,2.627,6.019,4.32,6.769,7.9,3.384,9.218,3.948,7.518,3.013,8.461-3.191-5.826-10.346-7.147-11.1a9.843,9.843,0,0,1-2.442-2.227Z" transform="translate(-390.068 -266.168)" fill="#fff" stroke="#263238" stroke-linejoin="round" stroke-width="1"/>
            <path id="Path_68" data-name="Path 68" d="M415.929,287.549s-5.975-2.969-7.325-1.432-2.227,5.655-1.6,6.605,3.986,2.471,5.2,2.39" transform="translate(-394.381 -271.198)" fill="none" stroke="#263238" stroke-linejoin="round" stroke-width="1"/>
          </g>
          <path id="Path_69" data-name="Path 69" d="M457.919,300.471S451.981,288.307,448.27,284s-15.875-17.931-18.376-21.041-3.414-10.094-5.641-12.32-5.344,1.633-6.086,8.609,3.117,13.649,5.344,16.172,7.273,12.313,8.3,16.024-7.117,19.43-2.969,31.446,12.906,11.875,12.906,11.875" transform="translate(-392.026 -203.961)" fill="#fff" stroke="#263238" stroke-linejoin="round" stroke-width="1"/>
          <path id="Path_70" data-name="Path 70" d="M425.021,250.66s-.742,1.789-.831,2a11.029,11.029,0,0,0,1.8,5.522c1.484,2,3.036,1.173,3.243.482" transform="translate(-393.603 -204.129)" fill="none" stroke="#263238" stroke-linejoin="round" stroke-width="1"/>
          <path id="Path_71" data-name="Path 71" d="M475.947,391.95,422.77,419.938l3.733,14,55.04-22.859Z" transform="translate(-392.521 -257.626)" fill="#fff" stroke="#263238" stroke-linejoin="round" stroke-width="1"/>
          <path id="Path_72" data-name="Path 72" d="M479.617,408.92,417.11,438.31l3.733,18.191h68.1Z" transform="translate(-391.062 -262.001)" fill="#263238" stroke="#263238" stroke-linejoin="round" stroke-width="1"/>
        </g>
      </g>
    </g>
  </g>
</svg>
