<svg xmlns="http://www.w3.org/2000/svg" xmlns:xlink="http://www.w3.org/1999/xlink" width="142" height="142" viewBox="0 0 142 142">
  <defs>
    <clipPath id="clip-path">
      <rect id="Rectangle_678" data-name="Rectangle 678" width="142" height="142" transform="translate(-5532 -2953)" fill="#fff"/>
    </clipPath>
  </defs>
  <g id="chodanSazan" transform="translate(5532 2953)" clip-path="url(#clip-path)">
    <g id="Group_4387" data-name="Group 4387">
      <path id="chodanSazan-2" data-name="chodanSazan" d="M52.532,60.243l-27.6,2.492V58.142l27.6-2.163,27.662,2.163v4.593Zm2.242-7.019L61.333,42.4h9.841l-2.3,4.264h8.528l4.92-8.2H62.974L76.093,19.439h29.52l-6.561,10.5H87.9l3.281-5.9h-10.5L74.454,34.2H95.445L82.326,53.224Zm-32.8-.329L0,19.768H28.862L39.031,32.56H28.862l-3.278-4.593H16.4L28.862,45.351H39.031l-3.28-4.264h8.528l7.216,11.807ZM53.9,41.981c-.15-.194-3.717-4.787-7.282-10.084-3.323-4.938-7.284-11.463-7.284-14.513s3.96-7.614,7.284-10.906C50.219,2.907,53.862.029,53.9,0l.027.021c.61.523,3.816,3.3,6.956,6.58,3.187,3.328,6.985,7.9,6.985,10.783,0,5.49-13.826,24.406-13.966,24.6l0,0Zm-5.709-24c0,2.215,5.469,9.259,5.524,9.33.05-.069,5.3-7.252,5.3-9.33s-5.245-6.549-5.3-6.594C53.656,11.433,48.188,15.769,48.188,17.984Z" transform="translate(-5514 -2942.368)" fill="#fdc429"/>
      <text id="چدن_سازان" data-name="چدن‌سازان" transform="translate(-5412 -2832)" fill="#fdc429" font-size="24" font-family="Shabnam" letter-spacing="-0.011em"><tspan x="-99.074" y="0">چدن‌سازان</tspan></text>
    </g>
  </g>
</svg>
