<svg xmlns="http://www.w3.org/2000/svg" xmlns:xlink="http://www.w3.org/1999/xlink" width="142" height="142" viewBox="0 0 142 142">
  <defs>
    <clipPath id="clip-path">
      <rect id="Rectangle_678" data-name="Rectangle 678" width="142" height="142" transform="translate(-5532 -2953)" fill="#fff"/>
    </clipPath>
  </defs>
  <g id="chodanSazan" transform="translate(5532 2953)" clip-path="url(#clip-path)">
    <g id="Group_4387" data-name="Group 4387">
      <path id="chodanSazan-2" data-name="chodanSazan" d="M52.532,60.243l-27.6,2.492V58.142l27.6-2.163,27.662,2.163v4.593Zm2.242-7.019L61.333,42.4h9.841l-2.3,4.264h8.528l4.92-8.2H62.974L76.093,19.439h29.52l-6.561,10.5H87.9l3.281-5.9h-10.5L74.454,34.2H95.445L82.326,53.224Zm-32.8-.329L0,19.768H28.862L39.031,32.56H28.862l-3.278-4.593H16.4L28.862,45.351H39.031l-3.28-4.264h8.528l7.216,11.807ZM53.9,41.981c-.15-.194-3.717-4.787-7.282-10.084-3.323-4.938-7.284-11.463-7.284-14.513s3.96-7.614,7.284-10.906C50.219,2.907,53.862.029,53.9,0l.027.021c.61.523,3.816,3.3,6.956,6.58,3.187,3.328,6.985,7.9,6.985,10.783,0,5.49-13.826,24.406-13.966,24.6l0,0Zm-5.709-24c0,2.215,5.469,9.259,5.524,9.33.05-.069,5.3-7.252,5.3-9.33s-5.245-6.549-5.3-6.594C53.656,11.433,48.188,15.769,48.188,17.984Z" transform="translate(-5514 -2942.368)" fill="#fdc429"/>
      <path id="Path_26968" data-name="Path 26968" d="M-91.187-8.566q.375,3.352.6,5.607t.223,3.592A3.094,3.094,0,0,1-91.9,3.275a10.611,10.611,0,0,1-3.475,1.512,13.937,13.937,0,0,1-3.141.475,5.8,5.8,0,0,1-4.178-1.307,5.447,5.447,0,0,1-1.342-4.061q0-.68.07-1.676t.293-2.988h2.133A35.53,35.53,0,0,0-101.9-.586a2.71,2.71,0,0,0,.932,2.262A4.789,4.789,0,0,0-98,2.414a12.053,12.053,0,0,0,2.7-.334,15.06,15.06,0,0,0,2.842-.967l-1.359-9.551,2.543-.8Zm-7.09-4.1,2.156,2.168-2.156,2.156-2.156-2.156ZM-85.369,0h-2.18l-.562-15.422,2.719-.34Zm9.064-9.328q.422,4.359.422,7.371A7.975,7.975,0,0,1-76.762,1.8a6.717,6.717,0,0,1-2.4,2.631,6.186,6.186,0,0,1-3.352.955,7.128,7.128,0,0,1-2.051-.3V2.426a9.828,9.828,0,0,0,1.488.129,5.346,5.346,0,0,0,3.158-.92A6.483,6.483,0,0,0-77.793-1.16l-1.172-7.5Zm-1.406-6.949,2.156,2.168-2.156,2.156-2.156-2.156ZM-70.417.352a5.627,5.627,0,0,1-3.949-1.2,5.061,5.061,0,0,1-1.348-3.744l-.258-10.758,2.684-.4v12.5a4.148,4.148,0,0,0,2.871.855h1.055V.352Zm21.638-3.7a3.754,3.754,0,0,1-.533,2.027A3.484,3.484,0,0,1-50.765-.018a4.608,4.608,0,0,1-2.057.451A5.417,5.417,0,0,1-54.585.117a8.57,8.57,0,0,1-1.834-.9,5.276,5.276,0,0,1-1.8.891,7.888,7.888,0,0,1-2.244.316A9.673,9.673,0,0,1-62.794.141a6.626,6.626,0,0,1-1.969-.809,5.608,5.608,0,0,1-2,.756,14.171,14.171,0,0,1-2.865.264h-1.055V-2.391l4.875-.012v-6.41h2.32l.059,6.246a10.94,10.94,0,0,0,3.035.34,13.591,13.591,0,0,0,2.918-.27V-8.812h2.32l.059,6.316a6.3,6.3,0,0,0,1.125.2,14.375,14.375,0,0,0,1.453.07,11.185,11.185,0,0,0,1.5-.082l-.434-7.969,2.672-.387Zm15.088-5.215q.375,3.352.6,5.607T-32.87.633A3.094,3.094,0,0,1-34.4,3.275a10.611,10.611,0,0,1-3.475,1.512,13.937,13.937,0,0,1-3.141.475,5.8,5.8,0,0,1-4.178-1.307A5.447,5.447,0,0,1-46.535-.105q0-.68.07-1.676t.293-2.988h2.133A35.53,35.53,0,0,0-44.4-.586a2.71,2.71,0,0,0,.932,2.262,4.789,4.789,0,0,0,2.971.738,12.053,12.053,0,0,0,2.7-.334,15.06,15.06,0,0,0,2.842-.967l-1.359-9.551,2.543-.8Zm-7.09-4.1,2.156,2.168-2.156,2.156L-42.937-10.5ZM-16.939.352a5.354,5.354,0,0,1-3.715-1.359,6.19,6.19,0,0,1-2.309,1.3A10.224,10.224,0,0,1-26.15.75,8.056,8.056,0,0,1-28.822.4,2.4,2.4,0,0,1-30.2-.762a4.991,4.991,0,0,1-.416-2.25l.012-2.52h2.215v3.2a7.386,7.386,0,0,0,2.379.281A18.481,18.481,0,0,0-23.66-2.2a9.786,9.786,0,0,0,1.869-.387l-1.289-8.25,2.543-.668.563,6.07a8.006,8.006,0,0,0,.311,1.74,1.721,1.721,0,0,0,.826.955,3.977,3.977,0,0,0,1.9.352H-15.9V.352ZM-7.23-9.738q1.559.574,2.186.762a6.79,6.79,0,0,0,1.26.252q.633.064,2.227.111l-.4,2.859L-4.734-5.93a42.776,42.776,0,0,1-3.756,4A8.854,8.854,0,0,1-11.32-.141a9.981,9.981,0,0,1-3.352.492h-2.543V-2.391h2.648a8.192,8.192,0,0,0,2.918-.469A7.729,7.729,0,0,0-9.492-4.084q.926-.756,2.379-2.209l.527-.527-1.137-.387q-1.793-.621-2.631-.867a5.085,5.085,0,0,0-1.365-.246,1.488,1.488,0,0,0-.908.375A15.621,15.621,0,0,0-14-6.633l-.937-2.309A15.868,15.868,0,0,1-13.605-10.2a4,4,0,0,1,1.031-.633,2.779,2.779,0,0,1,1.02-.187,3.934,3.934,0,0,1,.814.088,10.679,10.679,0,0,1,1.154.34Q-8.848-10.336-7.23-9.738ZM-7.793,1.313l1.9,1.828-1.9,1.828-1.875-1.8L-11.555,4.98l-1.91-1.828,1.91-1.828,1.863,1.8ZM-9.656,4.559l1.9,1.828-1.9,1.828-1.91-1.828Z" transform="translate(-5408 -2832)" fill="#fdc429"/>
    </g>
  </g>
</svg>
