<svg xmlns="http://www.w3.org/2000/svg" width="24.763" height="13.075" viewBox="0 0 24.763 13.075">
  <g id="Double_Check" transform="translate(0 -8)">
    <path id="Path_31437" data-name="Path 31437" d="M22.722,8.293Z" transform="translate(-5.139 -0.066)" fill="none"/>
    <path id="Path_31438" data-name="Path 31438" d="M31.7,8.293Z" transform="translate(-7.17 -0.066)" fill="none"/>
    <path id="Path_31439" data-name="Path 31439" d="M22.722,8.293Z" transform="translate(-5.139 -0.066)" fill="#0cac6b"/>
    <path id="Path_31440" data-name="Path 31440" d="M17.583,8.227h0a.787.787,0,0,0-1.106,0L5.422,19.21,1.334,15.191a.786.786,0,0,0-1.105,0,.769.769,0,0,0,0,1.094L4.871,20.85a.794.794,0,0,0,1.106,0L17.583,9.321A.768.768,0,0,0,17.583,8.227Z" transform="translate(0 0)" fill="#0cac6b"/>
    <path id="Path_31441" data-name="Path 31441" d="M22.7,8.268Z" transform="translate(-5.113 -0.041)" fill="#0cac6b"/>
    <path id="Path_31442" data-name="Path 31442" d="M31.678,8.268h0C31.526,8.117,31.6,8.192,31.678,8.268Z" transform="translate(-7.144 -0.041)" fill="#0cac6b"/>
    <path id="Path_31443" data-name="Path 31443" d="M31.7,8.293Z" transform="translate(-7.17 -0.066)" fill="#0cac6b"/>
    <path id="Path_31444" data-name="Path 31444" d="M27.47,8.227h0a.787.787,0,0,0-1.106,0L15.308,19.21l-.992-.923a.786.786,0,0,0-1.105,0,.769.769,0,0,0,0,1.094l1.547,1.47a.794.794,0,0,0,1.106,0L27.47,9.321A.767.767,0,0,0,27.47,8.227Z" transform="translate(-2.936 0)" fill="#0cac6b"/>
  </g>
</svg>
