<svg xmlns="http://www.w3.org/2000/svg" xmlns:xlink="http://www.w3.org/1999/xlink" width="142" height="142" viewBox="0 0 142 142">
  <defs>
    <clipPath id="clip-path">
      <rect id="Rectangle_676" data-name="Rectangle 676" width="142" height="142" transform="translate(-5353 -2953)" fill="#fff"/>
    </clipPath>
  </defs>
  <g id="ghaltakSazan" transform="translate(5353 2953)" clip-path="url(#clip-path)">
    <g id="Group_4386" data-name="Group 4386">
      <path id="ghaltakSazan-2" data-name="ghaltakSazan" d="M56.3,59.991H51.089V51.046l-.005.011A14.167,14.167,0,0,1,46.94,55.6a27.275,27.275,0,0,1-6.959,3.019v-8.7h.046a7.986,7.986,0,0,0,3.9-1.009,9.245,9.245,0,0,0,2.747-3.219V35.123H42.36a.085.085,0,0,1,0,.028,40.951,40.951,0,0,1,0,8.5,2.391,2.391,0,0,1-2.38,2.045l-.143,0c-.122,0-.239.005-.354.005-.911,0-1.724-.141-2.452-1.873a46.35,46.35,0,0,1-.454-7.461h2.947V28.781H42.36v-7.21a5.754,5.754,0,0,0,2.7-1.348,5.932,5.932,0,0,0,1.15-2.966h5.9V13.726h-5.9c0-.023-.212-2.387-1.15-3.311a6.856,6.856,0,0,0-2.7-1.364V2.674L68.173,2.8a1.455,1.455,0,0,1-.027.147c-.559,2.788-2.531,12.461-4.434,19.85-2.185,8.479-4.736,15.5-4.761,15.57.364.252,3.5,2.555,2.36,5.837a3.738,3.738,0,0,1-3.817,2.614,5.339,5.339,0,0,1-1.189-.128V59.991ZM56,42.625a1.963,1.963,0,1,0,1.955-2.143A2.059,2.059,0,0,0,56,42.625ZM22.11,59.99V57.867H7a7.008,7.008,0,0,1-7-7V7A7.008,7.008,0,0,1,7,0H24.267a7.008,7.008,0,0,1,7,7V21.433H19.542V10.573a2,2,0,0,0-2-2H13.725a2,2,0,0,0-2,2V47.294a2,2,0,0,0,2,2h3.817a2,2,0,0,0,2-2v-13H15.634v-6.43H35.176v6.43H31.267v9.057h0V52.9c.852,0,2.271.05,2.319.378s-1.437,1.866-2.319,2.742V59.99Zm39.171-.1V49.549S71.744,50.843,72.923,44.7s-7.516-9.86-7.516-9.86l4.127-12.123S86.187,29.183,85.6,45.671C84.364,58.91,71.894,59.9,71.894,59.9Zm9.562-38.641V12.849H69.053v-5.5h2.34v-4.2s5.807.969,8.246,5.5,1.514,12.608,1.514,12.608ZM36.576,15.418a2.944,2.944,0,1,1,5.863,0,2.944,2.944,0,1,1-5.863,0Z" transform="translate(-5325 -2936)" fill="#002699"/>
      <path id="Path_26967" data-name="Path 26967" d="M-99.548-8.566q.375,3.352.6,5.607t.223,3.592a3.094,3.094,0,0,1-1.529,2.643,10.611,10.611,0,0,1-3.475,1.512,13.937,13.937,0,0,1-3.141.475,5.8,5.8,0,0,1-4.178-1.307,5.447,5.447,0,0,1-1.342-4.061q0-.68.07-1.676t.293-2.988h2.133a35.53,35.53,0,0,0-.363,4.184,2.71,2.71,0,0,0,.932,2.262,4.789,4.789,0,0,0,2.971.738,12.053,12.053,0,0,0,2.7-.334,15.06,15.06,0,0,0,2.842-.967l-1.359-9.551,2.543-.8Zm-7.09-4.1,2.156,2.168-2.156,2.156-2.156-2.156ZM-93.73,0h-2.18l-.562-15.422,2.719-.34Zm9.064-9.328q.422,4.359.422,7.371A7.975,7.975,0,0,1-85.123,1.8a6.717,6.717,0,0,1-2.4,2.631,6.186,6.186,0,0,1-3.352.955,7.128,7.128,0,0,1-2.051-.3V2.426a9.828,9.828,0,0,0,1.488.129,5.346,5.346,0,0,0,3.158-.92A6.483,6.483,0,0,0-86.154-1.16l-1.172-7.5Zm-1.406-6.949,2.156,2.168-2.156,2.156-2.156-2.156ZM-78.778.352a5.627,5.627,0,0,1-3.949-1.2,5.061,5.061,0,0,1-1.348-3.744l-.258-10.758,2.684-.4v12.5a4.148,4.148,0,0,0,2.871.855h1.055V.352Zm21.638-3.7a3.754,3.754,0,0,1-.533,2.027A3.484,3.484,0,0,1-59.126-.018a4.608,4.608,0,0,1-2.057.451A5.417,5.417,0,0,1-62.946.117a8.57,8.57,0,0,1-1.834-.9,5.276,5.276,0,0,1-1.8.891,7.888,7.888,0,0,1-2.244.316A9.673,9.673,0,0,1-71.155.141a6.626,6.626,0,0,1-1.969-.809,5.608,5.608,0,0,1-2,.756,14.171,14.171,0,0,1-2.865.264h-1.055V-2.391l4.875-.012v-6.41h2.32l.059,6.246a10.94,10.94,0,0,0,3.035.34,13.591,13.591,0,0,0,2.918-.27V-8.812h2.32l.059,6.316a6.3,6.3,0,0,0,1.125.2,14.375,14.375,0,0,0,1.453.07,11.185,11.185,0,0,0,1.5-.082l-.434-7.969,2.672-.387ZM-39.989-5.5A7.943,7.943,0,0,0-40.13-7.2a1.852,1.852,0,0,0-.486-.937,2.879,2.879,0,0,0-1.025-.58l-4.57-1.664.82-4.078,8.953-1.84-.141,2.766-7.395,1.207,2.707,1.09a8.358,8.358,0,0,1,2.35,1.266,3,3,0,0,1,.855,1.781,27.617,27.617,0,0,1,.205,4.078l.012,1.23a5.64,5.64,0,0,0,1.313.363,10.131,10.131,0,0,0,1.664.129H-33.8V.352h-1.066A8.43,8.43,0,0,1-37.153.07,5.682,5.682,0,0,1-38.981-.82,27.009,27.009,0,0,1-43.464.246a32.638,32.638,0,0,1-5.2.422A6.816,6.816,0,0,1-53.384-.721,5.611,5.611,0,0,1-54.9-5.051q0-1.2.141-2.918h2.215l-.035.727q-.082,1.184-.082,1.828a3.584,3.584,0,0,0,.463,1.945,2.654,2.654,0,0,0,1.482,1.061,9.084,9.084,0,0,0,2.742.334A31.349,31.349,0,0,0-43.558-2.4a29.177,29.177,0,0,0,3.568-.686Zm9.064-5.227-1.969-1.793,1.969-1.793,1.957,1.781,1.945-1.77,1.969,1.793-1.969,1.793-1.957-1.781Zm6.738,8.332V.352h-1.055A7.949,7.949,0,0,1-27.41.029,6.607,6.607,0,0,1-29.3-.8,6.908,6.908,0,0,1-31.388.07a11.535,11.535,0,0,1-2.689.281h-1.055V-2.391h1.055A17.749,17.749,0,0,0-32-2.49a7.472,7.472,0,0,0,1.535-.346l.023-6.3h2.3l.059,6.246a7.694,7.694,0,0,0,1.359.381,8.372,8.372,0,0,0,1.488.123Zm5.83-.492a8.8,8.8,0,0,0,3.27.492h1.055V.352h-1.055A8.684,8.684,0,0,1-17.478,0a10.336,10.336,0,0,1-2.215-.9,7.855,7.855,0,0,1-2.145.9,9.823,9.823,0,0,1-2.613.357h-1.055V-2.391h1.055q1.23,0,2.291-.1a6.553,6.553,0,0,0,1.646-.322L-21.1-15.422l2.719-.328Zm14.912-6.3a19.083,19.083,0,0,0-3.094-.246,17.263,17.263,0,0,0-2.1.123,9.558,9.558,0,0,0-1.764.369,15.919,15.919,0,0,0,.744,2.906A15.172,15.172,0,0,0-8.379-3.187l6.938-1.934v2.813q-1.008.27-2.578.727-2.2.633-3.709,1.014t-3.217.65a21.664,21.664,0,0,1-3.375.27h-1.031V-2.391h1.031a26.07,26.07,0,0,0,3.445-.246,11.553,11.553,0,0,1-1.289-2.6,7.511,7.511,0,0,1-.445-2.408,4.485,4.485,0,0,1,.68-2.484,4.366,4.366,0,0,1,2.01-1.629,8.2,8.2,0,0,1,3.252-.574,13.816,13.816,0,0,1,3.223.387ZM-7.594-18.48l2.156,2.168-2.156,2.156L-9.75-16.312Z" transform="translate(-5225.193 -2832)" fill="#002699"/>
    </g>
  </g>
</svg>
