<svg xmlns="http://www.w3.org/2000/svg" xmlns:xlink="http://www.w3.org/1999/xlink" width="142" height="142" viewBox="0 0 142 142">
  <defs>
    <clipPath id="clip-path">
      <rect id="Rectangle_676" data-name="Rectangle 676" width="142" height="142" transform="translate(-5353 -2953)" fill="#fff"/>
    </clipPath>
  </defs>
  <g id="ghaltakSazan" transform="translate(5353 2953)" clip-path="url(#clip-path)">
    <g id="Group_4386" data-name="Group 4386">
      <path id="ghaltakSazan-2" data-name="ghaltakSazan" d="M56.3,59.991H51.089V51.046l-.005.011A14.167,14.167,0,0,1,46.94,55.6a27.275,27.275,0,0,1-6.959,3.019v-8.7h.046a7.986,7.986,0,0,0,3.9-1.009,9.245,9.245,0,0,0,2.747-3.219V35.123H42.36a.085.085,0,0,1,0,.028,40.951,40.951,0,0,1,0,8.5,2.391,2.391,0,0,1-2.38,2.045l-.143,0c-.122,0-.239.005-.354.005-.911,0-1.724-.141-2.452-1.873a46.35,46.35,0,0,1-.454-7.461h2.947V28.781H42.36v-7.21a5.754,5.754,0,0,0,2.7-1.348,5.932,5.932,0,0,0,1.15-2.966h5.9V13.726h-5.9c0-.023-.212-2.387-1.15-3.311a6.856,6.856,0,0,0-2.7-1.364V2.674L68.173,2.8a1.455,1.455,0,0,1-.027.147c-.559,2.788-2.531,12.461-4.434,19.85-2.185,8.479-4.736,15.5-4.761,15.57.364.252,3.5,2.555,2.36,5.837a3.738,3.738,0,0,1-3.817,2.614,5.339,5.339,0,0,1-1.189-.128V59.991ZM56,42.625a1.963,1.963,0,1,0,1.955-2.143A2.059,2.059,0,0,0,56,42.625ZM22.11,59.99V57.867H7a7.008,7.008,0,0,1-7-7V7A7.008,7.008,0,0,1,7,0H24.267a7.008,7.008,0,0,1,7,7V21.433H19.542V10.573a2,2,0,0,0-2-2H13.725a2,2,0,0,0-2,2V47.294a2,2,0,0,0,2,2h3.817a2,2,0,0,0,2-2v-13H15.634v-6.43H35.176v6.43H31.267v9.057h0V52.9c.852,0,2.271.05,2.319.378s-1.437,1.866-2.319,2.742V59.99Zm39.171-.1V49.549S71.744,50.843,72.923,44.7s-7.516-9.86-7.516-9.86l4.127-12.123S86.187,29.183,85.6,45.671C84.364,58.91,71.894,59.9,71.894,59.9Zm9.562-38.641V12.849H69.053v-5.5h2.34v-4.2s5.807.969,8.246,5.5,1.514,12.608,1.514,12.608ZM36.576,15.418a2.944,2.944,0,1,1,5.863,0,2.944,2.944,0,1,1-5.863,0Z" transform="translate(-5325 -2936)" fill="#002699"/>
      <text id="غلتک_سازان" data-name="غلتک‌سازان" transform="translate(-5229.193 -2832)" fill="#002699" font-size="24" font-family="Shabnam" letter-spacing="-0.011em"><tspan x="-106.462" y="0">غلتک‌سازان</tspan></text>
    </g>
  </g>
</svg>
