<svg width="24" height="24" viewBox="0 0 24 24" fill="none" xmlns="http://www.w3.org/2000/svg">
<path d="M13.0634 13.9741L13.3746 13.9903L13.6775 14.0102L13.9739 14.0337L14.2635 14.0609C14.3112 14.0657 14.3586 14.0707 14.4057 14.0758L14.6844 14.1085L14.9553 14.1449C14.9998 14.1512 15.044 14.1577 15.0878 14.1644L15.3464 14.2062C15.4311 14.2207 15.5144 14.2358 15.5962 14.2516L15.8369 14.3006C17.1744 14.5886 18.0538 15.0503 18.157 15.6778L18.164 15.7336L18.1667 15.7968V18.1534C18.1667 18.779 17.3741 19.2672 16.1028 19.584L15.8736 19.6382C15.7565 19.6644 15.6359 19.6892 15.5119 19.7126L15.2595 19.7577L14.9984 19.7991L14.7292 19.8367L14.4522 19.8705L14.1676 19.9005C14.1196 19.9052 14.0713 19.9097 14.0227 19.9141L13.7278 19.9383C13.678 19.942 13.6281 19.9455 13.5778 19.9489L13.2733 19.9672C13.222 19.9699 13.1705 19.9725 13.1188 19.9748L12.8055 19.9871C12.7528 19.9888 12.6999 19.9904 12.6468 19.9917L12.3257 19.9979L11.9998 20L11.6703 19.9979L11.3455 19.9915C11.2381 19.9887 11.1316 19.9852 11.026 19.981L10.7121 19.9663C10.6084 19.9607 10.5058 19.9544 10.4042 19.9475L10.1027 19.9246C10.053 19.9205 10.0036 19.9162 9.95447 19.9117L9.66335 19.8828C9.61544 19.8777 9.56784 19.8724 9.52055 19.8669L9.24072 19.8321L8.96891 19.7934C8.61204 19.7393 8.27767 19.6749 7.9701 19.6007L7.74452 19.5432C6.64243 19.2466 5.9325 18.8137 5.84229 18.2683L5.83534 18.2133L5.83285 18.1534V15.7968C5.83285 15.2056 6.49849 14.7516 7.59011 14.4412L7.80664 14.383C8.06532 14.3171 8.34493 14.2585 8.64271 14.2074L8.90234 14.1654L9.03538 14.1458L9.30763 14.1093C9.35368 14.1035 9.40006 14.0978 9.44676 14.0924L9.73077 14.0613L10.0221 14.034C10.0713 14.0297 10.1207 14.0256 10.1705 14.0217L10.4721 13.9999C10.523 13.9965 10.5741 13.9934 10.6254 13.9904L10.9365 13.9741C11.158 13.9678 11.3446 14.138 11.3588 14.3616C11.3638 14.4694 11.3257 14.5747 11.253 14.6544C11.1802 14.7341 11.0788 14.7816 10.9711 14.7864L10.6753 14.8022L10.3869 14.8219L10.1063 14.8452C10.0602 14.8493 10.0145 14.8536 9.96907 14.8581L9.70085 14.8864L9.44133 14.9177L9.1909 14.9518L8.9499 14.9885L8.71872 15.0274L8.49772 15.0683L8.28726 15.111L8.08772 15.1553L7.89946 15.2008C7.86904 15.2085 7.83911 15.2162 7.80967 15.224L7.63902 15.271L7.48057 15.3187L7.33469 15.3668L7.20175 15.415L7.0821 15.4632C7.00686 15.4952 6.94073 15.527 6.8842 15.5583L6.80667 15.6047C6.70137 15.6736 6.64592 15.7389 6.64592 15.7968C6.64592 15.8193 6.71071 15.8874 6.84024 15.9698L6.89274 16.0021L7.0672 15.9382C7.78465 15.6841 8.52719 15.5096 9.27786 15.4182L9.52835 15.3908L9.77931 15.3696C9.9263 15.3501 10.0722 15.4123 10.16 15.5317C10.2479 15.6511 10.2638 15.8089 10.2015 15.9435C10.1391 16.078 10.0085 16.1679 9.86339 16.1779C9.3932 16.2195 8.92615 16.2891 8.46473 16.3862L8.17808 16.4498L8.18475 16.4517C8.90343 16.6202 9.63483 16.73 10.3726 16.7801L10.6892 16.7979L10.9712 16.8075C11.5241 16.8331 12.1233 16.8374 12.6936 16.8202L13.0317 16.8074C13.7707 16.7899 14.5064 16.7122 15.2316 16.5754L15.5417 16.5132L15.8124 16.4523L15.5414 16.3929C14.9121 16.2607 14.2742 16.1714 13.6317 16.1258L13.3101 16.1067L13.0282 16.0959C12.9205 16.0909 12.8191 16.0434 12.7465 15.9637C12.6738 15.884 12.6358 15.7788 12.6408 15.6692C12.6539 15.4477 12.8408 15.2768 13.0648 15.2836C14.7346 15.3602 16.1721 15.6107 17.0752 15.9823L17.113 15.9984L17.1612 15.969C17.2573 15.9075 17.3175 15.854 17.3416 15.8216L17.3506 15.8073L17.3536 15.7968C17.3536 15.7068 17.2195 15.5988 16.9722 15.4872L16.8593 15.4391C16.8394 15.4311 16.8189 15.4231 16.7978 15.415L16.6649 15.3668L16.519 15.3187L16.3605 15.271L16.1898 15.224L16.0074 15.1779L15.8134 15.133L15.6083 15.0895L15.3925 15.0476L15.1664 15.0077L14.9302 14.9698L14.6845 14.9345L14.4294 14.9017L14.1655 14.8719C14.1208 14.8671 14.0757 14.8626 14.0303 14.8581L13.7537 14.8331L13.4692 14.8116C13.4211 14.8083 13.3727 14.8052 13.324 14.8022L13.0282 14.7864C12.9205 14.7815 12.8191 14.7339 12.7465 14.6543C12.6738 14.5746 12.6358 14.4693 12.6409 14.3591C12.6549 14.1378 12.8418 13.9676 13.0634 13.9741ZM17.3541 16.7892L17.3136 16.8125L17.2873 16.8236C16.3826 17.2617 14.7962 17.54 13.0658 17.6195C12.72 17.6354 12.3614 17.6435 11.9998 17.6435C11.6368 17.6435 11.2781 17.6353 10.9335 17.6192C10.4846 17.5986 10.0455 17.5646 9.62584 17.5181L9.27108 17.4752C8.22239 17.3372 7.31996 17.1176 6.72627 16.8294C6.70701 16.8224 6.68832 16.8139 6.67443 16.8064L6.64592 16.7897V18.1534C6.64592 18.2089 6.74816 18.2959 6.93563 18.394L7.04624 18.4485C7.06605 18.4578 7.08653 18.467 7.10769 18.4764L7.2425 18.5329C7.3138 18.5613 7.39087 18.5898 7.47336 18.6181L7.64545 18.6742C7.70516 18.6927 7.76717 18.711 7.83139 18.7289L7.93389 18.7567C8.96047 19.027 10.3579 19.1869 12.0003 19.1869C13.6167 19.1869 14.9957 19.0321 16.0191 18.769C16.0893 18.751 16.1572 18.7325 16.2227 18.7137L16.4119 18.6563C16.5331 18.6176 16.6443 18.5781 16.7444 18.5388L16.8861 18.4802C17.1525 18.364 17.3151 18.2549 17.3475 18.1813L17.3529 18.1637L17.3542 18.1534L17.3541 16.7892ZM11.9998 7.52788L12.0792 7.53002C12.7889 7.5683 13.3672 8.1169 13.445 8.82421L13.4515 8.90344L13.4537 8.98176V10.0293C13.4529 10.6612 13.0452 11.2163 12.449 11.4117L12.4062 11.4242L12.4063 16.1896C12.4063 16.382 12.2726 16.5433 12.093 16.5854L12.0472 16.5934L11.9998 16.5961C11.8132 16.5961 11.6534 16.4697 11.606 16.286L11.5965 16.2389L11.5933 16.1896L11.593 11.4242L11.551 11.4121C11.0393 11.2457 10.6608 10.8086 10.5678 10.2773L10.5555 10.1927L10.5483 10.1108L10.5459 10.0291V8.98176C10.5459 8.20557 11.1542 7.57145 11.92 7.53004L11.9998 7.52788ZM12.0711 4.00044C12.8865 3.98932 13.691 4.18897 14.4086 4.58117C14.9473 4.88681 15.556 5.04757 16.1753 5.04777C18.279 5.04777 19.9995 6.21232 19.9995 7.6839C19.9859 8.17904 19.8005 8.65167 19.4788 9.02262L19.4034 9.10449L19.4258 9.17123C19.4422 9.22647 19.4547 9.28284 19.4631 9.33991L19.4726 9.42597L19.4759 9.51277C19.4759 10.4142 18.482 11.0976 17.2365 11.0976C15.991 11.0976 14.9971 10.4142 14.9973 9.50666C15.0132 9.12904 15.1809 8.77796 15.4559 8.52908L15.5212 8.4735L15.5412 8.45789L15.524 8.43328C15.4754 8.36965 15.4201 8.31162 15.3595 8.26042L15.2972 8.21153L15.2315 8.16745C15.0497 8.06193 14.8175 8.11118 14.6994 8.27369C14.6895 8.28949 14.6801 8.31004 14.6711 8.33562L14.6539 8.39353C14.6511 8.40432 14.6484 8.4157 14.6457 8.42765L14.6302 8.50653L14.6158 8.59999L14.5959 8.76853L14.578 8.97253L14.5564 9.30247L14.5368 9.70212L14.4966 10.7864L14.4779 11.2155L14.4573 11.597L14.442 11.827L14.4164 12.1385L14.397 12.3257C14.3936 12.3556 14.3902 12.3849 14.3866 12.4136L14.3641 12.579C14.3562 12.6318 14.3479 12.6825 14.3391 12.7313L14.3116 12.8718L14.2811 13.0018C14.2758 13.0226 14.2703 13.0431 14.2647 13.0632L14.2295 13.1798C14.1987 13.2736 14.1644 13.3598 14.1258 13.4415C14.0297 13.6444 13.7872 13.7311 13.5843 13.635C13.3813 13.5389 13.2947 13.2965 13.3909 13.0934C13.4319 13.0069 13.4676 12.8983 13.4989 12.7652L13.5287 12.6238L13.5556 12.4656L13.58 12.2898L13.6019 12.0962L13.6216 11.884L13.6392 11.6527L13.6549 11.4019L13.6689 11.1309L13.6891 10.6356L13.7113 9.99657L13.7319 9.50207L13.7547 9.09082L13.7674 8.91327L13.7814 8.75275L13.7968 8.608L13.8137 8.47776C13.8167 8.4572 13.8198 8.43718 13.8229 8.41769L13.8427 8.30686L13.8647 8.20739L13.889 8.11802L13.9159 8.03749C13.9253 8.01198 13.9352 7.98774 13.9456 7.96454L13.9783 7.89792C13.9897 7.87662 14.0016 7.85617 14.0141 7.83635C14.3717 7.30757 15.076 7.14311 15.6342 7.46085C15.8284 7.57853 15.9995 7.72901 16.1405 7.9048L16.2085 7.99476L16.2655 8.08043L16.2821 8.07476C16.5022 8.00374 16.7294 7.95812 16.9575 7.93872L17.0944 7.93023L17.2313 7.92806C17.7567 7.90931 18.2727 8.04802 18.7148 8.32221L18.8155 8.38788L18.8982 8.44714L18.929 8.40921C19.0524 8.24522 19.1347 8.0543 19.169 7.85376L19.1808 7.76728L19.1865 7.67992C19.1865 6.74225 17.9745 5.93688 16.4146 5.86594L16.3025 5.86213L16.1775 5.86084C15.9949 5.86064 15.8128 5.84918 15.632 5.82658L15.4517 5.80028L15.401 5.79047L15.4131 5.81792C15.4712 5.96202 15.5112 6.11307 15.5319 6.26762L15.5438 6.38414L15.5484 6.50165C15.5484 6.72618 15.3663 6.90819 15.1418 6.90819C14.9173 6.90819 14.7353 6.72618 14.7353 6.50165C14.7353 5.60564 13.526 4.83868 12.0019 4.81584C10.4736 4.83868 9.26429 5.60564 9.26429 6.50165C9.26429 6.72618 9.08227 6.90819 8.85775 6.90819C8.63323 6.90819 8.45122 6.72618 8.45122 6.50054C8.45272 6.30469 8.48508 6.1113 8.54624 5.92725L8.58639 5.81799L8.59812 5.79088L8.55177 5.80006C8.47265 5.81339 8.39308 5.82454 8.31312 5.83351L8.19286 5.84533L8.0114 5.85688L7.82271 5.86084C6.14947 5.86084 4.81307 6.69381 4.813 7.67551C4.82023 7.91257 4.89277 8.1412 5.02024 8.33724L5.07059 8.40918L5.10095 8.44714L5.18407 8.38787C5.58129 8.11566 6.04524 7.95743 6.52252 7.93045L6.64209 7.92645L6.76203 7.92797C7.08996 7.92563 7.41579 7.97644 7.72692 8.07814L7.74398 8.08415L7.80121 7.99797C7.91053 7.84359 8.04211 7.70589 8.19234 7.58897L8.28468 7.52134L8.38131 7.45889C8.93591 7.14287 9.64033 7.30742 9.99995 7.84015L10.0354 7.90112C10.0411 7.91168 10.0466 7.92246 10.052 7.93348L10.0828 8.0027L10.1108 8.07897C10.1197 8.10571 10.1281 8.13383 10.1361 8.16354L10.1591 8.25765C10.1627 8.2742 10.1662 8.29119 10.1697 8.30867L10.1894 8.41942L10.2071 8.54282L10.2232 8.68012L10.2445 8.91484L10.2572 9.09231L10.2745 9.39313L10.2903 9.73922L10.3246 10.6965L10.3419 11.12L10.3634 11.5173L10.3801 11.7584L10.3988 11.981L10.4197 12.1853C10.4234 12.2179 10.4272 12.2497 10.431 12.2807L10.4556 12.4584C10.4685 12.5428 10.4824 12.6208 10.4974 12.6924L10.5288 12.8274C10.5562 12.9329 10.5867 13.0213 10.6208 13.0935C10.7169 13.2965 10.6303 13.5389 10.4273 13.635C10.2244 13.7311 9.98195 13.6444 9.88584 13.4414C9.82902 13.3213 9.78107 13.1875 9.74021 13.0321L9.70689 12.8934C9.70161 12.8694 9.69647 12.8448 9.69145 12.8198L9.66289 12.6633C9.65837 12.6361 9.65398 12.6084 9.6497 12.5802L9.62533 12.4034L9.60346 12.2117L9.58384 12.004L9.56623 11.7793L9.54302 11.4078L9.52294 10.9919L9.48411 9.92925L9.46043 9.39582L9.44506 9.1294L9.42848 8.90131L9.41041 8.71L9.3974 8.60212L9.38352 8.50944C9.38113 8.49523 9.3787 8.48164 9.37622 8.46865L9.36089 8.3979C9.34768 8.34485 9.33334 8.30643 9.31768 8.28144C9.19436 8.1113 8.96234 8.06199 8.78424 8.16501C8.69149 8.22252 8.6081 8.29313 8.53647 8.37431L8.48499 8.43713L8.465 8.46492L8.48566 8.48054C8.75091 8.69507 8.92857 9.00019 8.98468 9.34015L8.99616 9.42583L9.00245 9.51277C9.00245 10.4142 8.00853 11.0976 6.76306 11.0976C5.5176 11.0976 4.52367 10.4142 4.52367 9.51244C4.52387 9.42555 4.53346 9.3392 4.55211 9.25484L4.57378 9.17122L4.59575 9.10449L4.59178 9.10053C4.27514 8.76992 4.07387 8.3466 4.01628 7.89182L4.00555 7.78635L4 7.67992C4 6.27355 5.5839 5.13856 7.5707 5.05293L7.69038 5.04906L7.82103 5.04777C8.4416 5.05068 9.05194 4.88983 9.59298 4.58005C10.2127 4.24137 10.8995 4.04601 11.6049 4.00717L11.768 4.00099L11.9316 4.00052L11.9967 4.00308L12.0711 4.00044ZM11.9998 8.34122C11.6843 8.34122 11.4195 8.57017 11.3683 8.86933L11.3612 8.92621L11.359 8.98203V10.0294C11.359 10.3442 11.5869 10.6086 11.8852 10.6605L11.942 10.6678L12.0019 10.6702C12.3167 10.6691 12.5804 10.4403 12.6313 10.1418L12.6384 10.0851L12.6406 10.0294V8.98203C12.6406 8.62812 12.3537 8.34122 11.9998 8.34122ZM17.2365 8.74104C16.516 8.74104 15.8102 9.09803 15.8102 9.51277C15.8102 9.9092 16.4539 10.2845 17.2365 10.2845C18.0191 10.2845 18.6629 9.9092 18.6629 9.51549C18.6619 9.46435 18.6519 9.41396 18.6352 9.36977L18.6163 9.32785L18.5837 9.27434C18.3781 8.96573 17.8371 8.74104 17.2365 8.74104ZM6.76478 8.74103C6.22814 8.74103 5.73751 8.91928 5.49521 9.1751L5.45273 9.22395L5.41599 9.2743C5.36599 9.34698 5.33864 9.43052 5.33674 9.51277C5.33674 9.9092 5.98049 10.2845 6.76306 10.2845C7.54563 10.2845 8.18938 9.9092 8.19047 9.53053C8.16406 9.3169 8.0402 9.1292 7.86179 9.02217L7.80668 8.99254L7.74613 8.96648L7.74646 8.96517L7.73722 8.9632C7.47199 8.83168 7.18432 8.75716 6.89086 8.74327L6.76478 8.74103Z" fill="#08B89D"/>
</svg>
