<svg id="hadi" xmlns="http://www.w3.org/2000/svg" width="200" height="220" viewBox="0 0 200 220">
  <g id="svga-group-backs-single">
    <path id="SvgjsPath3825" d="M0,0H200V220H0Z" fill="#a6d8bd"/>
  </g>
  <g id="svga-group-humanwrap-move" transform="translate(10.9 40.946)">
    <g id="svga-group-humanwrap">
      <g id="svga-group-humanbody-back" transform="translate(4.8 50.753)">
        <path id="SvgjsPath3778" d="M180.8,184.9c-2.3-3.4-38.9-17.8-38.9-17.8l-13.4-5.2-5.6-68.8H76.8L71.3,162l-13.4,5.2S21.4,181.6,19,185c-2.3,3.4-3.3,14.9-3.3,14.9V219H184.2V199.8c-.1.1-1-11.5-3.4-14.9Z" transform="translate(-15.7 -93.1)" fill="#f0c7b1"/>
      </g>
      <g id="svga-group-chinshadow-single" transform="translate(60.96 50.753)">
        <path id="SvgjsPath4222" d="M94.3,163.2a39.846,39.846,0,0,0,30.2-15c.96-1.2,1.83-2.36,2.64-3.5l-4.2-51.6H76.82l-4.96,62.4A38.761,38.761,0,0,0,94.3,163.2Z" transform="translate(-71.86 -93.1)" fill="#d19271"/>
      </g>
      <g id="svga-group-humanbody-front" transform="translate(3.9 49.853)">
        <path id="SvgjsPath3779" d="M184.5,219c-.1-6.4-.1-12.8-.1-19.2l-.3-.1a.138.138,0,0,1,.2,0,.1.1,0,0,1,.1.1v-.4l-.1-.5-.1-.9-.2-1.9c-.2-1.3-.4-2.5-.6-3.8a26.155,26.155,0,0,0-.9-3.8,16.135,16.135,0,0,0-1.5-3.6,11.929,11.929,0,0,0-2.9-2.1c-1-.6-2.1-1.1-3.2-1.7-2.1-1.1-4.3-2.1-6.5-3.1-4.4-2-8.7-3.9-13.1-5.7-4.4-1.9-8.8-3.7-13.2-5.5l-13-5.2-1.2-16.9c-.4-5.7-.9-11.5-1.3-17.2l-1.3-17.2L123.8,93l-.1-.8h-.8c-7.7,0-15.4.1-23.1.1l-23.1.2h-.5V93L75,110.2l-1.3,17.2c-.8,11.4-1.8,22.8-2.8,34.2-5.6,2.1-11.2,4.2-16.7,6.4q-8.4,3.3-16.8,6.9c-2.8,1.2-5.6,2.4-8.3,3.6a89.553,89.553,0,0,0-8.2,4.1,12.141,12.141,0,0,0-2,1.4,1.47,1.47,0,0,0-.5.6l-.3.6a5.359,5.359,0,0,0-.5,1.1,25.424,25.424,0,0,0-1.3,4.5,90.7,90.7,0,0,0-1.4,9.1L14.8,219v.9h.9l42.1.1H100c14,0,28.1-.1,42.1-.2l42.1-.5h.3V219ZM100,218l-42.1-.1-41.2.1-.1-18.1c.3-3,.6-5.9,1.2-8.9a28.755,28.755,0,0,1,1.1-4.2,7.93,7.93,0,0,1,.4-.9l.2-.4.3-.3a14.036,14.036,0,0,1,1.8-1.2c2.5-1.5,5.3-2.8,8-4.1s5.5-2.5,8.2-3.7c5.5-2.4,11.1-4.8,16.7-7.1s11.2-4.5,16.9-6.7l.2-.1v-.2c.9-11.5,1.7-23,2.7-34.4l1.4-17.2,1.5-16.7,22.6.2c7.4.1,14.8.1,22.3.1l1.3,16.4,1.5,17.2c.5,5.7,1,11.5,1.5,17.2l1.6,17.2v.3l.3.1,13.4,5c4.4,1.7,8.9,3.4,13.3,5.2s8.8,3.7,13.2,5.6c2.2,1,4.3,2,6.5,3,1.1.5,2.1,1.1,3.2,1.6a14.92,14.92,0,0,1,2.9,2,11.669,11.669,0,0,1,1.4,3.5c.3,1.2.6,2.5.8,3.7.2,1.3.4,2.5.6,3.8l.2,1.9.1.9.1.5v.4c0,6.3,0,12.6-.1,18.9l-41.8-.5c-14,.1-28.1,0-42.1,0Z" transform="translate(-14.8 -92.2)" fill="#c27b55"/>
        <path id="SvgjsPath3780" d="M125.1,142.4s-1.8,23-9.1,32.9C116,175.3,123.9,150.3,125.1,142.4Zm-34.5,16s5,7.9,11.5,10.1C102.1,168.5,92.6,170.7,90.6,158.4ZM73.4,140c6.7,25.6,6.7,25.6,8.5,30.7C81.9,170.7,82.3,158.1,73.4,140Z" transform="translate(-14.8 -92.2)" fill="#d19271"/>
      </g>
      <g id="svga-group-clothes-single" transform="translate(0 105.153)">
        <path id="SvgjsPath6421" d="M69.9,150.1l-1.8.9s-1.4,2.9-2.4,5.1S61,162,61,162a20.019,20.019,0,0,0-.6,2.9s-12.3,4.2-15.9,5.6-19.2,6.3-21.3,6.4a15,15,0,0,0-5.1,1.8,9.328,9.328,0,0,0-3.9,4.5c-1,2.8-2.6,34.4-2.6,36.8H187.5s-1.8-32.4-3.5-34.9c-.6-.9-.2-2.6-5.9-5.1s-17-7-20.8-8.5-19.3-7.2-19.3-7.2a4.552,4.552,0,0,0-2.3-3.4c-2.1-1.1-5.3-9.8-5.3-9.8l-1.3-1.3a91.82,91.82,0,0,1,.2,9.6c-.2,4.5-4.7,11.7-7.9,13.8s-9,5.7-11.3,6.6-2.8,3.4-3.8,5.9-2.6,5.9-2.6,5.9a69.509,69.509,0,0,1-5.3-7.6c-1.7-3.2-4-5.5-8.3-5.1-4.2.4-5.5-.9-7-1.7-1.5-.9-10.6-15.1-11.9-18.7a40.165,40.165,0,0,1-1.3-8.4Z" transform="translate(-10.9 -147.5)" fill="#566163"/>
        <path id="SvgjsPath6422" d="M188.3,220c-.4-6.9-.8-13.8-1.3-20.7-.3-3.5-.6-6.9-1.1-10.4a23.816,23.816,0,0,0-.5-2.6,5.271,5.271,0,0,0-.5-1.5l-.1-.2-.1-.2-.3-.6a7.317,7.317,0,0,0-1.9-2.3c-.8-.6-1.5-1-2.3-1.5a49.969,49.969,0,0,0-4.8-2.1l-4.8-2-9.6-4c-6.2-2.5-15.8-5.4-21.9-8.3a5.6,5.6,0,0,0-2.4-3.3l-.3-.1a.31.31,0,0,0-.2-.1c-.1-.1-.1-.1-.2-.1a3.171,3.171,0,0,1-.5-.6,7.837,7.837,0,0,1-1-1.5,60.682,60.682,0,0,1-3.1-6.9l-.1-.2-.1-.1-1.3-1.3-1.9-1.9.2,2.8q.3,3.45.3,6.9v2.6l-.1.8a18.116,18.116,0,0,1-.9,3.1,26.246,26.246,0,0,1-3.3,5.9,17.874,17.874,0,0,1-2.2,2.5,10.593,10.593,0,0,1-1.2,1,6.376,6.376,0,0,1-1.4.8c-4.1,2.1-4.9,3.8-9.2,5.5a4.869,4.869,0,0,0-1.8,1.1,8.346,8.346,0,0,0-1.2,1.6,28.057,28.057,0,0,0-1.3,3.3l-.9,2.1c-.5,1-.9,2-1.4,3-1.2-1.6-2.5-3.2-3.6-4.9-.3-.5-.6-1-.9-1.6a16.286,16.286,0,0,0-1.1-1.7,8.614,8.614,0,0,0-3-2.7,7.845,7.845,0,0,0-4-.9c-.5.1-3.5.1-7.7-1.7-.5-.2-1.5-1.9-2.3-2.9-.7-1-1.5-2.1-2.2-3.1-1.4-2.1-2.8-4.2-4.1-6.4-.7-1.1-1.3-2.2-1.9-3.3a12.811,12.811,0,0,1-1.4-3.4c.1-1.6.4-4.6.5-5.7,0,0,.1-2.2.1-2.4-1.2-.1-3.2,1.1-3.9,1.4l-1.5,3a26.389,26.389,0,0,1-1.5,2.9,25.6,25.6,0,0,1-2,2.6c-.7.8-1.5,1.6-2.3,2.4l-.1.1v.1a5.732,5.732,0,0,1-.4,1.4,5.067,5.067,0,0,0-.2,1.3c-3.2,1.4-9.4,2.7-12.6,4.1s-6.6,2.4-10,3.5c-3.4,1-6.8,2.1-10.1,3-.9.2-1.7.5-2.5.7l-1.2.3c-.2,0-.3.1-.6.1-.2,0-.5.1-.7.1a27.584,27.584,0,0,0-2.7.8l-1.2.6-.6.3c-.3.1-.4.3-.6.4a9.779,9.779,0,0,0-3.6,4.4,3.926,3.926,0,0,0-.3,1.4l-.2,1.3-.3,2.7c-.3,3.5-.6,7.1-.8,10.6l-.7,10.6c-.2,3.6-.4,7-.5,10.6v.9h.9l22-.1,22-.2,22-.2,22-.1c7.3-.1,14.7,0,22,0s14.7,0,22,.1l44,.3h.8l-.3-1.2Zm-68.2-44.9c.5-.3,1.1-.6,1.6-.9a5.665,5.665,0,0,0,1.5-1.2,20.936,20.936,0,0,0,2.4-2.8,32.252,32.252,0,0,0,3.6-6.3,18.93,18.93,0,0,0,1-3.6l.1-1v-2.7c0-1,0-2-.1-3a43.73,43.73,0,0,0,2.3,4.9,17.393,17.393,0,0,0,1.1,1.8,6.469,6.469,0,0,0,.8.9,3.111,3.111,0,0,0,.6.4l.4.2a4.741,4.741,0,0,1,1,1,7.838,7.838,0,0,1,.5,1.4l.1.6v.1c.5,2.7,1.1,5.3,1.7,8,.6,2.6,1.4,5.3,2.2,7.9l2.3,7.8,1.1,3.9c.2.8.5,1.7.7,2.5a12.971,12.971,0,0,1-3.9-1.4,26.838,26.838,0,0,1-2.3-1.7,22.688,22.688,0,0,0-2.5-1.8,28.554,28.554,0,0,0-5.4-3l-1.4-.6c-.4-.2-.9-.4-1.3-.6-.8-.5-1.6-1-2.4-1.6a20,20,0,0,1-2.2-1.9,8.7,8.7,0,0,1-.9-1.1,2.092,2.092,0,0,1-.4-.6l-.2-.3-.3-.4a9.127,9.127,0,0,0-5.6-2.8,3.4,3.4,0,0,0-1-.1,45.322,45.322,0,0,0,4.9-2Zm-12.8,10.4c.9-2.2.5-4.6,6.9-7.5a6,6,0,0,1,2.3.2,7.467,7.467,0,0,1,4.5,2.7l.2.2.2.3c.1.1.2.3.3.4a21.034,21.034,0,0,1-5.9,3.2c-1.7.5-3.3.9-5,1.4-1.5.3-2.9.7-4.4.9l.9-1.8Zm-4.5,6.1a43.876,43.876,0,0,1-4,5.6l-.4.4c-1.7-3.4-5.1-8.9-6.2-10.7a6.6,6.6,0,0,0,1.4.1,36.171,36.171,0,0,0,5.7-.1C100.5,188.5,101.6,190.1,102.8,191.6ZM91,179.5a6.216,6.216,0,0,1,3.3.8,8.158,8.158,0,0,1,2.5,2.4,8.272,8.272,0,0,1,.9,1.6,15.053,15.053,0,0,0,1,1.7l.6.9a50.5,50.5,0,0,1-5.6-.6c-2-.3-4-.6-6-1s-6.6-2.2-8.4-2.7c.5-.6,1-1.1,1.5-1.7a4.778,4.778,0,0,1,1.8-1.7,6.344,6.344,0,0,1,2.4-.3c.1,0,5.4.6,6,.6ZM61.4,162.2c.8-.8,1.5-1.6,2.2-2.4a26.93,26.93,0,0,0,2-2.7c.6-1,.9-2,1.4-3l1.3-3c.5-.3,1-.6,1.6-.9v.8l.1.9c.1.6.1,1.3.2,1.9.2,1.3.4,2.5.7,3.8a18.352,18.352,0,0,0,1.5,3.6c.6,1.1,1.2,2.2,1.8,3.4,1.3,2.2,2.6,4.4,3.9,6.5.7,1.1,1.4,2.1,2.1,3.2a23.4,23.4,0,0,0,2.4,3.1,2.361,2.361,0,0,0,.9.6.1.1,0,0,1,.1.1,6.753,6.753,0,0,0-1.4.2,5.67,5.67,0,0,0-1.3.8c-.4.4-.6.7-.9,1L78.1,182c-1.3,1.3-2.6,2.5-3.9,3.7s-2.7,2.4-4,3.6a47.314,47.314,0,0,1-4.3,3.1c-2.5,1.6-5.1,3.1-7.7,4.5.5-5.5,1-11,1.4-16.5l.7-9.1c.2-2,.3-3.9.5-5.9l.2-.1v-.2a7.844,7.844,0,0,1,.2-1.4,6.052,6.052,0,0,1,.2-1.5Zm-5.8,57.2-22-.2-21.1-.1c.3-6.7.6-13.5,1-20.2.2-3.5.4-7.1.8-10.6.1-.9.2-1.8.3-2.6l.2-1.3c0-.2.1-.4.1-.6a1.268,1.268,0,0,0,.1-.6,7.643,7.643,0,0,1,3.1-3.6,2.186,2.186,0,0,0,.5-.3l.6-.3a6.118,6.118,0,0,1,1.2-.5,22.5,22.5,0,0,1,2.4-.8c.2,0,.4-.1.6-.1l.7-.1c.5-.1.9-.2,1.3-.3.9-.2,1.7-.5,2.6-.7,3.4-1,6.8-2.1,10.1-3.2a92.539,92.539,0,0,0,10-3.7c3.1-1.4,9.2-2.8,12.3-4.2-.3,1.9-.6,3.7-.9,5.6-.5,3-1,6.1-1.3,9.1-.8,6.1-1.4,12.2-2.1,18.3l-.2,1.8,1.6-.8A89.213,89.213,0,0,0,67,194a34.575,34.575,0,0,0,4.4-3.4c1.3-1.2,2.7-2.5,3.9-3.8,1.3-1.3,2.6-2.6,3.8-3.9l.3-.3c3.6,1.7,4.4,2.8,8.2,3.6,1.2.2,2.4.4,3.5.6l-.1.1c.1.1,4.8,7.7,6.7,11.6a.52.52,0,0,0-.2.4,6.263,6.263,0,0,0-.7,2.2A24.216,24.216,0,0,0,97,205l.5,3.7.4,3.7c.2,2.4.5,4.9.9,7.3l-21.2-.1-22-.2Zm43.3.3c.2-2.5.2-4.9.2-7.4a48.321,48.321,0,0,0-.3-7.6,21.956,21.956,0,0,1-.1-3.6,5.732,5.732,0,0,1,.4-1.4c.1-.2.3-.4.4-.6l.3-.3.4-.4a32.409,32.409,0,0,0,2.4-3.1c.7-1.1,1.3-2.2,2-3.3v-.1l.9-2.4.9-2a23.717,23.717,0,0,0,4.6-.3c.8-.1,1.5-.3,2.2-.4-1.5,2.6-6.5,11.1-7.8,12.9s-1.1,3.3-.9,5c0,.4.1.8.1,1.3.1,2.1.8,11.5,1,13.6H99.5Zm22.7,0H106.7c-.2-2-.9-11.6-1-13.7,0-.5-.1-.9-.1-1.3-.2-1.7-.3-2.9.8-4.4,1.5-2.1,6.3-10.5,6.6-10.9l1.6-2.8c1-.4,1.8-.8,3.4-1.5a11.95,11.95,0,0,0,3.9-3,.1.1,0,0,0,.1.1c.3.4.7.8,1,1.2a22.842,22.842,0,0,0,2.2,2.2,12.029,12.029,0,0,0,2.6,1.8,6.109,6.109,0,0,0,1.4.7l1.4.6a31.016,31.016,0,0,1,5,2.9,20.281,20.281,0,0,1,2.3,1.8,16.41,16.41,0,0,0,2.5,1.9,14.523,14.523,0,0,0,6.1,1.9l1.3.1-.3-1.3c-.3-1.4-.7-2.7-1.1-4l-1.2-3.9-2.5-7.8c-.8-2.6-1.7-5.1-2.5-7.7-.7-2.4-1.4-4.8-2-7.1,2.9,1.4,9.4,2.8,12.3,4.1,1.6.7,3.1,1.4,4.8,2.1l4.8,2,9.6,3.9,4.8,1.9c1.6.7,3.2,1.2,4.7,2,1.4.8,2.9,1.7,3.5,2.9a4.167,4.167,0,0,1,.2.6c0,.1.1.2.2.4a1.438,1.438,0,0,1,.2.3,4.053,4.053,0,0,1,.3,1c.2.8.3,1.6.5,2.5.5,3.4.8,6.8,1.1,10.2.6,6.6,1.1,13.2,1.5,19.9l-43.2.3c-7.2,0-14.6,0-21.9.1ZM111.7,182a1.5,1.5,0,1,1-1.5,1.5A1.538,1.538,0,0,1,111.7,182Zm-10.1,18.4a1.5,1.5,0,1,1-1.5,1.5A1.538,1.538,0,0,1,101.6,200.4Zm-73.8-4.5a26.154,26.154,0,0,0-.9-3.8c-.4-1.2-.9-2.4-1.3-3.6-1-2.3-2-4.6-3.1-6.9l1.2,3.6,1.2,3.6,1.2,3.6a23.254,23.254,0,0,1,.8,3.6c.4,2.5.6,5,.9,7.5l.4,3.8c.2,1.2.3,2.5.5,3.8,0-2.5,0-5.1-.2-7.6-.2-2.6-.4-5.1-.7-7.6Zm150.5-9.2a21.419,21.419,0,0,0-1.3,1.9c-.8,1.3-1.5,2.7-2.2,4.1a71.16,71.16,0,0,0-3.6,8.6v.2c-.2,2.5-.3,5-.4,7.6-.1,2.5-.2,5-.2,7.6q.6-3.75.9-7.5c.3-2.5.5-5,.7-7.5,1.1-2.9,2.2-5.7,3.4-8.6.6-1.4,1.2-2.8,1.9-4.2a12.548,12.548,0,0,1,2.5-3.8,8.518,8.518,0,0,0-1.7,1.6Z" transform="translate(-10.9 -147.5)" fill="#2e4144"/>
        <path id="SvgjsPath6423" d="M135.7,164.5a53.836,53.836,0,0,0,1.7,12.6c.3,1.3,4.5,13.8,4.4,13.8,0,0-6.8-5.8-8.1-6.6a117.978,117.978,0,0,0-12.3-6.2c-.3-.1-.5.3-.2.4,7.3,4,15.5,8.1,21.4,14.1a.271.271,0,0,0,.4-.2c-3.6-9.2-4.6-18.4-6.7-27.9-.2-.4-.6-.3-.6,0Zm43.6,17.9c-5-2.4-10.5-3.8-15.7-5.7-6.6-2.4-16.5-5.3-22.9-8.2-.3-.2-.6.3-.3.5,5.1,3.5,14.5,5.8,20.3,8,5.9,2.2,12.2,4.8,18.4,6.1.3,0,.6-.5.2-.7Zm-2.4,2.3a22.022,22.022,0,0,0-5.6,9.2c-.1.2.3.4.4.2a26.252,26.252,0,0,1,5.6-9C177.4,184.8,177.1,184.5,176.9,184.7Zm6,2.1a.3.3,0,0,0-.6,0c.1,5.9.2,11.8.8,17.6a.3.3,0,0,0,.6,0A172.733,172.733,0,0,0,182.9,186.8Zm-105-9.3c-6.2,5.9-13,11.3-19.1,17.2-.2.2.1.7.4.5,7.2-4.7,13.5-10.9,19.5-17C79,177.8,78.3,177.1,77.9,177.5Z" transform="translate(-10.9 -147.5)" fill="#6f7272"/>
      </g>
      <g id="svga-group-head" transform="translate(42.261 0)">
        <g id="svga-group-ears-left-move" transform="translate(0 46.603)">
          <g id="svga-group-ears-left">
            <path id="SvgjsPath3678" d="M68.53,80.36s-11.15-9.8-12.94-9.96c-1.54-.14-5.36,8.01-7.05,13.16a5.866,5.866,0,0,0,.25,4.2c1.62,3.57,5.21,11.04,8.43,14.78a12.436,12.436,0,0,0,3.58.33c.86-.25,7.58-5.67,8.27-7.77s.83-11.3-.54-14.74Z" transform="translate(-48.142 -69.95)" fill="#f0c7b1"/>
            <path id="SvgjsPath3679" d="M69.49,84.19c.18,1.31.28,2.64.33,3.96s.06,2.65-.01,3.98q-.048,1-.17,1.99a7.647,7.647,0,0,1-.2,1.02,3.419,3.419,0,0,1-.46.96,16.382,16.382,0,0,1-2.47,2.8c-.88.84-1.78,1.63-2.71,2.4-.47.38-.93.75-1.42,1.11-.24.18-.49.35-.74.52l-.4.24a1.683,1.683,0,0,1-.53.19,6.784,6.784,0,0,1-1.82-.09c-.58-.08-1.15-.19-1.73-.32l-.13-.03-.08-.1a37.36,37.36,0,0,1-3.74-5.65c-1.1-1.98-2.1-4.03-3.06-6.1l-1.41-3.11a6.135,6.135,0,0,1-.54-3.46,7.594,7.594,0,0,1,.44-1.67c.18-.54.37-1.07.56-1.6.4-1.05.79-2.11,1.22-3.15a40.887,40.887,0,0,1,2.94-6.02,10.792,10.792,0,0,1,1-1.36,3.218,3.218,0,0,1,.67-.59.971.971,0,0,1,.52-.16,1.618,1.618,0,0,1,.47.12,15.946,15.946,0,0,1,2.75,1.76c1.72,1.29,3.37,2.66,5,4.09,1.64,1.41,3.22,2.86,4.81,4.38a17.718,17.718,0,0,1,.91,3.89ZM58.4,72.51a15.634,15.634,0,0,0-2.59-1.61,2.378,2.378,0,0,0-.26-.08.431.431,0,0,0-.2.07,2.033,2.033,0,0,0-.51.44,9.167,9.167,0,0,0-.94,1.24,48.217,48.217,0,0,0-3.11,5.77c-.46,1.01-.92,2.02-1.32,3.06-.2.52-.4,1.04-.59,1.57a7.637,7.637,0,0,0-.45,1.6,5.718,5.718,0,0,0,.55,3.26c.47,1.03.98,2.05,1.49,3.05,1.02,2.02,2.12,3.99,3.26,5.91a39.8,39.8,0,0,0,3.76,5.42l-.21-.13a12.675,12.675,0,0,0,3.29.33.745.745,0,0,0,.28-.11l.35-.22.7-.5c.47-.34.93-.71,1.39-1.08.92-.74,1.81-1.52,2.68-2.34a18.359,18.359,0,0,0,2.39-2.61,2.941,2.941,0,0,0,.38-.72,7.327,7.327,0,0,0,.19-.89c.09-.63.17-1.27.21-1.91.1-1.29.14-2.6.15-3.9s-.04-2.62-.15-3.92a17.533,17.533,0,0,0-.66-3.84c-3.33-2.62-6.67-5.35-10.08-7.86Z" transform="translate(-48.142 -69.95)" fill="#e1ac8f"/>
            <path id="SvgjsPath3680" d="M68.79,88.66S58.04,75.08,56.02,76.21s-5.19,7.53-5.18,9.67c.02,3.14,3.34,8.38,5.01,9.96a6.6,6.6,0,0,0,6.35,1.94c2.66-.61,6.59-9.12,6.59-9.12Z" transform="translate(-48.142 -69.95)" fill="#e1ac8f"/>
            <path id="SvgjsPath3681" d="M60.61,88.64c-.45-1.26-.95-2.5-1.45-3.74S58.1,82.451,57.5,81.26a31.687,31.687,0,0,0-1.97-3.45l-.08-.12-.08.12c-.75,1.18-1.45,2.38-2.12,3.62-.33.62-.66,1.25-.96,1.89s-.57,1.31-.84,1.98l-.04.1.04.12c.46,1.41.96,2.79,1.47,4.18.25.69.54,1.37.83,2.05a17,17,0,0,0,.99,2.01l.19.31.25-.23a6.516,6.516,0,0,0,.87-1.02,8.555,8.555,0,0,0,.69-1.17,5.911,5.911,0,0,0,.6-2.74v-.06l-.02-.04c-.5-.99-1.03-1.96-1.55-2.94l-.05.03c.42,1.01.83,2.03,1.26,3.03a5.833,5.833,0,0,1-.68,2.41,7.28,7.28,0,0,1-1.24,1.65c-.26-.49-.5-1.02-.73-1.56l-.81-2.03c-.53-1.32-1.03-2.66-1.52-3.99a38.442,38.442,0,0,1,1.52-3.82,25.473,25.473,0,0,1,1.96-3.51,24.3,24.3,0,0,1,1.68,3.39l1.54,3.67,1.56,3.67c.52,1.22,1.05,2.45,1.6,3.66l.06-.03c-.41-1.27-.85-2.54-1.31-3.8Z" transform="translate(-48.142 -69.95)" fill="#c27b55"/>
          </g>
        </g>
        <g id="svga-group-ears-right-move" transform="translate(71.858 46.633)">
          <g id="svga-group-ears-right">
            <path id="SvgjsPath3682" d="M131.47,80.36s11.15-9.8,12.94-9.96c1.54-.14,5.36,8.01,7.05,13.16a5.866,5.866,0,0,1-.25,4.2c-1.62,3.57-5.21,11.04-8.43,14.78a12.436,12.436,0,0,1-3.58.33c-.86-.25-7.58-5.67-8.27-7.77s-.83-11.3.54-14.74Z" transform="translate(-130.156 -69.98)" fill="#f0c7b1"/>
            <path id="SvgjsPath3683" d="M131.44,80.33c1.58-1.52,3.17-2.97,4.81-4.38,1.62-1.42,3.28-2.8,5-4.09A15.37,15.37,0,0,1,144,70.1a2.154,2.154,0,0,1,.47-.12,1.031,1.031,0,0,1,.52.16,2.58,2.58,0,0,1,.67.59,10.792,10.792,0,0,1,1,1.36,42.431,42.431,0,0,1,2.94,6.02c.43,1.04.82,2.09,1.22,3.15.19.53.38,1.06.56,1.6a8.194,8.194,0,0,1,.44,1.67,6.135,6.135,0,0,1-.54,3.46l-1.41,3.11c-.97,2.06-1.96,4.11-3.06,6.1a36.384,36.384,0,0,1-3.74,5.65l-.08.1-.13.03c-.58.13-1.15.23-1.73.32a7.746,7.746,0,0,1-1.82.09,1.683,1.683,0,0,1-.53-.19l-.4-.24c-.25-.17-.5-.34-.74-.52-.48-.36-.95-.73-1.42-1.11-.93-.76-1.83-1.56-2.71-2.4a16.771,16.771,0,0,1-2.47-2.8,3.42,3.42,0,0,1-.46-.96,10.168,10.168,0,0,1-.2-1.02c-.08-.67-.14-1.33-.17-1.99-.07-1.33-.07-2.65-.01-3.98s.15-2.65.33-3.96a15.1,15.1,0,0,1,.91-3.89Zm.06.06a16.334,16.334,0,0,0-.66,3.84c-.1,1.3-.15,2.61-.15,3.92s.06,2.61.15,3.9c.05.65.12,1.29.21,1.91.06.31.11.62.19.89a2.635,2.635,0,0,0,.38.72,18.916,18.916,0,0,0,2.39,2.61c.86.81,1.76,1.59,2.68,2.34.46.37.92.73,1.39,1.08l.7.5.35.22a.745.745,0,0,0,.28.11,12.674,12.674,0,0,0,3.29-.33l-.21.13a39.8,39.8,0,0,0,3.76-5.42c1.14-1.92,2.24-3.89,3.26-5.91.51-1.01,1.02-2.02,1.49-3.05a5.718,5.718,0,0,0,.55-3.26,7.471,7.471,0,0,0-.45-1.6c-.19-.53-.38-1.05-.59-1.57-.4-1.04-.86-2.06-1.32-3.06a47.458,47.458,0,0,0-3.11-5.77,9.167,9.167,0,0,0-.94-1.24,2.8,2.8,0,0,0-.51-.44.431.431,0,0,0-.2-.07,2.378,2.378,0,0,0-.26.08,15.633,15.633,0,0,0-2.59,1.61C138.19,75.02,134.85,77.75,131.5,80.39Z" transform="translate(-130.156 -69.98)" fill="#e1ac8f"/>
            <path id="SvgjsPath3684" d="M131.21,88.66s10.75-13.58,12.77-12.45,5.19,7.53,5.18,9.67c-.02,3.14-3.34,8.38-5.01,9.96a6.6,6.6,0,0,1-6.35,1.94C135.14,97.17,131.21,88.66,131.21,88.66Z" transform="translate(-130.156 -69.98)" fill="#e1ac8f"/>
            <path id="SvgjsPath3685" d="M148.54,85.31c-.26-.67-.52-1.34-.84-1.98q-.45-.96-.96-1.89c-.67-1.24-1.38-2.44-2.12-3.62l-.08-.12-.08.12a34.513,34.513,0,0,0-1.97,3.45c-.6,1.18-1.14,2.4-1.66,3.64-.49,1.24-1,2.48-1.45,3.74s-.9,2.53-1.28,3.81l.06.03c.55-1.21,1.07-2.44,1.6-3.66l1.56-3.67,1.54-3.67a24.3,24.3,0,0,1,1.68-3.39,26.072,26.072,0,0,1,1.96,3.51,37.032,37.032,0,0,1,1.52,3.82c-.5,1.34-.99,2.67-1.52,3.99l-.81,2.03c-.23.53-.47,1.07-.73,1.56a7.28,7.28,0,0,1-1.24-1.65,5.686,5.686,0,0,1-.68-2.41c.43-1,.84-2.02,1.26-3.03l-.05-.03c-.52.98-1.05,1.95-1.55,2.94l-.02.04v.06a5.911,5.911,0,0,0,.6,2.74,7.991,7.991,0,0,0,.69,1.17,6.437,6.437,0,0,0,.87,1.02l.25.23.19-.31a18.668,18.668,0,0,0,.99-2.01c.29-.68.57-1.36.83-2.05.51-1.38,1.01-2.77,1.47-4.18l.04-.12-.07-.11Z" transform="translate(-130.156 -69.98)" fill="#c27b55"/>
          </g>
        </g>
        <g id="svga-group-faceshape-wrap" transform="translate(9.432 0.014)">
          <g id="svga-group-faceshape-single">
            <path id="SvgjsPath4209" d="M133.528,106.966c.269-8.567-.3-24.789.908-37.5,0,0,.834-9.735,0-13.937-2.038-10.247-5.837-16.4-14.084-21.315C111.735,29.1,97,29.3,97,29.3s-14.732-.2-23.349,4.919C65.5,39.138,61.609,45.286,59.571,55.534c-.834,4.1,0,13.937,0,13.937,1.2,12.707.482,25.762.843,35.507.454,15.914,6.176,25.027,10.938,31.791C83.119,152.857,97,154.626,97,154.626s13.481.059,25.248-16.03c7.459-10.237,10.9-19.785,11.276-31.631Z" transform="translate(-59.2 -29.299)" fill="#f0c7b1"/>
            <path id="SvgjsPath4211" d="M122.392,138.964c7.468-10.237,10.765-20.153,11.136-32,.269-8.567-.3-24.789.908-37.5,0,0,.834-9.735,0-13.937-2.038-10.247-5.837-16.4-14.084-21.315C111.735,29.1,97,29.3,97,29.3s-14.732-.2-23.349,4.919C65.5,39.138,61.609,45.286,59.571,55.534c-.834,4.1,0,13.937,0,13.937,1.2,12.707.482,25.762.843,35.507.454,15.914,5.349,26.464,10.111,33.228C82.292,154.294,97,154.626,97,154.626S110.625,155.053,122.392,138.964Zm-5.207,4.806c-1.983,1.793-3.627,3.924-5.879,5.225-2.261,1.271-4.389,2.854-6.835,3.51a16.668,16.668,0,0,1-1.844.441c-.612.143-1.242.215-1.862.307a18.451,18.451,0,0,1-3.66.113h-.139A27.677,27.677,0,0,1,89.526,152c-2.446-.789-4.958-2.9-7.191-4.263-4.5-2.644-7.513-6.225-10.747-10.58-3.1-4.406-6.153-8.726-7.617-14.188a79.047,79.047,0,0,1-2.483-16.939c-.306-5.769-.232-11.6-.315-17.441s-.287-11.7-.843-17.533c-.306-2.9-.51-5.78-.6-8.68-.046-1.445-.056-2.89.009-4.324a17.659,17.659,0,0,1,.2-2.111c.111-.7.278-1.4.417-2.111A37.917,37.917,0,0,1,63.1,45.778a25.156,25.156,0,0,1,4.809-6.712,30.146,30.146,0,0,1,6.477-4.786,30.865,30.865,0,0,1,7.4-2.7,65.368,65.368,0,0,1,31.049.748,28.645,28.645,0,0,1,7.144,2.982,30.474,30.474,0,0,1,6.208,4.878c3.725,3.8,5.911,9.079,7.144,14.623a35.572,35.572,0,0,1,.686,8.444c-.019,2.9-.167,5.759-.371,8.7-.63,11.7,0,23.364-.259,35.016a62.758,62.758,0,0,1-3.241,16.541,46.231,46.231,0,0,1-7.608,14.177c-.778,1.137-1.714,2.121-2.567,3.187-.417.543-.927.984-1.381,1.476-.454.461-.908.963-1.408,1.414Z" transform="translate(-59.2 -29.299)" fill="#c27b55"/>
          </g>
        </g>
        <g id="svga-group-mouth-single-move" transform="translate(33.709 96.382)">
          <g id="svga-group-mouth-single">
            <path id="SvgjsPath4868" d="M87.867,124.284c.12-.08-1.187-.114,1.713-1.134a42.286,42.286,0,0,1,4.263-1.418,53.6,53.6,0,0,1,6.266,1.468s4.993-.83,5.453-.83c.23,0,8.181,2.67,8.181,2.67s-6.822-.836-7.252-.756c-.93.16-5.43,1.5-5.97,1.566a59.091,59.091,0,0,1-6.677-1.881C93.673,123.91,87.867,124.284,87.867,124.284Z" transform="translate(-87.674 -121.729)" fill="#b77654"/>
            <path id="SvgjsPath4869" d="M87.82,125.93c.5,1.38,1.233,2.52,4.153,4.007s13.638,1.044,17.157,0,3.947-.857,4.444-2.237c-.163.72-1.009,1.284-2.291,2.674a8.132,8.132,0,0,1-3.922,1.433c-5.15.857-13.217.629-15.389-.754-2.954-1.882-3.837-3.673-4.153-5.123Z" transform="translate(-87.82 -123.867)" fill="#d19271"/>
          </g>
        </g>
        <g id="svga-group-nose-single-move" transform="matrix(0.998, -0.07, 0.07, 0.998, 36.225, 70.22)">
          <g id="svga-group-nose-single" transform="translate(0)">
            <path id="SvgjsPath4588" d="M16.141,2.681c.27,1.2,2.7,10.85,2.14,12.07s-3.14-.83-3.88-1.09-1.74.78-2.4,2.09-1.49,2.36-2.7,2.35a3.659,3.659,0,0,1-2.61-1.76c-.44-.63-1.47-2.04-2.51-2.32s-1.91.66-2.45.85a1.128,1.128,0,0,1-1.69-.94c-.25-1.28.72-4.55,1.13-5.96S2.641,2.7,2.861,2.2s2.2-2.26,6.27-2.2C13.211.081,15.771,1.051,16.141,2.681Z" transform="translate(0.99 2.415) rotate(3)" fill="#f0c7b1"/>
            <path id="SvgjsPath4589" d="M4.881.025C3.721,3.818,2.3,10.841,1.111,14.593c-.15.471-.3.934-.42,1.4a6.024,6.024,0,0,0-.14.694,1.712,1.712,0,0,0-.01.314,1.527,1.527,0,0,0,.08.331c.14.438.38.876.89.818a4.838,4.838,0,0,0,1.54-.562,2.507,2.507,0,0,1,.9-.248,2.211,2.211,0,0,1,.93.149,4.776,4.776,0,0,1,1.43.934,14.723,14.723,0,0,1,1.13,1.149,3.646,3.646,0,0,0,1.22.926,2.11,2.11,0,0,0,1.49.058,2.647,2.647,0,0,0,1.19-.818c.3-.347.55-.818.86-1.248a5.311,5.311,0,0,1,1.15-1.256,1.952,1.952,0,0,1,1.05-.388,2.012,2.012,0,0,1,1.11.289l.21.124.16.107c.11.074.22.132.33.2a5.289,5.289,0,0,0,.71.322,3.467,3.467,0,0,0,.71.174.671.671,0,0,0,.46-.058.448.448,0,0,0,.14-.364,5.587,5.587,0,0,0-.05-.669c-.26-1.9-1.54-7.3-1.97-9.211s-.78-4-1.32-5.912l.09-.025a48.809,48.809,0,0,1,1.94,5.8c.58,1.9,1.92,7.277,2.24,9.253a6.387,6.387,0,0,1,.06.793,1.153,1.153,0,0,1-.5.95,1.775,1.775,0,0,1-1.22.24,3.938,3.938,0,0,1-.98-.256,7.124,7.124,0,0,1-.83-.4,3.487,3.487,0,0,1-.38-.24l-.18-.124-.15-.091a.842.842,0,0,0-1.07.033,4.808,4.808,0,0,0-1.01,1.05c-.32.4-.57.826-.97,1.264a3.236,3.236,0,0,1-1.57.95,2.838,2.838,0,0,1-1.94-.19,3.82,3.82,0,0,1-1.3-1.1,11.265,11.265,0,0,0-1.04-1.165,4.032,4.032,0,0,0-1.31-.893,1.818,1.818,0,0,0-1.55.1,5.359,5.359,0,0,1-1.65.661,1.45,1.45,0,0,1-.53-.033,1.04,1.04,0,0,1-.44-.264,2,2,0,0,1-.45-.711,2.207,2.207,0,0,1-.12-.38A1.505,1.505,0,0,1,0,16.659a6.043,6.043,0,0,1,.08-.752,14.251,14.251,0,0,1,.31-1.463c.5-1.926,1.528-6.709,2.258-8.568S3.931,1.81,4.831,0l.05.025Z" transform="matrix(1, 0.017, -0.017, 1, 0.369, 0)" fill="#c27b55"/>
            <path id="SvgjsPath4590" d="M0,.583A4.751,4.751,0,0,1,2.03.013a6.348,6.348,0,0,1,2.12.24,7.355,7.355,0,0,1,1.91.93,8.9,8.9,0,0,1,.83.66c.25.25.49.5.72.77-.3-.19-.57-.4-.86-.59-.3-.17-.58-.37-.88-.53a6.349,6.349,0,0,0-.91-.44A8.192,8.192,0,0,0,4.02.7,8.283,8.283,0,0,0,2.04.373,7.084,7.084,0,0,0,0,.583Z" transform="translate(6.884 9.06)" fill="#c27b55"/>
            <path id="SvgjsPath4591" d="M8.393,2.682C7.023.622,3.233-.228.913.052c-.76.09-1.37,1.27-.45,1.67,1.16.51,2.34.85,3.54,1.26,1.18.4,2.29,1.13,3.56,1.14A.963.963,0,0,0,8.393,2.682Z" transform="translate(6.761 9.989)" fill="#f8d5c3"/>
          </g>
        </g>
        <g id="svga-group-hair-front" transform="translate(6.36)">
          <path id="SvgjsPath6242" d="M58.02,72.663A12.49,12.49,0,0,1,60.51,76.1c.711,1.714.307,22.645.836,23.027l1.16-.39-.29-17.6,1.13-5.033,1.24-22.154S68.3,44.343,81.552,41.142s20.729-.062,36.026,0l7.816,5.878,7.124,7.879,1.089,38.452,2.307,4.772a58.107,58.107,0,0,1,1.067-6.114l-.342-15.1,1.733-4.64s1.423-13.943.711-17.95-5.336-14.139-13.69-20.822-34.312-5.732-38.936-5.35-14.584,3.625-14.584,3.625l.884,1.332-2.49,1.146-.356,1.529S64.759,39.221,62.8,41.7s-3.73,7.261-4.269,11.268-.51,19.7-.51,19.7Z" transform="translate(-57.949 -27.36)" fill="#504851"/>
          <path id="SvgjsPath6243" d="M58.065,72.647A12.767,12.767,0,0,1,60.373,75.6c.664,1.156.917,22.977.927,23.3.01.155.822-.041.889-.176a1.714,1.714,0,0,0,.046-.8s-.418-9.913-.189-16.47a17.491,17.491,0,0,1,1.1-5.426l-.01.062,1.106-22.158.01-.155.106-.114c.347-.1.615-.919.615-.919s-.052-.718,1.34-1.95c1.749-2.481,5.8-7.392,15.36-9.674,9.705-2.894,30.9-1.917,35.925,0,1.451.88,3.288.806,7.292,4.28,2.907,2.522,2.883,3.387,5.146,5.607.551.545.883,2.507,2.6,3.791l.048.041v.072L133.8,92.622l-.029-.1,2.327,4.76-.471.083c.212-1.59.433-3.18.721-4.77a11.438,11.438,0,0,1,.269-1.208V77.034l1.567-4.975-.077.176c.385-4.254.712-8.518.808-12.772a21.259,21.259,0,0,0-.481-6.237,32.411,32.411,0,0,0-2.4-5.762A44.284,44.284,0,0,0,128.9,37.4a27.283,27.283,0,0,0-4.539-3.986,20.517,20.517,0,0,0-5.366-2.4A65.575,65.575,0,0,0,107.3,28.95c-3.952-.372-7.924-.527-11.9-.537-1.991,0-3.971.021-5.962.1-.99.041-1.981.093-2.962.165-.962.093-1.933.258-2.9.434-3.885.785-7.741,1.9-11.559,3.077l.212-.65.885,1.342.279.423-.442.2-2.5,1.125.212-.268-.365,1.528-.038.155-.125.083c-1.356.909-2.7,1.879-3.991,2.9a17.937,17.937,0,0,0-3.491,3.449,26.453,26.453,0,0,0-3.673,9.417,37.787,37.787,0,0,0-.49,5.142q-.13,2.6-.2,5.2c-.1,3.469-.163,6.98-.212,10.408Zm-.087.041c-.038-3.511-.038-6.959-.01-10.439.019-1.735.048-3.469.1-5.214a38,38,0,0,1,.433-5.214,30.091,30.091,0,0,1,1.375-5.039,21.868,21.868,0,0,1,2.3-4.667,18.658,18.658,0,0,1,3.577-3.635c1.3-1.064,2.635-2.055,4.01-2.994l-.163.237.346-1.528.038-.186.173-.083,2.481-1.167-.163.62-.894-1.332-.327-.485.529-.176c3.827-1.239,7.674-2.4,11.616-3.252a28.691,28.691,0,0,1,3.01-.485c1.01-.083,2.01-.134,3-.176,2-.083,4-.114,6-.114,4,0,8,.145,11.991.516a62.37,62.37,0,0,1,11.876,2.106,21.85,21.85,0,0,1,5.616,2.55,28.372,28.372,0,0,1,4.683,4.14,45.109,45.109,0,0,1,7.241,10.336,32.576,32.576,0,0,1,2.414,5.968,12.958,12.958,0,0,1,.462,3.263c.019,1.084.019,2.158-.019,3.232-.154,4.3-.519,8.56-.952,12.824l-.01.1-.067.072-1.481,4.922V91.549c-.106.351-.183.754-.26,1.136-.3,1.559-.529,3.149-.75,4.729l-.115.826-.356-.743-2.3-4.781-.029-.052v-.052L132.4,54.887l.048.114c-1.544-.658-2.113-1.884-3.548-3.531-1.024-1.172-2.562-2.662-4.166-4.264-.157-.156-.523-.525-.863-.876-1.987-2.052-4.672-2.963-6.886-3.854-4.909-1.976-24.025-2.263-35.022,0-3.186.656-7.724,1.76-11.128,4.875-2.928,2.166-3.775,3.318-4.7,4.891-.227.414-.234,1.681-1.279,1.994l.115-.258L63.575,76.116v.031l-.01.031a18.8,18.8,0,0,0-.923,5.271c-.243,5.933-.081,16.625-.081,16.625a1.686,1.686,0,0,1-.075.823c-.077.145-1.355.439-1.355.274-.01-.33-.316-22.384-.922-23.489a12.838,12.838,0,0,0-2.231-2.994Z" transform="translate(-57.949 -27.36)" fill="#342a36"/>
        </g>
        <path id="Path_26946" data-name="Path 26946" d="M36.971,25.817s-.322-2.683,2.963-4.584,10.176-3.021,10.176-3.021-6.3,1.485-9.585,3.387S36.971,25.817,36.971,25.817Z" transform="translate(13.474 -14.048)" fill="#8d8a8e"/>
        <path id="Path_26947" data-name="Path 26947" d="M.007,6.263S-.264,4.054,2.5,2.488,11.077,0,11.077,0A39.143,39.143,0,0,0,3,2.789C.234,4.355.007,6.263.007,6.263Z" transform="translate(48.71 5.75) rotate(-16)" fill="#8d8a8e"/>
        <g id="svga-group-eyes-left-move" transform="matrix(0.978, -0.208, 0.208, 0.978, 53.082, 54.294)">
          <g id="svga-group-eyes-left" transform="translate(0 0)">
            <g id="svga-group-eyesback-left" transform="translate(0.372 0.31)">
              <path id="SvgjsPath6834" d="M10.833,0c6.019,0,10.833,3.6,10.834,8.07s-4.815,8.07-10.833,8.07S0,12.539,0,8.07,4.815,0,10.833,0Z" transform="translate(0)" fill="#fff"/>
            </g>
            <g id="svga-group-eyesiriswrapper-left" transform="translate(6.751 4.696)">
              <g id="svga-group-eyesiriscontrol-left" transform="translate(0 0)">
                <g id="svga-group-eyesiris-left">
                  <path id="SvgjsPath3795" d="M3.476,0A3.476,3.476,0,1,1,0,3.476,3.471,3.471,0,0,1,3.476,0Z" fill="#391d0f"/>
                  <path id="SvgjsPath3796" d="M1.862,0A1.829,1.829,0,0,1,3.725,1.862,1.829,1.829,0,0,1,1.862,3.725,1.829,1.829,0,0,1,0,1.862,1.829,1.829,0,0,1,1.862,0Z" transform="translate(1.614 1.614)"/>
                  <path id="SvgjsPath3797" d="M1.552.559,1.179.186A.7.7,0,0,0,.683,0a.7.7,0,0,0-.5.186A.7.7,0,0,0,0,.683a.7.7,0,0,0,.186.5l.372.372a.671.671,0,0,0,.435.186.483.483,0,0,0,.435-.186C1.8,1.179,1.8.807,1.552.559ZM3.228,3.725a.466.466,0,1,0,0-.931A.468.468,0,0,0,3.228,3.725Z" transform="translate(1.49 1.428)" fill="#fff"/>
                </g>
              </g>
            </g>
            <g id="svga-group-eyesfront-left">
              <path id="SvgjsPath6842" d="M11.206,0C5.007,0,0,3.787,0,8.442s5.007,8.442,11.206,8.442S22.412,13.1,22.412,8.442,17.4,0,11.206,0ZM1.272,7.946a1.345,1.345,0,0,1-.238.31C1.033,8.194,1.192,8.07,1.272,7.946ZM6.835,11.3c-1.351-.062-5.8-2.235-5.8-2.918.318-.248,1.51-1.242,2.384-1.8a9.2,9.2,0,0,1,3.1-1.366c2.7-.435,6.914,1.366,7.789,1.924a62.282,62.282,0,0,0,5.643,3.1c-1.42.142-3.614,1.313-6.471,1.558A33.013,33.013,0,0,1,6.835,11.3Z" fill="#f0c7b1"/>
              <path id="SvgjsPath6843" d="M20.165,6.621c-.323-.621-.726-1.242-1.129-1.862-.565-.621-1.129-1.242-1.775-1.862a24.323,24.323,0,0,0-2.1-1.676A7.689,7.689,0,0,0,13.874.537,12.886,12.886,0,0,0,12.422.1,17.005,17.005,0,0,0,9.357.041,10.761,10.761,0,0,0,3.872,1.965a12.211,12.211,0,0,0-.968.869c-.323.31-.645.621-.887.869-.323.31-.565.621-.887.931a3.483,3.483,0,0,0-.4.5,1.736,1.736,0,0,0-.323.5l-.4.5.323-.248s0,.062.081.062a3.053,3.053,0,0,0,.484.435,13.58,13.58,0,0,0,2.42,1.3c.4.186.887.372,1.291.559a29.522,29.522,0,0,0,5.558.9,41.841,41.841,0,0,0,4.78-.263c1.533-.186,2.971-1.13,4.5-1.316l.484.248.645.31.323.124.161.062.081.062a.314.314,0,0,0,.161.062C20.891,7.8,20.488,7.242,20.165,6.621ZM6.05,8.421a7.341,7.341,0,0,1-1.291-.372c-.4-.186-.887-.31-1.291-.5A12.645,12.645,0,0,1,1.129,6.31L.645,5.938C.565,5.876.565,5.876.565,5.814a14.539,14.539,0,0,1,4.6-2.855l.726-.186a2.873,2.873,0,0,1,.726-.062,11.455,11.455,0,0,1,1.452.124,16.393,16.393,0,0,1,2.9.683,15.651,15.651,0,0,1,2.662,1.055c.807.5,1.694.931,2.5,1.366.887.435,1.694.869,2.581,1.3l.726.372a37.042,37.042,0,0,0-4.427.894,30.5,30.5,0,0,1-3.4.358A30.307,30.307,0,0,1,6.05,8.421Zm15-.186-.161-.062-.323-.186-.645-.372-1.291-.683-2.42-1.3c-.807-.5-1.694-.931-2.42-1.428A12.959,12.959,0,0,0,12.5,3.517c-.4-.186-.887-.372-1.371-.559a15.7,15.7,0,0,0-2.984-.683,7.01,7.01,0,0,0-1.613,0c-.242.062-.565.062-.807.124A3.35,3.35,0,0,0,5,2.648,12.052,12.052,0,0,0,2.5,4.014c-.4.248-.726.559-1.129.807l-.4.31a.682.682,0,0,1,.323-.31,12.215,12.215,0,0,1,.968-.869c.323-.31.645-.559.968-.869.323-.248.645-.559.968-.807A10.237,10.237,0,0,1,9.357.6,14.17,14.17,0,0,1,12.18.662a6.611,6.611,0,0,1,2.42.993,36.175,36.175,0,0,1,4.033,3.228c.4.559.807,1.117,1.291,1.676A15.369,15.369,0,0,1,21.214,8.3c-.081,0-.081,0-.161-.062Z" transform="translate(0.497 2.753)"/>
            </g>
          </g>
        </g>
        <g id="svga-group-eyebrows-right-move" transform="translate(58.194 44.41) rotate(16)">
          <g id="svga-group-eyebrows-right-rotate" transform="translate(0 0)">
            <g id="svga-group-eyebrows-right">
              <path id="SvgjsPath5763" d="M22.235,4.616A11.19,11.19,0,0,0,15.7.208C11.15-.952-1.083,3,.077,5.732c.419.986.578,1.209,1.69,1.256a10.314,10.314,0,0,0,4.76-1.666,18.607,18.607,0,0,1,7.784-2.674,12.7,12.7,0,0,1,7.924,1.968Z" fill="#59545a" stroke="#493e4b" stroke-width="0.4"/>
            </g>
          </g>
        </g>
        <g id="Group_4382" data-name="Group 4382" transform="matrix(0.998, -0.07, 0.07, 0.998, 14.28, 46.85)">
          <path id="Path_26945" data-name="Path 26945" d="M0,6.429A3.822,3.822,0,0,0,3.073,4.843C4.419,3.127,4.6,0,4.6,0" transform="translate(23.828)" fill="none" stroke="#e1ac8f" stroke-linecap="round" stroke-width="0.5"/>
          <g id="svga-group-eyebrows-left-move" transform="matrix(0.998, -0.07, 0.07, 0.998, 0, 2.071)">
            <g id="svga-group-eyebrows-left-rotate" transform="translate(0)">
              <g id="svga-group-eyebrows-left">
                <path id="SvgjsPath5761" d="M0,6.194A16.973,16.973,0,0,1,7.522.561c4.947-1.84,19,1.19,18.162,4.07s-4.7,1.64-7.375.58a27.4,27.4,0,0,0-8.8-2.558c-2.561-.213-5.7.006-9.507,3.54Z" fill="#59545a" stroke="#493e4b" stroke-width="0.2"/>
              </g>
            </g>
          </g>
          <g id="svga-group-eyes-left-move-2" data-name="svga-group-eyes-left-move" transform="translate(3.11 4.473) rotate(11)">
            <g id="svga-group-eyes-left-2" data-name="svga-group-eyes-left">
              <g id="svga-group-eyesback-left-2" data-name="svga-group-eyesback-left" transform="translate(0.36 0.3)">
                <path id="SvgjsPath6834-2" data-name="SvgjsPath6834" d="M10.492,0C4.663,0,0,3.475,0,7.79s4.663,7.79,10.492,7.79S20.983,12.1,20.983,7.79,16.32,0,10.492,0Z" fill="#fff"/>
              </g>
              <g id="svga-group-eyesiriswrapper-left-2" data-name="svga-group-eyesiriswrapper-left" transform="translate(8.488 4.612)">
                <g id="svga-group-eyesiriscontrol-left-2" data-name="svga-group-eyesiriscontrol-left">
                  <g id="svga-group-eyesiris-left-2" data-name="svga-group-eyesiris-left">
                    <path id="SvgjsPath3795-2" data-name="SvgjsPath3795" d="M3.356,0A3.356,3.356,0,1,0,6.711,3.356,3.35,3.35,0,0,0,3.356,0Z" fill="#391d0f"/>
                    <path id="SvgjsPath3796-2" data-name="SvgjsPath3796" d="M1.8,0A1.766,1.766,0,0,0,0,1.8,1.766,1.766,0,0,0,1.8,3.6,1.766,1.766,0,0,0,3.6,1.8,1.766,1.766,0,0,0,1.8,0Z" transform="translate(1.558 1.558)"/>
                    <path id="SvgjsPath3797-2" data-name="SvgjsPath3797" d="M2.067.539l.36-.36A.68.68,0,0,1,2.906,0a.68.68,0,0,1,.479.18.68.68,0,0,1,.18.479.68.68,0,0,1-.18.479l-.36.36a.647.647,0,0,1-.419.18.467.467,0,0,1-.419-.18c-.36-.36-.36-.719-.12-.959ZM.449,3.6a.449.449,0,0,1,0-.9A.452.452,0,0,1,.449,3.6Z" transform="translate(1.708 1.378)" fill="#fff"/>
                  </g>
                </g>
              </g>
              <g id="svga-group-eyesfront-left-2" data-name="svga-group-eyesfront-left">
                <path id="SvgjsPath6842-2" data-name="SvgjsPath6842" d="M10.851,0c6,0,10.851,3.655,10.851,8.149S16.854,16.3,10.851,16.3,0,12.643,0,8.149,4.848,0,10.851,0Zm9.62,7.67a1.3,1.3,0,0,0,.231.3C20.7,7.91,20.548,7.79,20.471,7.67Zm-5.387,3.236c1.308-.06,5.618-2.157,5.618-2.816-.308-.24-1.462-1.2-2.309-1.738a8.925,8.925,0,0,0-3-1.318C12.775,4.614,8.7,6.352,7.85,6.891a60.365,60.365,0,0,1-5.464,3c1.981.2,4.741,1.111,8.135,1.37A35.983,35.983,0,0,0,15.084,10.906Z" fill="#f0c7b1"/>
                <path id="SvgjsPath6843-2" data-name="SvgjsPath6843" d="M1.094,6.391c.312-.6.7-1.2,1.094-1.8.547-.6,1.094-1.2,1.719-1.8A23.541,23.541,0,0,1,5.937,1.178,7.456,7.456,0,0,1,7.187.519,12.509,12.509,0,0,1,8.593.1a16.522,16.522,0,0,1,2.969-.06A10.445,10.445,0,0,1,16.874,1.9a11.818,11.818,0,0,1,.937.839c.312.3.625.6.859.839.312.3.547.6.859.9a3.363,3.363,0,0,1,.391.479,1.675,1.675,0,0,1,.312.479l.391.479-.312-.24s0,.06-.078.06a2.955,2.955,0,0,1-.469.419A13.169,13.169,0,0,1,17.421,7.41c-.391.18-.859.36-1.25.539a11.326,11.326,0,0,1-1.328.419c-.156,0-.234.06-.391.06a34.18,34.18,0,0,1-4.018.232C8.919,8.634,6.907,8.3,5.963,8.208,4.478,8.029,3.281,7.47,1.8,7.29l-.469.24-.625.3-.312.12-.156.06-.078.06A.3.3,0,0,1,0,8.129C.391,7.529.781,6.99,1.094,6.391ZM14.765,8.129a7.129,7.129,0,0,0,1.25-.36c.391-.18.859-.3,1.25-.479a12.261,12.261,0,0,0,2.265-1.2L20,5.732c.078-.06.078-.06.078-.12a14.088,14.088,0,0,0-4.453-2.756l-.7-.18a2.791,2.791,0,0,0-.7-.06,11.131,11.131,0,0,0-1.406.12A15.922,15.922,0,0,0,10,3.395,15.188,15.188,0,0,0,7.421,4.414c-.781.479-1.641.9-2.422,1.318-.859.419-1.641.839-2.5,1.258l-.7.36c1.919.065,4.587.8,7.812,1.019A31.48,31.48,0,0,0,14.765,8.129ZM.234,7.949l.156-.06L.7,7.709l.625-.36,1.25-.659L4.922,5.432c.781-.479,1.641-.9,2.344-1.378a12.566,12.566,0,0,1,1.25-.659c.391-.18.859-.36,1.328-.539a15.243,15.243,0,0,1,2.89-.659,6.812,6.812,0,0,1,1.562,0c.234.06.547.06.781.12a3.252,3.252,0,0,1,.7.24A11.683,11.683,0,0,1,18.2,3.874c.391.24.7.539,1.094.779l.391.3a.66.66,0,0,0-.312-.3,11.819,11.819,0,0,0-.937-.839c-.312-.3-.625-.539-.937-.839-.312-.24-.625-.539-.937-.779a9.937,9.937,0,0,0-5-1.618,13.77,13.77,0,0,0-2.734.06A6.415,6.415,0,0,0,6.484,1.6,35.016,35.016,0,0,0,2.578,4.713c-.391.539-.781,1.079-1.25,1.618A14.838,14.838,0,0,0,.078,8.009C.156,8.009.156,8.009.234,7.949Z" transform="translate(0.599 2.657)"/>
              </g>
            </g>
          </g>
        </g>
      </g>
    </g>
  </g>
</svg>
