<svg id="hadis2" xmlns="http://www.w3.org/2000/svg" width="200" height="220" viewBox="0 0 200 220">
  <g id="svga-group-backs-single">
    <path id="SvgjsPath7106" d="M0,0H200V220H0Z" fill="#ceb5a6"/>
  </g>
  <g id="svga-group-humanwrap-move" transform="translate(18.249 37.441)">
    <g id="svga-group-humanwrap">
      <g id="svga-group-hair-back-move" transform="translate(19.518 46.359)">
        <g id="svga-group-hair-back">
          <path id="SvgjsPath7169" d="M57.282,102.6s3.666,19.7,3.127,33.2-4.1,34.7-13.37,46.2L46.5,192.9H169.635l-3.882-18.5a37.278,37.278,0,0,1-11.968-18.3c-3.127-11.8-5.822-40.9-5.176-49.3s-2.156-22.4-2.156-22.4L60.625,84Z" transform="translate(-41.9 -84)" fill="#382013"/>
          <path id="SvgjsPath7170" d="M58.539,108.1c.966,7,1.825,14,2.254,21a116.878,116.878,0,0,1-.537,21.2,72.477,72.477,0,0,1-5.8,20.5,59.429,59.429,0,0,1-5.367,9.4,59.555,59.555,0,0,1-7.192,8.2,57.111,57.111,0,0,0,11.808-17.8,75.176,75.176,0,0,0,5.475-20.3,124.592,124.592,0,0,0,.859-21c-.322-7.1-.966-14.2-1.5-21.2Zm6.978,2.2c1.073,6.3,2.04,12.7,2.684,19.1a115.951,115.951,0,0,1,.429,19.3,76.651,76.651,0,0,1-3.757,19,51.814,51.814,0,0,1-3.972,8.9,48.346,48.346,0,0,1-5.582,8.1,58,58,0,0,0,8.8-17.3,80.718,80.718,0,0,0,3.542-18.9,114.691,114.691,0,0,0-.215-19.2c-.537-6.2-1.288-12.6-1.932-19Zm8.266,15.6a102.639,102.639,0,0,1,2.576,12.7,86.681,86.681,0,0,1,.751,12.9,104.519,104.519,0,0,1-1.073,12.9l-.537,3.2-.644,3.2-.751,3.1c-.322,1.1-.537,2.1-.859,3.1.215-1.1.429-2.1.644-3.2l.537-3.2.429-3.2.429-3.2c.429-4.3.751-8.6.751-12.8.107-4.3-.107-8.6-.429-12.9-.537-4.1-1.073-8.4-1.825-12.6ZM79.9,134c.644,3.3,1.181,6.6,1.61,10,.429,3.3.644,6.7.859,10.1s.215,6.7.215,10.1c0,1.7-.107,3.4-.107,5-.107,1.7-.215,3.4-.322,5l-.429-10c-.107-3.4-.215-6.7-.429-10.1s-.429-6.7-.644-10Zm46.482-6c.107,4,.215,8,.537,12a109.434,109.434,0,0,0,1.5,11.9c.644,4,1.5,7.9,2.469,11.8l.751,2.9.859,2.9.859,2.9c.322,1,.644,1.9.966,2.9-.859-1.9-1.61-3.8-2.254-5.6l-.966-2.9-1.073-2.8a93.36,93.36,0,0,1-2.684-11.8,112.877,112.877,0,0,1-1.288-12.1,75.973,75.973,0,0,1,.322-12.1Zm22.65-25.7c-.215,7-.107,13.9.215,20.8.429,6.9,1.181,13.9,2.254,20.7,1.073,6.9,2.469,13.7,5.689,20a32.845,32.845,0,0,0,6.226,8.5,26.529,26.529,0,0,0,9.017,5.9,24.787,24.787,0,0,1-9.447-5.6,31.768,31.768,0,0,1-6.548-8.5c-3.435-6.3-4.938-13.3-6.012-20.1a194.827,194.827,0,0,1-2.04-20.8,193.391,193.391,0,0,1,.644-20.9Zm-6.011,4.9a143.719,143.719,0,0,0,3.757,35.8,120.075,120.075,0,0,0,5.26,17.3l1.718,4.2,1.825,4.2,1.932,4.1,2.04,4.1-2.254-4-2.147-4.1-1.932-4.1-1.825-4.2a138.05,138.05,0,0,1-5.582-17.4,112.965,112.965,0,0,1-2.791-17.9,100.806,100.806,0,0,1,0-18Zm-5.367,3.7a143.868,143.868,0,0,0,.107,18,141.918,141.918,0,0,0,2.362,17.8,139.5,139.5,0,0,0,4.723,17.4l1.5,4.3,1.718,4.2,1.825,4.2,1.932,4.1-2.147-4-2.04-4.1-1.825-4.2-1.718-4.2A116.441,116.441,0,0,1,137.01,129,84.943,84.943,0,0,1,137.654,110.9Zm-6.87,13.6c.322,5.2.644,10.3,1.288,15.4s1.4,10.2,2.469,15.3a148.2,148.2,0,0,0,3.757,15.1l1.073,3.7,1.181,3.7,1.288,3.7,1.288,3.7-1.61-3.6-1.5-3.6-1.4-3.7-1.288-3.7a142.683,142.683,0,0,1-3.972-15.1,148.113,148.113,0,0,1-2.254-15.4c-.215-5.1-.429-10.3-.322-15.5ZM82.478,135.6c.751,3.9,1.288,7.9,1.825,11.9.429,4,.751,8,.859,12s.215,8,.107,12l-.322,6c-.215,2-.322,4-.537,6v-12c-.107-4-.107-8-.322-12-.107-4-.429-8-.644-12s-.644-7.9-.966-11.9ZM69.166,118.1a92.718,92.718,0,0,1,2.9,15.2,105.536,105.536,0,0,1,.537,15.4,107.309,107.309,0,0,1-1.718,15.4l-.751,3.8-.966,3.8-1.073,3.7L66.8,179.1l.966-3.7.859-3.8.751-3.8.644-3.8a147.587,147.587,0,0,0,1.5-15.3,121.348,121.348,0,0,0-.322-15.3,121.992,121.992,0,0,0-2.04-15.3Z" transform="translate(-41.9 -84)" fill="#311a0e"/>
        </g>
      </g>
      <g id="svga-group-humanbody-back" transform="translate(14.478 64.059)">
        <path id="SvgjsPath4197" d="M77.8,105.9s4.8,37.7,10,55.8c0,0-6.4,8.8-14.5,11.9-28.7,11.2-35,11.2-39.6,15.2-2.4,2.1.2,11.1,1.8,17.2a83.315,83.315,0,0,1,1.7,13.2H169.4s1.6-33-.6-39.8-7.1-2.9-21.9-4.5-28.7-10.3-31-13.2l.3-60-38.4,4.2Z" transform="translate(-32.727 -101.7)" fill="#ffd6c4"/>
      </g>
      <g id="svga-group-chinshadow-single" transform="translate(59.251 63.959)">
        <path id="SvgjsPath4402" d="M86.1,156.4a92.038,92.038,0,0,0,10.3,1s11.6-.6,15.5-2.3a20.482,20.482,0,0,0,3.7-2.8l.3-50.7-38.4,4.2S81.5,137.2,86.1,156.4Z" transform="translate(-77.5 -101.6)" fill="#e09d80"/>
      </g>
      <g id="svga-group-humanbody-front" transform="translate(13.736 63.259)">
        <path id="SvgjsPath4198" d="M72.1,183.1s14.6-.2,20.4,2.6c5.8,2.9,12.7,2.4,16.1-1s21.6-7,21.6-7-19.7,1.9-25,4.6-22.3-2.8-33.1.8Z" transform="translate(-31.985 -100.9)" fill="#e09d80"/>
        <path id="SvgjsPath4199" d="M74.2,173.2c6.7-1.3,14.7-6.4,14.7-6.4l6.2,5.5c-4.3-7.9-12.7-41.1-12.7-41.1l-.7.7a295.669,295.669,0,0,0,6.1,29.7s-6,8.2-13.6,11.6Z" transform="translate(-31.985 -100.9)" fill="#e09d80"/>
        <path id="SvgjsPath4200" d="M170.7,188.5c-.1-2.1-.2-4.1-.4-6.2a19.848,19.848,0,0,0-.6-3.2c-.2-.5-.4-1-.6-1.6a6.528,6.528,0,0,0-1-1.5,3.269,3.269,0,0,0-1.5-1.1,11.505,11.505,0,0,0-1.7-.6,17.745,17.745,0,0,0-3.2-.2c-2.1,0-4.1.1-6.1.1s-4-.1-6-.2-4-.4-6-.7c-1-.2-2-.4-2.9-.6l-1.5-.4c-.5-.1-1-.3-1.4-.4a66.742,66.742,0,0,1-11.2-4.4l-1.3-.7-1.3-.7a9.129,9.129,0,0,1-1.3-.8c-.4-.3-.9-.5-1.3-.8a14.8,14.8,0,0,0-1.3-.8l-1.2-.9-.6-.5-.3-.2-.3-.2c-.2-.2-.4-.3-.5-.5l-.2-.3V116.5l-.1-15v-.6l-.6.1c-6.4.8-12.9,1.5-19.3,2.3l-19.1,2.3v.5l.1.4.1.9.2,1.8c.1,1.2.3,2.3.4,3.5l.9,7c.6,4.7,1.3,9.4,2.1,14,.8,4.7,1.5,9.3,2.5,14,.9,4.5,1.8,9,3,13.5a44.823,44.823,0,0,1-3.6,4,52.964,52.964,0,0,1-4.3,3.8,29.7,29.7,0,0,1-4.8,3l-1.3.6c-.4.2-.9.3-1.3.5l-2.7,1c-7.2,2.7-14.5,5.3-21.8,7.7l-5.5,1.8a42.038,42.038,0,0,0-5.5,2.2c-.4.2-.9.5-1.3.7a10.144,10.144,0,0,0-1.3.9l-.6.5a2.407,2.407,0,0,0-.6.8,4.939,4.939,0,0,0-.5,1.6,10.728,10.728,0,0,0,0,3.1c.1,1,.3,2,.4,2.9.4,1.9.8,3.8,1.3,5.7l.8,2.8a22.912,22.912,0,0,1,.7,2.8,56.223,56.223,0,0,1,.9,5.7c.2,1.9.4,3.8.5,5.7v.8H170.1V219c.2-4.1.4-8.2.5-12.3s.2-8.2.2-12.3c0-1.8-.1-3.8-.1-5.9Zm-67.4,30.3H70.2l-16.5-.1-16-.1c-.1-1.8-.2-3.5-.4-5.3a57.712,57.712,0,0,0-.8-5.8c-.2-1-.4-1.9-.7-2.9l-.7-2.8a55.942,55.942,0,0,1-1.2-5.6,26.955,26.955,0,0,1-.4-2.8,12.178,12.178,0,0,1,0-2.7,3.582,3.582,0,0,1,.4-1.1,1.38,1.38,0,0,1,.3-.4l.5-.4a10.475,10.475,0,0,1,1.1-.8c.4-.2.8-.5,1.2-.7a48.133,48.133,0,0,1,5.3-2l5.5-1.8c7.3-2.4,14.6-5,21.8-7.8l2.7-1c.5-.2.9-.3,1.4-.5l1.4-.6a32.652,32.652,0,0,0,5-3.2,40.868,40.868,0,0,0,4.4-3.9,32.344,32.344,0,0,0,3.8-4.5l.2-.3-.1-.3c-1.3-4.5-2.3-9.1-3.3-13.7s-1.9-9.3-2.7-13.9-1.6-9.3-2.4-14l-2.2-13.9,19.3-1.8c6.2-.6,12.3-1.2,18.5-1.8l-.2,14.4-.2,15-.3,30v.4l.2.2.6.7.6.6.3.3.3.2.6.5c.4.3.9.6,1.3.9s.9.6,1.3.9.9.5,1.3.8.9.5,1.3.8l1.4.8,1.4.7c.5.2.9.5,1.4.7l1.4.7c1,.4,1.9.8,2.9,1.2s1.9.8,2.9,1.1l1.5.5a8.33,8.33,0,0,0,1.5.4c.5.1,1,.3,1.5.4l1.5.4c1,.3,2,.4,3,.6a61.729,61.729,0,0,0,6.2.8c2.1.2,4.1.2,6.2.2s4.1-.1,6.1-.1,4,.1,5,1.3a7.139,7.139,0,0,1,1.2,2.3,27.973,27.973,0,0,1,.6,2.8c.3,2,.4,4,.5,6s.1,4.1.2,6.1c.1,7.9-.1,15.8-.4,23.7-10.8.1-21.5.1-32.3.2H103.3Z" transform="translate(-31.985 -100.9)" fill="#d18462"/>
        <path id="SvgjsPath4201" d="M150.7,219.2,147,198l-.4,21.2Z" transform="translate(-31.985 -100.9)" fill="#e09d80"/>
        <path id="SvgjsPath4202" d="M47.3,203.5s2.2,11.5,2.9,15.7h3.5Z" transform="translate(-31.985 -100.9)" fill="#e09d80"/>
      </g>
      <g id="svga-group-clothes-single" transform="translate(0 128.628)">
        <path id="SvgjsPath6975" d="M70.5,190.577l31.882,12.879L135.9,181.7v50.346H71.7Z" transform="translate(-16.518 -179.015)" fill="#fff"/>
        <path id="SvgjsPath6976" d="M80.405,174.6c.459-1.058,7.235-6.444,7.235-6.444l-6.775.289L58.931,174.7l4.019,1.25s-20.44,6.252-23.2,6.444c-2.871.192-8.268,0-8.038,2.693,0,0-3.215,1.443-3.215,3.27s7,19.429,9.531,29.24H92.118s-8.153-18.371-9.416-22.7c-1.493-4.328-2.756-19.14-2.3-20.295Zm113.571-.1a5.666,5.666,0,0,0-3.445-.289s-.115-2.789-1.378-2.885-8.842.769-13.665,1.154a149.141,149.141,0,0,1-15.043-.289l1.378-1.058c-3.33-.1-18.6-5.771-20.555-6.252a31.175,31.175,0,0,0-6.2-.289s4.134,2.5,4.823,3.655,7.924,19.333,7.464,23.565-5.742,25.873-5.742,25.873h52.25c.115,0,1.493-42.513.115-43.186Z" transform="translate(-27.9 -164.56)" fill="#814d38"/>
        <path id="SvgjsPath6977" d="M195.055,177.206a6.129,6.129,0,0,0-.115-1.443,1.8,1.8,0,0,0-.115-.77.508.508,0,0,0-.115-.385c0-.1-.115-.192-.115-.289s-.229-.289-.344-.289l-.115-.1a5.381,5.381,0,0,0-2.065-.481h-.918a3.506,3.506,0,0,0-.229-1.058,3.673,3.673,0,0,0-.459-.962,2.714,2.714,0,0,0-.574-.577,2.063,2.063,0,0,0-.918-.289,14.869,14.869,0,0,0-2.18.1l-2.065.192-8.146.77a73.63,73.63,0,0,1-8.031.289c-1.95-.1-4.015-.1-5.966-.192l1.262-.962-2.065-.192c-.918-.1-2.065-.385-3.212-.577-1.147-.289-2.18-.577-3.327-.866l-6.539-2.02c-2.18-.673-4.36-1.347-6.654-2.02a11.221,11.221,0,0,0-3.556-.385h-3.556s-.115,0-.115.1l.115.1.115.1.229.1.344.289.8.577a16.877,16.877,0,0,1,1.491,1.154,14.942,14.942,0,0,1,1.377,1.251c.229.481.459,1.058.688,1.539.8,2.213,1.606,4.425,2.409,6.734.8,2.213,1.491,4.521,2.18,6.734.229.962.574,1.924.8,2.886-.688.577-1.377,1.251-2.065,1.828-2.753,2.309-5.392,4.714-8.146,7.023l-2.065,1.732a6.3,6.3,0,0,1-1.033.673,13.421,13.421,0,0,1-1.262.577c-1.721.77-3.442,1.443-5.163,2.213l-10.211,4.137c-3.442-.866-6.769-1.828-10.1-2.886a22.848,22.848,0,0,1-4.818-2.02c-1.606-.866-3.1-1.732-4.7-2.5-3.212-1.635-6.31-3.271-9.522-4.906l-3.9-1.924c-.688-3.656-1.147-7.407-1.491-11.159a31.336,31.336,0,0,1-.229-3.271v-.77a.638.638,0,0,1,.229-.577c.344-.385.8-.866,1.147-1.251.8-.866,1.721-1.635,2.639-2.5l1.377-1.251.688-.577.344-.289.229-.192.115-.1s.115-.1.115-.192h-7c-3.671.962-7.342,1.924-11.128,2.886-3.671.962-7.342,1.924-11.014,2.982l-2.409.673,2.409.77,1.491.481c-4.474,1.347-9.063,2.6-13.538,3.944-1.377.385-2.639.77-4.015,1.058-.688.192-1.377.385-1.95.481-.344.1-.574.1-.918.192l-1.033.1a35.907,35.907,0,0,0-4.36.481,6.879,6.879,0,0,0-2.18.866l-.459.385-.344.577a1.046,1.046,0,0,0-.115.577v.192a11.437,11.437,0,0,0-1.836,1.251,3.493,3.493,0,0,0-1.262,2.213,3.072,3.072,0,0,0,.229,1.154c.115.385.229.673.344,1.058.229.673.459,1.347.688,2.116l2.983,8.273c1.033,2.79,1.95,5.58,2.868,8.369s1.721,5.58,2.409,8.466l.115.385,156.944.1v-.481c.115-3.848,0-7.7.115-11.544l.229-11.544.229-11.544v-5.772ZM188.86,172.107Zm-123.9,44.733-10.211.1a79.911,79.911,0,0,0-1.262-8.947c-.574-3.367-1.262-6.734-1.95-10l-.574-2.5-.344-1.251a2.588,2.588,0,0,0-.229-.77,4.074,4.074,0,0,0-.459-.673,8.57,8.57,0,0,0-2.409-1.924,17.094,17.094,0,0,0-2.639-1.347,53.646,53.646,0,0,0-11.473-3.463c3.671,1.539,7.228,2.982,10.669,4.81a14.269,14.269,0,0,1,4.245,2.982.691.691,0,0,1,.229.385c0,.1.115.192.115.481l.229,1.251.574,2.5c.8,3.271,1.606,6.638,2.524,9.909.8,2.886,1.721,5.772,2.639,8.658H51.648l-13.079.192c-.8-2.694-1.721-5.387-2.639-8.081l-2.868-8.369c-.918-2.79-1.95-5.58-2.753-8.369a14.493,14.493,0,0,1-.574-2.116,3.506,3.506,0,0,1-.229-1.058,3.049,3.049,0,0,1-.115-.962c0-.577.459-1.058,1.033-1.539a7.685,7.685,0,0,1,1.95-1.154l.344-.192V185a1.067,1.067,0,0,1,.574-1.058,4.456,4.456,0,0,1,1.606-.577,27.477,27.477,0,0,1,4.13-.289h1.147c.344-.1.8-.1,1.147-.192a16.011,16.011,0,0,0,2.065-.481c1.377-.385,2.753-.673,4.13-1.058,5.392-1.443,10.784-3.078,16.062-4.714l.918-.289c.115.1.229.1.459.1l2.409.577c.574.1,1.033.1,1.606.192-.574.385-1.262.77-1.836,1.154-1.262.866-2.524,1.635-3.671,2.5s-2.409,1.732-3.671,2.6l-.688.481.459.577c1.033,1.251,2.065,2.6,2.983,3.848,1.033,1.251,2.065,2.6,2.983,3.848.459.673.918,1.347,1.262,1.924.344.673.8,1.347,1.147,2.02l2.18,4.233c2.753,5.387,5.622,10.775,8.719,15.969-4.818.385-9.293.481-13.882.481Zm13.767-.1c-.918-2.694-2.065-5.291-3.1-7.985-1.262-2.886-2.524-5.868-3.786-8.754l-2.065-4.329a20.345,20.345,0,0,0-1.147-2.213c-.459-.77-.918-1.443-1.377-2.116-1.836-2.5-3.786-4.81-5.736-7.119.918-.77,1.836-1.443,2.753-2.213l3.442-2.79c2.294-1.828,4.7-3.559,7-5.483-1.836,1.058-3.671,2.116-5.507,3.271-.574-.192-1.147-.481-1.721-.673-.459-.192-.918-.289-1.491-.481l-.688-.192s-.115,0-.115-.1a.428.428,0,0,1-.229-.1l-1.377-.385-1.606-.481c2.868-.866,5.622-1.732,8.49-2.6,3.671-1.058,7.228-2.213,10.784-3.367,2.065-.1,4.13-.385,6.425-.577l-.229.1-.344.289-.8.577L84.8,170.183c-.918.77-1.95,1.539-2.868,2.309a16.2,16.2,0,0,0-1.377,1.251c-.115.1-.229.289-.344.385a.9.9,0,0,0-.115.481c0,.289-.115.577-.115.866v3.367a107.089,107.089,0,0,0,1.262,13.372,17.935,17.935,0,0,0,.8,3.367c.344,1.058.8,2.116,1.147,3.271.8,2.116,1.606,4.233,2.524,6.349,1.491,3.752,3.1,7.5,4.7,11.159-4.015.385-7.8.385-11.7.385Zm17.9,0H92.949l-5.277-11.929-2.639-6.253c-.459-1.058-.918-2.116-1.262-3.078a26.531,26.531,0,0,1-.8-3.175c-.115-.385-.115-.866-.229-1.251l3.212,1.828,9.293,5.195c1.491.866,3.1,1.732,4.589,2.694A23.763,23.763,0,0,0,105,202.988c3.442,1.251,7,2.213,10.555,3.175l.344.1.344-.1c3.556-1.347,7.113-2.79,10.555-4.233l5.163-2.309a4.932,4.932,0,0,0,1.262-.673,12.016,12.016,0,0,0,1.262-.866c.688-.577,1.377-1.154,2.065-1.828,2.639-2.405,5.277-4.906,7.8-7.311l1.491-1.443c.229.962.459,1.924.574,2.79l.115.866v.77l-.344,1.732-.688,3.463-1.606,6.83-3.1,13.18c-8.49-.1-17.094-.1-25.584-.192-6.31-.192-12.505-.192-18.585-.192Zm58.051,0-11.587-.1c1.033-4.233,1.95-8.369,2.868-12.6.459-2.309,1.033-4.618,1.377-6.926l.688-3.463a9,9,0,0,0,.229-1.828v-.962l-.115-.962a63.176,63.176,0,0,0-1.836-6.926c-.8-2.309-1.606-4.521-2.524-6.734s-1.836-4.425-2.868-6.638a5.884,5.884,0,0,0-.918-1.635,18.855,18.855,0,0,0-1.491-1.347c-.574-.385-1.147-.77-1.606-1.058l-.918-.481-.459-.289-.115-.1h1.491c.574,0,1.147.1,1.721.1a12.558,12.558,0,0,1,3.327.577l6.425,2.309c2.18.77,4.36,1.539,6.539,2.213,1.033.385,2.18.673,3.327,1.058.574.192,1.147.289,1.721.481h-.115l-.8.577a8.877,8.877,0,0,0-1.262.77,32.445,32.445,0,0,0-2.983,2.309,42.427,42.427,0,0,0-4.245-2.02c1.377.866,2.868,1.828,4.245,2.79l2.065,1.443a16.355,16.355,0,0,0,2.295,1.251c1.606.77,3.212,1.443,4.818,2.116,1.262.577,2.524,1.058,3.9,1.539-1.606,2.5-3.212,5.1-4.7,7.7l-2.409,4.329a28.986,28.986,0,0,0-2.18,4.521c-.459,1.635-.918,3.175-1.262,4.714s-.688,3.078-1.033,4.714c-.574,2.982-1.147,5.772-1.606,8.562Zm39.121-10.582c-.115,3.656-.344,7.311-.459,11.063-4.7-.1-9.293-.192-14-.192a99.521,99.521,0,0,0,.8-10.2c.115-3.752.229-7.5.115-11.256,0-.962-.115-1.924-.115-2.886l-.115-.77v-.481a4.124,4.124,0,0,1,.229-1.154,34.1,34.1,0,0,1,2.524-5c2.065-3.271,4.245-6.542,6.654-9.716a54.1,54.1,0,0,0-8.26,8.947,22.184,22.184,0,0,0-2.983,5.195,3.43,3.43,0,0,0-.344,1.539v.866l.115.673a21.923,21.923,0,0,1,.115,2.79c.115,3.752.229,7.5.459,11.256.115,3.367.344,6.734.8,10.2-3.786-.1-7.457-.1-11.243-.1l-12.735-.1c.918-2.694,1.721-5.483,2.639-8.177.918-3.078,1.836-6.157,2.868-9.139.229-.673.688-1.347,1.033-2.116l1.147-2.116,2.524-4.233,5.048-8.562.459-.866-1.033-.385c-3.327-1.154-6.654-2.309-9.866-3.559a26.218,26.218,0,0,1-2.409-1.058c-.688-.385-1.491-.866-2.18-1.251a.1.1,0,0,1-.115-.1,7.523,7.523,0,0,0,1.606-.577,10.662,10.662,0,0,0,1.836-1.058,9.953,9.953,0,0,1,1.147-.866l.688.1c2.753.192,5.507.385,8.145.481a59.224,59.224,0,0,0,8.26-.192l8.146-.77,2.065-.192a13.291,13.291,0,0,1,1.836-.1l.115.1a3.039,3.039,0,0,1,.344.577c.115.481.229,1.058.344,1.539l.115.866,1.033-.192a4.827,4.827,0,0,1,2.639.1v.192c0,.192.115.481.115.673a6.129,6.129,0,0,1,.115,1.443l.344,5.772c.115,3.848.229,7.7.115,11.544-.459,3.752-.574,7.6-.688,11.448Z" transform="translate(-27.9 -164.56)" fill="#622d17"/>
      </g>
      <g id="svga-group-head" transform="translate(27.31 0)">
        <g id="svga-group-ears-left-move" transform="translate(0 53.249)">
          <g id="svga-group-ears-left">
            <path id="SvgjsPath4144" d="M62.22,91.07s-9.85-8.65-11.43-8.8c-1.36-.13-4.73,7.07-6.22,11.62a5.2,5.2,0,0,0,.22,3.7c1.43,3.16,4.6,9.75,7.44,13.05a10.965,10.965,0,0,0,3.16.29c.76-.23,6.69-5,7.3-6.86s.74-9.97-.47-13Z" transform="translate(-44.219 -81.89)" fill="#ffd6c4"/>
            <path id="SvgjsPath4145" d="M63.07,94.44a34.166,34.166,0,0,1,.29,3.5c.05,1.17.05,2.34-.01,3.51-.03.59-.08,1.17-.15,1.76-.05.3-.09.59-.17.9a3.05,3.05,0,0,1-.41.85,15,15,0,0,1-2.18,2.48c-.78.74-1.58,1.44-2.39,2.12-.41.33-.82.67-1.25.98-.21.16-.43.31-.65.46l-.35.22a1.557,1.557,0,0,1-.47.17,6.066,6.066,0,0,1-1.61-.08c-.51-.07-1.02-.17-1.53-.28l-.12-.03-.07-.09a32.658,32.658,0,0,1-3.3-4.99c-.97-1.75-1.85-3.56-2.7-5.38l-1.25-2.75a5.409,5.409,0,0,1-.48-3.05,7.155,7.155,0,0,1,.39-1.48c.16-.47.33-.94.5-1.41.35-.93.7-1.86,1.07-2.78a36.326,36.326,0,0,1,2.59-5.32,8.388,8.388,0,0,1,.88-1.2,2.556,2.556,0,0,1,.6-.52.894.894,0,0,1,.46-.14,1.724,1.724,0,0,1,.42.1,13.108,13.108,0,0,1,2.43,1.56c1.52,1.14,2.98,2.35,4.41,3.61s2.85,2.53,4.24,3.87a15.53,15.53,0,0,1,.81,3.41ZM53.28,84.13a13.581,13.581,0,0,0-2.29-1.42,1.834,1.834,0,0,0-.23-.07.363.363,0,0,0-.18.06,1.593,1.593,0,0,0-.45.39,8.44,8.44,0,0,0-.83,1.09,42.792,42.792,0,0,0-2.74,5.1c-.41.89-.81,1.78-1.16,2.71-.18.46-.35.92-.52,1.39a6.455,6.455,0,0,0-.4,1.41,5.108,5.108,0,0,0,.49,2.88q.63,1.365,1.32,2.7c.9,1.78,1.87,3.52,2.88,5.22a36,36,0,0,0,3.32,4.79l-.19-.11a11.014,11.014,0,0,0,2.91.29.771.771,0,0,0,.25-.1l.31-.2.62-.45c.41-.3.82-.63,1.23-.95.81-.66,1.6-1.34,2.37-2.06a16.926,16.926,0,0,0,2.11-2.3,2.541,2.541,0,0,0,.33-.63c.07-.24.12-.51.17-.78.08-.55.15-1.12.19-1.69.08-1.14.12-2.29.13-3.45s-.04-2.31-.13-3.46a14.248,14.248,0,0,0-.59-3.39c-2.96-2.34-5.91-4.75-8.92-6.97Z" transform="translate(-44.219 -81.89)" fill="#f0b9a0"/>
            <path id="SvgjsPath4146" d="M62.45,98.39S52.96,86.4,51.18,87.4s-4.58,6.65-4.57,8.53c.02,2.77,2.95,7.4,4.42,8.8a5.8,5.8,0,0,0,5.6,1.71c2.35-.54,5.82-8.05,5.82-8.05Z" transform="translate(-44.219 -81.89)" fill="#f0b9a0"/>
            <path id="SvgjsPath4147" d="M56.36,101.74c-.34-1.14-.73-2.26-1.13-3.37s-.833-2.208-1.28-3.3-.93-2.16-1.46-3.21a29.612,29.612,0,0,0-1.74-3.05l-.07-.11-.07.11c-.66,1.04-1.28,2.1-1.88,3.2-.3.55-.58,1.1-.85,1.67s-.51,1.16-.74,1.75l-.04.09.04.11c.41,1.24.84,2.46,1.29,3.69.22.61.48,1.21.73,1.81a15.362,15.362,0,0,0,.87,1.78l.17.27.22-.2a6.545,6.545,0,0,0,.77-.9,7.545,7.545,0,0,0,.61-1.03,5.229,5.229,0,0,0,.53-2.42v-.05l-.02-.04c-.44-.87-.91-1.73-1.36-2.6l-.05.03c.37.91.74,1.83,1.13,2.73l-.02-.09a4.994,4.994,0,0,1-.61,2.16,6.612,6.612,0,0,1-1.32,1.7l.39.07a15.549,15.549,0,0,1-.81-1.69l-.72-1.79c-.48-1.2-.93-2.41-1.38-3.62v.2a32.54,32.54,0,0,1,1.38-3.47,22.372,22.372,0,0,1,1.8-3.22H50.6a20.494,20.494,0,0,1,1.55,3.11l1.36,3.24,1.38,3.24c.46,1.08.92,2.16,1.41,3.23l.06-.03Z" transform="translate(-44.219 -81.89)" fill="#d18462"/>
          </g>
        </g>
        <g id="svga-group-ears-right-move" transform="translate(92.404 53.259)">
          <g id="svga-group-ears-right">
            <path id="SvgjsPath4148" d="M137.78,91.07s9.85-8.65,11.43-8.8c1.36-.13,4.73,7.07,6.22,11.62a5.2,5.2,0,0,1-.22,3.7c-1.43,3.16-4.6,9.75-7.44,13.05a10.965,10.965,0,0,1-3.16.29c-.76-.23-6.69-5-7.3-6.86s-.74-9.97.47-13Z" transform="translate(-136.624 -81.9)" fill="#ffd6c4"/>
            <path id="SvgjsPath4149" d="M137.75,91.04c1.4-1.34,2.8-2.62,4.24-3.87s2.9-2.47,4.41-3.61A14.226,14.226,0,0,1,148.83,82a1.362,1.362,0,0,1,.42-.1.894.894,0,0,1,.46.14,2.775,2.775,0,0,1,.6.52,9.23,9.23,0,0,1,.88,1.2,36.327,36.327,0,0,1,2.59,5.32c.38.92.72,1.85,1.07,2.78.17.47.34.94.5,1.41a7.154,7.154,0,0,1,.39,1.48,5.409,5.409,0,0,1-.48,3.05l-1.25,2.75c-.85,1.82-1.73,3.63-2.7,5.38a32.175,32.175,0,0,1-3.3,4.99l-.07.09-.11.02c-.51.11-1.02.2-1.53.28a6.517,6.517,0,0,1-1.61.08,1.4,1.4,0,0,1-.47-.17l-.35-.22c-.22-.15-.44-.3-.65-.46-.43-.32-.84-.65-1.25-.98-.82-.67-1.62-1.38-2.39-2.12a14.608,14.608,0,0,1-2.18-2.48,3.05,3.05,0,0,1-.41-.85,6.161,6.161,0,0,1-.17-.9c-.07-.59-.12-1.18-.15-1.76-.06-1.17-.06-2.34-.01-3.51s.13-2.34.29-3.5a13.792,13.792,0,0,1,.8-3.4Zm.06.05a15.226,15.226,0,0,0-.59,3.39c-.09,1.15-.14,2.31-.13,3.46s.05,2.3.13,3.45c.04.57.11,1.14.19,1.69.05.27.1.54.17.78a2.378,2.378,0,0,0,.33.63,16.925,16.925,0,0,0,2.11,2.3c.76.72,1.56,1.41,2.37,2.06.41.33.81.65,1.23.95l.62.45.31.2a.771.771,0,0,0,.25.1,11.014,11.014,0,0,0,2.91-.29l-.19.11a36,36,0,0,0,3.32-4.79q1.523-2.564,2.88-5.22c.45-.89.9-1.79,1.32-2.7a5.108,5.108,0,0,0,.49-2.88,6.455,6.455,0,0,0-.4-1.41c-.16-.47-.34-.93-.52-1.39-.35-.92-.76-1.82-1.16-2.71a42.792,42.792,0,0,0-2.74-5.1,8.439,8.439,0,0,0-.83-1.09,2.547,2.547,0,0,0-.45-.39.314.314,0,0,0-.18-.06c-.05,0-.15.06-.23.07a13.581,13.581,0,0,0-2.29,1.42c-3.02,2.23-5.97,4.64-8.92,6.97Z" transform="translate(-136.624 -81.9)" fill="#f0b9a0"/>
            <path id="SvgjsPath4150" d="M137.55,98.39s9.49-11.99,11.27-10.99,4.58,6.65,4.57,8.53c-.02,2.77-2.95,7.4-4.42,8.8a5.823,5.823,0,0,1-5.6,1.71C141.02,105.9,137.55,98.39,137.55,98.39Z" transform="translate(-136.624 -81.9)" fill="#f0b9a0"/>
            <path id="SvgjsPath4151" d="M143.64,101.74c.34-1.14.73-2.26,1.13-3.37s.84-2.21,1.28-3.3.93-2.16,1.46-3.21a29.61,29.61,0,0,1,1.74-3.05l.07-.11.07.11c.66,1.04,1.28,2.1,1.88,3.2.3.55.58,1.1.85,1.67s.51,1.16.74,1.75l.04.09-.04.11c-.41,1.24-.84,2.46-1.29,3.69-.22.61-.48,1.21-.73,1.81a15.363,15.363,0,0,1-.87,1.78l-.17.27-.22-.2a6.545,6.545,0,0,1-.77-.9,7.546,7.546,0,0,1-.61-1.03,5.228,5.228,0,0,1-.53-2.42v-.05l.02-.04c.44-.87.91-1.73,1.36-2.6l.05.03c-.37.91-.74,1.83-1.13,2.73l.02-.09a4.994,4.994,0,0,0,.61,2.16,6.612,6.612,0,0,0,1.32,1.7l-.39.07a15.548,15.548,0,0,0,.81-1.69l.72-1.79c.48-1.2.93-2.41,1.38-3.62v.2a32.539,32.539,0,0,0-1.38-3.47,22.372,22.372,0,0,0-1.8-3.22h.14a20.494,20.494,0,0,0-1.55,3.11l-1.36,3.24-1.38,3.24c-.46,1.08-.92,2.16-1.41,3.23l-.06-.03Z" transform="translate(-136.624 -81.9)" fill="#d18462"/>
          </g>
        </g>
        <g id="svga-group-faceshape-wrap" transform="translate(10.481 3.559)">
          <g id="svga-group-faceshape-single">
            <path id="SvgjsPath4392" d="M135.9,49.8c-6.7-7.4-11.3-13.2-28.8-17.3a82.987,82.987,0,0,0-14.1,0c-17.5,4.1-22.1,9.9-28.8,17.3-7.1,7.8-9.5,29-9.5,29,0,21.4,2.7,35.2,5,41.3,2.3,6.2,21.1,25.2,24.9,27s15.5,2.3,15.5,2.3,11.6-.6,15.5-2.3c3.8-1.8,22.6-20.8,24.9-27s5.1-19.9,5-41.3c-.1,0-2.5-21.2-9.6-29Z" transform="translate(-54.7 -32.2)" fill="#ffd6c4"/>
            <path id="SvgjsPath4393" d="M107.1,32.5a82.987,82.987,0,0,0-14.1,0c-17.5,4.1-22.1,9.9-28.8,17.3-7.1,7.8-9.5,29-9.5,29,0,21.4,2.7,35.2,5,41.3,2.3,6.2,21.1,25.2,24.9,27s15.5,2.3,15.5,2.3,11.6-.6,15.5-2.3c3.8-1.8,22.6-20.8,24.9-27s5.1-19.9,5-41.3c0,0-2.4-21.2-9.5-29-6.8-7.4-11.4-13.2-28.9-17.3Zm35,31.2a66.87,66.87,0,0,1,1.6,7.5c.4,2.5.8,5,1,7.5-.1,3.9-.3,7.8-.7,11.7l-.3,2.9-.3,2.9-.3,2.9-.4,2.9c-.6,3.9-1.2,7.7-2.1,11.4-.5,1.9-1,3.7-1.6,5.5a29.4,29.4,0,0,1-2.7,4.6c-1.2,1.5-2.4,3-3.7,4.5s-2.6,2.9-3.9,4.4c-2.6,2.9-5.4,5.6-8.2,8.3a50.836,50.836,0,0,1-4.3,3.8,10.843,10.843,0,0,1-2.1,1.3,19.733,19.733,0,0,1-2.6.7c-1.8.4-3.8.6-5.7.9-1.9.2-3.8.4-5.7.5-1.9-.1-3.8-.2-5.7-.4s-3.9-.4-5.7-.7a12.807,12.807,0,0,1-4.8-1.9,50.706,50.706,0,0,1-4.4-3.7c-2.9-2.6-5.7-5.3-8.4-8.2a108.919,108.919,0,0,1-7.8-8.8c-.6-.8-1.2-1.5-1.7-2.3a7.459,7.459,0,0,1-.7-1.2l-.3-.6a4.875,4.875,0,0,1-.3-.7,51.834,51.834,0,0,1-1.7-5.6,57.825,57.825,0,0,1-1.2-5.7c-.2-1-.3-1.9-.5-2.9l-.4-2.9a166.683,166.683,0,0,1-1.1-23.4,104.368,104.368,0,0,1,3-13.7c.7-2.2,1.4-4.5,2.3-6.6a29.174,29.174,0,0,1,1.4-3.1,27.549,27.549,0,0,1,1.7-2.9,36.012,36.012,0,0,1,4.6-5.2,54.72,54.72,0,0,1,5-4.7A42.764,42.764,0,0,1,79.1,39a44.647,44.647,0,0,1,6.3-2.8l1.6-.6a66.705,66.705,0,0,1,8.3-2.1c1.2-.1,2.3-.1,3.5-.2,2.3-.1,4.65-.14,6.95-.14.1,0,3.35.64,3.35.64l1.8.4,1.7.4a40.794,40.794,0,0,1,6.7,2.3c.3.1.5.2.8.3l.8.4c.5.3,1.1.5,1.6.8l1.5.9,1.5.9a29.34,29.34,0,0,1,5.4,4.5c1.7,1.7,3.3,3.4,4.9,5.2a23.018,23.018,0,0,1,3.9,6.6,46.78,46.78,0,0,1,2.4,7.2Z" transform="translate(-54.7 -32.2)" fill="#d18462"/>
          </g>
        </g>
        <g id="svga-group-mouth-single-move" transform="matrix(0.999, -0.035, 0.035, 0.999, 37.828, 93.224)">
          <g id="svga-group-mouth-single" transform="translate(0 0)">
            <path id="SvgjsPath6813" d="M0,3.445a17.926,17.926,0,0,0,5.22-1.19C7.7,1.016,10.142-.082,13.209,0c.692.018,1.509.681,2.633.759.745.051,1.7-.633,2.722-.446,4.531.821,8.76,4.2,12.2,3.328a29.229,29.229,0,0,1-8.968,4.1,28.133,28.133,0,0,1-6.363.9A21.661,21.661,0,0,1,7.633,7C4.063,5.433,0,3.445,0,3.445Z" transform="matrix(1, -0.017, 0.017, 1, 2.247, 0.537)" fill="#da7c87"/>
            <path id="SvgjsPath6814" d="M15.988,8.873a23.005,23.005,0,0,1-8.5-1.445A79.225,79.225,0,0,1,.39,3.858L0,3.538.5,3.5a17.781,17.781,0,0,0,5.14-1.17A18.338,18.338,0,0,1,13.942,0c.644-.011,1.478.467,2.5.535C17.385.6,18.252.073,19.52.268a24.04,24.04,0,0,1,5.02,1.91c2.49,1.09,4.64,2.03,6.68,1.51l.78-.2-.59.54A27.041,27.041,0,0,1,22.5,8.1a31.462,31.462,0,0,1-6.517.776ZM1.03,3.858c.785.614,2.631,1.1,5.027,2.419.337.188.966.506,1.6.78,3.63,1.58,10.422,1.413,14.682.513a28.391,28.391,0,0,0,6.3-2.351,10.394,10.394,0,0,0,1.948-1c-1.93.2-3.93-.67-6.2-1.66A18.387,18.387,0,0,0,19.52.8c-.773-.114-2.2.295-3.258.223-.877-.06-1.187-.48-2.32-.491A18,18,0,0,0,5.83,2.688,16.376,16.376,0,0,1,1.03,3.858Z" transform="translate(1.815 0.004)" fill="#d26d79"/>
            <path id="SvgjsPath6815" d="M.115.017a7.837,7.837,0,0,0,3.94,2.11,14.277,14.277,0,0,0,4.52,0c1.53-.14,3.05-.31,4.57-.47s3.04-.34,4.63-.39a36.619,36.619,0,0,1,4.64.48c.76.12,1.51.22,2.26.31.75.11,1.5.18,2.24.22a16.446,16.446,0,0,0,2.22,0c.75-.06,1.49-.17,2.23-.3a21.447,21.447,0,0,0,2.21-.52,17.268,17.268,0,0,0,2.16-.75.052.052,0,0,1,.07.03.066.066,0,0,1-.02.07,14.939,14.939,0,0,1-4.25,1.91,17.787,17.787,0,0,1-2.3.51,15.827,15.827,0,0,1-2.38.13c-.79-.03-1.57-.1-2.34-.19s-1.53-.24-2.29-.37a33.932,33.932,0,0,0-4.48-.67c-1.48-.01-3.03.12-4.55.23s-3.06.23-4.6.31c-.77.03-1.53.08-2.31.08a8.257,8.257,0,0,1-2.32-.3A7.949,7.949,0,0,1,.015.087a.06.06,0,0,1,0-.08.11.11,0,0,1,.1.01Z" transform="translate(0 2.036)" fill="#cb5f6c"/>
          </g>
        </g>
        <g id="svga-group-eyes-left-move" transform="matrix(-0.982, -0.191, 0.191, -0.982, 45.198, 74.593)">
          <g id="svga-group-eyes-left" transform="translate(0 0)">
            <g id="svga-group-eyesback-left" transform="translate(0.475 0.554)">
              <path id="SvgjsPath5251" d="M12.419,19.44c6.9,0,12.418-4.337,12.418-9.72S19.318,0,12.418,0,0,4.337,0,9.72,5.519,19.44,12.419,19.44Z" transform="translate(0 0)" fill="#fff"/>
            </g>
            <g id="svga-group-eyesiriswrapper-left" transform="translate(8.461 5.835)">
              <g id="svga-group-eyesiriscontrol-left">
                <g id="svga-group-eyesiris-left">
                  <path id="SvgjsPath4217" d="M4.432,8.864A4.432,4.432,0,1,0,0,4.432,4.425,4.425,0,0,0,4.432,8.864Z" fill="#596938"/>
                  <path id="SvgjsPath4218" d="M2.374,4.748A2.332,2.332,0,0,0,4.748,2.374,2.332,2.332,0,0,0,2.374,0,2.332,2.332,0,0,0,0,2.374,2.332,2.332,0,0,0,2.374,4.748Z" transform="translate(2.058 2.058)"/>
                  <path id="SvgjsPath4219" d="M1.979,4.036,1.5,4.511a.9.9,0,0,1-.633.237.9.9,0,0,1-.633-.237A.9.9,0,0,1,0,3.878a.9.9,0,0,1,.237-.633L.712,2.77a.9.9,0,0,1,.633-.237.9.9,0,0,1,.633.237.957.957,0,0,1,0,1.266ZM4.115,0a.594.594,0,1,1,0,1.187A.6.6,0,0,1,4.115,0Z" transform="translate(1.899 2.295)" fill="#fff"/>
                </g>
              </g>
            </g>
            <g id="svga-group-eyesfront-left">
              <path id="SvgjsPath5259" d="M12.893,20.389C5.761,20.389,0,15.817,0,10.195S5.761,0,12.893,0,25.787,4.573,25.787,10.195,20.026,20.389,12.893,20.389Zm-2.13-13.8C6.74,7.713,3.932,10.569,3.2,12.893c-.732,2.4,11.43,2.4,14.631.3A9.941,9.941,0,0,0,22.4,6.671S14.787,5.389,10.763,6.588Z" fill="#ffd6c4"/>
              <path id="SvgjsPath5260" d="M21.117,1.1v.142a1.8,1.8,0,0,1-.284.992,1.641,1.641,0,0,0-.189.638,9.071,9.071,0,0,1-2.557,3.968,11.636,11.636,0,0,1-7.765,2.834A25.922,25.922,0,0,1,2.367,8.4,10.516,10.516,0,0,1,0,6.772s.379.071,1.042.213a.222.222,0,0,1,.095-.213c.095-.213.361-.378.361-.52A32.541,32.541,0,0,1,3.889,3.309,10.549,10.549,0,0,1,8.7.623,14.058,14.058,0,0,1,14.773.112a51.829,51.829,0,0,1,6.345.992h0Zm-.095,0C18.939.82,16.856.537,14.678.395a19.219,19.219,0,0,0-3.4-.008A15.759,15.759,0,0,0,8.785.9S5.214,2.1,4.078,3.451c-.568.638-2.107,2.518-2.3,2.872-.095.213-.266.307-.361.52,0,.071-.095.142-.095.213a53.3,53.3,0,0,0,9.091,1.276,13.338,13.338,0,0,0,7.955-3.26c1.042-.779,2.273-3.118,2.652-3.756Z" transform="translate(1.82 5.805)"/>
            </g>
          </g>
        </g>
        <g id="svga-group-eyebrows-left-move" transform="matrix(0.999, -0.035, 0.035, 0.999, 19.048, 48.378)">
          <g id="svga-group-eyebrows-left-rotate">
            <g id="svga-group-eyebrows-left">
              <path id="SvgjsPath5730" d="M0,7.549S2.487,2.566,6.66.743c5.448-2.381,19.306,1.675,20.108,2.192s.319,3.1-1.03,3.218S17.967,3.723,13.165,2.6,4.091,2.6,0,7.549Z" transform="translate(0.027 0.31)" fill="#403b40"/>
              <path id="SvgjsPath5731" d="M.015,7.89c.109-.108.237-.215.356-.347l.337-.356c.219-.232.447-.455.675-.67A16.366,16.366,0,0,1,2.823,5.283,12.513,12.513,0,0,1,6.115,3.43a10.427,10.427,0,0,1,3.738-.645,14.98,14.98,0,0,1,3.811.554C16.2,3.984,18.7,4.8,21.205,5.59a37.56,37.56,0,0,0,3.848,1.059,3.555,3.555,0,0,0,.52.058,1.429,1.429,0,0,0,.584-.083,1.665,1.665,0,0,0,.8-.72,2.923,2.923,0,0,0,.365-.927,2.785,2.785,0,0,0,.046-.993,1.838,1.838,0,0,0-.146-.5.848.848,0,0,0-.4-.422,9.571,9.571,0,0,0-.957-.339c-.638-.19-1.267-.372-1.906-.546q-1.911-.505-3.848-.927A48.833,48.833,0,0,0,12.279.03,16.514,16.514,0,0,0,8.294.253,7.975,7.975,0,0,0,6.37.873,10.216,10.216,0,0,0,4.684,1.9,14.645,14.645,0,0,0,1.966,4.63,15.923,15.923,0,0,0,.89,6.2c-.164.273-.319.546-.474.819C.343,7.161.27,7.3.2,7.435L.1,7.65l-.055.108-.018.05-.009.025-.009.017a.027.027,0,0,0,.009.041Zm.027-.058A19.43,19.43,0,0,1,5,2.263a10.34,10.34,0,0,1,1.623-.935,7.583,7.583,0,0,1,1.8-.554A20.538,20.538,0,0,1,12.279.526,36.568,36.568,0,0,1,16.19.807c1.3.149,2.6.356,3.893.621s2.562.579,3.83.935c.629.174,1.267.372,1.878.587.3.108.62.223.894.347a.815.815,0,0,1,.328.695,2.764,2.764,0,0,1-.438,1.671,1.214,1.214,0,0,1-.611.513.954.954,0,0,1-.383.041,3.3,3.3,0,0,1-.456-.074c-.62-.132-1.249-.323-1.869-.513l-1.878-.612c-2.5-.819-4.988-1.7-7.568-2.341a15.018,15.018,0,0,0-3.985-.513,11.073,11.073,0,0,0-3.921.794A12.071,12.071,0,0,0,2.586,5.027,13.338,13.338,0,0,0,1.21,6.367c-.21.24-.429.472-.629.72A2.46,2.46,0,0,0,.3,7.451a2.726,2.726,0,0,1-.255.381Z" fill="#312831"/>
            </g>
          </g>
        </g>
        <g id="svga-group-eyebrows-right-move" transform="translate(63.371 46.048) rotate(8)">
          <g id="svga-group-eyebrows-right-rotate">
            <g id="svga-group-eyebrows-right" transform="translate(0)">
              <path id="SvgjsPath5732" d="M29.068,6.908S26.177,2.25,21.657.611C15.743-1.525,1.176,2.585.362,3.082S.169,6.016,1.614,6.1s8.143-2.454,13.213-3.62c5.039-1.15,9.65-.163,14.241,4.427Z" transform="translate(0.221 0.31)" fill="#403b40"/>
              <path id="SvgjsPath5733" d="M29.319,7.193l-.01-.017-.02-.026L29.258,7.1l-.061-.1-.122-.2c-.081-.129-.163-.268-.254-.388-.183-.259-.356-.509-.55-.76a16.2,16.2,0,0,0-1.221-1.459,15.171,15.171,0,0,0-3.023-2.521A12.54,12.54,0,0,0,22.184.727,9.783,9.783,0,0,0,20.108.183,20.073,20.073,0,0,0,15.853.054a58.612,58.612,0,0,0-8.275,1.3c-1.354.3-2.707.6-4.041.95-.672.173-1.333.354-1.995.552a9.819,9.819,0,0,0-1,.337A.8.8,0,0,0,.139,3.6a1.64,1.64,0,0,0-.132.483A2.773,2.773,0,0,0,.536,5.9a1.824,1.824,0,0,0,.9.665,1.73,1.73,0,0,0,.631.069,2.779,2.779,0,0,0,.55-.078,41.343,41.343,0,0,0,4.03-1.079c2.626-.794,5.252-1.614,7.918-2.279a17.631,17.631,0,0,1,4.03-.6,12.7,12.7,0,0,1,4,.535,14.368,14.368,0,0,1,3.593,1.683c.55.354,1.079.742,1.588,1.139.254.2.5.406.753.613l.366.328c.132.121.275.224.4.319.02.009.031-.017.031-.026Zm-.346-.345c-.081-.095-.214-.224-.326-.337-.224-.233-.458-.449-.7-.665a15.256,15.256,0,0,0-1.537-1.234A14.038,14.038,0,0,0,22.795,2.73a13.191,13.191,0,0,0-4.2-.673,17,17,0,0,0-4.214.561c-2.707.656-5.313,1.537-7.929,2.365L4.495,5.6c-.651.2-1.313.388-1.964.535-.163.035-.326.06-.478.078a1.056,1.056,0,0,1-.407-.026,1.366,1.366,0,0,1-.672-.466A2.416,2.416,0,0,1,.434,4.146.717.717,0,0,1,.749,3.49c.285-.129.611-.242.936-.354.651-.216,1.3-.414,1.964-.6,1.323-.363,2.677-.691,4.02-.967C9.034,1.3,10.4,1.081,11.782.909S14.551.615,15.925.563a22.357,22.357,0,0,1,4.1.155A8.455,8.455,0,0,1,21.96,1.2a12.063,12.063,0,0,1,1.781.846A20.457,20.457,0,0,1,29.288,7.2c-.132-.129-.224-.259-.316-.354Z" fill="#312831"/>
            </g>
          </g>
        </g>
        <g id="svga-group-nose-single-move" transform="translate(44.571 64.125)">
          <g id="svga-group-nose-single">
            <path id="SvgjsPath4473" d="M111.56,109.074a7.379,7.379,0,0,0-1.763-2.285,9.994,9.994,0,0,1,1.353,2.414,2.471,2.471,0,0,1,.155,1.247,1.135,1.135,0,0,1-.255.529,2.4,2.4,0,0,1-.455.469,3.379,3.379,0,0,1-2.606.678,5.451,5.451,0,0,1-1.419-.349,11.372,11.372,0,0,1-1.253-.539,12.176,12.176,0,0,0,.987-1.546c-.954.8-1.841,1.606-2.795,2.315a10.944,10.944,0,0,1-1.464.958,3.133,3.133,0,0,1-1.475.459,1.443,1.443,0,0,1-.3-.03,1.583,1.583,0,0,1-.288-.14c-.233-.13-.477-.309-.721-.479-.488-.339-.965-.718-1.453-1.077-.965-.738-1.941-1.477-2.983-2.165a19.278,19.278,0,0,0,1.63,1.965,8.2,8.2,0,0,1-1.486.459,3.29,3.29,0,0,1-1.8-.09,2.49,2.49,0,0,1-1.5-2.574,1.45,1.45,0,0,1,.288-.648c.166-.229.355-.459.543-.688.388-.449.8-.9,1.231-1.327l.643-.648a7.646,7.646,0,0,0,.643-.738,8.982,8.982,0,0,0,1.042-1.606,6.992,6.992,0,0,0,.577-1.806c.111-.589.222-1.177.288-1.766.144-1.177.266-2.355.3-3.542a27.43,27.43,0,0,0-.5-7.064,52.829,52.829,0,0,1-.388,7.014c-.144,1.157-.288,2.325-.488,3.472-.1.579-.2,1.147-.311,1.716a5.637,5.637,0,0,1-.521,1.566,8.475,8.475,0,0,1-.909,1.447,5.944,5.944,0,0,1-.554.648c-.222.229-.432.449-.643.678-.421.459-.821.938-1.209,1.427-.189.249-.388.5-.554.768a2.1,2.1,0,0,0-.355,1,3.08,3.08,0,0,0,2.2,3.113,3.607,3.607,0,0,0,2.063-.1,6.709,6.709,0,0,0,1.453-.668c.233.249.455.5.7.738.432.439.887.838,1.375,1.247a6.62,6.62,0,0,0,.8.569,2.942,2.942,0,0,0,.554.269,2.873,2.873,0,0,0,.643.1,4.071,4.071,0,0,0,2.085-.658,8.482,8.482,0,0,0,1.508-1.2,11.6,11.6,0,0,0,1.175-1.337,5.9,5.9,0,0,0,2.617,1.267,4.21,4.21,0,0,0,1.619,0,3.5,3.5,0,0,0,1.453-.7,3.33,3.33,0,0,0,.532-.569,1.4,1.4,0,0,0,.311-.728,2.941,2.941,0,0,0-.322-1.467Z" transform="translate(-90.79 -89.46)" fill="#d18462"/>
          </g>
        </g>
        <g id="svga-group-hair-front" transform="translate(9.981 2.335)">
          <path id="SvgjsPath7167" d="M54.9,84.8s.023,10.979,1.023,11.379c1,.3,0,.637,0,.637S60,79.6,61.5,74.6s6.9-13.7,11.6-17.5c4.8-3.8,19.7-9.6,27.1-9.9s17.1,3.9,21.4,6.7a32.138,32.138,0,0,1,10,10.777c2.6,4.1,5.7,14.223,6.7,17.523.632,2.086,2.921,30.8,4.4,31.05,2.856.669,2.886-.776,1.8-27.85a54.014,54.014,0,0,0,1.4-7c0-1.4-4.4-20.2-5.6-23.8s-11-13-14.4-15.4-15.9-7.4-19-8c-3.1-.7-16.1.3-21.4,2.2S71.6,40.9,68.2,43.9,59.9,54,59.9,54s-4.5,12.2-4.8,15.2-.9,14.1-.9,14.1l.7,1.5Z" transform="translate(-54.2 -30.976)" fill="#402619"/>
        </g>
        <g id="svga-group-eyes-left-move-2" data-name="svga-group-eyes-left-move" transform="translate(61.577 54.612) rotate(-11)">
          <g id="svga-group-eyes-left-2" data-name="svga-group-eyes-left" transform="translate(0 0)">
            <g id="svga-group-eyesback-left-2" data-name="svga-group-eyesback-left" transform="translate(0.475 0.396)">
              <path id="SvgjsPath5251-2" data-name="SvgjsPath5251" d="M12.418,0c6.9,0,12.418,4.337,12.418,9.72s-5.519,9.72-12.418,9.72S0,15.1,0,9.72,5.519,0,12.418,0Z" transform="translate(0 0)" fill="#fff"/>
            </g>
            <g id="svga-group-eyesiriswrapper-left-2" data-name="svga-group-eyesiriswrapper-left" transform="translate(8.461 5.691)">
              <g id="svga-group-eyesiriscontrol-left-2" data-name="svga-group-eyesiriscontrol-left" transform="translate(0)">
                <g id="svga-group-eyesiris-left-2" data-name="svga-group-eyesiris-left">
                  <path id="SvgjsPath4217-2" data-name="SvgjsPath4217" d="M4.432,0A4.432,4.432,0,1,1,0,4.432,4.425,4.425,0,0,1,4.432,0Z" fill="#596938"/>
                  <path id="SvgjsPath4218-2" data-name="SvgjsPath4218" d="M2.374,0A2.332,2.332,0,0,1,4.748,2.374,2.332,2.332,0,0,1,2.374,4.748,2.332,2.332,0,0,1,0,2.374,2.332,2.332,0,0,1,2.374,0Z" transform="translate(2.058 2.058)"/>
                  <path id="SvgjsPath4219-2" data-name="SvgjsPath4219" d="M1.978.712,1.5.237A.9.9,0,0,0,.871,0,.9.9,0,0,0,.237.237.9.9,0,0,0,0,.871.9.9,0,0,0,.237,1.5l.475.475a.9.9,0,0,0,.633.237.9.9,0,0,0,.633-.237.957.957,0,0,0,0-1.266ZM4.115,4.748a.594.594,0,0,0,0-1.187A.6.6,0,0,0,4.115,4.748Z" transform="translate(1.899 1.82)" fill="#fff"/>
                </g>
              </g>
            </g>
            <g id="svga-group-eyesfront-left-2" data-name="svga-group-eyesfront-left">
              <path id="SvgjsPath5259-2" data-name="SvgjsPath5259" d="M12.893,0C5.761,0,0,4.573,0,10.195S5.761,20.389,12.893,20.389s12.893-4.573,12.893-10.195S20.026,0,12.893,0Zm-2.13,13.8C6.74,12.677,3.932,9.82,3.2,7.5c-.732-2.4,11.43-2.4,14.631-.3A9.941,9.941,0,0,1,22.4,13.718S14.787,15,10.763,13.8Z" fill="#ffd6c4"/>
              <path id="SvgjsPath5260-2" data-name="SvgjsPath5260" d="M21.117,8.574V8.432a1.8,1.8,0,0,0-.284-.992,1.641,1.641,0,0,1-.189-.638,9.071,9.071,0,0,0-2.557-3.968A11.636,11.636,0,0,0,10.322,0,25.921,25.921,0,0,0,2.367,1.276,10.516,10.516,0,0,0,0,2.905s.379-.071,1.042-.213a.222.222,0,0,0,.095.213c.095.213.361.378.361.52A32.541,32.541,0,0,0,3.889,6.368,10.549,10.549,0,0,0,8.7,9.055a14.058,14.058,0,0,0,6.072.511,51.828,51.828,0,0,0,6.345-.992h0Zm-.095,0c-2.083.283-4.167.567-6.345.709a19.219,19.219,0,0,1-3.4.008,15.758,15.758,0,0,1-2.494-.514s-3.571-1.2-4.707-2.55c-.568-.638-2.107-2.518-2.3-2.872-.095-.213-.266-.307-.361-.52,0-.071-.095-.142-.095-.213a53.3,53.3,0,0,1,9.091-1.276,13.338,13.338,0,0,1,7.954,3.26c1.042.779,2.273,3.118,2.651,3.756Z" transform="translate(1.82 4.907)"/>
            </g>
          </g>
        </g>
        <path id="SvgjsPath7113" d="M74,48.942s4.647,11.411,17.547,13.284,24.244-5.083,28.843-1.68,16.71,11.8,18.41,19.948,5.7,6.783,4.5,15.4c0,0,.3.146,2.7-15.209,1.5-10.112-1.2-24.062-2.7-27.807s-13.9-16.385-18.4-19.006S96.2,28.812,87.8,29s-14.1,4.869-15.1,8.52c0,0-5.9-.655-9.4,4.213s-5.4,12.078-8.2,17.6-4,17.789-4,17.789,4.3,25.7,4,18.767,7.1-22.512,8.6-27.38,6.9-11.8,8.2-14.137A27.19,27.19,0,0,0,74,48.942Z" transform="translate(-43.651 -28.989)" fill="#402619"/>
      </g>
    </g>
  </g>
</svg>
