<svg xmlns="http://www.w3.org/2000/svg" width="200" height="220" viewBox="0 0 200 220">
  <g id="hadis1" transform="translate(12090 2416.3)">
    <g id="svga-group-wrapper" transform="translate(-12090 -2416.3)">
      <g id="svga-group-backs-single">
        <path id="SvgjsPath15301" d="M0,0H200V220H0Z" fill="#c4c7f3"/>
      </g>
      <g id="svga-group-humanwrap-move" transform="translate(28.953 37.04)">
        <g id="svga-group-humanwrap">
          <g id="svga-group-hair-back-move" transform="translate(21.324 41.349)">
            <g id="svga-group-hair-back">
              <path id="SvgjsPath15539" d="M139.392,116.07c3.744-1.624,4.608-10.093-.48-12.3-14.3-6.38-30.816-3.828-45.7-3.6-8.16.116-16.32.348-24.48.464-4.032.116-8.16.116-12.192.232-2.688,0-5.376-.116-7.68,1.856-3.648,3.248-2.88,7.425-.576,10.557a.486.486,0,0,0,.1.348c1.632,5.684,1.632,11.369,2.112,17.285.384,4.988,1.152,9.4,5.472,11.021a33.246,33.246,0,0,0,3.552,1.16c-.1.116-.1.348-.192.464a3.649,3.649,0,0,0-.384,2.088c.192,3.48,2.688,6.032,5.472,5.1a6.393,6.393,0,0,0,8.064.464,7.442,7.442,0,0,0,1.728-1.856H74.5a6.513,6.513,0,0,0,.768,2.784c.1.116.1.348.192.464a3.617,3.617,0,0,0,3.168,2.088,4.6,4.6,0,0,0,3.552-1.276,4.94,4.94,0,0,0,5.184,3.248,2.962,2.962,0,0,0,1.056-.348c2.016.232,4.032-.928,5.568-2.668a4.774,4.774,0,0,0,1.056-.58c.1.116.1.232.192.348a6.071,6.071,0,0,0,4.128,2.668c2.208.116,3.84-1.276,4.8-3.248.1-.116.288-.232.384-.348a4.815,4.815,0,0,0,1.248,1.624c.864,1.856,2.688,3.016,4.512,2.436a8.833,8.833,0,0,0,5.472-4.524,3.412,3.412,0,0,0,4.608-.7l.288-.348a4.183,4.183,0,0,0,3.36-.116,3.528,3.528,0,0,0,.96.812c2.688,1.856,6.24.116,6.912-3.6a1.029,1.029,0,0,1,.1-.464c1.92-.116,3.84-1.74,4.032-5.336a9.181,9.181,0,0,0-.288-2.9,32.808,32.808,0,0,0,4.032-8.585c1.44-4.524,1.824-10.209-.48-14.153a1.494,1.494,0,0,1,.1-.58Z" transform="translate(-46.343 -78.266)" fill="#301c12"/>
              <path id="SvgjsPath15540" d="M79.1,117.325l-.1-.223a5.456,5.456,0,0,0-2.592,2.119,10.7,10.7,0,0,0-1.44,3.458,9.037,9.037,0,0,0,.192,3.9,20.976,20.976,0,0,0,1.44,3.123,3.9,3.9,0,0,1,.288,1.45,4.3,4.3,0,0,1-.48,1.45,12.108,12.108,0,0,0-1.728,3.012,7.651,7.651,0,0,0-.192,3.9,6.428,6.428,0,0,0,.96,2.231,5.42,5.42,0,0,0-1.728,2.008,3.829,3.829,0,0,0-.384,2.565,12.889,12.889,0,0,0,.48,1.785,3.135,3.135,0,0,1,0,1.339c-.1.558-.288,1.115-.384,1.785a5.316,5.316,0,0,0,.192,2.119,1.6,1.6,0,0,0,1.344,1.227v-.223a1.334,1.334,0,0,1-.672-1.227,8.678,8.678,0,0,1,.192-1.562c.192-.558.48-1,.672-1.673a7.536,7.536,0,0,0,.384-2.231c-.1-.781-.288-1.45-.288-1.785a3.71,3.71,0,0,1,.192-1,7.967,7.967,0,0,1,2.016-2.008l1.344-1-1.248-.892a4.493,4.493,0,0,1-1.536-2.231,7.85,7.85,0,0,1-.384-3.012,8.058,8.058,0,0,1,1.248-3.012,5.575,5.575,0,0,0,.672-1.785,6.266,6.266,0,0,0,0-1.9c-.192-1.227-.672-2.342-.768-3.346a15.806,15.806,0,0,1-.1-3.012,11.075,11.075,0,0,1,2.4-5.354Zm49.632,29.112a2.075,2.075,0,0,0-.768-.558,6.8,6.8,0,0,0,1.344-5.465,6.045,6.045,0,0,0-1.728-3.346,5.481,5.481,0,0,0-.768-.669,5.749,5.749,0,0,0,1.536-3.9,6.031,6.031,0,0,0-2.3-4.8,7.932,7.932,0,0,0,1.056-6.246,6.825,6.825,0,0,0-4.224-4.8c.672-.892,1.248-1.785,1.824-2.677a10.194,10.194,0,0,0,1.344-3.9,6.169,6.169,0,0,0-1.344-4.127,3.97,3.97,0,0,0-1.728-1.227,18,18,0,0,0,1.056-2.454,11.623,11.623,0,0,0,.288-5.131,11.086,11.086,0,0,0-1.92-4.573,8.766,8.766,0,0,0-3.456-2.788l-.1.223a10.538,10.538,0,0,1,2.784,3.235,10.176,10.176,0,0,1,1.248,4.127,9.043,9.043,0,0,1-.48,4.239,9.527,9.527,0,0,1-1.92,3.569l1.056,1.562a1.887,1.887,0,0,1,2.208.335,4.015,4.015,0,0,1,1.344,2.9,6.744,6.744,0,0,1-.864,3.569,20.808,20.808,0,0,1-2.016,3.123l-.384.446.576.112a5.444,5.444,0,0,1,3.744,4.573,6.105,6.105,0,0,1-2.016,5.465l-1.344,1.115,1.632.558a3.513,3.513,0,0,1,2.016,3.458,3.6,3.6,0,0,1-2.3,3.123l-6.048,1.45a3.625,3.625,0,0,0-1.152-1.338,3.092,3.092,0,0,0-1.152-.669,6.718,6.718,0,0,0-2.208-8.812,4.767,4.767,0,0,0-2.112-.669,12.965,12.965,0,0,0,2.208-2.008,9.05,9.05,0,0,0,2.112-4.015,7.573,7.573,0,0,0,.1-2.565,4.6,4.6,0,0,0-1.056-2.342A4.171,4.171,0,0,0,112.8,113.2h-.192a8.3,8.3,0,0,0,.96-3.346,7.719,7.719,0,0,0-1.536-5.354l-.192.112a8.18,8.18,0,0,1,.48,5.019,6.4,6.4,0,0,1-2.208,3.9l-6.432,5.131,7.3-3.458a2.472,2.472,0,0,1,2.592.781,4.549,4.549,0,0,1,.96,3.235,7.364,7.364,0,0,1-1.344,3.681,11.764,11.764,0,0,1-2.88,2.677l-1.248.892,1.44-.223a3.882,3.882,0,0,1,2.688.781,5.241,5.241,0,0,1,1.728,2.454,5.752,5.752,0,0,1-1.344,5.465l-2.112,1.9h2.688a2.39,2.39,0,0,1,1.632.669,4.118,4.118,0,0,1,.96,1.673,3.524,3.524,0,0,1-1.344,3.458l.672,2.119a2.427,2.427,0,0,1,2.112.335,3.029,3.029,0,0,1,1.344,2.119c.288,1.785-1.152,4.127-3.168,4.238v.223a3.065,3.065,0,0,0,3.072-1,4.533,4.533,0,0,0,1.44-3.569,5.189,5.189,0,0,0-1.728-3.681,3.6,3.6,0,0,0-1.056-.669,6.11,6.11,0,0,0,.672-4.127,3.735,3.735,0,0,0-.576-1.45l6.048.781a3.634,3.634,0,0,1,1.92,1,4.452,4.452,0,0,1,1.152,2.119,5.021,5.021,0,0,1-1.536,4.685l-3.072,2.342,3.456-.781a1.685,1.685,0,0,1,1.536.446,2.321,2.321,0,0,1,.96,1.562,3.536,3.536,0,0,1-.288,2.008,2.729,2.729,0,0,1-1.536,1.339v.223a2.552,2.552,0,0,0,2.016-1.227,3.805,3.805,0,0,0,.768-2.565,2.7,2.7,0,0,0-.864-2.677ZM84.1,78.509a7.749,7.749,0,0,0-4.416,3.235,9.8,9.8,0,0,0-1.44,5.912,11.026,11.026,0,0,0,.96,3.9,11.606,11.606,0,0,0-3.36.446,9.136,9.136,0,0,0-4.512,3.235,9.53,9.53,0,0,0-1.536,5.8,9.718,9.718,0,0,0,.672,2.9,6.884,6.884,0,0,0,.672,1.115,7.878,7.878,0,0,0-3.936.112.481.481,0,0,0-.384.223c.1-.558.192-1.115.288-1.562a8.056,8.056,0,0,1,2.5-4.462l-.1-.223a6.88,6.88,0,0,0-3.648,4.127,17.339,17.339,0,0,0-.768,3.012,9.01,9.01,0,0,0-2.4,2.454,10.089,10.089,0,0,0-1.344,6.246,10.686,10.686,0,0,0,1.248,4.239,6.506,6.506,0,0,0-1.92,1,6,6,0,0,0-2.112,3.9,6.909,6.909,0,0,0,.96,4.462,6.522,6.522,0,0,0,1.344,1.562,8.067,8.067,0,0,0-2.5,5.465,9.031,9.031,0,0,0,2.3,6.692,5.243,5.243,0,0,0-1.152,1.45,7.579,7.579,0,0,0-.768,2.9,9.58,9.58,0,0,0,.48,2.9,3.687,3.687,0,0,0,1.728,2.008l.1-.223a5.055,5.055,0,0,1-1.536-4.573,5.959,5.959,0,0,1,.768-2.342,2.912,2.912,0,0,1,1.632-1.338l1.248-.446-1.056-1A7,7,0,0,1,60,135.729a6.05,6.05,0,0,1,3.36-4.8l2.3-1a3.71,3.71,0,0,1-.192,1,17.825,17.825,0,0,1-1.344,2.454,6.584,6.584,0,0,0-.672,3.569,7.436,7.436,0,0,0,2.208,4.685,6.216,6.216,0,0,0-1.632,4.239,6.283,6.283,0,0,0,.768,3.012,4.335,4.335,0,0,0,2.016,1.9l.1-.223a5.6,5.6,0,0,1-1.632-4.685,3.96,3.96,0,0,1,2.5-3.346l2.3-.892-2.3-1.227a5.056,5.056,0,0,1-2.3-3.792,4.941,4.941,0,0,1,.288-2.342,18.694,18.694,0,0,0,1.248-2.9,6.751,6.751,0,0,0,.192-1.9,6.553,6.553,0,0,0-.48-1.673,16.2,16.2,0,0,0-1.44-2.677,6.429,6.429,0,0,1-.672-2.677,2.321,2.321,0,0,1,.48-1.45l1.728.223-.768-.781v-.223a56.311,56.311,0,0,1,.192-5.689c.1-1.9.1-3.792.1-5.689a24.95,24.95,0,0,1,.1-2.677c.288-.112.48-.223.768-.335a5.564,5.564,0,0,1,4.8.112l.288-.669a5.6,5.6,0,0,1-2.112-4.573A7.26,7.26,0,0,1,71.808,95.8a7.693,7.693,0,0,1,4.032-2.342,10.7,10.7,0,0,1,4.608,0l2.592.446-1.824-2.231a8.88,8.88,0,0,1-.768-9.481A6.9,6.9,0,0,1,84,79.067a6.222,6.222,0,0,1,4.7-.112l.1-.223a8.164,8.164,0,0,0-4.7-.223ZM64.8,126.137a19.567,19.567,0,0,1,1.152,3.569l-2.5-.669a3.394,3.394,0,0,1-2.016-1.673,4.789,4.789,0,0,1-.672-2.788,3.923,3.923,0,0,1,1.248-2.454,3.278,3.278,0,0,1,2.4-.892H64.8a4.3,4.3,0,0,0-.48,1.45A7.863,7.863,0,0,0,64.8,126.137Zm.576-11.154c.192,1.785.384,3.569.48,5.354l-.768-.781a8.132,8.132,0,0,1-2.112-4.573,9.71,9.71,0,0,1,.768-5.242,7.186,7.186,0,0,1,1.248-1.785,6.286,6.286,0,0,1-.1,1.338c.1,1.9.288,3.792.48,5.689Z" transform="translate(-46.343 -78.266)" fill="#29160d"/>
            </g>
          </g>
          <g id="svga-group-humanbody-back" transform="translate(3.774 64.76)">
            <path id="SvgjsPath15378" d="M77.8,105.9s4.8,37.7,10,55.8c0,0-6.4,8.8-14.5,11.9-28.7,11.2-35,11.2-39.6,15.2-2.4,2.1.2,11.1,1.8,17.2a83.315,83.315,0,0,1,1.7,13.2H169.4s1.6-33-.6-39.8-7.1-2.9-21.9-4.5-28.7-10.3-31-13.2l.3-60-38.4,4.2Z" transform="translate(-32.727 -101.7)" fill="#f3d4cf"/>
          </g>
          <g id="svga-group-chinshadow-single" transform="translate(48.847 64.66)">
            <path id="SvgjsPath15374" d="M96.4,146.7s5.3,3.1,10,2c1.7-.4,5.3-2.2,9.6-4.9l.2-42.2-38.4,4.2s3,23.5,6.8,42.3a9.416,9.416,0,0,0,1.8.6c4.7,1.1,10-2,10-2Z" transform="translate(-77.8 -101.6)" fill="#d4958a"/>
          </g>
          <g id="svga-group-humanbody-front" transform="translate(3.032 63.96)">
            <path id="SvgjsPath15379" d="M72.1,183.1s14.6-.2,20.4,2.6c5.8,2.9,12.7,2.4,16.1-1s21.6-7,21.6-7-19.7,1.9-25,4.6-22.3-2.8-33.1.8Z" transform="translate(-31.985 -100.9)" fill="#d4958a"/>
            <path id="SvgjsPath15380" d="M74.2,173.2c6.7-1.3,14.7-6.4,14.7-6.4l6.2,5.5c-4.3-7.9-12.7-41.1-12.7-41.1l-.7.7a295.669,295.669,0,0,0,6.1,29.7s-6,8.2-13.6,11.6Z" transform="translate(-31.985 -100.9)" fill="#d4958a"/>
            <path id="SvgjsPath15381" d="M170.7,188.5c-.1-2.1-.2-4.1-.4-6.2a19.848,19.848,0,0,0-.6-3.2c-.2-.5-.4-1-.6-1.6a6.528,6.528,0,0,0-1-1.5,3.269,3.269,0,0,0-1.5-1.1,11.505,11.505,0,0,0-1.7-.6,17.745,17.745,0,0,0-3.2-.2c-2.1,0-4.1.1-6.1.1s-4-.1-6-.2-4-.4-6-.7c-1-.2-2-.4-2.9-.6l-1.5-.4c-.5-.1-1-.3-1.4-.4a66.742,66.742,0,0,1-11.2-4.4l-1.3-.7-1.3-.7a9.129,9.129,0,0,1-1.3-.8c-.4-.3-.9-.5-1.3-.8a14.8,14.8,0,0,0-1.3-.8l-1.2-.9-.6-.5-.3-.2-.3-.2c-.2-.2-.4-.3-.5-.5l-.2-.3V116.5l-.1-15v-.6l-.6.1c-6.4.8-12.9,1.5-19.3,2.3l-19.1,2.3v.5l.1.4.1.9.2,1.8c.1,1.2.3,2.3.4,3.5l.9,7c.6,4.7,1.3,9.4,2.1,14,.8,4.7,1.5,9.3,2.5,14,.9,4.5,1.8,9,3,13.5a44.823,44.823,0,0,1-3.6,4,52.964,52.964,0,0,1-4.3,3.8,29.7,29.7,0,0,1-4.8,3l-1.3.6c-.4.2-.9.3-1.3.5l-2.7,1c-7.2,2.7-14.5,5.3-21.8,7.7l-5.5,1.8a42.038,42.038,0,0,0-5.5,2.2c-.4.2-.9.5-1.3.7a10.144,10.144,0,0,0-1.3.9l-.6.5a2.407,2.407,0,0,0-.6.8,4.939,4.939,0,0,0-.5,1.6,10.728,10.728,0,0,0,0,3.1c.1,1,.3,2,.4,2.9.4,1.9.8,3.8,1.3,5.7l.8,2.8a22.912,22.912,0,0,1,.7,2.8,56.223,56.223,0,0,1,.9,5.7c.2,1.9.4,3.8.5,5.7v.8H170.1V219c.2-4.1.4-8.2.5-12.3s.2-8.2.2-12.3c0-1.8-.1-3.8-.1-5.9Zm-67.4,30.3H70.2l-16.5-.1-16-.1c-.1-1.8-.2-3.5-.4-5.3a57.712,57.712,0,0,0-.8-5.8c-.2-1-.4-1.9-.7-2.9l-.7-2.8a55.942,55.942,0,0,1-1.2-5.6,26.955,26.955,0,0,1-.4-2.8,12.178,12.178,0,0,1,0-2.7,3.582,3.582,0,0,1,.4-1.1,1.38,1.38,0,0,1,.3-.4l.5-.4a10.475,10.475,0,0,1,1.1-.8c.4-.2.8-.5,1.2-.7a48.133,48.133,0,0,1,5.3-2l5.5-1.8c7.3-2.4,14.6-5,21.8-7.8l2.7-1c.5-.2.9-.3,1.4-.5l1.4-.6a32.652,32.652,0,0,0,5-3.2,40.868,40.868,0,0,0,4.4-3.9,32.344,32.344,0,0,0,3.8-4.5l.2-.3-.1-.3c-1.3-4.5-2.3-9.1-3.3-13.7s-1.9-9.3-2.7-13.9-1.6-9.3-2.4-14l-2.2-13.9,19.3-1.8c6.2-.6,12.3-1.2,18.5-1.8l-.2,14.4-.2,15-.3,30v.4l.2.2.6.7.6.6.3.3.3.2.6.5c.4.3.9.6,1.3.9s.9.6,1.3.9.9.5,1.3.8.9.5,1.3.8l1.4.8,1.4.7c.5.2.9.5,1.4.7l1.4.7c1,.4,1.9.8,2.9,1.2s1.9.8,2.9,1.1l1.5.5a8.33,8.33,0,0,0,1.5.4c.5.1,1,.3,1.5.4l1.5.4c1,.3,2,.4,3,.6a61.729,61.729,0,0,0,6.2.8c2.1.2,4.1.2,6.2.2s4.1-.1,6.1-.1,4,.1,5,1.3a7.139,7.139,0,0,1,1.2,2.3,27.973,27.973,0,0,1,.6,2.8c.3,2,.4,4,.5,6s.1,4.1.2,6.1c.1,7.9-.1,15.8-.4,23.7-10.8.1-21.5.1-32.3.2H103.3Z" transform="translate(-31.985 -100.9)" fill="#c5796d"/>
            <path id="SvgjsPath15382" d="M150.7,219.2,147,198l-.4,21.2Z" transform="translate(-31.985 -100.9)" fill="#d4958a"/>
            <path id="SvgjsPath15383" d="M47.3,203.5s2.2,11.5,2.9,15.7h3.5Z" transform="translate(-31.985 -100.9)" fill="#d4958a"/>
          </g>
          <g id="svga-group-clothes-single" transform="translate(0 104.76)">
            <path id="SvgjsPath15514" d="M83.3,143.2c-.5.1-14.9,3.7-17.3,4.9-2.5,1.2-1.2,6.9-2.2,7.8-.9.9-12,12.7-11.3,14s6.1,4,5.8,5.5a3.578,3.578,0,0,1-.9,2s-22.5,5.4-24.7,7.5c-2.1,2.1-3.5,6.9-2.1,9.8a33.531,33.531,0,0,0,.1,10c.9,5.2,1.8,9.4,1.8,9.4l.2,5.8H173.6s-.6-15-.4-17.9,1.8-13.7.7-16.2a27.1,27.1,0,0,1-1.6-5.1s-1.6-7.5-5.5-8.9c-4-1.3-20.1.7-23,0s-.2-.9-.2-.9,2.2-1.6,2-3.1-4.9-4.4-6-7.3,0-6.4-2.4-7.5a29.1,29.1,0,0,1-8-6c-2.9-2.9-12.2-4-12.2-4s0,12.2-.2,14.2.2,8-.2,11.1S102,184,100.9,185.1,88,173.6,86,170.9s1.3-6,1.3-9.1S84,148.8,84,147A13.537,13.537,0,0,0,83.3,143.2Z" transform="translate(-28.953 -141.7)" fill="#82449b"/>
            <path id="SvgjsPath15515" d="M57.6,175.2Zm116.6,25.7c.4-3.1.8-6.3.9-9.5a21.11,21.11,0,0,0-.1-5,3.992,3.992,0,0,0-.4-1.3c-.1-.3-.3-.7-.4-1.1a14.133,14.133,0,0,1-.6-2.2,4.252,4.252,0,0,1-.2-1.1l-.3-1.2a22.5,22.5,0,0,0-.8-2.4,13.87,13.87,0,0,0-2.5-4.4,6.2,6.2,0,0,0-2.2-1.7,6.468,6.468,0,0,0-1.3-.4c-.4-.1-.8-.1-1.3-.2-1.6-.1-3.3-.1-4.9-.1-3.2.1-6.4.2-9.5.4-1.6.1-3.2.1-4.7.1h-.6a5,5,0,0,0,1.1-1.6,3.263,3.263,0,0,0,.1-2.2,5.628,5.628,0,0,0-1-1.4c-1.4-1.4-2.8-2.6-3.9-3.9a6.07,6.07,0,0,1-.7-1,3.582,3.582,0,0,1-.4-1.1,17.822,17.822,0,0,1-.4-2.6,11.729,11.729,0,0,0-.5-3,5.108,5.108,0,0,0-1.1-1.6,2.177,2.177,0,0,0-.8-.5l-.6-.3a26.287,26.287,0,0,1-4.4-3c-.7-.6-1.4-1.2-2-1.8a11.832,11.832,0,0,0-2.4-1.9,22.741,22.741,0,0,0-5.5-2,50.411,50.411,0,0,0-5.6-1.1l-1.1-.1v1.1c0,4.1,0,8.1-.1,12.2a7.569,7.569,0,0,1-.1,1.5l-.1.8v3.9a59.559,59.559,0,0,1-.1,6c0,.2-.1.5-.1.7l-.1.2-.1.3a7.459,7.459,0,0,1-.7,1.2,21.1,21.1,0,0,1-1.9,2.3,57.744,57.744,0,0,1-4.2,4.4c-1.5,1.4-2.9,2.9-4.4,4.2l-2.2,2.1-1.1,1.1-.6.5a4.888,4.888,0,0,1-1.1-.7l-1.2-.9a20.886,20.886,0,0,1-2.2-2c-1.5-1.4-2.9-2.8-4.3-4.3s-2.8-2.9-4.1-4.5a6.416,6.416,0,0,1-1.6-2.3,4.3,4.3,0,0,1,.3-2.7c.3-.9.7-1.9,1.1-2.9a6.884,6.884,0,0,0,.3-3.2,58.217,58.217,0,0,0-1.4-6c-.5-1.7-.9-3.3-1.4-5a2.92,2.92,0,0,1-.2-.9l-.3-1.5c-.1-.5-.1-1-.2-1.5l-.3-1.5-.2-.7-.1-.4-.1-.2v-.2a.1.1,0,0,0-.1-.1c-.4.1-.6.1-.9.2l-.8.2-1.7.4-3.3.8c-2.2.6-4.4,1.1-6.7,1.7-1.1.3-2.2.6-3.3,1a6.89,6.89,0,0,0-.8.3,5.546,5.546,0,0,0-.8.6,3.805,3.805,0,0,0-.8,1.7,22.1,22.1,0,0,0-.4,3.5,7.772,7.772,0,0,1-.2,1.6c0,.1-.1.2-.1.3v.1a.349.349,0,0,1-.2.1l-.6.6c-3.2,3.3-6.3,6.7-9.2,10.3a12.132,12.132,0,0,0-1,1.4,5.582,5.582,0,0,0-.5.8.764.764,0,0,0-.2.5v.5a1.007,1.007,0,0,0,.1.3l.1.1a7.95,7.95,0,0,0,1.4,1.3l1.4,1a18.4,18.4,0,0,1,2.5,2.1c.2.2.2.4.3.4v.1c0,.1-.1.2-.1.4-.1.2-.2.5-.3.7,0,.1-.1.2-.2.3v.1c-5.8,1.4-11.7,2.9-17.5,4.6-1.5.4-2.9.9-4.4,1.4l-1.1.4-1.1.5a2.445,2.445,0,0,0-1.1.9,8.745,8.745,0,0,0-.8,1,12.52,12.52,0,0,0-1.8,4.5,8.437,8.437,0,0,0,.4,4.7,38.662,38.662,0,0,0-.3,4.8,42.1,42.1,0,0,0,.4,5l1.9,9.5.2,5.7v.8h.8l35.2-.3c11.7-.1,23.5-.2,35.2-.2s23.5,0,35.2.1l35.2.3h.7v-.7l-.2-9.5-.1-4.7v-2.4c.4-.1.4-.8.5-1.6Zm-68.7-19.1c1.5-1.4,3-2.8,4.4-4.2,1.5-1.4,2.9-2.9,4.3-4.4.7-.8,1.4-1.6,2-2.4.3-.4.6-.9.9-1.4l.2-.4c0-.1.1-.2.1-.3.3-.3.6-.5.9-.8.8-.7,1.7-1.3,2.6-2a13.93,13.93,0,0,0,4.3-5.5,6.64,6.64,0,0,0,.3-3.7,7.447,7.447,0,0,0-1.6-3.2,14.073,14.073,0,0,0-5.3-4.1,23.125,23.125,0,0,1,4,5,7.428,7.428,0,0,1,1,2.7,6.261,6.261,0,0,1-.3,2.7,16.247,16.247,0,0,1-3.5,5c-.7.8-1.5,1.6-2.2,2.5l-.1.1a58.08,58.08,0,0,0,.1-5.9v-3.7l.1-.8c0-.5.1-1.1.1-1.6.1-3.7.2-7.4.2-11.1,1.4.2,2.8.5,4.2.8a19.775,19.775,0,0,1,5,1.8,7.044,7.044,0,0,1,1.9,1.6c.7.7,1.4,1.3,2.1,1.9.2.2.5.4.7.6.4,1.1.8,2.2,1.1,3.3a15.564,15.564,0,0,1,.6,4.7,4.253,4.253,0,0,1-.2,1.1,3.473,3.473,0,0,1-.6.9c-.5.6-1.1,1.2-1.6,1.9a40.839,40.839,0,0,0-3.1,3.9q1.95-1.65,3.6-3.3c.6-.6,1.2-1.2,1.7-1.8a3.134,3.134,0,0,0,.8-1.1,6.107,6.107,0,0,0,.3-1.3,12.012,12.012,0,0,0-.9-5,12.272,12.272,0,0,0-1.2-2.6,20.706,20.706,0,0,0,3.5,2.2,4.875,4.875,0,0,0,.7.3c.1.1.3.1.4.2a1.794,1.794,0,0,1,.5.7,13.058,13.058,0,0,1,.4,2.5,16.044,16.044,0,0,0,.5,2.9,9.384,9.384,0,0,0,.6,1.5.1.1,0,0,0,.1.1v.3a7.674,7.674,0,0,1-.7,3.4,6.654,6.654,0,0,1-2.2,2.5,55.361,55.361,0,0,1-6.3,3.8l-6.5,3.6c-4.3,2.4-8.7,4.8-12.9,7.5-1.1.7-2.1,1.4-3.1,2.1l-1.5,1.2-.4.4c-.1.1-.2.3-.3.4l-.5.8c-1.2,1.9-2.3,3.9-3.4,5.8a42.479,42.479,0,0,0-4.3-3.1,11.984,11.984,0,0,0,1.1-1.2c.7-.7,1.3-1.4,1.9-2.1.5-.6,1.1-1.3,1.6-2l.4-.3,1.1-1,2.4-2.4Zm-2.4,14.5ZM100.4,184.6ZM64.2,156.2c.1-.1.1-.2.2-.3.1-.2.1-.4.2-.5.1-.6.1-1.2.2-1.8a17.609,17.609,0,0,1,.3-3.3,3.506,3.506,0,0,1,.6-1.4c.1-.2.3-.3.5-.5a6.89,6.89,0,0,1,.8-.3c1.1-.4,2.1-.8,3.2-1.1,2.2-.7,4.4-1.3,6.6-1.9l3.3-.9,1.7-.5.8-.2c.2-.1.6-.1.7-.2v.1l.1.2.1.4.2.7a7.719,7.719,0,0,1,.2,1.5c.1.5,0,1,.1,1.5l.3,1.5a2.92,2.92,0,0,1,.2.9,40.89,40.89,0,0,0-5.2,2.3,9.2,9.2,0,0,0-2.5,1.9,7.707,7.707,0,0,0-1.7,2.7,6.93,6.93,0,0,0-.1,3.2,16.961,16.961,0,0,0,.6,3.1,57.565,57.565,0,0,0,1.8,5.9l1.1,2.9c.2.5.3.9.5,1.4a2.981,2.981,0,0,0,1,1.4,29.046,29.046,0,0,0,5.2,3.4c1.8,1,3.7,1.9,5.5,2.7,1.8.9,3.8,1.6,5.5,2.6-3.4-2.2-7.2-3.9-10.7-6a43.914,43.914,0,0,1-5-3.4,2.589,2.589,0,0,1-.7-1.1c-.2-.5-.3-1-.5-1.5l-1.1-2.9a38.943,38.943,0,0,1-1.8-5.8l-.6-3a7.083,7.083,0,0,1,0-2.9c.4-1.9,2-3.3,3.7-4.4,1.6-1,3.3-1.8,5-2.7.4,1.6.8,3.3,1.2,4.9a44.126,44.126,0,0,1,1.2,5.9c.3,1.9-.8,3.7-1.5,5.7a5.847,5.847,0,0,0-.4,1.9l-.6-1.2a25.186,25.186,0,0,1-1.5-3.4,9.737,9.737,0,0,1-.6-3.4c0-1.2.1-2.5.2-3.8a8.03,8.03,0,0,0-1.8,3.7,7.909,7.909,0,0,0,.3,4.3,13.565,13.565,0,0,0,2.1,3.5,10.448,10.448,0,0,0,2.1,2.1,3.458,3.458,0,0,0,.7,1.2c.3.4.7.8,1,1.2,1.3,1.6,2.7,3.1,4.1,4.6s2.8,3,4.3,4.4c.7.7,1.5,1.4,2.3,2.1.4.3.8.7,1.2,1a6.557,6.557,0,0,0,1.5.9,6.469,6.469,0,0,1-.8.9,19.521,19.521,0,0,0-1.7,2.3c-.3.5-.6.9-.9,1.4l-1.5-.9a18.669,18.669,0,0,0-3.5-1.6c-1.2-.4-2.3-.7-3.5-1.1-2.3-.7-4.7-1.4-7-2.2a35.383,35.383,0,0,1-6.6-2.8,7.3,7.3,0,0,1-1.3-.9c-.2-.1-.3-.3-.4-.4V180l-.1-.5a38.165,38.165,0,0,0-1.3-3.6c-1-2.3-2-4.5-3.1-6.7-.6-1.1-1.1-2.2-1.8-3.3a11.939,11.939,0,0,1-.8-1.6,8.447,8.447,0,0,1-.5-1.7c-.5-2.2-.7-4.5-1.3-6.7-.1.4,0,.4,0,.3Zm-8.6,15.3-1.4-1a13.5,13.5,0,0,1-1.1-.9c0-.1,0-.1.1-.2a5.736,5.736,0,0,1,.4-.7,12.132,12.132,0,0,1,1-1.4c2.7-3.6,5.8-7,8.9-10.4l.3-.4c.2,2.2.2,4.4.6,6.6a16.245,16.245,0,0,0,.4,1.9c.2.6.5,1.3.7,1.8l1.5,3.3c1,2.2,1.9,4.5,2.8,6.8.4,1.1.8,2.3,1.1,3.4l.1.4.1.3a.758.758,0,0,0,.2.4,2.723,2.723,0,0,0,.8,1,8.849,8.849,0,0,0,1.7,1.2,38.347,38.347,0,0,0,7,2.9c2.4.8,4.7,1.4,7.1,2.1l3.6.9a17.88,17.88,0,0,1,3.2,1.3,49.635,49.635,0,0,1,5.8,3.5c-.2-.1-.5-.1-.7-.2q-3.6-.9-7.2-1.5c-4.8-.8-9.7-1.5-14.6-2.1-2.4-.3-4.9-.5-7.3-.8-.3,0-.6-.1-.8-.1h-.3c-.1,0-.1-.1-.2-.1a12.7,12.7,0,0,1-1-1.2c-.6-1-1.2-2.1-1.7-3.1-.5-1.1-1.1-2.2-1.7-3.3a18.215,18.215,0,0,0-2.3-3,41.725,41.725,0,0,0-3.6-3.7v-.3a2.887,2.887,0,0,0-.6-1,15.346,15.346,0,0,0-2.9-2.4Zm47.6,48c-11.7-.1-23.5-.1-35.2-.2L33.5,219l-.1-5v-.2l-1.8-9.6a37.255,37.255,0,0,1-.4-4.7,35.928,35.928,0,0,1,.3-4.7v-.3l-.1-.2a6.421,6.421,0,0,1-.3-3.9,9.33,9.33,0,0,1,1.5-3.9,5.547,5.547,0,0,1,.6-.8l.3-.3c.1-.1.2-.1.3-.2l1-.5,1-.4c1.4-.5,2.8-1,4.3-1.4,5.8-1.8,11.7-3.3,17.5-4.8h.2l.1-.1c.3-.2.3-.3.5-.5a2.186,2.186,0,0,0,.3-.5,1.613,1.613,0,0,0,.3-.9v-.2c1,1.2,1.9,2.4,2.8,3.6.3.5.7,1,1,1.5l.5.8a5.938,5.938,0,0,1,.4.8l1.5,3.3a26.95,26.95,0,0,0,1.7,3.4,6.425,6.425,0,0,0,1.3,1.7c.2.1.3.3.5.4.1.1.2.1.4.1l.3.1c.4.1.7.1,1,.2,2.5.4,4.9.5,7.4.7,4.9.3,9.8.4,14.6,1a60.953,60.953,0,0,1,7.2,1.4,16.376,16.376,0,0,1,3.3,1.4c.1.1.2.1.4.2h.1l.2.1c.6.3.6-.9.5-.7a.1.1,0,0,0-.1-.1l-.1-.1-.2-.2-.7-.6a12.668,12.668,0,0,0-1.3-1.1c1.4-1.8,2.8-3.5,4.1-5.3l.6-.8.2-.3.3-.3a13.03,13.03,0,0,1,1.5-1c1-.6,2.1-1.3,3.2-1.9l13.1-7.1c2.2-1.2,4.3-2.4,6.5-3.7a62.693,62.693,0,0,0,6.3-4.2,7.748,7.748,0,0,0,2.4-3.2,6.92,6.92,0,0,0,.5-2.8c1.2,1.4,2.6,2.6,3.7,3.8.3.3.6.6.6.8a1.338,1.338,0,0,1-.1.5,4.234,4.234,0,0,1-1.1,1.3c-.2.1-.4.1-.6.2-.1,0-.2.1-.4.1-.1,0-.1,0-.2.1-.1,0-.2.1-.3.1a12.173,12.173,0,0,0-3,1.6c-3.7,2.4-7,5.2-10.5,7.6-.9.6-1.7,1.2-2.6,1.7a7.54,7.54,0,0,1-1.3.6c-.5.2-1.1.3-1.6.5a54.231,54.231,0,0,0-6,2.6,52.354,52.354,0,0,0-5.7,3.2c-.9.6-1.8,1.2-2.7,1.9a7.211,7.211,0,0,0-2.1,2.5,6.93,6.93,0,0,1,2.5-2,19.1,19.1,0,0,1,2.8-1.5c1.9-1,3.9-1.8,5.9-2.7,2-.8,4-1.6,6-2.3l1.5-.5c.6-.2,1.2-.5,1.7-.7,1-.6,1.9-1.2,2.8-1.8,3.6-2.6,6.8-5.4,10.2-7.9a12.228,12.228,0,0,1,1.9-1.2c.1.1.1.2.2.3a.31.31,0,0,0,.2.1l.1.1c.2.1.3.1.4.2.2.1.5.1.7.2a5.9,5.9,0,0,0,1.4.2H146c1.6,0,3.2-.1,4.8-.2,3.2-.2,6.3-.4,9.5-.5,1.6,0,3.1,0,4.6.1a4.683,4.683,0,0,1,3.6,1.6,15.494,15.494,0,0,1,2.9,6c.1.4.2.7.3,1.1l.3,1.2a21.715,21.715,0,0,0,.7,2.4,6.118,6.118,0,0,0,.5,1.2,1.689,1.689,0,0,1,.2.5c0,.1.1.2.1.4a22.4,22.4,0,0,1,.1,4.5c-.1,3.1-.5,6.3-.8,9.4a19.268,19.268,0,0,0-.1,2.4v2.4l.1,4.8.4,8.8-19.9.1c.2-1.6.5-3.1.8-4.7.3-1.7.6-3.4.8-5.1.3-1.7.5-3.4.7-5.1.1-.9.2-1.7.3-2.6l.1-1.3c0-.4.1-.9.1-1.2a10.8,10.8,0,0,1,2-4.2,38.959,38.959,0,0,1,3.1-4c2.2-2.6,4.6-5.1,7-7.6a50.829,50.829,0,0,0-8.1,6.6,45.535,45.535,0,0,0-3.5,4,12.068,12.068,0,0,0-2.4,5.1l-.8,10.4c-.1,1.7-.2,3.5-.3,5.2a38.46,38.46,0,0,0,.1,4.8l-14.5.1c-12,.1-23.8.1-35.5.1ZM47,202.6a10.594,10.594,0,0,0-1.2-2,6.469,6.469,0,0,0-.8-.9l-.8-.8a17.374,17.374,0,0,0-3.6-2.4,27.061,27.061,0,0,0-3.9-1.7,14.476,14.476,0,0,0-4.1-1,63.691,63.691,0,0,1,7.2,4.1,26.024,26.024,0,0,1,3.1,2.5,4.62,4.62,0,0,1,.7.7c.2.2.4.5.6.7a5.582,5.582,0,0,1,.5.8,2.471,2.471,0,0,1,.4.9c1.1,2.5,1.9,5.1,2.9,7.7s1.9,5.2,3,7.8a74.039,74.039,0,0,0-1.5-8.2,43.4,43.4,0,0,0-2.5-8.2Z" transform="translate(-28.953 -141.7)" fill="#611e7c"/>
            <path id="SvgjsPath15517" d="M131.3,152.1c-1.2-3.3-3-2.5-4.6-4.1s-2.9-1.1-5.3-1.9a41.9,41.9,0,0,0,3.8,2.5c.9.4,2.8,6.9,2.5,9.5s-5.6,8.1-7.3,10.6-9.1,9.4-12.4,11.8-7,8.3-7,8.3,10.8-9.9,13.9-11.2c3-1.3,12.2-10.2,12.6-12.3s4-4.5,5.3-6.3-.3-3.6-1.5-6.9Zm34.9,29.5c1.1,1.7,3-.5,2.2-.9s-1.1-5.8-2.6-6.7-17.8.7-21.8.7-5.6,3.3-11.2,6.2a77.255,77.255,0,0,0,10-3c4.2-1.7,10.8-.9,15.3-.7A9.89,9.89,0,0,1,166.2,181.6Zm4.5,19c.4-5.8.8-14.1.8-14.1a5.679,5.679,0,0,0-3.4.4c-2,.8-3.8,2.9-7.7,7.8,0,0,5-2.2,6.9-1.6,1.9.7,1.1,11,1.2,15.7a16.672,16.672,0,0,0,2.6,9.1c.8.8-.8-11.5-.4-17.3ZM75.8,176.7c-1.1-1.3-7.1-16.1-7.5-19s.4-8.2.1-8.3c-3.8-1.9-4.6,7.8-.9,13.9s5.3,15.1,6.7,16.4S96,188.3,94,187.1c-2-1.3-17.2-9.1-18.2-10.4Zm-4.6,8.9c-.9-1.4-6.6-11.1-9-12.7s-5.7-3.4-5.7-3.4c2.4,1.1,9.1,9.9,11.1,13.2s1.2,5.1,2.9,5.4,11.8,2.1,11.8,2.1-10.2-3.2-11.1-4.6Z" transform="translate(-28.953 -141.7)" fill="#945caa"/>
          </g>
          <g id="svga-group-head" transform="translate(19.593)">
            <g id="svga-group-ears-left-move" transform="translate(0 48.478)">
              <g id="svga-group-ears-left" transform="translate(0 0)">
                <path id="SvgjsPath15321" d="M62.51,93.556S58.52,85.7,54.283,82.707a18.051,18.051,0,0,0-9.348-2.993s-2.869,2-1.872,11.97c0,0,4.237,10.222,11.847,13.965,0,0,5.481,1.244,8.227.627A20.469,20.469,0,0,0,62.51,93.556Z" transform="translate(-42.736 -79.515)" fill="#f3d4cf"/>
                <path id="SvgjsPath15322" d="M61.636,96.672S58.149,89.2,55.9,87.324s-7.476-4.864-8.854-3.116-1.491,7.229-1.491,7.229a13.261,13.261,0,0,0,5.985,6.735,26.82,26.82,0,0,0,9.852,2.622Z" transform="translate(-42.736 -79.515)" fill="#e4b3ab"/>
                <path id="SvgjsPath15323" d="M42.741,88.588c.019,1.035.085,2.08.161,3.116v.019l.009.028A37.561,37.561,0,0,0,45,95.95a36.779,36.779,0,0,0,2.613,3.9,29.033,29.033,0,0,0,3.211,3.458A18.831,18.831,0,0,0,54.739,106l.038.019.047.01a38.347,38.347,0,0,0,4.142.665c.694.066,1.4.123,2.109.123a9.665,9.665,0,0,0,2.138-.219l.181-.048.048-.161a15.4,15.4,0,0,0,.551-3.249,22.069,22.069,0,0,0-.01-3.268,22.789,22.789,0,0,0-.494-3.211,20.892,20.892,0,0,0-.94-3.107c-.893-1.767-1.919-3.448-2.974-5.13a28.532,28.532,0,0,0-3.657-4.7,13.687,13.687,0,0,0-2.375-1.862,15.5,15.5,0,0,0-2.726-1.282,18.017,18.017,0,0,0-5.881-1.064h-.076l-.038.038a6.061,6.061,0,0,0-1.463,2.831,17.033,17.033,0,0,0-.513,3.088,30.949,30.949,0,0,0-.1,3.116Zm.314-3.106a16.378,16.378,0,0,1,.56-3.031,7.985,7.985,0,0,1,.561-1.415,4.017,4.017,0,0,1,.817-1.121,19.933,19.933,0,0,1,5.6,1.226,15.111,15.111,0,0,1,4.931,2.973,30.146,30.146,0,0,1,3.838,4.437,44.616,44.616,0,0,1,3.116,5.016,20.623,20.623,0,0,1,.865,3.106,18.133,18.133,0,0,1,.342,3.2,18.94,18.94,0,0,1-.181,3.2,18.485,18.485,0,0,1-.618,2.917,9.563,9.563,0,0,1-1.815.095c-.674-.009-1.359-.057-2.033-.133a37.754,37.754,0,0,1-4-.665,20.476,20.476,0,0,1-3.734-2.527,29.164,29.164,0,0,1-3.182-3.315,40.271,40.271,0,0,1-2.679-3.762,35.484,35.484,0,0,1-2.213-4.037l-.152-1.51c-.047-.513-.057-1.035-.085-1.548a26.045,26.045,0,0,1,.057-3.106Z" transform="translate(-42.736 -79.515)" fill="#e4b3ab"/>
                <path id="SvgjsPath15324" d="M46.74,86.953a14.313,14.313,0,0,1,.636-1.928,3.035,3.035,0,0,1,.247-.456.7.7,0,0,1,.456-.352,2.535,2.535,0,0,1,1.007.352,17.385,17.385,0,0,1,3.306,2.318,7,7,0,0,1,1.349,1.577,2.44,2.44,0,0,1,.361,1.083c.009.237-.009.342-.009.513l.009.484c.152,2.632.551,5.282.789,7.942l-.067.01c-.323-1.3-.579-2.613-.817-3.924a37.255,37.255,0,0,1-.523-3.99l-.028-.513v-.485a1.844,1.844,0,0,0-.266-.8,7.586,7.586,0,0,0-1.15-1.529,12.836,12.836,0,0,0-3.059-2.479,2.133,2.133,0,0,0-.865-.314c-.218.057-.389.409-.5.694a9.889,9.889,0,0,0-.494,1.91,39.438,39.438,0,0,0-.456,3.943,8.2,8.2,0,0,0-.019.96c-.009.161.2.437.389.674a17,17,0,0,0,1.33,1.425c.77.751,1.568,1.492,2.375,2.214.086-.865.171-1.729.228-2.6.038-.56.067-1.111.076-1.662a9.824,9.824,0,0,0-.057-1.5,2.58,2.58,0,0,0-.475-.019,3.9,3.9,0,0,0-.655.1A7.738,7.738,0,0,0,48.574,91l-.028-.066a6.315,6.315,0,0,1,1.254-.589,4.018,4.018,0,0,1,.684-.18,1.982,1.982,0,0,1,.75-.01l.1.019.028.123a9.767,9.767,0,0,1,.209,1.719c.019.57.019,1.131.009,1.7-.028,1.131-.076,2.252-.181,3.382l-.066.713-.551-.465c-1.026-.874-2-1.776-2.955-2.736a19.235,19.235,0,0,1-1.359-1.53,5.247,5.247,0,0,1-.3-.447,1.856,1.856,0,0,1-.133-.275.994.994,0,0,1-.067-.352,9.247,9.247,0,0,1,.057-1.045,25.46,25.46,0,0,1,.712-4.009Z" transform="translate(-42.736 -79.515)" fill="#c5796d"/>
              </g>
            </g>
            <g id="svga-group-ears-right-move" transform="translate(81.603 48.468)">
              <g id="svga-group-ears-right" transform="translate(0 0)">
                <path id="SvgjsPath15325" d="M127.49,93.556s3.99-7.856,8.227-10.849a18.051,18.051,0,0,1,9.348-2.993s2.869,2,1.871,11.97c0,0-4.237,10.222-11.846,13.965,0,0-5.482,1.244-8.227.627A20.469,20.469,0,0,1,127.49,93.556Z" transform="translate(-125.958 -79.505)" fill="#f3d4cf"/>
                <path id="SvgjsPath15326" d="M128.364,96.672s3.486-7.477,5.738-9.348,7.476-4.864,8.854-3.116,1.492,7.229,1.492,7.229a13.261,13.261,0,0,1-5.985,6.735,26.82,26.82,0,0,1-9.851,2.622Z" transform="translate(-125.958 -79.505)" fill="#e4b3ab"/>
                <path id="SvgjsPath15327" d="M147.165,85.462a17.172,17.172,0,0,0-.513-3.088,6.061,6.061,0,0,0-1.463-2.831l-.038-.038h-.076a17.972,17.972,0,0,0-5.881,1.064,15.5,15.5,0,0,0-2.727,1.283,13.687,13.687,0,0,0-2.375,1.862,28.533,28.533,0,0,0-3.658,4.7c-1.055,1.682-2.071,3.363-2.974,5.13a22.084,22.084,0,0,0-.941,3.106,22.791,22.791,0,0,0-.494,3.211,20.847,20.847,0,0,0-.009,3.268,15.4,15.4,0,0,0,.551,3.249l.048.161.181.048a9.666,9.666,0,0,0,2.138.219,19.483,19.483,0,0,0,2.109-.123,38.348,38.348,0,0,0,4.142-.665l.048-.009.038-.019a18.832,18.832,0,0,0,3.914-2.689,28.321,28.321,0,0,0,3.211-3.458,36.741,36.741,0,0,0,4.7-8.1l.009-.029v-.019c.067-1.035.133-2.071.161-3.116.01-1.035-.028-2.071-.1-3.116Zm-.152,3.116c-.029.513-.038,1.035-.085,1.549l-.152,1.51a33.93,33.93,0,0,1-2.214,4.037,40.273,40.273,0,0,1-2.679,3.762,28.364,28.364,0,0,1-3.183,3.315,20.475,20.475,0,0,1-3.733,2.527,40.351,40.351,0,0,1-4,.665c-.674.076-1.358.123-2.033.133a10.465,10.465,0,0,1-1.815-.1,18.486,18.486,0,0,1-.618-2.916,19.983,19.983,0,0,1-.18-3.2,18.132,18.132,0,0,1,.342-3.2,20.621,20.621,0,0,1,.865-3.106,42.024,42.024,0,0,1,3.116-5.016,30.07,30.07,0,0,1,3.838-4.436,15.012,15.012,0,0,1,4.931-2.974,19.861,19.861,0,0,1,5.6-1.225,3.837,3.837,0,0,1,.817,1.121,7.32,7.32,0,0,1,.561,1.416,17.045,17.045,0,0,1,.561,3.031,30.867,30.867,0,0,1,.057,3.106Z" transform="translate(-125.958 -79.505)" fill="#e4b3ab"/>
                <path id="SvgjsPath15328" d="M143.26,86.953a14.313,14.313,0,0,0-.636-1.928,3.038,3.038,0,0,0-.247-.456.7.7,0,0,0-.456-.352,2.535,2.535,0,0,0-1.007.352,17.385,17.385,0,0,0-3.306,2.318,7,7,0,0,0-1.349,1.577,2.44,2.44,0,0,0-.361,1.083c-.01.237.009.342.009.513l-.009.484c-.152,2.632-.551,5.282-.789,7.942l.067.01c.323-1.3.579-2.613.817-3.924a37.258,37.258,0,0,0,.523-3.99l.028-.513v-.485a1.844,1.844,0,0,1,.266-.8,7.586,7.586,0,0,1,1.15-1.529,12.836,12.836,0,0,1,3.059-2.479,2.133,2.133,0,0,1,.865-.314c.218.057.389.409.5.694a9.889,9.889,0,0,1,.494,1.91,39.441,39.441,0,0,1,.456,3.943,8.206,8.206,0,0,1,.019.96c.009.161-.2.437-.39.674a17.007,17.007,0,0,1-1.33,1.425c-.77.751-1.568,1.492-2.375,2.214-.085-.865-.171-1.729-.228-2.6-.038-.56-.067-1.111-.076-1.662a9.825,9.825,0,0,1,.057-1.5,2.58,2.58,0,0,1,.475-.019,3.9,3.9,0,0,1,.656.095,7.739,7.739,0,0,1,1.283.409l.028-.066a6.315,6.315,0,0,0-1.254-.589,4.019,4.019,0,0,0-.684-.18,1.982,1.982,0,0,0-.75-.01l-.1.019-.029.123a9.769,9.769,0,0,0-.209,1.719c-.019.57-.019,1.131-.009,1.7.029,1.131.076,2.252.18,3.382l.067.713.551-.465c1.026-.874,2-1.776,2.955-2.736a19.235,19.235,0,0,0,1.358-1.53,5.249,5.249,0,0,0,.3-.447,1.856,1.856,0,0,0,.133-.275.993.993,0,0,0,.067-.352,9.253,9.253,0,0,0-.057-1.045,25.461,25.461,0,0,0-.713-4.009Z" transform="translate(-125.958 -79.505)" fill="#c5796d"/>
              </g>
            </g>
            <g id="svga-group-faceshape-wrap" transform="translate(10.657 0)">
              <g id="svga-group-faceshape-single">
                <path id="SvgjsPath15359" d="M125.314,49.79c-6.007-7.4-10.131-13.2-25.822-17.3a66.753,66.753,0,0,0-12.642,0c-15.69,4.1-19.814,9.9-25.822,17.3-6.366,7.8-8.518,28.994-8.518,28.994a263.216,263.216,0,0,0,4.124,38.992c7.352,10.7,23.49,21.9,27.615,22.9,4.214,1.1,8.966-2,8.966-2s4.752,3.1,8.966,2,20.263-12.2,27.615-22.9a261.162,261.162,0,0,0,4.124-38.992c-.09,0-2.241-21.2-8.607-28.994Z" transform="translate(-52.512 -32.194)" fill="#f3d4cf"/>
                <path id="SvgjsPath15360" d="M102.107,140.712c4.456-1.12,20.243-12.238,27.595-22.935a261.181,261.181,0,0,0,4.124-38.992s-2.152-21.2-8.517-28.994c-6.007-7.4-10.131-13.2-25.82-17.3a66.742,66.742,0,0,0-12.641,0c-15.689,4.1-19.813,9.9-25.82,17.3-6.365,7.8-8.517,28.994-8.517,28.994a263.236,263.236,0,0,0,4.124,38.992c7.351,10.7,23.489,21.9,27.613,22.9,4.214,1.1,8.965-2,8.965-2s4.769,3.039,8.893,2.04Zm-8.176-3.439-.717-.4-.717.4-1.076.6a5.848,5.848,0,0,1-1.165.5,20.413,20.413,0,0,1-4.841.8,35.994,35.994,0,0,1-3.407-1.3s-2.869-1.5-3.586-2c-.807-.5-1.524-1-2.331-1.5s-1.524-1.1-2.331-1.6a105.78,105.78,0,0,1-8.786-7.1,57.757,57.757,0,0,1-7.62-8.3c-.628-3.1-1.165-6.3-1.614-9.4-.538-3.2-.9-6.5-1.255-9.7-.179-1.6-.359-3.2-.538-4.9a11.1,11.1,0,0,1-.359-2.4c-.09-.8-.09-1.6-.179-2.4-.269-3.2-.359-6.5-.359-9.7.269-2.3.717-4.6,1.076-6.9.448-2.3.986-4.6,1.524-6.8.628-2.2,1.255-4.5,2.062-6.6a18.664,18.664,0,0,1,1.345-3.1c.448-1,4.931-7.2,5.648-8.1a42.492,42.492,0,0,1,4.572-4.7,37.934,37.934,0,0,1,10.758-6.5c.986-.4,1.972-.8,2.958-1.1.538-.2,3.048-1,3.048-1a28.875,28.875,0,0,1,6.007-.8c2.062-.1,4.214-.1,6.276-.1a9.336,9.336,0,0,1,1.434.2l1.524.4,1.614.4a74.179,74.179,0,0,1,7.531,2.7c.269.1,1.434.7,1.434.7.448.3,3.236,2.01,3.685,2.31a31.637,31.637,0,0,1,5.28,4.789c1.524,1.7,2.958,3.4,4.393,5.2a23.716,23.716,0,0,1,3.5,6.6,67.476,67.476,0,0,1,2.152,7.3c.628,2.5.986,5,1.434,7.5.359,2.5.628,5,.9,7.5-.179,3.2-.448,6.5-.717,9.7-.359,3.2-.717,6.5-1.165,9.7-.179,1.6-.986,7.2-.986,7.2l-.717,4.8s-.9,5.3-1.165,6.8a55.186,55.186,0,0,1-7.351,8.2,105.478,105.478,0,0,1-8.606,7.3c-.359.3-2.331,1.6-2.331,1.6-.717.5-1.524,1.1-2.331,1.6s-5.289,3.1-5.289,3.1a9.976,9.976,0,0,1-1.614.5,6.182,6.182,0,0,1-2.331-.1c-.807-.2-4.483-1.8-4.662-1.9Z" transform="translate(-52.512 -32.194)" fill="#c5796d"/>
              </g>
            </g>
            <g id="svga-group-mouth-single-move" transform="translate(34.352 84.472)">
              <g id="svga-group-mouth-single" transform="translate(0 0)">
                <path id="SvgjsPath15306" d="M80.893,117.752a17.03,17.03,0,0,0,4.959-1.131,20.959,20.959,0,0,1,10.9-2.2c5.444.37,9.614,4.475,13.367,3.524,0,0-4.161,3.838-8.36,4.722s-10.726.808-14.117-.665A34.38,34.38,0,0,1,80.893,117.752Z" transform="translate(-78.684 -114.16)" fill="#de98a0"/>
                <path id="SvgjsPath15307" d="M95.608,123.415a21.86,21.86,0,0,1-8.047-1.254,33.676,33.676,0,0,1-6.783-4.265l-.37-.3.475-.038a16.892,16.892,0,0,0,4.883-1.111,21.105,21.105,0,0,1,10.992-2.232,20.783,20.783,0,0,1,6.964,2.09c2.365,1.035,4.408,1.928,6.346,1.435l.741-.19-.56.513c-.171.161-4.247,3.885-8.446,4.769A30.484,30.484,0,0,1,95.608,123.415ZM81.386,117.9a32.741,32.741,0,0,0,6.327,3.914c3.448,1.5,9.956,1.51,14,.656,3.24-.684,6.5-3.192,7.743-4.227-1.834.19-3.733-.636-5.89-1.577a20.71,20.71,0,0,0-6.83-2.062,20.722,20.722,0,0,0-10.792,2.185A15.557,15.557,0,0,1,81.386,117.9Z" transform="translate(-78.684 -114.16)" fill="#d68891"/>
                <path id="SvgjsPath15308" d="M78.793,116.175a7.445,7.445,0,0,0,3.743,2,13.563,13.563,0,0,0,4.294,0c1.453-.133,2.9-.294,4.341-.447s2.888-.323,4.4-.37a34.789,34.789,0,0,1,4.408.456c.722.114,1.435.209,2.147.295.713.1,1.425.171,2.128.209a15.624,15.624,0,0,0,2.109,0c.713-.057,1.415-.161,2.118-.285a20.374,20.374,0,0,0,2.1-.494,16.4,16.4,0,0,0,2.052-.713.049.049,0,0,1,.066.028.063.063,0,0,1-.019.067,14.192,14.192,0,0,1-4.037,1.814,16.9,16.9,0,0,1-2.185.485,15.036,15.036,0,0,1-2.261.123c-.751-.028-1.492-.1-2.223-.181s-1.453-.228-2.175-.352a32.235,32.235,0,0,0-4.256-.636c-1.406-.009-2.878.114-4.323.219s-2.907.218-4.37.294c-.731.028-1.453.076-2.194.076a7.844,7.844,0,0,1-2.2-.285,7.552,7.552,0,0,1-3.752-2.242.057.057,0,0,1,0-.076.1.1,0,0,1,.095.009Z" transform="translate(-78.684 -114.16)" fill="#cf7983"/>
              </g>
            </g>
            <g id="Group_4374" data-name="Group 4374" transform="translate(14.843 64.329)">
              <path id="Path_26933" data-name="Path 26933" d="M20.146.18s-1.893,1.812-7.73,2.329S0,0,0,0" transform="translate(1 5.241) rotate(14)" fill="none" stroke="#d69b92" stroke-linecap="round" stroke-width="0.7" opacity="0.18"/>
              <ellipse id="Ellipse_174" data-name="Ellipse 174" cx="10.5" cy="3.5" rx="10.5" ry="3.5" transform="translate(1.929) rotate(16)" fill="#eecac4"/>
            </g>
            <g id="Group_4373" data-name="Group 4373" transform="translate(66.843 64.329)">
              <path id="Path_26934" data-name="Path 26934" d="M20.146,2.389S18.253.576,12.416.059,0,2.568,0,2.568" transform="translate(21.738 7.733) rotate(166)" fill="none" stroke="#d69b92" stroke-linecap="round" stroke-width="0.7" opacity="0.18"/>
              <ellipse id="Ellipse_175" data-name="Ellipse 175" cx="10.5" cy="3.5" rx="10.5" ry="3.5" transform="translate(22.116 6.729) rotate(164)" fill="#eecac4"/>
            </g>
          </g>
        </g>
        <g id="svga-group-nose-single-move" transform="translate(62.214 55.808)">
          <g id="svga-group-nose-single">
            <path id="SvgjsPath6127" d="M93.637,107.493c.6.095,4.066-2.616,4.066-2.616a6.4,6.4,0,0,0,3.249,1.13,3.552,3.552,0,0,0,2.693-1.549c.5-.7-.8-2.45-1.6-3.485s-3.178-4.125-3.671-5.548c-.96-2.726-2.693-3.762-4.416-3.667a4.725,4.725,0,0,0-4.129,2.718c-.5,1.517-.646,3.382-1.616,4.552a43.33,43.33,0,0,0-3.2,3.73,2.531,2.531,0,0,0,1.113,2.813c1.553.767,3.86-.4,3.86-.4s2.854,2.2,3.644,2.323Z" transform="translate(-84.492 -82.972)" fill="#eecac4"/>
            <path id="SvgjsPath6128" d="M103.683,103.655a7.372,7.372,0,0,0-1.628-2.285,10.329,10.329,0,0,1,1.25,2.416,2.615,2.615,0,0,1,.144,1.243,1.266,1.266,0,0,1-.234.525,2.15,2.15,0,0,1-.423.473,2.977,2.977,0,0,1-2.41.683,5.371,5.371,0,0,1-1.313-.341,8.672,8.672,0,0,1-1.16-.543,12.743,12.743,0,0,0,.917-1.541c-.872.8-1.7,1.6-2.581,2.311a9.247,9.247,0,0,1-1.358.954,2.556,2.556,0,0,1-1.367.354.934.934,0,0,1-.279-.035,1.365,1.365,0,0,1-.27-.14,7.443,7.443,0,0,1-.656-.381c-.45-.341-.89-.718-1.34-1.077-.89-.735-1.789-1.48-2.761-2.171a19.136,19.136,0,0,0,1.511,1.961,7.23,7.23,0,0,1-1.376.455,2.847,2.847,0,0,1-1.655-.088,2.517,2.517,0,0,1-1.385-2.574,1.473,1.473,0,0,1,.27-.648c.153-.228.324-.464.5-.692.36-.455.737-.893,1.133-1.331l.594-.648a8.663,8.663,0,0,0,.6-.735,9.654,9.654,0,0,0,.962-1.6,7.109,7.109,0,0,0,.531-1.8c.108-.6.2-1.182.27-1.768.135-1.182.243-2.355.279-3.537A29.057,29.057,0,0,0,90,84.027a58.556,58.556,0,0,1-.36,7c-.135,1.156-.261,2.32-.45,3.467-.09.578-.18,1.147-.288,1.716a5.922,5.922,0,0,1-.486,1.567,8.122,8.122,0,0,1-.845,1.444,5.517,5.517,0,0,1-.513.648c-.207.228-.4.446-.594.683-.387.464-.764.937-1.115,1.427-.18.245-.351.5-.513.77a2.352,2.352,0,0,0-.333,1,3.067,3.067,0,0,0,2.023,3.108,3.132,3.132,0,0,0,1.906-.1,5.966,5.966,0,0,0,1.34-.674c.216.245.423.5.638.735a16.753,16.753,0,0,0,1.268,1.243,5.416,5.416,0,0,0,1,.671,3.945,3.945,0,0,0,.845.081,3.458,3.458,0,0,0,1.924-.489,7.929,7.929,0,0,0,1.394-1.2,12.126,12.126,0,0,0,1.088-1.339,5.265,5.265,0,0,0,2.41,1.269,3.575,3.575,0,0,0,1.493,0,3.117,3.117,0,0,0,1.34-.7,2.937,2.937,0,0,0,.486-.569,1.515,1.515,0,0,0,.288-.735,2.789,2.789,0,0,0-.261-1.4Z" transform="translate(-84.492 -84.027)" fill="#c5796d"/>
          </g>
        </g>
      </g>
    </g>
    <g id="Group_4378" data-name="Group 4378" transform="translate(-12027.327 -2343.419)">
      <g id="svga-group-eyes-left-move" transform="translate(0 11.918) rotate(-25)">
        <g id="svga-group-eyes-left">
          <g id="svga-group-eyesback-left" transform="translate(0.6 0.5)">
            <path id="SvgjsPath5920" d="M13.5,0A13.216,13.216,0,0,1,27,13,13.216,13.216,0,0,1,13.5,26,13.216,13.216,0,0,1,0,13,13.216,13.216,0,0,1,13.5,0Z" fill="#fff"/>
          </g>
          <g id="svga-group-eyesiriswrapper-left" transform="translate(8.5 7.9)">
            <g id="svga-group-eyesiriscontrol-left">
              <g id="svga-group-eyesiris-left">
                <path id="SvgjsPath3460" d="M5.6,0A5.6,5.6,0,1,1,0,5.6,5.591,5.591,0,0,1,5.6,0Z" fill="#2c1a12"/>
                <path id="SvgjsPath3461" d="M3,0A2.946,2.946,0,0,1,6,3,2.946,2.946,0,0,1,3,6,2.946,2.946,0,0,1,0,3,2.946,2.946,0,0,1,3,0Z" transform="translate(2.6 2.6)"/>
                <path id="SvgjsPath3462" d="M2.5.9,1.9.3A1.136,1.136,0,0,0,1.1,0,1.135,1.135,0,0,0,.3.3a1.136,1.136,0,0,0-.3.8,1.135,1.135,0,0,0,.3.8l.6.6a1.136,1.136,0,0,0,.8.3,1.135,1.135,0,0,0,.8-.3A1.21,1.21,0,0,0,2.5.9ZM5.2,6a.75.75,0,0,0,0-1.5A.754.754,0,0,0,5.2,6Z" transform="translate(2.4 2.3)" fill="#fff"/>
              </g>
            </g>
          </g>
          <g id="svga-group-eyesfront-left">
            <path id="SvgjsPath5928" d="M14.1,0A13.856,13.856,0,0,0,0,13.6,13.856,13.856,0,0,0,14.1,27.2,13.856,13.856,0,0,0,28.2,13.6,13.856,13.856,0,0,0,14.1,0Zm4.3,20.5c-4-.4-16.3-9-13.3-11s8.2-1.2,10.6-.3,8.2,10.4,8.2,10.4c.2.4-1.5,1.3-5.5.9Z" fill="#f3d4cf"/>
            <path id="SvgjsPath5929" d="M23.135,12.752c-.5-.9-1.1-1.7-1.6-2.6a7.764,7.764,0,0,1-.4-.7,28.276,28.276,0,0,0-4.5-6.1l-.6-.6c-.1-.1-.2-.2-.3-.2a11.065,11.065,0,0,0-6.2-2.4c-3.2-.3-8.7-.2-9.4.7s1.4,3.2,4.3,5.8a48.161,48.161,0,0,0,5,3.3,16.444,16.444,0,0,0,2.2,1.4c.9.5,1.8,1,2.7,1.4a14.191,14.191,0,0,0,2.9,1,16.054,16.054,0,0,0,3.1,0c.5-.1,1-.1,1.5-.2.2-.1.5-.1.7-.2.1-.1.2-.1.3-.2.2-.1.3-.2.3-.4Zm-.2.3c-.1.1-.2.1-.3.2a1.854,1.854,0,0,1-.7.2,7.719,7.719,0,0,1-1.5.2,15.138,15.138,0,0,1-3-.2,9.612,9.612,0,0,1-2.8-1.1,13.5,13.5,0,0,1-2.6-1.5,43.373,43.373,0,0,1-4.9-3.5,13.9,13.9,0,0,1-2.1-2.1c-.1-.1-.1-.2-.2-.2-.2-.4-.3-.8-.4-1-.4-1.2.4-1.6,2.9-2.1a13.066,13.066,0,0,1,7.5.8,11.464,11.464,0,0,1,3.2,2.8c.6.7,1.2,1.5,1.8,2.3,1.2,1.6,2.4,3.3,3.5,5-.2,0-.3.2-.4.2Z" transform="translate(0.865 6.848)"/>
          </g>
        </g>
      </g>
    </g>
    <g id="Group_4377" data-name="Group 4377" transform="translate(-11989 -2344.889)">
      <g id="svga-group-eyes-right-move" transform="matrix(0.819, 0.574, -0.574, 0.819, 15.601, 0)">
        <g id="svga-group-eyes-right">
          <g id="svga-group-eyesback-right" transform="translate(0.6 0.5)">
            <path id="SvgjsPath5921" d="M13.5,0A13.216,13.216,0,0,1,27,13,13.216,13.216,0,0,1,13.5,26,13.216,13.216,0,0,1,0,13,13.216,13.216,0,0,1,13.5,0Z" fill="#fff"/>
          </g>
          <g id="svga-group-eyesiriswrapper-right" transform="translate(9.2 8.6)">
            <g id="svga-group-eyesiriscontrol-right">
              <g id="svga-group-eyesiris-right">
                <path id="SvgjsPath3463" d="M4.9,0A4.9,4.9,0,1,1,0,4.9,4.908,4.908,0,0,1,4.9,0Z" fill="#2c1a12"/>
                <path id="SvgjsPath3464" d="M2.7,0A2.7,2.7,0,1,1,0,2.7,2.689,2.689,0,0,1,2.7,0Z" transform="translate(2.2 2.2)"/>
                <path id="SvgjsPath3465" d="M2.2.8C2,.6,1.9.4,1.7.3A1.493,1.493,0,0,0,1,0,1.08,1.08,0,0,0,.3.3.908.908,0,0,0,0,1a1.08,1.08,0,0,0,.3.7c.2.2.4.3.5.5a.779.779,0,0,0,.7.3,1.08,1.08,0,0,0,.7-.3A1.191,1.191,0,0,0,2.2.8ZM4.6,5.3A.652.652,0,0,0,4.6,4,.652.652,0,0,0,4.6,5.3Z" transform="translate(2.1 2)" fill="#fff"/>
              </g>
            </g>
          </g>
          <g id="svga-group-eyesfront-right">
            <path id="SvgjsPath5930" d="M14.1,0A13.856,13.856,0,0,0,0,13.6,13.856,13.856,0,0,0,14.1,27.2,13.856,13.856,0,0,0,28.2,13.6,13.856,13.856,0,0,0,14.1,0ZM10.2,20.2c-3.9.7-5.3.6-5.2.2,0,0,4.5-9.9,6.9-11.1s7.3-1.6,10.4.1C25.5,11.1,14.1,19.5,10.2,20.2Z" fill="#f3d4cf"/>
            <path id="SvgjsPath5933" d="M19.9.715c-1.3-.3-8-2.1-12.9,1.5-.2.1-.3.3-.5.4-.2.2-.5.4-.7.6-3.9,3.8-5.8,10.5-5.8,10.5a.31.31,0,0,1,.1-.2c0,.1,0,.2.1.2s.1.1.2.1.2.1.4.1h.7c.5,0,1-.1,1.5-.1a7.719,7.719,0,0,0,1.5-.2c.5-.1,1-.1,1.5-.2a10.886,10.886,0,0,0,2.5-1c1.3-.6,5.2-2.4,7.3-4.4C17.2,6.815,21.2,1.115,19.9.715ZM5.8,13.215a27.97,27.97,0,0,1-2.8.6c-.5.1-1,.1-1.4.2H.9a.367.367,0,0,1-.3-.1c-.1-.1-.2-.1-.2-.2.4-.8.8-1.7,1.2-2.5,1.8-3.2,4.9-8.1,7.8-9,1.4-.4,9.1-.7,8.3,2a8.84,8.84,0,0,1-2.5,3.1,33.208,33.208,0,0,1-4.2,3.2c-.8.5-1.6,1-2.5,1.5-1,.4-1.8.8-2.7,1.2Z" transform="translate(4.9 6.785)"/>
          </g>
        </g>
      </g>
      <g id="svga-group-eyebrows-right-move" transform="translate(8.112 2.253)">
        <g id="svga-group-eyebrows-right-rotate" transform="translate(1.607 0) rotate(10.714)">
          <g id="svga-group-eyebrows-right">
            <path id="SvgjsPath15501" d="M25.055,4.69a41.582,41.582,0,0,0-6.267-2.135,8.522,8.522,0,0,0-1.551-.319l-.37-.046c-.1.012-.19.012-.31.035a2.6,2.6,0,0,0-.37.081c-.12.023-.25.07-.38.1A28.942,28.942,0,0,0,12.667,3.6c-1.05.452-2.154.837-3.184,1.359A32.328,32.328,0,0,1,6.369,6.421c-1.07.406-3.5,1.846-4.6,2.171S.08,7.478.08,7.478L0,7.258A19.448,19.448,0,0,1,2.595,5.3c1-.649,2.02-1.229,3.05-1.774a25.481,25.481,0,0,1,3.19-1.38c1.09-.383,2.19-.731,3.29-1.09A28.986,28.986,0,0,1,15.5.121c.15-.023.29-.058.45-.07s.31-.035.47-.046a4.153,4.153,0,0,1,.53.012l.46.1A11.246,11.246,0,0,1,19.1.77,32.2,32.2,0,0,1,22.2,2.5c1,.626,1.98,1.287,2.95,1.983l-.1.209Z" fill="#4f3427"/>
          </g>
        </g>
      </g>
    </g>
    <g id="svga-group-eyebrows-right-move-2" data-name="svga-group-eyebrows-right-move" transform="translate(-12024.889 -2340.639)">
      <g id="svga-group-eyebrows-right-rotate-2" data-name="svga-group-eyebrows-right-rotate" transform="translate(26.323 8.492) rotate(169.286)">
        <g id="svga-group-eyebrows-right-2" data-name="svga-group-eyebrows-right" transform="translate(0 0)">
          <path id="SvgjsPath15501-2" data-name="SvgjsPath15501" d="M25.055,3.952a41.583,41.583,0,0,1-6.267,2.135,8.522,8.522,0,0,1-1.551.319l-.37.046c-.1-.012-.19-.012-.31-.035a2.6,2.6,0,0,1-.37-.081c-.12-.023-.25-.07-.38-.1a28.945,28.945,0,0,1-3.14-1.195c-1.05-.452-2.154-.837-3.184-1.359A32.328,32.328,0,0,0,6.369,2.221C5.3,1.815,2.866.375,1.766.051S.08,1.164.08,1.164L0,1.384A19.448,19.448,0,0,0,2.595,3.338c1,.649,2.02,1.229,3.05,1.774a25.484,25.484,0,0,0,3.19,1.38c1.09.383,2.19.731,3.29,1.09a28.985,28.985,0,0,0,3.38.939c.15.023.29.058.45.07s.31.035.47.046a4.153,4.153,0,0,0,.53-.012l.46-.1a11.246,11.246,0,0,0,1.69-.649,32.2,32.2,0,0,0,3.1-1.728c1-.626,1.98-1.287,2.95-1.983l-.1-.209Z" transform="translate(0 0)" fill="#4f3427"/>
        </g>
      </g>
    </g>
    <path id="SvgjsPath22154" d="M178.464,135.373c.384-.1.576-.7.1-.8-12.288-3.5-1.056-13.1-3.456-20.4-1.536-4.7-6.336-5.4-9.024-8.9-3.456-4.6,3.456-10.8,4.32-15.6.768-4.3-1.92-8.2-3.36-12.1.288-1.8.576-3.7.96-5.5a30.609,30.609,0,0,0,.768-7.2c.1-.4.192-.9.288-1.4a16.224,16.224,0,0,0-5.376-15.1,14,14,0,0,0-7.2-3.3,8.958,8.958,0,0,0-.384-2.8,10.494,10.494,0,0,0-3.072-4.8,12.28,12.28,0,0,0-4.992-2.7c-3.168-.8-7.1.8-9.888-1.5-3.456-2.9-3.84-8.1-7.872-10.8a12.423,12.423,0,0,0-12.48-.8.1.1,0,0,0-.1.1,12.868,12.868,0,0,0-4.9-1.9,39.32,39.32,0,0,0-4.9.2,9.928,9.928,0,0,1-3.072-.5c-.288-.2-.576-.3-.864-.5a13.023,13.023,0,0,0-2.784-.9,15.057,15.057,0,0,0-1.824-.4,13.634,13.634,0,0,0-11.712,3.7c-2.688,2.5-4.512,5.3-8.352,5.6-8.448-2.3-20.736,2.4-19.776,11.5v.4c-3.84-1.9-7.68,2.7-6.144,2.8a16.719,16.719,0,0,0-8.448,3.5,16.094,16.094,0,0,0-4.032,5.5,12.3,12.3,0,0,0-1.248,1.1,13.9,13.9,0,0,0-4.224,9.4c0,4.6,3.072,8.1,4.128,12.4a7.013,7.013,0,0,1,.192,1.4,11.9,11.9,0,0,1-3.456,5,17.761,17.761,0,0,0-10.368,7.3c-3.648,2.5-6.624,5.5-7.3,10.4a13.383,13.383,0,0,0,4.512,12.1c2.208,1.9,5.28,3.2,6.816,5.8.1.1.1.3.192.4-3.456,5.5-11.808,9.9-13.344,16.5a11.834,11.834,0,0,0,2.3,9.9c2.592,3.1,7.008,3.3,4.608,9.4-.48,1.2-1.056,1.5-1.056,2.9a.448.448,0,0,0,.864.2c1.824-3.5,6.528-5.1,3.648-9.8-1.632-2.6-4.992-3.2-6.432-6.1-1.344-2.6-.768-5.1.576-7.3.576,6,6.048,11.7,11.712,10,2.208,2.6,3.648,5.2,1.152,9-1.344,2.1-4.32,4.8-3.264,7.7,1.056,3,4.416,3.6,7.2,2.7a14.865,14.865,0,0,0,6.336,5.5,8.25,8.25,0,0,0,3.264,4.4c2.016,1.3,5.76,1.9,6.816-1a1.085,1.085,0,0,0-1.056-1.4c-1.92,0-3.264.7-4.9-.9l-.288-.3a7.207,7.207,0,0,0,6.144-3.5,11.67,11.67,0,0,0,2.016-7.5,8.157,8.157,0,0,0,2.688,2.8c1.632,1,3.936,1.6,5.76.6,1.44-.8,2.592-2.9,1.632-4.5a1.009,1.009,0,0,0-1.728,0,4.466,4.466,0,0,1-.96,1.3c-1.344-.2-1.536-3.3-1.248-4.5s2.112-2.2,2.976-2.9c1.152-.9,2.3-1.3,3.168-2.6a8.137,8.137,0,0,0,.768-7.7,12.682,12.682,0,0,0-5.184-6.1c-2.5-1.7-4.8-2.7-5.76-5.9-.96-3.3.576-6.2,1.152-9.3v-.3a6.941,6.941,0,0,0,1.92-3.5c1.248-7.3-9.6-9.2-7.872-16a6.933,6.933,0,0,1,.96-2.1,9.825,9.825,0,0,1,.96-1.1,40.924,40.924,0,0,1,3.264-2.5c1.728-1.1,3.744-1.9,5.664-3,3.168-1.7,5.376-3.8,5.568-7.7.192-4.5-2.4-8.1-4.32-11.8-4.224-8.2.672-14.6,7.488-18.1a5.935,5.935,0,0,0,1.728-.6.814.814,0,0,0,.672-.1c.192-.2.384-.3.576-.5h.192c7.3-4.3,14.3-10.1,23.232-8.2,5.088,1.1,10.464,4.6,9.312,10.8-.672,3.5-2.112,6.8-1.92,10.4.288,5.8,4.9,8.9,9.984,9.5a33.844,33.844,0,0,0,7.776-.4c6.528,1.7,12.48,5.9,11.232,14.1-1.056,6.7-7.3,11-9.12,17.5a13.2,13.2,0,0,0-.1,6.7,9.953,9.953,0,0,0,.576,3.3c.96,2.4,2.784,4,4.416,5.8,4.416,5-.288,8.3-3.84,11.6a13.394,13.394,0,0,0-4.128,6.9,7.983,7.983,0,0,0-1.152,1.4c-2.016,3.3-1.92,9.9,2.784,10.5.672.1.96-1,.384-1.3-2.112-1-2.208-3.6-1.44-5.8a13.082,13.082,0,0,0,.96,1.5,12.848,12.848,0,0,0,2.88,2.3c2.3,1.7,2.4,4,1.92,6.7-.1.3-.1.6-.192.9,0,.1,0,.1-.1.2-.576,2.3-1.344,4.3-.576,6.8a6.448,6.448,0,0,0,1.728,2.7,5.97,5.97,0,0,1-4.7-3.6c-.384-.7-1.344-.2-1.248.5,1.152,5.4,6.72,7.1,10.176,4.1h.192a15.741,15.741,0,0,1,5.856.8c2.592,1.9,5.472,3.1,8.832,2.6a21.6,21.6,0,0,0,8.448-1.6c4.9-1.5,9.5-6.8,9.312-11.8,3.744,3.2,10.368,2.6,10.656-4.2a.963.963,0,0,0-1.824-.5c-1.44,3.2-3.648,2.9-6.72-1.1a29.454,29.454,0,0,1,1.248-3.1,16.742,16.742,0,0,0,1.056-3.1,7.106,7.106,0,0,0-1.92-6.4,15.082,15.082,0,0,0-1.92-1.6c-.1-.2-.288-.4-.384-.6-.672-1.6-1.44-3.2-2.112-4.8a15.894,15.894,0,0,0,1.632-3.7,23.8,23.8,0,0,0,2.592-8.3,18.668,18.668,0,0,0,.1-3.3c.192.3.384.5.576.8,1.344,2.7-.384,6-.96,8.7-1.248,6.3,2.4,12.2,8.448,11.3Zm-147.456-21.4c-2.016-2.5-5.184-3.9-7.584-6.5a11.093,11.093,0,0,1-.96-13.8,8.234,8.234,0,0,0-.48,5.5c1.248,4.6,5.28,6.9,8.16,10.2.384.5.768.9,1.056,1.3A5.456,5.456,0,0,1,31.008,113.977ZM64.224,57.189c-2.976,4.2-3.264,8.6-1.248,13.3,1.344,3.1,3.552,5.8,4.32,9.2.864,3.7-.96,5.9-3.36,7.5a13.057,13.057,0,0,0-.576-12.4c0-.1-.1-.1-.1-.2-2.3-5.2-3.552-9.5-1.248-15a1.1,1.1,0,0,0-.192-1.2,15.183,15.183,0,0,1,4.032-3.4c.192-.1.288-.2.48-.3a12.591,12.591,0,0,0-2.112,2.5Zm46.848,9c-1.248-3.2-.288-5.9.768-9,1.248-3.7,2.592-7,.672-10.7-4.8-9.1-14.592-9.5-23.328-6.2.672-.5,1.248-1,1.92-1.5a24,24,0,0,1,10.56-2,19.267,19.267,0,0,1,10.08,3.3c1.92,2.9,3.648,5.7,3.744,9.4.1,4-1.824,7.6-2.112,11.5-.384,4.4,1.248,8.1,4.608,10.1-3.168-.3-5.76-1.7-6.912-4.9Z" transform="translate(-12086.686 -2415.693)" fill="#382218"/>
    <path id="SvgjsPath22155" d="M142.464,121.476a13.8,13.8,0,0,0-3.072-1.8,20.9,20.9,0,0,0-3.264-1.1,27.9,27.9,0,0,1-3.072-1c-1.92-.8-3.648-1.8-4.512-3.6a8.268,8.268,0,0,1-.288-5.9,20.354,20.354,0,0,1,2.88-5.8c2.5-3.6,5.568-6.9,7.968-10.9a23.21,23.21,0,0,0,1.536-3.1,19.661,19.661,0,0,0,.96-3.4,14.812,14.812,0,0,0-.192-7.1,12.191,12.191,0,0,0-1.536-3.2l-.576-.7-.576-.6a7.3,7.3,0,0,0-1.344-1.1,12.527,12.527,0,0,0-6.528-1.7c-4.512-.1-8.736,1.6-13.056,1.5a10.336,10.336,0,0,1-5.952-1.9,6.645,6.645,0,0,1-1.824-2.5,6.8,6.8,0,0,1-.192-3.1,14.815,14.815,0,0,1,2.688-5.9c1.152-1.9,2.592-3.8,3.168-6.2a15.588,15.588,0,0,0,.384-3.7,16.079,16.079,0,0,0-.768-3.6,14.344,14.344,0,0,0-3.936-5.9,14.84,14.84,0,0,0-6.144-3.3,17.428,17.428,0,0,0-6.816-.3,26.446,26.446,0,0,0-12.288,5.4,66.789,66.789,0,0,0-9.6,9.4l.1.1a83.939,83.939,0,0,1,10.08-8.7,39.735,39.735,0,0,1,5.664-3.2,26.545,26.545,0,0,1,6.144-1.6,14.387,14.387,0,0,1,11.616,3.4,11.929,11.929,0,0,1,2.016,2.4,15.3,15.3,0,0,1,1.44,2.8,10.587,10.587,0,0,1,.48,6.2,23.426,23.426,0,0,1-2.784,5.9,16.7,16.7,0,0,0-2.592,6.5,7.6,7.6,0,0,0,.384,3.6,6.9,6.9,0,0,0,2.208,2.8,11.537,11.537,0,0,0,6.432,1.9c4.512,0,8.736-1.6,13.056-1.4a11.533,11.533,0,0,1,6.048,1.7,10.931,10.931,0,0,1,1.248,1l.576.6.48.6a8.54,8.54,0,0,1,1.248,2.9,14.869,14.869,0,0,1-.1,6.5,18.293,18.293,0,0,1-2.592,6c-2.3,3.7-5.472,6.9-8.16,10.7a22.758,22.758,0,0,0-3.264,6.3,11.907,11.907,0,0,0-.576,3.7,8.777,8.777,0,0,0,.864,3.8,7.2,7.2,0,0,0,2.5,2.9,13.968,13.968,0,0,0,3.168,1.7c2.112.8,4.32,1.3,6.24,2.1a8.788,8.788,0,0,1,4.608,3.7,5.2,5.2,0,0,1,.48,2.7,5.708,5.708,0,0,1-1.152,2.6,18.467,18.467,0,0,1-4.992,3.9,17.971,17.971,0,0,0-2.784,2,9.178,9.178,0,0,0-2.208,2.9,6.941,6.941,0,0,0-.768,3.7,6.213,6.213,0,0,0,.576,1.9,6.321,6.321,0,0,0,1.248,1.5c1.92,1.6,4.224,2,5.856,3.2a3.742,3.742,0,0,1,1.632,2.4,5.793,5.793,0,0,1-.384,3.1c-.864,2-2.784,3.4-4.608,4.6l.1.2a12.842,12.842,0,0,0,4.992-4.5,5.619,5.619,0,0,0,.672-3.5,5.04,5.04,0,0,0-1.824-3.1c-1.824-1.5-4.128-2-5.568-3.4a3.676,3.676,0,0,1-1.248-2.5,5.362,5.362,0,0,1,.672-2.9,11.129,11.129,0,0,1,4.608-4.1c.96-.6,1.92-1.1,2.88-1.8a15.674,15.674,0,0,0,2.688-2.4,7.317,7.317,0,0,0,1.632-3.5,7.172,7.172,0,0,0-.576-4,9.832,9.832,0,0,0-2.5-2.8ZM64.416,56.289a21.079,21.079,0,0,1,3.552-2.1,53.328,53.328,0,0,1,7.968-2.6v-.2a41.6,41.6,0,0,0-8.352,1.8,14.25,14.25,0,0,0-7.1,5.2,12.765,12.765,0,0,0-1.92,4.2,10.212,10.212,0,0,0,.192,4.8,15.132,15.132,0,0,0,2.208,4.1c.864,1.2,1.92,2.2,2.88,3.3a27.581,27.581,0,0,1,2.688,3.2,7.647,7.647,0,0,1,1.44,3.7,6.306,6.306,0,0,1-.864,3.9,11.993,11.993,0,0,1-2.784,3.1c-2.208,1.7-4.9,2.8-7.2,4.6a11.6,11.6,0,0,0-2.976,3.2,7.049,7.049,0,0,0-1.152,4.4,6.637,6.637,0,0,0,2.016,4.2,17.079,17.079,0,0,0,3.552,2.6,22.869,22.869,0,0,1,3.36,2.4c.288.2.384.5.672.7a2.192,2.192,0,0,1,.48.8,4.872,4.872,0,0,1,.384,1.7,4.674,4.674,0,0,1-1.44,3.2,12.477,12.477,0,0,1-3.168,2.3c-.576.3-1.152.6-1.824.9a12.16,12.16,0,0,0-1.92,1.1,11.736,11.736,0,0,0-3.456,3.2,6.719,6.719,0,0,0-1.056,2.4,6.409,6.409,0,0,0,.1,2.7,8.352,8.352,0,0,0,2.784,3.9,12.279,12.279,0,0,1,2.592,3,6.036,6.036,0,0,1,.48,3.7c-.384,2.7-2.016,5.3-2.208,8.5a8.855,8.855,0,0,0,.288,2.3,4.494,4.494,0,0,0,1.344,1.9,3.889,3.889,0,0,0,2.016,1,2.3,2.3,0,0,0,2.112-.5l-.1-.2a2.9,2.9,0,0,1-3.552-.9,4.289,4.289,0,0,1-.96-1.7,4.618,4.618,0,0,1-.1-2c.288-2.8,2.016-5.2,2.688-8.2a7.265,7.265,0,0,0-.384-4.9,15.381,15.381,0,0,0-2.88-3.6,7.755,7.755,0,0,1-2.112-3.1,3.889,3.889,0,0,1,.672-3.2,9.312,9.312,0,0,1,2.88-2.6,15.364,15.364,0,0,1,1.728-1c.576-.3,1.248-.7,1.92-1a15.554,15.554,0,0,0,3.648-2.8,7.473,7.473,0,0,0,1.44-2,6.033,6.033,0,0,0,.576-2.6,5.7,5.7,0,0,0-.672-2.5c-.192-.4-.48-.7-.672-1.1l-.864-.9a21.714,21.714,0,0,0-3.744-2.4,29.868,29.868,0,0,1-3.456-2.2,5.166,5.166,0,0,1-1.824-3.3,6.306,6.306,0,0,1,.864-3.9,10.264,10.264,0,0,1,2.688-3.1c2.208-1.8,4.8-2.8,7.2-4.6a13.617,13.617,0,0,0,3.072-3.2,7.652,7.652,0,0,0,1.344-4.4,8.83,8.83,0,0,0-1.44-4.4,31.523,31.523,0,0,0-2.688-3.6c-1.92-2.2-3.84-4.2-4.7-6.8a9,9,0,0,1,1.248-7.6,13.1,13.1,0,0,1,2.5-2.8ZM50.88,147.471a8.519,8.519,0,0,1-.192-4.4,25.153,25.153,0,0,0,.384-4.7,8.077,8.077,0,0,0-.672-2.5,4.646,4.646,0,0,0-1.728-1.9c-1.344-1-2.688-1.5-3.648-2.4a3.19,3.19,0,0,1-.96-3.3,6.774,6.774,0,0,1,1.92-3.3,24.3,24.3,0,0,1,3.456-2.5,23.3,23.3,0,0,0,1.92-1.4,7.543,7.543,0,0,0,1.728-1.8,6.878,6.878,0,0,0,1.728-5,5.929,5.929,0,0,0-.864-2.6,6.738,6.738,0,0,0-1.824-1.9,27.6,27.6,0,0,0-4.032-2.3,12.241,12.241,0,0,1-3.36-2.4,5.543,5.543,0,0,1-1.248-3.7,8.965,8.965,0,0,1,1.056-4.1,12.593,12.593,0,0,1,2.592-3.4c2.112-2.1,4.608-3.8,6.72-6.1a12.73,12.73,0,0,0,2.5-3.9,7.858,7.858,0,0,0,.672-4.7,8.127,8.127,0,0,0-2.016-4.2q-1.44-1.5-3.168-3a15.321,15.321,0,0,1-2.976-3.2,11.948,11.948,0,0,1-1.632-3.8,12.421,12.421,0,0,1,1.728-8.2,14.954,14.954,0,0,1,6.048-5.8,21.617,21.617,0,0,1,8.256-2.2,50.982,50.982,0,0,1,8.736,0v-.2a43.365,43.365,0,0,0-8.832-.8,21,21,0,0,0-8.832,1.9,14.821,14.821,0,0,0-3.936,2.5,15.513,15.513,0,0,0-2.976,3.7,13.4,13.4,0,0,0-1.824,9.4,10.336,10.336,0,0,0,2.112,4.4,34.039,34.039,0,0,0,3.36,3.2,30.7,30.7,0,0,1,3.36,2.9,8.041,8.041,0,0,1,2.016,3.8,8.243,8.243,0,0,1-.576,4.3,13.114,13.114,0,0,1-2.5,3.7c-2.016,2.2-4.608,3.7-6.912,5.7a12.04,12.04,0,0,0-4.512,8.3,6.7,6.7,0,0,0,1.536,4.8,11.949,11.949,0,0,0,3.84,2.9,27.093,27.093,0,0,1,3.744,2.2,5.623,5.623,0,0,1,1.248,1.4,3.473,3.473,0,0,1,.48,1.7,5.188,5.188,0,0,1-1.344,3.5,10.792,10.792,0,0,1-3.168,2.7,30.346,30.346,0,0,0-3.744,2.8,8.49,8.49,0,0,0-2.4,4.5,5.642,5.642,0,0,0,.192,2.8,4.094,4.094,0,0,0,1.536,2.2c1.344,1.1,2.784,1.5,3.936,2.3a4.33,4.33,0,0,1,1.92,3.3,23.822,23.822,0,0,1-.1,4.5,9.792,9.792,0,0,0,.576,4.7,6.615,6.615,0,0,0,1.344,2,2.862,2.862,0,0,0,2.112.7v-.2a3.817,3.817,0,0,1-2.784-2.9Zm106.752-22a14.928,14.928,0,0,0,1.536-3.6,11.123,11.123,0,0,0,.192-4,6.266,6.266,0,0,0-1.92-3.7,7.561,7.561,0,0,0-3.552-1.8c-1.248-.3-2.5-.4-3.648-.6a15.892,15.892,0,0,1-3.264-.6,4.1,4.1,0,0,1-2.3-1.7c-1.056-1.6-.768-4.1.192-5.9a31.182,31.182,0,0,1,4.32-5.4,65.148,65.148,0,0,0,4.608-5.7,30.642,30.642,0,0,0,5.952-13.7A19.055,19.055,0,0,0,156,64.287a11.709,11.709,0,0,0-2.784-2.6,10.982,10.982,0,0,0-3.456-1.6,15.019,15.019,0,0,0-7.3-.1c-4.8.9-8.928,3.5-13.344,5-2.208.7-4.512,1.4-6.816,1a4.477,4.477,0,0,1-2.784-1.8,7.473,7.473,0,0,1-1.152-3.3c-.192-2.4.672-4.7,1.536-7a26.786,26.786,0,0,0,1.632-7.3,23.431,23.431,0,0,0-3.456-14.5,19.365,19.365,0,0,0-12.288-7.9,24.178,24.178,0,0,0-14.3,1.4,31.674,31.674,0,0,0-11.616,8.7A50.019,50.019,0,0,0,72,46.591l.192.1a58.641,58.641,0,0,1,8.448-11.7,33.727,33.727,0,0,1,11.424-8,22.969,22.969,0,0,1,13.44-1.1,20.578,20.578,0,0,1,6.336,2.5,17.492,17.492,0,0,1,4.992,4.7,21.767,21.767,0,0,1,3.744,13.4,25.756,25.756,0,0,1-1.344,7.1c-.768,2.3-1.632,4.7-1.344,7.3a7.037,7.037,0,0,0,1.248,3.6,4.823,4.823,0,0,0,3.072,2c2.5.5,4.9-.2,7.1-.9,4.512-1.5,8.736-3.8,13.344-4.5a15.157,15.157,0,0,1,6.72.3,11.958,11.958,0,0,1,2.976,1.5,13.9,13.9,0,0,1,2.4,2.4,17.918,17.918,0,0,1,3.072,13.2c-.672,4.7-2.976,8.9-5.856,12.7-1.44,1.9-2.976,3.7-4.512,5.5a36.257,36.257,0,0,0-4.7,5.9,9.494,9.494,0,0,0-1.056,4,6.281,6.281,0,0,0,1.056,4.1,6.869,6.869,0,0,0,3.36,2.5,16.287,16.287,0,0,0,3.648.6c2.3.2,4.7.3,6.144,1.8a4.609,4.609,0,0,1,1.44,2.7,9.533,9.533,0,0,1-.1,3.3,12.961,12.961,0,0,1-1.248,3.2,29.122,29.122,0,0,1-2.016,2.8c-1.536,1.8-3.36,3.4-4.9,5.4a13.331,13.331,0,0,0-1.92,3.2,9.8,9.8,0,0,0-.768,3.7,9.366,9.366,0,0,0,.672,3.7,5.558,5.558,0,0,0,2.592,2.6l.1-.2a4.8,4.8,0,0,1-2.208-2.6,8.593,8.593,0,0,1-.48-3.5,9.805,9.805,0,0,1,.864-3.4,13.7,13.7,0,0,1,1.92-2.9c1.536-1.8,3.36-3.3,5.088-5.1a9.7,9.7,0,0,0,2.688-3ZM64.7,40.692a23.641,23.641,0,0,1-.192-8.2,7.18,7.18,0,0,1,.576-1.9,14.466,14.466,0,0,1,.768-1.8,11.863,11.863,0,0,1,2.5-2.9,8.312,8.312,0,0,1,3.36-1.7,12.359,12.359,0,0,1,1.92-.1,13.578,13.578,0,0,1,1.92.5,13.32,13.32,0,0,0,4.032,1,4.1,4.1,0,0,0,2.112-.7c.192-.1.288-.2.48-.3l.384-.4a7.183,7.183,0,0,0,.768-.9,16.271,16.271,0,0,0,1.92-3.9A13.878,13.878,0,0,1,87.072,16a3.653,3.653,0,0,1,1.248-.9,2.037,2.037,0,0,1,1.536,0,11.854,11.854,0,0,1,3.264,1.8A8.978,8.978,0,0,0,95.04,18a5.636,5.636,0,0,0,2.3.6,4.886,4.886,0,0,0,2.4-.4,11.766,11.766,0,0,0,1.92-1l1.728-1.1a13.334,13.334,0,0,1,1.728-.8,3.361,3.361,0,0,1,3.552.7l.192-.1a7.735,7.735,0,0,0-3.936-1.6,7.391,7.391,0,0,0-2.112.6c-.672.3-1.248.6-1.824.9a6.612,6.612,0,0,1-3.456.9,6.809,6.809,0,0,1-3.168-1.6A13.584,13.584,0,0,0,90.432,13a4.818,4.818,0,0,0-4.608,1.7c-1.92,2.6-4.992,10-6.24,10.1a8.981,8.981,0,0,1-3.84-.9,9.606,9.606,0,0,0-4.128-.9,8.878,8.878,0,0,0-4.128,1.4,8.773,8.773,0,0,0-2.976,3.3,11.775,11.775,0,0,0-1.344,4.3,16.935,16.935,0,0,0,1.44,8.5l.1.2Zm-2.784.2.1-.2C59.136,39.092,58.752,39.892,61.92,40.892ZM49.44,170.966a3.256,3.256,0,0,1-2.5-.6c-1.44-1.1-2.112-3-2.976-4.7a9.171,9.171,0,0,0-1.824-2.5,7.38,7.38,0,0,0-2.784-1.4c-2.016-.4-3.936-.3-5.664-.5a4.28,4.28,0,0,1-2.3-.8,3.282,3.282,0,0,1-1.248-1.9,7.828,7.828,0,0,1,1.248-4.9,17.953,17.953,0,0,0,2.592-5.5,6.227,6.227,0,0,0-.1-3.5,8.158,8.158,0,0,0-1.824-2.9,23.155,23.155,0,0,0-5.088-3.1,11.364,11.364,0,0,1-4.224-3,5.1,5.1,0,0,1-.864-4.7,10.7,10.7,0,0,1,2.5-4.6c2.5-2.7,6.048-4.4,8.736-7.5a11.744,11.744,0,0,0,2.688-5.5,7.148,7.148,0,0,0-.192-3.2,7.933,7.933,0,0,0-1.536-2.8c-2.688-3.1-6.72-4.1-9.024-7a7.706,7.706,0,0,1-1.728-5.2,10.634,10.634,0,0,1,1.536-5.4,17.013,17.013,0,0,1,3.744-4.2,29.772,29.772,0,0,1,4.7-3.1,22.307,22.307,0,0,0,4.7-3.5,7.547,7.547,0,0,0,1.728-2.7,7.663,7.663,0,0,0,.48-3.3c-.288-2.2-1.44-4-2.3-5.7a11.2,11.2,0,0,1-1.536-5.1,14.51,14.51,0,0,1,4.128-9.9,20.12,20.12,0,0,1,9.5-5.3,68.766,68.766,0,0,1,11.04-1.8v-.2a61.964,61.964,0,0,0-11.328,1,25.225,25.225,0,0,0-5.472,1.8,16.154,16.154,0,0,0-4.9,3.4,16.381,16.381,0,0,0-3.456,5,14.826,14.826,0,0,0-1.344,6.1,12.145,12.145,0,0,0,1.824,6c.96,1.7,2.016,3.3,2.208,5a6.057,6.057,0,0,1-1.536,4.8,16.92,16.92,0,0,1-4.32,3.5c-3.168,2.1-6.432,4.4-8.448,7.9a13,13,0,0,0-1.632,5.7,8.776,8.776,0,0,0,1.824,5.7c2.592,3.1,6.528,4.4,8.736,7.2a5.539,5.539,0,0,1,1.152,2.4,5.938,5.938,0,0,1,0,2.6,10.509,10.509,0,0,1-2.5,4.7c-2.4,2.7-5.952,4.3-8.832,7.2a11.583,11.583,0,0,0-3.072,5.4,7.688,7.688,0,0,0-.192,3.3,7.414,7.414,0,0,0,1.344,3.1,10.133,10.133,0,0,0,2.4,2.2c.864.6,1.728,1,2.592,1.5a22.066,22.066,0,0,1,4.7,2.8,4.17,4.17,0,0,1,1.44,4.2,22.99,22.99,0,0,1-2.3,5,15.107,15.107,0,0,0-1.152,2.9,6.729,6.729,0,0,0-.1,3.4,4.464,4.464,0,0,0,1.92,2.8,6.981,6.981,0,0,0,3.072,1c2.016.2,3.84-.1,5.568.2a4.826,4.826,0,0,1,2.3,1,9.34,9.34,0,0,1,1.728,2.1c.96,1.6,1.824,3.6,3.456,4.8a3.18,3.18,0,0,0,1.44.6,2.694,2.694,0,0,0,1.536-.1,2.5,2.5,0,0,0,2.016-2.1h-.192a2.556,2.556,0,0,1-2.112,1.9ZM177.024,78.984a6.188,6.188,0,0,0-1.632-1.9c-1.248-1-2.5-1.7-3.552-2.4a5,5,0,0,1-2.016-2.9,10.633,10.633,0,0,1,0-3.9c.384-2.8,1.536-5.6,1.536-8.8a16.058,16.058,0,0,0-2.784-8.7,17.136,17.136,0,0,0-6.72-5.7,20.281,20.281,0,0,0-8.352-1.8,26.911,26.911,0,0,0-8.448,1.1,39.287,39.287,0,0,1-8.064,1.9,9.7,9.7,0,0,1-3.84-.5,7.012,7.012,0,0,1-2.976-2.4c-1.632-2.1-2.4-4.9-2.976-7.7a32.346,32.346,0,0,0-2.5-8.6,11.967,11.967,0,0,0-15.168-5.5l.1.2a11.645,11.645,0,0,1,13.728,6c1.152,2.5,1.536,5.3,2.112,8.2a19.791,19.791,0,0,0,3.36,8.4,7.614,7.614,0,0,0,3.744,2.6,8.332,8.332,0,0,0,4.416.3c2.88-.4,5.472-1.6,8.16-2.4a23.148,23.148,0,0,1,8.256-1,17.926,17.926,0,0,1,7.872,2.2,17.106,17.106,0,0,1,5.952,5.6,14.761,14.761,0,0,1,2.3,7.8c0,2.7-1.152,5.4-1.728,8.4a10.131,10.131,0,0,0,0,4.8,7.09,7.09,0,0,0,1.056,2.3,7,7,0,0,0,1.728,1.7c1.248.9,2.5,1.5,3.456,2.3a4.268,4.268,0,0,1,1.632,3,6.166,6.166,0,0,1-.96,3.6,15.124,15.124,0,0,1-2.5,3.2,19.063,19.063,0,0,0-2.784,3.4,10.054,10.054,0,0,0-1.536,4.3,6.084,6.084,0,0,0,.384,2.3,3.813,3.813,0,0,0,1.44,1.8,3.226,3.226,0,0,0,2.016.8,2.738,2.738,0,0,0,2.112-.7l-.1-.2a2.963,2.963,0,0,1-3.648-.5,3.56,3.56,0,0,1-1.056-1.6,6.735,6.735,0,0,1-.192-2,8.9,8.9,0,0,1,1.536-3.7,27.635,27.635,0,0,1,2.784-3.1,19.5,19.5,0,0,0,2.88-3.4,9.24,9.24,0,0,0,1.344-4.7,3.075,3.075,0,0,0-.384-2.1ZM132.48,25.695c1.056,1.5,2.4.8,1.44-1.1-2.016-3.9-7.1-5.6-10.656-3.8l.1.2a10.557,10.557,0,0,1,9.12,4.7Zm37.632,109.078c-.768-.9-1.536-1.7-2.112-2.5a6.446,6.446,0,0,1-.768-1.4l-.192-.7a2.024,2.024,0,0,1-.1-.8,9.065,9.065,0,0,1,.288-3.2c.576-2.2,1.632-4.3,2.4-6.5a14.188,14.188,0,0,0,.768-3.5,7.891,7.891,0,0,0-.576-3.6c-.864-2.3-2.688-4-4.224-5.6s-3.168-3.3-3.84-5.3a9.193,9.193,0,0,1,.288-6.2,43.992,43.992,0,0,1,2.784-6.2,20.532,20.532,0,0,0,2.112-6.9,9.024,9.024,0,0,0-.288-3.6,5.6,5.6,0,0,0-1.824-3l-.1.1a6.9,6.9,0,0,1,1.344,3.1,9.533,9.533,0,0,1-.1,3.3,21.792,21.792,0,0,1-2.4,6.3,35.367,35.367,0,0,0-3.072,6.4,15.8,15.8,0,0,0-.768,3.7,8.531,8.531,0,0,0,.576,3.8c2.112,4.8,7.1,6.3,8.928,10.5a7.663,7.663,0,0,1,.48,3.3,10.5,10.5,0,0,1-.864,3.3c-.768,2.2-2.016,4.2-2.784,6.4a9.34,9.34,0,0,0-.576,3.7,7.269,7.269,0,0,0,1.152,3.7c1.344,2.1,3.168,3.6,3.84,5.5a3.068,3.068,0,0,1,0,2.6,4.767,4.767,0,0,1-2.016,1.9,9.032,9.032,0,0,0-2.88,2.4,5.648,5.648,0,0,0-1.056,4.1c.288,2.6,1.44,4.7,1.728,6.8a10.665,10.665,0,0,1-1.056,6.2,10.065,10.065,0,0,1-10.944,5.3l-.1.2a9.99,9.99,0,0,0,6.816-.1,10.4,10.4,0,0,0,5.472-4.6,12.445,12.445,0,0,0,1.632-7.2,14.032,14.032,0,0,0-.864-3.6,13.665,13.665,0,0,1-.672-3.2,3.6,3.6,0,0,1,.576-2.5,8.321,8.321,0,0,1,2.4-1.9,5.969,5.969,0,0,0,2.688-2.9,5.3,5.3,0,0,0-.1-4.2,9.462,9.462,0,0,0-2.016-3.4Z" transform="translate(-12086.686 -2415.693)" fill="#29160d"/>
  </g>
</svg>
