<svg id="Icons" xmlns="http://www.w3.org/2000/svg" width="41.408" height="41.408" viewBox="0 0 41.408 41.408">
  <g id="Rounded">
    <g id="Content">
      <g id="_-Round-_-Content-_-filter_list" data-name="-Round-/-Content-/-filter_list">
        <g id="Group_226" data-name="Group 226">
          <path id="Path" d="M0,0H41.408V41.408H0Z" fill="none" fill-rule="evenodd"/>
          <path id="_Icon-Color" data-name="🔹Icon-Color" d="M16.8,26.7h3.451a1.725,1.725,0,0,0,0-3.451H16.8a1.725,1.725,0,0,0,0,3.451ZM3,7.725A1.73,1.73,0,0,0,4.725,9.451H32.331a1.725,1.725,0,1,0,0-3.451H4.725A1.73,1.73,0,0,0,3,7.725ZM9.9,18.077H27.155a1.725,1.725,0,1,0,0-3.451H9.9a1.725,1.725,0,0,0,0,3.451Z" transform="translate(2.176 4.352)" fill="#d71920" fill-rule="evenodd"/>
        </g>
      </g>
    </g>
  </g>
</svg>
