<svg width="44" height="38" viewBox="0 0 44 38" fill="none" xmlns="http://www.w3.org/2000/svg">
<g clip-path="url(#clip0_193_77)">
<path d="M39.5175 11.2779C40.4009 10.3011 40.9792 9.0929 41.1825 7.799C41.3858 6.50509 41.2055 5.18075 40.6634 3.98572C40.1212 2.79069 39.2403 1.77598 38.127 1.06402C37.0136 0.352056 35.7153 -0.0267334 34.3887 -0.0267334C33.0621 -0.0267334 31.7638 0.352056 30.6505 1.06402C29.5371 1.77598 28.6563 2.79069 28.1141 3.98572C27.5719 5.18075 27.3916 6.50509 27.5949 7.799C27.7983 9.0929 28.3765 10.3011 29.26 11.2779C26.51 13.5443 25.135 16.4622 24.7637 21.7143C24.7637 24.0079 24.7637 26.5593 27.7337 27.0615L28.93 32.9107C29.7137 36.005 31.8587 38 34.43 38C36.96 38 39.105 36.005 39.93 32.8429L41.0987 27.0615C44.0825 26.5593 44.0825 23.9943 44.0687 21.6329C43.5737 16.4622 42.3087 13.5443 39.5175 11.2779ZM34.3887 2.71431C35.2046 2.71431 36.0021 2.95308 36.6804 3.40046C37.3588 3.84783 37.8875 4.48372 38.1997 5.22768C38.5119 5.97164 38.5936 6.79025 38.4345 7.58003C38.2753 8.36981 37.8824 9.0953 37.3056 9.66469C36.7287 10.2341 35.9936 10.6218 35.1935 10.7789C34.3933 10.936 33.5639 10.8554 32.8102 10.5472C32.0564 10.2391 31.4122 9.71725 30.9589 9.04771C30.5057 8.37817 30.2637 7.59099 30.2637 6.78574C30.2637 5.70593 30.6983 4.67036 31.4719 3.90682C32.2455 3.14328 33.2947 2.71431 34.3887 2.71431ZM39.8887 24.4286C39.5651 24.4228 39.2498 24.5299 38.9983 24.7309C38.7467 24.932 38.5752 25.2142 38.5137 25.5279L37.1387 32.3136C36.6712 34.1593 35.5712 35.3536 34.3887 35.3536C33.2062 35.3536 32.065 34.1593 31.6387 32.3815L30.2637 25.5958C30.2023 25.2821 30.0307 24.9999 29.7792 24.7988C29.5277 24.5977 29.2124 24.4907 28.8887 24.4965C27.5137 24.4965 27.5137 24.4965 27.5137 21.9043C27.9537 16.7879 29.1775 14.9015 31.13 13.3408C31.2256 13.2734 31.3093 13.1909 31.3775 13.0964L31.4737 12.9743C31.7497 13.1027 32.0346 13.2116 32.3262 13.3L33.4812 14.9965L31.6525 19.5293L34.4025 23.1393L37.1525 19.5293L35.31 14.9965L36.465 13.3C36.7619 13.2139 37.0515 13.105 37.3312 12.9743L37.4275 13.0964C37.4948 13.1871 37.5733 13.2692 37.6612 13.3408C39.6275 14.9015 40.8512 16.7879 41.2775 21.7822C41.2637 24.4286 41.2637 24.4286 39.8887 24.4286Z" fill="white"/>
<path d="M22 19H17.875C17.5103 19 17.1606 19.143 16.9027 19.3975C16.6449 19.652 16.5 19.9972 16.5 20.3571V36.6429C16.5 37.0028 16.6449 37.348 16.9027 37.6025C17.1606 37.857 17.5103 38 17.875 38H22C22.3647 38 22.7144 37.857 22.9723 37.6025C23.2301 37.348 23.375 37.0028 23.375 36.6429V20.3571C23.375 19.9972 23.2301 19.652 22.9723 19.3975C22.7144 19.143 22.3647 19 22 19ZM20.625 35.2857H19.25V21.7143H20.625V35.2857Z" fill="white"/>
<path d="M13.75 27.1428H9.625C9.26033 27.1428 8.91059 27.2858 8.65273 27.5403C8.39486 27.7949 8.25 28.14 8.25 28.5V36.6428C8.25 37.0028 8.39486 37.348 8.65273 37.6025C8.91059 37.857 9.26033 38 9.625 38H13.75C14.1147 38 14.4644 37.857 14.7223 37.6025C14.9801 37.348 15.125 37.0028 15.125 36.6428V28.5C15.125 28.14 14.9801 27.7949 14.7223 27.5403C14.4644 27.2858 14.1147 27.1428 13.75 27.1428ZM12.375 35.2857H11V29.8571H12.375V35.2857Z" fill="white"/>
<path d="M5.5 29.8572H1.375C1.01033 29.8572 0.66059 30.0002 0.402727 30.2547C0.144865 30.5092 0 30.8544 0 31.2143V36.6429C0 37.0028 0.144865 37.348 0.402727 37.6026C0.66059 37.8571 1.01033 38 1.375 38H5.5C5.86467 38 6.21441 37.8571 6.47227 37.6026C6.73014 37.348 6.875 37.0028 6.875 36.6429V31.2143C6.875 30.8544 6.73014 30.5092 6.47227 30.2547C6.21441 30.0002 5.86467 29.8572 5.5 29.8572ZM4.125 35.2857H2.75V32.5715H4.125V35.2857Z" fill="white"/>
<path d="M22.6188 2.86364C22.399 2.76254 22.1561 2.72059 21.9146 2.74204C21.6732 2.76349 21.4417 2.84757 21.2438 2.98577L16.2938 6.63649C16.1493 6.74342 16.0276 6.87738 15.9356 7.03074C15.8436 7.18409 15.7831 7.35383 15.7576 7.53026C15.706 7.88658 15.8 8.24853 16.0188 8.53648C16.2376 8.82443 16.5633 9.0148 16.9243 9.06571C17.2853 9.11661 17.652 9.02385 17.9438 8.80789L18.1088 8.6722C12.485 18.9865 6.73753 24.4286 1.40253 24.4286C1.03785 24.4286 0.688116 24.5716 0.430254 24.8261C0.172391 25.0806 0.0275269 25.4258 0.0275269 25.7858C0.0275269 26.1457 0.172391 26.4909 0.430254 26.7454C0.688116 26.9999 1.03785 27.1429 1.40253 27.1429C7.93378 27.1429 14.3963 21.2936 20.6525 9.74432V10.1515C20.6525 10.5114 20.7974 10.8566 21.0553 11.1111C21.3131 11.3656 21.6629 11.5086 22.0275 11.5086C22.3922 11.5086 22.7419 11.3656 22.9998 11.1111C23.2577 10.8566 23.4025 10.5114 23.4025 10.1515V4.07147C23.3992 3.81798 23.324 3.57047 23.1855 3.35699C23.047 3.14351 22.8507 2.97262 22.6188 2.86364Z" fill="white"/>
</g>
<defs>
<clipPath id="clip0_193_77">
<rect width="44" height="38" fill="white"/>
</clipPath>
</defs>
</svg>
