<svg width="40" height="42" viewBox="0 0 40 42" fill="none" xmlns="http://www.w3.org/2000/svg">
<g clip-path="url(#clip0_193_65)">
<path d="M12 32.8125C11.7552 33.2821 11.3646 33.6625 10.885 33.8986C10.4054 34.1346 9.86186 34.2139 9.33334 34.125C8.14667 34.125 7.08001 32.97 6.66667 31.2375L5.33334 24.675C5.271 24.3741 5.10344 24.1042 4.85982 23.9123C4.61619 23.7205 4.31193 23.6188 4.00001 23.625C2.66667 23.625 2.66667 23.625 2.66667 21.105C3.08001 16.17 4.26668 14.3325 6.17335 12.8362C6.25855 12.767 6.33469 12.6877 6.40001 12.6L6.50668 12.4819C7.38741 12.9038 8.35385 13.1237 9.33334 13.125C10.2526 13.1233 11.1612 12.931 12 12.5606V9.48938C11.2679 10.138 10.3183 10.4978 9.33334 10.5C8.6001 10.4996 7.88108 10.3009 7.25484 9.92542C6.6286 9.54998 6.11923 9.01232 5.78241 8.37119C5.4456 7.73007 5.2943 7.01014 5.34503 6.29009C5.39575 5.57004 5.64656 4.87757 6.07005 4.28835C6.49355 3.69912 7.07342 3.23582 7.74631 2.94907C8.4192 2.66232 9.15923 2.56315 9.8855 2.66241C10.6118 2.76167 11.2963 3.05552 11.8644 3.51187C12.4325 3.96822 12.8623 4.5695 13.1067 5.25H15.7733C15.4472 3.78422 14.6293 2.46919 13.4514 1.5168C12.2734 0.564405 10.804 0.0301124 9.28 0C7.51189 0 5.81621 0.691409 4.56596 1.92212C3.31572 3.15282 2.61334 4.82202 2.61334 6.5625C2.61668 8.16467 3.22497 9.70841 4.32 10.8938C1.65334 13.0988 0.320004 15.9206 -0.0533295 21C-0.0533295 23.205 -0.0533218 25.6856 2.84001 26.1713L3.98667 31.815C4.74667 34.8206 6.82667 36.75 9.32 36.75C10.2793 36.7446 11.2125 36.4414 11.9867 35.8838L12 32.8125Z" fill="white"/>
<path d="M28 35.8838C28.7763 36.4375 29.7081 36.7402 30.6667 36.75C33.12 36.75 35.2 34.8206 36 31.7625L37.1467 26.1713C40.0267 25.6856 40.0267 23.1919 40.0267 20.9213C39.6 15.9469 38.3733 13.125 35.6667 10.92C36.5108 9.97421 37.0607 8.80938 37.2509 7.56443C37.441 6.31948 37.2634 5.04696 36.7392 3.89864C36.2149 2.75032 35.3662 1.77468 34.2942 1.08807C33.2222 0.401455 31.9722 0.032859 30.6933 0.0262451C29.1703 0.0546385 27.7016 0.588582 26.5255 1.5415C25.3493 2.49442 24.5345 3.81045 24.2133 5.27625H26.88C27.1246 4.59522 27.5548 3.99355 28.1235 3.53709C28.6922 3.08062 29.3776 2.78696 30.1045 2.68823C30.8314 2.58949 31.5719 2.6895 32.2449 2.9773C32.918 3.2651 33.4976 3.7296 33.9205 4.31997C34.3433 4.91034 34.593 5.60384 34.6422 6.32455C34.6915 7.04526 34.5383 7.76541 34.1996 8.4062C33.8609 9.04699 33.3497 9.58372 32.7219 9.95764C32.094 10.3316 31.3738 10.5283 30.64 10.5262C29.655 10.5241 28.7055 10.1642 27.9733 9.51562V12.6C28.8149 12.9604 29.7223 13.1479 30.64 13.1512C31.6238 13.1501 32.5946 12.9302 33.48 12.5081L33.5733 12.6263C33.6395 12.7176 33.7206 12.7974 33.8133 12.8625C35.72 14.3588 36.8933 16.1962 37.3067 21.0262C37.3067 23.6512 37.3067 23.6512 35.9733 23.6512C35.6614 23.6451 35.3571 23.7467 35.1135 23.9386C34.8699 24.1305 34.7023 24.4003 34.64 24.7013L33.3067 31.2638C32.8533 33.0488 31.8 34.2038 30.64 34.2038C30.1261 34.1852 29.6221 34.0584 29.1621 33.832C28.7022 33.6056 28.2968 33.2848 27.9733 32.8913L28 35.8838Z" fill="white"/>
<path d="M29.3333 26.145C28.9067 21.1706 27.68 18.3487 24.9733 16.1437C25.832 15.1997 26.3947 14.0312 26.5934 12.7792C26.7921 11.5273 26.6184 10.2455 26.0932 9.08858C25.568 7.93171 24.7138 6.94925 23.6337 6.25986C22.5537 5.57046 21.2939 5.20361 20.0067 5.20361C18.7194 5.20361 17.4597 5.57046 16.3796 6.25986C15.2996 6.94925 14.4453 7.93171 13.9201 9.08858C13.3949 10.2455 13.2212 11.5273 13.4199 12.7792C13.6187 14.0312 14.1813 15.1997 15.04 16.1437C12.3733 18.3487 11.04 21.1706 10.6667 26.25C10.6667 28.455 10.6667 30.9356 13.56 31.4212L14.7067 37.065C15.4667 40.0706 17.5467 42 20.04 42C22.4933 42 24.5733 40.0706 25.3733 37.0125L26.5067 31.4212C29.3467 30.9356 29.3467 28.4419 29.3333 26.145ZM20 7.87498C20.7911 7.87498 21.5645 8.10591 22.2223 8.53857C22.8801 8.97122 23.3928 9.58618 23.6955 10.3057C23.9983 11.0251 24.0775 11.8168 23.9232 12.5806C23.7688 13.3444 23.3878 14.046 22.8284 14.5967C22.269 15.1474 21.5563 15.5224 20.7804 15.6743C20.0044 15.8263 19.2002 15.7483 18.4693 15.4503C17.7384 15.1522 17.1137 14.6476 16.6741 14C16.2346 13.3525 16 12.5912 16 11.8125C16 10.7682 16.4214 9.76666 17.1716 9.02824C17.9217 8.28982 18.9391 7.87498 20 7.87498ZM25.3333 28.875C25.0214 28.8688 24.7171 28.9705 24.4735 29.1623C24.2299 29.3542 24.0623 29.6241 24 29.925L22.6667 36.4875C22.2 38.2725 21.1467 39.4275 20 39.4275C18.8533 39.4275 17.7467 38.2725 17.3333 36.54L16 29.9775C15.9377 29.6766 15.7701 29.4067 15.5265 29.2148C15.2829 29.023 14.9786 28.9213 14.6667 28.9275C13.3333 28.9275 13.3333 28.9275 13.3333 26.4075C13.7467 21.4725 14.9333 19.635 16.84 18.1387C16.9252 18.0695 17.0013 17.9902 17.0667 17.9025L17.1733 17.7844C17.4434 17.9029 17.7193 18.008 18 18.0994L19.12 19.74L17.3333 24.1106L20 27.615L22.6667 24.1106L20.8933 19.74L22.0133 18.0994C22.2941 18.008 22.57 17.9029 22.84 17.7844L22.9467 17.9025C23.008 17.9934 23.0847 18.0733 23.1733 18.1387C25.08 19.635 26.2533 21.4725 26.68 26.3025C26.68 28.875 26.68 28.875 25.3333 28.875Z" fill="white"/>
</g>
<defs>
<clipPath id="clip0_193_65">
<rect width="40" height="42" fill="white"/>
</clipPath>
</defs>
</svg>
