<svg width="32" height="44" viewBox="0 0 32 44" fill="none" xmlns="http://www.w3.org/2000/svg">
<g clip-path="url(#clip0_193_89)">
<path d="M24.7 21.0435H24.58C26.0206 19.6289 27.0881 17.8816 27.6878 15.9569C28.2875 14.0322 28.4008 11.9897 28.0175 10.0109C27.6343 8.03207 26.7665 6.17823 25.4911 4.61405C24.2157 3.04987 22.5723 1.82379 20.7069 1.04475C18.8415 0.265719 16.8118 -0.0421475 14.7983 0.148505C12.7847 0.339158 10.8496 1.02242 9.16483 2.13759C7.48007 3.25277 6.09787 4.76533 5.14102 6.54086C4.18417 8.3164 3.68229 10.3 3.67999 12.3153C3.67534 13.9481 4.00255 15.565 4.64188 17.0685C5.28121 18.572 6.21942 19.9309 7.39999 21.0634C3.25999 24.5707 0.879987 27.0417 0.0799866 37.0055C0.121549 37.9521 0.42585 38.8686 0.959015 39.6531C1.49218 40.4377 2.23333 41.0594 3.10001 41.4493C11.4387 44.8088 20.7613 44.8088 29.1 41.4493C29.9906 41.0476 30.7478 40.4012 31.2827 39.5859C31.8177 38.7705 32.1081 37.8201 32.12 36.8461C31.22 27.0218 28.84 24.5508 24.7 21.0435ZM24.26 12.2355C24.264 13.8729 23.78 15.4745 22.8695 16.8376C21.959 18.2006 20.6629 19.2637 19.1455 19.8921C17.6281 20.5205 15.9576 20.6859 14.3457 20.3674C12.7338 20.049 11.253 19.2609 10.091 18.1032C8.92906 16.9454 8.13816 15.47 7.81854 13.864C7.49892 12.2579 7.66497 10.5934 8.29565 9.08151C8.92634 7.56956 9.99328 6.27818 11.3613 5.37099C12.7293 4.46379 14.3367 3.98161 15.98 3.98555C18.176 3.98555 20.282 4.85474 21.8348 6.40192C23.3876 7.94909 24.26 10.0475 24.26 12.2355ZM5.01999 38.1413C4.62306 37.9482 4.27456 37.6691 4 37.3243C4.68 28.596 6.43999 27.1214 9.89999 24.1921L10.8 23.4348L11.32 23.654L14.22 27.6395L10.7 35.6106L14.32 40.0345C11.1067 40.0361 7.92972 39.3569 5 38.0417L5.01999 38.1413ZM27.02 38.1413C24.0756 39.4762 20.8748 40.1562 17.64 40.1341L21.28 35.7102L17.76 27.7392L20.66 23.7537C20.8516 23.6861 21.0387 23.6062 21.22 23.5145L22.14 24.2917C25.62 27.2211 27.36 28.6957 28.04 37.2645C28 37.2645 27.7 37.6432 27 38.0417L27.02 38.1413Z" fill="white"/>
</g>
<defs>
<clipPath id="clip0_193_89">
<rect width="32" height="44" fill="white"/>
</clipPath>
</defs>
</svg>
