<svg width="42" height="46" viewBox="0 0 42 46" fill="none" xmlns="http://www.w3.org/2000/svg">
<g clip-path="url(#clip0_193_84)">
<path d="M41.1281 6.99864C40.3673 5.94373 39.2355 5.22838 37.9689 5.00188C36.7023 4.77537 35.3987 5.05516 34.3299 5.7829L34.2007 5.88146L28.7105 10.5143C29.081 9.28596 29.1631 7.98631 28.9502 6.71979C28.7373 5.45327 28.2353 4.25523 27.4846 3.22195C26.7339 2.18867 25.7555 1.34898 24.6278 0.770346C23.5002 0.191713 22.2549 -0.109741 20.992 -0.109741C19.729 -0.109741 18.4837 0.191713 17.3561 0.770346C16.2285 1.34898 15.2499 2.18867 14.4992 3.22195C13.7486 4.25523 13.2466 5.45327 13.0337 6.71979C12.8208 7.98631 12.9029 9.28596 13.2734 10.5143L7.78318 5.88146L7.654 5.7829C6.58272 5.0542 5.27649 4.77392 4.0072 5.00037C2.73792 5.22682 1.60336 5.94258 0.839692 6.99864C0.170889 7.94342 -0.118004 9.11241 0.0320641 10.2667C0.182132 11.4209 0.759829 12.4733 1.64707 13.2086L11.3357 23.6901C11.473 26.4194 12.0175 29.1116 12.9504 31.6743L14.5652 39.8886C15.4856 43.6508 18.0046 46.0658 21.0242 46.0658C24.0438 46.0658 26.5144 43.6508 27.4833 39.8229L29.0981 31.7401C30.031 29.1773 30.5754 26.4851 30.7128 23.7558L40.4014 13.2743C41.2978 12.5276 41.8744 11.4563 42.01 10.2857C42.1455 9.11517 41.8293 7.93681 41.1281 6.99864ZM20.992 3.28577C21.9501 3.28577 22.8867 3.57482 23.6833 4.11637C24.48 4.65793 25.1008 5.4277 25.4675 6.32828C25.8342 7.22885 25.9301 8.2198 25.7432 9.17585C25.5562 10.1319 25.0949 11.0101 24.4174 11.6993C23.7399 12.3886 22.8767 12.858 21.937 13.0482C20.9973 13.2384 20.0233 13.1408 19.1381 12.7677C18.253 12.3947 17.4964 11.763 16.9641 10.9525C16.4318 10.142 16.1477 9.18912 16.1477 8.21434C16.1477 7.56711 16.273 6.92624 16.5164 6.32828C16.7599 5.73031 17.1167 5.187 17.5665 4.72934C18.0163 4.27168 18.5504 3.90862 19.1381 3.66094C19.7259 3.41325 20.3558 3.28577 20.992 3.28577ZM38.2215 10.7279L38.06 10.8758L28.0162 21.7351C27.843 21.8857 27.7031 22.0719 27.6057 22.2814C27.5083 22.4909 27.4556 22.719 27.451 22.9508C27.3639 25.5796 26.8567 28.1764 25.9493 30.6393C25.9152 30.7188 25.8881 30.8013 25.8685 30.8857L24.2538 39.1C23.7047 41.3343 22.4129 42.7801 21.0242 42.7801C19.6355 42.7801 18.2953 41.3343 17.7947 39.1658L16.1799 30.9515C16.1604 30.867 16.1334 30.7846 16.0992 30.7051C15.1918 28.2421 14.6846 25.6453 14.5975 23.0165C14.5925 22.7928 14.5427 22.5725 14.4511 22.3691C14.3594 22.1657 14.2279 21.9835 14.0646 21.8336L3.9885 10.9415L3.82701 10.7936C3.5525 10.5897 3.36806 10.2839 3.31365 9.94258C3.25925 9.60123 3.33927 9.25178 3.53637 8.97004C3.81194 8.62573 4.19967 8.39333 4.62925 8.31497C5.05882 8.2366 5.50179 8.31748 5.87777 8.54293L15.0173 16.2643C15.3075 16.5102 15.6732 16.6449 16.0508 16.6449C16.4284 16.6449 16.7941 16.5102 17.0842 16.2643L17.2295 16.1329C17.3327 16.0463 17.425 15.947 17.5041 15.8372L17.5525 15.5579C17.8839 15.7091 18.2236 15.8407 18.5698 15.9522L19.91 18.0058L17.7624 23.4765L20.992 27.8629L24.2215 23.4765L22.0738 18.0058L23.4141 15.9522C23.7603 15.8407 24.1 15.7091 24.4314 15.5579L24.5444 15.7058L24.8351 16.0015L24.9643 16.1329C25.2544 16.3788 25.6201 16.5135 25.9977 16.5135C26.3754 16.5135 26.741 16.3788 27.0312 16.1329L36.1707 8.41148C36.5664 8.1923 37.0277 8.12979 37.466 8.23595C37.9042 8.34211 38.2883 8.60944 38.5444 8.98649C38.7138 9.26543 38.7746 9.59873 38.7148 9.92092C38.6551 10.2431 38.4791 10.5309 38.2215 10.7279Z" fill="white"/>
</g>
<defs>
<clipPath id="clip0_193_84">
<rect width="42" height="46" fill="white"/>
</clipPath>
</defs>
</svg>
