<svg xmlns="http://www.w3.org/2000/svg" width="300.238" height="121.999" viewBox="0 0 300.238 121.999">
  <g id="Group_4381" data-name="Group 4381" transform="translate(-280.218 -85.999)">
    <path id="Union_5" data-name="Union 5" d="M27.619,118.445A45.183,45.183,0,0,1,0,76.775V72.918h.2a4.878,4.878,0,0,1-.2-1.37V70.527a8.126,8.126,0,1,1,16.252,0V76.9a28.971,28.971,0,1,0,57.943,0v-29c0-.541-.015-1.088-.045-1.627h.09a4.944,4.944,0,0,1-.045-.668V44.584a8.126,8.126,0,1,1,16.252,0v32.19a45.249,45.249,0,0,1-62.827,41.67Zm8.418-41.032V45.222a45.224,45.224,0,1,1,90.447,0V49.08h-.2a4.883,4.883,0,0,1,.2,1.37V51.47a8.126,8.126,0,1,1-16.252,0V45.1a28.971,28.971,0,0,0-57.943,0v29c0,.54.015,1.087.046,1.626h-.092a4.967,4.967,0,0,1,.046.669v1.021a8.126,8.126,0,0,1-16.252,0Z" transform="translate(453.972 86)" fill="#129996"/>
    <path id="Path_26944" data-name="Path 26944" d="M-120.386-44.816h8.8v30.98a5.14,5.14,0,0,0,.414,2.124,4.506,4.506,0,0,0,1.109,1.542,5.082,5.082,0,0,0,1.579.959,4.958,4.958,0,0,0,1.786.338v8.8a13.362,13.362,0,0,1-5.32-1.072,13.935,13.935,0,0,1-4.361-2.914A13.553,13.553,0,0,1-119.314-8.4a13.362,13.362,0,0,1-1.072-5.32ZM-107.622-.075v-8.8h5.339l-.075-11.655a13.032,13.032,0,0,1,1.09-5.3,14.1,14.1,0,0,1,2.951-4.343A13.775,13.775,0,0,1-93.955-33.1a13.362,13.362,0,0,1,5.32-1.072,13.273,13.273,0,0,1,3.591.489,13.637,13.637,0,0,1,3.252,1.372,14.111,14.111,0,0,1,2.763,2.124,13.819,13.819,0,0,1,2.162,2.745h5.6a12.9,12.9,0,0,1,5.282,1.09A14.165,14.165,0,0,1-61.659-23.4a13.833,13.833,0,0,1,2.933,4.343,13.228,13.228,0,0,1,1.072,5.3l.038,4.888h5.452v8.8ZM-93.561-8.76h4.925a5.842,5.842,0,0,0,1.786-.282,4.321,4.321,0,0,0,1.579-.9,4.428,4.428,0,0,0,1.109-1.579,5.822,5.822,0,0,0,.414-2.312v-6.5a5.962,5.962,0,0,0-.414-2.331,4.582,4.582,0,0,0-1.109-1.617,4.194,4.194,0,0,0-1.579-.921,5.129,5.129,0,0,0-1.786-.244,5.408,5.408,0,0,0-1.823.395,5.013,5.013,0,0,0-1.579,1.015,4.921,4.921,0,0,0-1.109,1.579,5.14,5.14,0,0,0-.414,2.124Zm18.573-9.888v4.925a13.779,13.779,0,0,1-.827,4.85h9.437v-4.888a4.958,4.958,0,0,0-.338-1.786,4.75,4.75,0,0,0-1-1.579,4.868,4.868,0,0,0-1.6-1.109,5.272,5.272,0,0,0-2.143-.414ZM-2.481-28.2v14.475a13.228,13.228,0,0,1-1.072,5.3A13.929,13.929,0,0,1-6.448-4.1a13.6,13.6,0,0,1-4.286,2.914A13.467,13.467,0,0,1-15.979-.075a13.4,13.4,0,0,1-5.076-.959,13.853,13.853,0,0,1-4.211-2.651,13.348,13.348,0,0,1-4.3,2.632,17.232,17.232,0,0,1-4.944.978,13.526,13.526,0,0,1-4.963-.94A14.019,14.019,0,0,1-43.8-3.685a13.853,13.853,0,0,1-4.211,2.651,13.4,13.4,0,0,1-5.076.959v-8.8A4.958,4.958,0,0,0-51.3-9.211a5.082,5.082,0,0,0,1.579-.959,4.724,4.724,0,0,0,1.128-1.542,4.947,4.947,0,0,0,.432-2.124V-28.2h8.8v14.362a5.042,5.042,0,0,0,.414,2.087,4.847,4.847,0,0,0,1.09,1.56,4.741,4.741,0,0,0,1.542.978,4.811,4.811,0,0,0,1.767.338,4.958,4.958,0,0,0,1.786-.338,4.694,4.694,0,0,0,1.56-.978,4.847,4.847,0,0,0,1.09-1.56,5.042,5.042,0,0,0,.414-2.087V-28.2h8.8v14.362a5.042,5.042,0,0,0,.414,2.087,4.633,4.633,0,0,0,1.09,1.542,4.907,4.907,0,0,0,1.542.959,5.441,5.441,0,0,0,1.767.376,5.441,5.441,0,0,0,1.767-.376,4.907,4.907,0,0,0,1.542-.959,4.633,4.633,0,0,0,1.09-1.542,5.042,5.042,0,0,0,.414-2.087V-28.2ZM-154.109,36.164a4.947,4.947,0,0,0,.432,2.124,4.864,4.864,0,0,0,1.109,1.542,4.855,4.855,0,0,0,1.56.959,4.958,4.958,0,0,0,1.786.338v8.8a13.4,13.4,0,0,1-5.076-.959,13.38,13.38,0,0,1-4.173-2.651,22.533,22.533,0,0,1-4.982,2.613,30.926,30.926,0,0,1-5.922,1.6,36.844,36.844,0,0,1-6.354.508,31.382,31.382,0,0,1-6.279-.658,24.369,24.369,0,0,1-5.734-1.955,17.631,17.631,0,0,1-4.7-3.309,14.593,14.593,0,0,1-3.177-4.756,16.076,16.076,0,0,1-1.166-6.3V32.743h8.835v1.166a5.944,5.944,0,0,0,1.09,3.553,9.123,9.123,0,0,0,2.914,2.575,15.119,15.119,0,0,0,4.192,1.6,25.357,25.357,0,0,0,4.963.62q.338,0,1.354-.113t2.331-.395a23.759,23.759,0,0,0,2.782-.79,13.764,13.764,0,0,0,2.669-1.241,7.161,7.161,0,0,0,1.993-1.767,3.826,3.826,0,0,0,.79-2.387V21.8h8.76Zm-22.22-21.844,5.226-5.226,6.316,6.279-6.316,6.279-5.226-5.226-5.3,5.226-6.279-6.279,6.279-6.279Zm64.047,26.807v8.8h-37.861v-8.8H-140.1l-4.587-10.039a9.915,9.915,0,0,1-1.034-5.884,8.932,8.932,0,0,1,2.218-4.531,13.16,13.16,0,0,1,4.455-3.121,22.1,22.1,0,0,1,5.64-1.654,21.888,21.888,0,0,1,3.045-.169,28.57,28.57,0,0,1,3.121.207,23.6,23.6,0,0,1,3.008.564,22.6,22.6,0,0,1,2.782.9A11.292,11.292,0,0,1-116,21.445a10.986,10.986,0,0,1,1.861,5.79,18.279,18.279,0,0,1-1.128,6.805,33.592,33.592,0,0,1-3.515,7.087Zm-17.333,0q1.053-1.278,2.369-3.064a27.409,27.409,0,0,0,2.312-3.722,13.555,13.555,0,0,0,1.335-3.873,4.981,4.981,0,0,0-.6-3.515,3.261,3.261,0,0,0-1.542-1.3A8.863,8.863,0,0,0-128.111,25a14.853,14.853,0,0,0-2.707-.132,20.164,20.164,0,0,0-2.594.263,11.95,11.95,0,0,0-2.03.508q-.827.3-.978.6Zm30.133-4.963a5.14,5.14,0,0,0,.414,2.124,4.633,4.633,0,0,0,1.09,1.542,4.855,4.855,0,0,0,1.56.959,4.958,4.958,0,0,0,1.786.338v8.8a13.4,13.4,0,0,1-5.076-.959,13.853,13.853,0,0,1-4.211-2.651,13.853,13.853,0,0,1-4.211,2.651,13.4,13.4,0,0,1-5.076.959v-8.8a4.958,4.958,0,0,0,1.786-.338,5.082,5.082,0,0,0,1.579-.959,4.724,4.724,0,0,0,1.128-1.542,4.947,4.947,0,0,0,.432-2.124V21.8h8.8Zm-4.286-31.62,6.316,6.316-6.316,6.279-6.279-6.279Zm26,45.38a10.642,10.642,0,0,1-4.662-.959,15.85,15.85,0,0,1-3.835-2.651,13.853,13.853,0,0,1-4.211,2.651,13.4,13.4,0,0,1-5.076.959v-8.8a4.958,4.958,0,0,0,1.786-.338,5.082,5.082,0,0,0,1.579-.959,4.724,4.724,0,0,0,1.128-1.542,4.947,4.947,0,0,0,.432-2.124V34.4l8.8-3.534v5.3a5.25,5.25,0,0,0,.395,2.087,4.376,4.376,0,0,0,1.109,1.56,5.028,5.028,0,0,0,1.635.978,5.791,5.791,0,0,0,2.011.338q1.993-2.519,4.38-5.17a61.892,61.892,0,0,1,5.076-5.019,50.063,50.063,0,0,1,5.64-4.3,27.94,27.94,0,0,1,6.128-3.045,21.874,21.874,0,0,1,6.5-1.222A17.9,17.9,0,0,1-42.2,23.494a9.562,9.562,0,0,1,3.327,2.03,13.254,13.254,0,0,1,2.444,3.083,15.191,15.191,0,0,1,1.523,3.722,15.272,15.272,0,0,1,.526,3.91,13.362,13.362,0,0,1-1.072,5.32,13.775,13.775,0,0,1-2.933,4.361,13.833,13.833,0,0,1-4.343,2.933,13.228,13.228,0,0,1-5.3,1.072Zm29.589-8.8a5.822,5.822,0,0,0,2.312-.414A4.428,4.428,0,0,0-44.289,39.6a4.553,4.553,0,0,0,.921-1.579,4.87,4.87,0,0,0,.263-1.786,5.441,5.441,0,0,0-.376-1.767,4.907,4.907,0,0,0-.959-1.542A5.113,5.113,0,0,0-45.981,31.8a6.087,6.087,0,0,0-2.124-.564,10.939,10.939,0,0,0-4.794.733A23.9,23.9,0,0,0-57.6,34.4a33.369,33.369,0,0,0-4.249,3.327q-1.974,1.823-3.4,3.4Z" transform="translate(477 136)" fill="#032d57"/>
  </g>
</svg>
