<svg xmlns="http://www.w3.org/2000/svg" width="140.696" height="52.52" viewBox="0 0 140.696 52.52">
  <g id="Group_4405" data-name="Group 4405" transform="translate(-82.35 5836.974)">
    <path id="Path_27252" data-name="Path 27252" d="M37.248,50.092V17.982h10.7a2.141,2.141,0,0,1,2.141,2.14V47.951a2.141,2.141,0,0,1-2.141,2.141Zm-35.107,0A2.141,2.141,0,0,1,0,47.951V39.388a2.141,2.141,0,0,1,2.141-2.14H32.11V50.092ZM17.982,32.11V17.982H32.11V32.11Zm-15.841,0A2.141,2.141,0,0,1,0,29.969V2.141A2.141,2.141,0,0,1,2.141,0h10.7V32.11ZM17.982,12.844V0H47.951a2.141,2.141,0,0,1,2.141,2.141V10.7a2.141,2.141,0,0,1-2.141,2.14Z" transform="translate(172.954 -5834.546)" fill="#d71920"/>
    <path id="Path_27253" data-name="Path 27253" d="M-44.845,0H-46.12A7.785,7.785,0,0,1-49.6-.658a3.97,3.97,0,0,1-1.883-1.876,7.52,7.52,0,0,1-.616-3.03l-.312-13.042,2.393-.368V-3.738a5.27,5.27,0,0,0,3.9,1.274h1.274ZM-46.12-2.464l4.036-.014a13.843,13.843,0,0,1,.658-4.057,13.2,13.2,0,0,1,2.053-4.021,9.492,9.492,0,0,1,3.462-2.9,13.765,13.765,0,0,1,1.862,2.683,15.338,15.338,0,0,1,1.239,3.03,10.559,10.559,0,0,1,.439,2.9,3.888,3.888,0,0,1-.92,2.591A5.773,5.773,0,0,1-35.917-.581a12.434,12.434,0,0,1-4,.581,4.927,4.927,0,0,0,1.3,2.11,6.4,6.4,0,0,0,2.23,1.4,7.779,7.779,0,0,0,2.79.5V3.26A9.273,9.273,0,0,1-33-.63a2.723,2.723,0,0,1,1.784-1.522A15.386,15.386,0,0,1-27.6-2.464h1.119V0h-5.168l.014,6.386a17.252,17.252,0,0,1-5.1-.651,7.287,7.287,0,0,1-3.342-2.06A7.843,7.843,0,0,1-41.815-.014L-46.12,0Zm6.174.241a10.513,10.513,0,0,0,3.958-.6,5.015,5.015,0,0,0,2.2-1.664,12.428,12.428,0,0,0-.772-3.264,12.843,12.843,0,0,0-1.551-2.967A7.8,7.8,0,0,0-37.843-8.97,10.763,10.763,0,0,0-39.33-6.089a11.452,11.452,0,0,0-.616,3.866ZM-1.713-4.05a4.277,4.277,0,0,1-.6,2.287A3.647,3.647,0,0,1-3.9-.375a5.265,5.265,0,0,1-2.23.46A7.54,7.54,0,0,1-8.39-.276a8.2,8.2,0,0,1-2.174-1.055A5.2,5.2,0,0,1-12.631-.283a10.229,10.229,0,0,1-2.747.354,11.591,11.591,0,0,1-2.9-.361,7,7,0,0,1-2.351-1.041A5.587,5.587,0,0,1-23-.34,16.514,16.514,0,0,1-26.479,0h-1.274V-2.464h1.274a19.906,19.906,0,0,0,2.91-.2,7.024,7.024,0,0,0,2.117-.595l.028-7.392H-19.5l.071,7.307a6.527,6.527,0,0,0,1.933.715,11.068,11.068,0,0,0,2.358.248A9.714,9.714,0,0,0-13.02-2.6a4.762,4.762,0,0,0,1.635-.658l.028-7.392h1.926l.071,7.307a6.779,6.779,0,0,0,3.54.85,13.933,13.933,0,0,0,2.22-.2l-.51-9.785,2.393-.354Zm-75.12,19.8,2.11,1.926-2.11,1.926-2.11-1.926Zm4.574.014,2.11,1.926-2.11,1.926-2.11-1.926Zm8.043,8.085a10.867,10.867,0,0,0,.517,2.91,2.393,2.393,0,0,0,1.2,1.381,5.733,5.733,0,0,0,2.4.4h1.274V31H-60.1a6.132,6.132,0,0,1-2.91-.623,4.72,4.72,0,0,1-1.834-1.7,6.112,6.112,0,0,1-2.8,1.466,27.928,27.928,0,0,1-4.517.927,35.405,35.405,0,0,1-4.39.312,9.967,9.967,0,0,1-4.411-.786,4.217,4.217,0,0,1-2.117-2.188,9.522,9.522,0,0,1-.566-3.54q0-1.2.184-3.54h1.813q-.014.439-.071,1.317-.085,1.218-.085,1.77a5.647,5.647,0,0,0,.46,2.436,3.23,3.23,0,0,0,1.791,1.515,10.412,10.412,0,0,0,3.837.552,31.843,31.843,0,0,0,5.5-.46,35.593,35.593,0,0,0,4.269-.97l-.779-7.363,2.209-.326ZM-43.188,21.1a5.631,5.631,0,0,1-.644,2.513,10.648,10.648,0,0,1-1.728,2.471,13.715,13.715,0,0,1-2.4,2.067q1.685.2,3.016.29t2.917.092h1.26V31h-1.26a25.078,25.078,0,0,1-4.9-.467,14.783,14.783,0,0,1-3.767-1.189,14.111,14.111,0,0,1-3.561,1.182A21.758,21.758,0,0,1-58.821,31H-60.1V28.536h1.274q1.685,0,3.49-.127a26.39,26.39,0,0,0,2.995-.354l-5.551-6.669.977-3.172.779-.085q2.167-.241,3.583-.361t2.775-.12a12.047,12.047,0,0,1,4.85.786,2.725,2.725,0,0,1,1.74,2.666Zm-1.827-.113A5.632,5.632,0,0,0-47.2,20.35a26.249,26.249,0,0,0-3.42-.2q-1.416,0-2.86.1t-2.535.255l5.692,7.123A14.792,14.792,0,0,0-46.863,24.5a9.127,9.127,0,0,0,1.848-3.511Zm4.248,7.547a20.036,20.036,0,0,0,2.782-.156,9.511,9.511,0,0,0,2-.51l.028-7.9h1.926l.071,7.816a10.682,10.682,0,0,0,1.728.545,9.776,9.776,0,0,0,2.138.2h1.274V31h-1.27a9.433,9.433,0,0,1-2.648-.411,6.675,6.675,0,0,1-2.237-1.062,7.752,7.752,0,0,1-2.443,1.1A13.161,13.161,0,0,1-40.767,31h-1.274V28.536Zm5.324-14.642,2.308,2.322-2.308,2.308-2.308-2.308Zm5.353,14.642h1.274a20.036,20.036,0,0,0,2.782-.156,9.511,9.511,0,0,0,2-.51l.028-7.9h1.926l.08,7.818a9.227,9.227,0,0,0,2.464.666,43.31,43.31,0,0,1,4.269-5.763,14.249,14.249,0,0,1,3.9-3.151,8.939,8.939,0,0,1,4.149-1,5.9,5.9,0,0,1,3.972,1.3q1.522,1.3,1.522,4.814A7.179,7.179,0,0,1-2.5,28.239a4.964,4.964,0,0,1-2.917,2.053A20.874,20.874,0,0,1-11.625,31h-6.514a9.433,9.433,0,0,1-2.648-.411,6.675,6.675,0,0,1-2.237-1.062,7.752,7.752,0,0,1-2.443,1.1A13.161,13.161,0,0,1-28.816,31H-30.09Zm19.229,0,1.657.014a14.709,14.709,0,0,0,2.889-.234,3.279,3.279,0,0,0,1.84-1.024,3.477,3.477,0,0,0,.708-2.379V22.348a5.428,5.428,0,0,0-1.961-.977,8.108,8.108,0,0,0-2.2-.326A7.353,7.353,0,0,0-12.6,22.872a23.217,23.217,0,0,0-4.68,5.664Z" transform="translate(166 -5818)" fill="#252627"/>
  </g>
</svg>
