<svg xmlns="http://www.w3.org/2000/svg" width="303.456" height="165" viewBox="0 0 303.456 165">
  <g id="Group_4381" data-name="Group 4381" transform="translate(-277 -57)">
    <path id="Union_5" data-name="Union 5" d="M27.619,118.445A45.183,45.183,0,0,1,0,76.775V72.918h.2a4.878,4.878,0,0,1-.2-1.37V70.527a8.126,8.126,0,1,1,16.252,0V76.9a28.971,28.971,0,1,0,57.943,0v-29c0-.541-.015-1.088-.045-1.627h.09a4.944,4.944,0,0,1-.045-.668V44.584a8.126,8.126,0,1,1,16.252,0v32.19a45.249,45.249,0,0,1-62.827,41.67Zm8.418-41.032V45.222a45.224,45.224,0,1,1,90.447,0V49.08h-.2a4.883,4.883,0,0,1,.2,1.37V51.47a8.126,8.126,0,1,1-16.252,0V45.1a28.971,28.971,0,0,0-57.943,0v29c0,.54.015,1.087.046,1.626h-.092a4.967,4.967,0,0,1,.046.669v1.021a8.126,8.126,0,0,1-16.252,0Z" transform="translate(453.972 86)" fill="#129996"/>
    <text id="سها_صنعت_" data-name="سها
صنعت  " transform="translate(477 136)" fill="#129996" font-size="77" font-family="FarCasablanca, 'Far\.Casablanca'" letter-spacing="-0.011em"><tspan x="-124.559" y="0">سها</tspan><tspan y="0"></tspan><tspan x="-199.301" y="50">صنعت</tspan><tspan y="50" xml:space="preserve">  </tspan></text>
  </g>
</svg>
