<svg xmlns="http://www.w3.org/2000/svg" width="200" height="216.343" viewBox="0 0 200 216.343">
  <g id="mahsa1" transform="translate(0 0.017)">
    <path id="SvgjsPath11380" d="M0,0,200,0l0,216.339-200,0Z" transform="translate(0 -0.017)" fill="#c1c3d0"/>
    <g id="svga-group-humanwrap-move" transform="translate(17.893 41.091)">
      <g id="svga-group-humanwrap" transform="translate(0 0)">
        <g id="svga-group-hair-back-move" transform="translate(24.755 0)">
          <g id="svga-group-hair-back" transform="translate(0 0)">
            <path id="SvgjsPath8424" d="M60.28,3.49S54.61-1.831,40.722,1.2,14.736,7.829,4.066,27.869s3.321,82.091.858,80.477c0,0-1.733,6.649,11.126,7.5,0,0-2.006,4.369,5.2,4.084,0,0,.73,4.844,11.856,3.324,0,0,1.459,5.414,13.041,1.8,0,0,4.469,4.844,10.579,2.85,6.2-2.089,14.318,1.8,18.24-3.324,0,0,8.117,2.565,10.579-1.52,0,0,7.661,4.084,11.856-.475,0,0,5.2,2.09,11.126-3.894,0,0-4.352-17.292-1.289-27.5,5.823-19.406,9.518-46.139,6.737-52.311-4.2-9.308-8.664-20.326-19.243-26.785C84.152,5.743,74.325-5.818,60.28,3.49Z" transform="translate(0 0)" fill="#916c55"/>
            <path id="SvgjsPath8425" d="M58.413,6.512C38.294-8.469,12.149,3.878,3.225,28.483a58.127,58.127,0,0,0,.314,39.041,58.8,58.8,0,0,0,9.707,17.251c2.505,3.087,5.48,5.811,7.359,9.533,2.818,5.629,1.722,15.707-5.714,14.164-.47-.091-.7.726-.235.817,3.6,1.271,7.124-1.453,8.219-5.538,1.487-5.448-1.566-10.9-4.619-14.8C13.637,83.141,9.019,77.966,5.887,70.793A59.715,59.715,0,0,1,.877,47.1c0-15.072,6.5-30.143,17.221-38.769a32.966,32.966,0,0,1,39.845-1.27c.548.545.861-.272.47-.545Zm48.3,27.33c-3.758-11.258-10.568-21.428-19.649-27.42C78.531.883,67.1-.842,59.039,6.6c-.235.182.078.636.313.454,11.507-9.715,26.616-2.9,35.775,7.627,9.394,10.8,13.935,25.876,14.17,41.13a86.017,86.017,0,0,1-2.661,23.243c-2.192,8.262-6.106,13.528-11.429,19.248-3.053,3.269-6.341,7.808-5.636,13.074.548,4.267,3.758,7.264,7.359,6.446.391-.091.313-.908-.078-.817-3.679.454-6.419-3.087-6.341-7.173a14.92,14.92,0,0,1,3.444-8.444c2.192-2.815,4.932-4.994,7.123-7.808,3.757-4.812,5.871-10.8,7.2-17.069,2.974-13.982,2.9-29.145-1.566-42.673Zm-76.01,73.9c.157-.363-.313-.726-.548-.363-4.462,7.354-12.133,9.079-18.24,3.359-.235-.182-.47.091-.313.363C17.4,117.371,26.867,116.1,30.7,107.747Zm3.758,1.725c-1.879,4.9-5.088,8.625-9.942,9.079-.391,0-.391.726,0,.726a11.69,11.69,0,0,0,10.49-9.533C35.087,109.381,34.617,109.109,34.461,109.472Zm6.889,2.724c-.156,4.812-2.5,9.17-6.889,9.9-.235,0-.157.454.078.454,4.227-.363,8.3-5.266,7.28-10.35C41.741,111.833,41.349,111.923,41.349,112.2Zm49.083,8.445c-7.124-1.725-10.412-9.261-6.811-16.888a.271.271,0,0,0-.391-.363c-4.775,6.719-.7,17.886,7.046,17.8C90.667,121.276,90.745,120.64,90.432,120.64Zm-10.881,0c-3.992-2.905-4.854-8.172-3.6-13.074.078-.363-.313-.545-.47-.182-2.427,4.812-.156,11.168,3.836,13.71A.262.262,0,0,0,79.551,120.64Zm-8.376,2c-4.071-2.724-5.558-7.99-4.227-13.074.078-.363-.391-.545-.548-.272-2.427,5.084.078,11.8,4.541,13.982.313.182.548-.454.235-.636Zm30.137-83.8C107.105,56,105.07,74.517,94.659,88.59c-.235.363.157.817.391.454,12.055-13.528,12.6-35.773,6.183-52.66C95.675,21.675,80.1-2.385,63.893,7.42c-.157.091-.078.363.078.272C81.115-.3,95.91,22.856,101.312,38.835ZM44.87,6.058C20.525,1.064-.767,29.573,5.73,56.811c.078.272.391.182.391-.091-2.192-13.438.469-27.783,8.767-37.861C22.8,9.326,33.676,5.695,44.792,6.421c.157,0,.235-.363.078-.363Z" transform="translate(2.125 1.412)" fill="#ab8771"/>
          </g>
        </g>
        <g id="svga-group-humanbody-back" transform="translate(17.482 62.321)">
          <path id="SvgjsPath4707" d="M42.818,3.991S47.379,39.8,52.319,57c0,0-6.08,8.36-13.775,11.3C11.28,78.943,5.3,78.943.926,82.743c-2.28,1.995.19,10.545,1.71,16.34a79.148,79.148,0,0,1,1.615,12.54l125.587,0s1.519-31.349-.571-37.809-6.745-2.755-20.8-4.275S81.2,59.755,79.013,57L79.3,0,42.818,3.991Z" transform="translate(0.001)" fill="#f5c6b2"/>
        </g>
        <g id="svga-group-chinshadow-single" transform="translate(60.016 67.567)">
          <path id="SvgjsPath11210" d="M8.171,52.06a87.434,87.434,0,0,0,9.785.95s11.02-.57,14.725-2.185a19.456,19.456,0,0,0,3.515-2.66L36.479,0,0,3.99S3.8,33.82,8.171,52.06Z" fill="#d68f71"/>
        </g>
        <g id="svga-group-humanbody-front" transform="translate(16.777 61.561)">
          <path id="SvgjsPath4708" d="M0,5.13S13.87,4.94,19.38,7.6c5.51,2.755,12.065,2.28,15.295-.95S55.195,0,55.195,0,36.48,1.805,31.445,4.37,10.26,1.71,0,5.13Z" transform="translate(38.11 72.959)" fill="#d68f71"/>
          <path id="SvgjsPath4709" d="M0,39.9c6.365-1.235,13.964-6.08,13.964-6.08l5.89,5.225C15.77,31.54,7.79,0,7.79,0L7.125.665a280.893,280.893,0,0,0,5.8,28.215S7.22,36.67,0,39.9Z" transform="translate(40.104 28.785)" fill="#d68f71"/>
          <path id="SvgjsPath4710" d="M131.778,83.22c-.1-1.995-.19-3.895-.38-5.89a18.855,18.855,0,0,0-.57-3.04c-.19-.475-.38-.95-.57-1.52a6.2,6.2,0,0,0-.95-1.425,3.106,3.106,0,0,0-1.425-1.045,10.93,10.93,0,0,0-1.615-.57,16.857,16.857,0,0,0-3.04-.19c-1.995,0-3.895.095-5.795.095s-3.8-.1-5.7-.19-3.8-.38-5.7-.665c-.95-.19-1.9-.38-2.755-.57l-1.425-.38c-.475-.1-.95-.285-1.33-.38a63.407,63.407,0,0,1-10.64-4.18L88.649,62.6l-1.235-.665a8.672,8.672,0,0,1-1.235-.76c-.38-.285-.855-.475-1.235-.76a14.062,14.062,0,0,0-1.235-.76l-1.14-.855L82,58.33l-.285-.19-.285-.19c-.19-.19-.38-.285-.475-.475l-.19-.285V14.821l-.1-14.25V0L80.1.1c-6.08.76-12.255,1.425-18.335,2.185L43.619,4.466v.475l.1.38.1.855L44,7.886c.1,1.14.285,2.185.38,3.325l.855,6.65c.57,4.465,1.235,8.93,2,13.3.76,4.465,1.425,8.835,2.375,13.3.855,4.275,1.71,8.55,2.85,12.825a42.582,42.582,0,0,1-3.42,3.8,50.309,50.309,0,0,1-4.085,3.61,28.212,28.212,0,0,1-4.56,2.85l-1.235.57c-.38.19-.855.285-1.235.475l-2.565.95c-6.84,2.565-13.775,5.035-20.709,7.314l-5.225,1.71A39.933,39.933,0,0,0,4.2,80.653c-.38.19-.855.475-1.235.665a9.637,9.637,0,0,0-1.235.855l-.57.475a2.286,2.286,0,0,0-.57.76,4.692,4.692,0,0,0-.475,1.52,10.191,10.191,0,0,0,0,2.945c.1.95.285,1.9.38,2.755.38,1.8.76,3.61,1.235,5.415l.76,2.66a21.766,21.766,0,0,1,.665,2.66,53.411,53.411,0,0,1,.855,5.415c.19,1.8.38,3.61.475,5.415v.76l126.727,0v-.76c.19-3.895.38-7.79.475-11.685s.19-7.79.19-11.685c0-1.71-.1-3.61-.1-5.6ZM67.75,112H36.306l-15.675-.1-15.2-.1c-.1-1.71-.19-3.325-.38-5.035a54.826,54.826,0,0,0-.76-5.51c-.19-.95-.38-1.8-.665-2.755l-.665-2.66a53.145,53.145,0,0,1-1.14-5.32,25.607,25.607,0,0,1-.38-2.66,11.569,11.569,0,0,1,0-2.565,3.4,3.4,0,0,1,.38-1.045,1.311,1.311,0,0,1,.285-.38l.475-.38a9.947,9.947,0,0,1,1.045-.76c.38-.19.76-.475,1.14-.665a45.722,45.722,0,0,1,5.035-1.9l5.225-1.71c6.935-2.28,13.87-4.75,20.709-7.409l2.565-.95c.475-.19.855-.285,1.33-.475l1.33-.57a31.015,31.015,0,0,0,4.75-3.04,38.822,38.822,0,0,0,4.18-3.7,30.724,30.724,0,0,0,3.61-4.275l.19-.285-.095-.285c-1.235-4.275-2.185-8.645-3.135-13.015s-1.805-8.835-2.565-13.2-1.52-8.835-2.28-13.3l-2.09-13.2,18.335-1.71c5.89-.57,11.685-1.14,17.575-1.71l-.19,13.68-.19,14.25-.285,28.5v.38l.19.19.57.665.57.57.285.285.285.19.57.475c.38.285.855.57,1.235.855s.855.57,1.235.855.855.475,1.235.76.855.475,1.235.76l1.33.76,1.33.665c.475.19.855.475,1.33.665l1.33.665c.95.38,1.8.76,2.755,1.14s1.8.76,2.755,1.045l1.425.475a7.913,7.913,0,0,0,1.425.38c.475.1.95.285,1.425.38l1.425.38c.95.285,1.9.38,2.85.57a58.643,58.643,0,0,0,5.89.76c1.995.19,3.895.19,5.89.19s3.895-.095,5.795-.095,3.8.1,4.75,1.235a6.782,6.782,0,0,1,1.14,2.185,26.579,26.579,0,0,1,.57,2.66c.285,1.9.38,3.8.475,5.7s.1,3.895.19,5.795c.1,7.5-.095,15.01-.38,22.514-10.26.095-20.425.095-30.684.189H67.75Z" transform="translate(0.001)" fill="#c77755"/>
          <path id="SvgjsPath4711" d="M3.895,20.14.38,0,0,20.14Z" transform="translate(108.884 92.244)" fill="#d68f71"/>
          <path id="SvgjsPath4712" d="M0,0S2.09,10.925,2.755,14.915H6.08Z" transform="translate(14.551 97.469)" fill="#d68f71"/>
        </g>
        <g id="svga-group-clothes-single" transform="translate(0.002 122.038)">
          <path id="SvgjsPath11249" d="M0,3.939S18.762,2.181,22.115,5.151c3.353,3.112,13.495.888,13.495.888S55.371,4.7,57.337,2.722,73.622,0,73.622,0l1.995,48.207H1.388Z" transform="translate(47.859 4.168)" fill="#5b6e80"/>
          <path id="SvgjsPath11250" d="M51,9.917c.2-.453,2.83-.9,4.913-1.956a16.7,16.7,0,0,0,3.744-2.708L53,5.537,42.561,6.05,29.9,10.011l3.949,1.235S13.766,17.42,11.058,17.61c-2.821.19-8.124,0-7.9,2.659C3.16,20.269,0,21.694,0,23.5s.1,20.01,2.585,29.7l59.924-.823S54.5,34.232,53.257,29.958C51.79,25.684,50.548,11.056,51,9.917Zm111.589-.093a5.541,5.541,0,0,0-3.385-.285s-.113-2.755-1.354-2.85-8.688.76-13.427,1.14a145.8,145.8,0,0,1-14.781-.285L131,6.5C127.724,6.4,112.718.8,110.8.324a30.479,30.479,0,0,0-6.093-.285s4.062,2.47,4.739,3.609,7.786,19.092,7.334,23.271-5.641,25.55-5.641,25.55h51.338c.113,0,1.466-41.983.112-42.647Z" transform="translate(0.572 0)" fill="#133f67"/>
          <path id="SvgjsPath11251" d="M164.2,12.351a6.081,6.081,0,0,0-.113-1.425,1.785,1.785,0,0,0-.113-.76.5.5,0,0,0-.113-.38c0-.095-.113-.19-.113-.285s-.225-.285-.338-.285l-.113-.095a5.265,5.265,0,0,0-2.029-.475h-.9a3.476,3.476,0,0,0-.225-1.045,3.635,3.635,0,0,0-.451-.95,2.673,2.673,0,0,0-.564-.57,2.019,2.019,0,0,0-.9-.285,14.534,14.534,0,0,0-2.141.095l-2.029.19-8,.76a71.968,71.968,0,0,1-7.889.285c-1.916-.1-3.945-.1-5.86-.19l1.24-.95-2.029-.19c-.9-.1-2.029-.38-3.156-.57-1.127-.285-2.141-.57-3.268-.855l-6.424-1.995c-2.141-.665-4.283-1.33-6.537-1.995A10.969,10.969,0,0,0,108.642,0h-3.494s-.113,0-.113.095l.113.1.113.095.225.095.338.285.789.57a16.586,16.586,0,0,1,1.465,1.14,14.7,14.7,0,0,1,1.352,1.235c.225.475.451,1.045.676,1.52.789,2.185,1.578,4.369,2.367,6.649.789,2.185,1.465,4.464,2.141,6.649.225.95-4.74-15.756-4.515-14.806-.676.57-1.352,1.235-2.029,1.8-2.391,2.015-39.686,2.393-50.7,1.936a22.461,22.461,0,0,1-2.928.076l-3.027.31c-.676-3.609.99,10.108.652,6.4a31.1,31.1,0,0,1-.225-3.229v-.76a.631.631,0,0,1,.225-.57c.338-.38.789-.855,1.127-1.235.789-.855,2.687.393,3.589-.462l1.352-1.235.676-.57.338-.285.225-.19.113-.095s.113-.095.113-.19H52.726c-3.606.95-8.209-.108-11.928.842-3.606.95-7.213,1.9-10.819,2.944l-2.367.665,2.367.76,1.465.475c-4.4,1.33-8.9,2.564-13.3,3.894-1.352.38-2.592.76-3.944,1.045-.676.19-1.352.38-1.916.475-.338.1-.563.095-.9.19l-1.014.095a35.1,35.1,0,0,0-4.283.475,6.737,6.737,0,0,0-2.141.855l-.451.38L3.156,19a1.037,1.037,0,0,0-.113.57v.19a11.231,11.231,0,0,0-1.8,1.235A3.452,3.452,0,0,0,0,23.176a3.047,3.047,0,0,0,.225,1.14c.113.38.225.665.338,1.045.225.665.451,1.33.676,2.09L.716,35.917C1.731,38.672-.2,40.6.7,43.358s1.691,5.509,2.367,8.359l.113.38,160.46.622v-.475c.113-3.8,0-7.6.113-11.4l.225-11.4.225-11.4v-5.7ZM158.118,7.316ZM36.4,51.481l-10.03.095a79.275,79.275,0,0,0-1.24-8.833c-.564-3.324-1.24-6.649-1.916-9.878l-.564-2.47-.338-1.235a2.564,2.564,0,0,0-.225-.76,4.024,4.024,0,0,0-.451-.665,8.427,8.427,0,0,0-2.367-1.9,16.762,16.762,0,0,0-2.592-1.33,52.5,52.5,0,0,0-11.27-3.42c3.606,1.52,7.1,2.945,10.481,4.749a14.019,14.019,0,0,1,4.17,2.945.683.683,0,0,1,.225.38c0,.095.113.19.113.475l.225,1.235.564,2.47c.789,3.229,1.578,6.554,2.48,9.783.789,2.85,1.691,5.7,2.592,8.549H23.33L4.195,51.337C3.406,48.677,2.5,46.018,1.6,43.358l.015-7.441c-.9-2.755,1.538-5.808.749-8.562a14.369,14.369,0,0,1-.564-2.09,3.476,3.476,0,0,1-.225-1.045,3.025,3.025,0,0,1-.113-.95c0-.57.451-1.045,1.014-1.52A7.542,7.542,0,0,1,4.4,20.611l.338-.19v-.38A1.055,1.055,0,0,1,5.3,19a4.363,4.363,0,0,1,1.578-.57,26.856,26.856,0,0,1,4.057-.285h1.127c.338-.095.789-.095,1.127-.19a15.663,15.663,0,0,0,2.029-.475c1.352-.38,2.7-.665,4.057-1.045,5.3-1.425,10.594-3.039,15.778-4.654l.9-.285c.113.095.225.095.451.1l2.367.57c.563.1,1.014.1,1.578.19-.564.38-1.24.76-1.8,1.14-1.24.855-2.479,1.615-3.606,2.47s-2.367,1.71-3.606,2.564L30.655,19l.451.57c1.014,1.235,2.029,2.565,2.93,3.8,1.014,1.235,2.029,2.565,2.93,3.8.451.665.9,1.33,1.24,1.9.338.665.789,1.33,1.127,1.995l2.141,4.179c2.7,5.319,5.522,10.638,8.565,15.767-4.733.38-9.129.475-13.637.475Zm13.524-.095c-.9-2.66-2.029-5.224-3.043-7.884-1.24-2.85-2.479-5.794-3.719-8.644l-2.029-4.274A20.126,20.126,0,0,0,40.009,28.4c-.451-.76-.9-1.425-1.352-2.09-1.8-2.47-3.719-4.749-5.635-7.029.9-.76,1.8-1.425,2.7-2.185l3.381-2.754c2.254-1.8,4.621-3.514,6.875-5.414-1.8,1.045-3.606,2.09-5.41,3.229-.563-.19-1.127-.475-1.691-.665-.451-.19-.9-.285-1.465-.475l-.676-.19s-.113,0-.113-.095a.419.419,0,0,1-.225-.095l-1.352-.38-1.578-.475c2.817-.855,5.522-1.71,8.34-2.564,3.6-1.044,8.088-.178,40.156,4.286C53.4,5.905,53.4,5.9,53.4,5.9c2.029-.095,4.057-.38,6.311-.57l-.225.095-.338.285-.789.57L56.9,7.423c-.9.76-2.912-.488-3.814.272a15.934,15.934,0,0,0-1.352,1.235c-.113.095-.225.285-.338.38a.893.893,0,0,0-.113.475c0,.285-.113.57-.113.855v3.324a106.255,106.255,0,0,0,1.24,13.2,17.783,17.783,0,0,0,.789,3.324c.338,1.045.789,2.09,1.127,3.229.789,2.09,1.578,4.179,2.479,6.269,1.465,3.7,3.043,7.409,4.621,11.018-3.944.38-7.664.38-11.5.38Zm17.581,0H63.9L56.125,33.435c-.451-1.045-.9-2.09-1.24-3.039a26.3,26.3,0,0,1-.789-3.134c-.113-.38-2.23-18.276-2.343-18.656,13.749,7.789,54.854.052,57.333-2.322l1.465-1.425c.225.95,5.755,19.555,5.868,20.41l.113.855v.76l-.338,1.71-.676,3.419-1.578,6.744L110.9,51.768c-8.34-.1-16.792-.1-25.132-.19-6.2-.19-12.284-.19-18.257-.19Zm57.026,0-11.383-.1c1.014-4.179,1.916-8.264,2.817-12.443.451-2.28,1.014-4.559,1.352-6.839L118,28.592a8.93,8.93,0,0,0,.225-1.8v-.95l-.113-.95a62.635,62.635,0,0,0-1.8-6.839c-.789-2.28-1.578-4.464-2.48-6.649s-1.8-4.369-2.818-6.554a5.819,5.819,0,0,0-.9-1.615,18.559,18.559,0,0,0-1.465-1.33c-.564-.38-1.127-.76-1.578-1.045l-.9-.475L105.712.1,105.6,0h1.465c.564,0,1.127.1,1.691.1a12.28,12.28,0,0,1,3.268.57l6.311,2.28c2.141.76,4.283,1.52,6.424,2.185,1.014.38,2.141.665,3.268,1.045.564.19,1.127.285,1.691.475H129.6l-.789.57a8.715,8.715,0,0,0-1.24.76,31.9,31.9,0,0,0-2.93,2.28,41.584,41.584,0,0,0-4.17-1.995c1.352.855,2.818,1.8,4.17,2.755l2.029,1.425a16.045,16.045,0,0,0,2.254,1.235c1.578.76,3.156,1.425,4.733,2.09,1.24.57,2.479,1.045,3.832,1.52-1.578,2.47-3.156,5.034-4.621,7.6l-2.367,4.274a28.683,28.683,0,0,0-2.141,4.464c-.451,1.615-.9,3.134-1.24,4.654s-.676,3.039-1.014,4.654c-.563,2.944-1.127,5.7-1.578,8.453Zm38.43-10.447c-.113,3.609-.338,7.219-.451,10.923-4.621-.1-9.129-.19-13.749-.19a98.762,98.762,0,0,0,.789-10.068c.113-3.7.225-7.409.113-11.113,0-.95-.113-1.9-.113-2.849l-.113-.76v-.475a4.089,4.089,0,0,1,.225-1.14,33.734,33.734,0,0,1,2.479-4.939c2.029-3.229,4.17-6.459,6.536-9.593a53.313,53.313,0,0,0-8.114,8.833,21.931,21.931,0,0,0-2.93,5.129,3.4,3.4,0,0,0-.338,1.52v.855l.113.665a21.756,21.756,0,0,1,.113,2.755c.113,3.7.226,7.409.451,11.113.113,3.324.338,6.649.789,10.068-3.719-.1-7.325-.1-11.045-.1l-12.51-.1c.9-2.66,1.69-5.414,2.592-8.074.9-3.039,1.8-6.079,2.817-9.023.225-.665.676-1.33,1.014-2.09l1.127-2.09,2.479-4.179,4.959-8.453.451-.855-1.014-.38c-3.268-1.14-6.537-2.28-9.692-3.515a25.692,25.692,0,0,1-2.367-1.045c-.676-.38-1.465-.855-2.141-1.235a.1.1,0,0,1-.113-.095,7.364,7.364,0,0,0,1.578-.57,10.46,10.46,0,0,0,1.8-1.045,9.787,9.787,0,0,1,1.127-.855l.676.1c2.7.19,5.41.38,8,.475a57.884,57.884,0,0,0,8.114-.19l8-.76,2.029-.19a12.991,12.991,0,0,1,1.8-.095l.113.095a3,3,0,0,1,.338.57c.113.475.225,1.045.338,1.52l.113.855,1.014-.19a4.719,4.719,0,0,1,2.592.1v.19c0,.19.113.475.113.665a6.082,6.082,0,0,1,.113,1.425l.338,5.7c.113,3.8.226,7.6.113,11.4-.451,3.7-.563,7.5-.676,11.3Z" transform="translate(0.002 0.133)" fill="#002648"/>
        </g>
        <g id="svga-group-head" transform="translate(33.924 4.331)">
          <g id="svga-group-ears-left-move" transform="translate(0.001 49.366)">
            <g id="svga-group-ears-left">
              <path id="SvgjsPath6790" d="M14.994,13.456S12.03,6.464,9.589,4.232,2.378-.537.583.1,1.647,8.469,2.7,10.169,3.765,21.085,3.87,23.84,6.625,29.777,8.639,32.1s4.028-1.064,5.405-4.132S14.994,13.456,14.994,13.456Z" transform="translate(0.258 0.287)" fill="#f5c6b2"/>
              <path id="SvgjsPath6791" d="M12,15.674c-.314-2.707-4.855-10.649-6.517-12.16S.078-.7,0,.17,2.149,5.575,2.225,8.283s.162,10.412,1.036,12.084,5.405,1.435,6.2-.161S12,15.674,12,15.674Z" transform="translate(2.14 4.035)" fill="#e6aa90"/>
              <path id="SvgjsPath6792" d="M.033,1.165A7.3,7.3,0,0,0,.271,3.673,32.579,32.579,0,0,0,1.81,8.328a19.646,19.646,0,0,0,1.055,2.213,7.98,7.98,0,0,1,.561,2.308c.209,1.605.247,3.23.3,4.854.038,1.624.029,3.249.048,4.873a14.891,14.891,0,0,0,.133,2.489,8.6,8.6,0,0,0,.884,2.375A24.761,24.761,0,0,0,7.6,31.508c.257.314.522.637.789.941a5.036,5.036,0,0,0,.446.475,2.357,2.357,0,0,0,.57.427,1.918,1.918,0,0,0,1.5.133,3.439,3.439,0,0,0,1.149-.769,9.577,9.577,0,0,0,1.491-2.052,21.891,21.891,0,0,0,1.092-2.223,17.454,17.454,0,0,0,.8-4.911,86.039,86.039,0,0,0-.143-9.775,48.394,48.394,0,0,0-1.976-4.474,23.893,23.893,0,0,0-2.565-4.2,11.069,11.069,0,0,0-1.824-1.71c-.655-.5-1.339-.96-2.042-1.4A14.5,14.5,0,0,0,2.3.063,3.3,3.3,0,0,0,.973.073,1.024,1.024,0,0,0,.3.491,1.46,1.46,0,0,0,.033,1.165Zm.532.1A1.129,1.129,0,0,1,.745.814.462.462,0,0,1,1.1.643,2.808,2.808,0,0,1,2.18.69,15.243,15.243,0,0,1,6.531,2.552a20.191,20.191,0,0,1,2,1.311A10.019,10.019,0,0,1,10.293,5.45a26.5,26.5,0,0,1,2.67,4.009c.789,1.406,1.549,2.859,2.252,4.3-.028,3.239-.1,6.5-.38,9.718a17.578,17.578,0,0,1-.874,4.655,14.705,14.705,0,0,1-2.46,4.009,2.676,2.676,0,0,1-.855.579,1.078,1.078,0,0,1-.855-.086A9.374,9.374,0,0,1,8.222,31,24.564,24.564,0,0,1,5.429,27.1a8.571,8.571,0,0,1-.855-2.166,14.486,14.486,0,0,1-.181-2.365c-.057-1.624-.133-3.249-.238-4.873s-.238-3.249-.456-4.864a7.968,7.968,0,0,0-.627-2.394A15.9,15.9,0,0,1,2.057,8.243,25.775,25.775,0,0,1,.689,3.6,7.282,7.282,0,0,1,.565,1.26Z" fill="#e6aa90"/>
              <path id="SvgjsPath6793" d="M2.318,3.724A27.36,27.36,0,0,1,3.753,7.286c.38,1.225.713,2.46,1.007,3.7.276,1.244.532,2.5.684,3.771l-.076.019c-.4-1.216-.76-2.432-1.14-3.648S3.487,8.7,3.088,7.5,2.347,5.082,1.91,3.895A11.571,11.571,0,0,0,.494,1.045c.352,1.5.751,2.992,1.074,4.5.181.855.342,1.71.466,2.574.067.437.124.874.162,1.311a12.612,12.612,0,0,1,.038,1.32,46.934,46.934,0,0,0,.5,5.12c.133.855.266,1.7.447,2.536.086.418.19.836.3,1.235.009.019.009.038.019.057.038-.807.085-1.624.1-2.432.038-1.216.095-2.422.057-3.638l.076-.009c.162,1.206.19,2.432.238,3.648.029,1.216.038,2.432.048,3.648v.76l-.494-.561a3.669,3.669,0,0,1-.646-1.273c-.143-.427-.266-.845-.371-1.273-.219-.855-.4-1.71-.551-2.574a33.038,33.038,0,0,1-.551-5.234,29.292,29.292,0,0,0-.447-5.12C.722,3.933.494,2.2.114.513L0,0,.332.4A17.193,17.193,0,0,1,2.318,3.724Z" transform="translate(3.709 5.678)" fill="#c77755"/>
            </g>
          </g>
          <g id="svga-group-ears-right-move" transform="translate(79.412 49.358)">
            <g id="svga-group-ears-right">
              <path id="SvgjsPath6794" d="M.063,13.456S3.027,6.464,5.468,4.232,12.678-.537,14.474.1s-1.064,8.369-2.118,10.07-1.064,10.915-1.168,13.67S8.433,29.777,6.419,32.1,2.391,31.04,1.013,27.972.063,13.456.063,13.456Z" transform="translate(0.206 0.297)" fill="#f5c6b2"/>
              <path id="SvgjsPath6795" d="M0,15.674C.314,12.966,4.854,5.024,6.517,3.514S11.922-.7,12,.17,9.851,5.576,9.775,8.283,9.614,18.695,8.74,20.367s-5.405,1.434-6.2-.162S0,15.674,0,15.674Z" transform="translate(1.38 4.045)" fill="#e6aa90"/>
              <path id="SvgjsPath6796" d="M15.231.491a1.024,1.024,0,0,0-.674-.418,3.3,3.3,0,0,0-1.33-.01A14.5,14.5,0,0,0,8.638,1.973,20.965,20.965,0,0,0,6.6,3.369a10.678,10.678,0,0,0-1.824,1.71,23.893,23.893,0,0,0-2.565,4.2C1.475,10.741.82,12.223.231,13.753a81.855,81.855,0,0,0-.142,9.775,17.746,17.746,0,0,0,.8,4.911,22.919,22.919,0,0,0,1.093,2.223A9.348,9.348,0,0,0,3.47,32.714a3.44,3.44,0,0,0,1.149.77,1.922,1.922,0,0,0,1.5-.133,2.63,2.63,0,0,0,.57-.427,5.041,5.041,0,0,0,.446-.475c.266-.3.522-.627.788-.94a24.758,24.758,0,0,0,2.812-4.066,9.256,9.256,0,0,0,.883-2.375,16.037,16.037,0,0,0,.133-2.489c.019-1.624.009-3.249.047-4.873a48.607,48.607,0,0,1,.3-4.854,7.683,7.683,0,0,1,.56-2.308A20.463,20.463,0,0,0,13.72,8.328a33.811,33.811,0,0,0,1.539-4.655A7.543,7.543,0,0,0,15.5,1.166a1.818,1.818,0,0,0-.266-.674Zm-.4,3.106a26,26,0,0,1-1.368,4.645,14.861,14.861,0,0,1-1.016,2.194,7.967,7.967,0,0,0-.627,2.394c-.209,1.615-.351,3.239-.456,4.864s-.19,3.249-.237,4.873a15.624,15.624,0,0,1-.18,2.365,8.434,8.434,0,0,1-.855,2.166A24.563,24.563,0,0,1,7.3,31a9.373,9.373,0,0,1-1.567,1.643,1.078,1.078,0,0,1-.855.085,2.675,2.675,0,0,1-.855-.58,14.707,14.707,0,0,1-2.461-4.009,17.506,17.506,0,0,1-.874-4.655C.411,20.26.335,17,.307,13.762c.7-1.444,1.463-2.9,2.251-4.3A25.8,25.8,0,0,1,5.227,5.45,10.407,10.407,0,0,1,6.985,3.863a21.354,21.354,0,0,1,2-1.311A15.242,15.242,0,0,1,13.34.691,3.015,3.015,0,0,1,14.423.643a.462.462,0,0,1,.351.171,1.129,1.129,0,0,1,.18.447A7.256,7.256,0,0,1,14.832,3.6Z" fill="#e6aa90"/>
              <path id="SvgjsPath6797" d="M3.125,3.724A27.361,27.361,0,0,0,1.691,7.286c-.38,1.225-.712,2.46-1.007,3.7C.409,12.236.152,13.49,0,14.763l.076.019c.4-1.216.76-2.432,1.14-3.648S1.957,8.7,2.356,7.5,3.1,5.082,3.534,3.9a11.57,11.57,0,0,1,1.415-2.85c-.351,1.5-.75,2.992-1.073,4.5-.18.855-.342,1.71-.465,2.574-.066.437-.123.874-.161,1.311a12.613,12.613,0,0,0-.038,1.32,46.934,46.934,0,0,1-.5,5.12c-.133.855-.266,1.7-.446,2.536-.085.418-.19.836-.3,1.235-.009.019-.009.038-.019.057-.038-.807-.086-1.624-.1-2.432-.038-1.216-.1-2.422-.057-3.638l-.076-.01c-.161,1.206-.19,2.432-.237,3.648-.028,1.216-.038,2.432-.047,3.648v.76l.494-.56a3.669,3.669,0,0,0,.646-1.273c.142-.427.266-.845.37-1.273.218-.855.4-1.71.551-2.574a33.039,33.039,0,0,0,.551-5.234,29.291,29.291,0,0,1,.446-5.12c.247-1.71.475-3.439.855-5.13L5.443,0,5.111.4A17.191,17.191,0,0,0,3.125,3.724Z" transform="translate(6.367 5.687)" fill="#c77755"/>
            </g>
          </g>
          <g id="svga-group-faceshape-wrap" transform="translate(6.198 3.631)">
            <g id="svga-group-faceshape-single" transform="translate(0 0)">
              <path id="SvgjsPath11200" d="M75.641,16.718C69.4,9.689,65.114,4.18,48.812.286a75.825,75.825,0,0,0-13.135,0c-16.3,3.894-20.587,9.4-26.828,16.431C2.236,24.125,0,44.261,0,44.261,0,64.586,2.516,77.693,4.659,83.487c2.143,5.889,19.656,23.935,23.2,25.645s14.439,2.185,14.439,2.185,10.806-.57,14.439-2.184c3.54-1.71,21.052-19.755,23.195-25.644s4.751-18.9,4.657-39.227c-.093,0-2.329-20.136-8.943-27.544Z" fill="#f5c6b2"/>
              <path id="SvgjsPath11201" d="M48.812.286a75.825,75.825,0,0,0-13.135,0c-16.3,3.894-20.587,9.4-26.828,16.431C2.236,24.125,0,44.261,0,44.261,0,64.586,2.516,77.693,4.659,83.487c2.143,5.889,19.656,23.935,23.2,25.645s14.439,2.185,14.439,2.185,10.806-.57,14.439-2.184c3.54-1.71,21.052-19.755,23.195-25.644s4.751-18.9,4.657-39.227c0,0-2.236-20.136-8.85-27.544C69.4,9.689,65.114,4.18,48.812.286Zm32.6,29.634a64.6,64.6,0,0,1,1.491,7.123c.373,2.374.745,4.749.932,7.123-.093,3.7-.279,7.408-.652,11.113l-.279,2.754-.279,2.754-.279,2.754L81.976,66.3c-.559,3.7-1.118,7.313-1.956,10.828-.466,1.8-.931,3.514-1.49,5.224a28.048,28.048,0,0,1-2.515,4.369c-1.118,1.425-2.236,2.849-3.447,4.274s-2.422,2.754-3.633,4.179c-2.422,2.754-5.03,5.319-7.638,7.883a47.658,47.658,0,0,1-4.006,3.609,10.074,10.074,0,0,1-1.956,1.235,18.1,18.1,0,0,1-2.422.665c-1.677.38-3.54.57-5.31.855-1.77.19-3.54.38-5.31.475-1.77-.1-3.54-.19-5.31-.38s-3.633-.38-5.31-.665a11.792,11.792,0,0,1-4.471-1.8,47.474,47.474,0,0,1-4.1-3.514c-2.7-2.47-5.31-5.034-7.825-7.788a102.843,102.843,0,0,1-7.266-8.358c-.559-.76-1.118-1.425-1.584-2.185a7.118,7.118,0,0,1-.652-1.14l-.279-.57a4.68,4.68,0,0,1-.279-.665A49.955,49.955,0,0,1,3.634,77.5q-.7-2.707-1.118-5.414c-.186-.95-.279-1.8-.466-2.754l-.373-2.754A161.392,161.392,0,0,1,.653,44.356,100.8,100.8,0,0,1,3.447,31.343c.652-2.09,1.3-4.274,2.142-6.269a27.975,27.975,0,0,1,1.3-2.944,26.287,26.287,0,0,1,1.584-2.754,33.987,33.987,0,0,1,4.285-4.939A51.385,51.385,0,0,1,17.42,9.973a39.76,39.76,0,0,1,5.31-3.514A41.191,41.191,0,0,1,28.6,3.8l1.49-.57A61.169,61.169,0,0,1,37.82,1.235c1.118-.095,2.143-.095,3.26-.19C43.223.951,45.412.913,47.555.913c.093,0,3.121.608,3.121.608l1.677.38,1.584.38a37.507,37.507,0,0,1,6.241,2.185c.279.095.466.19.745.285l.745.38c.466.285,1.025.475,1.49.76l1.4.855,1.4.855a27.464,27.464,0,0,1,5.03,4.274c1.584,1.615,3.074,3.229,4.565,4.939a21.96,21.96,0,0,1,3.633,6.269,45.047,45.047,0,0,1,2.236,6.839Z" fill="#c77755"/>
            </g>
          </g>
          <g id="svga-group-mouth-single-move" transform="translate(33.239 92.31) rotate(-8)">
            <g id="svga-group-mouth-single" transform="translate(0.001 0)">
              <path id="SvgjsPath10735" d="M0,.549s4.274,4.2,7.15,5.376a21.275,21.275,0,0,0,12.192,1.14c4.962-1.02,9.822-5.076,9.822-5.076S23.211.782,20.669.46,14.239,1.7,14.239,1.7A15.893,15.893,0,0,0,10,.031C8.414-.153,0,.549,0,.549Z" transform="translate(0.392 0) rotate(3)" fill="#ba5d68"/>
              <path id="SvgjsPath10736" d="M0,0C2.4.388,4.778.864,7.148,1.388c1.19.258,2.361.54,3.551.837a11.713,11.713,0,0,0,1.709.379,12.807,12.807,0,0,0,1.756.092,25.4,25.4,0,0,0,3.558-.239c.293-.039.585-.078.887-.126s.613-.094.915-.126c.6-.078,1.217-.133,1.821-.187,1.217-.1,2.435-.162,3.653-.191a20.359,20.359,0,0,0,3.615-.263,15.171,15.171,0,0,1-3.576.7q-1.8.2-3.6.447l-1.783.267c-.293.047-.585.1-.878.158l-.906.165a24.7,24.7,0,0,1-3.69.295,14.979,14.979,0,0,1-1.879-.124,10.728,10.728,0,0,1-1.832-.427L6.989,2.073C4.638,1.414,2.314.747,0,0Z" transform="matrix(0.999, 0.052, -0.052, 0.999, 0.818, 0.532)" fill="#ab4450"/>
            </g>
          </g>
          <g id="svga-group-eyes-left-move" transform="translate(14.317 49.582) rotate(-9)">
            <g id="svga-group-eyes-left" transform="translate(0 0)">
              <g id="svga-group-eyesback-left" transform="translate(0.541 0.451)">
                <path id="SvgjsPath10964" d="M12.183,0A11.928,11.928,0,0,1,24.367,11.733,11.927,11.927,0,0,1,12.184,23.465,11.928,11.928,0,0,1,0,11.732,11.927,11.927,0,0,1,12.183,0Z" fill="#fff"/>
              </g>
              <g id="svga-group-eyesiriswrapper-left" transform="translate(7.671 7.13)">
                <g id="svga-group-eyesiriscontrol-left">
                  <g id="svga-group-eyesiris-left">
                    <path id="SvgjsPath11142" d="M4.783,0A4.815,4.815,0,0,1,9.566,4.783,4.815,4.815,0,0,1,4.783,9.566,4.815,4.815,0,0,1,0,4.783,4.815,4.815,0,0,1,4.783,0Z" transform="translate(0.271 0.271)" fill="#664341"/>
                    <path id="SvgjsPath11143" d="M5.054,10.108a5.054,5.054,0,1,1,5.054-5.054A5.046,5.046,0,0,1,5.054,10.108Zm0-9.566a4.6,4.6,0,1,0,4.6,4.6A4.622,4.622,0,0,0,5.054.542Z" fill="#47211f"/>
                    <path id="SvgjsPath11144" d="M9.544,4.377a12.05,12.05,0,0,0-1.8,0,1.759,1.759,0,0,0-.09-.722,7.17,7.17,0,0,0,1.985-.541c.18-.09.09-.271-.09-.271a16.843,16.843,0,0,0-1.985.632c0-.09-.09-.18-.09-.271.271-.09.541-.271.812-.361a6.854,6.854,0,0,1,.993-.361c.09-.09.09-.271-.09-.18a3.925,3.925,0,0,0-1.9.812c0-.09-.09-.09-.09-.181.18-.18.451-.271.632-.451.271-.271.632-.451.9-.722.09-.09,0-.271-.181-.181a6.321,6.321,0,0,1-.9.722,3.821,3.821,0,0,1-.632.451l-.271-.271A19.323,19.323,0,0,0,7.919.767c.09-.09-.09-.18-.18-.09A12.007,12.007,0,0,0,6.475,2.392c-.09-.09-.18-.09-.271-.18A8.748,8.748,0,0,0,6.475.135a.135.135,0,1,0-.271,0c-.09.541-.18.993-.271,1.534,0,.18-.09.271-.09.451a1.145,1.145,0,0,0-.541-.09A7.038,7.038,0,0,0,5.031.045c0-.09-.09,0-.09,0a13.976,13.976,0,0,0-.09,1.985H4.49c0-.18-.09-.361-.09-.541-.09-.451-.09-.9-.181-1.263,0-.09-.18-.09-.18,0a4.669,4.669,0,0,0,.181,1.9c-.09,0-.18,0-.18.09a11.671,11.671,0,0,0-.632-1.9c0-.09-.18-.09-.18.09a8.138,8.138,0,0,0,.542,1.985.088.088,0,0,0-.09.09A11.5,11.5,0,0,0,2.5.767c-.09-.09-.181,0-.09.09A11.95,11.95,0,0,0,3.5,2.662c-.09.09-.18.09-.18.18-.09-.09-.181-.271-.271-.361A5.666,5.666,0,0,0,2.053,1.4c-.09-.09-.18,0-.18.09a8.468,8.468,0,0,0,.812,1.083,1.969,1.969,0,0,0,.361.451l-.361.361A8.475,8.475,0,0,0,1.06,2.3a.088.088,0,0,0-.09.09A10.389,10.389,0,0,0,2.5,3.655c-.09.18-.181.271-.271.451-.09,0-.18-.09-.271-.09C1.421,3.836.88,3.565.338,3.384c-.18-.09-.18.18-.09.18A10.026,10.026,0,0,0,1.692,4.2c.18.09.271.18.451.18a.332.332,0,0,1-.09.271c-.18,0-.271-.09-.451-.09a4.273,4.273,0,0,0-1.534-.09c-.09,0-.09.18,0,.18a11.766,11.766,0,0,0,1.9.361V5.46a3.205,3.205,0,0,0-.812.361,5.518,5.518,0,0,0-1.083.451c-.09.09-.09.271.09.271a3.346,3.346,0,0,0,1.263-.361c.18-.09.451-.18.632-.271,0,.18.09.271.09.451-.09.09-.18.09-.271.181a11.757,11.757,0,0,0-1.354.9c-.09.09,0,.271.18.18.541-.271.993-.632,1.444-.9.09,0,.09-.09.18-.09.09.09.181.271.271.361-.541.451-.9.993-1.354,1.444-.09.09,0,.18.09.09A18.072,18.072,0,0,0,2.775,7.265l.271.271a1.888,1.888,0,0,0-.361.541,9.153,9.153,0,0,0-.812,1.173c-.09.09.09.18.18.09.271-.361.632-.722.9-1.083.18-.18.271-.361.451-.541.09,0,.09.09.18.09-.09.18-.18.271-.18.361-.18.451-.451.812-.632,1.263,0-.722.18-.632.271-.722.271-.361.451-.9.722-1.354.09-.09.09-.271.18-.361h.09A7.17,7.17,0,0,0,3.5,8.98c0,.09.18.09.18,0,.18-.632.451-1.263.632-1.9a.332.332,0,0,1,.271.09,16.337,16.337,0,0,0-.271,2.076.135.135,0,0,0,.271,0c0-.722.18-1.354.18-2.076h.18a7.315,7.315,0,0,0,0,1.985.135.135,0,0,0,.271,0c-.09-.632,0-1.354-.09-1.985a2.3,2.3,0,0,0,.632-.18c.09.271.271.632.361.9.181.271.271.722.542.9.09,0,.09,0,.09-.09a1.906,1.906,0,0,0-.361-.9c-.181-.271-.271-.632-.451-.9.09,0,.09-.09.18-.09a3.658,3.658,0,0,0,.451.812c.18.271.271.722.542.9.09.09.18,0,.18-.09a3.5,3.5,0,0,0-.542-.993,5.037,5.037,0,0,0-.451-.722c.09-.09.18-.09.271-.18A9.854,9.854,0,0,0,7.739,8.077c.18.18.361-.09.18-.181-.451-.451-.812-.993-1.263-1.444a2.392,2.392,0,0,0,.451-.541c.541.361,1.083.812,1.624,1.173.09.09.271-.09.18-.18A8.476,8.476,0,0,0,7.288,5.821c0-.09.09-.09.09-.18a7.381,7.381,0,0,0,1.715.812c.18.09.18-.18.09-.18a10.962,10.962,0,0,0-1.8-.812,1.7,1.7,0,0,0,.18-.722,12.712,12.712,0,0,0,1.8.09c.451,0,.451-.451.18-.451Z" transform="translate(0.113 0.677)" fill="#47211f"/>
                    <path id="SvgjsPath11145" d="M2.617,0A2.617,2.617,0,1,1,0,2.617,2.619,2.619,0,0,1,2.617,0Z" transform="translate(2.437 2.437)"/>
                    <path id="SvgjsPath11146" d="M.993,0a1,1,0,0,1,.993.993A1.084,1.084,0,0,1,.993,2.076,1,1,0,0,1,0,1.083,1.084,1.084,0,0,1,.993,0ZM4.151,3.7a.582.582,0,0,1,.541.542.52.52,0,0,1-.541.541.52.52,0,0,1-.542-.541A.582.582,0,0,1,4.151,3.7Z" transform="translate(2.617 2.798)" fill="#fff"/>
                  </g>
                </g>
              </g>
              <g id="svga-group-eyesfront-left">
                <path id="SvgjsPath10972" d="M12.725,0A12.5,12.5,0,0,0,0,12.274,12.505,12.505,0,0,0,12.725,24.548,12.5,12.5,0,0,0,25.45,12.274,12.505,12.505,0,0,0,12.725,0ZM9.115,17.328c-3.971-1.354-5.234-5.505-5.956-8.3C2.437,6.137,14.44,6.137,17.6,8.664a12.368,12.368,0,0,1,4.513,7.852S13.086,18.772,9.115,17.328Z" fill="#f5c6b2"/>
                <path id="SvgjsPath10973" d="M20.125,10.92v-.18a2.883,2.883,0,0,0-.271-1.263,2.635,2.635,0,0,1-.181-.812A12.513,12.513,0,0,0,17.237,3.61,9.8,9.8,0,0,0,9.837,0,19.246,19.246,0,0,0,2.256,1.625,10.611,10.611,0,0,0,0,3.7s.361-.09.993-.271a.332.332,0,0,0,.09.271,2.79,2.79,0,0,1,.181.722c.181.451.271.993.451,1.444a16,16,0,0,0,1.354,2.8A9.805,9.805,0,0,0,5.144,10.92a6.561,6.561,0,0,0,2.8,1.264,23.282,23.282,0,0,0,6.137,0,38.026,38.026,0,0,0,6.047-1.263h0Zm-.09,0c-1.985.361-3.971.722-6.047.9C13,11.913,12,12,11.01,12a16.5,16.5,0,0,1-2.978-.181A7.279,7.279,0,0,1,3.249,8.483,10.548,10.548,0,0,1,1.986,5.776c-.181-.451-.271-.993-.451-1.444-.09-.271-.09-.451-.181-.722,0-.09-.09-.18-.09-.271A38.951,38.951,0,0,1,9.927,1.715c3.7.09,6.5,2.978,7.581,4.152.993.993,2.166,3.971,2.527,4.783Z" transform="translate(2.076 5.595)"/>
              </g>
            </g>
          </g>
          <g id="svga-group-eyes-right-move" transform="translate(54.227 45.09) rotate(11)">
            <g id="svga-group-eyes-right" transform="translate(0 0)">
              <g id="svga-group-eyesback-right" transform="translate(0.542 0.451)">
                <path id="SvgjsPath10965" d="M12.184,0A11.928,11.928,0,0,1,24.367,11.733,11.927,11.927,0,0,1,12.184,23.465,11.928,11.928,0,0,1,0,11.732,11.927,11.927,0,0,1,12.184,0Z" fill="#fff"/>
              </g>
              <g id="svga-group-eyesiriswrapper-right" transform="translate(8.235 7.761)">
                <g id="svga-group-eyesiriscontrol-right">
                  <g id="svga-group-eyesiris-right">
                    <path id="SvgjsPath11147" d="M4.242,0A4.242,4.242,0,1,1,0,4.242,4.237,4.237,0,0,1,4.242,0Z" transform="translate(0.248 0.181)" fill="#664341"/>
                    <path id="SvgjsPath11148" d="M4.422,8.844A4.422,4.422,0,1,1,8.844,4.422,4.43,4.43,0,0,1,4.422,8.844Zm0-8.393A4.006,4.006,0,0,0,.451,4.422,4.006,4.006,0,0,0,4.422,8.393,4.006,4.006,0,0,0,8.393,4.422,4.006,4.006,0,0,0,4.422.451Z" transform="translate(0.068 0)" fill="#47211f"/>
                    <path id="SvgjsPath11149" d="M8.461,4.1a9.764,9.764,0,0,0-1.624,0,1.536,1.536,0,0,0-.09-.632,13.194,13.194,0,0,0,1.8-.451c.181-.09.09-.271-.09-.271a6.876,6.876,0,0,0-1.8.541c0-.09-.09-.18-.09-.271.271-.09.451-.18.722-.271a3.772,3.772,0,0,0,.9-.361c.09-.09.09-.18-.09-.18a3.761,3.761,0,0,0-1.624.722c0-.09-.09-.09-.09-.18.18-.09.361-.271.541-.361a4.959,4.959,0,0,0,.812-.632c.09-.09,0-.271-.18-.181-.271.181-.541.451-.812.632-.18.09-.361.271-.541.361L5.934,2.3A8.942,8.942,0,0,0,6.927.762c0-.09-.09-.18-.09-.09A15.049,15.049,0,0,0,5.753,2.116c-.09-.09-.18-.09-.271-.18a6.448,6.448,0,0,0,.18-1.8c0-.09-.18-.18-.271,0-.09.451-.09.9-.18,1.354,0,.09-.09.271-.09.361a.814.814,0,0,0-.451-.09A10,10,0,0,0,4.49.04c0-.09-.09,0-.09,0a10.922,10.922,0,0,0-.09,1.715H3.948c0-.18-.09-.271-.09-.451C3.768.943,3.768.582,3.678.13c0-.09-.181-.09-.181,0a3.475,3.475,0,0,0,.181,1.624c-.09,0-.09,0-.18.09C3.317,1.3,3.136.672,2.956.13c0-.09-.181-.09-.181,0a12.022,12.022,0,0,0,.451,1.715h-.09A9.37,9.37,0,0,0,2.053.311c-.09-.09-.18,0-.09.09a8.942,8.942,0,0,0,.993,1.534.315.315,0,0,0-.181.09A1.246,1.246,0,0,1,2.5,1.665,4.731,4.731,0,0,0,1.6.672c-.09-.09-.18,0-.09.09a6.889,6.889,0,0,0,.722.993,1.585,1.585,0,0,0,.361.451l-.271.271A13.769,13.769,0,0,0,.88,1.484c-.09,0-.09,0-.09.09L2.143,2.657a.684.684,0,0,0-.18.361c-.09,0-.18-.09-.271-.09-.451-.181-.9-.361-1.444-.542-.09,0-.18.18-.09.18.361.181.812.361,1.263.542.09.09.271.09.361.181,0,.09,0,.18-.09.18-.18,0-.271,0-.361-.09a3.1,3.1,0,0,0-1.263-.09c-.09,0-.09.09,0,.18a4.885,4.885,0,0,0,1.715.271V4.1c-.271.09-.451.18-.722.271a3.771,3.771,0,0,0-.9.361c-.09.09-.09.18.09.18a2.565,2.565,0,0,0,1.083-.361l.541-.271c0,.09.09.271.09.361-.09.09-.18.09-.271.18-.361.271-.812.541-1.173.812-.09.09,0,.18.09.18A9.914,9.914,0,0,0,1.873,5c.09,0,.09-.09.18-.09.09.09.09.18.18.271A7.793,7.793,0,0,0,1.061,6.448c-.09.09,0,.18.09.09A7.793,7.793,0,0,0,2.414,5.365l.271.271c-.09.18-.271.271-.361.451A7.528,7.528,0,0,0,1.6,7.17c-.09.09.09.18.18.09a9.591,9.591,0,0,0,.812-.993c.09-.18.271-.271.361-.451a.088.088,0,0,1,.09.09c-.09.09-.09.271-.18.361-.18.361-.361.722-.541,1.173,0,.09.09.18.18.09a4.862,4.862,0,0,0,.632-1.173c.09-.09.09-.18.18-.271h.09A4.048,4.048,0,0,0,2.956,7.8c0,.09.09.09.18,0a12.052,12.052,0,0,1,.632-1.624h.271a6.14,6.14,0,0,0-.18,1.8.135.135,0,0,0,.271,0c0-.632.18-1.173.18-1.8h.18a5.464,5.464,0,0,0,0,1.715.135.135,0,0,0,.271,0c-.09-.541,0-1.173-.09-1.715.18,0,.361-.09.541-.09a3.206,3.206,0,0,0,.361.812,1.465,1.465,0,0,0,.451.812c.09,0,.09,0,.09-.09a2.868,2.868,0,0,0-.271-.812c-.09-.271-.271-.541-.361-.812.09,0,.09-.09.18-.09.09.271.271.451.361.722.18.271.271.632.542.812.09.09.18,0,.18-.09a2.366,2.366,0,0,0-.451-.812c-.18-.18-.271-.451-.451-.632.09-.09.18-.09.271-.18A5.257,5.257,0,0,0,7.107,7.08c.09.09.271-.09.18-.18-.361-.451-.722-.812-1.083-1.264a1.584,1.584,0,0,0,.361-.451,8.179,8.179,0,0,0,1.444.993c.09.09.18-.09.18-.18A8.179,8.179,0,0,0,6.746,5c0-.09.09-.09.09-.18a11.749,11.749,0,0,0,1.534.722c.09.09.18-.18.09-.18a8,8,0,0,0-1.534-.722,5.751,5.751,0,0,0,.18-.632,9.807,9.807,0,0,0,1.624.09c0,.361,0,0-.271,0Z" transform="translate(0 0.321)" fill="#47211f"/>
                    <path id="SvgjsPath11150" d="M2.256,0A2.234,2.234,0,0,1,4.512,2.256,2.234,2.234,0,0,1,2.256,4.512,2.234,2.234,0,0,1,0,2.256,2.234,2.234,0,0,1,2.256,0Z" transform="translate(2.234 2.166)"/>
                    <path id="SvgjsPath11151" d="M.9,0a.9.9,0,0,1,.9.9.853.853,0,0,1-.9.9A.853.853,0,0,1,0,.9.853.853,0,0,1,.9,0ZM3.7,3.249a.426.426,0,0,1,.451.451.426.426,0,0,1-.451.451A.426.426,0,0,1,3.249,3.7.426.426,0,0,1,3.7,3.249Z" transform="translate(2.324 2.437)" fill="#fff"/>
                  </g>
                </g>
              </g>
              <g id="svga-group-eyesfront-right">
                <path id="SvgjsPath10974" d="M12.725,0A12.5,12.5,0,0,0,0,12.274,12.505,12.505,0,0,0,12.725,24.548,12.5,12.5,0,0,0,25.45,12.274,12.505,12.505,0,0,0,12.725,0ZM16.7,16.425c-3.61,1.444-12.364.09-12.364.09a10.866,10.866,0,0,1,3.881-7.13c2.8-2.346,14.169-3.068,13.628-.541C21.389,11.372,20.306,14.982,16.7,16.425Z" fill="#f5c6b2"/>
                <path id="SvgjsPath10977" d="M17.96,2.018s0-1.083-.722-1.354A26.382,26.382,0,0,0,9.747.032,9.233,9.233,0,0,0,4.783,1.747a3.166,3.166,0,0,0-.722.451A14.3,14.3,0,0,0,2.076,4.274a10.067,10.067,0,0,0-1.8,4.151A7.21,7.21,0,0,0,0,10.14,2.91,2.91,0,0,0,.181,9.6c1.9.361,3.7.542,5.6.722a14.489,14.489,0,0,0,2.8,0,9.521,9.521,0,0,0,2.8-.361,7.551,7.551,0,0,0,2.617-1.173,7.256,7.256,0,0,0,1.985-2.076,9.176,9.176,0,0,0,1.173-2.527,7.518,7.518,0,0,0,.361-1.354l.18-.722v-.18a.7.7,0,0,0,.271.09Zm-.361.09-.18.722a7.519,7.519,0,0,1-.361,1.354,9.176,9.176,0,0,1-1.173,2.527,7.1,7.1,0,0,1-4.512,2.978,6.967,6.967,0,0,1-1.354.18c-.451,0-.9.09-1.444.09-.9.09-1.9,0-2.8,0-1.9-.09-3.7-.181-5.6-.361C.632,8.425,1.534,5.9,2.347,5,3.339,3.823,5.776,1.3,9.3,1.025a33.6,33.6,0,0,1,8.213.993c.09-.09.09,0,.09.09Z" transform="translate(4.152 6.917)"/>
              </g>
            </g>
          </g>
          <g id="svga-group-eyebrows-left-move" transform="translate(13.154 44.924) rotate(-3)">
            <g id="svga-group-eyebrows-left-rotate" transform="translate(0 0)">
              <g id="svga-group-eyebrows-left" transform="translate(0)">
                <path id="SvgjsPath7985" d="M0,7.691S2.566,2.614,6.869.757c5.62-2.425,19.913,1.707,20.74,2.233s.329,3.153-1.062,3.279S18.532,3.793,13.579,2.648,4.219,2.647,0,7.691Z" transform="translate(0.024 0.28)" fill="#6a442b"/>
                <path id="SvgjsPath7986" d="M.016,8c.113-.109.244-.218.366-.352L.73,7.285c.225-.235.46-.461.7-.679a16.79,16.79,0,0,1,1.484-1.25A12.95,12.95,0,0,1,6.3,3.477a10.9,10.9,0,0,1,3.852-.654,15.669,15.669,0,0,1,3.927.562c2.612.654,5.186,1.485,7.769,2.281A39.2,39.2,0,0,0,25.813,6.74a3.721,3.721,0,0,0,.535.059,1.494,1.494,0,0,0,.6-.084,1.706,1.706,0,0,0,.827-.73,2.935,2.935,0,0,0,.376-.939A2.779,2.779,0,0,0,28.2,4.04a1.841,1.841,0,0,0-.15-.512.866.866,0,0,0-.413-.428,9.972,9.972,0,0,0-.986-.344c-.658-.193-1.306-.377-1.963-.554q-1.969-.512-3.964-.939A51.078,51.078,0,0,0,12.651.03,17.287,17.287,0,0,0,8.546.257,8.313,8.313,0,0,0,6.563.886a10.558,10.558,0,0,0-1.738,1.04,14.967,14.967,0,0,0-2.8,2.768A16.134,16.134,0,0,0,.918,6.287c-.169.277-.329.554-.488.83C.354,7.26.279,7.4.2,7.537l-.1.218-.056.109-.019.05-.009.025-.009.017A.027.027,0,0,0,.016,8Zm.028-.059a19.805,19.805,0,0,1,5.11-5.645,10.7,10.7,0,0,1,1.672-.948A7.907,7.907,0,0,1,8.677.785,21.5,21.5,0,0,1,12.651.533a38.286,38.286,0,0,1,4.03.285c1.343.151,2.677.361,4.011.629s2.64.587,3.946.948c.648.176,1.306.377,1.935.6.31.109.639.226.921.352a.822.822,0,0,1,.338.7,2.768,2.768,0,0,1-.451,1.694,1.246,1.246,0,0,1-.629.52,1,1,0,0,1-.395.042,3.453,3.453,0,0,1-.47-.075c-.639-.134-1.287-.327-1.926-.52l-1.935-.621c-2.574-.83-5.139-1.719-7.8-2.374a15.712,15.712,0,0,0-4.105-.52A11.57,11.57,0,0,0,6.084,3a12.47,12.47,0,0,0-3.42,2.1A13.644,13.644,0,0,0,1.246,6.455C1.03,6.7.8,6.933.6,7.184a2.5,2.5,0,0,0-.291.369,2.762,2.762,0,0,1-.263.386Z" fill="#41200a"/>
              </g>
            </g>
          </g>
          <g id="svga-group-eyebrows-right-move" transform="matrix(0.998, 0.07, -0.07, 0.998, 54.639, 44.204)">
            <g id="svga-group-eyebrows-right-rotate" transform="translate(0 0)">
              <g id="svga-group-eyebrows-right" transform="translate(0 0)">
                <path id="SvgjsPath7987" d="M25.771,7.268S23.208,2.367,19.2.643C13.957-1.6,1.043,2.719.321,3.242S.149,6.329,1.431,6.419s7.22-2.581,11.714-3.808C17.612,1.4,21.7,2.439,25.771,7.268Z" transform="translate(0.199 0.28)" fill="#6a442b"/>
                <path id="SvgjsPath7988" d="M26,7.52,25.988,7.5l-.018-.027-.027-.054-.054-.108-.108-.208c-.072-.135-.144-.28-.226-.406-.162-.271-.316-.532-.487-.794A16.611,16.611,0,0,0,23.985,4.38,14.259,14.259,0,0,0,21.3,1.744,10.6,10.6,0,0,0,19.671.761,7.643,7.643,0,0,0,17.83.192,15.122,15.122,0,0,0,14.057.057,44.726,44.726,0,0,0,6.72,1.419c-1.2.316-2.4.632-3.583.993-.6.18-1.182.37-1.769.578a7.835,7.835,0,0,0-.884.352.784.784,0,0,0-.361.424,1.959,1.959,0,0,0-.117.505,3.282,3.282,0,0,0,.469,1.9,1.673,1.673,0,0,0,.794.695,1.314,1.314,0,0,0,.56.072,2.116,2.116,0,0,0,.487-.081A32.324,32.324,0,0,0,5.89,5.724c2.328-.83,4.657-1.688,7.021-2.382a13.443,13.443,0,0,1,3.574-.623,9.675,9.675,0,0,1,3.547.56,11.977,11.977,0,0,1,3.186,1.76c.487.37.957.776,1.408,1.191.226.208.442.424.668.641l.325.343c.117.126.244.235.352.334.018.009.027-.018.027-.027Zm-.307-.361c-.072-.1-.19-.235-.289-.352-.2-.244-.406-.469-.623-.695a14.206,14.206,0,0,0-1.363-1.291,11.916,11.916,0,0,0-3.2-1.967,10.091,10.091,0,0,0-3.727-.7,12.933,12.933,0,0,0-3.736.587c-2.4.686-4.711,1.606-7.03,2.473L3.986,5.85c-.578.208-1.164.406-1.742.56a3.876,3.876,0,0,1-.424.081.8.8,0,0,1-.361-.027,1.23,1.23,0,0,1-.6-.487A2.827,2.827,0,0,1,.385,4.334a.8.8,0,0,1,.28-.686,8.83,8.83,0,0,1,.83-.37c.578-.226,1.155-.433,1.742-.623C4.41,2.277,5.61,1.934,6.8,1.645,8.011,1.356,9.22,1.13,10.447.95A36.386,36.386,0,0,1,14.121.589a16.843,16.843,0,0,1,3.637.163,6.587,6.587,0,0,1,1.715.505,10.07,10.07,0,0,1,1.579.884A19.743,19.743,0,0,1,25.97,7.529c-.117-.135-.2-.271-.28-.37Z" fill="#41200a"/>
              </g>
            </g>
          </g>
          <g id="svga-group-nose-single-move" transform="translate(38.505 62.896)">
            <g id="svga-group-nose-single" transform="translate(0 0)">
              <path id="SvgjsPath11510" d="M15.014,18.677A7.134,7.134,0,0,0,13.74,16.5a10.668,10.668,0,0,1,.978,2.3,3.049,3.049,0,0,1,.112,1.187,1.25,1.25,0,0,1-.184.5,2.127,2.127,0,0,1-.329.446,2.035,2.035,0,0,1-1.884.646,3.19,3.19,0,0,1-1.026-.333,7.346,7.346,0,0,1-.906-.513,12.543,12.543,0,0,0,.713-1.472c-.689.76-1.331,1.529-2.02,2.2a5.656,5.656,0,0,1-2.293.513,3.388,3.388,0,0,1-1.827-.807c-.7-.7-1.4-1.406-2.156-2.061A18.193,18.193,0,0,0,4.1,20.985a4.941,4.941,0,0,1-1.074.437,1.836,1.836,0,0,1-1.3-.086A2.567,2.567,0,0,1,.641,18.886a1.623,1.623,0,0,1,.208-.617c.12-.219.257-.437.393-.655.281-.427.577-.855.89-1.263l.465-.617a7.088,7.088,0,0,0,.465-.7A9.2,9.2,0,0,0,3.816,13.5a8.246,8.246,0,0,0,.417-1.719c.08-.56.16-1.121.208-1.681.1-1.121.192-2.242.216-3.372A34.235,34.235,0,0,0,4.3,0a66.1,66.1,0,0,1-.28,6.678c-.1,1.1-.208,2.213-.353,3.306-.072.551-.144,1.092-.224,1.634a6.612,6.612,0,0,1-.377,1.491A8.769,8.769,0,0,1,2.4,14.487,5.542,5.542,0,0,1,2,15.1c-.16.218-.313.427-.465.646-.3.437-.593.893-.874,1.358-.136.237-.281.475-.4.731a2.439,2.439,0,0,0-.257.95A3,3,0,0,0,1.6,21.755a2.015,2.015,0,0,0,1.491-.095,4.419,4.419,0,0,0,1.05-.636c.168.237.329.475.505.7a4.2,4.2,0,0,0,1,.827,4.929,4.929,0,0,0,2.049.262,2.871,2.871,0,0,0,1.986-.775,10.7,10.7,0,0,0,.85-1.273,3.962,3.962,0,0,0,1.892,1.206,2.166,2.166,0,0,0,2.22-.665,3,3,0,0,0,.385-.541,1.578,1.578,0,0,0,.224-.693,3.556,3.556,0,0,0-.232-1.4Z" transform="translate(0 0)" fill="#c77755"/>
            </g>
          </g>
          <g id="svga-group-hair-front" transform="translate(2.061 0)">
            <path id="SvgjsPath8422" d="M51.458,14.481s-2.006,13.962-10.4,18.236c-8.3,4.274-17.692,3.039-25.262,5.508S4.036,47.913,8.961,54.657c0,0-3.922-1.425-3.374-7.788a14.661,14.661,0,0,0,4.743,15.007S4.036,60.451,1.482,51.047-.889,31.577,6.589,20.464,25.1-2.9,50.911.614,86.57,30.343,87.117,33.668s6.658,22.985-5.745,33.623c0,0,4.56-7.788,1-15.767s-12.586-13.3-15.6-14.532S55.927,29.583,53.83,24.929,51.093,17.141,51.458,14.481Z" transform="translate(0.122 0.82)" fill="#956e56"/>
            <path id="SvgjsPath8423" d="M50.577,8.843c-.091-.38-.638-.19-.547.19,1.459,7.978-.638,16.052-6.475,21.655-6.2,5.984-14.227,5.319-22.07,6.458-4.925.76-10.4,2.374-13.224,7.028-2.189,3.609-2.462,8.358.456,11.588.274.285.73-.095.547-.38C2.789,45.219,15.1,39.046,22.944,38.191c5.837-.665,12.038-.57,17.236-3.7,8.39-5.034,13.132-16.051,10.4-25.644ZM8.079,19.765C17.654,4.853,33.614-.086,50.029,1.624c.274,0,.274-.38.091-.475C33.34-3.41,14.827,6.088,6.163,21.094-.22,32.207-5.053,56.616,9.721,63.455c.182.095.365-.19.182-.285C-3.5,53.2.053,32.207,8.079,19.765ZM43.828,8.558C37.718,24.419,20.755,25.464,9.9,36.1,3.519,42.37.054,54.432,8.444,60.8c.274.19.638-.285.365-.57C3.61,55.287,3.246,47.689,6.8,41.515c3.465-5.889,9.393-9.4,15.139-12.442C30.513,24.514,42,19.575,44.193,8.558c.091-.19-.274-.285-.365,0Zm42.59,22.7c-5.29-14.437-18.24-26.69-33.2-29.064a.244.244,0,0,0-.091.475C66.81,6.848,78.392,14.922,84.5,28.789,89.336,39.807,91.434,57,82.771,66.306c2.918-5.129,1.55-12.917-2.007-17.666-8.938-12.063-32.649-16.527-28.09-36,.091-.285-.274-.285-.365-.095C48.115,23.09,57.6,32.018,65.26,37.242c5.563,3.8,11.673,7.219,15.5,13.107C84.959,57,84.5,67.256,76.3,70.295c-.365.095-.182.76.182.57a13.8,13.8,0,0,0,2.1-.76.39.39,0,0,0,.456.095C92.164,63.552,90.8,43.131,86.418,31.258Zm-22.435-5.7C70.641,31.923,78.393,36.482,81.858,45.7c.091.19.365.19.365-.095C78.484,29.454,56.14,26.224,56.322,7.988c0-.38-.456-.285-.456,0C55.137,15.111,59.149,21,63.983,25.559Z" fill="#a27c64"/>
          </g>
          <g id="svga-group-glasses-single-move" transform="translate(10.624 50.644)">
            <g id="svga-group-glasses-single" transform="translate(0.001 0.001)">
              <path id="SvgjsPath11433" d="M31.406,6.254s.3-2.912-3.591-4.632A22,22,0,0,0,19.037.033C16.444.033,8.265-.1,6.17.166S.983.695.185,4.665s1,10.324,5.187,13.5c4.189,3.044,12.469,3.309,17.755,1.324s7.78-6.618,8.279-13.235Z" transform="translate(3.207 0.574)" fill="#fff" opacity="0.44"/>
              <path id="SvgjsPath11434" d="M0,6.244s-.2-2.907,3.79-4.625A22.494,22.494,0,0,1,12.67.033c2.593,0,10.873-.132,12.967.132s5.187.529,5.885,4.493c.6,3.964-1.4,10.44-5.685,13.611-4.289,3.039-12.568,3.3-17.855,1.321C2.6,17.476.3,12.851,0,6.244Z" transform="translate(43.388 0.574)" fill="#fff" opacity="0.44"/>
              <path id="SvgjsPath11435" d="M.1.754a12.852,12.852,0,0,1,8.778,0v1s-5.387-1-8.878,0Z" transform="translate(34.513 5.276)" fill="#9e7676"/>
              <path id="SvgjsPath11436" d="M18.354,21.572c-4.09,0-7.78-.915-10.075-2.615-3.79-2.746-5.586-8.106-5.586-11.767V7.06H.2L0,4.314H3.092V4.184C4.189.785,7.082.523,8.977.262h.2c.9-.131,2.893-.131,6.284-.131h6.583A20.8,20.8,0,0,1,30.922,1.7c4.09,1.83,3.89,4.837,3.89,5.1-.6,7.06-3.491,11.636-8.578,13.6a23.751,23.751,0,0,1-7.88,1.177ZM15.561,1.046c-3.391,0-5.386,0-6.284.131h-.2C6.982,1.438,4.289,1.7,3.591,5.23c-.8,3.922,1.1,9.936,4.988,12.813,2.194,1.569,5.686,2.484,9.676,2.484a20.864,20.864,0,0,0,7.78-1.307c4.888-1.83,7.481-6.014,8.079-12.812,0-.261.1-2.615-3.391-4.053A21.5,21.5,0,0,0,22.044.916H19.75A41.736,41.736,0,0,1,15.561,1.046ZM58.951,21.573a24.049,24.049,0,0,1-7.88-1.308c-5.087-1.961-7.78-6.406-8.18-13.6,0-.392-.1-3.4,4.09-5.1A23.8,23.8,0,0,1,55.959,0h6.683c3.391,0,5.386,0,6.284.131h.2c1.9.262,4.788.523,5.785,3.922v.131H78l-.3,2.746H75.21v.131c-.2,3.791-2.095,9.021-5.985,11.9-2.394,1.7-6.184,2.615-10.274,2.615ZM62.542,1.047H55.959a21.762,21.762,0,0,0-8.678,1.438c-3.491,1.569-3.491,3.791-3.491,4.053.3,6.8,2.793,10.982,7.581,12.813a22.825,22.825,0,0,0,7.681,1.308c3.99,0,7.581-.915,9.775-2.484,4.09-2.876,6.084-9.021,5.486-12.812-.6-3.53-3.192-3.792-5.386-4.184h-.2c-.8-.131-2.893-.131-6.184-.131Z" transform="translate(0.1 0.2)" fill="#bdb2b2"/>
              <path id="SvgjsPath11437" d="M15.561.391h6.683a20.875,20.875,0,0,1,8.878,1.562c3.99,1.692,3.791,4.687,3.791,4.947-.6,7.03-3.391,11.456-8.478,13.409a21.485,21.485,0,0,1-7.88,1.3c-4.09,0-7.78-.911-9.975-2.6C4.888,16.273,3.092,11.066,3.092,7.421V7.03H.6L.3,4.687H3.292l.1-.13C4.389,1.3,7.282.911,9.177.781h.2a28.037,28.037,0,0,1,6.184-.39M18.454,20.96a20.944,20.944,0,0,0,7.78-1.3c4.888-1.823,7.581-5.988,8.179-12.888,0-.26.1-2.734-3.491-4.166a21.58,21.58,0,0,0-8.678-1.432H15.66c-3.391,0-5.386,0-6.284.13h-.2c-2.095.26-4.888.651-5.586,4.166-.8,3.906,1.1,10.024,5.087,12.889,2.194,1.692,5.785,2.6,9.775,2.6M15.561.13c-2.693,0-5.187,0-6.284.13h-.2C7.082.521,4.189.911,3.092,4.3H0L.2,7.29H2.693c0,4.166,2.095,9.243,5.686,11.847,2.494,1.823,6.384,2.734,10.174,2.734a25.241,25.241,0,0,0,7.98-1.3q7.78-2.929,8.678-13.669c0-.391.2-3.515-3.99-5.338A21.057,21.057,0,0,0,22.244,0H20.049C18.753.131,17.157.13,15.561.13ZM18.454,20.7c-3.591,0-7.282-.781-9.676-2.474C4.888,15.362,3.092,9.373,3.791,5.6c.7-3.385,3.292-3.775,5.386-4.036h.2c1-.13,3.591-.13,6.184-.13h6.583a21.389,21.389,0,0,1,8.578,1.432C34.114,4.3,34.014,6.64,34.014,6.77c-.5,6.639-3.092,10.805-7.98,12.628A21.875,21.875,0,0,1,18.454,20.7ZM62.741,0V.392c3.391,0,5.386,0,6.284.13h.2c1.9.26,4.688.521,5.686,3.776l.1.13H78.1l-.3,2.343H75.31v.391c-.2,3.645-2.095,8.853-5.985,11.586-2.394,1.692-6.085,2.6-10.174,2.6a24.141,24.141,0,0,1-7.88-1.3C46.283,18.1,43.49,13.67,43.191,6.64c0-.26-.1-3.255,3.99-4.947A23.41,23.41,0,0,1,56.058.131h6.683V0m-3.591,20.96c3.99,0,7.681-.911,9.875-2.473,4.09-2.994,6.184-9.113,5.586-13.019-.6-3.645-3.391-3.906-5.486-4.166h-.2c-.9-.13-2.893-.13-6.284-.13H55.959A22.308,22.308,0,0,0,47.181,2.6C43.59,4.167,43.59,6.64,43.59,6.9c.3,6.77,2.793,10.936,7.681,12.889a24.7,24.7,0,0,0,7.88,1.172M62.741,0H56.058a22.249,22.249,0,0,0-9.077,1.562C42.692,3.386,42.792,6.51,42.792,6.9c.3,7.16,3.092,11.717,8.18,13.67a21.673,21.673,0,0,0,7.98,1.3c3.79,0,7.681-.781,10.274-2.734C72.916,16.4,75.11,11.327,75.31,7.162H77.8l.3-3.124H75.011C74.013.652,71.12.262,69.125,0h-.2c-.9.13-3.491,0-6.184,0ZM59.151,20.7a20.065,20.065,0,0,1-7.681-1.3c-4.788-1.823-7.282-5.859-7.581-12.628,0-.13-.1-2.343,3.391-3.906a21.58,21.58,0,0,1,8.678-1.432h6.583c2.593,0,5.187,0,6.284.13h.2c2.095.26,4.688.521,5.287,4.036a14.548,14.548,0,0,1-5.386,12.628C66.432,19.92,62.742,20.7,59.151,20.7Z" transform="translate(0)" fill="#9e7676"/>
            </g>
          </g>
        </g>
      </g>
    </g>
  </g>
</svg>
