<svg id="mahsa2" xmlns="http://www.w3.org/2000/svg" width="200" height="220" viewBox="0 0 200 220">
  <g id="svga-group-backs-single">
    <path id="SvgjsPath7889" d="M0,0H200V220H0Z" fill="#f1cbcb"/>
    <g id="svga-group-hair-back-move" transform="translate(49.754 89.304)">
      <g id="svga-group-hair-back" transform="translate(0 0)">
        <path id="SvgjsPath7481" d="M136.884,50.705s5.814,1.1,10.71,12,2.856,23.4,2.244,32.1-2.04,36-11.118,49.8-13.362,14.6-23.868,18.4c-10.506,3.7-37.23,2.6-48.552-7.4-11.322-10.1-6.63-26.9-3.774-33,2.856-6.2,74.358-71.907,74.358-71.907" transform="translate(-59.091 -50.705)" fill="#844b11"/>
        <path id="SvgjsPath7482" d="M72.624,121.712s-2.856,7.1-3.468,12,2.652,9.5,4.59,12.1a25.8,25.8,0,0,1,6.222,17.2c.1,6,42.432-5.5,42.432-5.5a50.2,50.2,0,0,0,19.482-43.3c-17.544,6.2-35.19,12.5-52.734,18.7l-2.856-4.3-13.668-6.9Z" transform="translate(-59.091 -50.705)" fill="#844b11"/>
      </g>
    </g>
  </g>
  <g id="svga-group-humanwrap-move" transform="translate(29.508 15.667)">
    <g id="svga-group-humanwrap">
      <g id="svga-group-hair-back-move-2" data-name="svga-group-hair-back-move" transform="translate(19.729 81.65) rotate(-3)">
        <g id="svga-group-hair-back-2" data-name="svga-group-hair-back" transform="translate(0 0)">
          <path id="SvgjsPath6948" d="M21.787,102.47s-15.648-1.2-19.392-9.6S-1.157,63.777,6.235,49.28c7.3-14.6,4.992-39.892,4.992-39.892,10.176-20,53.472-3.9,52.992,9.9S44.539,71.076,38.4,81.174s-13.536,21.1-13.536,21.1l-3.072.2Z" fill="#753d03"/>
        </g>
      </g>
      <g id="svga-group-humanbody-back" transform="translate(3.219 85.633)">
        <path id="SvgjsPath5502" d="M77.8,105.9s4.8,37.7,10,55.8c0,0-6.4,8.8-14.5,11.9-28.7,11.2-35,11.2-39.6,15.2-2.4,2.1.2,11.1,1.8,17.2a83.315,83.315,0,0,1,1.7,13.2H169.4s1.6-33-.6-39.8-7.1-2.9-21.9-4.5-28.7-10.3-31-13.2l.3-60-38.4,4.2Z" transform="translate(-32.727 -101.7)" fill="#f3d4cf"/>
      </g>
      <g id="svga-group-chinshadow-single" transform="translate(47.992 85.702)">
        <path id="SvgjsPath5813" d="M86.1,156.4a92.038,92.038,0,0,0,10.3,1s11.6-.6,15.5-2.3a20.482,20.482,0,0,0,3.7-2.8l.3-50.7-38.4,4.2S81.5,137.2,86.1,156.4Z" transform="translate(-77.5 -101.6)" fill="#d4958a"/>
      </g>
      <g id="svga-group-humanbody-front" transform="translate(2.476 84.833)">
        <path id="SvgjsPath5503" d="M72.1,183.1s14.6-.2,20.4,2.6c5.8,2.9,12.7,2.4,16.1-1s21.6-7,21.6-7-19.7,1.9-25,4.6-22.3-2.8-33.1.8Z" transform="translate(-31.985 -100.9)" fill="#d4958a"/>
        <path id="SvgjsPath5504" d="M74.2,173.2c6.7-1.3,14.7-6.4,14.7-6.4l6.2,5.5c-4.3-7.9-12.7-41.1-12.7-41.1l-.7.7a295.669,295.669,0,0,0,6.1,29.7s-6,8.2-13.6,11.6Z" transform="translate(-31.985 -100.9)" fill="#d4958a"/>
        <path id="SvgjsPath5505" d="M170.7,188.5c-.1-2.1-.2-4.1-.4-6.2a19.848,19.848,0,0,0-.6-3.2c-.2-.5-.4-1-.6-1.6a6.528,6.528,0,0,0-1-1.5,3.269,3.269,0,0,0-1.5-1.1,11.505,11.505,0,0,0-1.7-.6,17.745,17.745,0,0,0-3.2-.2c-2.1,0-4.1.1-6.1.1s-4-.1-6-.2-4-.4-6-.7c-1-.2-2-.4-2.9-.6l-1.5-.4c-.5-.1-1-.3-1.4-.4a66.742,66.742,0,0,1-11.2-4.4l-1.3-.7-1.3-.7a9.129,9.129,0,0,1-1.3-.8c-.4-.3-.9-.5-1.3-.8a14.8,14.8,0,0,0-1.3-.8l-1.2-.9-.6-.5-.3-.2-.3-.2c-.2-.2-.4-.3-.5-.5l-.2-.3V116.5l-.1-15v-.6l-.6.1c-6.4.8-12.9,1.5-19.3,2.3l-19.1,2.3v.5l.1.4.1.9.2,1.8c.1,1.2.3,2.3.4,3.5l.9,7c.6,4.7,1.3,9.4,2.1,14,.8,4.7,1.5,9.3,2.5,14,.9,4.5,1.8,9,3,13.5a44.823,44.823,0,0,1-3.6,4,52.964,52.964,0,0,1-4.3,3.8,29.7,29.7,0,0,1-4.8,3l-1.3.6c-.4.2-.9.3-1.3.5l-2.7,1c-7.2,2.7-14.5,5.3-21.8,7.7l-5.5,1.8a42.038,42.038,0,0,0-5.5,2.2c-.4.2-.9.5-1.3.7a10.144,10.144,0,0,0-1.3.9l-.6.5a2.407,2.407,0,0,0-.6.8,4.939,4.939,0,0,0-.5,1.6,10.728,10.728,0,0,0,0,3.1c.1,1,.3,2,.4,2.9.4,1.9.8,3.8,1.3,5.7l.8,2.8a22.912,22.912,0,0,1,.7,2.8,56.223,56.223,0,0,1,.9,5.7c.2,1.9.4,3.8.5,5.7v.8H170.1V219c.2-4.1.4-8.2.5-12.3s.2-8.2.2-12.3c0-1.8-.1-3.8-.1-5.9Zm-67.4,30.3H70.2l-16.5-.1-16-.1c-.1-1.8-.2-3.5-.4-5.3a57.712,57.712,0,0,0-.8-5.8c-.2-1-.4-1.9-.7-2.9l-.7-2.8a55.942,55.942,0,0,1-1.2-5.6,26.955,26.955,0,0,1-.4-2.8,12.178,12.178,0,0,1,0-2.7,3.582,3.582,0,0,1,.4-1.1,1.38,1.38,0,0,1,.3-.4l.5-.4a10.475,10.475,0,0,1,1.1-.8c.4-.2.8-.5,1.2-.7a48.133,48.133,0,0,1,5.3-2l5.5-1.8c7.3-2.4,14.6-5,21.8-7.8l2.7-1c.5-.2.9-.3,1.4-.5l1.4-.6a32.652,32.652,0,0,0,5-3.2,40.868,40.868,0,0,0,4.4-3.9,32.344,32.344,0,0,0,3.8-4.5l.2-.3-.1-.3c-1.3-4.5-2.3-9.1-3.3-13.7s-1.9-9.3-2.7-13.9-1.6-9.3-2.4-14l-2.2-13.9,19.3-1.8c6.2-.6,12.3-1.2,18.5-1.8l-.2,14.4-.2,15-.3,30v.4l.2.2.6.7.6.6.3.3.3.2.6.5c.4.3.9.6,1.3.9s.9.6,1.3.9.9.5,1.3.8.9.5,1.3.8l1.4.8,1.4.7c.5.2.9.5,1.4.7l1.4.7c1,.4,1.9.8,2.9,1.2s1.9.8,2.9,1.1l1.5.5a8.33,8.33,0,0,0,1.5.4c.5.1,1,.3,1.5.4l1.5.4c1,.3,2,.4,3,.6a61.729,61.729,0,0,0,6.2.8c2.1.2,4.1.2,6.2.2s4.1-.1,6.1-.1,4,.1,5,1.3a7.139,7.139,0,0,1,1.2,2.3,27.973,27.973,0,0,1,.6,2.8c.3,2,.4,4,.5,6s.1,4.1.2,6.1c.1,7.9-.1,15.8-.4,23.7-10.8.1-21.5.1-32.3.2H103.3Z" transform="translate(-31.985 -100.9)" fill="#c5796d"/>
        <path id="SvgjsPath5506" d="M150.7,219.2,147,198l-.4,21.2Z" transform="translate(-31.985 -100.9)" fill="#d4958a"/>
        <path id="SvgjsPath5507" d="M47.3,203.5s2.2,11.5,2.9,15.7h3.5Z" transform="translate(-31.985 -100.9)" fill="#d4958a"/>
      </g>
      <g id="svga-group-clothes-single" transform="translate(0.092 135.733)">
        <path id="SvgjsPath7764" d="M85.9,154.3c-1.3,2.2-6.7,9.9-6.7,9.9l-.4,2.8a82.735,82.735,0,0,1-14,7.3c-9.1,3.8-31,11-32.7,12.3s-1.9,8.6-.9,11.8a61.263,61.263,0,0,1,3.9,20.8H170.9s1-13.9,1.1-18.9-.1-21.9-2.5-25.1c-2.3-3.2-4.4-2.2-11.2-2.2s-17.8-1.9-25.1-3.8-8.2-4.4-8.2-4.4l-.9-2.6-7.3-8s.3,10.1-.4,14-10.6,8-10.7,9.2c-.5,7.1-2,8.2-2,8.2s-.2-6.3-5.3-8c-1.9-.7-5.6-2.1-6.7-3.9a41.06,41.06,0,0,1-3.6-10.9c-.2-2.4-2.2-8.5-2.2-8.5Z" transform="translate(-29.6 -151.8)" fill="#c53509"/>
        <path id="SvgjsPath7765" d="M172.9,195.7c0-3.9-.2-7.9-.5-11.8-.2-2-.4-3.9-.8-5.9a8.292,8.292,0,0,0-1.1-3.1,14.959,14.959,0,0,0-1.1-1.3,4.508,4.508,0,0,0-1.4-1,6.645,6.645,0,0,0-3.3-.6c-1,0-2,0-3,.1a56.1,56.1,0,0,1-5.8,0,91.766,91.766,0,0,1-11.6-1.4c-3.8-.7-7.7-1.4-11.4-2.4a19.568,19.568,0,0,1-5.2-2.1,4.785,4.785,0,0,1-1.8-1.6L125,162l-.1-.2-.1-.1-7.3-8-1.7-1.9.1,2.5c.1,3.1.1,6.1,0,9.2-.1,1.5-.1,3.1-.3,4.5-.1,1.2-1.2,2.2-2.3,3.2a34.664,34.664,0,0,1-3.7,2.6,44.023,44.023,0,0,0-3.9,2.6,5.073,5.073,0,0,0-.6.7c0,.1-.1.1-.1.2v.6c0,.4-.1.8-.1,1.1-.1.8-.2,1.5-.3,2.2a17.417,17.417,0,0,1-.5,2.2c0,.1-.1.1-.1.2a9.612,9.612,0,0,0-1.1-2.8,7.216,7.216,0,0,0-3.7-3.4c-.8-.3-1.5-.5-2.3-.8l-2.1-.9a12.228,12.228,0,0,1-1.9-1.2,4.92,4.92,0,0,1-1.3-1.8c-.7-1.4-1.2-2.9-1.8-4.4a34.715,34.715,0,0,1-1.3-4.6,23.99,23.99,0,0,0-.4-2.4c-.2-.8-.4-1.6-.6-2.3s-.4-1.5-.7-2.3l-.4-1.1-.2-.6-.1-.3-.1-.1v-.1a.1.1,0,0,0-.1-.1,3.039,3.039,0,0,0-.5.7l-.4.6-.8,1.2-1.7,2.4L79,164.2v.2l-.4,2.6a98.083,98.083,0,0,1-18.8,8.9c-6.6,2.4-13.2,4.6-19.9,7-1.7.6-3.3,1.2-5,1.8a26.045,26.045,0,0,0-2.5,1,5.737,5.737,0,0,0-.7.4,2.336,2.336,0,0,0-.7.7,9.143,9.143,0,0,0-.7,1.4,26.733,26.733,0,0,0-.7,5.5,17.688,17.688,0,0,0,.7,5.5,74.741,74.741,0,0,1,2.8,10,50.666,50.666,0,0,1,1,10.3v.9h.8c11.3,0,22.6-.2,33.9-.3,11.3-.2,22.6-.2,33.9-.2s22.6.1,33.9.2l33.9.3h.8l.1-.8.9-11.7a103.689,103.689,0,0,0,.6-12.2Zm-58.7-23.4c.6-.5,1.2-1.1,1.8-1.7a4.129,4.129,0,0,0,.7-1.1,3.259,3.259,0,0,0,.4-1.3,37.254,37.254,0,0,0,.4-4.7c.1-2.3.1-4.5.1-6.8l5.5,6.1.4,1.2.2.7.1.4.1.2a.769.769,0,0,0,.2.3,6.342,6.342,0,0,0,1,1.2c.2,1.1.4,2.1.5,3.1.3,2.4.6,4.8,1.1,7.1.4,2.4.8,4.7,1.4,7.1a24.182,24.182,0,0,0,1,3.6l.3.9a46.655,46.655,0,0,1-5.1-3.6,5.008,5.008,0,0,1-.8-.7l-.8-.7-1.7-1.5-3.3-2.9c-1.1-1-2.2-1.9-3.3-2.9l-.4-.4a2.735,2.735,0,0,0-.5-.4,2.979,2.979,0,0,0-1.4-.5,5.845,5.845,0,0,0-1.9.2h.1c1.3-1,2.6-1.9,3.9-2.9Zm-7.9,5.2Zm-.5,3.9a9.693,9.693,0,0,0,.3-2.3,4.869,4.869,0,0,0,.1-1.2v-.3l.2-.2a5.5,5.5,0,0,0,.9-.7.6.6,0,0,1,.4-.1c.7-.2,1.4-.3,2.1-.5a14.083,14.083,0,0,1,2-.1c.3.1.6.1.7.2l.3.3.4.4c.6.6,1.2,1.3,1.9,1.9a53.194,53.194,0,0,1-5,2.1,15.175,15.175,0,0,1-2.8.9c-.6.2-1.2.3-1.8.5.2-.1.3-.5.3-.9Zm-26.3-17,3.3-4.9,1.6-2.5.8-1.3.4-.6c.1-.2.2-.3.2-.5v.1l.1.3.2.6.3,1.1c.2.8.4,1.5.6,2.3s.4,1.6.5,2.3a17.478,17.478,0,0,1,.3,2.4,40.508,40.508,0,0,0,1.2,4.7,34.718,34.718,0,0,0,1.7,4.5,5.957,5.957,0,0,0,1.4,2.1,7.705,7.705,0,0,0,2.1,1.4,21.4,21.4,0,0,0,2.2,1c.7.3,1.6.6,2.2.9a6.963,6.963,0,0,1,3.7,4.5c-2.4-.7-4.8-1.2-7.3-1.8-2.3-.5-4.6-.9-7-1.2a18.574,18.574,0,0,1,1.1-1.9c.3-.4.5-.9.9-1.1a2.567,2.567,0,0,1,1.2-.5,10.123,10.123,0,0,1,3,.2,10.89,10.89,0,0,0-3.1-.8,3.533,3.533,0,0,0-1.7.4,13.576,13.576,0,0,0-1.2,1.2c-1.3,1.7-2.3,3.5-3.5,5.2l-.9,1.2a9.428,9.428,0,0,1-1,1,24.982,24.982,0,0,1-2.4,1.8l-3.3,2.1c.3-1.4.6-2.8.8-4.2a47.593,47.593,0,0,0,.7-6.6c.1-2.2.2-4.4.2-6.5,0-1.1,0-2.2-.1-3.3a1.952,1.952,0,0,0-.1-.7l.1-.1v-.1l.8-2.7ZM53,218.5c-.3-2.9-.8-5.9-1.4-8.8-.3-1.6-.7-3.2-1.1-4.8a22.5,22.5,0,0,0-.8-2.4,16.65,16.65,0,0,0-1.2-2.3,42.3,42.3,0,0,0-6.8-7.2,28.824,28.824,0,0,0-3.9-3,18.122,18.122,0,0,0-4.4-2.2,39.221,39.221,0,0,1,7.2,6.3c1.1,1.1,2.2,2.3,3.2,3.5a33.662,33.662,0,0,1,2.9,3.7,11.782,11.782,0,0,1,1.1,1.9c.3.7.5,1.5.8,2.2.5,1.5,1,3.1,1.4,4.6q1.2,4.2,2.7,8.4c-5.6-.1-11.3-.1-16.9-.1a53.4,53.4,0,0,0-1-9.8c-.3-1.8-.8-3.5-1.2-5.2-.5-1.7-1.1-3.4-1.7-5a20.321,20.321,0,0,1-.2-9.8,10.375,10.375,0,0,1,.4-1c.1-.1.1-.2.2-.2a.764.764,0,0,1,.5-.2,24.427,24.427,0,0,1,2.4-1c1.6-.6,3.3-1.2,4.9-1.9,6.6-2.4,13.2-4.7,19.8-7.3,3.3-1.3,6.5-2.6,9.7-4.2a75.26,75.26,0,0,0,8.7-5v.4c-.1,1.1-.2,2.1-.4,3.2l-.8,6.4-.4,3.2c-.2,1-.4,2.1-.6,3.1-.4,2.1-.9,4.2-1.3,6.4l-.5,2.2,1.9-1.1a59.491,59.491,0,0,0,5.3-3.4A23.212,23.212,0,0,0,84,186a6.885,6.885,0,0,0,1.1-1.3,9.993,9.993,0,0,0,.8-1.4c.7-1.1,1.2-2.3,1.8-3.4a41.087,41.087,0,0,0,6.8,2.1,31.9,31.9,0,0,0,7.5.8,9.185,9.185,0,0,1,.5,2.8v.8l-.1.1c-.5.6-1,1.2-1.5,1.9l-.8.9c-.1.2-.2.2-.4.5a1.612,1.612,0,0,0-.4.7,8.239,8.239,0,0,0-.4,2.6v2.4c0,1.6.1,3.2.2,4.8.1,3.2.3,6.4.5,9.6a90.448,90.448,0,0,0,1.1,9.1c-10.8,0-21.5-.1-32.3-.2-4.7-.2-10.1-.2-15.4-.3Zm117.7-11.1-.6,11-17.2.2c.8-3.7,1.4-7.4,2-11.2s1.2-7.7,1.8-11.5a31.557,31.557,0,0,1,1.3-5.5,26.744,26.744,0,0,1,2.5-5.1,30.354,30.354,0,0,1,3.4-4.6,26.494,26.494,0,0,1,4.1-4.1,22.634,22.634,0,0,0-4.8,3.5,33.759,33.759,0,0,0-4,4.4,26.994,26.994,0,0,0-3,5.2,13.969,13.969,0,0,0-.9,2.9c-.2,1-.4,1.9-.6,2.9-.6,3.9-1.1,7.8-1.4,11.6s-.5,7.6-.5,11.4l-15.9.1c-11.3.1-22.6.1-33.9.2h-1.6c.3-3.1.4-6.1.5-9.2,0-3.2,0-6.4-.2-9.6-.1-1.6-.2-3.2-.4-4.8a17.2,17.2,0,0,1-.1-4.5c0-.2.1-.3.1-.4s.2-.3.3-.4l.7-1c.4-.7.9-1.4,1.3-2.1a2.506,2.506,0,0,1,.4-.7l.1-.1a1.049,1.049,0,0,0,.3-.4c.1-.1.1-.2.2-.3l.3-.6a7.6,7.6,0,0,0,.4-1.1,3.091,3.091,0,0,0,.2-.8,14.768,14.768,0,0,0,2.1-.1,10.239,10.239,0,0,0,3-.8,18.288,18.288,0,0,0,2.8-1.4,9.509,9.509,0,0,0,2-1.5,11.406,11.406,0,0,1,1.1,1.1l3.2,3,1.6,1.5.8.8c.3.3.6.5.9.8a74.752,74.752,0,0,0,7.4,5.1l1.8,1.1-.3-2a13.363,13.363,0,0,0-1.1-3.7,25.784,25.784,0,0,1-1-3.3c-.6-2.3-1.1-4.6-1.7-6.9-.5-2.3-1.1-4.6-1.6-7l-.6-2.4a3.509,3.509,0,0,0,.8.5,25.222,25.222,0,0,0,5.7,2.3c3.8,1,7.7,1.8,11.6,2.5a92.691,92.691,0,0,0,11.8,1.4q3,.15,6,0c1,0,2-.1,2.9-.1a5.748,5.748,0,0,1,2.4.4,2.757,2.757,0,0,1,.9.7c.3.3.6.7.8.9a8.469,8.469,0,0,1,.8,2.4c.4,1.8.6,3.8.9,5.7a114.6,114.6,0,0,1,.6,11.7c0,4.1-.2,8-.4,11.9Zm-67.1-16.3a1.4,1.4,0,1,1-1.4,1.4A1.367,1.367,0,0,1,103.6,191.1Zm4.4-13.3a1.1,1.1,0,1,1-1.1,1.1A1.11,1.11,0,0,1,108,177.8Zm-3.8,30.6a1.3,1.3,0,1,1-1.3,1.3A1.4,1.4,0,0,1,104.2,208.4Z" transform="translate(-29.6 -151.8)" fill="#a62700"/>
      </g>
      <g id="svga-group-head" transform="translate(0 6.125) rotate(-3)">
        <g id="svga-group-ears-left-move" transform="translate(11.69 63.473)">
          <g id="svga-group-ears-left">
            <path id="SvgjsPath5450" d="M17.889,8.8S8.04.153,6.46,0C5.1-.128,1.732,7.071.242,11.621a5.2,5.2,0,0,0,.22,3.7c1.43,3.16,4.6,9.75,7.44,13.05a10.962,10.962,0,0,0,3.16.29c.76-.23,6.688-5,7.3-6.859s.739-9.969-.471-13Z" transform="translate(0.11 0.378)" fill="#f3d4cf"/>
            <path id="SvgjsPath5451" d="M18.849,12.551a34.171,34.171,0,0,1,.29,3.5c.05,1.17.05,2.34-.01,3.51-.03.59-.08,1.17-.15,1.76-.05.3-.09.59-.17.9a3.049,3.049,0,0,1-.41.85,15,15,0,0,1-2.179,2.48c-.78.74-1.58,1.44-2.389,2.12-.41.33-.82.67-1.25.98-.21.16-.43.31-.65.46l-.35.22a1.556,1.556,0,0,1-.47.17,6.065,6.065,0,0,1-1.61-.08c-.51-.07-1.02-.17-1.53-.28l-.12-.03-.07-.09a32.666,32.666,0,0,1-3.3-4.99c-.97-1.75-1.85-3.56-2.7-5.38L.532,15.9a5.41,5.41,0,0,1-.48-3.05,7.154,7.154,0,0,1,.39-1.48c.16-.47.33-.94.5-1.41.35-.93.7-1.86,1.07-2.78A36.316,36.316,0,0,1,4.6,1.86a8.385,8.385,0,0,1,.88-1.2,2.555,2.555,0,0,1,.6-.52A.894.894,0,0,1,6.54,0a1.723,1.723,0,0,1,.42.1,13.108,13.108,0,0,1,2.43,1.56c1.52,1.14,2.98,2.35,4.41,3.61s2.85,2.53,4.24,3.87a15.532,15.532,0,0,1,.81,3.41ZM9.059,2.241A13.583,13.583,0,0,0,6.77.821a1.834,1.834,0,0,0-.23-.07.362.362,0,0,0-.18.06,1.592,1.592,0,0,0-.45.39,8.437,8.437,0,0,0-.83,1.09,42.779,42.779,0,0,0-2.739,5.1c-.41.89-.81,1.78-1.16,2.71-.18.46-.35.92-.52,1.39a6.454,6.454,0,0,0-.4,1.41,5.108,5.108,0,0,0,.49,2.88q.63,1.365,1.32,2.7c.9,1.78,1.87,3.52,2.88,5.22a36,36,0,0,0,3.32,4.79l-.19-.11a11.012,11.012,0,0,0,2.91.29.771.771,0,0,0,.25-.1l.31-.2.62-.45c.41-.3.82-.63,1.23-.95.81-.66,1.6-1.34,2.369-2.06a16.919,16.919,0,0,0,2.109-2.3,2.54,2.54,0,0,0,.33-.63c.07-.24.12-.51.17-.78.08-.55.15-1.12.19-1.69.08-1.14.12-2.29.13-3.45s-.04-2.31-.13-3.46a14.25,14.25,0,0,0-.59-3.39c-2.96-2.34-5.91-4.75-8.919-6.97Z" fill="#e4b3ab"/>
            <path id="SvgjsPath5452" d="M15.839,11.05S6.349-.94,4.569.06-.009,6.709,0,8.589c.02,2.77,2.95,7.4,4.42,8.8a5.8,5.8,0,0,0,5.6,1.71c2.35-.54,5.818-8.049,5.818-8.049Z" transform="translate(2.391 5.451)" fill="#e4b3ab"/>
            <path id="SvgjsPath5453" d="M9.26,13.04c-.34-1.14-.73-2.26-1.13-3.37S7.3,7.462,6.85,6.37s-.93-2.16-1.46-3.21A29.619,29.619,0,0,0,3.649.11L3.579,0l-.07.11c-.66,1.04-1.28,2.1-1.879,3.2-.3.55-.58,1.1-.85,1.67S.271,6.14.041,6.73L0,6.82l.04.11c.41,1.24.84,2.46,1.29,3.69.22.61.48,1.21.73,1.81a15.366,15.366,0,0,0,.87,1.78l.17.27.22-.2a6.542,6.542,0,0,0,.77-.9,7.542,7.542,0,0,0,.61-1.03,5.228,5.228,0,0,0,.53-2.42V9.88l-.02-.04c-.44-.87-.91-1.73-1.36-2.6l-.05.03c.37.91.74,1.83,1.13,2.73l-.02-.09a4.993,4.993,0,0,1-.61,2.16,6.61,6.61,0,0,1-1.32,1.7l.39.07a15.551,15.551,0,0,1-.81-1.69l-.72-1.79c-.48-1.2-.93-2.41-1.38-3.62v.2A32.533,32.533,0,0,1,1.84,3.47,22.365,22.365,0,0,1,3.639.25H3.5A20.5,20.5,0,0,1,5.05,3.36L6.41,6.6,7.79,9.84c.46,1.08.92,2.16,1.41,3.23l.06-.03Z" transform="translate(2.881 6.81)" fill="#c5796d"/>
          </g>
        </g>
        <g id="svga-group-ears-right-move" transform="translate(98.115 63.492)">
          <g id="svga-group-ears-right">
            <path id="SvgjsPath5454" d="M.924,8.8S10.772.153,12.352,0c1.36-.13,4.73,7.07,6.22,11.62a5.2,5.2,0,0,1-.22,3.7c-1.429,3.16-4.6,9.749-7.437,13.048a10.961,10.961,0,0,1-3.159.29c-.76-.23-6.689-5-7.3-6.86s-.741-9.969.469-13Z" transform="translate(0.233 0.368)" fill="#f3d4cf"/>
            <path id="SvgjsPath5455" d="M1.127,9.139c1.4-1.34,2.8-2.62,4.239-3.869s2.9-2.47,4.409-3.609A14.219,14.219,0,0,1,12.2.1a1.361,1.361,0,0,1,.42-.1.894.894,0,0,1,.46.14,2.776,2.776,0,0,1,.6.52,9.232,9.232,0,0,1,.88,1.2,36.335,36.335,0,0,1,2.59,5.32c.38.92.72,1.85,1.07,2.78.17.47.34.94.5,1.41a7.154,7.154,0,0,1,.39,1.48,5.409,5.409,0,0,1-.48,3.05l-1.249,2.75c-.85,1.82-1.729,3.63-2.7,5.379a32.163,32.163,0,0,1-3.3,4.989l-.07.09-.11.02c-.51.11-1.02.2-1.53.28a6.515,6.515,0,0,1-1.61.08,1.4,1.4,0,0,1-.47-.17l-.35-.22c-.22-.15-.44-.3-.65-.46-.43-.32-.84-.65-1.25-.98-.82-.67-1.62-1.38-2.39-2.12a14.611,14.611,0,0,1-2.18-2.48,3.051,3.051,0,0,1-.41-.85,6.163,6.163,0,0,1-.17-.9c-.07-.59-.12-1.18-.15-1.76-.06-1.17-.06-2.34-.01-3.51s.13-2.34.29-3.5a13.791,13.791,0,0,1,.8-3.4Zm.06.05a15.224,15.224,0,0,0-.59,3.39c-.09,1.15-.14,2.31-.13,3.46s.05,2.3.13,3.45c.04.57.11,1.14.19,1.69.05.27.1.54.17.78a2.378,2.378,0,0,0,.33.63,16.928,16.928,0,0,0,2.11,2.3c.76.72,1.56,1.41,2.37,2.06.41.33.81.65,1.23.95l.62.45.31.2a.771.771,0,0,0,.25.1,11.011,11.011,0,0,0,2.91-.29l-.19.11a35.984,35.984,0,0,0,3.319-4.789q1.522-2.563,2.879-5.219c.45-.89.9-1.79,1.32-2.7a5.108,5.108,0,0,0,.49-2.88,6.458,6.458,0,0,0-.4-1.41c-.16-.47-.34-.93-.52-1.39-.35-.92-.76-1.82-1.16-2.71a42.8,42.8,0,0,0-2.74-5.1,8.441,8.441,0,0,0-.83-1.09,2.548,2.548,0,0,0-.45-.39.314.314,0,0,0-.18-.06c-.05,0-.15.06-.23.07A13.575,13.575,0,0,0,10.1,2.221C7.086,4.45,4.136,6.86,1.187,9.189Z" fill="#e4b3ab"/>
            <path id="SvgjsPath5456" d="M0,11.048S9.488-.94,11.268.06s4.58,6.65,4.57,8.53c-.02,2.77-2.949,7.4-4.418,8.8a5.821,5.821,0,0,1-5.6,1.709C3.471,18.558,0,11.048,0,11.048Z" transform="translate(0.927 5.44)" fill="#e4b3ab"/>
            <path id="SvgjsPath5457" d="M0,13.039c.34-1.14.73-2.26,1.129-3.37s.84-2.21,1.279-3.3S3.34,4.21,3.87,3.16A29.6,29.6,0,0,1,5.609.111L5.679,0l.07.11c.66,1.04,1.28,2.1,1.88,3.2.3.55.58,1.1.85,1.67s.51,1.16.74,1.75l.04.09-.04.11c-.41,1.24-.84,2.46-1.289,3.69-.22.61-.48,1.21-.73,1.81a15.361,15.361,0,0,1-.87,1.78l-.17.27-.22-.2a6.546,6.546,0,0,1-.77-.9,7.549,7.549,0,0,1-.61-1.03,5.229,5.229,0,0,1-.53-2.42V9.88l.02-.04c.44-.87.91-1.73,1.36-2.6l.05.03C5.09,8.18,4.72,9.1,4.33,10l.02-.09a5,5,0,0,0,.61,2.16,6.614,6.614,0,0,0,1.32,1.7l-.39.07a15.54,15.54,0,0,0,.81-1.69l.72-1.79c.48-1.2.93-2.41,1.379-3.62v.2a32.544,32.544,0,0,0-1.38-3.47,22.376,22.376,0,0,0-1.8-3.22h.14A20.489,20.489,0,0,0,4.21,3.36L2.85,6.6,1.471,9.839c-.46,1.08-.92,2.16-1.409,3.23L0,13.039Z" transform="translate(7.016 6.8)" fill="#c5796d"/>
          </g>
        </g>
        <g id="svga-group-faceshape-wrap" transform="translate(25.94 14.05)">
          <g id="svga-group-faceshape-single" transform="translate(0 0.001)">
            <path id="SvgjsPath5803" d="M70.578,17.6C64.754,10.2,60.755,4.405,45.544.3A62.745,62.745,0,0,0,33.289.3C18.079,4.4,14.081,10.2,8.259,17.6,2.089,25.393,0,46.587,0,46.587c0,21.394,2.35,35.191,4.35,41.289,2,6.2,18.342,25.2,21.645,26.995s13.472,2.3,13.472,2.3,10.082-.6,13.472-2.3c3.3-1.8,19.641-20.792,21.639-26.99S79.014,67.99,78.925,46.6c-.087,0-2.175-21.195-8.347-28.993Z" transform="translate(0 0.003)" fill="#f3d4cf"/>
            <path id="SvgjsPath5804" d="M45.544.3A62.745,62.745,0,0,0,33.289.3C18.079,4.4,14.081,10.2,8.259,17.6,2.089,25.393,0,46.587,0,46.587c0,21.394,2.35,35.191,4.35,41.289,2,6.2,18.342,25.2,21.645,26.995s13.472,2.3,13.472,2.3,10.082-.6,13.472-2.3c3.3-1.8,19.641-20.792,21.639-26.99S79.014,67.99,78.925,46.6c0,0-2.088-21.194-8.26-28.993-5.911-7.4-9.91-13.2-25.121-17.3ZM75.968,31.5A75.67,75.67,0,0,1,77.36,39c.348,2.5.7,5,.87,7.5-.087,3.9-.26,7.8-.607,11.7l-.26,2.9-.26,2.9-.26,2.9-.347,2.9c-.521,3.9-1.042,7.7-1.824,11.4-.434,1.9-.869,3.7-1.39,5.5a30.623,30.623,0,0,1-2.346,4.6c-1.043,1.5-2.086,3-3.215,4.5s-2.26,2.9-3.389,4.4c-2.26,2.9-4.693,5.6-7.126,8.3a46.838,46.838,0,0,1-3.737,3.8,9.338,9.338,0,0,1-1.825,1.3,15.405,15.405,0,0,1-2.26.7c-1.564.4-3.3.6-4.954.9-1.651.2-3.3.4-4.954.5-1.651-.1-3.3-.2-4.954-.4s-3.39-.4-4.954-.7a10.3,10.3,0,0,1-4.172-1.9,46.274,46.274,0,0,1-3.825-3.7c-2.521-2.6-4.955-5.3-7.3-8.2a105.644,105.644,0,0,1-6.78-8.8c-.522-.8-1.043-1.5-1.478-2.3a7.793,7.793,0,0,1-.609-1.2l-.261-.6a5.288,5.288,0,0,1-.261-.7,57.769,57.769,0,0,1-1.478-5.6q-.652-2.849-1.044-5.7c-.174-1-.261-1.9-.435-2.9l-.348-2.9A191.465,191.465,0,0,1,.613,46.687a117.963,117.963,0,0,1,2.606-13.7c.608-2.2,1.216-4.5,2-6.6a31.473,31.473,0,0,1,1.217-3.1,28.747,28.747,0,0,1,1.477-2.9,34.815,34.815,0,0,1,4-5.2,51.067,51.067,0,0,1,4.345-4.7,37.06,37.06,0,0,1,4.954-3.7A36.47,36.47,0,0,1,26.684,4l1.391-.6a51.93,51.93,0,0,1,7.214-2.1c1.043-.1,2-.1,3.042-.2,2-.1,4.042-.14,6.041-.139.087,0,2.912.64,2.912.64l1.565.4,1.478.4a32.434,32.434,0,0,1,5.824,2.3c.261.1.435.2.7.3l.7.4c.435.3.956.5,1.391.8l1.3.9,1.3.9a26.727,26.727,0,0,1,4.694,4.5c1.478,1.7,2.869,3.4,4.259,5.2a23.977,23.977,0,0,1,3.39,6.6,51.825,51.825,0,0,1,2.087,7.2Z" transform="translate(0 0.003)" fill="#c5796d"/>
          </g>
        </g>
        <g id="svga-group-mouth-single-move" transform="translate(47.852 99.6)">
          <g id="svga-group-mouth-single" transform="translate(0 0)">
            <path id="SvgjsPath7572" d="M0,0S7.34,2.64,14.229,1.871c0,0,1.221,1.4,2.021,1.541s2.518-1.351,2.518-1.351a27.192,27.192,0,0,0,6.26.92c2.49-.09,7.8-.629,10.239-2.118,0,0-3.889,8.658-7.388,12.117a15.616,15.616,0,0,1-16.212,3.393C5.018,14.063.4,1.57,0,0Z" fill="#ce4f4f"/>
            <path id="SvgjsPath7573" d="M.005,0S4.873,9.219,9.8,10.878s9.4,1.884,13.688-1.405A36.674,36.674,0,0,0,31.126.633S21.916,2.76,14.306,2.354-.215.17.005,0Z" transform="translate(1.649 2.508)"/>
            <path id="SvgjsPath7574" d="M14.284,1.793A79.173,79.173,0,0,1,0,0C.1.173.96,1.234,2.063,2.821A18.391,18.391,0,0,0,6.021,4.547l.813-.966L6.621,4.627a59.91,59.91,0,0,0,8.757,1.458,43.831,43.831,0,0,0,9.937-.807l.4-.757.116.541a6.786,6.786,0,0,0,1.461-.353A46.009,46.009,0,0,0,31.3.4s-9.666,1.708-17.02,1.4Z" transform="translate(1.62 2.492)" fill="#fff"/>
          </g>
        </g>
        <g id="svga-group-eyes-left-move" transform="matrix(0.978, -0.208, 0.208, 0.978, 26.495, 61.694)">
          <g id="svga-group-eyes-left">
            <g id="svga-group-eyesback-left" transform="translate(2.181 0.5)">
              <path id="SvgjsPath7104" d="M13.5,0A13.218,13.218,0,0,1,27,13,13.212,13.212,0,0,1,13.5,26,13.218,13.218,0,0,1,0,13,13.212,13.212,0,0,1,13.5,0Z" fill="#fff"/>
            </g>
            <g id="svga-group-eyesiriswrapper-left" transform="translate(10.08 7.9)">
              <g id="svga-group-eyesiriscontrol-left">
                <g id="svga-group-eyesiris-left">
                  <path id="SvgjsPath5522" d="M5.6,0A5.6,5.6,0,1,1,0,5.6,5.592,5.592,0,0,1,5.6,0Z" fill="#573008"/>
                  <path id="SvgjsPath5523" d="M3,0A2.947,2.947,0,0,1,6,3,2.945,2.945,0,0,1,3,6,2.947,2.947,0,0,1,0,3,2.945,2.945,0,0,1,3,0Z" transform="translate(2.6 2.6)"/>
                  <path id="SvgjsPath5524" d="M2.5.9,1.9.3A1.136,1.136,0,0,0,1.1,0,1.135,1.135,0,0,0,.3.3a1.135,1.135,0,0,0-.3.8,1.136,1.136,0,0,0,.3.8l.6.6a1.136,1.136,0,0,0,.8.3,1.135,1.135,0,0,0,.8-.3A1.21,1.21,0,0,0,2.5.9ZM5.2,6a.75.75,0,0,0,0-1.5A.754.754,0,0,0,5.2,6Z" transform="translate(2.4 2.3)" fill="#fff"/>
                </g>
              </g>
            </g>
            <g id="svga-group-eyesfront-left">
              <path id="SvgjsPath7112" d="M14.1,0A13.851,13.851,0,0,0,0,13.6,13.858,13.858,0,0,0,14.1,27.2,13.851,13.851,0,0,0,28.2,13.6,13.858,13.858,0,0,0,14.1,0ZM11,16.8c-5-2-8.7-5.1-9-5.9S8.6,8.7,11.6,9s10.2,3.4,11.2,4.9a21.882,21.882,0,0,1,1.9,4.5C20.1,20,16,18.8,11,16.8Z" transform="translate(1.581 0)" fill="#f3d4cf"/>
              <path id="SvgjsPath7113" d="M23.915,8.678a12.989,12.989,0,0,0-3.982-3.064A30.39,30.39,0,0,0,12.88,3.639c-.3-.1-2.1,0-4.3,0a9.442,9.442,0,0,1-2.6-3.3.517.517,0,0,0-.7-.3.516.516,0,0,0-.3.7,8.477,8.477,0,0,0,2.1,3,10.866,10.866,0,0,1-1.8.1,9.507,9.507,0,0,1-2.9-2.8.527.527,0,0,0-.7-.2.527.527,0,0,0-.2.7,7.71,7.71,0,0,0,2.1,2.3c-1.3.1-2.5.1-3.3.2a.317.317,0,0,0-.1.6l3.4,1.8v.1c.1.2.2.2.3.4l1.2,1.2a18.484,18.484,0,0,0,2.7,1.9,24.9,24.9,0,0,0,5.9,2.9,23.558,23.558,0,0,0,6.3,1.7,12.594,12.594,0,0,0,6.4-.7c.1.2.1.3.2.5.2.3.7.2.6-.2-.4-1.8-2.263-4.161-3.263-5.561Zm-4.036,5.66a33.8,33.8,0,0,1-6.2-1.8,38.785,38.785,0,0,1-5.8-2.8l-2.7-1.8a11.987,11.987,0,0,1-1.2-1.1l-.1-.1a72.2,72.2,0,0,1,8.742-1.655,19.889,19.889,0,0,1,6.558,1.9,17.221,17.221,0,0,1,3.634,3.1c.5.6,2.663,2.361,3.463,4.061a19.66,19.66,0,0,1-6.4.2Z" transform="translate(0 4.462)"/>
            </g>
          </g>
        </g>
        <g id="svga-group-eyes-right-move" transform="matrix(0.966, 0.259, -0.259, 0.966, 74.223, 54.873)">
          <g id="svga-group-eyes-right" transform="translate(0)">
            <g id="svga-group-eyesback-right" transform="translate(0.6 0.5)">
              <path id="SvgjsPath7105" d="M13.5,0A13.218,13.218,0,0,1,27,13,13.212,13.212,0,0,1,13.5,26,13.218,13.218,0,0,1,0,13,13.212,13.212,0,0,1,13.5,0Z" fill="#fff"/>
            </g>
            <g id="svga-group-eyesiriswrapper-right" transform="translate(9.2 8.599)">
              <g id="svga-group-eyesiriscontrol-right">
                <g id="svga-group-eyesiris-right">
                  <path id="SvgjsPath5525" d="M4.9,0A4.9,4.9,0,1,1,0,4.9,4.908,4.908,0,0,1,4.9,0Z" fill="#573008"/>
                  <path id="SvgjsPath5526" d="M2.7,0A2.7,2.7,0,1,1,0,2.7,2.689,2.689,0,0,1,2.7,0Z" transform="translate(2.2 2.2)"/>
                  <path id="SvgjsPath5527" d="M2.2.8C2,.6,1.9.4,1.7.3A1.494,1.494,0,0,0,1,0,1.08,1.08,0,0,0,.3.3.908.908,0,0,0,0,1a1.08,1.08,0,0,0,.3.7c.2.2.4.3.5.5a.779.779,0,0,0,.7.3,1.08,1.08,0,0,0,.7-.3A1.191,1.191,0,0,0,2.2.8ZM4.6,5.3A.652.652,0,0,0,4.6,4,.652.652,0,0,0,4.6,5.3Z" transform="translate(2.1 2)" fill="#fff"/>
                </g>
              </g>
            </g>
            <g id="svga-group-eyesfront-right">
              <path id="SvgjsPath7114" d="M14.1,0A13.851,13.851,0,0,0,0,13.6,13.857,13.857,0,0,0,14.1,27.2,13.852,13.852,0,0,0,28.2,13.6,13.857,13.857,0,0,0,14.1,0Zm3.4,16.1a46.074,46.074,0,0,1-13,3.6,51.677,51.677,0,0,1,2.7-5.4c1-1.5,9.3-5,12-5.1s7.1,1.9,6.7,2.7c-.3.7-3.7,2.3-8.4,4.2Z" fill="#f3d4cf"/>
              <path id="SvgjsPath7117" d="M25.815,4.321c-.8-.1-2-.2-3.3-.4a4.387,4.387,0,0,0,1.1-1.4.627.627,0,0,0-.2-.8.43.43,0,0,0-.7.2,6.384,6.384,0,0,1-1.8,1.8c-.5-.1-1-.1-1.4-.2a5.718,5.718,0,0,0,1.2-2.8.752.752,0,0,0-.5-.7.5.5,0,0,0-.6.5,4.39,4.39,0,0,1-1.5,2.7l-.1.1a28.007,28.007,0,0,0-4-.3A18.352,18.352,0,0,0,8.755,4.138,16.657,16.657,0,0,0,3.018,8.349a17.175,17.175,0,0,0-3,5.868.225.225,0,0,0,.4.2c.1-.1.1-.3.2-.4a42.731,42.731,0,0,0,11.6-2.8q2.85-1.05,5.7-2.4a19.1,19.1,0,0,0,2.8-1.5c.2-.1.4-.3.7-.5l.3-.3,4-1.8c.4-.1.4-.4.1-.4Zm-5.1,2.6a23.935,23.935,0,0,1-2.8,1.3c-.9.4-1.9.8-2.8,1.2s-1.9.8-2.9,1.2a56.634,56.634,0,0,1-5.8,2,54.731,54.731,0,0,1-5.5,1.3c.8-1.8,2.7-3.469,3.3-4.169a17.523,17.523,0,0,1,5.4-3.938,19.8,19.8,0,0,1,6.825-1.45c1.382.038,4.072,1.759,4.772,2.259a2.186,2.186,0,0,0-.5.3Z" transform="translate(4.084 5.58)"/>
            </g>
          </g>
        </g>
        <g id="svga-group-eyebrows-left-move" transform="matrix(0.995, -0.105, 0.105, 0.995, 27.423, 58.973)">
          <g id="svga-group-eyebrows-left-rotate">
            <g id="svga-group-eyebrows-left">
              <path id="SvgjsPath7539" d="M0,9.193S2.73,3.125,7.31.906c5.979-2.9,21.189,2.042,22.069,2.672s.35,3.769-1.129,3.919-8.53-2.96-13.8-4.331S4.49,3.165,0,9.193Z" transform="translate(0.027 0.31)" fill="#5c3c22"/>
              <path id="SvgjsPath7540" d="M.018,9.534c.12-.13.26-.26.39-.42l.37-.43c.24-.28.49-.55.74-.81A18.543,18.543,0,0,1,3.1,6.385,13.431,13.431,0,0,1,6.707,4.146a10.491,10.491,0,0,1,4.1-.779,15.023,15.023,0,0,1,4.18.67c2.78.78,5.52,1.77,8.27,2.72a38.246,38.246,0,0,0,4.22,1.28,3.553,3.553,0,0,0,.57.07,1.434,1.434,0,0,0,.64-.1,1.9,1.9,0,0,0,.88-.87,3.75,3.75,0,0,0,.4-1.12,3.7,3.7,0,0,0,.05-1.2,2.4,2.4,0,0,0-.16-.61.991.991,0,0,0-.44-.51,9.872,9.872,0,0,0-1.05-.41c-.7-.23-1.39-.45-2.09-.66q-2.1-.611-4.22-1.12A48.994,48.994,0,0,0,13.466.037,16.464,16.464,0,0,0,9.1.307a8.183,8.183,0,0,0-2.11.75A11.062,11.062,0,0,0,5.137,2.3a16.984,16.984,0,0,0-2.979,3.3,19.43,19.43,0,0,0-1.18,1.9c-.18.33-.35.66-.52.99-.08.17-.16.34-.24.5l-.11.26-.06.13-.02.06-.01.03-.01.02a.035.035,0,0,0,.01.05Zm.03-.07A22.887,22.887,0,0,1,5.487,2.736a11.123,11.123,0,0,1,1.78-1.13,7.764,7.764,0,0,1,1.97-.67,20.478,20.478,0,0,1,4.23-.3,36.466,36.466,0,0,1,4.29.34c1.43.18,2.85.43,4.27.75s2.81.7,4.2,1.13c.69.21,1.39.45,2.06.71.33.13.68.27.98.42a1.024,1.024,0,0,1,.36.84,3.6,3.6,0,0,1-.48,2.019,1.37,1.37,0,0,1-.67.62.955.955,0,0,1-.42.05,3.316,3.316,0,0,1-.5-.09c-.68-.16-1.37-.39-2.05-.62l-2.06-.74c-2.74-.99-5.47-2.05-8.3-2.83a15.041,15.041,0,0,0-4.37-.62,11.176,11.176,0,0,0-4.3.959,13.112,13.112,0,0,0-3.639,2.5,15.4,15.4,0,0,0-1.51,1.619c-.23.29-.47.57-.69.87A2.955,2.955,0,0,0,.328,9a3.335,3.335,0,0,1-.28.46Z" fill="#4d2e15"/>
            </g>
          </g>
        </g>
        <g id="svga-group-eyebrows-right-move" transform="matrix(0.996, 0.087, -0.087, 0.996, 74.89, 54.924)">
          <g id="svga-group-eyebrows-right-rotate">
            <g id="svga-group-eyebrows-right">
              <path id="SvgjsPath7541" d="M28.556,8.052s-2.84-5.429-7.28-7.338C15.465-1.776,1.156,3.012.356,3.591S.166,7.01,1.586,7.111s8-2.858,12.979-4.218c4.95-1.339,9.48-.189,13.99,5.16Z" transform="translate(0.221 0.31)" fill="#5c3c22"/>
              <path id="SvgjsPath7542" d="M28.806,8.332l-.01-.02-.02-.03-.03-.06-.06-.12-.12-.23c-.08-.15-.16-.31-.25-.45-.18-.3-.35-.59-.54-.88a18.4,18.4,0,0,0-1.2-1.69,15.8,15.8,0,0,0-2.97-2.919A11.749,11.749,0,0,0,21.8.844a8.471,8.471,0,0,0-2.04-.63,16.759,16.759,0,0,0-4.18-.15,49.566,49.566,0,0,0-8.13,1.509c-1.33.35-2.66.7-3.97,1.1-.66.2-1.31.41-1.96.64a8.676,8.676,0,0,0-.98.39.869.869,0,0,0-.4.47,2.17,2.17,0,0,0-.13.56,3.635,3.635,0,0,0,.52,2.1,1.854,1.854,0,0,0,.88.77,1.456,1.456,0,0,0,.62.08,2.345,2.345,0,0,0,.54-.09,35.822,35.822,0,0,0,3.96-1.249c2.58-.92,5.16-1.869,7.78-2.639a14.9,14.9,0,0,1,3.96-.689,10.724,10.724,0,0,1,3.93.62,13.273,13.273,0,0,1,3.53,1.95c.54.41,1.06.86,1.56,1.32.25.23.49.47.74.71l.36.38c.13.14.27.26.39.37.02.01.03-.02.03-.03Zm-.34-.4c-.08-.11-.21-.26-.32-.39-.22-.27-.45-.52-.69-.77a15.74,15.74,0,0,0-1.51-1.43,13.206,13.206,0,0,0-3.55-2.18,11.184,11.184,0,0,0-4.13-.78,14.334,14.334,0,0,0-4.14.649c-2.66.76-5.22,1.779-7.79,2.739l-1.92.71c-.64.23-1.29.45-1.93.62a4.3,4.3,0,0,1-.47.09.885.885,0,0,1-.4-.03,1.362,1.362,0,0,1-.66-.54A3.131,3.131,0,0,1,.427,4.8a.887.887,0,0,1,.31-.76,9.788,9.788,0,0,1,.92-.41c.64-.25,1.28-.48,1.93-.69,1.3-.42,2.63-.8,3.95-1.119,1.34-.32,2.68-.57,4.04-.769a40.333,40.333,0,0,1,4.07-.4,18.668,18.668,0,0,1,4.03.18,7.3,7.3,0,0,1,1.9.56,11.16,11.16,0,0,1,1.75.98,21.876,21.876,0,0,1,5.45,5.969c-.13-.15-.22-.3-.31-.41Z" fill="#4d2e15"/>
            </g>
          </g>
        </g>
        <g id="svga-group-nose-single-move" transform="translate(56.836 75.969) rotate(3)">
          <g id="svga-group-nose-single" transform="translate(0 0.029)">
            <path id="SvgjsPath6133" d="M.242,14.824a6.739,6.739,0,0,1,1.3-2.08,9.876,9.876,0,0,0-1,2.2A2.746,2.746,0,0,0,.43,16.078a1.151,1.151,0,0,0,.188.481,2.049,2.049,0,0,0,.335.427A2.152,2.152,0,0,0,2.87,17.6a3.4,3.4,0,0,0,1.045-.318,7.62,7.62,0,0,0,.922-.49,11.7,11.7,0,0,1-.726-1.408c.7.727,1.355,1.462,2.057,2.107a5.266,5.266,0,0,0,2.108.655.866.866,0,0,0,.22-.027A1.085,1.085,0,0,0,8.707,18a10.176,10.176,0,0,0,1.654-.782c.71-.672,1.428-1.344,2.2-1.971a17.269,17.269,0,0,1-1.2,1.789,5.221,5.221,0,0,0,1.094.418,1.981,1.981,0,0,0,1.322-.082,2.4,2.4,0,0,0,1.1-2.343,1.49,1.49,0,0,0-.212-.59c-.122-.209-.261-.418-.4-.627-.286-.409-.588-.818-.906-1.208l-.473-.59a6.755,6.755,0,0,1-.473-.672,8.594,8.594,0,0,1-.767-1.462,7.49,7.49,0,0,1-.425-1.644c-.082-.536-.163-1.072-.212-1.608-.106-1.072-.2-2.144-.221-3.224-.065-2.153.2-1.332.483-3.4a16.407,16.407,0,0,0,.17,3.353c.106,1.054.212,2.116.359,3.161.073.527.147,1.045.229,1.562A6.012,6.012,0,0,0,12.409,9.5a8.172,8.172,0,0,0,.669,1.317,5.276,5.276,0,0,0,.408.59c.163.209.318.409.473.618.31.418.6.854.89,1.3.139.227.286.454.408.7a2.223,2.223,0,0,1,.261.908A2.832,2.832,0,0,1,13.9,17.769a2.174,2.174,0,0,1-1.518-.091,4.564,4.564,0,0,1-1.069-.609c-.171.227-.335.454-.514.672a3.2,3.2,0,0,1-2.348,1.179,5.689,5.689,0,0,1-2.777-.88,10.217,10.217,0,0,1-.865-1.217,4.071,4.071,0,0,1-1.926,1.153,2.517,2.517,0,0,1-1.191,0A2.411,2.411,0,0,1,.626,17.34a2.878,2.878,0,0,1-.392-.518,1.446,1.446,0,0,1-.229-.663,3.214,3.214,0,0,1,.237-1.335Z" transform="translate(0.536)" fill="#c5796d"/>
          </g>
        </g>
        <g id="svga-group-hair-front" transform="translate(0 0.005)">
          <path id="SvgjsPath6946" d="M110.288,36.6C109.064,28.514,99.259,21.908,96.38,21.01c0,0,.671-4.49-4.128-7.683,0,0-3.744-5.488-9.407-5.888,0,0-10.847-7.684-18.333-6.388,0,0-22.173-5.69-40.984,9.475C13.577,18.548,6.7,26.03,2.2,45.357S1.92,81.539,5.537,87.837C13.121,101.208,9,114.378,3.813,123.856c-3.014,5.412-5.721,21.95-1.966,34.4,2.694,8.933,10.972,14.389,14.884,17.9,9.119,8.183,9.12,15.367,7.873,19.258,0,0,4.8-3.891,1.534-16.064a13.18,13.18,0,0,1,3.936,7.883,27.252,27.252,0,0,0-.673-13.37c-2.208-7.484-.673-12.372,2.014-16.663a15.6,15.6,0,0,0,.96-1.9c1.056-1.4,4.51-6.685,5.758-8.78,5.95-9.578,5.469-17.66-.1-29.135l-.288-.3c.671-7.184,1.15-16.962-.29-24.146-2.593-12.672-6.529-21.752-6.722-27.34-.193-5.687-2.4-15.865,4.8-25.542S48.965,27.69,54.244,26.893c7.007-1,19.292-1.894,24.187-.8a34.832,34.832,0,0,1,8.063,2.795,110.389,110.389,0,0,1,8.064,11.276c3.072,5.189,5.184,12.672,6.145,16.763.864,4.091,2.718,17.885,2.718,17.885s5.25-11.5,5.729-16.487c.383-5.188,2.363-13.65,1.139-21.732Z" transform="translate(0.02 0)" fill="#844b11"/>
        </g>
        <path id="Path_26935" data-name="Path 26935" d="M.867,0C.661.659-.194,1.512.04,2.635A10.62,10.62,0,0,0,.6,4.517" transform="translate(89.926 99.565)" fill="none" stroke="#cb857a" stroke-linecap="round" stroke-width="1"/>
      </g>
    </g>
  </g>
  <path id="Path_26936" data-name="Path 26936" d="M116.7,43.349s-10.812,14.791-24.89,25.3S60.388,85.375,60.388,85.375s-1.53-26.828,12.649-36.722S116.7,43.349,116.7,43.349Z" transform="translate(0 -0.095)" fill="#844b11"/>
  <path id="Path_26939" data-name="Path 26939" d="M12.42,0A27.491,27.491,0,0,0,5.811,2.659,26.04,26.04,0,0,0,0,7.365a10.634,10.634,0,0,1,4.258-4.8A21.821,21.821,0,0,1,12.42,0Z" transform="translate(115.189 37.891)" fill="#724110"/>
  <path id="SvgjsPath7479" d="M64.566,148.615a60.6,60.6,0,0,1-9.486,14.7c-9.078,10.7-10.914,17.4-7.548,25.8s7.956,12.8,9.486,16.5a17.555,17.555,0,0,1,1.122,7.6s1.938-4.1,1.122-7.2c-.714-3.1-7.548-13.9-8.568-20a24.821,24.821,0,0,1,4.284-18.7c3.57-4.9,7.752-11.6,9.588-18.7Zm1.938,1.5s-2.55,11.6-6.12,17.4-4.692,13-2.04,19.1,7.752,14.1,7.344,19.4c0,0,3.468-6.4.2-13s-4.386-16.4-1.734-23.1c2.652-6.6,2.958-15.2,2.346-19.8Z" transform="translate(6.676 -13.612)" fill="#724110"/>
  <path id="SvgjsPath7479-2" data-name="SvgjsPath7479" d="M9.111,0s-1.739,7.156,0,0Zm0,0S6.7,11.692,3.315,17.538s-4.443,13.1-1.932,19.251S8.724,51,8.338,56.342c0,0,3.284-6.451.193-13.1S4.378,26.71,6.889,19.957C9.4,13.3,9.69,4.636,9.111,0Z" transform="matrix(0.53, 0.848, -0.848, 0.53, 109.798, 37.879)" fill="#724110"/>
  <path id="SvgjsPath7478" d="M129.431,50.047a6.576,6.576,0,0,1-6.175.794c-4.151-1.787-7.491-7.941-10.933-11.614-5.77-6.154-7.289-9.331-20.551-10.025a47.537,47.537,0,0,0-21.259,3.772C56.137,41.412,44.7,52.628,43.28,73.275c-1.417,20.944,2.43,32.856,5.973,41.392s.911,21.441-3.948,31.664-10.63,20.15-11.237,32.856,3.341,20.845,12.654,27.694c5.973,4.368,7.491,7.941,7.491,7.941-1.62-4.467-4.049-6.253-8.807-10.522-4.859-4.268-9.516-16.279-8.5-25.411s9.82-24.815,13.971-31.168,7.491-17.271,8.909-23.128.2-10.72-3.948-20.746-6.378-36.23-5.669-40.7c1.114-8.239,3.138-13.9,9.516-20.448C69.2,32.974,81.547,31.485,88.937,31.386c11.946-.1,20.247,7.643,21.766,9.827s10.63,11.812,12.958,12.209,8.1-3.375,8.1-3.375l.709-.6a5.841,5.841,0,0,0,0-2.581,9.669,9.669,0,0,1-3.037,3.176Zm-25.714,9.728a3.51,3.51,0,0,0,1.012-.1,2.563,2.563,0,0,0,.81-.1c.4,0,.911-.1,1.316-.1.2,0,.506-.1.81-.1s.709-.1,1.012-.1.607-.1.911-.1.607-.1.911-.1c.2,0,.4-.1.607-.1a5.174,5.174,0,0,1,1.215-.2c.2,0,.4-.1.607-.1a5.318,5.318,0,0,1,1.114-.2c.2,0,.3-.1.4-.1a3.006,3.006,0,0,1,.911-.2.377.377,0,0,0,.3-.1c.4-.1.81-.2,1.114-.3a.377.377,0,0,0,.3-.1c.4-.1.709-.2,1.114-.3a10.224,10.224,0,0,0,3.818-2.044S102.4,46.7,96.429,44.42C89.545,41.74,69.3,40.185,61.5,56.464s-3.341,24.354,0,31.2,8.605,19.952,8.4,28.488c-.2,8.636-2.328,20.845-4.657,26.205s-17.817,24.22-21.057,33.054c-3.341,9.231-4.454,15.485,3.543,28.091,3.037,4.864,5.062,6.253,5.872,8.04-1.215-4.963-3.138-8.934-6.58-14.1-4.049-6.253-4.049-14.988,0-23.525S65.248,150.7,70.107,131.442,66.665,96.6,65.451,84.69s8.4-31.962,23.082-26.9a31.478,31.478,0,0,0,5.872,1.39h.1c.2,0,.4.1.709.1.4,0,.81.1,1.215.1a2.01,2.01,0,0,1,.81.1c.4,0,.81.1,1.316.1h4.151a.981.981,0,0,0,1.012.2Z" transform="translate(-6.175 -10.799)" fill="#724110"/>
</svg>
