<svg id="maryam" xmlns="http://www.w3.org/2000/svg" width="200" height="220" viewBox="0 0 200 220">
  <g id="svga-group-backs-single">
    <path id="SvgjsPath6550" d="M0,0H200V220H0Z" fill="#e8e4bc"/>
  </g>
  <g id="svga-group-humanwrap-move" transform="translate(20.634 36.572)">
    <g id="svga-group-humanwrap" transform="translate(0 0)">
      <g id="svga-group-hair-back-move" transform="translate(144.504 159.053) rotate(177)">
        <g id="svga-group-hair-back" transform="translate(0 0)">
          <path id="SvgjsPath6229" d="M21.788,0S6.139,1.2,2.4,9.6s-3.552,29.094,3.84,43.591c7.3,14.6,4.992,39.892,4.992,39.892,10.176,20,53.472,3.9,52.992-9.9S44.54,31.394,38.4,21.3,24.86.2,24.86.2L21.788,0Z" fill="#93631a"/>
        </g>
      </g>
      <g id="svga-group-hair-back-move-2" data-name="svga-group-hair-back-move" transform="translate(29.87 58.724) rotate(3)">
        <g id="svga-group-hair-back-2" data-name="svga-group-hair-back" transform="translate(0 0)">
          <path id="SvgjsPath6229-2" data-name="SvgjsPath6229" d="M21.788,102.47s-15.648-1.2-19.392-9.6-3.552-29.094,3.84-43.591c7.3-14.6,4.992-39.892,4.992-39.892,10.176-20,53.472-3.9,52.992,9.9S44.54,71.076,38.4,81.174s-13.536,21.1-13.536,21.1l-3.072.2Z" fill="#93631a"/>
        </g>
      </g>
      <g id="svga-group-humanbody-back" transform="translate(10.834 63.994)">
        <path id="SvgjsPath3590" d="M77.8,105.9s4.8,37.7,10,55.8c0,0-6.4,8.8-14.5,11.9-28.7,11.2-35,11.2-39.6,15.2-2.4,2.1.2,11.1,1.8,17.2a83.315,83.315,0,0,1,1.7,13.2H169.4s1.6-33-.6-39.8-7.1-2.9-21.9-4.5-28.7-10.3-31-13.2l.3-60-38.4,4.2Z" transform="translate(-32.727 -101.7)" fill="#f3ccb7"/>
      </g>
      <g id="svga-group-chinshadow-single" transform="translate(55.606 68.439)">
        <path id="SvgjsPath5549" d="M86.1,156.4a92.038,92.038,0,0,0,10.3,1s11.6-.6,15.5-2.3a20.482,20.482,0,0,0,3.7-2.8l.3-50.7-38.4,4.2S81.5,137.2,86.1,156.4Z" transform="translate(-77.5 -101.6)" fill="#d4958a"/>
      </g>
      <g id="svga-group-humanbody-front" transform="translate(10.091 63.194)">
        <path id="SvgjsPath3591" d="M72.1,183.1s14.6-.2,20.4,2.6c5.8,2.9,12.7,2.4,16.1-1s21.6-7,21.6-7-19.7,1.9-25,4.6-22.3-2.8-33.1.8Z" transform="translate(-31.985 -100.9)" fill="#d4958a"/>
        <path id="SvgjsPath3592" d="M74.2,173.2c6.7-1.3,14.7-6.4,14.7-6.4l6.2,5.5c-4.3-7.9-12.7-41.1-12.7-41.1l-.7.7a295.669,295.669,0,0,0,6.1,29.7s-6,8.2-13.6,11.6Z" transform="translate(-31.985 -100.9)" fill="#d4958a"/>
        <path id="SvgjsPath3593" d="M170.7,188.5c-.1-2.1-.2-4.1-.4-6.2a19.848,19.848,0,0,0-.6-3.2c-.2-.5-.4-1-.6-1.6a6.528,6.528,0,0,0-1-1.5,3.269,3.269,0,0,0-1.5-1.1,11.505,11.505,0,0,0-1.7-.6,17.745,17.745,0,0,0-3.2-.2c-2.1,0-4.1.1-6.1.1s-4-.1-6-.2-4-.4-6-.7c-1-.2-2-.4-2.9-.6l-1.5-.4c-.5-.1-1-.3-1.4-.4a66.742,66.742,0,0,1-11.2-4.4l-1.3-.7-1.3-.7a9.129,9.129,0,0,1-1.3-.8c-.4-.3-.9-.5-1.3-.8a14.8,14.8,0,0,0-1.3-.8l-1.2-.9-.6-.5-.3-.2-.3-.2c-.2-.2-.4-.3-.5-.5l-.2-.3V116.5l-.1-15v-.6l-.6.1c-6.4.8-12.9,1.5-19.3,2.3l-19.1,2.3v.5l.1.4.1.9.2,1.8c.1,1.2.3,2.3.4,3.5l.9,7c.6,4.7,1.3,9.4,2.1,14,.8,4.7,1.5,9.3,2.5,14,.9,4.5,1.8,9,3,13.5a44.823,44.823,0,0,1-3.6,4,52.964,52.964,0,0,1-4.3,3.8,29.7,29.7,0,0,1-4.8,3l-1.3.6c-.4.2-.9.3-1.3.5l-2.7,1c-7.2,2.7-14.5,5.3-21.8,7.7l-5.5,1.8a42.038,42.038,0,0,0-5.5,2.2c-.4.2-.9.5-1.3.7a10.144,10.144,0,0,0-1.3.9l-.6.5a2.407,2.407,0,0,0-.6.8,4.939,4.939,0,0,0-.5,1.6,10.728,10.728,0,0,0,0,3.1c.1,1,.3,2,.4,2.9.4,1.9.8,3.8,1.3,5.7l.8,2.8a22.912,22.912,0,0,1,.7,2.8,56.223,56.223,0,0,1,.9,5.7c.2,1.9.4,3.8.5,5.7v.8H170.1V219c.2-4.1.4-8.2.5-12.3s.2-8.2.2-12.3c0-1.8-.1-3.8-.1-5.9Zm-67.4,30.3H70.2l-16.5-.1-16-.1c-.1-1.8-.2-3.5-.4-5.3a57.712,57.712,0,0,0-.8-5.8c-.2-1-.4-1.9-.7-2.9l-.7-2.8a55.942,55.942,0,0,1-1.2-5.6,26.955,26.955,0,0,1-.4-2.8,12.178,12.178,0,0,1,0-2.7,3.582,3.582,0,0,1,.4-1.1,1.38,1.38,0,0,1,.3-.4l.5-.4a10.475,10.475,0,0,1,1.1-.8c.4-.2.8-.5,1.2-.7a48.133,48.133,0,0,1,5.3-2l5.5-1.8c7.3-2.4,14.6-5,21.8-7.8l2.7-1c.5-.2.9-.3,1.4-.5l1.4-.6a32.652,32.652,0,0,0,5-3.2,40.868,40.868,0,0,0,4.4-3.9,32.344,32.344,0,0,0,3.8-4.5l.2-.3-.1-.3c-1.3-4.5-2.3-9.1-3.3-13.7s-1.9-9.3-2.7-13.9-1.6-9.3-2.4-14l-2.2-13.9,19.3-1.8c6.2-.6,12.3-1.2,18.5-1.8l-.2,14.4-.2,15-.3,30v.4l.2.2.6.7.6.6.3.3.3.2.6.5c.4.3.9.6,1.3.9s.9.6,1.3.9.9.5,1.3.8.9.5,1.3.8l1.4.8,1.4.7c.5.2.9.5,1.4.7l1.4.7c1,.4,1.9.8,2.9,1.2s1.9.8,2.9,1.1l1.5.5a8.33,8.33,0,0,0,1.5.4c.5.1,1,.3,1.5.4l1.5.4c1,.3,2,.4,3,.6a61.729,61.729,0,0,0,6.2.8c2.1.2,4.1.2,6.2.2s4.1-.1,6.1-.1,4,.1,5,1.3a7.139,7.139,0,0,1,1.2,2.3,27.973,27.973,0,0,1,.6,2.8c.3,2,.4,4,.5,6s.1,4.1.2,6.1c.1,7.9-.1,15.8-.4,23.7-10.8.1-21.5.1-32.3.2H103.3Z" transform="translate(-31.985 -100.9)" fill="#c5796d"/>
        <path id="SvgjsPath3594" d="M150.7,219.2,147,198l-.4,21.2Z" transform="translate(-31.985 -100.9)" fill="#d4958a"/>
        <path id="SvgjsPath3595" d="M47.3,203.5s2.2,11.5,2.9,15.7h3.5Z" transform="translate(-31.985 -100.9)" fill="#d4958a"/>
      </g>
      <g id="svga-group-clothes-single" transform="translate(0 114.094)">
        <path id="SvgjsPath6425" d="M91.927,154.3c-1.442,2.2-7.43,9.9-7.43,9.9l-.444,2.8a95.347,95.347,0,0,1-15.526,7.3c-10.092,3.8-34.378,11-36.264,12.3s-2.107,8.6-1,11.8,4.325,10.4,4.325,20.8h150.6s1.109-13.9,1.22-18.9-.111-21.9-2.772-25.1c-2.551-3.2-4.88-2.2-12.421-2.2s-19.74-1.9-27.835-3.8-9.094-4.4-9.094-4.4l-1-2.6-8.1-8s.333,10.1-.444,14-11.755,8-11.866,9.2c-.554,7.1-2.218,8.2-2.218,8.2s-.222-6.3-5.878-8c-2.107-.7-6.21-2.1-7.43-3.9a38.321,38.321,0,0,1-3.992-10.9c-.222-2.4-2.44-8.5-2.44-8.5Z" transform="translate(-29.6 -151.8)" fill="#dcc96b"/>
        <path id="SvgjsPath6426" d="M188.311,195.7c0-3.9-.221-7.9-.554-11.8a54.2,54.2,0,0,0-.886-5.9,7.779,7.779,0,0,0-1.218-3.1,15.471,15.471,0,0,0-1.218-1.3,5.017,5.017,0,0,0-1.551-1,8.059,8.059,0,0,0-3.655-.6c-1.108,0-2.215,0-3.323.1-2.1.1-4.319.1-6.424,0a112.1,112.1,0,0,1-12.847-1.4c-4.209-.7-8.528-1.4-12.626-2.4a23.059,23.059,0,0,1-5.759-2.1,5.151,5.151,0,0,1-1.994-1.6l-1-2.6-.111-.2-.111-.1-8.085-8-1.883-1.9.111,2.5c.111,3.1.111,6.1,0,9.2-.111,1.5-.111,3.1-.332,4.5-.111,1.2-1.329,2.2-2.547,3.2a38.677,38.677,0,0,1-4.1,2.6,49.462,49.462,0,0,0-4.319,2.6,5.264,5.264,0,0,0-.665.7c0,.1-.111.1-.111.2v.6c0,.4-.111.8-.111,1.1-.111.8-.222,1.5-.332,2.2a15.991,15.991,0,0,1-.554,2.2c0,.1-.111.1-.111.2a9.084,9.084,0,0,0-1.218-2.8,7.745,7.745,0,0,0-4.1-3.4c-.886-.3-1.661-.5-2.547-.8l-2.326-.9a13.826,13.826,0,0,1-2.1-1.2,4.977,4.977,0,0,1-1.44-1.8c-.775-1.4-1.329-2.9-1.994-4.4a32.144,32.144,0,0,1-1.44-4.6,21.86,21.86,0,0,0-.443-2.4c-.222-.8-.443-1.6-.665-2.3s-.443-1.5-.775-2.3l-.443-1.1-.222-.6-.111-.3-.111-.1v-.1c0-.1-.111-.1-.111-.1a3.064,3.064,0,0,0-.554.7l-.443.6-.886,1.2-1.883,2.4-3.876,4.9v.2L83.87,167a114.215,114.215,0,0,1-20.822,8.9c-7.31,2.4-14.62,4.6-22.04,7-1.883.6-3.655,1.2-5.538,1.8-.886.3-1.883.6-2.769,1a6.567,6.567,0,0,0-.775.4,2.477,2.477,0,0,0-.775.7,8.823,8.823,0,0,0-.775,1.4,24.281,24.281,0,0,0-.775,5.5,16.077,16.077,0,0,0,.775,5.5,69.172,69.172,0,0,1,3.1,10,45.919,45.919,0,0,1,1.108,10.3v.9h.886c12.515,0,25.03-.2,37.546-.3,12.515-.2,25.03-.2,37.546-.2s25.03.1,37.546.2l37.546.3h.886l.111-.8,1-11.7a93.714,93.714,0,0,0,.665-12.2ZM123.3,172.3c.665-.5,1.329-1.1,1.994-1.7a4.1,4.1,0,0,0,.775-1.1,3.034,3.034,0,0,0,.443-1.3,33.726,33.726,0,0,0,.443-4.7c.111-2.3.111-4.5.111-6.8l6.091,6.1.443,1.2.221.7.111.4.111.2a.772.772,0,0,0,.221.3,6.549,6.549,0,0,0,1.108,1.2c.222,1.1.443,2.1.554,3.1.332,2.4.665,4.8,1.218,7.1.443,2.4.886,4.7,1.551,7.1a22.372,22.372,0,0,0,1.108,3.6l.332.9a52.03,52.03,0,0,1-5.648-3.6,5.422,5.422,0,0,1-.886-.7l-.886-.7-1.883-1.5-3.655-2.9c-1.218-1-2.437-1.9-3.655-2.9l-.443-.4a2.99,2.99,0,0,0-.554-.4,3.536,3.536,0,0,0-1.551-.5,7.139,7.139,0,0,0-2.1.2h.111c1.44-1,2.88-1.9,4.319-2.9Zm-8.75,5.2Zm-.554,3.9a8.807,8.807,0,0,0,.332-2.3,4.41,4.41,0,0,0,.111-1.2v-.3l.222-.2a6.05,6.05,0,0,0,1-.7.722.722,0,0,1,.443-.1c.775-.2,1.551-.3,2.326-.5a17.259,17.259,0,0,1,2.215-.1c.332.1.665.1.775.2l.332.3.443.4c.665.6,1.329,1.3,2.1,1.9-1.883.8-3.655,1.5-5.538,2.1a18.129,18.129,0,0,1-3.1.9c-.665.2-1.329.3-1.994.5.222-.1.332-.5.332-.9Zm-29.128-17,3.655-4.9,1.772-2.5.886-1.3.443-.6c.111-.2.222-.3.222-.5v.1l.111.3.222.6.332,1.1c.222.8.443,1.5.665,2.3a22.122,22.122,0,0,1,.554,2.3,15.869,15.869,0,0,1,.332,2.4,37.343,37.343,0,0,0,1.329,4.7,32.694,32.694,0,0,0,1.883,4.5,5.955,5.955,0,0,0,1.551,2.1,8.65,8.65,0,0,0,2.326,1.4,25.012,25.012,0,0,0,2.437,1c.775.3,1.772.6,2.437.9a7.176,7.176,0,0,1,4.1,4.5c-2.658-.7-5.316-1.2-8.085-1.8-2.547-.5-5.095-.9-7.753-1.2a18.222,18.222,0,0,1,1.218-1.9c.332-.4.554-.9,1-1.1a3.013,3.013,0,0,1,1.329-.5,12.389,12.389,0,0,1,3.323.2,13.115,13.115,0,0,0-3.433-.8,4.261,4.261,0,0,0-1.883.4,14.4,14.4,0,0,0-1.329,1.2c-1.44,1.7-2.547,3.5-3.876,5.2l-1,1.2a10,10,0,0,1-1.108,1,27.63,27.63,0,0,1-2.658,1.8l-3.655,2.1c.332-1.4.665-2.8.886-4.2a43.146,43.146,0,0,0,.775-6.6c.111-2.2.222-4.4.222-6.5a32.851,32.851,0,0,0-.111-3.3,1.777,1.777,0,0,0-.111-.7l.111-.1v-.1l.886-2.7Zm-29.35,54.1a81.4,81.4,0,0,0-1.551-8.8c-.332-1.6-.775-3.2-1.218-4.8a21.014,21.014,0,0,0-.886-2.4,16.144,16.144,0,0,0-1.329-2.3A44.479,44.479,0,0,0,43,193a31.772,31.772,0,0,0-4.319-3,21,21,0,0,0-4.873-2.2,42.44,42.44,0,0,1,7.974,6.3c1.218,1.1,2.437,2.3,3.544,3.5a34.408,34.408,0,0,1,3.212,3.7,11.562,11.562,0,0,1,1.218,1.9c.332.7.554,1.5.886,2.2.554,1.5,1.108,3.1,1.551,4.6q1.329,4.2,2.99,8.4c-6.2-.1-12.515-.1-18.717-.1a48.405,48.405,0,0,0-1.108-9.8c-.332-1.8-.886-3.5-1.329-5.2-.554-1.7-1.218-3.4-1.883-5a18.411,18.411,0,0,1-.222-9.8,9.814,9.814,0,0,1,.443-1c.111-.1.111-.2.222-.2a.9.9,0,0,1,.554-.2c.886-.4,1.772-.7,2.658-1,1.772-.6,3.655-1.2,5.427-1.9,7.31-2.4,14.62-4.7,21.929-7.3,3.655-1.3,7.2-2.6,10.743-4.2a86.029,86.029,0,0,0,9.636-5v.4a31.728,31.728,0,0,1-.443,3.2l-.886,6.4-.443,3.2c-.222,1-.443,2.1-.665,3.1-.443,2.1-1,4.2-1.44,6.4l-.554,2.2,2.1-1.1a67.153,67.153,0,0,0,5.87-3.4A25.275,25.275,0,0,0,89.85,186a7.12,7.12,0,0,0,1.218-1.3,9.788,9.788,0,0,0,.886-1.4c.775-1.1,1.329-2.3,1.994-3.4a49.173,49.173,0,0,0,7.531,2.1,38.979,38.979,0,0,0,8.307.8,8.39,8.39,0,0,1,.554,2.8v.8l-.111.1c-.554.6-1.108,1.2-1.661,1.9l-.886.9c-.111.2-.222.2-.443.5a1.582,1.582,0,0,0-.443.7,7.506,7.506,0,0,0-.443,2.6v2.4c0,1.6.111,3.2.222,4.8.111,3.2.332,6.4.554,9.6a82.079,82.079,0,0,0,1.218,9.1c-11.961,0-23.812-.1-35.774-.2-5.205-.2-11.186-.2-17.056-.3Zm130.358-11.1-.665,11-19.05.2c.886-3.7,1.551-7.4,2.215-11.2s1.329-7.7,1.994-11.5a29.02,29.02,0,0,1,1.44-5.5,25.761,25.761,0,0,1,2.769-5.1,30.766,30.766,0,0,1,3.766-4.6,28.1,28.1,0,0,1,4.541-4.1,25.132,25.132,0,0,0-5.316,3.5,35.292,35.292,0,0,0-4.43,4.4,26.478,26.478,0,0,0-3.323,5.2,13,13,0,0,0-1,2.9c-.222,1-.443,1.9-.665,2.9-.665,3.9-1.218,7.8-1.551,11.6s-.554,7.6-.554,11.4l-17.61.1c-12.515.1-25.03.1-37.546.2h-1.772c.332-3.1.443-6.1.554-9.2,0-3.2,0-6.4-.222-9.6-.111-1.6-.222-3.2-.443-4.8a15.549,15.549,0,0,1-.111-4.5c0-.2.111-.3.111-.4s.222-.3.332-.4l.775-1c.443-.7,1-1.4,1.44-2.1a2.455,2.455,0,0,1,.443-.7l.111-.1a1.063,1.063,0,0,0,.332-.4c.111-.1.111-.2.222-.3l.332-.6a7.13,7.13,0,0,0,.443-1.1,2.847,2.847,0,0,0,.222-.8,18.1,18.1,0,0,0,2.326-.1,12.317,12.317,0,0,0,3.323-.8,21.2,21.2,0,0,0,3.1-1.4,10.519,10.519,0,0,0,2.215-1.5,12.1,12.1,0,0,1,1.218,1.1l3.544,3,1.772,1.5.886.8c.332.3.665.5,1,.8a83.627,83.627,0,0,0,8.2,5.1l1.994,1.1-.332-2a12.416,12.416,0,0,0-1.218-3.7,23.959,23.959,0,0,1-1.108-3.3c-.665-2.3-1.218-4.6-1.883-6.9-.554-2.3-1.218-4.6-1.772-7l-.665-2.4a3.973,3.973,0,0,0,.886.5,29.733,29.733,0,0,0,6.313,2.3c4.209,1,8.528,1.8,12.847,2.5a113.241,113.241,0,0,0,13.069,1.4q3.323.15,6.645,0c1.108,0,2.215-.1,3.212-.1a6.981,6.981,0,0,1,2.658.4,3.037,3.037,0,0,1,1,.7c.332.3.665.7.886.9a7.918,7.918,0,0,1,.886,2.4c.443,1.8.665,3.8,1,5.7a103.582,103.582,0,0,1,.665,11.7c0,4.1-.221,8-.443,11.9Zm-74.316-16.3a1.407,1.407,0,1,1-1.551,1.4A1.446,1.446,0,0,1,111.558,191.1Zm4.873-13.3a1.106,1.106,0,1,1-1.218,1.1A1.174,1.174,0,0,1,116.431,177.8Zm-4.209,30.6a1.307,1.307,0,1,1-1.44,1.3A1.481,1.481,0,0,1,112.223,208.4Z" transform="translate(-29.6 -151.8)" fill="#bda736"/>
      </g>
      <g id="svga-group-head" transform="translate(35.551 0) rotate(3)">
        <g id="svga-group-ears-left-move" transform="translate(0 51.676)">
          <g id="svga-group-ears-left">
            <path id="SvgjsPath3538" d="M17.891,8.8S8.041.152,6.461,0c-1.36-.13-4.73,7.07-6.22,11.62a5.2,5.2,0,0,0,.22,3.7c1.43,3.16,4.6,9.75,7.44,13.05a10.965,10.965,0,0,0,3.16.29c.76-.23,6.69-5,7.3-6.86s.74-9.97-.47-13Z" transform="translate(0.11 0.378)" fill="#f3ccb7"/>
            <path id="SvgjsPath3539" d="M18.851,12.55a34.166,34.166,0,0,1,.29,3.5c.05,1.17.05,2.34-.01,3.51-.03.59-.08,1.17-.15,1.76-.05.3-.09.59-.17.9a3.05,3.05,0,0,1-.41.85,15,15,0,0,1-2.18,2.48c-.78.74-1.58,1.44-2.39,2.12-.41.33-.82.67-1.25.98-.21.16-.43.31-.65.46l-.35.22a1.557,1.557,0,0,1-.47.17,6.066,6.066,0,0,1-1.61-.08c-.51-.07-1.02-.17-1.53-.28l-.12-.03-.07-.09a32.658,32.658,0,0,1-3.3-4.99c-.97-1.75-1.85-3.56-2.7-5.38L.531,15.9a5.409,5.409,0,0,1-.48-3.05,7.155,7.155,0,0,1,.39-1.48c.16-.47.33-.94.5-1.41.35-.93.7-1.86,1.07-2.78A36.326,36.326,0,0,1,4.6,1.86a8.388,8.388,0,0,1,.88-1.2,2.556,2.556,0,0,1,.6-.52A.894.894,0,0,1,6.541,0a1.724,1.724,0,0,1,.42.1,13.108,13.108,0,0,1,2.43,1.56c1.52,1.14,2.98,2.35,4.41,3.61s2.85,2.53,4.24,3.87a15.53,15.53,0,0,1,.81,3.41ZM9.061,2.24A13.581,13.581,0,0,0,6.771.82a1.834,1.834,0,0,0-.23-.07.363.363,0,0,0-.18.06,1.593,1.593,0,0,0-.45.39,8.44,8.44,0,0,0-.83,1.09,42.792,42.792,0,0,0-2.74,5.1c-.41.89-.81,1.78-1.16,2.71-.18.46-.35.92-.52,1.39a6.455,6.455,0,0,0-.4,1.41,5.108,5.108,0,0,0,.49,2.88q.63,1.365,1.32,2.7c.9,1.78,1.87,3.52,2.88,5.22a36,36,0,0,0,3.32,4.79l-.19-.11a11.014,11.014,0,0,0,2.91.29.771.771,0,0,0,.25-.1l.31-.2.62-.45c.41-.3.82-.63,1.23-.95.81-.66,1.6-1.34,2.37-2.06a16.926,16.926,0,0,0,2.11-2.3,2.541,2.541,0,0,0,.33-.63c.07-.24.12-.51.17-.78.08-.55.15-1.12.19-1.69.08-1.14.12-2.29.13-3.45s-.04-2.31-.13-3.46a14.248,14.248,0,0,0-.59-3.39c-2.96-2.34-5.91-4.75-8.92-6.97Z" fill="#e4b3ab"/>
            <path id="SvgjsPath3540" d="M15.84,11.049S6.35-.941,4.57.059-.01,6.709,0,8.589c.02,2.77,2.95,7.4,4.42,8.8a5.8,5.8,0,0,0,5.6,1.71c2.35-.54,5.82-8.05,5.82-8.05Z" transform="translate(2.391 5.451)" fill="#e4b3ab"/>
            <path id="SvgjsPath3541" d="M9.26,13.04c-.34-1.14-.73-2.26-1.13-3.37S7.3,7.462,6.85,6.37,5.92,4.21,5.39,3.16A29.612,29.612,0,0,0,3.65.11L3.58,0,3.51.11c-.66,1.04-1.28,2.1-1.88,3.2-.3.55-.58,1.1-.85,1.67S.27,6.14.04,6.73L0,6.82l.04.11c.41,1.24.84,2.46,1.29,3.69.22.61.48,1.21.73,1.81a15.362,15.362,0,0,0,.87,1.78l.17.27.22-.2a6.545,6.545,0,0,0,.77-.9,7.545,7.545,0,0,0,.61-1.03,5.229,5.229,0,0,0,.53-2.42V9.88l-.02-.04c-.44-.87-.91-1.73-1.36-2.6l-.05.03c.37.91.74,1.83,1.13,2.73l-.02-.09a4.994,4.994,0,0,1-.61,2.16,6.612,6.612,0,0,1-1.32,1.7l.39.07a15.549,15.549,0,0,1-.81-1.69l-.72-1.79C1.36,9.16.91,7.95.46,6.74v.2A32.54,32.54,0,0,1,1.84,3.47,22.372,22.372,0,0,1,3.64.25H3.5A20.494,20.494,0,0,1,5.05,3.36L6.41,6.6,7.79,9.84c.46,1.08.92,2.16,1.41,3.23l.06-.03Z" transform="translate(2.881 6.81)" fill="#c5796d"/>
          </g>
        </g>
        <g id="svga-group-ears-right-move" transform="translate(81.729 51.686)">
          <g id="svga-group-ears-right">
            <path id="SvgjsPath3542" d="M.924,8.8S10.774.152,12.354,0c1.36-.13,4.73,7.07,6.22,11.62a5.2,5.2,0,0,1-.22,3.7c-1.43,3.16-4.6,9.75-7.44,13.05a10.965,10.965,0,0,1-3.16.29c-.76-.23-6.69-5-7.3-6.86s-.74-9.97.47-13Z" transform="translate(0.233 0.368)" fill="#f3d4cf"/>
            <path id="SvgjsPath3543" d="M1.126,9.14c1.4-1.34,2.8-2.62,4.24-3.87s2.9-2.47,4.41-3.61A14.226,14.226,0,0,1,12.206.1a1.362,1.362,0,0,1,.42-.1.894.894,0,0,1,.46.14,2.775,2.775,0,0,1,.6.52,9.23,9.23,0,0,1,.88,1.2,36.327,36.327,0,0,1,2.59,5.32c.38.92.72,1.85,1.07,2.78.17.47.34.94.5,1.41a7.154,7.154,0,0,1,.39,1.48,5.409,5.409,0,0,1-.48,3.05l-1.25,2.75c-.85,1.82-1.73,3.63-2.7,5.38a32.175,32.175,0,0,1-3.3,4.99l-.07.09-.11.02c-.51.11-1.02.2-1.53.28a6.517,6.517,0,0,1-1.61.08,1.4,1.4,0,0,1-.47-.17l-.35-.22c-.22-.15-.44-.3-.65-.46-.43-.32-.84-.65-1.25-.98-.82-.67-1.62-1.38-2.39-2.12a14.608,14.608,0,0,1-2.18-2.48,3.05,3.05,0,0,1-.41-.85,6.161,6.161,0,0,1-.17-.9c-.07-.59-.12-1.18-.15-1.76-.06-1.17-.06-2.34-.01-3.51s.13-2.34.29-3.5a13.792,13.792,0,0,1,.8-3.4Zm.06.05A15.226,15.226,0,0,0,.6,12.58c-.09,1.15-.14,2.31-.13,3.46s.05,2.3.13,3.45c.04.57.11,1.14.19,1.69.05.27.1.54.17.78a2.378,2.378,0,0,0,.33.63,16.925,16.925,0,0,0,2.11,2.3c.76.72,1.56,1.41,2.37,2.06.41.33.81.65,1.23.95l.62.45.31.2a.771.771,0,0,0,.25.1,11.014,11.014,0,0,0,2.91-.29l-.19.11a36,36,0,0,0,3.32-4.79q1.523-2.564,2.88-5.22c.45-.89.9-1.79,1.32-2.7a5.108,5.108,0,0,0,.49-2.88,6.455,6.455,0,0,0-.4-1.41c-.16-.47-.34-.93-.52-1.39-.35-.92-.76-1.82-1.16-2.71a42.792,42.792,0,0,0-2.74-5.1,8.439,8.439,0,0,0-.83-1.09,2.547,2.547,0,0,0-.45-.39.314.314,0,0,0-.18-.06c-.05,0-.15.06-.23.07a13.581,13.581,0,0,0-2.29,1.42c-3.02,2.23-5.97,4.64-8.92,6.97Z" fill="#e4b3ab"/>
            <path id="SvgjsPath3544" d="M0,11.049S9.49-.941,11.27.059s4.58,6.65,4.57,8.53c-.02,2.77-2.95,7.4-4.42,8.8a5.823,5.823,0,0,1-5.6,1.71C3.47,18.559,0,11.049,0,11.049Z" transform="translate(0.926 5.441)" fill="#e4b3ab"/>
            <path id="SvgjsPath3545" d="M0,13.04c.34-1.14.73-2.26,1.13-3.37s.84-2.21,1.28-3.3.93-2.16,1.46-3.21A29.61,29.61,0,0,1,5.61.11L5.68,0l.07.11c.66,1.04,1.28,2.1,1.88,3.2.3.55.58,1.1.85,1.67s.51,1.16.74,1.75l.04.09-.04.11c-.41,1.24-.84,2.46-1.29,3.69-.22.61-.48,1.21-.73,1.81a15.363,15.363,0,0,1-.87,1.78l-.17.27-.22-.2a6.545,6.545,0,0,1-.77-.9,7.546,7.546,0,0,1-.61-1.03,5.228,5.228,0,0,1-.53-2.42V9.88l.02-.04c.44-.87.91-1.73,1.36-2.6l.05.03C5.09,8.18,4.72,9.1,4.33,10l.02-.09a4.994,4.994,0,0,0,.61,2.16,6.612,6.612,0,0,0,1.32,1.7l-.39.07a15.548,15.548,0,0,0,.81-1.69l.72-1.79c.48-1.2.93-2.41,1.38-3.62v.2A32.539,32.539,0,0,0,7.42,3.47,22.372,22.372,0,0,0,5.62.25h.14A20.494,20.494,0,0,0,4.21,3.36L2.85,6.6,1.47,9.84C1.01,10.92.55,12,.06,13.07L0,13.04Z" transform="translate(7.016 6.8)" fill="#c5796d"/>
          </g>
        </g>
        <g id="svga-group-faceshape-wrap" transform="translate(12.008 0)">
          <g id="svga-group-faceshape-single" transform="translate(0)">
            <path id="SvgjsPath5539" d="M71.249,17.6C65.37,10.2,61.334,4.4,45.979.3A63.941,63.941,0,0,0,33.606.3C18.251,4.4,14.215,10.2,8.336,17.6,2.106,25.395,0,46.591,0,46.591c0,21.4,2.369,35.193,4.387,41.292,2.018,6.2,18.514,25.195,21.849,26.995s13.6,2.3,13.6,2.3,10.178-.6,13.6-2.3c3.334-1.8,19.83-20.8,21.849-26.995s4.475-19.9,4.387-41.292c-.088,0-2.194-21.2-8.424-28.994Z" fill="#f3ccb7"/>
            <path id="SvgjsPath5540" d="M45.979.3A63.941,63.941,0,0,0,33.606.3C18.251,4.4,14.215,10.2,8.336,17.6,2.106,25.395,0,46.591,0,46.591c0,21.4,2.369,35.193,4.387,41.292,2.018,6.2,18.514,25.195,21.849,26.995s13.6,2.3,13.6,2.3,10.178-.6,13.6-2.3c3.334-1.8,19.83-20.8,21.849-26.995s4.475-19.9,4.387-41.292c0,0-2.106-21.2-8.336-28.994C65.37,10.2,61.334,4.4,45.979.3ZM76.689,31.494a75.027,75.027,0,0,1,1.4,7.5c.351,2.5.7,5,.877,7.5-.088,3.9-.263,7.8-.614,11.7l-.263,2.9-.263,2.9-.263,2.9-.351,2.9c-.526,3.9-1.053,7.7-1.843,11.4-.439,1.9-.877,3.7-1.4,5.5a30.525,30.525,0,0,1-2.369,4.6c-1.053,1.5-2.106,3-3.247,4.5s-2.281,2.9-3.422,4.4c-2.281,2.9-4.738,5.6-7.2,8.3a47.071,47.071,0,0,1-3.773,3.8,9.428,9.428,0,0,1-1.843,1.3,15.663,15.663,0,0,1-2.281.7c-1.579.4-3.334.6-5,.9-1.667.2-3.334.4-5,.5-1.667-.1-3.334-.2-5-.4s-3.422-.4-5-.7a10.443,10.443,0,0,1-4.212-1.9,46.507,46.507,0,0,1-3.861-3.7c-2.545-2.6-5-5.3-7.371-8.2a105.744,105.744,0,0,1-6.844-8.8c-.526-.8-1.053-1.5-1.492-2.3a7.764,7.764,0,0,1-.614-1.2l-.263-.6a5.256,5.256,0,0,1-.263-.7,57.33,57.33,0,0,1-1.492-5.6q-.658-2.849-1.053-5.7c-.175-1-.263-1.9-.439-2.9l-.351-2.9a189.689,189.689,0,0,1-.965-23.4,117,117,0,0,1,2.632-13.7c.614-2.2,1.228-4.5,2.018-6.6a31.307,31.307,0,0,1,1.228-3.1,28.654,28.654,0,0,1,1.492-2.9,34.876,34.876,0,0,1,4.036-5.2,51.278,51.278,0,0,1,4.387-4.7,37.4,37.4,0,0,1,5-3.7A36.961,36.961,0,0,1,26.938,4l1.4-.6a52.81,52.81,0,0,1,7.283-2.1c1.053-.1,2.018-.1,3.071-.2,2.018-.1,4.08-.14,6.1-.14.088,0,2.939.64,2.939.64l1.579.4,1.492.4a32.92,32.92,0,0,1,5.879,2.3c.263.1.439.2.7.3l.7.4c.439.3.965.5,1.4.8l1.316.9,1.316.9a26.866,26.866,0,0,1,4.738,4.5c1.492,1.7,2.9,3.4,4.3,5.2a23.892,23.892,0,0,1,3.422,6.6,51.451,51.451,0,0,1,2.106,7.2Z" fill="#c5796d"/>
          </g>
        </g>
        <g id="svga-group-eyes-left-move" transform="matrix(0.848, -0.53, 0.53, 0.848, 16.948, 58.857)">
          <g id="svga-group-eyes-left" transform="translate(0 0)">
            <g id="svga-group-eyesback-left" transform="translate(0.5 0.417)">
              <path id="SvgjsPath6078" d="M11.258,0A11.022,11.022,0,0,1,22.517,10.841,11.022,11.022,0,0,1,11.258,21.683,11.022,11.022,0,0,1,0,10.841,11.022,11.022,0,0,1,11.258,0Z" transform="translate(0 0)" fill="#fff"/>
            </g>
            <g id="svga-group-eyesiriswrapper-left" transform="translate(7.089 6.588)">
              <g id="svga-group-eyesiriscontrol-left" transform="translate(0 0)">
                <g id="svga-group-eyesiris-left">
                  <path id="SvgjsPath3610" d="M4.67,0A4.67,4.67,0,1,1,0,4.67,4.662,4.662,0,0,1,4.67,0Z" fill="#422d12"/>
                  <path id="SvgjsPath3611" d="M2.5,0A2.457,2.457,0,0,1,5,2.5,2.457,2.457,0,0,1,2.5,5,2.457,2.457,0,0,1,0,2.5,2.457,2.457,0,0,1,2.5,0Z" transform="translate(2.168 2.168)"/>
                  <path id="SvgjsPath3612" d="M2.085.751l-.5-.5A.947.947,0,0,0,.917,0,.947.947,0,0,0,.25.25.947.947,0,0,0,0,.917a.947.947,0,0,0,.25.667l.5.5a.947.947,0,0,0,.667.25.947.947,0,0,0,.667-.25,1.009,1.009,0,0,0,0-1.334ZM4.337,5a.625.625,0,1,0,0-1.251A.629.629,0,0,0,4.337,5Z" transform="translate(2.001 1.918)" fill="#fff"/>
                </g>
              </g>
            </g>
            <g id="svga-group-eyesfront-left" transform="translate(0 0)">
              <path id="SvgjsPath6086" d="M11.759,0A11.555,11.555,0,0,0,0,11.342,11.555,11.555,0,0,0,11.759,22.683,11.555,11.555,0,0,0,23.517,11.342,11.555,11.555,0,0,0,11.759,0Zm3.586,17.1C12.009,16.762,1.751,9.59,4.253,7.922s6.838-1,8.84-.25,6.838,8.673,6.838,8.673C20.1,16.679,18.68,17.429,15.345,17.1Z" transform="translate(0)" fill="#f3ccb7"/>
              <path id="SvgjsPath6087" d="M19.294,10.634c-.417-.751-.917-1.418-1.334-2.168a6.472,6.472,0,0,1-.334-.584A23.58,23.58,0,0,0,13.873,2.8l-.5-.5c-.083-.083-.167-.167-.25-.167a9.228,9.228,0,0,0-5.17-2C5.283-.123.7-.04.113.711S1.28,3.379,3.7,5.547A40.163,40.163,0,0,0,7.869,8.3,13.713,13.713,0,0,0,9.7,9.467c.751.417,1.5.834,2.252,1.168a11.834,11.834,0,0,0,2.418.834,13.388,13.388,0,0,0,2.585,0c.417-.083.834-.083,1.251-.167.167-.083.417-.083.584-.167.083-.083.167-.083.25-.167.167-.083.25-.167.25-.334Zm-.167.25c-.083.083-.167.083-.25.167a1.546,1.546,0,0,1-.584.167,6.437,6.437,0,0,1-1.251.167,12.624,12.624,0,0,1-2.5-.167,8.016,8.016,0,0,1-2.335-.917A11.256,11.256,0,0,1,10.037,9.05,36.171,36.171,0,0,1,5.951,6.131,11.587,11.587,0,0,1,4.2,4.38c-.083-.083-.083-.167-.167-.167-.167-.334-.25-.667-.334-.834-.334-1,.334-1.334,2.418-1.751a10.9,10.9,0,0,1,6.255.667A9.561,9.561,0,0,1,15.041,4.63c.5.584,1,1.251,1.5,1.918,1,1.334,2,2.752,2.919,4.17-.167,0-.25.167-.334.167Z" transform="translate(0.721 5.711)"/>
            </g>
          </g>
        </g>
        <g id="svga-group-eyes-right-move" transform="matrix(0.883, 0.469, -0.469, 0.883, 63.753, 43.94)">
          <g id="svga-group-eyes-right" transform="translate(0)">
            <g id="svga-group-eyesback-right" transform="translate(0.52 0.433)">
              <path id="SvgjsPath6079" d="M11.7,0A11.455,11.455,0,0,1,23.4,11.268,11.455,11.455,0,0,1,11.7,22.535,11.455,11.455,0,0,1,0,11.268,11.455,11.455,0,0,1,11.7,0Z" transform="translate(0)" fill="#fff"/>
            </g>
            <g id="svga-group-eyesiriswrapper-right" transform="translate(7.974 7.454)">
              <g id="svga-group-eyesiriscontrol-right">
                <g id="svga-group-eyesiris-right">
                  <path id="SvgjsPath3613" d="M4.247,0A4.247,4.247,0,1,1,0,4.247,4.254,4.254,0,0,1,4.247,0Z" fill="#422d12"/>
                  <path id="SvgjsPath3614" d="M2.34,0A2.34,2.34,0,1,1,0,2.34,2.33,2.33,0,0,1,2.34,0Z" transform="translate(1.907 1.907)"/>
                  <path id="SvgjsPath3615" d="M1.907.693C1.733.52,1.647.347,1.473.26A1.294,1.294,0,0,0,.867,0,.936.936,0,0,0,.26.26.787.787,0,0,0,0,.867a.936.936,0,0,0,.26.607c.173.173.347.26.433.433a.675.675,0,0,0,.607.26.936.936,0,0,0,.607-.26,1.033,1.033,0,0,0,0-1.213Zm2.08,3.9a.565.565,0,0,0,0-1.127A.565.565,0,0,0,3.987,4.594Z" transform="translate(1.82 1.733)" fill="#fff"/>
                </g>
              </g>
            </g>
            <g id="svga-group-eyesfront-right" transform="translate(0)">
              <path id="SvgjsPath6088" d="M12.221,0A12.009,12.009,0,0,0,0,11.788,12.009,12.009,0,0,0,12.221,23.575,12.009,12.009,0,0,0,24.442,11.788,12.009,12.009,0,0,0,12.221,0ZM8.841,17.508c-3.38.607-4.594.52-4.507.173,0,0,3.9-8.581,5.981-9.621s6.327-1.387,9.014.087C22.1,9.621,12.221,16.9,8.841,17.508Z" transform="translate(0)" fill="#f3ccb7"/>
              <path id="SvgjsPath6091" d="M17.248.619C16.121.359,10.314-1.2,6.067,1.92c-.173.087-.26.26-.433.347-.173.173-.433.347-.607.52C1.647,6.08,0,11.887,0,11.887a.268.268,0,0,1,.087-.173c0,.087,0,.173.087.173s.087.087.173.087.173.087.347.087H1.3c.433,0,.867-.087,1.3-.087A6.69,6.69,0,0,0,3.9,11.8c.433-.087.867-.087,1.3-.173a9.435,9.435,0,0,0,2.167-.867,26.424,26.424,0,0,0,6.327-3.814C14.908,5.907,18.375.966,17.248.619ZM5.027,11.454a24.243,24.243,0,0,1-2.427.52c-.433.087-.867.087-1.213.173H.78a.318.318,0,0,1-.26-.087c-.087-.087-.173-.087-.173-.173.347-.693.693-1.473,1.04-2.167C2.947,6.947,5.634,2.7,8.147,1.92c1.213-.347,7.887-.607,7.194,1.733A7.662,7.662,0,0,1,13.175,6.34a28.782,28.782,0,0,1-3.64,2.774c-.693.433-1.387.867-2.167,1.3-.867.347-1.56.693-2.34,1.04Z" transform="translate(4.247 5.881)"/>
            </g>
          </g>
        </g>
        <g id="svga-group-eyebrows-right-move" transform="translate(58.609 45.008) rotate(9)">
          <g id="svga-group-eyebrows-right-rotate">
            <g id="svga-group-eyebrows-right">
              <path id="SvgjsPath6065" d="M25.656,5.317a43.182,43.182,0,0,0-6.32-2.22,9.58,9.58,0,0,0-1.583-.436l-.37-.046c-.1.011-.19.011-.31.034a2.634,2.634,0,0,0-.37.08c-.12.023-.25.069-.38.1a28.018,28.018,0,0,0-3.061,1.177C12.213,4.455,1.988,8.909.838,9.1L0,6.639c.93-.812,5.275-2.62,6.305-3.158A25.673,25.673,0,0,1,9.5,2.12c1.09-.377,2.19-.72,3.29-1.075a29.31,29.31,0,0,1,3.38-.926c.15-.023.29-.057.45-.069s.31-.034.47-.046a4.212,4.212,0,0,1,.53.011l.46.1a11.345,11.345,0,0,1,1.69.64c1.07.5,2.031,1.779,3.041,2.4s1.98,1.269,2.95,1.955l-.1.206Z" transform="translate(0 0)" fill="#684815"/>
            </g>
          </g>
        </g>
        <g id="svga-group-nose-single-move" transform="matrix(0.995, -0.105, 0.105, 0.995, 41.553, 67.733)">
          <g id="svga-group-nose-single" transform="translate(0 0)">
            <path id="SvgjsPath5603" d="M.261,16.886A6.5,6.5,0,0,1,1.672,14.86,9.169,9.169,0,0,0,.589,17a2.41,2.41,0,0,0-.124,1.106,1.055,1.055,0,0,0,.2.469,2.044,2.044,0,0,0,.364.416,2.514,2.514,0,0,0,2.085.6,4.017,4.017,0,0,0,1.136-.31c.346-.124-.191.194.137.026a11.008,11.008,0,0,1-.79-1.371c.763.708,1.473,1.424,2.236,2.052a8.726,8.726,0,0,0,1.171.849,2.335,2.335,0,0,0,1.18.407,1.046,1.046,0,0,0,.24-.027,1.217,1.217,0,0,0,.231-.124c.186-.115.382-.274.577-.425.39-.3.772-.637,1.162-.955.772-.655,1.553-1.309,2.387-1.919a16.83,16.83,0,0,1-1.3,1.742,6.1,6.1,0,0,0,1.189.407,2.388,2.388,0,0,0,1.437-.08,2.256,2.256,0,0,0,1.2-2.282,1.357,1.357,0,0,0-.231-.575c-.133-.2-.284-.407-.435-.61-.311-.4-.639-.8-.985-1.176l-.515-.575a6.631,6.631,0,0,1-.515-.655,8.1,8.1,0,0,1-.834-1.424,6.688,6.688,0,0,1-.461-1.6c-.089-.522-.177-1.044-.231-1.566-.115-1.044-.213-2.087-.24-3.14A26.886,26.886,0,0,1,11.259,0a51.838,51.838,0,0,0,.311,6.218c.115,1.026.231,2.061.39,3.078.08.513.16,1.017.248,1.521a5.379,5.379,0,0,0,.417,1.389,7.675,7.675,0,0,0,.728,1.283,5.164,5.164,0,0,0,.444.575c.177.2.346.4.515.6.337.407.657.831.967,1.265.151.221.311.442.444.681a2,2,0,0,1,.284.884,2.728,2.728,0,0,1-1.757,2.76,2.619,2.619,0,0,1-1.65-.088,5.14,5.14,0,0,1-1.162-.593c-.186.221-.364.442-.559.655-.346.389-.71.743-1.1,1.106a5.341,5.341,0,0,1-.639.5,2.267,2.267,0,0,1-.444.239,2.093,2.093,0,0,1-.515.088,3.044,3.044,0,0,1-1.668-.584A6.952,6.952,0,0,1,5.305,20.52a10.036,10.036,0,0,1-.941-1.185c-.586.513-.412.461-1.229.62a3.047,3.047,0,0,1-1.3,0,2.7,2.7,0,0,1-1.162-.619,2.855,2.855,0,0,1-.426-.5A1.314,1.314,0,0,1,0,18.186a2.843,2.843,0,0,1,.257-1.3Z" transform="translate(0 0)" fill="#c5796d"/>
          </g>
        </g>
        <g id="svga-group-eyebrows-right-move-2" data-name="svga-group-eyebrows-right-move" transform="matrix(0.966, -0.259, 0.259, 0.966, 18.903, 52.947)">
          <g id="svga-group-eyebrows-right-rotate-2" data-name="svga-group-eyebrows-right-rotate" transform="translate(0)">
            <g id="svga-group-eyebrows-right-2" data-name="svga-group-eyebrows-right" transform="translate(0)">
              <path id="SvgjsPath6065-2" data-name="SvgjsPath6065" d="M.1,2.959c2.06-1.04,5.117-.426,6.013-.343.1.011.19.011.31.034a2.634,2.634,0,0,1,.37.08c.12.023.25.069.38.1a28.017,28.017,0,0,1,3.061,1.177c1.05.446,11.275,4.9,12.425,5.094L23.5,6.639c-.93-.812-5.275-2.62-6.305-3.158A25.673,25.673,0,0,0,14,2.12c-1.09-.377-2.19-.72-3.29-1.075A29.309,29.309,0,0,0,7.332.119C7.182.1,7.042.062,6.882.05S6.572.016,6.412,0a4.212,4.212,0,0,0-.53.011l-.46.1a11.345,11.345,0,0,0-1.69.64A28.662,28.662,0,0,0,0,2.753l.1.206Z" fill="#684815"/>
            </g>
          </g>
        </g>
      </g>
    </g>
    <g id="svga-group-mouth-single-move" transform="translate(69.383 97.194) rotate(-1)">
      <g id="svga-group-mouth-single">
        <path id="SvgjsPath7951" d="M0,.727S5.994,5.275,12.162,4.952s8.751-.357,12.82-3.736A24.244,24.244,0,0,1,19.813.88a33.963,33.963,0,0,0-9.4-.789C7.96.427,6.6.656,4.914.727S0,.727,0,.727Z" transform="translate(0.856 2.596)" fill="#da7c87"/>
        <path id="SvgjsPath7953" d="M0,3.055a9.488,9.488,0,0,0,4.235-.6A27.242,27.242,0,0,1,9.823.208c2.159-.545,2.17.15,4.09.187s1.679-.723,4.051.04,2.17,1.892,4.519,2.482a26.682,26.682,0,0,0,3.921.691,11.285,11.285,0,0,1-5.739.421c-3.2-.5-5.336-1.155-6.77-1.111S8.981,3.934,5.857,3.8A20.6,20.6,0,0,1,0,3.055Z" fill="#d26d79"/>
      </g>
    </g>
  </g>
  <g id="svga-group-hair-front" transform="translate(167.431 211.513) rotate(177)">
    <path id="SvgjsPath6829" d="M95.88,135.128c-.82-7.624-2.549-14.852-4.369-18.416,0,0-.271,14.158-3.364,20.89s-12.19,14.454-13.281,20.1c0,0,1.364-3.267,3.457-4.653a94.317,94.317,0,0,0,11.1-9.6c1.728-2.079,4.548-7.227,5.731-7.92C95.243,135.425,95.607,135.326,95.88,135.128ZM26.544,79.279c0-.594-.182-2.178-.455-4.455-.636,6.535-1.909,13.762-1.909,13.762S-3.3,44.524.335,29.97,11.342,5.318,12.069,4.526,15.709,2.646,16.982.072c.455-.99,9.554,8.714,5.1,20.4-4.366,11.683-5.366,19.6-1.726,25.742.637,1.089,1.183,2.277,1.729,3.465-.728-4.257-1.366-7.624-1.548-8.614A23.338,23.338,0,0,1,21.9,27.2c2.183-5.445,5.549-5.742,5.549-5.742-1.546,2.673-1.637,7.227-.181,11.98s3.822,9.406,5.1,14.357c1.365,5.149,2,11.287-2.454,21.485a72.8,72.8,0,0,0-3.365,10Z" transform="translate(4.241 0.529)" fill="#9a6b23"/>
    <path id="SvgjsPath6830" d="M79.061,152.437s-16.6-6.488-29.917-1.625-21.892-14.406-20.8-25.852,8.571-26.421,4.191-44.927-17.151-32.624-20.8-40.828-3.65-16.6,0-22.607S17.2,6.3,18.206,0c0,0-1.368,3.434-6.749,7.63C2.976,14.213-.489,22.034.06,34.244S5.717,55.993,10.187,65.818c4.379,9.825,6.661,22.226,3.561,30.429S7.092,115.8,8.371,136.023c1.279,20.127,11.952,30.907,25.27,39.112S66.2,181.815,78.424,173.9s10.4-14.975,10.4-14.975,3.649,1.908,9.12-6.771,1.821-31.859-2.1-39.2c0,0-.272,13.64-3.373,20.126S80.154,147,79.061,152.437Z" transform="translate(0.02 0)" fill="#a2742d"/>
    <path id="SvgjsPath6831" d="M85.389,158.261a5.543,5.543,0,0,0-5.525-.763c-3.713,1.716-6.7,7.626-9.78,11.153-5.162,5.91-6.52,8.96-18.385,9.626a40.01,40.01,0,0,1-19.02-3.625c-12.862-8.1-23.1-18.878-24.368-38.708-1.27-20.115,2.17-31.555,5.339-39.753S14.463,75.6,10.115,65.78.6,46.427.058,34.224,3.045,14.2,11.376,7.628C16.719,3.434,18.078,0,18.078,0c-1.449,4.29-3.622,6.006-7.878,10.1-4.347,4.1-8.512,15.634-7.605,24.4s8.788,23.834,12.5,29.936,6.7,16.589,7.973,22.213.182,10.3-3.53,19.924-5.7,34.8-5.068,39.086c1,7.913,2.809,13.347,8.516,19.639,8.515,9.344,19.564,10.775,26.176,10.871,10.687.1,18.113-7.339,19.472-9.436s9.509-11.343,11.592-11.725,7.246,3.242,7.246,3.242l.634.572a6.01,6.01,0,0,1,0,2.479A9.059,9.059,0,0,0,85.389,158.261Zm-23.006-9.345a2.934,2.934,0,0,1,.906.1,2.145,2.145,0,0,1,.725.1c.362,0,.815.1,1.177.1.181,0,.453.1.725.1s.634.1.906.1.543.1.815.1.543.1.815.1c.181,0,.362.1.543.1a4.34,4.34,0,0,0,1.087.191c.181,0,.362.1.543.1a4.466,4.466,0,0,0,1,.191c.181,0,.272.1.362.1a2.533,2.533,0,0,0,.815.191.322.322,0,0,1,.272.1c.362.1.725.191,1,.286a.322.322,0,0,1,.272.1c.362.1.634.191,1,.286,1.993.572,3.17,1.049,3.17,1.049s-4.529-.573-9.872,5.242c-2.083,3.527-5.524,10.009-10.867,12.2-6.158,2.573-26.718,3.715-33.693-11.92s-2.449-29.077.539-35.654,7.7-19.161,7.514-27.36c-.182-8.294-2.085-20.02-4.169-25.168S12.015,46.333,9.115,37.848c-2.99-8.866-3.987-14.872,3.167-26.979C15,6.2,16.81,4.864,17.535,3.148a41.7,41.7,0,0,1-5.886,13.537c-3.622,6.006-3.621,14.395,0,22.594s16.305,22.31,20.655,40.8-3.076,33.461-4.161,44.9,7.521,30.7,20.653,25.837a26.554,26.554,0,0,1,5.253-1.334h.091c.181,0,.362-.1.634-.1.362,0,.725-.1,1.087-.1a1.684,1.684,0,0,0,.725-.1c.362,0,.725-.1,1.177-.1h3.713A.833.833,0,0,1,62.383,148.916Z" transform="translate(0.021 0.1)" fill="#9a6b23"/>
    <path id="SvgjsPath6832" d="M17.511,64.587a61.366,61.366,0,0,0-8.926-14.7c-8.542-10.7-10.27-17.4-7.1-25.795S8.964,11.3,10.4,7.6A18.573,18.573,0,0,0,11.458,0s1.824,4.1,1.056,7.2c-.671,3.1-7.1,13.9-8.059,19.994a26.045,26.045,0,0,0,4.033,18.7c3.359,4.9,7.295,11.6,9.023,18.7Zm1.823-1.5s-2.4-11.6-5.76-17.4-4.416-13-1.921-19.1S18.944,12.5,18.56,7.2c0,0,3.264,6.4.193,13s-4.125,16.4-1.629,23.094c2.5,6.6,2.785,15.2,2.209,19.8Z" transform="translate(11.273 3.094)" fill="#a2742d"/>
    <path id="SvgjsPath6833" d="M32.276,32.894c.288,0,.48-.1.672-.1.384,0,.768-.1,1.152-.1a1.8,1.8,0,0,0,.768-.1c.384,0,.768-.1,1.248-.1h1.44a19.1,19.1,0,0,0-7.294,5.4c-4.607,5.9-8.158,8.6-15.549,7.8S-.455,34.49.024,23.593C.5,12.8,3.861,5.9,5.972,0A55.705,55.705,0,0,0,4.725,7.3c-1.055,12,7.97,32.192,21.888,27.095a39.5,39.5,0,0,1,5.663-1.5Z" transform="translate(23.194 114.991)" fill="#93631a"/>
  </g>
</svg>
