<svg id="masoud" xmlns="http://www.w3.org/2000/svg" width="200" height="220" viewBox="0 0 200 220">
  <g id="svga-group-backs-single">
    <path id="SvgjsPath4348" d="M0,0H200V220H0Z" fill="#9ba5a8"/>
  </g>
  <g id="svga-group-humanwrap-move" transform="translate(6.6 5.951)">
    <g id="svga-group-humanwrap">
      <g id="svga-group-hair-back-move" transform="translate(33 27.349)">
        <g id="svga-group-hair-back">
          <path id="SvgjsPath4912" d="M61.6,38.2S52,52.5,51.1,62.3s1.6,31,1.6,38-.7,25.9-11.6,35.1c0,0,8.2-4.3,12.3-11.6,0,0-2.5,10.5-9.8,16.2a37.822,37.822,0,0,0,15.7-15.2S54.5,138,46.5,141.6c0,0,9.8-2.7,16.4-14.8,0,0-2.7,16.6-7.3,22.3,0,0,8.6-11.6,10.9-19.4,0,0-3.6,13.7-3.2,20.5,0,0,1.6-10.9,9.8-18.4,0,0,1.1,12.8.2,18.4,0,0,4.6-7.7,5.2-14.6,0,0,3.6,10.9,6.2,15.5,0,0-1.6-9.6-.5-13.9l37.3-2.1s3.2,14.3,6.2,18.7c0,0-2.5-14.8-.9-20.3,0,0,.9,12.1,14.8,19.1,0,0-12.1-12.1-11.1-22.5,0,0,2.7,10.2,10.5,15.9,0,0-6.4-11.4-4.8-20,0,0,5.9,15.7,11.1,19.8,0,0-6.1-10.2-5.7-19.1,0,0,4.1,10,9.1,13a34.02,34.02,0,0,1-6.4-17.5s3.6,10,12.3,15c0,0-8.9-7.3-10.7-21.8-1.8-14.6,1.1-37.8,1.4-44.8s0-12.3-2.7-18.4-2.1-12.1-18.4-15.5c-16.4-3.5-64.6,1.5-64.6,1.5Z" transform="translate(-39.6 -33.3)" fill="#2a232b"/>
          <path id="SvgjsPath4913" d="M50.7,120.8a49.054,49.054,0,0,0,1.7-6.3c1.8-8.6,1.3-17.4.7-25.9-.7-8.6-1.6-17.1-.9-25.6a59.992,59.992,0,0,1,2.4-12.5A60.7,60.7,0,0,1,57,44.6a37.726,37.726,0,0,1,3.4-5.4,28.26,28.26,0,0,0-3.9,5.2,44.833,44.833,0,0,0-2.9,5.8,44.4,44.4,0,0,0-1.9,6.2c-.5,2.1-.8,4.3-1.1,6.4-1,8.7-.2,17.3.5,25.9.3,4.3.6,8.5.7,12.8,0,2.1,0,4.2-.2,6.4-.2,2.1-.4,4.2-.8,6.3a45.875,45.875,0,0,1-3.7,12.1,37.57,37.57,0,0,1-3.2,5.5,38.854,38.854,0,0,1-4.3,4.8,28.524,28.524,0,0,0,4.7-4.5,39.685,39.685,0,0,0,3.7-5.4,44.693,44.693,0,0,0,2.7-5.9Zm11.6-6.7c-1.1,2.7-2.1,5.5-3.1,8.2a54.609,54.609,0,0,1-3.5,7.8,37.256,37.256,0,0,1-4.7,7,31.989,31.989,0,0,1-6.5,5.6,17.9,17.9,0,0,0,7.6-4.5,27.188,27.188,0,0,0,5.4-7.2,39.625,39.625,0,0,0,3.2-8.3,48.39,48.39,0,0,0,1.6-8.6Zm7.3-1.7a53.5,53.5,0,0,0-1.4-12.6,105.945,105.945,0,0,1-.1,12.6,82.842,82.842,0,0,1-1.8,12.3,82.191,82.191,0,0,1-3.4,12,105.258,105.258,0,0,1-5,11.5,54.173,54.173,0,0,0,6.5-10.9,65.631,65.631,0,0,0,3.9-12.1,62.484,62.484,0,0,0,1.3-12.8Zm8.1-5.1a88.115,88.115,0,0,1-.1,11.5A59.583,59.583,0,0,1,75.7,130,68.811,68.811,0,0,1,72,140.8,82.286,82.286,0,0,1,66.7,151a41.863,41.863,0,0,0,6.7-9.5,54.25,54.25,0,0,0,4.2-11,50.538,50.538,0,0,0,1.5-11.6,44.946,44.946,0,0,0-1.4-11.6Zm8.3,18a65.553,65.553,0,0,1-1.4,9.9,75.556,75.556,0,0,1-2.7,9.6,84.022,84.022,0,0,1-4,9.3,41.621,41.621,0,0,0,8.7-18.5,44.979,44.979,0,0,0,1-10.3,39.32,39.32,0,0,0-1.5-10.2c.1,3.4.1,6.8-.1,10.2Zm67.8,8a45.3,45.3,0,0,1-3.4-6.1,51.232,51.232,0,0,1-3.7-13.4,80.288,80.288,0,0,1-.6-13.9c.2-4.7.6-9.3,1-14s.8-9.4.9-14.1c0-2.4,0-4.7-.1-7.1a57.421,57.421,0,0,0-.9-7.1,53.462,53.462,0,0,0-1.7-6.9,53.78,53.78,0,0,0-2.7-6.6,33.5,33.5,0,0,0-3.9-5.9,29.586,29.586,0,0,0-5.1-4.9,38.728,38.728,0,0,1,4.7,5.2,35.58,35.58,0,0,1,3.4,6,51.821,51.821,0,0,1,3.8,13.3,80.288,80.288,0,0,1,.6,13.9c-.2,4.7-.6,9.3-1,14s-.8,9.4-.9,14.1c0,2.4,0,4.7.1,7.1a57.136,57.136,0,0,0,.8,7.1,40.9,40.9,0,0,0,1.7,6.9,38.093,38.093,0,0,0,2.7,6.6,46.711,46.711,0,0,0,3.8,6,33.763,33.763,0,0,0,5,5,37.331,37.331,0,0,1-4.5-5.2Zm-17-10.8a93.609,93.609,0,0,1-1.6-14.1c-.2-4.7-.1-9.5,0-14.2.2-9.5.7-19.1-.3-28.7-.3-2.4-.6-4.8-1.1-7.1a46,46,0,0,0-2-7,19.946,19.946,0,0,0-3.8-6.2,12.266,12.266,0,0,0-2.8-2.3,8.5,8.5,0,0,0-3.4-1.1,10.281,10.281,0,0,1,5.8,3.7,18.311,18.311,0,0,1,3.2,6.2,38.536,38.536,0,0,1,1.6,6.9c.4,2.3.7,4.7.9,7,.7,9.4.2,19-.1,28.5-.2,9.5-.2,19.3,2.1,28.7a53.674,53.674,0,0,0,5.1,13.5,40.4,40.4,0,0,0,8.9,11.2,42.648,42.648,0,0,1-8-11.7,47.479,47.479,0,0,1-4.5-13.3Zm-7.4,6.5a123.962,123.962,0,0,1-4.7-28.4c-.8-9.6-1-19.3-2.1-29-.3-2.4-.6-4.8-1-7.2a46.51,46.51,0,0,0-1.6-7.2,16.679,16.679,0,0,0-3.7-6.3,9.553,9.553,0,0,0-6.5-3.1,10.021,10.021,0,0,1,6.1,3.5,15.1,15.1,0,0,1,3.2,6.3,55.369,55.369,0,0,1,1.2,7.1c.3,2.4.5,4.8.7,7.2.8,9.6.9,19.3,1.7,29a117.017,117.017,0,0,0,5.2,28.7,72.238,72.238,0,0,0,6,13.3,55.51,55.51,0,0,0,9.2,11.3,53.51,53.51,0,0,1-8.3-11.8,89.4,89.4,0,0,1-5.4-13.4Zm-15.6-11.7a160.136,160.136,0,0,1-5.3-40.2,109.65,109.65,0,0,0,3.4,40.7,120.254,120.254,0,0,0,7,19.3,107.146,107.146,0,0,0,10.4,17.6,172.43,172.43,0,0,1-9-18.3,143.207,143.207,0,0,1-6.5-19.1Z" transform="translate(-39.6 -33.3)" fill="#1b141c"/>
        </g>
      </g>
      <g id="svga-group-humanbody-back" transform="translate(9.1 86.149)">
        <path id="SvgjsPath4301" d="M180.8,184.9c-2.3-3.4-38.9-17.8-38.9-17.8l-13.4-5.2-5.6-68.8H76.8L71.3,162l-13.4,5.2S21.4,181.6,19,185c-2.3,3.4-3.3,14.9-3.3,14.9V219H184.2V199.8c-.1.1-1-11.5-3.4-14.9Z" transform="translate(-15.7 -93.1)" fill="#f0c7b1"/>
      </g>
      <g id="svga-group-chinshadow-single" transform="translate(65.61 86.552)">
        <path id="SvgjsPath4447" d="M83.41,160.9c3,1.6,18.4,1.6,21.4,0,2.3-1.22,14.94-13.04,22.02-20.04L122.94,93.1H76.82l-4.61,58.02c5.18,4.83,9.98,9.09,11.2,9.78Z" transform="translate(-72.21 -93.1)" fill="#d19271"/>
      </g>
      <g id="svga-group-humanbody-front" transform="translate(8.2 85.249)">
        <path id="SvgjsPath4302" d="M184.5,219c-.1-6.4-.1-12.8-.1-19.2l-.3-.1a.138.138,0,0,1,.2,0,.1.1,0,0,1,.1.1v-.4l-.1-.5-.1-.9-.2-1.9c-.2-1.3-.4-2.5-.6-3.8a26.155,26.155,0,0,0-.9-3.8,16.135,16.135,0,0,0-1.5-3.6,11.929,11.929,0,0,0-2.9-2.1c-1-.6-2.1-1.1-3.2-1.7-2.1-1.1-4.3-2.1-6.5-3.1-4.4-2-8.7-3.9-13.1-5.7-4.4-1.9-8.8-3.7-13.2-5.5l-13-5.2-1.2-16.9c-.4-5.7-.9-11.5-1.3-17.2l-1.3-17.2L123.8,93l-.1-.8h-.8c-7.7,0-15.4.1-23.1.1l-23.1.2h-.5V93L75,110.2l-1.3,17.2c-.8,11.4-1.8,22.8-2.8,34.2-5.6,2.1-11.2,4.2-16.7,6.4q-8.4,3.3-16.8,6.9c-2.8,1.2-5.6,2.4-8.3,3.6a89.553,89.553,0,0,0-8.2,4.1,12.141,12.141,0,0,0-2,1.4,1.47,1.47,0,0,0-.5.6l-.3.6a5.359,5.359,0,0,0-.5,1.1,25.424,25.424,0,0,0-1.3,4.5,90.7,90.7,0,0,0-1.4,9.1L14.8,219v.9h.9l42.1.1H100c14,0,28.1-.1,42.1-.2l42.1-.5h.3V219ZM100,218l-42.1-.1-41.2.1-.1-18.1c.3-3,.6-5.9,1.2-8.9a28.755,28.755,0,0,1,1.1-4.2,7.93,7.93,0,0,1,.4-.9l.2-.4.3-.3a14.036,14.036,0,0,1,1.8-1.2c2.5-1.5,5.3-2.8,8-4.1s5.5-2.5,8.2-3.7c5.5-2.4,11.1-4.8,16.7-7.1s11.2-4.5,16.9-6.7l.2-.1v-.2c.9-11.5,1.7-23,2.7-34.4l1.4-17.2,1.5-16.7,22.6.2c7.4.1,14.8.1,22.3.1l1.3,16.4,1.5,17.2c.5,5.7,1,11.5,1.5,17.2l1.6,17.2v.3l.3.1,13.4,5c4.4,1.7,8.9,3.4,13.3,5.2s8.8,3.7,13.2,5.6c2.2,1,4.3,2,6.5,3,1.1.5,2.1,1.1,3.2,1.6a14.92,14.92,0,0,1,2.9,2,11.669,11.669,0,0,1,1.4,3.5c.3,1.2.6,2.5.8,3.7.2,1.3.4,2.5.6,3.8l.2,1.9.1.9.1.5v.4c0,6.3,0,12.6-.1,18.9l-41.8-.5c-14,.1-28.1,0-42.1,0Z" transform="translate(-14.8 -92.2)" fill="#c27b55"/>
        <path id="SvgjsPath4303" d="M125.1,142.4s-1.8,23-9.1,32.9C116,175.3,123.9,150.3,125.1,142.4Zm-34.5,16s5,7.9,11.5,10.1C102.1,168.5,92.6,170.7,90.6,158.4ZM73.4,140c6.7,25.6,6.7,25.6,8.5,30.7C81.9,170.7,82.3,158.1,73.4,140Z" transform="translate(-14.8 -92.2)" fill="#d19271"/>
      </g>
      <g id="svga-group-clothes-single" transform="translate(0 137.349)">
        <path id="SvgjsPath6692" d="M71.9,145.1l-6.2,2.5L65,161.7v20.2L79,220h42l10.7-34.3,3.4-25.5L133.4,146l-5.4-.8-.3,9.2s-26.2,22.2-26.6,22.7-29.2-22.8-29.2-22.8v-9.2Z" transform="translate(-6.6 -144.3)" fill="#eaeaea"/>
        <path id="SvgjsPath6693" d="M127.8,155.4l.8-.3,4.9-9-5.5-.9Zm-56.3-1.6h-.4l-5.2-6.1,6.3-2.6-.7,8.7Z" transform="translate(-6.6 -144.3)" fill="#c9c9c9"/>
        <path id="SvgjsPath6694" d="M44.6,168l1.1,1.7s-24.9,7.2-29,9c0,0-4.4-3.1-6,3.4S6.9,212.9,6.9,220h72a591.761,591.761,0,0,1-14.1-59.9Zm144.6,14.1c-1.6-6.5-6-3.4-6-3.4-4.1-1.9-29-9-29-9l1.1-1.7L135,160.2A578.225,578.225,0,0,1,121,220h72C193.1,212.8,190.8,188.6,189.2,182.1Z" transform="translate(-6.6 -144.3)" fill="#1b2122"/>
        <path id="SvgjsPath6695" d="M89,180.6S93.9,193,95.4,196c0,0-2.8,17.1-2.9,23.8h18s-2.5-20-3.1-24.1c0,0,4.4-11,5.7-13.9,0,0-2.7-3.4-3.8-3.6s-8.7-.8-8.7-.8-7.3.9-8.7,1.4a8.913,8.913,0,0,0-2.9,1.8Z" transform="translate(-6.6 -144.3)" fill="#222"/>
        <path id="SvgjsPath6696" d="M106.9,196a26.906,26.906,0,0,1-5.2,2.1h-.5a19.416,19.416,0,0,1-5.3-1.8v-.2c.6.1,1.6.2,2.9.5,1.7.4,6.5-.4,8.1-.7m-5.5,17.2c1.2,1.5,3.4,2.7,3.1,1-.2-1.7-3.3-15.8-3.4-16C101,198.8,100.2,211.6,101.4,213.1Zm-2.8-17.3s-.1-8.9-.6-9.8-1.7-.1-2.1,1.8C95.4,189.8,98.2,195.4,98.6,195.8Zm-1.8,15.8c.5,2.7,1.9-.4,2.1-3.6s-1.1-10.6-1.1-10.6c-.2.5-1.5,11.4-1,14.2Zm7.4-27.7c-1-1.1-2.5,1.9-2.8,4a52.671,52.671,0,0,0-.2,7.8C101.1,195.7,105.1,185,104.2,183.9Zm3.2,6.8a1.182,1.182,0,0,0-1.5-1.7c-.9.5-1.7,5.3-2.1,7.2C103.8,196.2,106.8,192,107.4,190.7ZM105,209.1c.5,1,1.9,2.2,2.1,1.5s-2.7-12.5-2.7-12.5S104.5,208.1,105,209.1Z" transform="translate(-6.6 -144.3)"/>
        <path id="SvgjsPath6697" d="M192.7,208.3l-.9-11.6c-.3-3.9-.7-7.8-1.3-11.6-.2-1-.3-1.9-.5-2.9a9.123,9.123,0,0,0-1.1-3,4.03,4.03,0,0,0-2.9-2.1,5.462,5.462,0,0,0-1.8.1,6.118,6.118,0,0,0-1.2.5c-2.3-.9-4.6-1.6-6.8-2.4l-7.3-2.2c-4.6-1.4-9.1-2.7-13.7-3.9l.6-.9.5-.7-.8-.3c-3.5-1.3-7-2.5-10.4-3.8l-9.2-3.2a.756.756,0,0,1,.1-.4l-2.2-14.2-6-1.4s-.5,4.6-.5,9.7l-13.8,11c-2.2,1.9-4.5,3.8-6.7,5.8l-3.3,2.9-1.7,1.5-.8.8c-2.3-1.6-4.6-3.4-6.9-5.1L87,165.5,72.4,154.1l.1-9.8c-.5.5-6.2,2.5-6.8,3v.1l-.6,8.6-.3,4-10,3.5c-3.4,1.2-6.9,2.5-10.4,3.8l-.8.3.5.7.6.9c-4.6,1.2-9.2,2.5-13.7,3.9l-7.3,2.2c-2.3.8-4.5,1.4-6.9,2.4a5.36,5.36,0,0,0-1.1-.5,3.673,3.673,0,0,0-1.8-.1,4,4,0,0,0-2.8,2,9.123,9.123,0,0,0-1.1,3c-.2,1-.3,2-.5,2.9-.5,3.9-.9,7.8-1.3,11.6l-.9,11.6c-.3,3.9-.6,7.8-.7,11.7v.3h.3c6,0,12,.1,18,.2l18,.3L61,221h78l18-.1c6-.1,12-.1,18-.3,6-.1,12-.2,18-.2h.4V220c-.1-3.9-.4-7.8-.7-11.7Zm-88.1-33,3.4-2.9,6.8-5.7,13.6-11.5.2-.2-.4-9.6c1.8.4,3.6.8,5,1.1l1.1,13.6-1.1,8.5-1.4,6.4c-1.1,5-2.4,10-3.6,14.9-.7,2.9-1.5,5.9-2.3,8.8a24.424,24.424,0,0,0-1-2.4,19.988,19.988,0,0,0-1-2.1,13.242,13.242,0,0,0-1.2-2c-1.8-2.6-3.6-5-5.5-7.4-1-1.2-2-2.4-3-3.5a27.726,27.726,0,0,0-3.5-3.3,10.54,10.54,0,0,0-1.1-.7,6.89,6.89,0,0,0-.8-.3c-.3-.1-.4,0-.6-.1l-2.3-.3-2.5-.3,1.2-1ZM65.8,156.2l.2-8.5,5.7-2.1-.6,8.2,1.4,1.6h.1c4.5,3.8,9.1,7.6,13.7,11.3,2.3,1.9,4.6,3.7,6.9,5.6,1.8,1.4,3.5,2.8,5.4,4.2l-2.1.3a18.459,18.459,0,0,0-2.3.4l-1.2.2a1.083,1.083,0,0,1-.6.1,4.875,4.875,0,0,0-.7.3,17.081,17.081,0,0,0-3.8,3.1c-1.1,1.1-2.1,2.3-3.2,3.5-2,2.4-3.9,4.9-5.7,7.4-.9,1.3-1.8,2.6-2.6,3.9-.7,1.1-1.4,2.2-2,3.3-.8-2.9-1.5-5.9-2.3-8.8-1.2-5-2.5-9.9-3.6-14.9l-1.7-7.5-1-4.7a52.9,52.9,0,0,1,0-6.9ZM7.3,219.6c0-3.8.3-7.5.6-11.3.3-3.9.7-7.7,1.2-11.6s1-7.7,1.7-11.5c.4-1.9.7-3.9,1.6-5.3.5-.7,1-1.2,1.7-1.2a3.223,3.223,0,0,1,2.1.6l.4.3.4-.2c.6,1.4,1.1,2.7,1.6,4.1a23.889,23.889,0,0,1,1.3,5.1c.5,3.5.8,7,1.2,10.5l1.2,10.5.7,5.3.6,4.5c-5.3.1-10.8.2-16.3.2ZM61,219l-18,.1c-6,.1-12,.1-18,.3H23.9c-.1-3.3-.4-6.5-.6-9.8-.3-3.5-.6-7-1-10.6-.4-3.5-.8-7-1.5-10.5a35.758,35.758,0,0,0-3.5-9.1c2.2-.9,4.6-1.6,7-2.4l7.2-2.3L46,170.2h.1c.3.3.5.6.8.9a27.249,27.249,0,0,0,2.5,2.3c-1.2.6-2.5,1.2-3.7,1.9l-.7.3.3.7c1.6,3.7,3.3,7.4,5,11,1.7,3.7,3.5,7.3,5.2,10.9L60.9,209c1.7,3.3,3.4,6.5,5.2,9.7a29.106,29.106,0,0,1-5.1.3Zm5.3,0c-1.3-3.5-2.8-6.9-4.2-10.3-1.6-3.7-3.2-7.4-4.9-11.1s-3.4-7.3-5.1-11c-1.6-3.4-3.3-6.8-5-10.2,2.3-1.4,4.6-2.7,6.9-4.1l7.5-4.7c-1.4.6-2.7,1.2-4,1.8l-4,1.9c-1.3.7-2.7,1.4-4,2a28.318,28.318,0,0,0-2-2.8c-.5-.7-1.1-1.3-1.6-2l-.3-.4c3-1.2,6.1-2.5,9.1-3.8l10-4.2a28.111,28.111,0,0,0,.7,3.7l.3,1.8.3,1.9c.4,2.5.8,5.1,1.3,7.6,1,5,1.9,10.1,3.1,15.1q3.15,14.4,7.2,28.5C73.8,218.9,70.1,219,66.3,219Zm13.6.2c-1.4-4.7-2.7-9.5-4-14.3-.5-2-1.1-3.9-1.6-5.9,1.7-2.3,3.5-4.5,5.3-6.7,2-2.4,4-4.7,6.1-7,1-1.1,2.1-2.2,3.2-3.3l.1-.1c1.2,3.1,4.6,11.4,5.9,14.1-.3,1.7-2.7,16.8-2.9,23.3Zm13.1.1c.2-6.6,2.7-21.7,2.9-23.2V196l-.1-.1c-1.2-2.5-4.9-11.7-6-14.5a13.016,13.016,0,0,1,2.5-1.8.6.6,0,0,1,.4-.1,4.331,4.331,0,0,1,.5-.1l1.1-.2c.8-.1,1.5-.2,2.3-.3,1.5-.2,3-.3,4.5-.5l4.5.5,2.3.2a.749.749,0,0,1,.5.1.367.367,0,0,1,.3.1,3.509,3.509,0,0,1,.8.5,21.8,21.8,0,0,1,2.8,2.5c-1.5,3.5-5.4,13.3-5.5,13.4v.2c.6,4,2.7,20.3,3.1,23.5L93,219.3Zm18,.3c-.2-1.5-2.5-19.7-3.1-23.9.4-1.1,3.8-9.4,5.2-12.9,1,1,1.9,2,2.8,3,2,2.3,4,4.6,5.9,7a21.965,21.965,0,0,1,1.4,1.8,12.81,12.81,0,0,1,1.1,2l1.3,2.5-1.5,5.7c-1.3,4.9-2.7,9.9-4.2,14.8-2.9.1-5.9.1-8.9,0Zm11.4-.7q4.05-14.1,7.2-28.5c1.1-5,2.1-10.1,3.1-15.1.4-2,.7-4.1,1.1-6.1a42.677,42.677,0,0,0,2.2-8.7l9.3,3.9c3.1,1.3,6.1,2.5,9.1,3.8l-.3.4a15.583,15.583,0,0,0-1.6,2,27.5,27.5,0,0,0-1.9,2.8c-1.3-.7-2.7-1.4-4-2l-4-1.9c-1.3-.6-2.7-1.3-4-1.8l7.5,4.7c2.3,1.4,4.6,2.8,6.9,4.1-1.7,3.4-3.4,6.8-5,10.2-1.8,3.6-3.4,7.3-5.1,11s-3.3,7.4-4.9,11.1c-1.5,3.4-2.9,6.8-4.2,10.3-3.9-.1-7.6-.2-11.4-.2Zm52.6.5-18-.3-18-.1h-5.2c1.8-3.2,3.5-6.5,5.2-9.7q2.85-5.4,5.4-10.8c1.8-3.6,3.5-7.3,5.2-10.9,1.7-3.7,3.4-7.3,5-11l.3-.7-.7-.3c-1.2-.6-2.5-1.3-3.7-1.9a27.25,27.25,0,0,0,2.5-2.3c.3-.3.5-.6.8-.9h.1l14.5,4.5,7.2,2.3c2.4.8,4.8,1.5,7,2.4a29.625,29.625,0,0,0-3.5,9.1c-.7,3.5-1.1,7-1.5,10.5s-.8,7-1,10.6c-.2,3.3-.5,6.5-.6,9.8-.2-.3-.6-.3-1-.3Zm1.2,0,.6-4.5.7-5.3c.5-3.5.8-7,1.2-10.5l1.2-10.5a23.889,23.889,0,0,1,1.3-5.1c.5-1.4,1-2.8,1.6-4.1l.4.2.4-.3a3.391,3.391,0,0,1,2.1-.6,2.3,2.3,0,0,1,1.7,1.2c.9,1.4,1.2,3.4,1.6,5.3.7,3.8,1.2,7.6,1.7,11.5.5,3.8.9,7.7,1.2,11.6.3,3.8.6,7.5.6,11.3-5.3,0-10.8-.1-16.3-.2Z" transform="translate(-6.6 -144.3)" fill="#020303"/>
        <path id="SvgjsPath6698" d="M111,174.5c3.5.2,9.7,9.1,9.7,9.1s8.9-15.3,9.7-19c.8-3.6,2-14.2,2-14.2s-3,9.7-3.8,11.1-17.6,13-17.6,13Zm-33.5,15c2-3.5,8.4-11.7,9.9-12.5s7.6-1.6,7.6-1.6L80,164.5s2.1,8.2,2.1,10.1S77.5,189.5,77.5,189.5Z" transform="translate(-6.6 -144.3)" fill="#fff"/>
        <path id="SvgjsPath6699" d="M184.7,180.9c2.3.8,3.3,6.6,4.1,9.7s2.3,25.1,2.3,25.1-3.1-25.1-4.6-28.7A25.524,25.524,0,0,1,184.7,180.9ZM155,172c1.5-.2,21.9,5.8,25.7,8.2,0,0-10.6-2.3-15.3-3.6A51.422,51.422,0,0,1,155,172Zm-16.3-2.6c1,.5,13,7.8,13,7.8s-11.7,24.1-12.9,27.1-5.4,11.7-5.4,11.7,6.1-16.8,7.8-22.6c1.6-5.8,6.1-15.7,6.1-15.7l-8.6-8.3Zm-74.2-2.8c.5,5.3,7.8,40.6,10.9,47.8,0,0-6.6-15.3-9.7-29.5-3.2-14.2-1.2-18.3-1.2-18.3Z" transform="translate(-6.6 -144.3)" fill="#2c3131"/>
      </g>
      <g id="svga-group-head" transform="translate(45.9)">
        <g id="svga-group-ears-left-move" transform="translate(0 72.053)">
          <g id="svga-group-ears-left">
            <path id="SvgjsPath4201" d="M63.287,77.783s-8.265-7.265-9.592-7.383c-1.142-.1-3.973,5.938-5.226,9.756a4.348,4.348,0,0,0,.185,3.113c1.2,2.646,3.862,8.184,6.249,10.956a9.219,9.219,0,0,0,2.654.245c.638-.185,5.619-4.2,6.131-5.76s.615-8.377-.4-10.927Z" transform="translate(-48.173 -70.066)" fill="#f0c7b1"/>
            <path id="SvgjsPath4202" d="M63.967,80.506c.133.971.208,1.957.245,2.936s.044,1.964-.007,2.95q-.035.74-.126,1.475a5.669,5.669,0,0,1-.148.756,2.535,2.535,0,0,1-.341.712,12.145,12.145,0,0,1-1.831,2.076c-.652.623-1.32,1.208-2.009,1.779-.348.282-.689.556-1.053.823-.178.133-.363.259-.549.385l-.3.178a1.248,1.248,0,0,1-.393.141,5.029,5.029,0,0,1-1.349-.067c-.43-.059-.852-.141-1.282-.237l-.1-.022-.059-.074A27.7,27.7,0,0,1,51.9,90.128c-.815-1.468-1.557-2.987-2.268-4.522L48.585,83.3a4.548,4.548,0,0,1-.4-2.565,5.63,5.63,0,0,1,.326-1.238c.133-.4.274-.793.415-1.186.3-.778.586-1.564.9-2.335a30.31,30.31,0,0,1,2.179-4.463,8,8,0,0,1,.741-1.008,2.385,2.385,0,0,1,.5-.437.72.72,0,0,1,.385-.119,1.2,1.2,0,0,1,.348.089,11.82,11.82,0,0,1,2.039,1.3c1.275.956,2.5,1.972,3.706,3.032s2.387,2.12,3.566,3.247a13.135,13.135,0,0,1,.675,2.884Zm-8.221-8.658a11.59,11.59,0,0,0-1.92-1.193,1.763,1.763,0,0,0-.193-.059.32.32,0,0,0-.148.052,1.507,1.507,0,0,0-.378.326,6.8,6.8,0,0,0-.7.919A35.743,35.743,0,0,0,50.1,76.17c-.341.749-.682,1.5-.979,2.268-.148.385-.3.771-.437,1.164a5.661,5.661,0,0,0-.334,1.186,4.239,4.239,0,0,0,.408,2.417c.348.764.726,1.52,1.1,2.261.756,1.5,1.572,2.958,2.417,4.381a29.505,29.505,0,0,0,2.787,4.018l-.156-.1a9.4,9.4,0,0,0,2.439.245.553.553,0,0,0,.208-.082l.259-.163.519-.371c.348-.252.689-.526,1.03-.8.682-.549,1.342-1.127,1.987-1.735a13.609,13.609,0,0,0,1.772-1.935,2.18,2.18,0,0,0,.282-.534,5.431,5.431,0,0,0,.141-.66c.067-.467.126-.941.156-1.416.074-.956.1-1.927.111-2.891s-.03-1.942-.111-2.906a13,13,0,0,0-.489-2.847c-2.469-1.942-4.944-3.966-7.472-5.827Z" transform="translate(-48.142 -69.95)" fill="#e1ac8f"/>
            <path id="SvgjsPath4203" d="M64.146,85.422s-7.969-10.067-9.466-9.229-3.847,5.582-3.84,7.168c.015,2.328,2.476,6.212,3.714,7.383a4.891,4.891,0,0,0,4.707,1.438c1.972-.452,4.885-6.761,4.885-6.761Z" transform="translate(-48.84 -71.552)" fill="#e1ac8f"/>
            <path id="SvgjsPath4204" d="M58.23,85.807c-.334-.934-.7-1.853-1.075-2.772s-.784-1.816-1.231-2.7a23.488,23.488,0,0,0-1.46-2.557L54.4,77.69l-.059.089c-.556.875-1.075,1.764-1.572,2.684-.245.46-.489.927-.712,1.4s-.423.971-.623,1.468l-.03.074.03.089c.341,1.045.712,2.068,1.09,3.1.185.511.4,1.016.615,1.52a12.6,12.6,0,0,0,.734,1.49l.141.23.185-.171a4.83,4.83,0,0,0,.645-.756,6.341,6.341,0,0,0,.511-.867,4.382,4.382,0,0,0,.445-2.031v-.044l-.015-.03c-.371-.734-.764-1.453-1.149-2.179l-.037.022c.311.749.615,1.5.934,2.246a4.324,4.324,0,0,1-.5,1.787,5.4,5.4,0,0,1-.919,1.223c-.193-.363-.371-.756-.541-1.156l-.6-1.5c-.393-.979-.764-1.972-1.127-2.958a28.5,28.5,0,0,1,1.127-2.832,18.883,18.883,0,0,1,1.453-2.6,18.014,18.014,0,0,1,1.245,2.513l1.142,2.721,1.156,2.721c.385.9.778,1.816,1.186,2.713l.044-.022c-.3-.941-.63-1.883-.971-2.817Z" transform="translate(-48.987 -71.952)" fill="#c27b55"/>
          </g>
        </g>
        <g id="svga-group-ears-right-move" transform="translate(78.834 70.249)">
          <g id="svga-group-ears-right">
            <path id="SvgjsPath4205" d="M131.259,78.362s8.914-7.835,10.345-7.963c1.231-.112,4.285,6.4,5.636,10.521a4.69,4.69,0,0,1-.2,3.358c-1.3,2.854-4.165,8.826-6.74,11.816a9.942,9.942,0,0,1-2.862.264c-.688-.2-6.06-4.533-6.612-6.212S130.164,81.113,131.259,78.362Z" transform="translate(-130.209 -70.064)" fill="#f0c7b1"/>
            <path id="SvgjsPath4206" d="M131.183,78.255c1.263-1.215,2.534-2.374,3.845-3.5,1.3-1.135,2.622-2.239,4-3.27a12.289,12.289,0,0,1,2.2-1.407,1.722,1.722,0,0,1,.376-.1.825.825,0,0,1,.416.128,2.063,2.063,0,0,1,.536.472,8.627,8.627,0,0,1,.8,1.087,33.921,33.921,0,0,1,2.35,4.813c.344.831.656,1.671.975,2.518.152.424.3.847.448,1.279a6.552,6.552,0,0,1,.352,1.335,4.9,4.9,0,0,1-.432,2.766l-1.127,2.486c-.775,1.647-1.567,3.286-2.446,4.877a29.088,29.088,0,0,1-2.99,4.517l-.064.08-.1.024c-.464.1-.919.184-1.383.256a6.193,6.193,0,0,1-1.455.072,1.346,1.346,0,0,1-.424-.152l-.32-.192c-.2-.136-.4-.272-.592-.416-.384-.288-.76-.584-1.135-.887-.743-.608-1.463-1.247-2.167-1.919a13.409,13.409,0,0,1-1.975-2.239,2.734,2.734,0,0,1-.368-.768,8.125,8.125,0,0,1-.16-.815c-.064-.536-.112-1.063-.136-1.591-.056-1.063-.056-2.119-.008-3.182s.12-2.119.264-3.166a12.073,12.073,0,0,1,.728-3.11Zm.048.048a13.058,13.058,0,0,0-.528,3.07c-.08,1.039-.12,2.087-.12,3.134s.048,2.087.12,3.118c.04.52.1,1.031.168,1.527.048.248.088.5.152.712a2.106,2.106,0,0,0,.3.576,15.121,15.121,0,0,0,1.911,2.087c.688.648,1.407,1.271,2.143,1.871.368.3.736.584,1.111.863l.56.4.28.176a.6.6,0,0,0,.224.088,10.133,10.133,0,0,0,2.63-.264l-.168.1a31.822,31.822,0,0,0,3.006-4.333c.911-1.535,1.791-3.11,2.606-4.725.408-.807.815-1.615,1.191-2.438a4.572,4.572,0,0,0,.44-2.606,5.972,5.972,0,0,0-.36-1.279c-.152-.424-.3-.839-.472-1.255-.32-.831-.688-1.647-1.055-2.446a37.941,37.941,0,0,0-2.486-4.613,7.329,7.329,0,0,0-.751-.991,2.236,2.236,0,0,0-.408-.352.344.344,0,0,0-.16-.056,1.9,1.9,0,0,0-.208.064,12.5,12.5,0,0,0-2.071,1.287C136.579,74.009,133.909,76.192,131.231,78.3Z" transform="translate(-130.156 -69.98)" fill="#e1ac8f"/>
            <path id="SvgjsPath4207" d="M131.21,86.15S139.8,75.293,141.419,76.2s4.149,6.02,4.141,7.731c-.016,2.51-2.67,6.7-4.005,7.963a5.275,5.275,0,0,1-5.077,1.551C134.352,92.954,131.21,86.15,131.21,86.15Z" transform="translate(-130.367 -71.216)" fill="#e1ac8f"/>
            <path id="SvgjsPath4208" d="M146.447,83.784c-.208-.536-.416-1.071-.672-1.583q-.36-.767-.768-1.511c-.536-.991-1.1-1.951-1.695-2.894l-.064-.1-.064.1a27.594,27.594,0,0,0-1.575,2.758c-.48.943-.911,1.919-1.327,2.91-.392.991-.8,1.983-1.159,2.99s-.72,2.023-1.023,3.046l.048.024c.44-.967.855-1.951,1.279-2.926l1.247-2.934,1.231-2.934a19.425,19.425,0,0,1,1.343-2.71,20.846,20.846,0,0,1,1.567,2.806,29.606,29.606,0,0,1,1.215,3.054c-.4,1.071-.791,2.135-1.215,3.19l-.648,1.623c-.184.424-.376.855-.584,1.247a5.821,5.821,0,0,1-.991-1.319,4.545,4.545,0,0,1-.544-1.927c.344-.8.672-1.615,1.007-2.422l-.04-.024c-.416.783-.839,1.559-1.239,2.35l-.016.032v.048a4.726,4.726,0,0,0,.48,2.191,6.387,6.387,0,0,0,.552.935,5.146,5.146,0,0,0,.7.815l.2.184.152-.248a14.924,14.924,0,0,0,.791-1.607c.232-.544.456-1.087.664-1.639.408-1.1.807-2.215,1.175-3.342l.032-.1-.056-.088Z" transform="translate(-131.749 -71.528)" fill="#c27b55"/>
          </g>
        </g>
        <g id="svga-group-faceshape-wrap" transform="translate(6.7 23.348)">
          <g id="svga-group-faceshape-single">
            <path id="SvgjsPath4437" d="M140.4,54.9c-2.2-10-6.3-16-15.2-20.8-9.3-5-25.2-4.8-25.2-4.8s-15.9-.2-25.2,4.8c-8.8,4.8-13,10.8-15.2,20.8-.9,4,0,13.6,0,13.6S62,90.8,62,97.3s-.8,25.8.6,27.9,23.7,23.4,26.7,25.1c3,1.6,18.4,1.6,21.4,0s25.3-23,26.7-25.1.6-21.4.6-27.9,2.3-28.9,2.3-28.9,1-9.5.1-13.5Z" transform="translate(-59.2 -29.299)" fill="#f0c7b1"/>
            <path id="SvgjsPath4438" d="M140.4,54.9c-2.2-10-6.3-16-15.2-20.8-9.3-5-25.2-4.8-25.2-4.8s-15.9-.2-25.2,4.8c-8.8,4.8-13,10.8-15.2,20.8-.9,4,0,13.6,0,13.6S62,90.8,62,97.3s-.8,25.8.6,27.9,23.7,23.4,26.7,25.1c3,1.6,18.4,1.6,21.4,0s25.3-23,26.7-25.1.6-21.4.6-27.9,2.3-28.9,2.3-28.9,1-9.5.1-13.5Zm0,10.1c-.1,1.1-.2,2.3-.3,3.4-.8,6.8-1.6,13.6-2.3,20.4-.2,1.7-.3,3.4-.5,5.1-.1,1.7-.2,3.5-.2,5.2v15.3c0,1.7-.1,3.4-.1,5.1a21.054,21.054,0,0,1-.2,2.5c0,.4-.1.8-.1,1.2a3.6,3.6,0,0,1-.2,1.1l-.1.2-.3.4-.8.9-1.8,1.8c-2.4,2.4-4.9,4.8-7.3,7.1-2.5,2.3-4.9,4.7-7.4,7-1.2,1.2-2.5,2.3-3.8,3.4s-4.41,3.72-4.75,3.97a2.024,2.024,0,0,1-.7.32c-.61.15-1.86.44-2.45.51-1.6.2-3.3.3-5,.4a41.692,41.692,0,0,1-5,0c-1.7-.1-5.7-.5-6.1-.6a4.138,4.138,0,0,1-1.8-.8l-1-.8c-1.3-1.1-2.6-2.2-3.8-3.3-2.5-2.2-5.1-4.5-7.6-6.9-2.5-2.3-5-4.6-7.5-7-1.2-1.2-2.5-2.3-3.7-3.5l-.9-.9-.9-.9a2.57,2.57,0,0,1-1.05-1.81c-.1-.8-.15-1.59-.25-2.49a20.9,20.9,0,0,1-.1-2.5c-.1-1.7-.1-3.4-.1-5.1V98.4c0-1.7-.1-3.4-.2-5.1-.5-6.8-1.1-13.6-1.7-20.4L60.3,70a22.857,22.857,0,0,1-.2-2.5c-.1-1.7-.2-3.4-.2-5.1s0-3.4.1-5a20.023,20.023,0,0,1,.4-2.4c.2-.8,2.3-6.8,2.5-7.1a26.691,26.691,0,0,1,2.5-4.3,38,38,0,0,1,3.3-3.7,28.825,28.825,0,0,1,3.9-3,46.308,46.308,0,0,1,4.3-2.4c.4-.2,2.2-.9,2.2-.9s2-.7,2.4-.8a64.16,64.16,0,0,1,9.9-1.9,84.281,84.281,0,0,1,10.1-.6c1.7,0,3.4.1,5.1.2a21.052,21.052,0,0,1,2.5.2c.8.1,1.7.2,2.5.3a48.522,48.522,0,0,1,9.9,2.1,37.6,37.6,0,0,1,4.6,2c.4.2.7.4,1.1.6l1.1.7c.7.5,1.4.9,2.1,1.4a23,23,0,0,1,6.6,7.6,27.649,27.649,0,0,1,2,4.7,44.187,44.187,0,0,1,1.3,4.89,22.163,22.163,0,0,1,.31,3.7c0,1.11-.11,5.21-.21,6.31Z" transform="translate(-59.2 -29.299)" fill="#c27b55"/>
          </g>
        </g>
        <g id="svga-group-mouth-single-move" transform="matrix(0.996, 0.087, -0.087, 0.996, 31.634, 111.278)">
          <g id="svga-group-mouth-single">
            <path id="SvgjsPath7592" d="M32.5.119c-2.72.91-5.53,1.92-7.88,2.91-2.5,1.06-4.07,2.57-6.76,3.19-2.65.62-5.3-.52-8.01-.37-2.69.14-6.08,2.24-7.87-.41-.95-1.41-2.74.41-1.63,1.37a11.053,11.053,0,0,0,5.96,2.73,61.551,61.551,0,0,0,10.34-.05c6.21-.67,11.72-3.75,17.44-6.41C35.951,1.779,35.111-.551,32.5.119Z" fill="#da7c87"/>
            <path id="SvgjsPath7593" d="M11.164.014c-1.8-.09-3.6.28-5.4.35S2.144.294.334.3a.342.342,0,0,0-.09.67c3.35.88,7.85,1.04,11.07-.39C11.614.454,11.444.034,11.164.014Z" transform="translate(11.941 12.642)" fill="#e1ac8f"/>
          </g>
        </g>
        <g id="svga-group-eyes-left-move" transform="translate(15.01 68.109)">
          <g id="svga-group-eyes-left" transform="translate(0 0)">
            <g id="svga-group-eyesback-left" transform="translate(0.54 0.45)">
              <path id="SvgjsPath6191" d="M72.18,66.78a11.708,11.708,0,1,1-12.15,11.7A11.894,11.894,0,0,1,72.18,66.78Z" transform="translate(-60.03 -66.78)" fill="#fff"/>
            </g>
            <g id="svga-group-eyesiriswrapper-left" transform="translate(7.65 7.11)">
              <g id="svga-group-eyesiriscontrol-left">
                <g id="svga-group-eyesiris-left">
                  <path id="SvgjsPath4318" d="M72.18,73.44a5.04,5.04,0,1,1-5.04,5.04A5.032,5.032,0,0,1,72.18,73.44Z" transform="translate(-67.14 -73.44)" fill="#432f15"/>
                  <path id="SvgjsPath4319" d="M72.18,75.78a2.7,2.7,0,1,1-2.7,2.7A2.652,2.652,0,0,1,72.18,75.78Z" transform="translate(-67.14 -73.44)"/>
                  <path id="SvgjsPath4320" d="M71.55,76.32l-.54-.54a1.019,1.019,0,0,0-1.44,1.44l.54.54a.972.972,0,0,0,.63.27.7.7,0,0,0,.63-.27c.54-.54.54-1.08.18-1.44Zm2.43,4.59a.675.675,0,1,0,0-1.35A.675.675,0,0,0,73.98,80.91Z" transform="translate(-67.14 -73.44)" fill="#fff"/>
                </g>
              </g>
            </g>
            <g id="svga-group-eyesfront-left">
              <path id="SvgjsPath6199" d="M72.18,66.33A12.248,12.248,0,1,0,84.87,78.57,12.47,12.47,0,0,0,72.18,66.33Zm0,19.71c-4.95,0-9.63-2.52-9.72-3.33-.18-.9.81-3.78,2.88-6.12,2.16-2.34,7.2-3.15,11.52-1.35s5.31,7.2,5.31,7.2C82.26,84.06,77.13,86.04,72.18,86.04Z" transform="translate(-59.49 -66.33)" fill="#f0c7b1"/>
              <path id="SvgjsPath6200" d="M80.46,78.21c.63,0,2.79,0,2.16-.18-1.08-.36-5.04-3.42-6.12-3.87a31.042,31.042,0,0,0-5.58-1.17,51.224,51.224,0,0,0-6.93,2.88c-.54.36-1.98,5.4-2.34,5.67-.18.18.36.45.72.63a.331.331,0,0,1-.09.27v.18c0,.09.09.18.09.27a1.243,1.243,0,0,0,.27.36c.18.18.45.36.63.54.45.27.9.54,1.44.81a17.6,17.6,0,0,0,6.12,1.62,18.557,18.557,0,0,0,6.3-.63,19.708,19.708,0,0,0,2.97-1.08,10.715,10.715,0,0,0,1.35-.81l.54-.54a1.022,1.022,0,0,0,.27-.72,13.161,13.161,0,0,0-1.08-2.97c-.27-.36-.45-.81-.72-1.26Zm1.44,4.95-.54.54a9.837,9.837,0,0,1-1.35.72,18.664,18.664,0,0,1-2.97.9,23.408,23.408,0,0,1-6.12.45,19.271,19.271,0,0,1-5.94-1.53,9.837,9.837,0,0,1-1.35-.72c-.18-.18-.45-.27-.63-.45-.09-.09-.18-.18-.18-.27s0-.09-.09-.09v-.18a1.142,1.142,0,0,1,.09-.54,26.188,26.188,0,0,1,2.25-4.5,8.044,8.044,0,0,1,6.21-2.97,17.957,17.957,0,0,1,4.05.45,9.37,9.37,0,0,1,1.44.54,8.084,8.084,0,0,1,2.52,1.62,11.154,11.154,0,0,1,2.97,5.31,1.809,1.809,0,0,1-.36.72Z" transform="translate(-59.49 -66.33)"/>
            </g>
          </g>
        </g>
        <g id="svga-group-eyes-right-move" transform="translate(54.61 68.109)">
          <g id="svga-group-eyes-right" transform="translate(0 0)">
            <g id="svga-group-eyesback-right" transform="translate(0.54 0.45)">
              <path id="SvgjsPath6192" d="M107.82,66.78a11.708,11.708,0,1,1-12.15,11.7A11.894,11.894,0,0,1,107.82,66.78Z" transform="translate(-95.67 -66.78)" fill="#fff"/>
            </g>
            <g id="svga-group-eyesiriswrapper-right" transform="translate(8.28 7.74)">
              <g id="svga-group-eyesiriscontrol-right">
                <g id="svga-group-eyesiris-right">
                  <path id="SvgjsPath4321" d="M107.82,74.07a4.41,4.41,0,1,1-4.41,4.41A4.417,4.417,0,0,1,107.82,74.07Z" transform="translate(-103.41 -74.07)" fill="#432f15"/>
                  <path id="SvgjsPath4322" d="M107.82,76.14a2.34,2.34,0,1,1-2.34,2.34A2.383,2.383,0,0,1,107.82,76.14Z" transform="translate(-103.41 -74.07)"/>
                  <path id="SvgjsPath4323" d="M107.28,76.59c-.18-.18-.27-.36-.45-.45a.817.817,0,0,0-.63-.27.972.972,0,0,0-.63.27.817.817,0,0,0-.27.63.972.972,0,0,0,.27.63c.18.18.36.27.45.45a.817.817,0,0,0,.63.27.972.972,0,0,0,.63-.27,1.072,1.072,0,0,0,0-1.26Zm2.16,4.05a.585.585,0,0,0,0-1.17C108.72,79.38,108.72,80.64,109.44,80.64Z" transform="translate(-103.41 -74.07)" fill="#fff"/>
                </g>
              </g>
            </g>
            <g id="svga-group-eyesfront-right">
              <path id="SvgjsPath6201" d="M107.82,66.33a12.248,12.248,0,1,0,12.69,12.24,12.47,12.47,0,0,0-12.69-12.24Zm.27,18.54c-4.95,0-10.17-1.71-9.99-3.06,0,0,1.08-4.59,5.31-6.21s8.64-.63,10.8,1.35c2.16,2.07,3.78,4.32,3.6,5.04-.09.72-4.77,2.88-9.72,2.88Z" transform="translate(-95.13 -66.33)" fill="#f0c7b1"/>
              <path id="SvgjsPath6204" d="M118.71,81a48.78,48.78,0,0,0-3.69-3.87c-.54-.27-3.6-2.88-4.32-2.88s-5.76,0-6.84.36a17.676,17.676,0,0,0-4.23,3.06c-.27.36.18.18.63,0a12.877,12.877,0,0,0-.99,1.35,11.688,11.688,0,0,0-1.17,2.7,1.022,1.022,0,0,0,.27.72,1.614,1.614,0,0,0,.63.45c.45.27.9.45,1.35.72a15.313,15.313,0,0,0,2.88.9,22.248,22.248,0,0,0,5.94.63,21.785,21.785,0,0,0,5.85-1.17,10.833,10.833,0,0,0,2.7-1.35l.27-.27a.331.331,0,0,0,.09-.27v-.27c0-.09,0-.09-.09-.18C118.35,81.45,118.89,81.27,118.71,81Zm-1.08.99c-.09.09-.09.18-.18.18a11.689,11.689,0,0,1-2.61,1.26,25.18,25.18,0,0,1-5.76,1.17,31.935,31.935,0,0,1-5.85-.36,16.853,16.853,0,0,1-2.88-.72A9.083,9.083,0,0,1,99,82.89a2.735,2.735,0,0,1-.63-.45.817.817,0,0,1-.27-.63,9.288,9.288,0,0,1,3.24-4.77,9.763,9.763,0,0,1,2.52-1.35,10.991,10.991,0,0,1,2.34-.54c.18,0,.45-.09.63-.09h.63a10.683,10.683,0,0,1,4.77.81,11.443,11.443,0,0,1,2.61,2.25,32.475,32.475,0,0,1,2.52,3.33.811.811,0,0,1,.09.45C117.63,81.81,117.63,81.9,117.63,81.99Z" transform="translate(-95.13 -66.33)"/>
            </g>
          </g>
        </g>
        <g id="svga-group-eyebrows-left-move" transform="matrix(1, 0.017, -0.017, 1, 13.752, 63.755)">
          <g id="svga-group-eyebrows-left-rotate">
            <g id="svga-group-eyebrows-left">
              <path id="SvgjsPath6478" d="M27.4,2.9a23.6,23.6,0,0,1-1,5.149S10.3,4.714,8.4,4.569,0,7.542,0,7.542L6.5.435l3.8.218L9.7,0l8,1.378,7.5.87.5,2.031.4-2.031.5,2.031L27.4,2.9Z" transform="translate(0.6 0.4)" fill="#2a232b"/>
              <path id="SvgjsPath6479" d="M28,3.263l-.1.074a2.067,2.067,0,0,1-.4.593,3.215,3.215,0,0,0-.3.519L26.8,2.6l-.2-.667-.2.667-.3,1.186L25.8,2.6V2.447h-.2l-3.9-.519-1.9-.222c-.6-.074-1.3-.148-1.9-.222-2.6-.445-5.1-.89-7.7-1.335L9.4,0l.5.593.3.074L7.1.519H6.9L6.8.593C5.7,1.854,4.7,3.04,3.6,4.3L.4,8.008,0,8.453l.6-.3a40.3,40.3,0,0,1,6-2.521c.5-.148,1.1-.3,1.6-.445A2.928,2.928,0,0,1,9,5.116l.4.074.4.074c1.1.222,2.3.445,3.4.667,2.3.519,4.5.964,6.8,1.409s4.5.89,6.8,1.335l.2.074V8.6a25.59,25.59,0,0,0,.6-2.669c.1-.445.1-.89.2-1.335a1.553,1.553,0,0,1,.1-.667V3.337l.1-.074h0Zm-.1.3-.1.3-.1.667-.3,1.335A22.474,22.474,0,0,1,26.7,8.3c-2.2-.519-4.4-.964-6.6-1.483-2.3-.519-4.5-.964-6.8-1.335-1.1-.222-2.3-.371-3.4-.593L9.5,4.82l-.4-.074a3.692,3.692,0,0,0-.9.074c-.6.148-1.1.3-1.6.445a48.629,48.629,0,0,0-5.5,2.3L4,4.449C5.1,3.263,6.2,2.076,7.2.964l3.6.222.7.074L11.1.742,11,.667c2.3.445,4.6.816,6.9,1.186l3.9.445,3.7.371L26,4.523l.2.89.2-.89.3-1.483.4,1.409.1.222.1-.222.3-.667a4.383,4.383,0,0,1,.3-.593v.371ZM25,7.044a11.673,11.673,0,0,0-.2-1.854c-.1-.3-.1-.593-.2-.89a3.492,3.492,0,0,0-.4-.89,2.708,2.708,0,0,1,.1.89,2.859,2.859,0,0,0,.2.89A12.744,12.744,0,0,0,25,7.044ZM23.8,5.784c-.2-.222-.3-.519-.5-.741L22.8,4.3l-1-1.409-.2-.371v.445c0,1.186,0,2.373.1,3.559l.3-.074c-.3-.3-.6-.667-.9-.964l-.9-.89a8.981,8.981,0,0,0-1-.89,5.267,5.267,0,0,0-1.1-.816c.3.3.7.593,1,.89l.9.89a11.456,11.456,0,0,1,.9.964,6.8,6.8,0,0,1,.8.964l.3.371V6.525c0-1.186-.1-2.373-.1-3.559l-.2.074,1.1,1.409.6.667c0,.222.2.445.4.667Z" fill="#1b141c"/>
            </g>
          </g>
        </g>
        <g id="svga-group-eyebrows-right-move" transform="translate(52.778 62.021)">
          <g id="svga-group-eyebrows-right-rotate">
            <g id="svga-group-eyebrows-right">
              <path id="SvgjsPath6480" d="M107.2,72.564a23.3,23.3,0,0,0,2.457,4.907s15.919-5.442,17.949-5.8,9.615,1.784,9.615,1.784L128.461,67.3l-3.846.714.427-.714-8.013,2.409-7.586,1.784v2.052l-.962-1.963v2.052L107.2,72.564Z" transform="translate(-107.2 -66.7)" fill="#2a232b"/>
              <path id="SvgjsPath6481" d="M137.275,73.355l-4.267-3.147c-1.387-1.079-2.88-2.068-4.374-3.147l-.107-.09h-.107l-3.2.54.107-.18.427-.629-.853.27c-2.56.719-5.12,1.529-7.68,2.338l-1.92.54-1.92.54-3.947.989h-.213v1.349l-.64-1.169-.32-.629v.629l.107,1.8c-.107-.18-.32-.27-.427-.45-.213-.18-.32-.36-.533-.54l-.107-.09v.27l.107.18.107.36a1.475,1.475,0,0,1,.213.629c.213.45.32.809.533,1.259a27.985,27.985,0,0,0,1.28,2.518l.107.18.213-.09c2.24-.719,4.48-1.439,6.827-2.248,2.24-.719,4.48-1.529,6.72-2.248,1.173-.36,2.24-.719,3.414-1.079l.427-.09.427-.09a2.761,2.761,0,0,1,.853-.09,12.386,12.386,0,0,1,1.813.18,66.209,66.209,0,0,1,7.04,1.619l.64.18-.747-.36Zm-8.854-1.888a3.478,3.478,0,0,0-.96.09l-.427.09-.427.09c-1.173.27-2.347.629-3.414.989-2.347.719-4.587,1.439-6.827,2.158s-4.374,1.529-6.507,2.338a12.057,12.057,0,0,1-1.28-2.248c-.213-.36-.427-.809-.64-1.259l-.32-.629-.107-.27-.107-.18v-.09a1.891,1.891,0,0,1,.427.54,3.9,3.9,0,0,1,.533.629l.213.18V72.186l.64,1.349.427.809V71.556l3.84-.9c1.28-.27,2.667-.629,3.947-.9,2.347-.719,4.587-1.349,6.934-2.068v.09l-.32.54.747-.18,3.734-.719c1.387.989,2.88,1.978,4.267,2.968l3.84,2.608c-2.133-.54-4.16-1.079-6.4-1.439a6.151,6.151,0,0,1-1.813-.09Zm-17.068,4.227a5.2,5.2,0,0,1-.213-1.8v-.9a1.409,1.409,0,0,1,.213-.9c0,.27.107.629.107.9s.107.629.107.9C111.46,74.524,111.46,75.153,111.354,75.693Zm.96-1.349a5.626,5.626,0,0,1,.32-.719l.32-.719.64-1.529.213-.36.107.36c.32,1.169.533,2.338.853,3.417h-.32l.64-1.079a3.7,3.7,0,0,1,.747-.989c.213-.36.533-.629.747-.989a3.7,3.7,0,0,1,.853-.9,3.7,3.7,0,0,0-.747.989,6.021,6.021,0,0,1-.747.989l-.64,1.079-.64,1.079-.213.36-.107-.36c-.32-1.169-.533-2.338-.853-3.417h.32l-.747,1.439-.427.719a1.1,1.1,0,0,1-.32.629Z" transform="translate(-107.2 -66.7)" fill="#1b141c"/>
            </g>
          </g>
        </g>
        <g id="svga-group-beardwrap" transform="translate(6.845 79.334)">
          <g id="svga-group-beard-single-move">
            <g id="svga-group-beard-single" transform="translate(0 0)">
              <path id="SvgjsPath5174" d="M129.78,85.14l.72.99a33.6,33.6,0,0,0-1.26-6.84c-.9-2.43-4.95-5.85-4.95-5.85s-1.62,16.83-7.2,26.82c-4.32,7.74-7.29,8.91-9.18,8.28,1.8-.72,4.556,3.06,5.276,1.98,2.97-4.32-3.926-7.92-7.256-7.38a31.464,31.464,0,0,1-8.55-.36c-3.24-.45-7.65,1.35-7.65,1.35-2.34-.81-5.76-1.53-8.28-1.08-2.43.45-12.78,1.71-9.36,4.23-1.44,0-3.69-.54-6.39-2.88-4.77-4.14-10.08-18.18-9.81-30.51a64.486,64.486,0,0,0-4.41,6.21,26.2,26.2,0,0,0-1.35,6.12l.9-.36s.18,1.35.36,10.53a135.4,135.4,0,0,0,3.15,24.93l.9-.99a15.8,15.8,0,0,0,1.17,3.87c.99,2.43,21.51,25.74,23.58,27.9,1.98,2.16,7.83,4.77,7.83,4.77V155.7l2.97.99a7.8,7.8,0,0,0,3.15-1.89l-.36,1.89a14.759,14.759,0,0,0,7.29-4.14c3.06-3.33,17.19-21.33,17.82-22.23l-.63,1.89a47.292,47.292,0,0,0,4.41-5.31,95.7,95.7,0,0,0,5.04-10.08c.63-1.89,1.89-14.31,1.62-20.25l.54,1.44-.09-12.87ZM105.93,114.3c-.99,4.32-5.04,9.09-7.47,10.35-.363.188-2.081.873-2.979,0-.658-.637-.406-3.4-1.625-3.923s-4.287-.446-6.091-.638c-1.43-.151-1.5,2.91-3.075,3.829-1.259.736-3.962-.7-4.77-1.7-3.42-4.32-5.94-9.27-6.12-13.77,6.39,3.51,16.2,2.07,16.2,2.07,6.75.18,12.51-.27,16.56-1.44a23.162,23.162,0,0,1-.63,5.22Z" transform="translate(-49.32 -72.54)" fill="#2a232b"/>
              <path id="SvgjsPath5175" d="M130.23,86.58l.9,1.17-.18-1.62c-.09-1.26-.27-2.43-.45-3.69a18.437,18.437,0,0,0-.45-2.16c0-.09,0-.18-.09-.18a7.056,7.056,0,0,0-.45-1.26,12.808,12.808,0,0,0-2.25-3.06,24.8,24.8,0,0,0-2.7-2.61l-.72-.63-.09.9a101.944,101.944,0,0,1-2.07,10.44,76.373,76.373,0,0,1-2.97,10.08,41.069,41.069,0,0,1-4.41,9.45,18.684,18.684,0,0,1-3.33,4.14,4.276,4.276,0,0,1-1.71.81,8.218,8.218,0,0,0,2.07-1.35c.81-.81,1.043.54,1.493-.54.81-1.98-8.423-3.33-9.593-3.33s-2.25-.09-3.42-.18-2.25-.27-3.42-.36a19.293,19.293,0,0,0-6.75,1.44,24.423,24.423,0,0,0-6.21-1.17h-.09a10.068,10.068,0,0,0-3.24.45,19.519,19.519,0,0,1-3.15.63c-1.08.09-6.84,1.89-5.58,3.15.36.36-.45-.18-.09.09-.9-.09-.36.18-1.26-.18a20.78,20.78,0,0,1-4.68-4.23,42.718,42.718,0,0,1-5.31-9.27,62.405,62.405,0,0,1-2.88-9.9A45.186,45.186,0,0,1,55.8,73.8v-.81l-.54.63-2.16,2.7a32.557,32.557,0,0,0-1.98,2.88,9.222,9.222,0,0,0-1.17,3.33,24.417,24.417,0,0,0-.54,3.42l-.09.54.54-.18.54-.18c.18,2.79-.36,5.58-.36,8.37,0,2.97.18,5.94.45,8.91s.63,5.94,1.08,8.82c.45,2.97,1.62,5.94,2.34,8.82l.18.54.45-.45.54-.54a24.828,24.828,0,0,0,.72,2.43,5.389,5.389,0,0,0,.72,1.44,15.268,15.268,0,0,0,.9,1.26c1.26,1.62,2.61,3.24,3.96,4.86.18.27.45.45.63.72.18.36.45.81.63,1.17-.09-.27-.18-.45-.27-.72,2.07,2.52,4.23,4.95,6.3,7.38a5.463,5.463,0,0,0,.63.9c-.09-.09-.09-.27-.18-.36.09.09.18.27.36.36.54.63,1.17,1.26,1.71,1.98.09.18.09.27.18.45v-.27c2.07,2.43,4.23,4.77,6.3,7.11a.682.682,0,0,1,.18.36c0-.09,0-.09-.09-.18l1.98,2.16a16.711,16.711,0,0,0,2.43,1.98,40.619,40.619,0,0,0,5.13,2.79c0,.09.09.09.09.18v-.18a.331.331,0,0,0,.27.09l.18.09v-1.08l2.79.9h.09c.09,0,.09,0,.18-.09v0a8.062,8.062,0,0,0,2.7-1.53l-.27,1.44-.09.27.27-.09a14.793,14.793,0,0,0,7.92-4.77c1.98-2.34,3.96-4.77,5.94-7.11l5.76-7.2c1.62-1.98,3.15-3.96,4.68-5.94l-.09.36-.45,1.26.9-.99c1.08-1.17,2.16-2.34,3.24-3.6a15.913,15.913,0,0,0,1.44-1.98c.45-.72.81-1.44,1.17-2.07.81-1.44,1.53-2.88,2.25-4.32a23.019,23.019,0,0,0,.99-2.16,4.521,4.521,0,0,0,.45-1.17c.09-.45.18-.81.27-1.26.54-3.24.81-6.39,1.08-9.63.18-2.34.36-4.77.36-7.11l.54,1.53-.09-2.61.36-11.07ZM99.81,103.5a22.783,22.783,0,0,0,3.42.27,11.654,11.654,0,0,0,3.51-.36c.54-.18.99-.18-.54.27,1.62.09,6.353,1.44,5.993,2.43,0,.09-.09.18-.09.27-1.35.63-2.573-1.17-4.013-1.26a9.267,9.267,0,0,1-4.59-1.26,6.62,6.62,0,0,0,4.59,1.89c1.53,0,2.753,1.71,3.923.81-.36.72-.413-.81-.953-.27a8.822,8.822,0,0,1-2.43,1.62,19.326,19.326,0,0,1-3.96-.81,28.444,28.444,0,0,1-3.87-1.44,8.36,8.36,0,0,0,3.69,2.07,8.767,8.767,0,0,0,4.05.18,20.281,20.281,0,0,1-3.96,1.26,15.424,15.424,0,0,1-4.95-1.26,13.346,13.346,0,0,1-4.32-3.15,8.706,8.706,0,0,0,4.05,3.78,9.11,9.11,0,0,0,4.32.9,4.517,4.517,0,0,1-1.08.18,39.861,39.861,0,0,1-4.59.54,10.585,10.585,0,0,1-2.52-1.8,10.912,10.912,0,0,1-1.98-2.88,5.116,5.116,0,0,0,1.44,3.33,5.7,5.7,0,0,0,2.34,1.44c-1.17.09-2.34.09-3.42.18a19.9,19.9,0,0,1-1.62-3.06,14.731,14.731,0,0,1-.9-3.42,5.8,5.8,0,0,0,.27,3.69,6.039,6.039,0,0,0,2.16,2.79H90a18.948,18.948,0,0,1-2.25.18,4.954,4.954,0,0,0,2.34-2.7,5.216,5.216,0,0,0,.09-3.69,18.515,18.515,0,0,1,6.21-1.17c1.08.09,2.25.36,3.42.45Zm6.39,5.94a11.476,11.476,0,0,1-.09,1.71,15.23,15.23,0,0,1-.63,3.42,16.176,16.176,0,0,1-3.15,6.03,15.545,15.545,0,0,1-2.34,2.52l-1.35,1.08a4.584,4.584,0,0,1-1.53.63,29.25,29.25,0,0,1-6.84.54,25.239,25.239,0,0,1-6.84-1.08,8.649,8.649,0,0,1-2.97-1.62,7.257,7.257,0,0,1-1.08-1.26,8.155,8.155,0,0,1-.99-1.44,24.973,24.973,0,0,1-4.59-11.16,18.49,18.49,0,0,0,5.76,1.71,36.254,36.254,0,0,0,10.35,0,72.729,72.729,0,0,0,12.51-.45c1.35-.18,2.61-.36,3.78-.63Zm-16.02-5.13a14.355,14.355,0,0,1-.63,3.42,9.388,9.388,0,0,1-1.8,2.97c-.99.09-1.89.09-2.88.09a32.915,32.915,0,0,1-5.13-.45,22.881,22.881,0,0,1-4.23-1.26,10.361,10.361,0,0,0,6.39-.27,9.857,9.857,0,0,0,5.22-4.14,14.708,14.708,0,0,1-11.7,4.23,15.381,15.381,0,0,1-3.15-1.89,12.745,12.745,0,0,0,1.98.63,16.068,16.068,0,0,0,2.07.18,10.942,10.942,0,0,0,4.14-.81,13,13,0,0,0,3.51-2.25,4.65,4.65,0,0,1,1.62-1.08,1.3,1.3,0,0,1,.63-.18,17.893,17.893,0,0,1,3.6.99H90c-.09-.09,0-.18.18-.18Zm-12.87-.18c1.53-.18,2.88-.72,4.32-.9a8.228,8.228,0,0,0-1.26.63,11.711,11.711,0,0,1-3.42,1.53,10.206,10.206,0,0,1-3.69.18C72.18,105.39,76.23,104.22,77.31,104.13Zm-5.04,2.25c.63.27.09-.36.72-.27a9.781,9.781,0,0,0,3.96,0,9.138,9.138,0,0,0,3.51-1.71,10.692,10.692,0,0,1,2.25-1.17h.72a16.163,16.163,0,0,1,1.98.18,5.8,5.8,0,0,0-1.8.99,16.493,16.493,0,0,1-3.42,2.07,13.154,13.154,0,0,1-7.92.54c-.45-.36.18.09-.18-.36C71.73,106.38,71.91,106.2,72.27,106.38ZM129.24,83.7v3.06a17.027,17.027,0,0,0-.45-2.07A25.45,25.45,0,0,0,127.53,81c-.54-1.17-1.08-2.34-1.71-3.42.45,1.17.9,2.43,1.26,3.6s.72,2.43,1.08,3.69.54,2.52.81,3.69c.09.63.27,1.26.36,1.89l.09,4.77-.54-1.44.09,2.7c.09,1.44,0,2.97,0,4.41-.09-.99-.18-1.89-.27-2.88a36.1,36.1,0,0,0-.72-4.5,35.05,35.05,0,0,0-1.08-4.41l1.08,9,.72,6.57c0,.45-.09.9-.09,1.35-.27,3.15-.54,6.39-1.08,9.54-.09.36-.18.81-.27,1.08a5.506,5.506,0,0,1-.45,1.08c-.36.72-.63,1.44-.99,2.16-.18.36-.45.81-.63,1.17.27-.99.45-2.07.72-3.15a53.769,53.769,0,0,0,.72-5.49c.09-1.8.18-3.69.09-5.49s-.18-3.69-.45-5.49c0,1.8,0,3.69-.09,5.49l-.27,5.4c-.09,1.8-.36,3.6-.54,5.4-.18,1.35-.36,2.7-.54,3.96-.36.81-.81,1.53-1.17,2.25s-.81,1.44-1.17,2.07-.9,1.26-1.35,1.89c-.72.9-1.44,1.71-2.25,2.61l.18-.54.45-1.35c.36-.54.63-1.08.99-1.62.54-1.08,1.08-2.16,1.53-3.24a21.61,21.61,0,0,0,1.08-3.42,15.8,15.8,0,0,0,.54-3.51c-.36,1.08-.72,2.25-1.08,3.33s-.81,2.25-1.17,3.33l-1.35,3.24c-.36.9-.81,1.71-1.17,2.61l-.27.36c-1.17,1.53-2.34,2.97-3.42,4.5a30.22,30.22,0,0,0,1.44-2.97,19.317,19.317,0,0,0,1.26-4.05,22.727,22.727,0,0,0,.54-4.14c-.27,1.35-.63,2.7-.99,4.05a28.09,28.09,0,0,1-1.35,3.87c-.54,1.26-1.08,2.52-1.71,3.78-.36.72-.72,1.35-1.08,1.98-.09.09-.09.18-.18.27l-5.76,7.29-.09.09a34.038,34.038,0,0,0,3.15-7.29,24.91,24.91,0,0,0,.9-4.5l-1.35,4.32c-.54,1.44-1.08,2.79-1.71,4.14s-1.35,2.7-2.07,3.96a15.851,15.851,0,0,1-1.26,2.07c-1.08,1.44-2.25,2.79-3.42,4.14a13.183,13.183,0,0,1-4.86,3.69,14.419,14.419,0,0,0,2.43-2.25,17.924,17.924,0,0,0,2.16-2.97,14.682,14.682,0,0,0,1.53-3.42,16.081,16.081,0,0,0,.81-3.6,22.515,22.515,0,0,1-1.35,3.42l-1.62,3.24a35.6,35.6,0,0,1-1.98,3.06c-.72.9-1.44,1.8-2.16,2.61a12.836,12.836,0,0,1-2.43.81l.27-1.53a15.2,15.2,0,0,0,2.25-4.32,15.415,15.415,0,0,0,.99-5.31c-.54,1.71-.99,3.42-1.62,5.04-.45,1.26-.99,2.61-1.53,3.87l-.36.36a7.1,7.1,0,0,1-2.79,1.8c.09-1.53.09-3.06.09-4.59.09-1.71.18-3.33.27-5.04a18.072,18.072,0,0,0-.45,9.72h-.09l-2.97-.99-.18-.09v1.08a.331.331,0,0,0-.27-.09,35.824,35.824,0,0,1-.72-5.31,33.209,33.209,0,0,1,.27-5.94,14.927,14.927,0,0,0-.9,5.94,14.705,14.705,0,0,0,1.17,5.22c-1.62-.81-3.24-1.71-4.77-2.61a6.868,6.868,0,0,1-.99-.72,21.676,21.676,0,0,1-1.35-2.97,24.038,24.038,0,0,1-1.17-3.6c-.27-1.26-.54-2.43-.72-3.69a26.585,26.585,0,0,1-.18-3.78,13.8,13.8,0,0,0-.27,3.87,25.487,25.487,0,0,0,.54,3.78,15.649,15.649,0,0,0,1.35,3.6,14.482,14.482,0,0,0,1.53,2.52,10.787,10.787,0,0,1-1.08-.99L78.3,149.4c-.18-.18-.27-.36-.45-.54-.45-1.26-.81-2.52-1.17-3.87-.54-1.62-.99-3.24-1.44-4.95a16.527,16.527,0,0,0,.81,5.13,14.092,14.092,0,0,0,1.08,2.7l-1.89-2.16c-.63-1.71-1.26-3.42-1.71-5.13a44.466,44.466,0,0,1-1.08-6.03,16.02,16.02,0,0,0,.45,6.21,18.633,18.633,0,0,0,1.62,4.23c-.99-1.17-1.98-2.25-2.97-3.42a27.09,27.09,0,0,0-.81-3.69,45.726,45.726,0,0,0-1.53-4.59,44.438,44.438,0,0,0,.9,4.77c.27.99.54,1.89.9,2.88a9.856,9.856,0,0,0-.9-.99c-.45-.45-.81-.99-1.26-1.44-.54-1.26-.99-2.52-1.44-3.78-.72-1.89-1.26-3.78-1.89-5.67a21.931,21.931,0,0,0,1.26,5.85,17,17,0,0,0,.99,2.25c-.54-.72-1.17-1.35-1.71-1.98a42.367,42.367,0,0,1-1.89-4.68,51.087,51.087,0,0,1-1.62-6.39,18.708,18.708,0,0,0,.99,6.66,31.088,31.088,0,0,0,1.26,3.06c-.9-1.08-1.8-2.16-2.79-3.24-.27-.72-.45-1.44-.72-2.16-.45-1.44-.81-2.97-1.17-4.5a40.884,40.884,0,0,1-.81-4.59c-.18-1.53-.36-3.06-.45-4.68a27.106,27.106,0,0,0-.09,4.68,39.073,39.073,0,0,0,.63,4.68,37.145,37.145,0,0,0,1.35,4.5c.09.36.27.63.36.99l-2.16-2.7c-.18-.9-.36-1.8-.45-2.7-.18-1.17-.36-2.34-.45-3.51-.18-1.17-.18-2.34-.27-3.6-.09-1.17-.09-2.43-.09-3.6a16.29,16.29,0,0,0-.36,3.6,25.339,25.339,0,0,0,.18,3.69c.18,1.17.36,2.43.63,3.6a19.545,19.545,0,0,0,.63,2.16c-.18-.27-.36-.45-.54-.72-.27-.45-.63-.81-.9-1.26a6.2,6.2,0,0,1-.63-1.35,20.041,20.041,0,0,1-.81-2.88l-.09-.63-.18.18c.27-1.53.54-2.97.81-4.5a52.1,52.1,0,0,0,.63-5.4,27.864,27.864,0,0,0-1.35,5.22,28.275,28.275,0,0,0-.27,4.77l-.09.09-.54.54c-.54-2.25-.9-4.5-1.26-6.75.09-1.53.18-2.97.18-4.5.09-1.89.18-3.69.18-5.58a23.307,23.307,0,0,0-.9,5.58v1.17c-.27-1.89-.45-3.78-.63-5.76l.63-7.38.72-7.38c-.36,1.17-.63,2.43-.9,3.6a26.062,26.062,0,0,0-.54,3.69c-.09,1.26-.18,2.52-.18,3.78a18.5,18.5,0,0,0,.18,3.15,1.142,1.142,0,0,0-.09-.54c-.27-2.97-.45-5.94-.45-8.91v-.81l.9-4.5c.36-1.89.81-3.78,1.17-5.76a20.833,20.833,0,0,0-1.8,5.67c-.09.63-.18,1.17-.27,1.8-.09-1.71-.18-3.42-.27-5.22a23.763,23.763,0,0,1,1.62-3.42,34.487,34.487,0,0,1,2.52-3.78,9.587,9.587,0,0,0-3.15,3.42,9.969,9.969,0,0,0-1.17,3.24l-.36.18h-.45a25.81,25.81,0,0,1,.45-2.79,16.419,16.419,0,0,1,.63-2.25,2.553,2.553,0,0,0,.9-.81,3.132,3.132,0,0,0,.63-1.35c-.18.09-.27.18-.45.18L54,76.59c.54-.72,1.08-1.35,1.62-2.07a48.339,48.339,0,0,0,.99,9.54,56.035,56.035,0,0,0,2.88,10.08,45.485,45.485,0,0,0,2.16,4.77,24.066,24.066,0,0,0,2.88,4.32,21.766,21.766,0,0,0,5.4,4.05c.81.36.45-.27,1.35-.18h.36a14.186,14.186,0,0,0,2.16,1.35,18.2,18.2,0,0,0,1.17,5.22,34,34,0,0,0,3.24,6.21,13.733,13.733,0,0,0,.99,1.44,8.4,8.4,0,0,0,1.17,1.35,8.61,8.61,0,0,0,3.06,1.71,22.848,22.848,0,0,0,6.93,1.17,30.708,30.708,0,0,0,7.02-.45,4.65,4.65,0,0,0,1.71-.72c.54-.36.99-.72,1.44-1.08a33.347,33.347,0,0,0,2.43-2.61,20.72,20.72,0,0,0,3.33-6.21,23.957,23.957,0,0,0,.63-3.51,13.934,13.934,0,0,0,.09-1.98l.81-.27a4.518,4.518,0,0,0,1.08.18,4.706,4.706,0,0,0,2.7-.99,14.381,14.381,0,0,0,3.69-4.05,42.37,42.37,0,0,0,4.95-9.63,70.776,70.776,0,0,0,2.88-10.35,91.216,91.216,0,0,0,1.62-9.72c.63.63,1.35,1.26,1.89,1.89a11.791,11.791,0,0,1,2.07,2.79,13.633,13.633,0,0,1,.9,3.42l.27,1.89-.63-.45ZM85.68,108.81a9.84,9.84,0,0,1-5.58,1.26,7.21,7.21,0,0,0,9.36-5.49,10.163,10.163,0,0,1-3.78,4.23Z" transform="translate(-49.32 -72.54)" fill="#1b141c"/>
            </g>
          </g>
        </g>
        <g id="svga-group-nose-single-move" transform="translate(37.923 96.98)">
          <g id="svga-group-nose-single" transform="translate(0 0)">
            <path id="SvgjsPath7321" d="M104.025,102.515a6.078,6.078,0,0,1-3.629.066c-1.073-.275-2.356.656-2.8,1.074a3.314,3.314,0,0,1-3.733.865c-2.109-.76-2.043-1.492-3.182-1.767s-1.966.627-3.249.276a2.306,2.306,0,0,1-1.767-2.66,13.448,13.448,0,0,1,1.406-4.712c.627-.988,9.795-4.085,16.5.409a9.413,9.413,0,0,1,1.387,4.1c-.028,1.834-.133,2.033-.931,2.347Z" transform="translate(-85.406 -93.694)" fill="#f0c7b1"/>
            <path id="SvgjsPath7322" d="M87.077,95.656a18.3,18.3,0,0,0-1.083,4.009,4.159,4.159,0,0,0,.114,1.948l.085.209c.038.066.085.123.123.19a.851.851,0,0,0,.143.181c.057.048.095.114.152.152a1.73,1.73,0,0,0,.789.371,4.754,4.754,0,0,0,1.919-.124l.5-.114.266-.057.143-.028.171-.019a2.439,2.439,0,0,1,1.206.294,11.561,11.561,0,0,1,1.786,1.226l.2.152c.066.038.114.076.181.114a1.847,1.847,0,0,0,.4.161,2.873,2.873,0,0,0,.9.114,2.783,2.783,0,0,0,1.681-.57l.161-.152.2-.19a5.352,5.352,0,0,1,.427-.361,5.482,5.482,0,0,1,.96-.608,3.9,3.9,0,0,1,1.111-.352,2.309,2.309,0,0,1,.95.067l.275.1a3.124,3.124,0,0,0,.9.161,5.754,5.754,0,0,0,.988-.029,2.831,2.831,0,0,0,1.71-.665,1.405,1.405,0,0,0,.295-.817,4.389,4.389,0,0,0-.01-1,12.353,12.353,0,0,0-1.178-3.961,11.374,11.374,0,0,1,1.6,3.9,5.2,5.2,0,0,1,.086,1.093,1.957,1.957,0,0,1-.352,1.14,2.334,2.334,0,0,1-.979.674,5.376,5.376,0,0,1-1.083.295,6.088,6.088,0,0,1-1.1.085,3.671,3.671,0,0,1-1.159-.181l-.209-.076a1.311,1.311,0,0,0-.19-.028,1.562,1.562,0,0,0-.418.019,3.138,3.138,0,0,0-.865.3,5.379,5.379,0,0,0-.807.532c-.123.1-.247.209-.37.323l-.181.171-.228.2a3.624,3.624,0,0,1-2.2.779,3.775,3.775,0,0,1-1.169-.161,3.2,3.2,0,0,1-.56-.238c-.085-.048-.181-.114-.266-.171l-.219-.161a13.18,13.18,0,0,0-1.644-1.169,1.73,1.73,0,0,0-.8-.238h-.085l-.114.019-.247.048-.522.1a5.042,5.042,0,0,1-2.232.038,2.344,2.344,0,0,1-1.055-.57,2.289,2.289,0,0,1-.627-1.007,4.438,4.438,0,0,1,0-2.2,13.273,13.273,0,0,1,.627-2.033c.275-.646.57-1.283.9-1.9Z" transform="translate(-85.406 -93.694)" fill="#c27b55"/>
            <path id="SvgjsPath7323" d="M97,98.715a1.939,1.939,0,0,0-1.843-.437c-.085.019-.161.038-.238.057a1.627,1.627,0,0,0-.931-.3,1.681,1.681,0,0,0-1.187,2.869c1.083,1.159,3.506,1.492,4.427-.076A1.791,1.791,0,0,0,97,98.714Z" transform="translate(-85.406 -93.694)" fill="#f8d5c3"/>
          </g>
        </g>
        <g id="svga-group-hair-front" transform="translate(0)">
          <path id="SvgjsPath4910" d="M76.1,30.7s-5-.6-11.9,4.5S54.7,48.4,54.1,56.3s2.6,20.4,5.6,28.4,2.3,25.1-6,38.5c0,0,6.7-7.8,8.7-17.6,0,0-.6,15.7-4.8,25.4,0,0,6.7-10.7,7.6-22.9,0,0,1.9,21.7-8.9,33.9a48.151,48.151,0,0,0,11.3-28c1.2-17.4-3.4-31.2-3.8-42.1s1-19.8,8.1-23.8c7-4,12.2-1.2,12.2-1.2s5.4,1.6,8.1-.4a22.972,22.972,0,0,0,14.1.3s8.4-.3,10.8-3.5c0,0,.9.6,2.8-.2,1.9-.7,5.3-2.2,12.5,6s6.9,20.2,6.3,24.6-4.4,19.1-4.5,29.6,4.4,27.7,13.9,35.2c0,0-10.7-12.6-8.6-26.4,0,0,1.3,13.6,10,25.1,0,0-7.6-12.2-7.3-25.8s2.9-50.3,2.8-55.7-.4-19.2-6.6-30.6S122.1,9,111.8,7.3,94,7.6,88.2,10.4A23.184,23.184,0,0,0,77.1,22.7a17.239,17.239,0,0,0-1,8Z" transform="translate(-52.5 -5.951)" fill="#2a232b"/>
          <path id="SvgjsPath4911" d="M140.9,130.4a41.629,41.629,0,0,1-4.4-10.7c-2-7.5-2-15.4-1-23.1s2.6-15.4,4.1-23.1S142.3,57.9,142,50a46.811,46.811,0,0,0-1.8-11.8,36,36,0,0,0-5-10.9,23.948,23.948,0,0,0-9-8,23.012,23.012,0,0,0-11.8-2.4,36.73,36.73,0,0,0-11.7,2.6,38.05,38.05,0,0,0-10.3,6,18.655,18.655,0,0,0-3.8,4.6,14.119,14.119,0,0,0-1.8,5.7,12.711,12.711,0,0,0,1,5.8,8.214,8.214,0,0,0,1.6,2.5,10.179,10.179,0,0,0,2.3,1.8A10.038,10.038,0,0,1,89.5,44a8.867,8.867,0,0,1-1.4-2.5,12.311,12.311,0,0,1-.7-5.7c.4-3.9,2.8-7.2,5.7-9.6a33.182,33.182,0,0,1,10.1-5.6,35.939,35.939,0,0,1,11.2-2.2,23.261,23.261,0,0,1,11,2.4,19.8,19.8,0,0,1,6.7,5.5,23.486,23.486,0,0,0-3.7-2.4,19.613,19.613,0,0,0-6.7-1.8,20.253,20.253,0,0,0-6.9,1,18.837,18.837,0,0,0-10.5,8.7,12.951,12.951,0,0,0-1.9,6.6,7.89,7.89,0,0,0,.6,3.4,6,6,0,0,0,2,2.7,7.414,7.414,0,0,1-1.6-6,13.038,13.038,0,0,1,2.3-5.9A17.2,17.2,0,0,1,110,28a19.641,19.641,0,0,1,5.5-3,16.851,16.851,0,0,1,12.3.3,20.847,20.847,0,0,1,7,4.8,36.39,36.39,0,0,1,3.5,8.4,10.673,10.673,0,0,0-3.1-2.5,14.839,14.839,0,0,0-4.2-1.4,16.465,16.465,0,0,0-8.5,1.1,10.823,10.823,0,0,0-3.6,2.4,6.17,6.17,0,0,0-1.8,3.8,7.433,7.433,0,0,1,2.4-3.1,11.369,11.369,0,0,1,3.5-1.7,18.21,18.21,0,0,1,7.7-.6,12.036,12.036,0,0,1,6.7,3.2,10.766,10.766,0,0,1,1.8,2.4,41.294,41.294,0,0,1,.8,7.8,56.1,56.1,0,0,1,0,5.8l-.3-1.2a19.371,19.371,0,0,0-2-5,17.406,17.406,0,0,0-3.4-4.2,15.037,15.037,0,0,0-4.7-2.8,11.645,11.645,0,0,0-10.3,1,10.323,10.323,0,0,1,3.4-.7,19.426,19.426,0,0,1,8.5,6.4,27.707,27.707,0,0,1,4.7,9.6,49.076,49.076,0,0,1,1.3,10.8c.1,2.2,0,4.3,0,6.5-1.3,6.6-2.6,13.3-3.3,20.1-.8,7.8-.6,15.9,1.6,23.5a41.526,41.526,0,0,0,4.9,10.7,29.474,29.474,0,0,0,8.1,8.4,28.056,28.056,0,0,1-7.6-8.4Zm-8.5-82a16.755,16.755,0,0,0-9.6-5.5,12.99,12.99,0,0,1,6.2,1.2,14.524,14.524,0,0,1,6.9,6.5,25.167,25.167,0,0,1,2.9,9.4,48.226,48.226,0,0,1,.1,6.6v.3a34.445,34.445,0,0,0-1-8.4A25.552,25.552,0,0,0,132.4,48.4ZM77,33.7A16.966,16.966,0,0,1,78.5,21a22.168,22.168,0,0,1,9-9.2A30.353,30.353,0,0,1,100,8c8.7-.8,17.9.7,25.3,5.3a33.244,33.244,0,0,1,9.4,8.9A42.922,42.922,0,0,1,140.4,34a62.621,62.621,0,0,1,2.5,12.9,84.362,84.362,0,0,1,0,13.3c-.6,8.9-2.3,17.7-3.4,26.6-1.2,8.9-1.8,18-.5,26.9a56.683,56.683,0,0,0,3.5,13,38.172,38.172,0,0,0,7.2,11.3,40.29,40.29,0,0,1-6.7-11.5,58.611,58.611,0,0,1-3.1-13,84.477,84.477,0,0,1-.4-13.3c.2-4.4.8-8.9,1.4-13.3,1.3-8.8,3-17.7,3.7-26.7a77.151,77.151,0,0,0,.1-13.6,62.246,62.246,0,0,0-2.6-13.4A45.566,45.566,0,0,0,136,20.9a35.822,35.822,0,0,0-10-9.4,38.87,38.87,0,0,0-12.8-4.8,44.357,44.357,0,0,0-13.6-.4,34.379,34.379,0,0,0-12.9,4.2,24.648,24.648,0,0,0-9.3,9.9A19.234,19.234,0,0,0,75.5,27a19.476,19.476,0,0,0,.7,6.8,16.343,16.343,0,0,0,3.3,5.9,15.888,15.888,0,0,0,5.4,3.9A15.557,15.557,0,0,1,77,33.7Zm.2,12.1a14.932,14.932,0,0,0-6.7,2.6,15.459,15.459,0,0,0-2.7,2.4,16.1,16.1,0,0,0-2.1,3,27.372,27.372,0,0,0-2.6,6.7A68.005,68.005,0,0,0,62,74.7c.1,4.7.5,9.4,1,14.1,1,9.3,2.2,18.6,1.5,27.9a57.072,57.072,0,0,1-2.4,13.6,45.1,45.1,0,0,1-2.6,6.4,37.008,37.008,0,0,1-3.8,5.9,32.76,32.76,0,0,0,4.2-5.6,47.259,47.259,0,0,0,3.1-6.4,58.758,58.758,0,0,0,3.1-13.8c1-9.5-.2-18.9-1.1-28.2-.5-4.7-.9-9.3-1-13.9a70.6,70.6,0,0,1,.8-13.8A24.258,24.258,0,0,1,67,54.5a17.481,17.481,0,0,1,1.8-2.9,13.629,13.629,0,0,1,2.4-2.4,14.018,14.018,0,0,1,6.2-2.8,10.787,10.787,0,0,1,6.8,1,10.291,10.291,0,0,0-7-1.6ZM58.7,107.9a79.788,79.788,0,0,1-2.6,8.7,90.158,90.158,0,0,1-3.6,8.5,38.16,38.16,0,0,0,5.1-7.9,39.112,39.112,0,0,0,3.1-8.9,45.047,45.047,0,0,0,1.1-8.1c.1,2.2.1,4.5,0,6.7A86.522,86.522,0,0,1,57,132.1a76.891,76.891,0,0,0,4.3-12.2A78.884,78.884,0,0,0,63.4,107a82.054,82.054,0,0,0-.2-13.1,106.973,106.973,0,0,0-2.3-12.8,111.741,111.741,0,0,1-2.4-12.6,38.034,38.034,0,0,1,.4-12.6,22.188,22.188,0,0,1,5.8-11,18.5,18.5,0,0,1,5.1-3.7A16.149,16.149,0,0,1,76,39.7a13.918,13.918,0,0,0-6.4,1A19.453,19.453,0,0,0,64,44.2a21.312,21.312,0,0,0-4.2,5.2,25.972,25.972,0,0,0-2.5,6.2,39.059,39.059,0,0,0-.8,13.2,112.365,112.365,0,0,0,2.3,12.9c.2,1.1.5,2.2.7,3.2-.7-2.8-1.5-5.7-2.2-8.5C55.9,70.2,54.8,64,55,57.8c.1-1.5.2-3.1.4-4.6a36.315,36.315,0,0,1,1-4.5A31.6,31.6,0,0,1,58,44.4c.7-1.4,1.5-2.7,2.3-4A25.117,25.117,0,0,1,66.9,34a20.61,20.61,0,0,1,4.2-2.1,23.728,23.728,0,0,1,4.6-1.1,19.725,19.725,0,0,0-4.8.6,17.652,17.652,0,0,0-4.5,1.8,26.269,26.269,0,0,0-4,2.8c-1.2,1.1-2.3,2.3-3.4,3.5a36.222,36.222,0,0,0-2.7,4.1,42.2,42.2,0,0,0-1.8,4.5,39.345,39.345,0,0,0-1.6,9.6,52.793,52.793,0,0,0,.7,9.7,61.054,61.054,0,0,0,2.2,9.4c1.4,4.9,3.1,9.6,4.7,14.3,0,2.7-.2,5.3-.4,7.9a65.959,65.959,0,0,1-1.4,8.9Z" transform="translate(-52.5 -5.951)" fill="#1b141c"/>
        </g>
      </g>
    </g>
  </g>
</svg>
