<svg id="mohadese" xmlns="http://www.w3.org/2000/svg" width="200" height="220" viewBox="0 0 200 220">
  <g id="svga-group-backs-single">
    <path id="SvgjsPath6251" d="M0,0H200V220H0Z" fill="#bad2d8"/>
  </g>
  <g id="svga-group-humanwrap-move" transform="translate(20.11 30.633)">
    <g id="svga-group-humanwrap">
      <g id="svga-group-hair-back-move" transform="translate(39.69 54.472)">
        <g id="svga-group-hair-back">
          <path id="SvgjsPath5169" d="M59.8,88.3l9.1,69.3,10.3,1.6,1.8-3.1,1.9,2.9,36-1.4,1-12.2.9,12.2,19-.9,1.6-71.5Z" transform="translate(-59.8 -85.2)" fill="#634629"/>
        </g>
      </g>
      <g id="svga-group-humanbody-back" transform="translate(12.617 70.867)">
        <path id="SvgjsPath3440" d="M77.8,105.9s4.8,37.7,10,55.8c0,0-6.4,8.8-14.5,11.9-28.7,11.2-35,11.2-39.6,15.2-2.4,2.1.2,11.1,1.8,17.2a83.315,83.315,0,0,1,1.7,13.2H169.4s1.6-33-.6-39.8-7.1-2.9-21.9-4.5-28.7-10.3-31-13.2l.3-60-38.4,4.2Z" transform="translate(-32.727 -101.7)" fill="#f3d4cf"/>
      </g>
      <g id="svga-group-chinshadow-single" transform="translate(57.69 70.966)">
        <path id="SvgjsPath3840" d="M116,141.5l.2-39.8-38.4,4.2S80.5,127,84,145.1A116.558,116.558,0,0,0,96.3,150a131.836,131.836,0,0,0,19.7-8.5Z" transform="translate(-77.8 -101.7)" fill="#d4958a"/>
      </g>
      <g id="svga-group-humanbody-front" transform="translate(11.874 70.067)">
        <path id="SvgjsPath3441" d="M72.1,183.1s14.6-.2,20.4,2.6c5.8,2.9,12.7,2.4,16.1-1s21.6-7,21.6-7-19.7,1.9-25,4.6-22.3-2.8-33.1.8Z" transform="translate(-31.985 -100.9)" fill="#d4958a"/>
        <path id="SvgjsPath3442" d="M74.2,173.2c6.7-1.3,14.7-6.4,14.7-6.4l6.2,5.5c-4.3-7.9-12.7-41.1-12.7-41.1l-.7.7a295.669,295.669,0,0,0,6.1,29.7s-6,8.2-13.6,11.6Z" transform="translate(-31.985 -100.9)" fill="#d4958a"/>
        <path id="SvgjsPath3443" d="M170.7,188.5c-.1-2.1-.2-4.1-.4-6.2a19.848,19.848,0,0,0-.6-3.2c-.2-.5-.4-1-.6-1.6a6.528,6.528,0,0,0-1-1.5,3.269,3.269,0,0,0-1.5-1.1,11.505,11.505,0,0,0-1.7-.6,17.745,17.745,0,0,0-3.2-.2c-2.1,0-4.1.1-6.1.1s-4-.1-6-.2-4-.4-6-.7c-1-.2-2-.4-2.9-.6l-1.5-.4c-.5-.1-1-.3-1.4-.4a66.742,66.742,0,0,1-11.2-4.4l-1.3-.7-1.3-.7a9.129,9.129,0,0,1-1.3-.8c-.4-.3-.9-.5-1.3-.8a14.8,14.8,0,0,0-1.3-.8l-1.2-.9-.6-.5-.3-.2-.3-.2c-.2-.2-.4-.3-.5-.5l-.2-.3V116.5l-.1-15v-.6l-.6.1c-6.4.8-12.9,1.5-19.3,2.3l-19.1,2.3v.5l.1.4.1.9.2,1.8c.1,1.2.3,2.3.4,3.5l.9,7c.6,4.7,1.3,9.4,2.1,14,.8,4.7,1.5,9.3,2.5,14,.9,4.5,1.8,9,3,13.5a44.823,44.823,0,0,1-3.6,4,52.964,52.964,0,0,1-4.3,3.8,29.7,29.7,0,0,1-4.8,3l-1.3.6c-.4.2-.9.3-1.3.5l-2.7,1c-7.2,2.7-14.5,5.3-21.8,7.7l-5.5,1.8a42.038,42.038,0,0,0-5.5,2.2c-.4.2-.9.5-1.3.7a10.144,10.144,0,0,0-1.3.9l-.6.5a2.407,2.407,0,0,0-.6.8,4.939,4.939,0,0,0-.5,1.6,10.728,10.728,0,0,0,0,3.1c.1,1,.3,2,.4,2.9.4,1.9.8,3.8,1.3,5.7l.8,2.8a22.912,22.912,0,0,1,.7,2.8,56.223,56.223,0,0,1,.9,5.7c.2,1.9.4,3.8.5,5.7v.8H170.1V219c.2-4.1.4-8.2.5-12.3s.2-8.2.2-12.3c0-1.8-.1-3.8-.1-5.9Zm-67.4,30.3H70.2l-16.5-.1-16-.1c-.1-1.8-.2-3.5-.4-5.3a57.712,57.712,0,0,0-.8-5.8c-.2-1-.4-1.9-.7-2.9l-.7-2.8a55.942,55.942,0,0,1-1.2-5.6,26.955,26.955,0,0,1-.4-2.8,12.178,12.178,0,0,1,0-2.7,3.582,3.582,0,0,1,.4-1.1,1.38,1.38,0,0,1,.3-.4l.5-.4a10.475,10.475,0,0,1,1.1-.8c.4-.2.8-.5,1.2-.7a48.133,48.133,0,0,1,5.3-2l5.5-1.8c7.3-2.4,14.6-5,21.8-7.8l2.7-1c.5-.2.9-.3,1.4-.5l1.4-.6a32.652,32.652,0,0,0,5-3.2,40.868,40.868,0,0,0,4.4-3.9,32.344,32.344,0,0,0,3.8-4.5l.2-.3-.1-.3c-1.3-4.5-2.3-9.1-3.3-13.7s-1.9-9.3-2.7-13.9-1.6-9.3-2.4-14l-2.2-13.9,19.3-1.8c6.2-.6,12.3-1.2,18.5-1.8l-.2,14.4-.2,15-.3,30v.4l.2.2.6.7.6.6.3.3.3.2.6.5c.4.3.9.6,1.3.9s.9.6,1.3.9.9.5,1.3.8.9.5,1.3.8l1.4.8,1.4.7c.5.2.9.5,1.4.7l1.4.7c1,.4,1.9.8,2.9,1.2s1.9.8,2.9,1.1l1.5.5a8.33,8.33,0,0,0,1.5.4c.5.1,1,.3,1.5.4l1.5.4c1,.3,2,.4,3,.6a61.729,61.729,0,0,0,6.2.8c2.1.2,4.1.2,6.2.2s4.1-.1,6.1-.1,4,.1,5,1.3a7.139,7.139,0,0,1,1.2,2.3,27.973,27.973,0,0,1,.6,2.8c.3,2,.4,4,.5,6s.1,4.1.2,6.1c.1,7.9-.1,15.8-.4,23.7-10.8.1-21.5.1-32.3.2H103.3Z" transform="translate(-31.985 -100.9)" fill="#c5796d"/>
        <path id="SvgjsPath3444" d="M150.7,219.2,147,198l-.4,21.2Z" transform="translate(-31.985 -100.9)" fill="#d4958a"/>
        <path id="SvgjsPath3445" d="M47.3,203.5s2.2,11.5,2.9,15.7h3.5Z" transform="translate(-31.985 -100.9)" fill="#d4958a"/>
      </g>
      <g id="svga-group-clothes-single" transform="translate(0 133.727)">
        <path id="SvgjsPath6120" d="M70.5,189.415l65.4-1.848V231.1H71.7Z" transform="translate(-19.635 -175.861)" fill="#fff"/>
        <path id="SvgjsPath6121" d="M78.569,175c.443-1.1,6.979-6.7,6.979-6.7l-6.536.3-21.157,6.5,3.877,1.3s-19.717,6.5-22.376,6.7c-2.769.2-7.976,0-7.754,2.8,0,0-3.1,1.5-3.1,3.4s6.757,20.2,9.194,30.4H89.868S82,200.6,80.784,196.1c-1.44-4.5-2.659-19.9-2.215-21.1Zm109.553-.1a5.094,5.094,0,0,0-3.323-.3s-.111-2.9-1.329-3-8.529.8-13.182,1.2-14.511-.3-14.511-.3l1.329-1.1c-3.212-.1-17.945-6-19.828-6.5a27.923,27.923,0,0,0-5.982-.3s3.988,2.6,4.652,3.8,7.643,20.1,7.2,24.5-5.539,26.9-5.539,26.9h50.4c.111,0,1.44-44.2.111-44.9Z" transform="translate(-27.9 -164.56)" fill="#09aac5"/>
        <path id="SvgjsPath6122" d="M189.179,177.7a6.851,6.851,0,0,0-.111-1.5,2,2,0,0,0-.111-.8.557.557,0,0,0-.111-.4c0-.1-.111-.2-.111-.3s-.221-.3-.332-.3l-.111-.1a4.885,4.885,0,0,0-1.992-.5h-.886a3.887,3.887,0,0,0-.221-1.1,3.954,3.954,0,0,0-.443-1,2.733,2.733,0,0,0-.553-.6,1.888,1.888,0,0,0-.886-.3,13.326,13.326,0,0,0-2.1.1l-1.992.2-7.859.8a65.969,65.969,0,0,1-7.748.3c-1.882-.1-3.874-.1-5.756-.2l1.218-1-1.992-.2c-.886-.1-1.992-.4-3.1-.6-1.107-.3-2.1-.6-3.21-.9l-6.309-2.1c-2.1-.7-4.206-1.4-6.42-2.1a10.087,10.087,0,0,0-3.431-.4h-3.431s-.111,0-.111.1l.111.1.111.1.221.1.332.3.775.6a16.5,16.5,0,0,1,1.439,1.2,14.87,14.87,0,0,1,1.328,1.3c.221.5.443,1.1.664,1.6.775,2.3,1.55,4.6,2.325,7,.775,2.3,1.439,4.7,2.1,7l.407,2.545.234.422S138.7,175.1,138.039,175.7c-1.3,1.174-18.761.454-32.239,1.2-7.869.435-21.114.6-21.114.6l-5.977.3s.664,5.7.332,1.8c-.111-1.1-.221-2.3-.221-3.4v-.8a.691.691,0,0,1,.221-.6c.332-.4.775-.9,1.107-1.3.775-.9,1.66-1.7,2.546-2.6l1.328-1.3.664-.6.332-.3.221-.2.111-.1a.341.341,0,0,0,.111-.2H78.708c-3.542,1-7.084,2-10.737,3-3.542,1-7.084,2-10.627,3.1l-2.325.7,2.325.8,1.439.5c-4.317,1.4-8.745,2.7-13.062,4.1-1.328.4-2.546.8-3.874,1.1a18.491,18.491,0,0,1-1.882.5c-.332.1-.553.1-.886.2l-1,.1a32.254,32.254,0,0,0-4.206.5,6.367,6.367,0,0,0-2.1.9l-.443.4-.332.6a1.16,1.16,0,0,0-.111.6v.2a11.037,11.037,0,0,0-1.771,1.3,3.7,3.7,0,0,0-1.218,2.3,3.407,3.407,0,0,0,.221,1.2c.111.4.221.7.332,1.1.221.7.443,1.4.664,2.2L32,202.2c1,2.9,1.882,5.8,2.767,8.7s1.66,5.8,2.325,8.8l.111.4,151.428.1v-.5c.111-4,0-8,.111-12l.221-12,.221-12v-6ZM183.2,172.4ZM63.654,218.9,53.8,219a89.12,89.12,0,0,0-1.218-9.3c-.553-3.5-1.218-7-1.882-10.4l-.553-2.6-.332-1.3a2.849,2.849,0,0,0-.221-.8,4.262,4.262,0,0,0-.443-.7,8.4,8.4,0,0,0-2.325-2,16.078,16.078,0,0,0-2.546-1.4,49.032,49.032,0,0,0-11.069-3.6c3.542,1.6,6.974,3.1,10.294,5a13.826,13.826,0,0,1,4.1,3.1.732.732,0,0,1,.221.4,1.866,1.866,0,0,1,.111.5l.221,1.3.553,2.6c.775,3.4,1.55,6.9,2.435,10.3.775,3,1.66,6,2.546,9H50.813l-12.619.2c-.775-2.8-1.66-5.6-2.546-8.4l-2.767-8.7c-.886-2.9-1.882-5.8-2.657-8.7a16,16,0,0,1-.553-2.2,3.887,3.887,0,0,1-.221-1.1,3.4,3.4,0,0,1-.111-1,2.349,2.349,0,0,1,1-1.6,7.32,7.32,0,0,1,1.882-1.2l.332-.2v-.4a1.132,1.132,0,0,1,.553-1.1,4.106,4.106,0,0,1,1.55-.6,24.643,24.643,0,0,1,3.985-.3h1.107c.332-.1.775-.1,1.107-.2a14.521,14.521,0,0,0,1.992-.5c1.328-.4,2.657-.7,3.985-1.1,5.2-1.5,10.405-3.2,15.5-4.9l.886-.3c.111.1.221.1.443.1l2.325.6c.553.1,1,.1,1.55.2-.553.4-1.218.8-1.771,1.2-1.218.9-2.435,1.7-3.542,2.6s-2.325,1.8-3.542,2.7l-.664.5.443.6c1,1.3,1.992,2.7,2.878,4,1,1.3,1.992,2.7,2.878,4,.443.7.886,1.4,1.218,2,.332.7.775,1.4,1.107,2.1l2.1,4.4c2.657,5.6,5.424,11.2,8.413,16.6-4.649.4-8.966.5-13.394.5Zm13.283-.1c-.886-2.8-1.992-5.5-2.989-8.3-1.218-3-2.435-6.1-3.653-9.1L68.3,196.9a21.788,21.788,0,0,0-1.107-2.3c-.443-.8-.886-1.5-1.328-2.2-1.771-2.6-3.653-5-5.535-7.4.886-.8,1.771-1.5,2.657-2.3l3.321-2.9c2.214-1.9,4.538-3.7,6.752-5.7-1.771,1.1-3.542,2.2-5.313,3.4-.553-.2-1.107-.5-1.66-.7l-2.1-.1,1.992,1.1-1.328-1.5-.664-.2s-.111,0-.111-.1a.4.4,0,0,1-.221-.1l-1.328-.4-1.55-.5c2.767-.9,5.424-1.8,8.191-2.7,3.542-1.1,6.974-2.3,10.405-3.5,1.992-.1,3.985-.4,6.2-.6l-.221.1-.332.3-.775.6L82.8,170.4c-.886.8-1.882,1.6-2.767,2.4a16.11,16.11,0,0,0-1.328,1.3c-.111.1-.221.3-.332.4a1,1,0,0,0-.111.5c0,.3-.111.6-.111.9v3.5a119.692,119.692,0,0,0,1.218,13.9,19.856,19.856,0,0,0,.775,3.5c.332,1.1.775,2.2,1.107,3.4.775,2.2,1.55,4.4,2.435,6.6,1.439,3.9,2.989,7.8,4.538,11.6a107.555,107.555,0,0,1-11.291.4Zm17.268,0H90.663l-5.092-12.4-2.546-6.5c-.443-1.1-.886-2.2-1.218-3.2a29.338,29.338,0,0,1-.775-3.3c-.111-.4-2.767-14-2.767-14l58.667-1.6,4.76,10.6c.221,1,.443,2,.553,2.9l.111.9v.8l-.332,1.8-.664,3.6-1.55,7.1-2.989,13.7c-8.191-.1-16.493-.1-24.684-.2-6.088-.2-12.066-.2-17.932-.2Zm56.011,0-11.18-.1c1-4.4,1.882-8.7,2.767-13.1.443-2.4,1-4.8,1.328-7.2l.664-3.6a10.047,10.047,0,0,0,.221-1.9v-1l-.111-1a69.775,69.775,0,0,0-1.771-7.2c-.775-2.4-1.55-4.7-2.435-7s-1.771-4.6-2.767-6.9a6.265,6.265,0,0,0-.886-1.7,18.748,18.748,0,0,0-1.439-1.4c-.553-.4-1.107-.8-1.55-1.1l-.886-.5-.443-.3-.111-.1h1.439c.553,0,1.107.1,1.66.1a11.335,11.335,0,0,1,3.21.6l6.2,2.4c2.1.8,4.206,1.6,6.309,2.3,1,.4,2.1.7,3.21,1.1.553.2,1.107.3,1.66.5H155.2l-.775.6a8.475,8.475,0,0,0-1.218.8,31.723,31.723,0,0,0-2.878,2.4,39.7,39.7,0,0,0-4.1-2.1c1.328.9,2.767,1.9,4.1,2.9l1.992,1.5a15.467,15.467,0,0,0,2.214,1.3c1.55.8,3.1,1.5,4.649,2.2,1.218.6,2.435,1.1,3.764,1.6-1.55,2.6-3.1,5.3-4.538,8l-2.325,4.5a31.192,31.192,0,0,0-2.1,4.7c-.443,1.7-.886,3.3-1.218,4.9s-.664,3.2-1,4.9c-.553,3.1-1.107,6-1.55,8.9Zm37.746-11c-.111,3.8-.332,7.6-.443,11.5-4.538-.1-8.966-.2-13.5-.2.443-3.5.664-7,.775-10.6.111-3.9.221-7.8.111-11.7,0-1-.111-2-.111-3l-.111-.8v-.5a4.58,4.58,0,0,1,.221-1.2,36.588,36.588,0,0,1,2.435-5.2c1.992-3.4,4.1-6.8,6.42-10.1a54.893,54.893,0,0,0-7.97,9.3,23.566,23.566,0,0,0-2.878,5.4,3.8,3.8,0,0,0-.332,1.6v.9l.111.7a24.542,24.542,0,0,1,.111,2.9c.111,3.9.221,7.8.443,11.7.111,3.5.332,7,.775,10.6-3.653-.1-7.2-.1-10.848-.1l-12.287-.1c.886-2.8,1.66-5.7,2.546-8.5.886-3.2,1.771-6.4,2.767-9.5.221-.7.664-1.4,1-2.2l1.107-2.2,2.435-4.4,4.87-8.9.443-.9-1-.4c-3.21-1.2-6.42-2.4-9.52-3.7a24.4,24.4,0,0,1-2.325-1.1c-.664-.4-1.439-.9-2.1-1.3a.1.1,0,0,1-.111-.1,6.928,6.928,0,0,0,1.55-.6,10.132,10.132,0,0,0,1.771-1.1,9.707,9.707,0,0,1,1.107-.9l.664.1c2.657.2,5.313.4,7.859.5a53.056,53.056,0,0,0,7.97-.2l7.859-.8,1.992-.2a11.912,11.912,0,0,1,1.771-.1l.111.1a3.218,3.218,0,0,1,.332.6c.111.5.221,1.1.332,1.6l.111.9,1-.2a4.338,4.338,0,0,1,2.546.1v.2c0,.2.111.5.111.7a6.851,6.851,0,0,1,.111,1.5l.332,6c.111,4,.221,8,.111,12-.443,3.9-.553,7.9-.664,11.9Z" transform="translate(-27.9 -164.56)" fill="#008fa6"/>
      </g>
      <g id="svga-group-head" transform="translate(16.464)">
        <g id="svga-group-ears-left-move" transform="translate(6.932 58.334)">
          <g id="svga-group-ears-left" transform="translate(0 0)">
            <path id="SvgjsPath6771" d="M61.19,89.461a45.215,45.215,0,0,0-4.285-6.849c-1.834-2.081-6.479-5.5-7.581-5.263s-5.995,13.338-6.479,15.295,5.871,8.2,6.479,9.3.494,3.79.37,4.522,4.893,2.688,7.458,2.08S66.7,99.484,61.19,89.461Z" transform="translate(-42.683 -76.967)" fill="#f3d4cf"/>
            <path id="SvgjsPath6772" d="M60.828,95.57s-5.624-7.7-9.415-10.279-5.387,7.343-5.139,8.322,4.408,5.994,5.995,6.726,6.963-.608,8.559-4.769Z" transform="translate(-42.683 -76.967)" fill="#e4b3ab"/>
            <path id="SvgjsPath6773" d="M42.835,92.169a3.123,3.123,0,0,0-.152.636,1.95,1.95,0,0,0,.1.665,9.679,9.679,0,0,0,1.2,2.232c.465.694.978,1.359,1.5,2.014,1.035,1.311,2.138,2.574,3.173,3.847a5.729,5.729,0,0,1,.342.465,2.332,2.332,0,0,1,.2.494,5.68,5.68,0,0,1,.181,1.159,13.759,13.759,0,0,1-.038,2.423l-.038.295a.721.721,0,0,0,.228.6,2.882,2.882,0,0,0,.58.447,7.949,7.949,0,0,0,1.178.579,14.889,14.889,0,0,0,2.442.779,9.714,9.714,0,0,0,2.584.276,3.523,3.523,0,0,0,1.359-.285,2.861,2.861,0,0,0,.608-.333,3.791,3.791,0,0,0,.542-.4,13.669,13.669,0,0,0,4.541-8.949,17.406,17.406,0,0,0,.067-2.536,15.635,15.635,0,0,0-.409-2.489,18.692,18.692,0,0,0-1.805-4.664c-.75-1.492-1.568-2.936-2.413-4.37-.428-.722-.874-1.425-1.368-2.109a14.466,14.466,0,0,0-1.7-1.871,26.731,26.731,0,0,0-3.962-3.116,9.231,9.231,0,0,0-1.121-.637c-.19-.095-.409-.171-.618-.256A1.608,1.608,0,0,0,49.21,77c-.437.218-.456.4-.618.589-.124.19-.238.37-.342.561-.209.37-.4.75-.579,1.131-1.387,3.059-2.461,6.213-3.61,9.339l-.826,2.356-.4,1.2Zm.124.656a3.738,3.738,0,0,1,.133-.57l.38-1.187c.266-.789.561-1.568.855-2.347.579-1.558,1.216-3.1,1.872-4.617s1.339-3.04,2.08-4.513q.271-.556.57-1.083c.1-.171.209-.342.313-.5.057-.085.114-.143.161-.219a.481.481,0,0,1,.085-.076.776.776,0,0,1,.133.01,2.379,2.379,0,0,1,.247.066,4.975,4.975,0,0,1,.532.228c.352.171.713.37,1.064.57a34.681,34.681,0,0,1,3.99,2.9,14.245,14.245,0,0,1,1.757,1.71c.522.627,1.007,1.311,1.472,2,.922,1.377,1.738,2.831,2.527,4.294A14.791,14.791,0,0,1,62.8,99.047a15.407,15.407,0,0,1-1.568,4.6,12.51,12.51,0,0,1-2.964,3.762,3.074,3.074,0,0,1-.465.342,2.452,2.452,0,0,1-.485.266,2.533,2.533,0,0,1-1.064.209,10.117,10.117,0,0,1-2.366-.247,15.127,15.127,0,0,1-2.318-.694,9.28,9.28,0,0,1-1.074-.5,2.837,2.837,0,0,1-.418-.294l-.028-.029.028-.247a14.453,14.453,0,0,0-.009-2.565,7.029,7.029,0,0,0-.247-1.292,2.847,2.847,0,0,0-.295-.656,4.751,4.751,0,0,0-.408-.522c-1.1-1.283-2.251-2.461-3.334-3.724-.542-.627-1.064-1.264-1.558-1.929A8.162,8.162,0,0,1,43.016,93.4a4.417,4.417,0,0,1-.057-.579Z" transform="translate(-42.683 -76.967)" fill="#e4b3ab"/>
            <path id="SvgjsPath6774" d="M47.975,87.41a4.722,4.722,0,0,1,1.3-1.8,1.094,1.094,0,0,1,1.15-.152,2.358,2.358,0,0,1,.826.789,24.657,24.657,0,0,1,2.261,3.743,49.576,49.576,0,0,1,3.049,8.132l-.076.029c-1.283-2.6-2.432-5.235-3.639-7.838a35.289,35.289,0,0,0-1.881-3.857,1.948,1.948,0,0,0-.665-.741.84.84,0,0,0-.884.1,4.424,4.424,0,0,0-1.149,1.719,13.588,13.588,0,0,0-.893,4.132,4.408,4.408,0,0,0,.038,1.007,1.505,1.505,0,0,0,.1.409c.085.152.152.3.247.446a18.884,18.884,0,0,0,1.188,1.748c.428.57.855,1.14,1.311,1.691l.674.827c.057.066.114.123.171.19a14.139,14.139,0,0,0,.456-1.691l.409-2.023c-.57-.893-1.131-1.8-1.662-2.717l.066-.048q1.069,1.268,2.08,2.565l.057.066-.009.114q-.086,1.088-.257,2.166a10.67,10.67,0,0,1-.5,2.214,1.107,1.107,0,0,1-.114.19.488.488,0,0,1-.124.123.577.577,0,0,1-.095.066.474.474,0,0,1-.2.048.554.554,0,0,1-.333-.1l-.066-.057a.731.731,0,0,1-.123-.114c-.143-.143-.266-.275-.39-.409-.247-.275-.485-.551-.722-.836-.456-.57-.912-1.14-1.32-1.748a20.751,20.751,0,0,1-1.178-1.872c-.095-.161-.171-.342-.257-.513a2.463,2.463,0,0,1-.152-.636,5.76,5.76,0,0,1,.028-1.149,13.481,13.481,0,0,1,1.273-4.218Z" transform="translate(-42.683 -76.967)" fill="#c5796d"/>
          </g>
        </g>
        <g id="svga-group-ears-right-move" transform="translate(95.423 58.343)">
          <g id="svga-group-ears-right" transform="translate(0 0)">
            <path id="SvgjsPath6775" d="M128.811,89.461a45.214,45.214,0,0,1,4.284-6.849c1.833-2.081,6.479-5.5,7.581-5.263s5.995,13.338,6.479,15.295-5.871,8.2-6.479,9.3-.494,3.79-.37,4.522-4.892,2.688-7.458,2.08-9.548-9.063-4.037-19.086Z" transform="translate(-126.555 -76.977)" fill="#f3d4cf"/>
            <path id="SvgjsPath6776" d="M129.171,95.57s5.624-7.7,9.415-10.279,5.387,7.343,5.14,8.322-4.408,5.994-5.995,6.726-6.964-.608-8.559-4.769Z" transform="translate(-126.555 -76.977)" fill="#e4b3ab"/>
            <path id="SvgjsPath6777" d="M146.766,90.981l-.826-2.356c-1.159-3.126-2.223-6.28-3.61-9.339-.181-.38-.37-.76-.579-1.131a5.912,5.912,0,0,0-.342-.56c-.161-.19-.18-.37-.617-.589a1.608,1.608,0,0,0-.826.066,4.007,4.007,0,0,0-.617.257,9.233,9.233,0,0,0-1.121.636,26.865,26.865,0,0,0-3.961,3.116,14.466,14.466,0,0,0-1.7,1.872,23.521,23.521,0,0,0-1.368,2.109c-.846,1.435-1.672,2.888-2.413,4.37a18.551,18.551,0,0,0-1.805,4.665,16.789,16.789,0,0,0-.408,2.489,17.406,17.406,0,0,0,.067,2.536,13.585,13.585,0,0,0,4.541,8.949,3.323,3.323,0,0,0,.542.4,2.861,2.861,0,0,0,.608.332,3.389,3.389,0,0,0,1.358.285,9.714,9.714,0,0,0,2.584-.275,14.6,14.6,0,0,0,2.442-.779,10.393,10.393,0,0,0,1.178-.58,2.882,2.882,0,0,0,.579-.447.737.737,0,0,0,.228-.6l-.038-.294a14.736,14.736,0,0,1-.038-2.423,6.42,6.42,0,0,1,.18-1.159,2.331,2.331,0,0,1,.2-.494c.1-.143.218-.314.342-.465,1.045-1.273,2.147-2.536,3.173-3.848.522-.656,1.026-1.32,1.5-2.014a9.514,9.514,0,0,0,1.2-2.232,2.167,2.167,0,0,0,.1-.665,2.977,2.977,0,0,0-.152-.636l-.4-1.2Zm.18,2.4A8.162,8.162,0,0,1,145.73,95.5c-.484.665-1.017,1.3-1.558,1.929-1.083,1.263-2.242,2.441-3.335,3.724a6.259,6.259,0,0,0-.408.522,3.319,3.319,0,0,0-.294.656,7.028,7.028,0,0,0-.247,1.292,13.608,13.608,0,0,0-.009,2.565l.028.247c-.009.01-.009.019-.028.029a1.891,1.891,0,0,1-.418.294,7.429,7.429,0,0,1-1.074.5,15.127,15.127,0,0,1-2.318.694,10.065,10.065,0,0,1-2.366.247,2.69,2.69,0,0,1-1.064-.209,2.045,2.045,0,0,1-.484-.266,2.54,2.54,0,0,1-.465-.342,12.51,12.51,0,0,1-2.964-3.762,15.317,15.317,0,0,1-1.567-4.6,14.731,14.731,0,0,1,1.672-9.567c.788-1.463,1.605-2.916,2.527-4.294.465-.684.95-1.359,1.473-2a14.245,14.245,0,0,1,1.757-1.71,34.683,34.683,0,0,1,3.99-2.9,10.485,10.485,0,0,1,1.064-.57,4.267,4.267,0,0,1,.532-.228c.085-.028.161-.038.247-.066a.835.835,0,0,1,.133-.01c.009.01.057.048.085.076a1.854,1.854,0,0,1,.161.219c.114.152.209.332.314.5q.3.527.57,1.083c.741,1.473,1.425,2.993,2.081,4.513s1.292,3.059,1.871,4.617c.295.779.589,1.558.855,2.347l.38,1.188a2.871,2.871,0,0,1,.133.57,1.1,1.1,0,0,1-.057.579Z" transform="translate(-126.555 -76.977)" fill="#e4b3ab"/>
            <path id="SvgjsPath6778" d="M142.025,87.41a4.721,4.721,0,0,0-1.3-1.8,1.094,1.094,0,0,0-1.15-.152,2.358,2.358,0,0,0-.826.789,24.659,24.659,0,0,0-2.261,3.743,49.577,49.577,0,0,0-3.049,8.132l.076.029c1.283-2.6,2.432-5.235,3.639-7.838a35.291,35.291,0,0,1,1.881-3.857,1.948,1.948,0,0,1,.665-.741.84.84,0,0,1,.883.1,4.424,4.424,0,0,1,1.15,1.719,13.587,13.587,0,0,1,.893,4.132,5.025,5.025,0,0,1-.038,1.007,1.5,1.5,0,0,1-.1.409c-.085.152-.152.3-.247.446a18.881,18.881,0,0,1-1.187,1.748c-.427.57-.855,1.14-1.311,1.691l-.674.827c-.057.066-.114.123-.171.19a14.139,14.139,0,0,1-.456-1.691l-.408-2.023c.57-.893,1.13-1.8,1.662-2.717l-.066-.048q-1.069,1.268-2.081,2.565l-.057.066.01.114q.085,1.083.257,2.166a10.67,10.67,0,0,0,.5,2.214,1.106,1.106,0,0,0,.114.19.488.488,0,0,0,.124.123.577.577,0,0,0,.1.066.474.474,0,0,0,.2.048.554.554,0,0,0,.333-.1l.067-.057a.73.73,0,0,0,.124-.114c.142-.143.266-.275.389-.409.247-.275.484-.551.722-.836.456-.57.912-1.14,1.32-1.748a20.753,20.753,0,0,0,1.178-1.872c.1-.161.171-.342.257-.513a2.464,2.464,0,0,0,.152-.636,5.761,5.761,0,0,0-.029-1.149,13.481,13.481,0,0,0-1.273-4.218Z" transform="translate(-126.555 -76.977)" fill="#c5796d"/>
          </g>
        </g>
        <g id="svga-group-faceshape-wrap" transform="translate(16.258 14.733)">
          <g id="svga-group-faceshape-single">
            <path id="SvgjsPath3830" d="M135.9,49.8c-6.7-7.4-11.3-13.2-28.8-17.3a82.987,82.987,0,0,0-14.1,0c-17.5,4.1-22.1,9.9-28.8,17.3-7.1,7.8-9.5,29-9.5,29,.2,26.2,5.1,40.5,5.1,40.5C77.2,134.9,100,142,100,142s22.9-7.1,40.2-22.7c0,0,5-14.2,5.1-40.5.1,0-2.3-21.2-9.4-29Z" transform="translate(-54.7 -32.2)" fill="#f3d4cf"/>
            <path id="SvgjsPath3831" d="M107.1,32.5a82.987,82.987,0,0,0-14.1,0c-17.5,4.1-22.1,9.9-28.8,17.3-7.1,7.8-9.5,29-9.5,29,.2,26.2,5.1,40.5,5.1,40.5C77.2,134.9,100,142,100,142s22.9-7.1,40.2-22.7c0,0,5-14.2,5.1-40.5,0,0-2.4-21.2-9.5-29-6.6-7.4-11.2-13.2-28.7-17.3Zm35,31.2c.7,2.5,1.1,5,1.6,7.5.4,2.5.7,5,1,7.5l-.3,5.1c-.1,1.7-.2,3.4-.4,5.1s-.3,3.4-.5,5.1c-.1.8-.2,1.7-.3,2.5l-.3,2.5c-.5,3.3-1,6.7-1.7,10-.3,1.6-.7,3.3-1.1,4.9l-.6,2.4c-.1.4-.4,1.7-.5,1.9l-1.9,1.6-1.1.9-1.1.9-2.3,1.7-2.3,1.6c-.4.3-2.4,1.6-2.4,1.6-.8.5-1.6,1.1-2.4,1.5l-2.5,1.5c-.8.5-1.7.9-2.5,1.4-3.3,1.9-6.7,3.6-10.2,5.2l-2.6,1.2c-.9.4-1.8.7-2.6,1.1a48.415,48.415,0,0,1-4.9,1.8c-1.6-.5-3.3-1.1-4.9-1.7-.9-.3-1.8-.7-2.7-1.1l-2.7-1.1c-3.5-1.5-7-3.2-10.4-5-.8-.5-1.7-.9-2.5-1.4l-2.5-1.4c-.8-.5-1.6-1-2.5-1.5l-1.2-.8c-.4-.3-.8-.5-1.2-.8l-2.4-1.6-2.3-1.7-1.2-.9-1.1-.9-2.1-1.7c-.5-1.5-1-3.1-1.4-4.6-.4-1.6-.8-3.3-1.1-5-.7-3.3-1.2-6.7-1.6-10.1l-.3-2.5c-.1-.7-.1-1.5-.2-2.4-.2-1.7-.2-3.4-.4-5.1-.1-1.7-.1-3.4-.2-5.1V78.7q.45-3.45,1.2-6.9a33.834,33.834,0,0,1,.8-3.4c.3-1.1.6-2.3.9-3.4.7-2.2,1.4-4.5,2.3-6.6A17.724,17.724,0,0,1,62,55.3a27.549,27.549,0,0,1,1.7-2.9c.2-.2.3-.5.5-.7s.3-.4.5-.6c.3-.4.8-.8,1.2-1.3.8-.9,1.6-1.7,2.4-2.6a45.085,45.085,0,0,1,5.1-4.7,40.752,40.752,0,0,1,12-6.4c1.1-.4,2.2-.8,3.3-1.1a34.322,34.322,0,0,1,10.1-1.8c1.2,0,2.4-.1,3.5-.1h3.5a7.149,7.149,0,0,1,1.6.2l1.7.4.9.2.9.2,1.7.4a40.794,40.794,0,0,1,6.7,2.3,33.373,33.373,0,0,1,6.2,3.3,29.34,29.34,0,0,1,5.4,4.5c1.7,1.7,3.3,3.4,4.9,5.2a23.018,23.018,0,0,1,3.9,6.6,69.113,69.113,0,0,1,2.4,7.3Z" transform="translate(-54.7 -32.2)" fill="#c5796d"/>
          </g>
        </g>
        <g id="svga-group-mouth-single-move" transform="translate(45.092 97.961)">
          <g id="svga-group-mouth-single">
            <path id="SvgjsPath7246" d="M86.6,122.645a15.505,15.505,0,0,0,3.956.246c1.283-.082,2.78-.164,3.956-.246a16.34,16.34,0,0,1,6.737.9,7.917,7.917,0,0,0,3.005.413,4.721,4.721,0,0,0,2.555-1.069c1.39-.985,3.529-1.067,5.988-.985.855,0,2.139.082,3.315.164a13.439,13.439,0,0,0,3.422-.328c.107,0-2.352-.41-4.063-.9-1.575-.417-4.211-1.7-7.521-1.253-1.218.165-2.868,1.228-4.455,1.253-1.056.016-2.48-1.076-3.636-.9-2.459.41-5.453,1.149-8.982,1.969-1.39.328-3.422.328-4.277.738Zm4.063,2.629s8.02,1.559,12.832,1.477,12.083-2.79,12.083-2.79a41.338,41.338,0,0,1-5.881,2.38A29.347,29.347,0,0,1,97.721,127c-5.453-.9-7.057-1.723-7.057-1.723Z" transform="translate(-86.6 -119.493)" fill="#da7c87"/>
          </g>
        </g>
        <g id="svga-group-eyes-left-move" transform="translate(23.27 58.196) rotate(-8)">
          <g id="svga-group-eyes-left" transform="translate(0 0)">
            <g id="svga-group-eyesback-left" transform="translate(6.497 0.392)">
              <path id="SvgjsPath5579" d="M9.9,0A10.349,10.349,0,0,1,20.472,10.18c0,5.638-2.777,4.909-8.416,4.134S1.423,12.209.187,8.217,4.027,0,9.9,0Z" fill="#fff"/>
            </g>
            <g id="svga-group-eyesiriswrapper-left" transform="translate(12.012 6.186)">
              <g id="svga-group-eyesiriscontrol-left">
                <g id="svga-group-eyesiris-left">
                  <path id="SvgjsPath3460" d="M4.385,0A4.385,4.385,0,1,1,0,4.385,4.378,4.378,0,0,1,4.385,0Z" fill="#563c1a"/>
                  <path id="SvgjsPath3461" d="M2.349,0A2.307,2.307,0,0,1,4.7,2.349,2.307,2.307,0,0,1,2.349,4.7,2.307,2.307,0,0,1,0,2.349,2.307,2.307,0,0,1,2.349,0Z" transform="translate(2.036 2.036)"/>
                  <path id="SvgjsPath3462" d="M1.958.7l-.47-.47A.889.889,0,0,0,.861,0,.889.889,0,0,0,.235.235.889.889,0,0,0,0,.861a.889.889,0,0,0,.235.626l.47.47a.889.889,0,0,0,.626.235.889.889,0,0,0,.626-.235A.947.947,0,0,0,1.958.7ZM4.072,4.7a.587.587,0,0,0,0-1.175A.591.591,0,0,0,4.072,4.7Z" transform="translate(1.879 1.801)" fill="#fff"/>
                </g>
              </g>
            </g>
            <g id="svga-group-eyesfront-left">
              <path id="SvgjsPath5587" d="M11.042,0A10.85,10.85,0,0,0,0,10.65,10.85,10.85,0,0,0,11.042,21.3,10.85,10.85,0,0,0,22.083,10.65,10.85,10.85,0,0,0,11.042,0ZM3.994,12.764C-.548,10.1.313,2.9,9.24,5.795c6.656,2.193,11.276,8.144,11.276,8.144C12.451,14.957,8.457,15.427,3.994,12.764Z" transform="translate(5.356)" fill="#f3d4cf"/>
              <path id="SvgjsPath5588" d="M21.435,10.38A40.009,40.009,0,0,0,16.345,6.7C14.309,5.6,11.093,2.834,7.49,2.756S.213,5.29.213,5.29-.825,3.554,1.681,1.518,6.1-.077,10.78.408C15.349,1.669,20.025,6.7,21.435,10.38Z" transform="translate(5.143 4.185)" fill="#ebc3bd"/>
              <path id="SvgjsPath5589" d="M26.577,10.606A48.667,48.667,0,0,0,19.885,5.5a23.068,23.068,0,0,0-5.154-2.482,10.219,10.219,0,0,0-5.56-.188C8.878,2.713,8.49,2.408,7.5,2c-.029-.012-.3-.124-.575-.242C7.213,1.258,9.354.494,12,.438a13.874,13.874,0,0,1,5.6,1.208,20.689,20.689,0,0,1,4.362,3.007A28.239,28.239,0,0,1,24.541,7.4a13.893,13.893,0,0,1,2.036,3.211A17.035,17.035,0,0,0,24.7,7.317,29.2,29.2,0,0,0,22.192,4.5,18.776,18.776,0,0,0,17.871,1.3,13.326,13.326,0,0,0,11.959,0C9.5.055,6.911,1.039,6.609,1.6A16.82,16.82,0,0,1,4.573.5a.194.194,0,0,0-.313.078A.194.194,0,0,0,4.338.9a12.461,12.461,0,0,0,2.036,1.1,6.061,6.061,0,0,0-.548,1.253A17.719,17.719,0,0,1,2.067,1.913c-.078-.078-.235,0-.313.078s0,.235.078.313A16.972,16.972,0,0,0,5.669,3.636c-.078.235-.157.548-.235.783a12.264,12.264,0,0,1-5.09-.7c-.157-.078-.235,0-.313.157s0,.235.157.313a12.728,12.728,0,0,0,4.62.783h.47c-.078.157-.078.392-.157.548,0,.078,0,.157.078.157a.471.471,0,0,0,.313.078c.392-.235.7-.548,1.1-.783l.261.357.3.719A5.138,5.138,0,0,0,9.045,8.236a12.911,12.911,0,0,0,5.329,2.323,47.653,47.653,0,0,0,5.782.282c1.879-.157,3.681-.47,5.56-.7a8.541,8.541,0,0,0,.861.47ZM6.687,2.227a13.256,13.256,0,0,0,1.858.917,3.182,3.182,0,0,0-.84.571c-.313-.078-.861-.157-1.488-.313a7.351,7.351,0,0,1,.47-1.175Zm-.7,1.566c.392.078.783.157,1.1.235-.078.078-.157.157-.235.157a.594.594,0,0,1-.313.157,4.579,4.579,0,0,1-.783.078c.157-.157.157-.392.235-.626Zm-.235,1.1c-.078,0-.078.078-.157.078V4.889Zm14.331,5.56a27.938,27.938,0,0,1-5.7-.36A13.883,13.883,0,0,1,9.2,7.844,6.643,6.643,0,0,1,7.322,5.808c-.235-.548-.479-.528-.557-1.076a12.229,12.229,0,0,1,3.468-1.212,10.609,10.609,0,0,1,4.371.537,26.54,26.54,0,0,1,5.042,2.068c1.592.888,3.547,2.424,5.914,3.853-1.8.235-3.6.392-5.482.47Z" transform="translate(0 3.96)"/>
            </g>
          </g>
        </g>
        <g id="svga-group-eyes-right-move" transform="translate(71.475 51.505) rotate(10)">
          <g id="svga-group-eyes-right" transform="translate(0 0)">
            <g id="svga-group-eyesback-right" transform="translate(0.575 0.835)">
              <path id="SvgjsPath5580" d="M12.026,0A11.773,11.773,0,0,1,24.052,11.581,11.773,11.773,0,0,1,12.026,23.161,11.773,11.773,0,0,1,0,11.581,11.773,11.773,0,0,1,12.026,0Z" fill="#fff"/>
            </g>
            <g id="svga-group-eyesiriswrapper-right" transform="translate(9.268 9.34)">
              <g id="svga-group-eyesiriscontrol-right">
                <g id="svga-group-eyesiris-right">
                  <path id="SvgjsPath3463" d="M4.365,0A4.365,4.365,0,1,1,0,4.365,4.372,4.372,0,0,1,4.365,0Z" fill="#563c1a"/>
                  <path id="SvgjsPath3464" d="M2.405,0A2.405,2.405,0,1,1,0,2.405,2.4,2.4,0,0,1,2.405,0Z" transform="translate(1.96 1.96)"/>
                  <path id="SvgjsPath3465" d="M1.96.713C1.782.535,1.693.356,1.514.267A1.33,1.33,0,0,0,.891,0,.962.962,0,0,0,.267.267.809.809,0,0,0,0,.891a.962.962,0,0,0,.267.624c.178.178.356.267.445.445a.694.694,0,0,0,.624.267A.962.962,0,0,0,1.96,1.96a1.061,1.061,0,0,0,0-1.247ZM4.1,4.721a.581.581,0,0,0,0-1.158A.581.581,0,0,0,4.1,4.721Z" transform="translate(1.871 1.782)" fill="#fff"/>
                </g>
              </g>
            </g>
            <g id="svga-group-eyesfront-right" transform="translate(0 0)">
              <path id="SvgjsPath5590" d="M12.561,0A12.343,12.343,0,0,0,0,12.115,12.343,12.343,0,0,0,12.561,24.23,12.343,12.343,0,0,0,25.121,12.115,12.343,12.343,0,0,0,12.561,0ZM21.38,12.917c-5.167,3.029-9.977,4.81-19.153,3.741,0,0,5.523-6.058,13.362-7.661S26.457,9.888,21.38,12.917Z" fill="#f3d4cf"/>
              <path id="SvgjsPath5593" d="M0,10.7A33.215,33.215,0,0,1,5.7,6.156c2.316-1.211,6.628-4.023,10.726-4.109A9.636,9.636,0,0,1,23.07,4.556S21.525.844,17.975.2,10.873.493,6.967,2.3C3.315,4.46,1.6,6.632,0,10.7Z" transform="translate(1.358 6.702)" fill="#ebc3bd"/>
              <path id="SvgjsPath5594" d="M28.952,4.134A30.533,30.533,0,0,1,22.8,3.867l-.535-.8h.356a17.039,17.039,0,0,0,5.256-.713A.463.463,0,0,0,28.061,2c0-.178-.178-.178-.356-.178a15.4,15.4,0,0,1-5.7.624,6.8,6.8,0,0,0-.713-.98A11.4,11.4,0,0,0,23.963.571c.089-.089.178-.178.089-.356S23.874.036,23.7.125a16.7,16.7,0,0,1-2.762.891C20.591.558,17.657-.334,14.191.13,10.177.667,5.3,2.822,4.276,4.045a28.287,28.287,0,0,0-2.405,3.3A20.207,20.207,0,0,0,0,10.993a24.416,24.416,0,0,1,4.543-6.77c1-1.154,5.427-3.073,9.683-3.752,2.841-.454,5.773.117,6.084.545-.891.267-1.782.445-2.494.624a1.516,1.516,0,0,1-.624-.089,14.087,14.087,0,0,0-3.385.356A22.565,22.565,0,0,0,10.6,2.976,30.4,30.4,0,0,0,7.661,4.49,30,30,0,0,0,4.9,6.361,29.129,29.129,0,0,0,0,10.815c.356-.178.624-.445.98-.624a32.682,32.682,0,0,0,5.879.445,23.083,23.083,0,0,0,6.058-.8,25.7,25.7,0,0,0,5.612-2.316,9.736,9.736,0,0,1,1.336-.713,6.323,6.323,0,0,0,1.247-.891,6.048,6.048,0,0,0,1.069-1.069.675.675,0,0,0,.178-.356,1.947,1.947,0,0,1,.445.267.167.167,0,0,0,.267,0c.089-.089.178-.178.089-.356-.089-.089-.089-.178-.178-.267.98.089,2.494.267,4.1.267a10.781,10.781,0,0,0,1.693-.089.284.284,0,0,0,.267-.267c.178.178.089,0-.089.089ZM22.181,3.6a4.461,4.461,0,0,1-.713-.624h.356a1.436,1.436,0,0,0,.356.624ZM20.756,1.729c.178.267.445.534.624.8a3.671,3.671,0,0,1-1.069-.089,5.022,5.022,0,0,0-1.069-.356C19.776,2,20.222,1.818,20.756,1.729ZM22,4.846a5.593,5.593,0,0,1-1.069.98c-.356.267-.8.534-1.247.8a9.737,9.737,0,0,1-1.336.713,33,33,0,0,1-5.523,2.316,33.758,33.758,0,0,1-5.879.98c-1.96.089-3.92,0-5.79-.089,1.514-.98,2.687-2.607,4.2-3.5a49.324,49.324,0,0,1,5.7-2.94A19.505,19.505,0,0,1,14,3.041l1.856-.327,1.552.058c1.069,0,1.923.65,2.9.917a8.4,8.4,0,0,1,2.049.891c-.178,0-.267.089-.356.267Z" transform="translate(1.34 6.237)"/>
            </g>
          </g>
        </g>
        <g id="svga-group-eyebrows-left-move" transform="translate(23.884 44.703) rotate(8)">
          <g id="svga-group-eyebrows-left-rotate" transform="translate(0 5.585) rotate(-10.714)">
            <g id="svga-group-eyebrows-left">
              <path id="SvgjsPath7026" d="M0,9.2S2.73,3.125,7.31.905c5.98-2.9,21.19,2.04,22.07,2.67s.35,3.77-1.13,3.92-8.53-2.96-13.8-4.33S4.49,3.165,0,9.2Z" transform="translate(0.027 0.31)" fill="#71553e"/>
              <path id="SvgjsPath7027" d="M.017,9.536c.12-.13.26-.26.39-.42l.37-.43c.24-.28.49-.55.74-.81A18.552,18.552,0,0,1,3.1,6.386a13.436,13.436,0,0,1,3.61-2.24,10.491,10.491,0,0,1,4.1-.78,15.02,15.02,0,0,1,4.18.67c2.78.78,5.52,1.77,8.27,2.72a38.235,38.235,0,0,0,4.22,1.28,3.553,3.553,0,0,0,.57.07,1.434,1.434,0,0,0,.64-.1,1.9,1.9,0,0,0,.88-.87,3.752,3.752,0,0,0,.4-1.12,3.7,3.7,0,0,0,.05-1.2,2.4,2.4,0,0,0-.16-.61.991.991,0,0,0-.44-.51,9.869,9.869,0,0,0-1.05-.41c-.7-.23-1.39-.45-2.09-.66q-2.1-.611-4.22-1.12a48.983,48.983,0,0,0-8.59-1.47A16.463,16.463,0,0,0,9.1.306a8.184,8.184,0,0,0-2.11.75A11.066,11.066,0,0,0,5.137,2.3a16.993,16.993,0,0,0-2.98,3.3A19.44,19.44,0,0,0,.977,7.5c-.18.33-.35.66-.52.99-.08.17-.16.34-.24.5l-.11.26-.06.13-.02.06-.01.03-.01.02a.035.035,0,0,0,.01.05Zm.03-.07a22.9,22.9,0,0,1,5.44-6.73,11.127,11.127,0,0,1,1.78-1.13,7.765,7.765,0,0,1,1.97-.67,20.477,20.477,0,0,1,4.23-.3,36.459,36.459,0,0,1,4.29.34c1.43.18,2.85.43,4.27.75s2.81.7,4.2,1.13c.69.21,1.39.45,2.06.71.33.13.68.27.98.42a1.024,1.024,0,0,1,.36.84,3.6,3.6,0,0,1-.48,2.02,1.371,1.371,0,0,1-.67.62.955.955,0,0,1-.42.05,3.313,3.313,0,0,1-.5-.09c-.68-.16-1.37-.39-2.05-.62l-2.06-.74c-2.74-.99-5.47-2.05-8.3-2.83a15.038,15.038,0,0,0-4.37-.62,11.177,11.177,0,0,0-4.3.96,13.117,13.117,0,0,0-3.64,2.5A15.407,15.407,0,0,0,1.327,7.7c-.23.29-.47.57-.69.87a2.956,2.956,0,0,0-.31.44,3.337,3.337,0,0,1-.28.46Z" fill="#62442c"/>
            </g>
          </g>
        </g>
        <g id="svga-group-eyebrows-right-move" transform="translate(69.006 48.486) rotate(-3)">
          <g id="svga-group-eyebrows-right-rotate" transform="translate(1.471 0) rotate(10.714)">
            <g id="svga-group-eyebrows-right" transform="translate(0 0)">
              <path id="SvgjsPath7028" d="M28.885,7.6S26.051,2.439,21.57.648C15.706-1.686,1.182,2.993.368,3.553S.15,6.82,1.586,6.9,9.708,4.115,14.76,2.779c5.022-1.316,9.6-.251,14.125,4.824Z" transform="translate(0.221 0.31)" fill="#71553e"/>
              <path id="SvgjsPath7029" d="M29.134,7.883l-.01-.019-.02-.029-.03-.057-.06-.114-.12-.219c-.08-.143-.16-.3-.25-.428-.18-.286-.35-.562-.54-.838a17.265,17.265,0,0,0-1.2-1.607A15.257,15.257,0,0,0,23.919,1.8,11.814,11.814,0,0,0,22.095.772a8.836,8.836,0,0,0-2.06-.587A17.916,17.916,0,0,0,15.8.072a53.225,53.225,0,0,0-8.241,1.5c-1.349.345-2.7.689-4.027,1.081-.67.2-1.329.4-1.989.627a9.232,9.232,0,0,0-.995.38.864.864,0,0,0-.408.452,2,2,0,0,0-.136.536,3.292,3.292,0,0,0,.511,2,1.807,1.807,0,0,0,.885.73,1.546,1.546,0,0,0,.627.072,2.519,2.519,0,0,0,.547-.09A38.3,38.3,0,0,0,6.6,6.145c2.619-.9,5.237-1.826,7.9-2.582a15.994,15.994,0,0,1,4.014-.689,11.358,11.358,0,0,1,3.974.564,13.431,13.431,0,0,1,3.559,1.839c.544.388,1.067.815,1.569,1.251.251.218.492.446.744.674l.362.361c.131.133.271.247.392.351.02.009.031-.019.031-.029Zm-.341-.38c-.08-.1-.211-.247-.321-.371-.221-.257-.452-.494-.693-.731a15.246,15.246,0,0,0-1.518-1.356,13.26,13.26,0,0,0-3.577-2.059,11.812,11.812,0,0,0-4.175-.715,15.391,15.391,0,0,0-4.2.652c-2.7.746-5.3,1.741-7.906,2.678l-1.949.693c-.65.225-1.309.44-1.958.607a4.616,4.616,0,0,1-.476.09.944.944,0,0,1-.4-.026,1.338,1.338,0,0,1-.664-.512A2.841,2.841,0,0,1,.433,4.717a.841.841,0,0,1,.32-.729c.285-.146.609-.272.934-.4.65-.244,1.3-.468,1.959-.674,1.319-.411,2.668-.784,4.007-1.1,1.359-.316,2.717-.565,4.1-.766S14.5.7,15.871.636a19.949,19.949,0,0,1,4.078.142,7.628,7.628,0,0,1,1.919.521,11.284,11.284,0,0,1,1.764.924A20.933,20.933,0,0,1,29.1,7.893c-.13-.142-.22-.285-.311-.39Z" transform="translate(0)" fill="#62442c"/>
            </g>
          </g>
        </g>
        <g id="svga-group-nose-single-move" transform="translate(51.603 72.402)">
          <g id="svga-group-nose-single">
            <path id="SvgjsPath4352" d="M94.67,92.35a6.151,6.151,0,0,1,1.06,1.84,7.748,7.748,0,0,1,.472,2.09,6.459,6.459,0,0,1-.183,2.148,5.12,5.12,0,0,1-.915,1.917,15.545,15.545,0,0,0,.337-2.023,11.382,11.382,0,0,0,.01-1.984,15.607,15.607,0,0,0-.279-1.984C95.036,93.689,94.863,93.034,94.67,92.35Z" transform="translate(-90.09 -92.35)" fill="#c5796d"/>
            <path id="SvgjsPath4353" d="M103.494,110a5.2,5.2,0,0,0,2.048-.067,1.56,1.56,0,0,0,.223-.087.544.544,0,0,0,.169-.116,2.122,2.122,0,0,0,.3-.385,4.852,4.852,0,0,0,.427-.963,5.312,5.312,0,0,0-.249-4.133,2.409,2.409,0,0,0-.605-.78,3.881,3.881,0,0,0-.864-.549,8.86,8.86,0,0,0-1.985-.674,16.936,16.936,0,0,0-4.184-.308,40.061,40.061,0,0,0-4.175.366,5.613,5.613,0,0,0-1.914.6,5.547,5.547,0,0,0-1.576,1.262,4,4,0,0,0-.917,1.792,2.706,2.706,0,0,0-.009,1,5.636,5.636,0,0,0,.285,1.031,3.289,3.289,0,0,0,1.22,1.628,2.965,2.965,0,0,0,.935.376,3.7,3.7,0,0,0,1.033.029l.009.077a3.015,3.015,0,0,1-2.146-.144,3.5,3.5,0,0,1-1.549-1.715,7.29,7.29,0,0,1-.392-1.127,3.394,3.394,0,0,1-.053-1.272,4.517,4.517,0,0,1,1.024-2.206,5.575,5.575,0,0,1,1.807-1.435,5.927,5.927,0,0,1,1.059-.4A8.849,8.849,0,0,1,94.5,101.6a24.274,24.274,0,0,1,4.265-.067c1.416.1,2.822.241,4.22.462a11.427,11.427,0,0,1,2.092.5,4,4,0,0,1,1.006.511,2.6,2.6,0,0,1,.454.395,3.084,3.084,0,0,1,.347.5,4.7,4.7,0,0,1,.65,2.322,6.064,6.064,0,0,1-.41,2.36,4.653,4.653,0,0,1-.552,1.05,2.163,2.163,0,0,1-.418.453.8.8,0,0,1-.294.154,1.528,1.528,0,0,1-.285.067,3.215,3.215,0,0,1-1.1,0,5.062,5.062,0,0,1-1.051-.25l.062-.058Z" transform="translate(-89.489 -93.959)" fill="#c5796d"/>
            <path id="SvgjsPath4354" d="M92.72,109.5a1.07,1.07,0,0,1,.858-.651,1.158,1.158,0,0,1,.618.045.909.909,0,0,1,.464.4,3.58,3.58,0,0,1,.318,1.006,7.8,7.8,0,0,0,.223.946,1.165,1.165,0,0,0,.506.673,3.005,3.005,0,0,0,.446.166c.172.045.335.091.515.121a9.808,9.808,0,0,0,2.163.151,7.408,7.408,0,0,0,2.1-.333,2.354,2.354,0,0,0,.841-.461,1.829,1.829,0,0,0,.489-.757,5.42,5.42,0,0,0,.2-.938,3.048,3.048,0,0,1,.112-.514,1.04,1.04,0,0,1,.155-.287,1.016,1.016,0,0,1,.146-.113,1.373,1.373,0,0,1,.154-.068,1.914,1.914,0,0,1,.609-.083,1.962,1.962,0,0,1,.592.083,1,1,0,0,1,.506.287.428.428,0,0,1,.017.5.377.377,0,0,0-.094-.439.9.9,0,0,0-.472-.182,2,2,0,0,0-1.021.106.311.311,0,0,0-.215.28,2.6,2.6,0,0,0-.043.469,4.829,4.829,0,0,1-.137,1.029,2.131,2.131,0,0,1-.567.983,2.948,2.948,0,0,1-1.03.635,7.646,7.646,0,0,1-2.318.409,9.709,9.709,0,0,1-2.335-.2c-.189-.045-.386-.091-.575-.151a2.521,2.521,0,0,1-.575-.25,1.607,1.607,0,0,1-.678-.976,6.27,6.27,0,0,1-.163-1.021,3.19,3.19,0,0,0-.18-.931.606.606,0,0,0-.283-.318,1,1,0,0,0-.489-.083,1.017,1.017,0,0,0-.858.461Z" transform="translate(-89.748 -95.188)" fill="#c5796d"/>
            <path id="SvgjsPath4355" d="M106.169,103.625c-1.378-.934-3.266-.992-4.874-1.079a16.058,16.058,0,0,0-6.4.491.079.079,0,0,0,.019.154c2.254.231,4.547-.183,6.83.048,1.792.183,3.622.328,4.739,1.965.973,1.426.453,2.726.25,4.219a.192.192,0,0,0,.318.183c1.859-1.57.925-4.759-.886-5.982Z" transform="translate(-91.166 -93.963)" fill="#fbe5e2"/>
          </g>
        </g>
        <g id="svga-group-hair-front">
          <path id="SvgjsPath5167" d="M98.91,27.442S92.2,24.9,90.2,24.8c0,0-4.8-3-8.8,0-3.8,3.1-28.637,17.073-30.437,19.173a21.089,21.089,0,0,0-2.9,4.6s-4.1,10.7-5.5,16.2l-3.9,17.5,1,19.6,2.4,31.7,3.1,16.5,1.5,6.8-.1-8,6.1,10.8L71.6,161.6l-1.4-9.1,6.9,9.7L72.7,146l-4.9-19.7-1-26.7S66.7,84,67.1,81s.8-5.8.8-5.8l2.9-8.9s2.8-7.7,3.9-10,3.5-8.1,4.4-9.4a11.681,11.681,0,0,1,2.3-2.2,33.954,33.954,0,0,1,4.1.8c1.2.4,14.7,4.6,14.7,4.6l9-4.6s3.3-1.9,4.8-1.8a21.488,21.488,0,0,1,4.6,1.4s5.5,4.1,6.9,6.2S132.4,62,132.4,62s1.8,14.7,1.9,18.3.9,10.1.9,10.1,1.4,11.6,1.4,13.7.3,7.9.3,7.9l-.3,8.5s-1.8,15.5-1.9,16.4-2.2,17.3-2.2,17.3l-.7,5.9,3.7-2.3,1-6.1,2,4.3,2.1,3.6,11.193-11.1,7.5,10.8-1.7-18.1V117.158l.3-26.4.9-20.9.1-9.1-7.6-9.458s-5.1-8.4-8.2-10.8c-3.1-2.3-20.683-11.358-25.683-13.358a73.611,73.611,0,0,0-9.9-3.1l-8.6,3.4Z" transform="translate(-38.442 -23.467)" fill="#6b4e31"/>
          <path id="SvgjsPath5168" d="M155.718,123.914c.243-2.115.486-4.13.729-6.245a54.012,54.012,0,0,0,.486-6.346c-.729-8.36-1.7-16.619-2.553-24.879-.973-8.259-1.824-16.519-2.8-24.879v-.2l-.122-.1a29.8,29.8,0,0,0-3.283-4.734c-1.216-1.511-2.432-2.921-3.769-4.331a41.436,41.436,0,0,0-9.24-7.655,13.763,13.763,0,0,0-6.444-1.813,10.291,10.291,0,0,0-3.526.6c-1.094.4-1.945.806-2.918,1.209L111.22,49.278c-3.283-.907-6.565-1.712-9.848-2.518-3.4-.806-6.93-1.712-10.456-2.317-.486-.1-.851-.1-1.337-.2l-.729-.1a2.466,2.466,0,0,0-.851.1,5.519,5.519,0,0,0-2.188,1.612,18.224,18.224,0,0,0-2.675,3.928c-1.581,2.72-2.918,5.439-4.255,8.159-2.553,5.54-4.985,11.08-7.173,16.72-.243.705-.365,1.511-.608,2.216l-.365,2.216c-.243,1.511-.365,2.921-.486,4.432-.243,2.921-.365,5.943-.486,8.864-.122,5.943-.243,11.885,0,17.727.122,2.921.243,5.943.365,8.864l.243,4.432a13.727,13.727,0,0,0,.243,2.216c.122.806.243,1.511.365,2.317,1.459,5.842,3.4,11.583,5.228,17.324,1.581,4.734,3.283,9.468,4.863,14.2l-6.2-6.648-1.094-1.108.365,1.41c.729,3.122,1.459,6.346,2.31,9.468h.243l-1.459-8.159c2.31,2.72,4.62,5.439,7.052,8.159l2.067,2.417-.973-2.921-5.471-17.123c-1.824-5.741-3.647-11.482-4.985-17.224a12.839,12.839,0,0,1-.365-2.115l-.122-2.216-.243-4.432c-.122-2.921-.365-5.943-.365-8.864-.243-5.943-.486-11.785-.486-17.727,0-2.921,0-5.943.122-8.864a29.449,29.449,0,0,1,1.216-8.662,118.69,118.69,0,0,1,6.687-16.619c1.337-2.72,2.8-5.439,4.377-8.058a32.471,32.471,0,0,1,2.675-3.727,4.956,4.956,0,0,1,1.7-1.309h.486l.608.1a5.185,5.185,0,0,0,1.337.2c6.808,1.41,13.617,3.425,20.3,5.338l.365.1.365-.1,11.429-4.633c.973-.4,1.945-.806,2.8-1.108a8.217,8.217,0,0,1,2.675-.4,11.687,11.687,0,0,1,5.35,1.612,36.639,36.639,0,0,1,8.632,7.252q2.006,2.115,3.647,4.23a30.084,30.084,0,0,1,2.918,4.331c.851,8.259,1.824,16.418,2.8,24.677l2.918,24.778a53.644,53.644,0,0,1-.243,6.144c-.243,2.115-.365,4.13-.608,6.245L152.435,136.3l-3.161,24.778h.243c1.581-8.159,3.161-16.418,4.377-24.677.608-4.23,1.216-8.36,1.824-12.49Zm3.526,7.453a28.788,28.788,0,0,0,.486-4.734l-.122-1.209V122c.122-12.288.608-24.677.486-36.965,0-1.511,0-3.122-.122-4.633,0-.806-.122-1.612-.122-2.317,0-.4-.122-.806-.122-1.209l-.122-.6-.122-.6c-.608-3.022-1.216-6.043-1.945-9.065a84.27,84.27,0,0,0-2.553-9.065,34.361,34.361,0,0,0-1.7-4.533c-.365-.705-.729-1.511-1.094-2.216a7.946,7.946,0,0,0-1.945-2.216c-3.04-1.914-6.079-3.626-9.24-5.338A103.228,103.228,0,0,0,131.28,38.5a19.8,19.8,0,0,0-2.675-.907,7.869,7.869,0,0,0-1.824-.2,11.65,11.65,0,0,0-1.459.4,43.814,43.814,0,0,0-5.106,2.115c-3.161,1.41-6.322,2.921-9.483,4.432-6.322-2.014-12.644-4.029-19.21-5.741-1.7-.4-3.283-.907-4.985-1.209-.851-.2-1.7-.3-2.553-.5H82.891a.851.851,0,0,0-.486.1,2.76,2.76,0,0,0-1.094.806,19.7,19.7,0,0,0-2.553,3.827c-.729,1.309-1.459,2.619-2.067,3.928-2.675,5.238-4.985,10.677-7.416,16.015-2.31,5.338-4.62,10.777-6.808,16.216-1.094,2.72-2.188,5.439-3.161,8.159-.486,1.41-.973,2.72-1.459,4.13a13.838,13.838,0,0,0-.608,2.115c0,.2-.122.4-.122.6V94.5c.122,5.842.608,11.482,1.094,17.224s1.094,11.382,1.7,17.123l1.945,17.123v.1c1.945,4.935,3.769,9.871,5.714,14.806l.243-.1c-1.581-5.036-3.161-9.972-4.742-15.008l-2.8-34.145-.608-8.561c-.122-2.82-.365-5.741-.486-8.561V92.992a.778.778,0,0,1,.122-.5,12.7,12.7,0,0,1,.608-2.014c.365-1.41.851-2.72,1.337-4.13.973-2.72,1.824-5.54,2.8-8.259A294.541,294.541,0,0,1,77.3,45.652c.608-1.309,1.337-2.619,2.067-3.928A20.883,20.883,0,0,1,81.919,38.1a1.592,1.592,0,0,1,.851-.6h.973a16.68,16.68,0,0,1,2.432.5c1.7.4,3.283.806,4.863,1.309,6.444,1.914,12.888,4.029,19.21,6.245l.243.1.365-.1c3.283-1.511,6.565-2.921,9.848-4.331a50.564,50.564,0,0,1,4.985-1.914c.365-.1.851-.2,1.094-.3a2.155,2.155,0,0,1,.973.2,11.924,11.924,0,0,1,2.432.907,97.437,97.437,0,0,1,9.362,4.835c3.04,1.712,6.079,3.525,9,5.338a4.449,4.449,0,0,1,1.216,1.511,10.909,10.909,0,0,1,.973,2.014c.608,1.41,1.094,2.82,1.581,4.331a75.566,75.566,0,0,1,2.31,8.964l1.945,9.065.122.6.122.5c0,.3.122.705.122,1.108,0,.806.122,1.511.122,2.317,0,1.511.122,3.022.122,4.633,0,12.288-.122,24.677.122,36.965a14.8,14.8,0,0,0,.122,2.317,4.089,4.089,0,0,0,.122,1.209l.122.6v.5a28.961,28.961,0,0,1-.243,4.533c-.365,3.022-.729,6.144-1.216,9.166-.851,6.144-1.824,12.187-2.8,18.332h.243c1.337-6.043,2.553-12.187,3.769-18.231a89.652,89.652,0,0,0,1.824-9.367Zm11.307,30.318-.243-2.417-2.553-24.476L166.417,122.6a100.6,100.6,0,0,1-.608-12.087c0-8.159.243-16.317.608-24.476l1.094-24.476v-.2l-.122-.2a56.672,56.672,0,0,0-3.283-6.446,69.432,69.432,0,0,0-4.134-6.043A64.421,64.421,0,0,0,149.274,38a61.5,61.5,0,0,0-13.617-8.058A67.728,67.728,0,0,0,128,27.22a55.162,55.162,0,0,0-8.146-1.712h-.122l-.122.1-9.97,3.626q-2.371-1.511-4.742-2.72c-.851-.4-1.824-.907-2.675-1.209a14.63,14.63,0,0,0-3.04-.806,5.017,5.017,0,0,0-1.7.1,8.355,8.355,0,0,0-1.459.5,20.562,20.562,0,0,0-2.675,1.309c-1.7.907-3.4,1.914-4.985,2.921C81.8,33.364,75.353,37.393,69.031,41.623c-1.581,1.108-3.161,2.115-4.742,3.223a16.2,16.2,0,0,0-3.04,4.533c-1.581,3.122-2.918,6.245-4.255,9.468-1.216,3.223-2.432,6.446-3.526,9.669s-2.067,6.547-2.918,9.871c-.243.806-.365,1.712-.608,2.518-.122.4-.122.806-.243,1.309v1.309c0,1.712.122,3.425.122,5.036.122,3.324.365,6.748.608,10.072.486,6.748,1.094,13.4,1.824,20.145.365,3.324.608,6.748,1.094,10.072.243,1.712.365,3.324.608,5.036s.608,3.425.973,5.036c1.581,6.648,3.4,13.195,5.228,19.641l.608-.1-.608-7.856h-.243l.122,4.734-1.581-6.849c-.729-3.324-1.581-6.648-2.188-9.871a34.936,34.936,0,0,1-.851-4.935c-.243-1.612-.365-3.324-.486-5.036l-.851-10.072c-.608-6.748-1.094-13.4-1.459-20.145L52.01,88.358c-.122-1.712-.243-3.324-.243-5.036V82.114c0-.4.122-.806.122-1.209.122-.806.365-1.612.486-2.417a181.634,181.634,0,0,1,5.836-19.44c1.216-3.223,2.432-6.346,3.891-9.468a15.583,15.583,0,0,1,2.8-4.331c.608-.5,1.459-1.108,2.188-1.612l2.31-1.612c6.322-4.23,12.523-8.461,19.21-12.389,1.581-1.007,3.283-1.914,4.985-2.82.851-.4,1.7-.907,2.553-1.209a7.237,7.237,0,0,1,1.337-.5,2.984,2.984,0,0,1,1.337,0,17.752,17.752,0,0,1,5.35,1.914c1.7.907,3.283,1.914,4.863,2.921l.243.2.243-.1,9.97-3.425a52.746,52.746,0,0,1,7.66,1.813,64.5,64.5,0,0,1,7.416,2.82,60.121,60.121,0,0,1,23.222,18.432,65.069,65.069,0,0,1,4.012,5.842,41.17,41.17,0,0,1,3.039,6.043c-.486,8.058-.973,16.216-1.337,24.274-.365,8.159-.608,16.317-.486,24.576,0,2.014,0,4.13.122,6.144s.365,4.23.608,6.144l1.581,12.187,2.918,22.058-7.781-9.065-.973-1.108V159.67l-2.31-3.223-.243.1,2.553,3.827.365.6v-.705l.486-10.878,8.146,10.173,2.067,2.115Z" transform="translate(-49.7 -24.475)" fill="#5c3e21"/>
        </g>
      </g>
    </g>
  </g>
</svg>
