<svg xmlns="http://www.w3.org/2000/svg" width="1015" height="521" viewBox="0 0 1015 521">
  <g id="product3" transform="translate(679 -1691)">
    <rect id="Rectangle_94" data-name="Rectangle 94" width="1015" height="521" transform="translate(-679 1691)" fill="#f5f5f5"/>
    <g id="product3-2" data-name="product3" transform="translate(-492.766 1700.768)">
      <g id="freepik--Plants--inject-2" transform="translate(121.733 163.369)">
        <g id="Group_37" data-name="Group 37" opacity="0.2">
          <path id="Path_151" data-name="Path 151" d="M150.083,284.105c3.55-1,9.838-6.385,9.838-6.393s-4.806-3.061-5.129-3.218c-3.812-1.788-12.211-3-15.438.445a5.582,5.582,0,0,0,.959,8.251C142.966,285.178,147.057,284.951,150.083,284.105Z" transform="translate(-137.957 -192.939)"/>
          <path id="Path_152" data-name="Path 152" d="M167.5,289.185c3.035-1.823,7.388-8.164,7.736-8.67a98.33,98.33,0,0,0,11.339,6.751c2.276,1.177,4.605,2.294,6.978,3.375-1.143-.331-2.172-.628-2.32-.654-4.152-.715-12.586.331-14.775,4.509a5.573,5.573,0,0,0,3.114,7.693c3.079,1.239,6.978-.07,9.655-1.692s6.559-6.978,7.553-8.391c.872.41,1.805.829,2.713,1.23,4.361,1.936,8.722,3.855,12.909,5.861,1.483.706,2.913,1.465,4.361,2.207-1.012-.3-1.875-.541-2.015-.558-4.143-.724-12.577.331-14.766,4.5a5.573,5.573,0,0,0,3.105,7.693c3.088,1.247,6.978-.07,9.664-1.692s6.184-6.446,7.37-8.138c1.448.811,2.9,1.622,4.274,2.468.872.6,1.849,1.116,2.739,1.744l2.66,1.875c1.657,1.247,3.367,2.529,4.945,3.794,1.1.872,2.137,1.744,3.184,2.573-1.465-.724-4.361-2.076-4.631-2.163-3.986-1.334-12.481-1.579-15.281,2.215a5.573,5.573,0,0,0,1.91,8.077c2.861,1.692,6.9.986,9.8-.209,3.2-1.317,8.286-6.672,8.914-7.344,1.744,1.413,3.393,2.809,4.945,4.152,3.428,2.948,6.419,5.661,8.914,8l2.39-1.962c-2.617-2.364-5.818-5.146-9.507-8.173-1.744-1.448-3.637-2.957-5.6-4.483a61.458,61.458,0,0,0,3.061-6.428c3.489.488,10.24-1.055,11.1-1.265.663,2.137,1.282,4.213,1.84,6.184,1.169,4.134,2.119,7.85,2.9,11.06l2.617-2.111c-.776-2.9-1.744-6.167-2.8-9.734-.663-2.172-1.413-4.474-2.2-6.829.8-.419,7.344-3.873,9.481-6.611,1.928-2.477,3.707-6.167,2.843-9.385a5.573,5.573,0,0,0-7.265-4.012c-4.4,1.666-6.463,9.917-6.254,14.112,0,.253.445,2.931.75,4.605-.331-.959-.637-1.893-.986-2.878-.68-1.962-1.413-3.89-2.2-5.975-.419-.986-.872-1.989-1.256-3s-.942-2.032-1.422-3.061c-1.143-2.355-2.416-4.692-3.759-6.978,1.744-.6,7.754-2.817,10.057-4.98s4.6-5.539,4.239-8.844a5.582,5.582,0,0,0-6.576-5.076c-4.605.986-7.893,8.827-8.321,13.013,0,.262,0,3.3.052,4.963-.811-1.387-1.622-2.782-2.495-4.16-2.512-3.977-5.172-7.937-7.85-11.888-.811-1.212-1.6-2.433-2.4-3.646.611-.209,7.85-2.686,10.423-5.111,2.285-2.154,4.6-5.539,4.239-8.844a5.582,5.582,0,0,0-6.576-5.068c-4.605.977-7.85,8.818-8.321,13,0,.314,0,4.684.087,5.8-1.744-2.678-3.489-5.364-5.076-8.077a97.973,97.973,0,0,1-5.783-11.339c.288-.1,7.85-2.617,10.466-5.137,2.285-2.154,4.6-5.539,4.239-8.844a5.582,5.582,0,0,0-6.576-5.068c-4.605.986-7.893,8.818-8.321,13,0,.331,0,5.033.1,5.887-.1-.227-.227-.454-.314-.68a71.374,71.374,0,0,1-3.646-12.211c-.506-2.3-.872-4.527-1.143-6.707,1.457-.331,8.112-1.91,10.728-3.89s5.181-5,5.181-8.33a5.573,5.573,0,0,0-5.975-5.757c-4.684.471-8.818,7.9-9.7,12.01-.052.227-.288,2.556-.436,4.256-.113-.986-.253-2-.34-2.939-.358-3.55-.471-6.821-.541-9.716v-4.527c1.256-1.073,6.289-5.451,7.675-8.364s2.294-6.821.768-9.777a5.582,5.582,0,0,0-7.954-2.355c-3.951,2.573-4.187,11.068-3.079,15.133.1.349,2.233,5.661,2.294,5.608l.079-.07c-.052,1.343-.087,2.782-.1,4.361,0,2.9,0,6.184.323,9.751a100.546,100.546,0,0,0,1.448,11.469,73.161,73.161,0,0,0,3.428,12.473l.061.14c-.872-1.082-3.349-4.03-3.567-4.239-3.061-2.887-10.676-6.664-14.827-4.361a5.573,5.573,0,0,0-1.657,8.129c1.893,2.739,5.853,3.785,8.992,3.916,3.541.157,10.667-2.721,11.234-2.957a98.486,98.486,0,0,0,5.713,11.871c1.247,2.233,2.617,4.448,3.934,6.655-.768-.872-1.465-1.744-1.57-1.832-3.061-2.887-10.676-6.664-14.828-4.361a5.573,5.573,0,0,0-1.648,8.129c1.893,2.739,5.852,3.785,8.992,3.916s9.315-2.189,10.92-2.835c.532.872,1.055,1.692,1.587,2.521,2.556,4.021,5.129,8.016,7.527,12.019.872,1.4,1.631,2.826,2.425,4.239-.689-.8-1.273-1.483-1.369-1.579-3.061-2.887-10.676-6.664-14.827-4.361a5.573,5.573,0,0,0-1.648,8.129c1.884,2.739,5.852,3.785,8.992,3.916s8.722-1.971,10.632-2.721c.768,1.474,1.526,2.957,2.207,4.413.436,1.012.925,1.954,1.308,2.992l1.186,3.035c.689,1.954,1.4,3.96,2.024,5.887.445,1.334.872,2.617,1.239,3.9-.82-1.413-2.5-4.143-2.669-4.361a21.613,21.613,0,0,0-8.914-6.315,6.331,6.331,0,0,0-.872-.872,5.565,5.565,0,0,0-8.269.654c-2.756,3.82.07,11.836,2.564,15.229.148.2,1.989,2.189,3.166,3.428-.8-.619-1.579-1.239-2.416-1.867-1.64-1.256-3.323-2.46-5.12-3.759l-2.7-1.814c-.872-.628-1.91-1.177-2.87-1.744-2.259-1.334-4.614-2.617-6.978-3.777,1.1-1.448,4.919-6.629,5.643-9.7s.776-7.161-1.352-9.716a5.573,5.573,0,0,0-8.277-.6c-3.3,3.358-1.744,11.714.236,15.438.122.235,1.823,2.747,2.782,4.117-1.439-.715-2.887-1.43-4.361-2.1-4.291-1.936-8.722-3.759-13.083-5.6l-4.012-1.744c.392-.506,5.068-6.568,5.879-10.013.715-3.061.776-7.161-1.352-9.716a5.573,5.573,0,0,0-8.277-.6c-3.3,3.358-1.744,11.714.236,15.438.148.279,2.617,3.9,3.271,4.788-2.939-1.265-5.861-2.547-8.722-3.934a98.631,98.631,0,0,1-11.086-6.271c.183-.244,5.094-6.542,5.922-10.074.715-3.061.776-7.152-1.352-9.716a5.582,5.582,0,0,0-8.277-.6c-3.3,3.367-1.744,11.714.236,15.438.157.3,2.8,4.187,3.323,4.858-.2-.14-.427-.253-.637-.392a71.459,71.459,0,0,1-9.786-8.2c-1.692-1.64-3.21-3.306-4.649-4.963,1.029-1.082,5.7-6.105,6.8-9.158s1.561-7.03-.27-9.8a5.582,5.582,0,0,0-8.164-1.509c-3.655,2.974-3,11.452-1.465,15.368.087.218,1.169,2.285,1.98,3.785-.637-.759-1.308-1.526-1.91-2.259-2.25-2.765-4.143-5.434-5.8-7.806-.933-1.361-1.744-2.617-2.495-3.785.454-1.587,2.242-8.016,1.8-11.208s-1.858-6.978-4.762-8.574a5.573,5.573,0,0,0-7.937,2.425c-1.867,4.361,2.617,11.539,5.783,14.313.27.244,4.98,3.489,5.006,3.41a.462.462,0,0,0,0-.1c.706,1.151,1.465,2.372,2.329,3.681,1.6,2.425,3.489,5.137,5.652,7.955a97.866,97.866,0,0,0,7.527,8.722,72.848,72.848,0,0,0,9.786,8.365l.131.087c-1.308-.436-5.015-1.518-5.312-1.57-4.143-.715-12.577.331-14.766,4.509a5.573,5.573,0,0,0,3.105,7.693C160.92,292.072,164.8,290.764,167.5,289.185Z" transform="translate(-137.979 -181.247)"/>
          <path id="Path_153" data-name="Path 153" d="M224.521,224.588c.078,0-2.32-5.233-2.512-5.512-2.189-3.593-8.539-9.245-13.083-8.146a5.573,5.573,0,0,0-3.742,7.405c1.1,3.14,4.64,5.233,7.641,6.158C216.314,225.618,224.512,224.588,224.521,224.588Z" transform="translate(-146.5 -185.022)"/>
        </g>
        <g id="Group_38" data-name="Group 38" transform="translate(320.468 35.604)" opacity="0.2">
          <path id="Path_154" data-name="Path 154" d="M552.8,234.315c1.038,2.939,5.94,7.937,5.94,7.946s2.32-4.23,2.433-4.518c1.291-3.314,1.84-10.466-1.247-13a4.719,4.719,0,0,0-6.9,1.273C551.476,228.375,551.913,231.82,552.8,234.315Z" transform="translate(-511.337 -222.285)"/>
          <path id="Path_155" data-name="Path 155" d="M533.7,249.71c1.744,2.468,7.3,5.783,7.754,6.044a83.444,83.444,0,0,0-5.068,9.926c-.872,1.989-1.666,4.012-2.451,6.062.218-.986.4-1.875.419-2,.375-3.541-.986-10.6-4.631-12.211a4.719,4.719,0,0,0-6.323,3.053c-.872,2.678.454,5.879,1.971,8.059s6.254,5.137,7.51,5.9c-.3.794-.593,1.57-.872,2.364-1.4,3.777-2.765,7.553-4.23,11.217-.515,1.291-1.064,2.547-1.614,3.8.192-.872.349-1.614.366-1.744.366-3.541-.994-10.6-4.64-12.211a4.71,4.71,0,0,0-6.315,3.053c-.872,2.678.454,5.879,1.971,8.059s5.791,4.849,7.283,5.757c-.6,1.273-1.2,2.547-1.84,3.75-.462.811-.872,1.622-1.343,2.407l-1.43,2.355c-.959,1.465-1.945,2.983-2.922,4.361-.672.986-1.334,1.91-1.989,2.835.523-1.273,1.5-3.8,1.561-4.021.872-3.445.628-10.632-2.73-12.778a4.719,4.719,0,0,0-6.707,2.067c-1.273,2.512-.445,5.879.724,8.26,1.291,2.617,6.105,6.62,6.7,7.117-1.1,1.535-2.181,3.018-3.218,4.361-2.3,3.061-4.422,5.73-6.254,7.963l1.788,1.91c1.849-2.355,4.012-5.233,6.367-8.478,1.116-1.561,2.285-3.245,3.489-4.98a53.342,53.342,0,0,0,5.591,2.224c-.218,3,1.474,8.583,1.692,9.3-1.744.68-3.489,1.317-5.12,1.9-3.41,1.212-6.507,2.233-9.167,3.061l1.928,2.058c2.407-.82,5.111-1.744,8.059-2.9,1.744-.68,3.7-1.448,5.643-2.242.393.654,3.681,5.983,6.105,7.623,2.2,1.491,5.416,2.782,8.085,1.884a4.719,4.719,0,0,0,2.974-6.358c-1.657-3.628-8.722-4.9-12.263-4.492-.209,0-2.442.549-3.846.872.794-.331,1.57-.645,2.381-.994,1.614-.689,3.2-1.413,4.911-2.2l2.451-1.134a24.884,24.884,0,0,0,2.495-1.369c1.928-1.1,3.829-2.311,5.713-3.567.6,1.4,2.809,6.385,4.771,8.2s4.928,3.576,7.7,3.079a4.71,4.71,0,0,0,3.907-5.826c-1.09-3.838-7.85-6.167-11.443-6.3-.218,0-2.782.192-4.187.323,1.125-.759,2.25-1.518,3.367-2.337,3.218-2.338,6.411-4.815,9.594-7.265.977-.75,1.962-1.483,2.939-2.224.209.5,2.713,6.472,4.9,8.5,1.945,1.814,4.937,3.576,7.7,3.079a4.71,4.71,0,0,0,3.908-5.826c-1.082-3.838-7.85-6.167-11.443-6.3-.262,0-3.951.279-4.884.4,2.154-1.631,4.361-3.236,6.524-4.736a83.459,83.459,0,0,1,9.254-5.521c.1.236,2.678,6.48,4.919,8.565,1.954,1.805,4.937,3.567,7.71,3.079a4.719,4.719,0,0,0,3.907-5.835c-1.09-3.829-7.85-6.166-11.443-6.289-.279,0-4.248.305-4.963.41.183-.1.366-.209.558-.305a60.68,60.68,0,0,1,10.118-3.759c1.919-.549,3.777-.977,5.591-1.343.366,1.212,2.076,6.733,3.89,8.835s4.509,4.091,7.318,3.907a4.719,4.719,0,0,0,4.527-5.364c-.663-3.934-7.161-6.978-10.685-7.518-.192,0-2.172-.1-3.611-.122.82-.157,1.675-.331,2.46-.462,2.974-.5,5.73-.768,8.173-.994,1.387-.113,2.617-.192,3.82-.253.977,1,4.954,5.006,7.484,6.018s5.887,1.544,8.295.087a4.71,4.71,0,0,0,1.544-6.847c-2.4-3.184-9.594-2.9-12.944-1.744-.288.1-4.649,2.2-4.605,2.25l.061.061c-1.134,0-2.346.087-3.681.174-2.451.166-5.233.384-8.207.82a82.942,82.942,0,0,0-9.594,1.867,61.056,61.056,0,0,0-10.336,3.594l-.131.07c.872-.776,3.218-3.053,3.375-3.245,2.268-2.747,5.024-9.385,2.87-12.743a4.71,4.71,0,0,0-6.978-.933c-2.207,1.744-2.861,5.146-2.8,7.806.07,3,2.9,8.853,3.123,9.315a82.862,82.862,0,0,0-9.69,5.486c-1.814,1.177-3.611,2.425-5.39,3.7.724-.706,1.369-1.334,1.448-1.43,2.268-2.747,5.024-9.385,2.878-12.743a4.727,4.727,0,0,0-6.978-.942c-2.207,1.744-2.861,5.155-2.8,7.85s2.372,7.736,3.009,9.054l-2.041,1.483c-3.245,2.39-6.472,4.78-9.716,7.03-1.143.794-2.294,1.535-3.445,2.276.645-.619,1.186-1.151,1.256-1.239,2.268-2.747,5.024-9.385,2.878-12.743a4.719,4.719,0,0,0-6.978-.933c-2.207,1.744-2.861,5.146-2.8,7.806s2.154,7.239,2.9,8.818c-1.2.733-2.407,1.457-3.6,2.111-.829.427-1.6.872-2.451,1.273l-2.486,1.177c-1.614.68-3.271,1.4-4.858,2.032-1.1.454-2.163.872-3.227,1.273,1.151-.785,3.358-2.346,3.489-2.5a18.316,18.316,0,0,0,4.832-7.85,5.378,5.378,0,0,0,.715-.759,4.719,4.719,0,0,0-1.02-6.978c-3.384-2.111-9.987.724-12.708,3.027-.157.131-1.744,1.8-2.713,2.861.48-.715.951-1.4,1.439-2.137.959-1.465,1.884-2.948,2.887-4.544.454-.785.872-1.579,1.378-2.381s.872-1.675,1.326-2.521c1-1.98,1.919-4.038,2.8-6.105,1.273.872,5.861,3.777,8.5,4.2s6.105.262,8.129-1.675a4.719,4.719,0,0,0,0-7.021c-3.027-2.617-9.987-.794-13.022,1.064-.183.113-2.215,1.692-3.314,2.617.523-1.265,1.047-2.521,1.526-3.812,1.4-3.733,2.686-7.545,3.995-11.339.4-1.16.811-2.32,1.221-3.489.454.305,5.826,3.908,8.783,4.361,2.617.436,6.105.253,8.12-1.683a4.719,4.719,0,0,0,0-6.978c-3.027-2.617-9.978-.794-13.022,1.064-.227.148-3.14,2.416-3.855,3.035.872-2.556,1.823-5.094,2.835-7.553a82.5,82.5,0,0,1,4.675-9.708c.209.14,5.8,3.925,8.827,4.431,2.617.427,6.105.253,8.12-1.683a4.71,4.71,0,0,0,.044-7.021c-3.018-2.617-9.978-.794-13.013,1.064-.235.148-3.375,2.617-3.907,3.079.1-.183.183-.384.3-.558a60.988,60.988,0,0,1,6.358-8.722c1.291-1.518,2.617-2.9,3.934-4.2.968.811,5.443,4.474,8.112,5.233s6.018.925,8.26-.776a4.727,4.727,0,0,0,.811-6.978c-2.713-2.913-9.83-1.884-13.083-.366-.174.078-1.858,1.116-3.079,1.884.6-.584,1.212-1.195,1.805-1.744,2.2-2.05,4.361-3.8,6.254-5.329,1.1-.872,2.1-1.622,3.053-2.32,1.369.3,6.89,1.439,9.594.872s5.765-1.954,6.978-4.5a4.71,4.71,0,0,0-2.486-6.559c-3.759-1.334-9.594,2.861-11.757,5.687-.183.244-2.669,4.4-2.617,4.413h.079c-.925.654-1.91,1.361-2.974,2.163-1.945,1.491-4.134,3.2-6.393,5.233a85.075,85.075,0,0,0-6.978,6.847,61.6,61.6,0,0,0-6.629,8.722.72.72,0,0,0-.061.113c.288-1.125.994-4.317,1.02-4.57.375-3.541-.986-10.6-4.631-12.211a4.719,4.719,0,0,0-6.324,3.053C530.857,244.328,532.183,247.529,533.7,249.71Z" transform="translate(-505.38 -222.067)"/>
          <path id="Path_156" data-name="Path 156" d="M606.97,293.778c0,.07,4.265-2.25,4.518-2.433,2.9-2.05,7.318-7.719,6.105-11.531a4.719,4.719,0,0,0-6.463-2.739c-2.617,1.108-4.117,4.213-4.762,6.794C605.644,286.9,606.97,293.769,606.97,293.778Z" transform="translate(-518.258 -229.04)"/>
        </g>
      </g>
      <g id="freepik--Charts--inject-2" transform="translate(555.457 133.847)">
        <rect id="Rectangle_45" data-name="Rectangle 45" width="11.103" height="71.844" transform="translate(15.019 0)" fill="none" stroke="#263238" stroke-linejoin="round" stroke-width="1"/>
        <rect id="Rectangle_46" data-name="Rectangle 46" width="11.103" height="28.739" transform="translate(30.702 43.104)" fill="none" stroke="#263238" stroke-linejoin="round" stroke-width="1"/>
        <rect id="Rectangle_47" data-name="Rectangle 47" width="11.103" height="48.983" transform="translate(46.375 22.861)" fill="none" stroke="#263238" stroke-linejoin="round" stroke-width="1"/>
        <rect id="Rectangle_48" data-name="Rectangle 48" width="11.103" height="14.365" transform="translate(62.049 57.478)" fill="none" stroke="#263238" stroke-linejoin="round" stroke-width="1"/>
        <line id="Line_116" data-name="Line 116" x1="7.187" transform="translate(0 1.308)" fill="none" stroke="#263238" stroke-linejoin="round" stroke-width="1"/>
        <line id="Line_117" data-name="Line 117" x1="7.187" transform="translate(0 13.039)" fill="none" stroke="#263238" stroke-linejoin="round" stroke-width="1"/>
        <line id="Line_118" data-name="Line 118" x1="7.187" transform="translate(0 24.779)" fill="none" stroke="#263238" stroke-linejoin="round" stroke-width="1"/>
        <line id="Line_119" data-name="Line 119" x1="7.187" transform="translate(0 36.511)" fill="none" stroke="#263238" stroke-linejoin="round" stroke-width="1"/>
        <line id="Line_120" data-name="Line 120" x1="7.187" transform="translate(0 48.25)" fill="none" stroke="#263238" stroke-linejoin="round" stroke-width="1"/>
        <line id="Line_121" data-name="Line 121" x1="7.187" transform="translate(0 59.99)" fill="none" stroke="#263238" stroke-linejoin="round" stroke-width="1"/>
        <line id="Line_122" data-name="Line 122" x1="7.187" transform="translate(0 71.722)" fill="none" stroke="#263238" stroke-linejoin="round" stroke-width="1"/>
        <circle id="Ellipse_6" data-name="Ellipse 6" cx="26.838" cy="26.838" r="26.838" transform="translate(13.371 87.631)" fill="none" stroke="#263238" stroke-linejoin="round" stroke-width="1"/>
        <path id="Path_157" data-name="Path 157" d="M681.33,247.88v26.829l24.954,10.623" transform="translate(-641.121 -160.241)" fill="none" stroke="#263238" stroke-linejoin="round" stroke-width="1"/>
        <line id="Line_123" data-name="Line 123" x2="18.011" y2="19.363" transform="translate(40.209 114.468)" fill="none" stroke="#263238" stroke-linejoin="round" stroke-width="1"/>
      </g>
      <g id="freepik--Gear--inject-2" transform="translate(272.296 145.099)">
        <path id="Path_158" data-name="Path 158" d="M435.576,261.389l21.9,3.018,5.233-23.087-20.322-6.55v-.183a55.587,55.587,0,0,0-4.361-21.727l15.307-14.566-14.766-18.517-17.043,11.339a55.5,55.5,0,0,0-20.68-10.466L399.1,160.3H375.4l-1.744,20.061A55.62,55.62,0,0,0,352.681,190.4L335.56,179.061l-14.784,18.482L335.761,211.8a55.611,55.611,0,0,0-4.841,22.032l-20.34,6.55,5.233,23.087,21.465-2.957a55.708,55.708,0,0,0,13.563,16.8l-7.85,20.846,21.343,10.275,11.4-19.189a55.953,55.953,0,0,0,21.081.14l11.557,19.45,21.334-10.275-7.85-20.759A55.926,55.926,0,0,0,435.576,261.389Zm-91.7-26.8a42.594,42.594,0,1,0,0-.009Z" transform="translate(-310.58 -160.3)" fill="none" stroke="#263238" stroke-linejoin="round" stroke-width="1"/>
      </g>
      <g id="freepik--Clock--inject-2" transform="translate(447.49 73.277)">
        <circle id="Ellipse_7" data-name="Ellipse 7" cx="26.637" cy="26.637" r="26.637" transform="translate(0 37.671) rotate(-45)" fill="none" stroke="#263238" stroke-linejoin="round" stroke-width="1"/>
        <circle id="Ellipse_8" data-name="Ellipse 8" cx="23.183" cy="23.183" r="23.183" transform="translate(14.484 14.483)" fill="none" stroke="#263238" stroke-linejoin="round" stroke-width="1"/>
        <path id="Path_159" data-name="Path 159" d="M545.653,125.742l7.047-6.358L539.53,107.4" transform="translate(-515.033 -81.718)" fill="none" stroke="#263238" stroke-linejoin="round" stroke-width="1"/>
      </g>
      <g id="freepik--Arrows--inject-2" transform="translate(61.309 49.005)">
        <path id="Path_160" data-name="Path 160" d="M455.591,123.024A142.571,142.571,0,0,0,354.415,81.332c-2.617,0-5.233.087-7.893.227L343.9,70.36l-27.038,38.77,41.456,22.747-2.085-8.931a101.813,101.813,0,1,1,.131,203.625l-1.919-.017H68.68V368.14H357.119a143.469,143.469,0,0,0,98.472-245.09Z" transform="translate(-68.68 -52.712)" fill="#d71920" stroke="#263238" stroke-linecap="round" stroke-linejoin="round" stroke-width="1"/>
        <path id="Path_161" data-name="Path 161" d="M607.237,382.273,572.053,350.69v10.789H518.578q-2.765,3.122-5.7,6.105a161.175,161.175,0,0,1-51.059,35.272l-.174.174H572.053v10.8Z" transform="translate(-118.898 -88.537)" fill="#263238" stroke="#263238" stroke-linecap="round" stroke-linejoin="round" stroke-width="1"/>
        <path id="Path_162" data-name="Path 162" d="M273.457,226.753a101.743,101.743,0,0,1,76.981-98.559l-23.026-13.955L348.3,86.93C282.545,99.481,232.69,157.4,232.69,226.753a141.707,141.707,0,0,0,32.917,90.936h64.212a101.682,101.682,0,0,1-56.362-90.936Z" transform="translate(-89.639 -54.83)" fill="#263238" stroke="#263238" stroke-linecap="round" stroke-linejoin="round" stroke-width="1"/>
        <path id="Path_163" data-name="Path 163" d="M606.565,106.169A63.043,63.043,0,0,0,483.75,94.333a147.4,147.4,0,0,1,16.912,11.5,43.863,43.863,0,1,1,61.1,47.4l-4.1-8.862L546.1,170.206l27.169,7.92-3.489-7.475A63.052,63.052,0,0,0,606.565,106.169Z" transform="translate(-121.723 -50.127)" fill="#263238"/>
      </g>
      <g id="freepik--Box--inject-2" transform="translate(558.597 309.187)">
        <circle id="Ellipse_9" data-name="Ellipse 9" cx="36.467" cy="36.467" r="36.467" fill="#263238" stroke="#263238" stroke-linecap="round" stroke-linejoin="round" stroke-width="1"/>
        <path id="Path_164" data-name="Path 164" d="M681.91,406.486l-21.02-4.422V378.61l21.02,4.422Z" transform="translate(-641.649 -352.287)" fill="#fff" stroke="#263238" stroke-linecap="round" stroke-linejoin="round" stroke-width="1"/>
        <path id="Path_165" data-name="Path 165" d="M703.885,379.23l3.812,8.661-4.187-1.151Z" transform="translate(-647.096 -352.366)" fill="#fff" stroke="#263238" stroke-linecap="round" stroke-linejoin="round" stroke-width="1"/>
        <path id="Path_166" data-name="Path 166" d="M684.99,383.111l16.528-3.881v21.6l-16.528,5.73Z" transform="translate(-644.729 -352.366)" fill="#fff" stroke="#263238" stroke-linecap="round" stroke-linejoin="round" stroke-width="1"/>
        <path id="Path_167" data-name="Path 167" d="M698.438,378.477l-19.18-5.137-18.369,4.6,21.02,4.422Z" transform="translate(-641.649 -351.613)" fill="#fff" stroke="#263238" stroke-linecap="round" stroke-linejoin="round" stroke-width="1"/>
        <path id="Path_168" data-name="Path 168" d="M659.932,378.61l-6.542,11.5,21.709,4.762,5.852-11.845Z" transform="translate(-640.691 -352.287)" fill="#fff" stroke="#263238" stroke-linecap="round" stroke-linejoin="round" stroke-width="1"/>
        <line id="Line_124" data-name="Line 124" y2="8.146" transform="translate(37.61 21.727)" fill="#129996" stroke="#263238" stroke-linecap="round" stroke-linejoin="round" stroke-width="1"/>
        <line id="Line_125" data-name="Line 125" x2="6.062" y2="5.338" transform="translate(18.456 17.008)" fill="none" stroke="#fff" stroke-linecap="round" stroke-linejoin="round" stroke-width="1"/>
        <line id="Line_126" data-name="Line 126" x1="6.062" y2="5.338" transform="translate(51.504 17.008)" fill="none" stroke="#fff" stroke-linecap="round" stroke-linejoin="round" stroke-width="1"/>
        <line id="Line_127" data-name="Line 127" y2="8.364" transform="translate(37.697 10.318)" fill="none" stroke="#fff" stroke-linecap="round" stroke-linejoin="round" stroke-width="1"/>
      </g>
      <g id="freepik--character-2--inject-2" transform="translate(275.371 219.14)">
        <path id="Path_169" data-name="Path 169" d="M362.112,246.463s-7.074-3.122-12.054.41-4.16,5.408-4.16,5.408-4.361-2.913-6.446-.419.419,3.742.209,4.57-2.9.628-2.285,2.494a5.96,5.96,0,0,0,2.913,2.913s-1.666,1.666-.209,2.9,2.076,2.085,1.666,2.7-2.294.872-.872,2.085,3.951,1.448,3.951,0-.872-2.294,0-3.541,3.375-2.617,2.931-1.2,2.887,8.722,2.887,8.722-.584-.14-2.573,1.91-.541,2.87-.959,3.489S344.2,278.7,344,280.157a5.006,5.006,0,0,0,.2,2.7c.209.628,22.032,2.294,23.489,2.085s4.78-.628,5.4-1.666-.829-4.57-1.657-5.4,1.038-2.085.41-3.532-5.085-3.428-5.085-3.428A13.509,13.509,0,0,0,368.5,268.1c.209-.872-2.617-3.07-2.617-3.07s4.719-3.375,4.091-7.946-2.076-6.027-2.076-6.027S365.645,246.045,362.112,246.463Z" transform="translate(-317.068 -245.189)" fill="#263238" stroke="#263238" stroke-linecap="round" stroke-linejoin="round" stroke-width="1"/>
        <path id="Path_170" data-name="Path 170" d="M323.093,316.672c4.518-3.489,14.06-19.346,14.06-19.346s1.151,8.094,2.495,11.958,3.157,6.393,2.7,10.842c0,0-.044-.689-.044-.672l24.483.715c-.75-1.352-1.23-1.6-1.343-2.189-.4-2.085,1.744-6.707,1.744-8.818s1.631-6.105,1.631-6.105,7.056,15.647,8.678,16.964,6.158,2.05,5.887-2.861-8.5-23.864-9.952-27.161-3.262-5.582-6.76-5.233-4.309.942-6.69,1.082-1.334-11.339-1.334-11.339a8.722,8.722,0,0,1-8.644,1.326s.611,6.01-.41,7.893-1.544,2.477-3.986,1.631-6.254-3.733-8.582-2.617-18.665,28.286-19.947,30.571c-.872,1.535-3.122,5.469-2.442,6.524Z" transform="translate(-314.159 -248.936)" fill="#fff" stroke="#263238" stroke-linecap="round" stroke-linejoin="round" stroke-width="1"/>
        <path id="Path_171" data-name="Path 171" d="M346.424,326.712a3.389,3.389,0,0,1,.044-.672h-.087S346.424,326.72,346.424,326.712Z" transform="translate(-318.231 -255.522)" fill="#129996" stroke="#263238" stroke-linecap="round" stroke-linejoin="round" stroke-width="1"/>
        <path id="Path_172" data-name="Path 172" d="M337.049,283.873c-2.329,1.108-18.683,28.321-19.965,30.641-.872,1.535-3.122,5.469-2.442,6.524l8.452-3.2c4.518-3.489,14.06-19.346,14.06-19.346s1.151,8.094,2.495,11.958c1.273,3.663,2.965,6.105,2.747,10.17l24.422.715c-.75-1.352-1.23-1.6-1.343-2.189-.4-2.085,1.744-6.707,1.744-8.818s1.631-6.105,1.631-6.105,7.056,15.647,8.678,16.964,6.158,2.05,5.887-2.861-8.5-23.864-9.952-27.161-3.262-5.582-6.76-5.233a28.41,28.41,0,0,0-3.707.6l-10.144,12.342-7.213-12.333C343.2,285.635,339.36,282.756,337.049,283.873Z" transform="translate(-314.159 -250.101)" fill="#d71920" stroke="#263238" stroke-linecap="round" stroke-linejoin="round" stroke-width="1"/>
        <path id="Path_173" data-name="Path 173" d="M344.8,324.65s-12.917,11.156-13.205,21.674c-.1,3.646.593,11.792,6.812,12.647s33.85,0,33.85,0,2.146-.645,3.436-7.937-8.155-25.957-8.155-25.957Z" transform="translate(-316.341 -255.344)" fill="#263238" stroke="#263238" stroke-linecap="round" stroke-linejoin="round" stroke-width="1"/>
        <path id="Path_174" data-name="Path 174" d="M356.913,329.734a32.659,32.659,0,0,1-2.7,3.07c-.358.14-.785,1.282-1.57,2.992s-.576,1.858.358,1.43,1.849-2.355,1.849-2.355l1.788-1.143S358.413,329.237,356.913,329.734Z" transform="translate(-318.969 -255.989)" fill="#fff" stroke="#263238" stroke-linecap="round" stroke-linejoin="round" stroke-width="1"/>
        <path id="Path_175" data-name="Path 175" d="M381.636,320.58a19.015,19.015,0,0,1-7.335,5.233c-5.129,2.25-10.1,1.6-12.909,1.744s-3.227-.506-4.422,1.744-.131,8.417.454,8.809.645-2.442.645-2.442.515,2.73,1.334,2.782,1.073-2.329,1.073-2.329.724,1.683,1.387,1.457.532-2.023.532-2.023.8,1.064,1.2.488-.558-4.108-.558-4.108,3.637.593,4.963.14a4.422,4.422,0,0,0,2.041-1.491,84.271,84.271,0,0,0,10.632-.637c4.021-.654,9.594-4.841,8.3-7.422s-5.556-3.175-5.556-3.175" transform="translate(-319.515 -254.667)" fill="#fff" stroke="#263238" stroke-linecap="round" stroke-linejoin="round" stroke-width="1"/>
        <path id="Path_176" data-name="Path 176" d="M363.134,337.163s-1.326-3.785-.8-5.3" transform="translate(-320.254 -256.265)" fill="none" stroke="#263238" stroke-linecap="round" stroke-linejoin="round" stroke-width="1"/>
        <path id="Path_177" data-name="Path 177" d="M360.966,337.721a24.519,24.519,0,0,1-.706-5.931" transform="translate(-320.004 -256.257)" fill="none" stroke="#263238" stroke-linecap="round" stroke-linejoin="round" stroke-width="1"/>
        <path id="Path_178" data-name="Path 178" d="M358.256,337.351s-.654-4.021-.218-4.911" transform="translate(-319.701 -256.34)" fill="none" stroke="#263238" stroke-linecap="round" stroke-linejoin="round" stroke-width="1"/>
        <path id="Path_179" data-name="Path 179" d="M384.782,320.581a16.2,16.2,0,0,1-3.742,3.3,8.722,8.722,0,0,1,3.262,5.983c3.969-.872,9.071-4.849,7.85-7.327s-5.556-3.175-5.556-3.175" transform="translate(-322.66 -254.668)" fill="#d71920" stroke="#263238" stroke-linecap="round" stroke-linejoin="round" stroke-width="1"/>
        <path id="Path_180" data-name="Path 180" d="M339.1,310.761a16.362,16.362,0,0,0,2.957-1.029c1.518-.7,2.617-2.215,3.044-1.631s.122,1.648-.759,2.4a24.992,24.992,0,0,1-3.489,2.041S338.113,312,339.1,310.761Z" transform="translate(-317.273 -253.212)" fill="#fff" stroke="#263238" stroke-linecap="round" stroke-linejoin="round" stroke-width="1"/>
        <path id="Path_181" data-name="Path 181" d="M329.535,316.711s3.489-9.245,5.068-9.272,9.088,1.3,8.722,2.05a2.128,2.128,0,0,1-2.154.942,37.236,37.236,0,0,1-4.256-.977l-.986,1.239s3.489.994,4,1.247,2.617,2.285,2.076,3.088-.733.445-.733.445a2.12,2.12,0,0,1,0,1.43c-.305.637-.628.488-.628.488h0a1.09,1.09,0,0,1-1.465.872c-.776-.305-.785-1.788-1.744-1.666a2.259,2.259,0,0,1-1.256-.052,33.146,33.146,0,0,1-3.28,2.765,6,6,0,0,1-3.061.872s-6.393,5.39-11.81,6.062c-6.027.759-3.977-5.73-.968-8.722S329.535,316.711,329.535,316.711Z" transform="translate(-314.111 -253.145)" fill="#fff" stroke="#263238" stroke-linecap="round" stroke-linejoin="round" stroke-width="1"/>
        <path id="Path_182" data-name="Path 182" d="M344.512,316.214a8.375,8.375,0,0,0-1.9-2.25,18.944,18.944,0,0,0-3.2-.724" transform="translate(-317.34 -253.886)" fill="none" stroke="#263238" stroke-linecap="round" stroke-linejoin="round" stroke-width="1"/>
        <path id="Path_183" data-name="Path 183" d="M343.823,318.419s-1.744-2.617-2.329-2.617a23.216,23.216,0,0,1-2.364-.323" transform="translate(-317.304 -254.172)" fill="none" stroke="#263238" stroke-linecap="round" stroke-linejoin="round" stroke-width="1"/>
        <path id="Path_184" data-name="Path 184" d="M319.465,322.265a9.219,9.219,0,0,1,2.617-5.015c-2.024.078-3.969.488-5.059,1.587-3.009,3.027-5.059,9.516.968,8.722a14.136,14.136,0,0,0,3.611-1.02,5,5,0,0,1-2.137-4.274Z" transform="translate(-314.106 -254.398)" fill="#d71920" stroke="#263238" stroke-linecap="round" stroke-linejoin="round" stroke-width="1"/>
        <path id="Path_185" data-name="Path 185" d="M349.138,267.491s-1.308-.6-1.308.977.235,2.451,1.579,3.323.236-5.451.236-5.451Z" transform="translate(-318.416 -247.892)" fill="#fff" stroke="#263238" stroke-linecap="round" stroke-linejoin="round" stroke-width="1"/>
        <path id="Path_186" data-name="Path 186" d="M357.547,254.942s-2.058.488-2.076,2.058.209,2.1-.986,2.617-1.849.872-1.666,1.989.672,1.457-.872,1.744-1.413-.759-1.744.724-.384,1.919-.942,2.006.131,4.963,1.474,7.85,4.492,7.213,6.385,7.466,4.361-2.032,6.018-4c1.526-1.744,3.777-7.187,3.777-7.187l.48-.515s.872,0,1.082-1.177c0,0-.166-1.823-1.09-2.242a4.509,4.509,0,0,1-1.936-2.233c-.078-.419.384-1.064-.235-1.387s-1.666-.567-1.971-1.518.741-2.4-.488-2.9-1.867-.113-2.032-1.082.366-2.058-.558-2.468A4.427,4.427,0,0,0,357.547,254.942Z" transform="translate(-318.574 -246.385)" fill="#fff" stroke="#263238" stroke-linecap="round" stroke-linejoin="round" stroke-width="1"/>
        <path id="Path_187" data-name="Path 187" d="M357.3,270.23a4.814,4.814,0,0,1-.078,3.079c-.628,1.343,1.422,1.343,1.823.314" transform="translate(-319.601 -248.39)" fill="none" stroke="#263238" stroke-linecap="round" stroke-linejoin="round" stroke-width="1"/>
        <path id="Path_188" data-name="Path 188" d="M368.682,268.007s1.657-2.207,2.294-1.422.942,3.873,0,4.972-2.686.48-2.686.48" transform="translate(-321.031 -247.902)" fill="#fff" stroke="#263238" stroke-linecap="round" stroke-linejoin="round" stroke-width="1"/>
        <path id="Path_189" data-name="Path 189" d="M355.49,269.466c.148.872,0,1.614-.384,1.675s-.759-.593-.872-1.457,0-1.614.384-1.675S355.342,268.6,355.49,269.466Z" transform="translate(-319.229 -248.105)" fill="#263238"/>
        <path id="Path_190" data-name="Path 190" d="M362.81,269.547c0,.872-.305,1.587-.663,1.587s-.645-.724-.637-1.6.305-1.587.672-1.579S362.81,268.675,362.81,269.547Z" transform="translate(-320.164 -248.099)" fill="#263238"/>
        <path id="Path_191" data-name="Path 191" d="M356.1,277.32s1.343,1.8,5.233,0" transform="translate(-319.473 -249.296)" fill="none" stroke="#263238" stroke-linecap="round" stroke-linejoin="round" stroke-width="1"/>
        <path id="Path_192" data-name="Path 192" d="M361.035,343.278a6.577,6.577,0,0,0-2.965,1.221c-4,2.922-2.974,9.542-3.114,13.955q-.262,8.26-.532,16.511c-.262,8.094-.384,16.223-.872,24.308-.4,6.193-3.149,8.818-1.814,15.412s4.788,5.137,6.646-.942.305-10.894.087-13.572c-.174-2.085,9.4-33.693,11.975-47.971C371.362,346.836,365.875,342.536,361.035,343.278Z" transform="translate(-318.869 -257.714)" fill="#263238" stroke="#263238" stroke-linecap="round" stroke-linejoin="round" stroke-width="1"/>
        <path id="Path_193" data-name="Path 193" d="M359.155,418.248a.706.706,0,0,0-.506.366c-.925,1.544-4.012,4.012-5.408,1.544s0-8.338,0-8.338l-.4.419c-.872,3.593-2.128,6.3-1.143,11.182,1.326,6.585,4.788,5.137,6.646-.942A20.445,20.445,0,0,0,359.155,418.248Z" transform="translate(-318.864 -266.484)" fill="#d71920" stroke="#263238" stroke-linecap="round" stroke-linejoin="round" stroke-width="1"/>
        <path id="Path_194" data-name="Path 194" d="M342.7,342.719a6.7,6.7,0,0,1,3.14.654c4.474,2.137,4.684,8.827,5.626,13.083q1.744,8.068,3.567,16.136c1.744,7.9,3.375,15.865,5.382,23.715,1.535,6.018,3.6,10.737,3.489,17.444s-3.768,5.948-6.707.305-1.195-13.3-1.474-15.979c-.218-2.076-15.464-31.4-20.628-44.962C333.213,348.127,337.809,342.885,342.7,342.719Z" transform="translate(-316.734 -257.653)" fill="#263238" stroke="#263238" stroke-linecap="round" stroke-linejoin="round" stroke-width="1"/>
        <path id="Path_195" data-name="Path 195" d="M366.359,416.43c0,.174-.052.645-.148,1.893-.148,2.006-1.387,4.317-4.012,3.55s-3.393-6.332-3.393-6.332l-.235.5a17.444,17.444,0,0,0,1.744,7.37c2.939,5.643,6.611,6.419,6.707-.305a31.643,31.643,0,0,0-.253-4.361c-.1-.619-.174-1.169-.236-1.587A5.8,5.8,0,0,1,366.359,416.43Z" transform="translate(-319.789 -266.959)" fill="#d71920" stroke="#263238" stroke-linecap="round" stroke-linejoin="round" stroke-width="1"/>
        <rect id="Rectangle_49" data-name="Rectangle 49" width="42.032" height="26.114" transform="translate(13.505 58.988)" fill="#bfbfbf" stroke="#263238" stroke-linecap="round" stroke-linejoin="round" stroke-width="1"/>
        <rect id="Rectangle_50" data-name="Rectangle 50" width="42.032" height="1.509" transform="translate(13.505 84.5)" fill="#bfbfbf" stroke="#263238" stroke-linecap="round" stroke-linejoin="round" stroke-width="1"/>
        <path id="Path_196" data-name="Path 196" d="M352.45,266.791a3.288,3.288,0,0,1,2.843-.471" transform="translate(-319.006 -247.872)" fill="none" stroke="#263238" stroke-linecap="round" stroke-linejoin="round" stroke-width="1"/>
        <path id="Path_197" data-name="Path 197" d="M360.14,266.062s2.451-.4,3.55,1.02" transform="translate(-319.989 -247.85)" fill="none" stroke="#263238" stroke-linecap="round" stroke-linejoin="round" stroke-width="1"/>
      </g>
      <g id="freepik--character-1--inject-2" transform="translate(67.246 119.035)">
        <path id="Path_198" data-name="Path 198" d="M124.079,198.21l-3.349,3.253.392,6.306,5.626-7Z" transform="translate(-81.269 -139.081)" fill="#fff" stroke="#263238" stroke-linecap="round" stroke-linejoin="round" stroke-width="1"/>
        <path id="Path_199" data-name="Path 199" d="M116.238,139.56s2.416,4.719,1.954,7.135-.462,4.605.349,5.87,2.416,1.954,1.6,2.878a9.673,9.673,0,0,1-2.416,1.744s-.689,3.105-1.265,5.059-.462,2.3-2.529,2.529a17.025,17.025,0,0,1-3.227.122,127.762,127.762,0,0,1-1.6-13.467A11.768,11.768,0,0,1,116.238,139.56Z" transform="translate(-79.778 -131.586)" fill="#fff" stroke="#263238" stroke-linecap="round" stroke-linejoin="round" stroke-width="1"/>
        <path id="Path_200" data-name="Path 200" d="M118.166,152.013c0,.785-.209,1.413-.462,1.413s-.454-.628-.454-1.413.209-1.413.454-1.413S118.166,151.237,118.166,152.013Z" transform="translate(-80.824 -132.996)" fill="#263238"/>
        <path id="Path_201" data-name="Path 201" d="M116.1,149.07s1.744-2.774,2.992-1.387" transform="translate(-80.677 -132.574)" fill="none" stroke="#263238" stroke-linecap="round" stroke-linejoin="round" stroke-width="1"/>
        <path id="Path_202" data-name="Path 202" d="M118,162.142a2.974,2.974,0,0,1-2.024-1.012" transform="translate(-80.662 -134.342)" fill="none" stroke="#263238" stroke-linecap="round" stroke-linejoin="round" stroke-width="1"/>
        <path id="Path_203" data-name="Path 203" d="M137.632,182.988l15.1,6.245a1.151,1.151,0,0,1,.488,1.744l-19.189,25.974a1.16,1.16,0,0,1-1.544.288L119.507,209a1.073,1.073,0,0,1-.305-1.518l17.069-24.1A1.16,1.16,0,0,1,137.632,182.988Z" transform="translate(-81.049 -137.125)" fill="#fff" stroke="#263238" stroke-linecap="round" stroke-linejoin="round" stroke-width="1"/>
        <path id="Path_204" data-name="Path 204" d="M137.359,184.76l14.793,6.114-18.36,24.875L121.11,207.7Z" transform="translate(-81.318 -137.362)" fill="#fff" stroke="#263238" stroke-linecap="round" stroke-linejoin="round" stroke-width="1"/>
        <path id="Path_205" data-name="Path 205" d="M124.12,198.3s2.268-2.861,2.861-3.349,3.846-1.971,4.44-2.765.785,1.387-.3,2.076a25.062,25.062,0,0,0-2.268,1.675,5.7,5.7,0,0,1-1.675,2.66,4.161,4.161,0,0,1-2.276.872" transform="translate(-81.702 -138.289)" fill="#fff" stroke="#263238" stroke-linecap="round" stroke-linejoin="round" stroke-width="1"/>
        <rect id="Rectangle_51" data-name="Rectangle 51" width="0.89" height="7.457" transform="translate(56.949 52.374) rotate(-65.48)" fill="#d71920"/>
        <path id="Path_206" data-name="Path 206" d="M142.4,194.31l-3.724,5.172,4.78,2.678,4.03-5.294Z" transform="translate(-83.563 -138.582)" fill="#d71920"/>
        <path id="Path_207" data-name="Path 207" d="M135.866,191.02l-7.876,11.2,1.928,1.082,7.955-11.2Z" transform="translate(-82.197 -138.162)" fill="#d71920"/>
        <path id="Path_208" data-name="Path 208" d="M91.73,223.07s-5.408,11.74-5.181,19.564,4.143,16.572,4.719,18.063,3.227,15.072,2.617,20.828-4.605,7.85-6.794,13.955-5.172,24.622-5.521,29.114-1.84,16.572-2.067,18.063-.235,3.105.8,3.105H97.748s1.151-.113.925-.8-2.617-1.744-4.832-3.794-6.105-4.605-6.332-6.332,1.5-9.2,3.341-13.467a44.484,44.484,0,0,1,4.771-8.085s8.513-15.072,10.58-27.85,6.219-33.824,6.219-33.824V224.684Z" transform="translate(-75.984 -142.258)" fill="#263238" stroke="#263238" stroke-linecap="round" stroke-linejoin="round" stroke-width="1"/>
        <path id="Path_209" data-name="Path 209" d="M93.923,356.132c-2.189-2.076-6.105-4.605-6.332-6.332-.148-1.134.541-4.745,1.561-8.295l-7.614-1.055c-.454,5.015-1.744,15.769-2,17.174s-.235,3.105.8,3.105H97.787s1.151-.113.925-.8S96.1,358.2,93.923,356.132Z" transform="translate(-75.988 -157.258)" fill="#fff" stroke="#263238" stroke-linecap="round" stroke-linejoin="round" stroke-width="1"/>
        <path id="Path_210" data-name="Path 210" d="M93.924,357.8c-1.43-1.352-3.576-2.9-4.972-4.291l-.811,2.259s-5.547-.393-8.077-.558c-.253,2.05-.454,3.6-.523,4.082-.235,1.5-.235,3.105.8,3.105H97.788s1.151-.113.925-.8S96.1,359.868,93.924,357.8Z" transform="translate(-75.989 -158.927)" fill="#fff" stroke="#263238" stroke-linecap="round" stroke-linejoin="round" stroke-width="1"/>
        <path id="Path_211" data-name="Path 211" d="M93.67,250.247l2.992,3.681s2.3,12.211,3.105,20.706.235,8.521-1.151,15.421-3.218,10.589-2.181,16.336,2.756,34.06,2.992,35.333-.331,3.567.933,4.021,20.349,0,20.349,0,1.387-1.491.576-2.181-7.265-2.791-10.144-5.067-4.108-3.079-4.361-4.466.872-21.421,2.974-29.707,4.492-22.782,6.105-30.143,3.227-16.345,2.076-33.144c-.305-4.413-1.265-6.323-1.265-7.135s-.235-8.626-.113-9.088-19.9-1.614-19.9-1.614" transform="translate(-77.811 -142.274)" fill="#263238" stroke="#263238" stroke-linecap="round" stroke-linejoin="round" stroke-width="1"/>
        <path id="Path_212" data-name="Path 212" d="M106.059,177.188s11.164,16.8,11.164,21.4,1.265,19.555-.349,20.244-11.845,1.151-15.761.7-8.05-1.273-9.088-2.538-1.544-1.648-2.006-6.489-2.826-16.275-2.939-22.677S96.168,174,99.387,174.693a30.389,30.389,0,0,1,6.672,2.495Z" transform="translate(-76.969 -136.07)" fill="#d71920" stroke="#263238" stroke-linecap="round" stroke-linejoin="round" stroke-width="1"/>
        <path id="Path_213" data-name="Path 213" d="M124.533,200.593a14.008,14.008,0,0,1,1.971-3.253c.811-.7,4.649-3.489,5.12-2.442s0,1.16-.7,1.509a22.567,22.567,0,0,0-2.913,2.913,12.533,12.533,0,0,1,2.442,1.038,2.512,2.512,0,0,1,.82,2.093c-.235.82-.471,2.329-1.047,2.564s-.933-.82-.933-.82a40.566,40.566,0,0,1-3.14,3.027,4.065,4.065,0,0,1-1.273.462s-20.724,12.691-22.233,13.5-3.489,1.4-4.3.576-7.641-29.515-8.225-32.272.113-8.722,5-8.6,6.629,4.361,7.44,7.667c.523,2.128,2.617,22.163,2.617,22.163l17.156-5.992Z" transform="translate(-77.335 -136.867)" fill="#fff" stroke="#263238" stroke-linecap="round" stroke-linejoin="round" stroke-width="1"/>
        <path id="Path_214" data-name="Path 214" d="M113.256,138.025s.462.794-2.477,5.661-3.358,7.082-2.146,10.091a9.481,9.481,0,0,1-1.073,9.019c-1.884,2.826-2.843,1.657-2.3,6.105s-3.785,5.861-6.228,5.626-5.233-4.893-7.492-3.489.419,5.73-1.962,6.978-9-1.186-10.118-4.082,1.221-4.928-.663-7.684-4.6-3.55-2.617-8.19,7.405-4.44,7.588-7.536.576-12.708,3.855-16.685,10.344-3.838,14.426-2.8S113.439,136.211,113.256,138.025Z" transform="translate(-75.487 -130.417)" fill="#263238" stroke="#263238" stroke-linecap="round" stroke-linejoin="round" stroke-width="1"/>
        <path id="Path_215" data-name="Path 215" d="M111.821,353.679c-2.878-2.3-4.108-3.079-4.361-4.466a70.762,70.762,0,0,1,.262-7.213H99c.558,7.518,1,14.261,1.116,14.828.227,1.265-.331,3.567.933,4.021s20.349,0,20.349,0,1.387-1.491.576-2.181S114.7,355.955,111.821,353.679Z" transform="translate(-78.492 -157.456)" fill="#fff" stroke="#263238" stroke-linecap="round" stroke-linejoin="round" stroke-width="1"/>
        <path id="Path_216" data-name="Path 216" d="M121.52,362.33s1.387-1.491.576-2.181-7.265-2.791-10.144-5.068c-1.108-.872-1.971-1.544-2.617-2.1-.07.174-.148.366-.227.611-.5,1.491-.872,2.852-.872,2.852l-8.216-.584c.1,1.361.183,2.25.218,2.451.227,1.265-.331,3.567.933,4.021S121.52,362.33,121.52,362.33Z" transform="translate(-78.622 -158.859)" fill="#fff" stroke="#263238" stroke-linecap="round" stroke-linejoin="round" stroke-width="1"/>
      </g>
      <g id="freepik--Documents--inject-2" transform="translate(117.741 41.35)">
        <path id="Path_217" data-name="Path 217" d="M172.064,87.036H143.02V49.4h22.424l6.62,5.8Z" transform="translate(-134.612 -42.379)" fill="none" stroke="#263238" stroke-linejoin="round" stroke-width="1"/>
        <path id="Path_218" data-name="Path 218" d="M168.73,49.4v6.14h6.62Z" transform="translate(-137.898 -42.379)" fill="none" stroke="#263238" stroke-linejoin="round" stroke-width="1"/>
        <line id="Line_128" data-name="Line 128" x2="18.412" transform="translate(13.258 18.011)" fill="none" stroke="#263238" stroke-linejoin="round" stroke-width="1"/>
        <line id="Line_129" data-name="Line 129" x2="18.412" transform="translate(13.258 22.695)" fill="none" stroke="#263238" stroke-linejoin="round" stroke-width="1"/>
        <line id="Line_130" data-name="Line 130" x2="18.412" transform="translate(13.258 27.387)" fill="none" stroke="#263238" stroke-linejoin="round" stroke-width="1"/>
        <line id="Line_131" data-name="Line 131" x2="18.412" transform="translate(13.258 32.071)" fill="none" stroke="#263238" stroke-linejoin="round" stroke-width="1"/>
        <line id="Line_132" data-name="Line 132" x2="18.412" transform="translate(13.258 36.755)" fill="none" stroke="#263238" stroke-linejoin="round" stroke-width="1"/>
        <path id="Path_219" data-name="Path 219" d="M208.194,103.246H179.15V65.61h22.424l6.62,5.809Z" transform="translate(-139.229 -44.45)" fill="none" stroke="#263238" stroke-linejoin="round" stroke-width="1"/>
        <path id="Path_220" data-name="Path 220" d="M204.86,65.61v6.14h6.62Z" transform="translate(-142.515 -44.45)" fill="none" stroke="#263238" stroke-linejoin="round" stroke-width="1"/>
        <line id="Line_133" data-name="Line 133" x2="18.412" transform="translate(44.77 32.15)" fill="none" stroke="#263238" stroke-linejoin="round" stroke-width="1"/>
        <line id="Line_134" data-name="Line 134" x2="18.412" transform="translate(44.77 36.842)" fill="none" stroke="#263238" stroke-linejoin="round" stroke-width="1"/>
        <line id="Line_135" data-name="Line 135" x2="18.412" transform="translate(44.77 41.526)" fill="none" stroke="#263238" stroke-linejoin="round" stroke-width="1"/>
        <line id="Line_136" data-name="Line 136" x2="18.412" transform="translate(44.77 46.209)" fill="none" stroke="#263238" stroke-linejoin="round" stroke-width="1"/>
        <line id="Line_137" data-name="Line 137" x2="18.412" transform="translate(44.77 50.893)" fill="none" stroke="#263238" stroke-linejoin="round" stroke-width="1"/>
        <path id="Path_221" data-name="Path 221" d="M172.064,135.676H143.02V98.04h22.424l6.62,5.8Z" transform="translate(-134.612 -48.595)" fill="none" stroke="#263238" stroke-linejoin="round" stroke-width="1"/>
        <path id="Path_222" data-name="Path 222" d="M168.73,98.04v6.132h6.62Z" transform="translate(-137.898 -48.595)" fill="none" stroke="#263238" stroke-linejoin="round" stroke-width="1"/>
        <line id="Line_138" data-name="Line 138" x2="18.412" transform="translate(13.258 60.435)" fill="none" stroke="#263238" stroke-linejoin="round" stroke-width="1"/>
        <line id="Line_139" data-name="Line 139" x2="18.412" transform="translate(13.258 65.119)" fill="none" stroke="#263238" stroke-linejoin="round" stroke-width="1"/>
        <line id="Line_140" data-name="Line 140" x2="18.412" transform="translate(13.258 69.803)" fill="none" stroke="#263238" stroke-linejoin="round" stroke-width="1"/>
        <line id="Line_141" data-name="Line 141" x2="18.412" transform="translate(13.258 74.486)" fill="none" stroke="#263238" stroke-linejoin="round" stroke-width="1"/>
        <line id="Line_142" data-name="Line 142" x2="18.412" transform="translate(13.258 79.179)" fill="none" stroke="#263238" stroke-linejoin="round" stroke-width="1"/>
        <rect id="Rectangle_52" data-name="Rectangle 52" width="75.995" height="96.204" rx="9.1" fill="none" stroke="#263238" stroke-linejoin="round" stroke-width="1"/>
        <line id="Line_143" data-name="Line 143" y2="27.239" transform="translate(12.848 96.684)" fill="none" stroke="#263238" stroke-linejoin="round" stroke-width="1"/>
        <circle id="Ellipse_10" data-name="Ellipse 10" cx="1.247" cy="1.247" r="1.247" transform="translate(11.6 123.923)" fill="#263238" stroke="#263238" stroke-linecap="round" stroke-linejoin="round" stroke-width="1"/>
      </g>
      <g id="freepik--Clipboard--inject-2" transform="translate(112.211 309.187)">
        <circle id="Ellipse_11" data-name="Ellipse 11" cx="36.467" cy="36.467" r="36.467" fill="#263238" stroke="#263238" stroke-linecap="round" stroke-linejoin="round" stroke-width="1"/>
        <rect id="Rectangle_53" data-name="Rectangle 53" width="33.449" height="43.602" transform="translate(20.785 14.897)" fill="#fff" stroke="#263238" stroke-linecap="round" stroke-linejoin="round" stroke-width="1"/>
        <rect id="Rectangle_54" data-name="Rectangle 54" width="30.082" height="39.214" transform="translate(22.477 17.095)" fill="none" stroke="#263238" stroke-linecap="round" stroke-linejoin="round" stroke-width="1"/>
        <path id="Path_223" data-name="Path 223" d="M173.494,362.774h-1.247V361.23h-6.262v1.544h-1.273a1.971,1.971,0,0,0-1.971,1.971v3.812h12.7v-3.812a1.971,1.971,0,0,0-1.945-1.971Z" transform="translate(-131.602 -350.066)" fill="#fff" stroke="#263238" stroke-linecap="round" stroke-linejoin="round" stroke-width="1"/>
        <rect id="Rectangle_55" data-name="Rectangle 55" width="5.32" height="5.32" transform="translate(24.823 26.262)" fill="#fff" stroke="#263238" stroke-linecap="round" stroke-linejoin="round" stroke-width="1"/>
        <rect id="Rectangle_56" data-name="Rectangle 56" width="5.32" height="5.32" transform="translate(24.823 35.717)" fill="#fff" stroke="#263238" stroke-linecap="round" stroke-linejoin="round" stroke-width="1"/>
        <rect id="Rectangle_57" data-name="Rectangle 57" width="5.32" height="5.32" transform="translate(24.823 45.172)" fill="#fff" stroke="#263238" stroke-linecap="round" stroke-linejoin="round" stroke-width="1"/>
        <line id="Line_144" data-name="Line 144" x2="16.354" transform="translate(32.699 28.626)" fill="none" stroke="#263238" stroke-linecap="round" stroke-linejoin="round" stroke-width="1"/>
        <line id="Line_145" data-name="Line 145" x2="16.354" transform="translate(32.699 38.866)" fill="none" stroke="#263238" stroke-linecap="round" stroke-linejoin="round" stroke-width="1"/>
        <line id="Line_146" data-name="Line 146" x2="16.354" transform="translate(32.699 48.521)" fill="none" stroke="#263238" stroke-linecap="round" stroke-linejoin="round" stroke-width="1"/>
        <path id="Path_224" data-name="Path 224" d="M157.26,379.926l1.177,1.884,4.23-4.78" transform="translate(-130.902 -352.085)" fill="none" stroke="#263238" stroke-linecap="round" stroke-linejoin="round" stroke-width="1"/>
        <path id="Path_225" data-name="Path 225" d="M157.26,390.9l1.177,1.884,4.23-4.78" transform="translate(-130.902 -353.487)" fill="none" stroke="#263238" stroke-linecap="round" stroke-linejoin="round" stroke-width="1"/>
        <path id="Path_226" data-name="Path 226" d="M157.26,401.864l1.177,1.884,4.23-4.788" transform="translate(-130.902 -354.887)" fill="none" stroke="#263238" stroke-linecap="round" stroke-linejoin="round" stroke-width="1"/>
      </g>
      <g id="freepik--light-bulb--inject-2" transform="translate(11 309.187)">
        <circle id="Ellipse_12" data-name="Ellipse 12" cx="36.467" cy="36.467" r="36.467" fill="#263238" stroke="#263238" stroke-linecap="round" stroke-linejoin="round" stroke-width="1"/>
        <path id="Path_227" data-name="Path 227" d="M57.177,399.5a3.489,3.489,0,0,0,.785-2.337l.174-1.082c.523-3.027,1.9-7.693,3.8-10.109a13.432,13.432,0,1,0-20.933.331c2.067,2.477,3.271,7.44,3.7,10.632v.227a3.489,3.489,0,0,0,.82,2.39" transform="translate(-14.439 -350.457)" fill="#fff" stroke="#263238" stroke-linecap="round" stroke-linejoin="round" stroke-width="1"/>
        <rect id="Rectangle_58" data-name="Rectangle 58" width="13.694" height="3.419" rx="1.4" transform="translate(30.318 49.053)" fill="#fff" stroke="#263238" stroke-linecap="round" stroke-linejoin="round" stroke-width="1"/>
        <rect id="Rectangle_59" data-name="Rectangle 59" width="13.694" height="3.419" rx="1.4" transform="translate(30.318 53.44)" fill="#fff" stroke="#263238" stroke-linecap="round" stroke-linejoin="round" stroke-width="1"/>
        <path id="Path_228" data-name="Path 228" d="M47.18,414.82c.663,2.024,2.922,3.489,5.608,3.489A5.75,5.75,0,0,0,58.4,414.82Z" transform="translate(-15.624 -356.914)" fill="#fff" stroke="#263238" stroke-linecap="round" stroke-linejoin="round" stroke-width="1"/>
        <line id="Line_147" data-name="Line 147" x2="5.486" transform="translate(15.752 27.867)" fill="none" stroke="#fff" stroke-linecap="round" stroke-linejoin="round" stroke-width="1"/>
        <line id="Line_148" data-name="Line 148" x2="3.873" y2="3.873" transform="translate(22.163 13.275)" fill="none" stroke="#fff" stroke-linecap="round" stroke-linejoin="round" stroke-width="1"/>
        <line id="Line_149" data-name="Line 149" x2="5.477" transform="translate(51.704 27.867)" fill="none" stroke="#fff" stroke-linecap="round" stroke-linejoin="round" stroke-width="1"/>
        <line id="Line_150" data-name="Line 150" y1="3.873" x2="3.873" transform="translate(47.308 13.824)" fill="none" stroke="#fff" stroke-linecap="round" stroke-linejoin="round" stroke-width="1"/>
        <line id="Line_151" data-name="Line 151" y2="5.041" transform="translate(36.798 7.265)" fill="none" stroke="#fff" stroke-linecap="round" stroke-linejoin="round" stroke-width="1"/>
      </g>
    </g>
  </g>
</svg>
