<svg xmlns="http://www.w3.org/2000/svg" width="586" height="521" viewBox="0 0 586 521">
  <g id="rah1" transform="translate(-1892 -2408)">
    <g id="bi2" transform="translate(676 702)">
      <rect id="Rectangle_95" data-name="Rectangle 95" width="586" height="521" transform="translate(1216 1706)" fill="#b8e0e0"/>
    </g>
    <g id="rah1-2" data-name="rah1" transform="translate(1991.682 2432.963)">
      <g id="freepik--Board--inject-2" transform="translate(110.356 108.062)">
        <rect id="Rectangle_39" data-name="Rectangle 39" width="242.792" height="162.126" fill="none" stroke="#000" stroke-linecap="round" stroke-linejoin="round" stroke-width="1" opacity="0.5"/>
        <rect id="Rectangle_40" data-name="Rectangle 40" width="236.274" height="157.778" transform="translate(3.259 2.178)" fill="none" stroke="#000" stroke-linecap="round" stroke-linejoin="round" stroke-width="1" opacity="0.5"/>
        <path id="Path_75" data-name="Path 75" d="M180.18,171.123s2.586,13.966,2.586,18.1v14.48s10.344.514,18.616,0,18.1-5.686,18.1-5.686-3.622-13.966-3.622-17.588S213.8,168,213.8,168Z" transform="translate(-148.316 -145.316)" fill="#fff" stroke="#000" stroke-linecap="round" stroke-linejoin="round" stroke-width="1" opacity="0.3"/>
        <path id="Path_76" data-name="Path 76" d="M180.218,287s-1.512,11.894-1.512,17.066-2.586,13.444-2.586,13.444,12.416,4.658,15.516,4.658,16.552-1.036,16.552-1.036l2.072-30.511S184.347,288.066,180.218,287Z" transform="translate(-147.326 -174.334)" fill="#fff" stroke="#000" stroke-linecap="round" stroke-linejoin="round" stroke-width="1" opacity="0.3"/>
        <path id="Path_77" data-name="Path 77" d="M257.47,199.052l6.2,28.446s7.758.522,16.038.522,22.238-7.758,22.238-7.758-6.722-13.452-6.722-17.066-2.072-13.966-2.072-13.966-21.172,6.722-24.31,7.236S257.47,199.052,257.47,199.052Z" transform="translate(-167.163 -150.493)" fill="#fff" stroke="#000" stroke-linecap="round" stroke-linejoin="round" stroke-width="1" opacity="0.3"/>
        <path id="Path_78" data-name="Path 78" d="M318.346,192s-1.512,18.616-1.512,20.681-.514,10.344-.514,10.344a146.426,146.426,0,0,0,16.03,1.558c5.686,0,15.516-.522,15.516-.522s-.514-18.1.514-19.66,1.558-9.83,1.558-9.83S320.433,192.491,318.346,192Z" transform="translate(-181.514 -151.168)" fill="#fff" stroke="#000" stroke-linecap="round" stroke-linejoin="round" stroke-width="1" opacity="0.3"/>
        <path id="Path_79" data-name="Path 79" d="M333.736,246.026v12.416c0,2.064-1.036,17.066-1.036,17.066s13.452.514,18.624,0,15.516-3.622,15.516-3.622l-1.558-16.545L364.254,244S339.43,247.584,333.736,246.026Z" transform="translate(-185.508 -163.848)" fill="#fff" stroke="#000" stroke-linecap="round" stroke-linejoin="round" stroke-width="1" opacity="0.3"/>
        <path id="Path_80" data-name="Path 80" d="M431.346,154.016l-11.894.514h-6.208v8.794c0,2.586-.514,10.858-.514,12.408s8.272,2.586,11.894,2.586h12.93l.514-25.339Z" transform="translate(-205.024 -141.653)" fill="#fff" stroke="#000" stroke-linecap="round" stroke-linejoin="round" stroke-width="1" opacity="0.3"/>
        <g id="Group_32" data-name="Group 32" transform="translate(196.326 68.22)" opacity="0.5">
          <line id="Line_12" data-name="Line 12" x2="22.238" fill="none" stroke="#000" stroke-linecap="round" stroke-linejoin="round" stroke-width="1"/>
          <line id="Line_13" data-name="Line 13" x2="22.238" transform="translate(0 5.172)" fill="none" stroke="#000" stroke-linecap="round" stroke-linejoin="round" stroke-width="1"/>
          <line id="Line_14" data-name="Line 14" x2="22.238" transform="translate(0 10.344)" fill="none" stroke="#000" stroke-linecap="round" stroke-linejoin="round" stroke-width="1"/>
          <line id="Line_15" data-name="Line 15" x2="22.238" transform="translate(0 15.516)" fill="none" stroke="#000" stroke-linecap="round" stroke-linejoin="round" stroke-width="1"/>
        </g>
        <g id="Group_33" data-name="Group 33" transform="translate(81.513 9.255)" opacity="0.5">
          <line id="Line_16" data-name="Line 16" x2="73.437" fill="none" stroke="#000" stroke-linecap="round" stroke-linejoin="round" stroke-width="1"/>
          <line id="Line_17" data-name="Line 17" x2="73.437" transform="translate(0 5.172)" fill="none" stroke="#000" stroke-linecap="round" stroke-linejoin="round" stroke-width="1"/>
        </g>
        <g id="Group_34" data-name="Group 34" transform="translate(156.5 122.005)" opacity="0.5">
          <line id="Line_18" data-name="Line 18" x2="22.246" fill="none" stroke="#000" stroke-linecap="round" stroke-linejoin="round" stroke-width="1"/>
          <line id="Line_19" data-name="Line 19" x2="22.246" transform="translate(0 5.172)" fill="none" stroke="#000" stroke-linecap="round" stroke-linejoin="round" stroke-width="1"/>
          <line id="Line_20" data-name="Line 20" x2="22.246" transform="translate(0 10.344)" fill="none" stroke="#000" stroke-linecap="round" stroke-linejoin="round" stroke-width="1"/>
          <line id="Line_21" data-name="Line 21" x2="22.246" transform="translate(0 15.516)" fill="none" stroke="#000" stroke-linecap="round" stroke-linejoin="round" stroke-width="1"/>
        </g>
        <g id="Group_35" data-name="Group 35" transform="translate(18.412 87.872)" opacity="0.5">
          <line id="Line_22" data-name="Line 22" x2="22.238" fill="none" stroke="#000" stroke-linecap="round" stroke-linejoin="round" stroke-width="1"/>
          <line id="Line_23" data-name="Line 23" x2="22.238" transform="translate(0 5.172)" fill="none" stroke="#000" stroke-linecap="round" stroke-linejoin="round" stroke-width="1"/>
          <line id="Line_24" data-name="Line 24" x2="22.238" transform="translate(0 10.344)" fill="none" stroke="#000" stroke-linecap="round" stroke-linejoin="round" stroke-width="1"/>
          <line id="Line_25" data-name="Line 25" x2="22.238" transform="translate(0 15.516)" fill="none" stroke="#000" stroke-linecap="round" stroke-linejoin="round" stroke-width="1"/>
        </g>
        <g id="Group_36" data-name="Group 36" transform="translate(175.124 22.707)" opacity="0.5">
          <line id="Line_26" data-name="Line 26" x2="22.238" fill="none" stroke="#000" stroke-linecap="round" stroke-linejoin="round" stroke-width="1"/>
          <line id="Line_27" data-name="Line 27" x2="22.238" transform="translate(0 5.172)" fill="none" stroke="#000" stroke-linecap="round" stroke-linejoin="round" stroke-width="1"/>
          <line id="Line_28" data-name="Line 28" x2="22.238" transform="translate(0 10.344)" fill="none" stroke="#000" stroke-linecap="round" stroke-linejoin="round" stroke-width="1"/>
          <line id="Line_29" data-name="Line 29" x2="22.238" transform="translate(0 15.516)" fill="none" stroke="#000" stroke-linecap="round" stroke-linejoin="round" stroke-width="1"/>
        </g>
        <path id="Path_81" data-name="Path 81" d="M246.883,230.8l-12.749,3.645,3.282,2.843c-5.966,3.924-18.6,10.647-26.866,3.819-11.085-9.157-8.1-17.074-7.97-17.391l-.983-.393-.975-.4c-.159.386-3.781,9.626,8.582,19.834a15.244,15.244,0,0,0,10,3.456c7.713,0,15.675-4.6,19.879-7.456l4.151,3.592Z" transform="translate(-153.151 -158.708)" opacity="0.5"/>
        <path id="Path_82" data-name="Path 82" d="M428.8,200.59l-3.682-12.28-6.752,9.822,3.75.885-3.894,14.011,2.042.567,3.917-14.095Z" transform="translate(-206.362 -150.268)" opacity="0.5"/>
        <path id="Path_83" data-name="Path 83" d="M206.216,173.178a3.108,3.108,0,1,0-3.1,3.108,3.108,3.108,0,0,0,3.1-3.108Z" transform="translate(-153.149 -145.82)" fill="#fff" stroke="#000" stroke-linecap="round" stroke-linejoin="round" stroke-width="1" opacity="0.3"/>
        <path id="Path_84" data-name="Path 84" d="M281.456,199.168a3.108,3.108,0,1,0-3.108,3.108A3.108,3.108,0,0,0,281.456,199.168Z" transform="translate(-171.496 -152.158)" fill="#129996" stroke="#000" stroke-linecap="round" stroke-linejoin="round" stroke-width="1" opacity="0.3"/>
        <circle id="Ellipse_1" data-name="Ellipse 1" cx="3.1" cy="3.1" r="3.1" transform="translate(150.821 39.259)" fill="#fff" stroke="#000" stroke-linecap="round" stroke-linejoin="round" stroke-width="1" opacity="0.3"/>
        <path id="Path_85" data-name="Path 85" d="M357.376,249.785a3.108,3.108,0,1,0-3.108,3.1,3.108,3.108,0,0,0,3.108-3.1Z" transform="translate(-190.01 -164.499)" fill="#fff" stroke="#000" stroke-linecap="round" stroke-linejoin="round" stroke-width="1" opacity="0.3"/>
        <path id="Path_86" data-name="Path 86" d="M206.216,293.558a3.108,3.108,0,1,0-3.1,3.108,3.108,3.108,0,0,0,3.1-3.108Z" transform="translate(-153.149 -175.175)" fill="#129996" stroke="#000" stroke-linecap="round" stroke-linejoin="round" stroke-width="1" opacity="0.3"/>
        <circle id="Ellipse_2" data-name="Ellipse 2" cx="3.1" cy="3.1" r="3.1" transform="translate(217.536 9.263)" fill="#129996" stroke="#000" stroke-linecap="round" stroke-linejoin="round" stroke-width="1" opacity="0.3"/>
      </g>
      <g id="freepik--Device--inject-2" transform="translate(253.359 257.78)">
        <rect id="Rectangle_41" data-name="Rectangle 41" width="108.008" height="79.04" transform="translate(0 0)" fill="#263238" stroke="#263238" stroke-linecap="round" stroke-linejoin="round" stroke-width="1"/>
        <rect id="Rectangle_42" data-name="Rectangle 42" width="97.588" height="71.418" transform="translate(5.21 3.811)" fill="#fff" stroke="#263238" stroke-linecap="round" stroke-linejoin="round" stroke-width="1" opacity="0.25"/>
        <rect id="Rectangle_43" data-name="Rectangle 43" width="19.373" height="15.493" transform="translate(45.187 76)" fill="#263238" stroke="#263238" stroke-linecap="round" stroke-linejoin="round" stroke-width="1"/>
        <line id="Line_30" data-name="Line 30" x2="91.32" transform="translate(8.106 14.563)" fill="none" stroke="#fff" stroke-linecap="round" stroke-linejoin="round" stroke-width="1"/>
        <line id="Line_31" data-name="Line 31" x2="21.8" transform="translate(9.217 31.72)" fill="none" stroke="#fff" stroke-linecap="round" stroke-linejoin="round" stroke-width="1"/>
        <line id="Line_32" data-name="Line 32" x2="12.386" transform="translate(22.843 37.807)" fill="none" stroke="#fff" stroke-linecap="round" stroke-linejoin="round" stroke-width="1"/>
        <line id="Line_33" data-name="Line 33" x2="11.894" transform="translate(9.217 37.807)" fill="none" stroke="#fff" stroke-linecap="round" stroke-linejoin="round" stroke-width="1"/>
        <line id="Line_34" data-name="Line 34" x2="21.059" transform="translate(29.535 43.894)" fill="none" stroke="#fff" stroke-linecap="round" stroke-linejoin="round" stroke-width="1"/>
        <line id="Line_35" data-name="Line 35" x2="17.588" transform="translate(9.217 43.894)" fill="none" stroke="#fff" stroke-linecap="round" stroke-linejoin="round" stroke-width="1"/>
        <line id="Line_36" data-name="Line 36" x2="12.635" transform="translate(9.217 49.981)" fill="none" stroke="#fff" stroke-linecap="round" stroke-linejoin="round" stroke-width="1"/>
        <line id="Line_37" data-name="Line 37" x2="13.868" transform="translate(21.361 56.076)" fill="none" stroke="#fff" stroke-linecap="round" stroke-linejoin="round" stroke-width="1"/>
        <line id="Line_38" data-name="Line 38" x2="8.673" transform="translate(9.217 56.076)" fill="none" stroke="#fff" stroke-linecap="round" stroke-linejoin="round" stroke-width="1"/>
        <line id="Line_39" data-name="Line 39" x2="6.193" transform="translate(57.029 62.163)" fill="none" stroke="#fff" stroke-linecap="round" stroke-linejoin="round" stroke-width="1"/>
        <line id="Line_40" data-name="Line 40" x2="34.926" transform="translate(18.39 62.163)" fill="none" stroke="#fff" stroke-linecap="round" stroke-linejoin="round" stroke-width="1"/>
        <line id="Line_41" data-name="Line 41" x2="6.442" transform="translate(9.217 62.163)" fill="none" stroke="#fff" stroke-linecap="round" stroke-linejoin="round" stroke-width="1"/>
      </g>
      <g id="freepik--Plants--inject-2" transform="translate(24.512 181.32)">
        <line id="Line_42" data-name="Line 42" x2="12.272" y2="117.589" transform="translate(16.414 50.29)" fill="none" stroke="#263238" stroke-linecap="round" stroke-linejoin="round" stroke-width="1"/>
        <line id="Line_43" data-name="Line 43" x1="6.253" y1="6.571" transform="translate(22.184 159.137)" fill="none" stroke="#263238" stroke-linecap="round" stroke-linejoin="round" stroke-width="1"/>
        <path id="Path_87" data-name="Path 87" d="M51.884,445.214a7.683,7.683,0,0,0-2.707-5.762c-1.747-1.55-10.911-5.414-11.788-2.185C36.451,440.783,45.843,447.679,51.884,445.214Z" transform="translate(-27.636 -283.929)" fill="#129996" stroke="#263238" stroke-linecap="round" stroke-linejoin="round" stroke-width="1"/>
        <line id="Line_44" data-name="Line 44" x1="8.734" y1="5.444" transform="translate(15.514 155.84)" fill="none" stroke="#263238" stroke-linecap="round" stroke-linejoin="round" stroke-width="1"/>
        <line id="Line_45" data-name="Line 45" x1="6.163" y1="5.55" transform="translate(18.032 119.318)" fill="none" stroke="#263238" stroke-linecap="round" stroke-linejoin="round" stroke-width="1"/>
        <path id="Path_88" data-name="Path 88" d="M46.389,392.556a7.675,7.675,0,0,0-2.7-5.754c-1.739-1.558-10.911-5.414-11.781-2.185C30.963,388.125,40.347,395.029,46.389,392.556Z" transform="translate(-26.3 -271.09)" fill="#129996" stroke="#263238" stroke-linecap="round" stroke-linejoin="round" stroke-width="1"/>
        <line id="Line_46" data-name="Line 46" x1="8.726" y1="5.437" transform="translate(11.363 116.029)" fill="none" stroke="#263238" stroke-linecap="round" stroke-linejoin="round" stroke-width="1"/>
        <line id="Line_47" data-name="Line 47" x1="6.178" y1="6.578" transform="translate(19.734 135.636)" fill="none" stroke="#263238" stroke-linecap="round" stroke-linejoin="round" stroke-width="1"/>
        <path id="Path_89" data-name="Path 89" d="M48.646,414.136a7.7,7.7,0,0,0-2.707-5.754c-1.739-1.558-10.911-5.414-11.781-2.185C33.213,409.7,42.6,416.608,48.646,414.136Z" transform="translate(-26.848 -276.352)" fill="#129996" stroke="#263238" stroke-linecap="round" stroke-linejoin="round" stroke-width="1"/>
        <line id="Line_48" data-name="Line 48" x1="8.734" y1="5.437" transform="translate(13.064 132.347)" fill="none" stroke="#263238" stroke-linecap="round" stroke-linejoin="round" stroke-width="1"/>
        <line id="Line_49" data-name="Line 49" x1="6.185" y1="6.299" transform="translate(15.265 92.815)" fill="none" stroke="#263238" stroke-linecap="round" stroke-linejoin="round" stroke-width="1"/>
        <path id="Path_90" data-name="Path 90" d="M42.736,357.506a7.72,7.72,0,0,0-2.707-5.762c-1.739-1.55-10.911-5.406-11.781-2.178C27.288,353.075,36.687,359.971,42.736,357.506Z" transform="translate(-25.407 -262.543)" fill="#129996" stroke="#263238" stroke-linecap="round" stroke-linejoin="round" stroke-width="1"/>
        <line id="Line_50" data-name="Line 50" x1="8.734" y1="5.437" transform="translate(8.596 89.526)" fill="none" stroke="#263238" stroke-linecap="round" stroke-linejoin="round" stroke-width="1"/>
        <line id="Line_51" data-name="Line 51" x1="5.989" y1="4.582" transform="translate(12.482 66.191)" fill="none" stroke="#263238" stroke-linecap="round" stroke-linejoin="round" stroke-width="1"/>
        <path id="Path_91" data-name="Path 91" d="M39.059,322.3a7.675,7.675,0,0,0-2.7-5.754c-1.747-1.558-10.911-5.414-11.781-2.185C23.633,317.872,33.017,324.768,39.059,322.3Z" transform="translate(-24.512 -253.957)" fill="#129996" stroke="#263238" stroke-linecap="round" stroke-linejoin="round" stroke-width="1"/>
        <line id="Line_52" data-name="Line 52" x1="8.726" y1="5.437" transform="translate(5.821 62.902)" fill="none" stroke="#263238" stroke-linecap="round" stroke-linejoin="round" stroke-width="1"/>
        <line id="Line_53" data-name="Line 53" y1="8.416" x2="5.164" transform="translate(27.832 148.233)" fill="none" stroke="#263238" stroke-linecap="round" stroke-linejoin="round" stroke-width="1"/>
        <path id="Path_92" data-name="Path 92" d="M66.014,430.515a7.69,7.69,0,0,1,1.467-6.185c1.384-1.883,9.558-7.561,11.078-4.575C80.2,423,72.441,431.687,66.014,430.515Z" transform="translate(-34.598 -279.756)" fill="#129996" stroke="#263238" stroke-linecap="round" stroke-linejoin="round" stroke-width="1"/>
        <line id="Line_54" data-name="Line 54" y1="5.762" x2="6.147" transform="translate(31.416 144.997)" fill="none" stroke="#263238" stroke-linecap="round" stroke-linejoin="round" stroke-width="1"/>
        <line id="Line_55" data-name="Line 55" y1="8.416" x2="5.164" transform="translate(23.348 105.299)" fill="none" stroke="#263238" stroke-linecap="round" stroke-linejoin="round" stroke-width="1"/>
        <path id="Path_93" data-name="Path 93" d="M60.092,374.007a7.682,7.682,0,0,1,1.452-6.193c1.384-1.883,7.781-6.594,9.3-3.614C72.493,367.436,66.512,375.156,60.092,374.007Z" transform="translate(-33.153 -266.182)" fill="#129996" stroke="#263238" stroke-linecap="round" stroke-linejoin="round" stroke-width="1"/>
        <line id="Line_56" data-name="Line 56" y1="7.516" x2="7.856" transform="translate(26.94 100.309)" fill="none" stroke="#263238" stroke-linecap="round" stroke-linejoin="round" stroke-width="1"/>
        <line id="Line_57" data-name="Line 57" y1="8.416" x2="5.157" transform="translate(21.382 86.426)" fill="none" stroke="#263238" stroke-linecap="round" stroke-linejoin="round" stroke-width="1"/>
        <path id="Path_94" data-name="Path 94" d="M57.483,348.781a7.69,7.69,0,0,1,1.459-6.185c1.384-1.883,9.558-7.561,11.078-4.537C71.669,341.265,63.888,349.953,57.483,348.781Z" transform="translate(-32.517 -259.83)" fill="#129996" stroke="#263238" stroke-linecap="round" stroke-linejoin="round" stroke-width="1"/>
        <line id="Line_58" data-name="Line 58" y1="7.509" x2="7.864" transform="translate(24.966 81.443)" fill="none" stroke="#263238" stroke-linecap="round" stroke-linejoin="round" stroke-width="1"/>
        <line id="Line_59" data-name="Line 59" y1="8.416" x2="5.164" transform="translate(18.494 58.766)" fill="none" stroke="#263238" stroke-linecap="round" stroke-linejoin="round" stroke-width="1"/>
        <path id="Path_95" data-name="Path 95" d="M53.663,312.2a7.705,7.705,0,0,1,1.459-6.193c1.384-1.883,9.558-7.561,11.078-4.537C67.849,304.683,60.091,313.363,53.663,312.2Z" transform="translate(-31.586 -250.908)" fill="#129996" stroke="#263238" stroke-linecap="round" stroke-linejoin="round" stroke-width="1"/>
        <line id="Line_60" data-name="Line 60" y1="7.516" x2="7.864" transform="translate(22.078 53.775)" fill="none" stroke="#263238" stroke-linecap="round" stroke-linejoin="round" stroke-width="1"/>
        <path id="Path_96" data-name="Path 96" d="M46,296.6a7.675,7.675,0,0,1,1.474-6.193c1.384-1.883,9.558-7.562,11.07-4.537C60.189,289.075,52.431,297.763,46,296.6Z" transform="translate(-29.718 -247.103)" fill="#129996" stroke="#263238" stroke-linecap="round" stroke-linejoin="round" stroke-width="1"/>
        <line id="Line_61" data-name="Line 61" y1="7.516" x2="7.864" transform="translate(16.286 41.979)" fill="none" stroke="#263238" stroke-linecap="round" stroke-linejoin="round" stroke-width="1"/>
        <path id="Path_97" data-name="Path 97" d="M43.29,296.343a7.713,7.713,0,0,1-6-2.095c-1.724-1.58-6.5-10.3-3.38-11.5C37.3,281.447,45.128,290.075,43.29,296.343Z" transform="translate(-26.551 -246.522)" fill="#129996" stroke="#263238" stroke-linecap="round" stroke-linejoin="round" stroke-width="1"/>
        <line id="Line_62" data-name="Line 62" x1="6.647" y1="8.605" transform="translate(10.093 41.216)" fill="none" stroke="#263238" stroke-linecap="round" stroke-linejoin="round" stroke-width="1"/>
        <line id="Line_63" data-name="Line 63" y2="156.553" transform="translate(38.842 11.628)" fill="none" stroke="#263238" stroke-linecap="round" stroke-linejoin="round" stroke-width="1"/>
        <line id="Line_64" data-name="Line 64" x1="10.268" y2="97.641" transform="translate(45.639 70.048)" fill="none" stroke="#263238" stroke-linecap="round" stroke-linejoin="round" stroke-width="1"/>
        <line id="Line_65" data-name="Line 65" x1="5.112" y1="4.272" transform="translate(43.257 138.978)" fill="none" stroke="#263238" stroke-linecap="round" stroke-linejoin="round" stroke-width="1"/>
        <path id="Path_98" data-name="Path 98" d="M79.7,416.9a7.682,7.682,0,0,0-1.452-6.193c-1.384-1.883-9.565-7.561-11.085-4.537C65.519,409.383,73.285,418.071,79.7,416.9Z" transform="translate(-34.859 -276.439)" fill="#129996" stroke="#263238" stroke-linecap="round" stroke-linejoin="round" stroke-width="1"/>
        <line id="Line_66" data-name="Line 66" x1="7.418" y1="7.123" transform="translate(37.428 133.337)" fill="none" stroke="#263238" stroke-linecap="round" stroke-linejoin="round" stroke-width="1"/>
        <line id="Line_67" data-name="Line 67" x1="4.885" y1="7.025" transform="translate(41.579 154.252)" fill="none" stroke="#263238" stroke-linecap="round" stroke-linejoin="round" stroke-width="1"/>
        <path id="Path_99" data-name="Path 99" d="M77.472,438.472a7.705,7.705,0,0,0-1.459-6.216c-1.384-1.883-9.565-7.562-11.085-4.537C63.279,430.956,71.045,439.644,77.472,438.472Z" transform="translate(-34.313 -281.694)" fill="#129996" stroke="#263238" stroke-linecap="round" stroke-linejoin="round" stroke-width="1"/>
        <line id="Line_68" data-name="Line 68" x1="7.425" y1="7.123" transform="translate(35.734 149.655)" fill="none" stroke="#263238" stroke-linecap="round" stroke-linejoin="round" stroke-width="1"/>
        <line id="Line_69" data-name="Line 69" x1="4.93" y1="5.686" transform="translate(46.025 111.424)" fill="none" stroke="#263238" stroke-linecap="round" stroke-linejoin="round" stroke-width="1"/>
        <path id="Path_100" data-name="Path 100" d="M83.345,381.839a7.675,7.675,0,0,0-1.459-6.193c-1.384-1.875-9.558-7.561-11.078-4.537C69.159,374.331,76.948,383.011,83.345,381.839Z" transform="translate(-35.747 -267.89)" fill="#129996" stroke="#263238" stroke-linecap="round" stroke-linejoin="round" stroke-width="1"/>
        <line id="Line_70" data-name="Line 70" x1="7.418" y1="7.115" transform="translate(40.18 106.834)" fill="none" stroke="#263238" stroke-linecap="round" stroke-linejoin="round" stroke-width="1"/>
        <line id="Line_71" data-name="Line 71" x1="4.756" y1="7.395" transform="translate(48.785 84.8)" fill="none" stroke="#263238" stroke-linecap="round" stroke-linejoin="round" stroke-width="1"/>
        <path id="Path_101" data-name="Path 101" d="M87,346.631a7.69,7.69,0,0,0-1.459-6.185c-1.384-1.883-9.565-7.562-11.085-4.537C72.809,339.123,80.575,347.8,87,346.631Z" transform="translate(-36.637 -259.306)" fill="#129996" stroke="#263238" stroke-linecap="round" stroke-linejoin="round" stroke-width="1"/>
        <line id="Line_72" data-name="Line 72" x1="7.425" y1="7.115" transform="translate(42.94 80.21)" fill="none" stroke="#263238" stroke-linecap="round" stroke-linejoin="round" stroke-width="1"/>
        <line id="Line_73" data-name="Line 73" y1="7.176" x2="6.783" transform="translate(49.632 126.366)" fill="none" stroke="#263238" stroke-linecap="round" stroke-linejoin="round" stroke-width="1"/>
        <path id="Path_102" data-name="Path 102" d="M96.4,401.874a7.675,7.675,0,0,1,2.7-5.754c1.739-1.558,10.9-5.422,11.781-2.193C111.825,397.458,102.442,404.339,96.4,401.874Z" transform="translate(-42.042 -273.361)" fill="#129996" stroke="#263238" stroke-linecap="round" stroke-linejoin="round" stroke-width="1"/>
        <line id="Line_74" data-name="Line 74" y1="5.732" x2="9.24" transform="translate(54.358 122.781)" fill="none" stroke="#263238" stroke-linecap="round" stroke-linejoin="round" stroke-width="1"/>
        <line id="Line_75" data-name="Line 75" y1="7.168" x2="6.783" transform="translate(51.59 107.5)" fill="none" stroke="#263238" stroke-linecap="round" stroke-linejoin="round" stroke-width="1"/>
        <path id="Path_103" data-name="Path 103" d="M99,376.922a7.683,7.683,0,0,1,2.7-5.762c1.739-1.558,10.9-5.422,11.781-2.193C114.418,372.468,105.049,379.387,99,376.922Z" transform="translate(-42.676 -267.274)" fill="#129996" stroke="#263238" stroke-linecap="round" stroke-linejoin="round" stroke-width="1"/>
        <line id="Line_76" data-name="Line 76" y1="5.732" x2="9.24" transform="translate(56.316 103.916)" fill="none" stroke="#263238" stroke-linecap="round" stroke-linejoin="round" stroke-width="1"/>
        <line id="Line_77" data-name="Line 77" y1="5.762" x2="6.858" transform="translate(54.388 79.832)" fill="none" stroke="#263238" stroke-linecap="round" stroke-linejoin="round" stroke-width="1"/>
        <path id="Path_104" data-name="Path 104" d="M102.79,340.334a7.682,7.682,0,0,1,2.692-5.754c1.747-1.558,10.911-5.422,11.781-2.193C118.215,335.9,108.832,342.8,102.79,340.334Z" transform="translate(-43.601 -258.354)" fill="#129996" stroke="#263238" stroke-linecap="round" stroke-linejoin="round" stroke-width="1"/>
        <line id="Line_78" data-name="Line 78" y1="5.732" x2="9.233" transform="translate(59.189 76.248)" fill="#129996" stroke="#263238" stroke-linecap="round" stroke-linejoin="round" stroke-width="1"/>
        <path id="Path_105" data-name="Path 105" d="M98.5,323.491a7.682,7.682,0,0,1,2.7-5.762c1.739-1.558,10.9-5.422,11.781-2.193C113.925,319.053,104.542,325.957,98.5,323.491Z" transform="translate(-42.554 -254.245)" fill="#129996" stroke="#263238" stroke-linecap="round" stroke-linejoin="round" stroke-width="1"/>
        <line id="Line_79" data-name="Line 79" y1="5.739" x2="9.24" transform="translate(55.946 63.507)" fill="none" stroke="#263238" stroke-linecap="round" stroke-linejoin="round" stroke-width="1"/>
        <path id="Path_106" data-name="Path 106" d="M96.447,322.079A7.675,7.675,0,0,1,91,318.789c-1.369-1.89-4.25-11.418-.945-11.947C93.649,306.268,99.532,316.324,96.447,322.079Z" transform="translate(-40.123 -252.424)" fill="#129996" stroke="#263238" stroke-linecap="round" stroke-linejoin="round" stroke-width="1"/>
        <line id="Line_80" data-name="Line 80" x1="4.733" y1="9.792" transform="translate(51.59 59.862)" fill="none" stroke="#263238" stroke-linecap="round" stroke-linejoin="round" stroke-width="1"/>
        <line id="Line_81" data-name="Line 81" x1="5.611" y1="7.501" transform="translate(32.981 157.95)" fill="none" stroke="#263238" stroke-linecap="round" stroke-linejoin="round" stroke-width="1"/>
        <path id="Path_107" data-name="Path 107" d="M66.128,443.506a7.675,7.675,0,0,0-2.095-6c-1.573-1.732-10.291-6.518-11.486-3.4C51.239,437.5,59.859,445.336,66.128,443.506Z" transform="translate(-31.316 -283.212)" fill="#129996" stroke="#263238" stroke-linecap="round" stroke-linejoin="round" stroke-width="1"/>
        <line id="Line_82" data-name="Line 82" x1="8.121" y1="6.314" transform="translate(26.69 153.98)" fill="none" stroke="#263238" stroke-linecap="round" stroke-linejoin="round" stroke-width="1"/>
        <line id="Line_83" data-name="Line 83" x1="5.807" y1="5.414" transform="translate(32.981 123.848)" fill="none" stroke="#263238" stroke-linecap="round" stroke-linejoin="round" stroke-width="1"/>
        <path id="Path_108" data-name="Path 108" d="M66.128,398.416a7.675,7.675,0,0,0-2.095-6c-1.573-1.732-10.291-6.518-11.486-3.4C51.239,392.412,59.859,400.245,66.128,398.416Z" transform="translate(-31.316 -272.216)" fill="#129996" stroke="#263238" stroke-linecap="round" stroke-linejoin="round" stroke-width="1"/>
        <line id="Line_84" data-name="Line 84" x1="8.121" y1="6.314" transform="translate(26.69 119.885)" fill="none" stroke="#263238" stroke-linecap="round" stroke-linejoin="round" stroke-width="1"/>
        <line id="Line_85" data-name="Line 85" x1="6.004" y1="7.834" transform="translate(32.981 83.817)" fill="none" stroke="#263238" stroke-linecap="round" stroke-linejoin="round" stroke-width="1"/>
        <path id="Path_109" data-name="Path 109" d="M66.128,345.474a7.69,7.69,0,0,0-2.095-6.011c-1.573-1.724-10.291-6.51-11.486-3.4C51.239,339.463,59.859,347.3,66.128,345.474Z" transform="translate(-31.316 -259.306)" fill="#129996" stroke="#263238" stroke-linecap="round" stroke-linejoin="round" stroke-width="1"/>
        <line id="Line_86" data-name="Line 86" x1="8.121" y1="6.314" transform="translate(26.69 79.855)" fill="none" stroke="#263238" stroke-linecap="round" stroke-linejoin="round" stroke-width="1"/>
        <line id="Line_87" data-name="Line 87" x1="5.611" y1="5.059" transform="translate(32.981 57.17)" fill="none" stroke="#263238" stroke-linecap="round" stroke-linejoin="round" stroke-width="1"/>
        <path id="Path_110" data-name="Path 110" d="M66.128,310.221a7.69,7.69,0,0,0-2.095-6.049c-1.573-1.724-10.291-6.518-11.486-3.4C51.239,304.21,59.859,312.036,66.128,310.221Z" transform="translate(-31.316 -250.699)" fill="#129996" stroke="#263238" stroke-linecap="round" stroke-linejoin="round" stroke-width="1"/>
        <line id="Line_88" data-name="Line 88" x1="8.121" y1="6.321" transform="translate(26.69 53.201)" fill="none" stroke="#263238" stroke-linecap="round" stroke-linejoin="round" stroke-width="1"/>
        <line id="Line_89" data-name="Line 89" x1="5.822" y1="4.272" transform="translate(33.095 31.295)" fill="none" stroke="#263238" stroke-linecap="round" stroke-linejoin="round" stroke-width="1"/>
        <path id="Path_111" data-name="Path 111" d="M66.128,274.835a7.69,7.69,0,0,0-2.095-6.011c-1.573-1.724-10.291-6.51-11.486-3.4C51.239,268.823,59.859,276.664,66.128,274.835Z" transform="translate(-31.316 -242.08)" fill="#129996" stroke="#263238" stroke-linecap="round" stroke-linejoin="round" stroke-width="1"/>
        <line id="Line_90" data-name="Line 90" x1="8.121" y1="6.314" transform="translate(26.69 26.441)" fill="none" stroke="#263238" stroke-linecap="round" stroke-linejoin="round" stroke-width="1"/>
        <line id="Line_91" data-name="Line 91" y1="7.834" x2="6.004" transform="translate(38.857 114.131)" fill="none" stroke="#263238" stroke-linecap="round" stroke-linejoin="round" stroke-width="1"/>
        <path id="Path_112" data-name="Path 112" d="M81.41,385.568a7.69,7.69,0,0,1,2.095-6c1.565-1.724,10.291-6.518,11.486-3.4C96.3,379.572,87.678,387.391,81.41,385.568Z" transform="translate(-38.379 -269.086)" fill="#129996" stroke="#263238" stroke-linecap="round" stroke-linejoin="round" stroke-width="1"/>
        <line id="Line_92" data-name="Line 92" y1="6.662" x2="8.597" transform="translate(43.031 109.821)" fill="none" stroke="#263238" stroke-linecap="round" stroke-linejoin="round" stroke-width="1"/>
        <line id="Line_93" data-name="Line 93" y1="7.834" x2="6.004" transform="translate(38.857 87.363)" fill="none" stroke="#263238" stroke-linecap="round" stroke-linejoin="round" stroke-width="1"/>
        <path id="Path_113" data-name="Path 113" d="M81.41,350.164a7.69,7.69,0,0,1,2.095-6.011c1.565-1.724,10.291-6.51,11.486-3.4C96.3,344.153,87.678,352.032,81.41,350.164Z" transform="translate(-38.379 -260.449)" fill="#129996" stroke="#263238" stroke-linecap="round" stroke-linejoin="round" stroke-width="1"/>
        <line id="Line_94" data-name="Line 94" y1="6.654" x2="8.597" transform="translate(43.031 83.061)" fill="none" stroke="#263238" stroke-linecap="round" stroke-linejoin="round" stroke-width="1"/>
        <line id="Line_95" data-name="Line 95" y1="7.841" x2="6.004" transform="translate(38.857 51.983)" fill="none" stroke="#263238" stroke-linecap="round" stroke-linejoin="round" stroke-width="1"/>
        <path id="Path_114" data-name="Path 114" d="M81.41,303.376a7.675,7.675,0,0,1,2.095-6c1.565-1.732,10.291-6.518,11.486-3.4C96.3,297.372,87.678,305.205,81.41,303.376Z" transform="translate(-38.379 -249.041)" fill="#129996" stroke="#263238" stroke-linecap="round" stroke-linejoin="round" stroke-width="1"/>
        <line id="Line_96" data-name="Line 96" y1="6.654" x2="8.597" transform="translate(43.031 47.681)" fill="none" stroke="#263238" stroke-linecap="round" stroke-linejoin="round" stroke-width="1"/>
        <line id="Line_97" data-name="Line 97" y1="4.597" x2="5.89" transform="translate(39.114 24.694)" fill="none" stroke="#263238" stroke-linecap="round" stroke-linejoin="round" stroke-width="1"/>
        <path id="Path_115" data-name="Path 115" d="M81.408,266.621a7.675,7.675,0,0,1,2.095-6.049c1.565-1.732,10.291-6.518,11.486-3.4C96.3,260.572,87.677,268.421,81.408,266.621Z" transform="translate(-38.378 -240.067)" fill="#129996" stroke="#263238" stroke-linecap="round" stroke-linejoin="round" stroke-width="1"/>
        <line id="Line_98" data-name="Line 98" y1="6.654" x2="8.597" transform="translate(43.031 19.87)" fill="none" stroke="#263238" stroke-linecap="round" stroke-linejoin="round" stroke-width="1"/>
        <path id="Path_116" data-name="Path 116" d="M75.408,250.271a7.7,7.7,0,0,1,2.087-6.049c1.573-1.724,10.291-6.518,11.493-3.4C90.3,244.26,81.677,252.1,75.408,250.271Z" transform="translate(-36.915 -236.08)" fill="#129996" stroke="#263238" stroke-linecap="round" stroke-linejoin="round" stroke-width="1"/>
        <line id="Line_99" data-name="Line 99" y1="6.662" x2="8.597" transform="translate(38.494 7.529)" fill="none" stroke="#263238" stroke-linecap="round" stroke-linejoin="round" stroke-width="1"/>
        <path id="Path_117" data-name="Path 117" d="M73.038,249.444a7.683,7.683,0,0,1-5.754-2.715c-1.558-1.739-5.406-10.911-2.178-11.781C68.607,234,75.5,243.4,73.038,249.444Z" transform="translate(-34.106 -234.883)" fill="#129996" stroke="#263238" stroke-linecap="round" stroke-linejoin="round" stroke-width="1"/>
        <line id="Line_100" data-name="Line 100" x1="5.724" y1="9.255" transform="translate(33.193 5.306)" fill="none" stroke="#263238" stroke-linecap="round" stroke-linejoin="round" stroke-width="1"/>
        <line id="Line_101" data-name="Line 101" x2="21.172" transform="translate(316.439 168.46)" fill="none" stroke="#263238" stroke-linecap="round" stroke-linejoin="round" stroke-width="1"/>
        <line id="Line_102" data-name="Line 102" x2="302.21" transform="translate(5.911 168.46)" fill="none" stroke="#263238" stroke-linecap="round" stroke-linejoin="round" stroke-width="1"/>
      </g>
      <g id="freepik--light-bulb--inject-2" transform="translate(149.774 15.23)">
        <path id="Path_118" data-name="Path 118" d="M254.985,56.495a22.737,22.737,0,1,0-40.212,14.541,22.337,22.337,0,0,1,5.18,14.321v3.115h24.582V85.357a22.284,22.284,0,0,1,5.172-14.291,22.684,22.684,0,0,0,5.278-14.571Z" transform="translate(-194.886 -19.746)" fill="#fff" stroke="#263238" stroke-linecap="round" stroke-linejoin="round" stroke-width="2"/>
        <rect id="Rectangle_44" data-name="Rectangle 44" width="24.582" height="6.079" transform="translate(25.066 68.719)" fill="#fff" stroke="#263238" stroke-linecap="round" stroke-linejoin="round" stroke-width="2"/>
        <path id="Path_119" data-name="Path 119" d="M223.308,114.17H247.89v2.51a3.577,3.577,0,0,1-3.577,3.577H226.847a3.577,3.577,0,0,1-3.577-3.577v-2.51Z" transform="translate(-198.241 -39.357)" fill="#fff" stroke="#263238" stroke-linecap="round" stroke-linejoin="round" stroke-width="2"/>
        <path id="Path_120" data-name="Path 120" d="M227.42,122.2h18.374v1.233a4.847,4.847,0,0,1-4.847,4.847h-8.681a4.847,4.847,0,0,1-4.847-4.847Z" transform="translate(-199.253 -41.315)" fill="#fff" stroke="#263238" stroke-linecap="round" stroke-linejoin="round" stroke-width="2"/>
        <line id="Line_103" data-name="Line 103" x2="10.42" transform="translate(63.32 36.862)" fill="none" stroke="#263238" stroke-linecap="round" stroke-linejoin="round" stroke-width="2"/>
        <line id="Line_104" data-name="Line 104" x2="10.548" transform="translate(0 36.862)" fill="none" stroke="#263238" stroke-linecap="round" stroke-linejoin="round" stroke-width="2"/>
        <line id="Line_105" data-name="Line 105" y1="10.442" transform="translate(36.87)" fill="none" stroke="#263238" stroke-linecap="round" stroke-linejoin="round" stroke-width="2"/>
        <line id="Line_106" data-name="Line 106" y1="7.183" x2="7.191" transform="translate(55.751 10.798)" fill="none" stroke="#263238" stroke-linecap="round" stroke-linejoin="round" stroke-width="2"/>
        <line id="Line_107" data-name="Line 107" y1="7.297" x2="7.297" transform="translate(10.798 55.637)" fill="none" stroke="#263238" stroke-linecap="round" stroke-linejoin="round" stroke-width="2"/>
        <line id="Line_108" data-name="Line 108" x1="6.987" y1="6.979" transform="translate(10.798 10.798)" fill="none" stroke="#263238" stroke-linecap="round" stroke-linejoin="round" stroke-width="2"/>
        <line id="Line_109" data-name="Line 109" x1="6.957" y1="6.949" transform="translate(55.985 55.985)" fill="none" stroke="#263238" stroke-linecap="round" stroke-linejoin="round" stroke-width="2"/>
      </g>
      <g id="freepik--Character--inject-2" transform="translate(100.874 96.854)">
        <path id="Path_121" data-name="Path 121" d="M345.639,176.616s-5.127-11.078-5.747-12.1-1.233-7.183-.817-9.028,5.535-8.2,5.535-8.2.612-13.119,1.437-16.635.408-6.563,2.457-7.183,2.669-.408,2.873,2.268-.408,9.021-.408,9.633,1.021,10.049,1.021,10.049,9.641,9.83,10.669,10.873,2.662,3.282,1.021,8.613a26.216,26.216,0,0,1-4.718,8.817l.824,4.106-14.148,1.021Z" transform="translate(-177.548 -123.177)" fill="#fff" stroke="#263238" stroke-linecap="round" stroke-linejoin="round" stroke-width="1"/>
        <path id="Path_122" data-name="Path 122" d="M344.076,178.262s-4.923-5.331-6.359-8.408-1.021-10.458-.408-11.486,5.535-3.486,6.768-4.106,9.641-1.225,11.486-2.268,3.894,2.049,1.232,4.718-10.669,4.923-10.669,4.923,5.951,4.1,4.537,10.049" transform="translate(-177.012 -130.153)" fill="#fff" stroke="#263238" stroke-linecap="round" stroke-linejoin="round" stroke-width="1"/>
        <path id="Path_123" data-name="Path 123" d="M365.8,153.138s-4.189,11.342-2.193,12.779,4.393,1,4.991-1.195,3.781-7.561,3.4-10.389S368,150.379,365.8,153.138Z" transform="translate(-183.431 -130.096)" fill="#fff" stroke="#263238" stroke-linecap="round" stroke-linejoin="round" stroke-width="1"/>
        <path id="Path_124" data-name="Path 124" d="M373.086,158.253s-3.4,9.217-1.777,10.352,3.561.809,4.045-.968,3.07-6.147,2.752-8.416S374.87,155.985,373.086,158.253Z" transform="translate(-185.334 -131.415)" fill="#fff" stroke="#263238" stroke-linecap="round" stroke-linejoin="round" stroke-width="1"/>
        <path id="Path_125" data-name="Path 125" d="M359.362,148.843s-4.3,11.69-2.268,13.127,4.537,1.021,5.127-1.233,3.894-7.8,3.486-10.662S361.623,145.97,359.362,148.843Z" transform="translate(-181.841 -129.037)" fill="#fff" stroke="#263238" stroke-linecap="round" stroke-linejoin="round" stroke-width="1"/>
        <path id="Path_126" data-name="Path 126" d="M346.247,199.155l-1.437-8.817,17.641-1.648,3.07,10.465Z" transform="translate(-178.979 -139.152)" fill="#129996" stroke="#263238" stroke-linecap="round" stroke-linejoin="round" stroke-width="1"/>
        <path id="Path_127" data-name="Path 127" d="M151.262,394.343l12.8-63.645,4.915,63.645H260.1c.106-4.1,1.512-58.722,1.127-68.182-.378-9.83,4.537-26.465,4.537-26.465s60.87-12.855,68.809-18.148,3.4-12.1,2.647-15.879-23.062-62.76-23.819-65.407-4.159-2.268-7.561-2.268-15.123.756-15.123,3.025,6.427,57.467,6.427,57.467h-3.025l-1.134,2.647-16.257-3.4s-12.1-9.074-16.257-9.452l-28.734-2.647H189.773s-46.881,21.928-50.284,26.087-3.4,18.148-3.4,18.148L125.5,394.343Z" transform="translate(-125.5 -141.417)" fill="#129996" stroke="#263238" stroke-linecap="round" stroke-linejoin="round" stroke-width="1"/>
        <line id="Line_110" data-name="Line 110" y1="5.021" x2="3.743" transform="translate(110.057 217.259)" fill="none" stroke="#263238" stroke-linecap="round" stroke-linejoin="round" stroke-width="1"/>
        <path id="Path_128" data-name="Path 128" d="M242.69,446.708c6.284-9.255,13.089-17.573,19.7-26.458" transform="translate(-154.077 -195.619)" fill="none" stroke="#263238" stroke-linecap="round" stroke-linejoin="round" stroke-width="1"/>
        <path id="Path_129" data-name="Path 129" d="M274.633,412.26c-3.365,6.17-8.892,15.41-15.123,22.11" transform="translate(-158.179 -193.67)" fill="none" stroke="#263238" stroke-linecap="round" stroke-linejoin="round" stroke-width="1"/>
        <path id="Path_130" data-name="Path 130" d="M283.376,403.5s-.7,1.512-1.936,3.879" transform="translate(-163.526 -191.534)" fill="none" stroke="#263238" stroke-linecap="round" stroke-linejoin="round" stroke-width="1"/>
        <line id="Line_111" data-name="Line 111" y1="9.021" x2="2.344" transform="translate(145.99 127.277)" fill="none" stroke="#263238" stroke-linecap="round" stroke-linejoin="round" stroke-width="1"/>
        <line id="Line_112" data-name="Line 112" y1="18.805" x2="4.9" transform="translate(140.265 139.474)" fill="none" stroke="#263238" stroke-linecap="round" stroke-linejoin="round" stroke-width="1"/>
        <line id="Line_113" data-name="Line 113" y1="18.246" x2="9.822" transform="translate(142.723 130.483)" fill="none" stroke="#263238" stroke-linecap="round" stroke-linejoin="round" stroke-width="1"/>
        <path id="Path_131" data-name="Path 131" d="M365.36,294.52q.59.907,1.043,1.724" transform="translate(-183.99 -164.959)" fill="none" stroke="#263238" stroke-linecap="round" stroke-linejoin="round" stroke-width="1"/>
        <path id="Path_132" data-name="Path 132" d="M355.848,291.414A26.216,26.216,0,0,1,352.5,278s4.393,4.983,7.849,9.754" transform="translate(-180.852 -160.931)" fill="none" stroke="#263238" stroke-linecap="round" stroke-linejoin="round" stroke-width="1"/>
        <path id="Path_133" data-name="Path 133" d="M162.634,315.737c-.975-2.079-1.754-3.637-1.754-3.637" transform="translate(-134.127 -169.246)" fill="none" stroke="#263238" stroke-linecap="round" stroke-linejoin="round" stroke-width="1"/>
        <path id="Path_134" data-name="Path 134" d="M173.654,360.554s-5.346-30.813-6.7-34.851c-.484-1.467-1.293-3.4-2.125-5.293" transform="translate(-135.091 -171.272)" fill="none" stroke="#263238" stroke-linecap="round" stroke-linejoin="round" stroke-width="1"/>
        <path id="Path_135" data-name="Path 135" d="M161.662,331.864a72.825,72.825,0,0,0-3.622-6.51l-6.73-9.694" transform="translate(-131.794 -170.114)" fill="none" stroke="#263238" stroke-linecap="round" stroke-linejoin="round" stroke-width="1"/>
        <path id="Path_136" data-name="Path 136" d="M171.369,350.062s-2.5-5.293-5.059-10.352" transform="translate(-135.452 -175.979)" fill="none" stroke="#263238" stroke-linecap="round" stroke-linejoin="round" stroke-width="1"/>
        <path id="Path_137" data-name="Path 137" d="M224.612,284.173l8.061,11.841L221.33,385.24,236.2,399.864l11.342-17.142-9.58-87.713,8.068-12.1-11.849-9.58Z" transform="translate(-148.868 -159.792)" fill="#263238" stroke="#263238" stroke-linecap="round" stroke-linejoin="round" stroke-width="1"/>
        <path id="Path_138" data-name="Path 138" d="M228.515,274.258l-14.624,16.386L206.33,262.16l5.8-9.323,4.786-.507,29.747.507,9.83,9.074-6.556,27.728-16.386-16.386Z" transform="translate(-145.211 -154.671)" fill="#129996" stroke="#263238" stroke-linecap="round" stroke-linejoin="round" stroke-width="1"/>
        <path id="Path_139" data-name="Path 139" d="M215,239.33l1.006,14.873s14.624,19.153,16.635,19.153,16.136-20.416,16.136-20.416l.25-12.854Z" transform="translate(-147.325 -151.501)" fill="#fff" stroke="#263238" stroke-linecap="round" stroke-linejoin="round" stroke-width="1"/>
        <path id="Path_140" data-name="Path 140" d="M203.344,210.753s-2.775-8.567-6.306-3.025,4.287,14.117,5.8,15.123l1.512,1.013Z" transform="translate(-142.723 -143.34)" fill="#fff" stroke="#263238" stroke-linecap="round" stroke-linejoin="round" stroke-width="1"/>
        <path id="Path_141" data-name="Path 141" d="M270.343,210.753s2.768-8.567,6.3-3.025-4.287,14.117-5.8,15.123l-1.512,1.013Z" transform="translate(-160.573 -143.34)" fill="#fff" stroke="#263238" stroke-linecap="round" stroke-linejoin="round" stroke-width="1"/>
        <path id="Path_142" data-name="Path 142" d="M204.634,197.688s.756,17.391,3.4,21.172,11.72,13.233,18.526,14.745,9.452,0,14.745-3.4,12.476-10.208,13.233-14.367.756-21.55.756-21.55l-1.512-18.148s-.756-10.586-13.611-15.123-23.063-7.561-27.221,0-9.452,15.879-9.452,15.879Z" transform="translate(-144.52 -131.281)" fill="#fff" stroke="#263238" stroke-linecap="round" stroke-linejoin="round" stroke-width="1"/>
        <path id="Path_143" data-name="Path 143" d="M233.5,227.387a19.41,19.41,0,0,0,15.41-2.768" transform="translate(-151.836 -147.914)" fill="none" stroke="#263238" stroke-linecap="round" stroke-linejoin="round" stroke-width="1"/>
        <line id="Line_114" data-name="Line 114" x2="7.115" y2="1.58" transform="translate(70.208 62.09)" fill="none" stroke="#263238" stroke-linecap="round" stroke-linejoin="round" stroke-width="1"/>
        <line id="Line_115" data-name="Line 115" y1="2.367" x2="8.295" transform="translate(95.494 61.697)" fill="none" stroke="#263238" stroke-linecap="round" stroke-linejoin="round" stroke-width="1"/>
        <path id="Path_144" data-name="Path 144" d="M217.538,163.041s-.756,8.318-5.293,11.72l-7.561,5.671.756,13.989-2.268-.378-1.134-9.074s-4.537-12.1-4.537-20.794,6.805-13.989,9.452-14.367a37.446,37.446,0,0,1,6.805,0s5.293-7.561,19.282-8.318,24.953,13.989,23.441,16.635l-1.512,2.647a25.709,25.709,0,0,1,3.025,11.342c0,6.049-3.781,11.72-3.781,11.72v11.72L251.187,182.7s-2.647-7.94-3.4-9.452-8.7-.756-13.233-2.647-7.94-7.183-7.94-7.183,3.781,7.183.756,7.183S217.538,163.041,217.538,163.041Z" transform="translate(-143.057 -127.636)" fill="#263238" stroke="#263238" stroke-linecap="round" stroke-linejoin="round" stroke-width="1"/>
        <path id="Path_145" data-name="Path 145" d="M250.115,217.456c-3.025-1.512-15.63-4.786-15.63-4.786s-14.866,4.03-17.134,6.548-.257,15.123,2.268,19.917,5.293,8.817,13.1,9.074,15.879-4.287,17.142-8.824S253.14,218.969,250.115,217.456ZM245.329,235.6c-2.019,3.531-6.556,3.274-6.805,1.263s-.257-4.287-2.775-4.287-1.762,1.006-1.512,3.781-3.274,4.786-7.055,2.518-5.55-11.592-5.55-14.616,13.112-7.312,13.112-7.312,11.085.507,12.6,3.531S247.34,232.073,245.329,235.6Z" transform="translate(-147.657 -145)" fill="#263238" stroke="#263238" stroke-linecap="round" stroke-linejoin="round" stroke-width="1"/>
        <ellipse id="Ellipse_3" data-name="Ellipse 3" cx="1.134" cy="2.518" rx="1.134" ry="2.518" transform="translate(74.73 55.572)" fill="#263238"/>
        <ellipse id="Ellipse_4" data-name="Ellipse 4" cx="1.134" cy="2.518" rx="1.134" ry="2.518" transform="translate(94.897 55.572)" fill="#263238"/>
        <path id="Path_146" data-name="Path 146" d="M219,189.415s2.775-5.293,11.093-3.531" transform="translate(-148.3 -138.381)" fill="none" stroke="#263238" stroke-linecap="round" stroke-linejoin="round" stroke-width="4"/>
        <path id="Path_147" data-name="Path 147" d="M247.33,185.126s6.306-2.768,11.6,3.282" transform="translate(-155.208 -138.129)" fill="none" stroke="#263238" stroke-linecap="round" stroke-linejoin="round" stroke-width="4"/>
        <path id="Path_148" data-name="Path 148" d="M241.744,188.33l.5,19.917-9.573-2.526" transform="translate(-151.634 -139.065)" fill="#fff" stroke="#263238" stroke-linecap="round" stroke-linejoin="round" stroke-width="1"/>
      </g>
    </g>
  </g>
</svg>
