<svg id="saeed" xmlns="http://www.w3.org/2000/svg" width="200" height="220" viewBox="0 0 200 220">
  <g id="svga-group-backs-single">
    <path id="SvgjsPath8446" d="M0,0H200V220H0Z" fill="#c8cfd1"/>
  </g>
  <g id="svga-group-humanwrap-move" transform="translate(10.7 17.563)">
    <g id="svga-group-humanwrap">
      <g id="svga-group-humanbody-back" transform="translate(5 74.492)">
        <path id="SvgjsPath8399" d="M180.8,184.9c-2.3-3.4-38.9-17.8-38.9-17.8l-13.4-5.2-5.6-68.8H76.8L71.3,162l-13.4,5.2S21.4,181.6,19,185c-2.3,3.4-3.3,14.9-3.3,14.9V219H184.2V199.8c-.1.1-1-11.5-3.4-14.9Z" transform="translate(-15.7 -93.1)" fill="#f0c7b1"/>
      </g>
      <g id="svga-group-chinshadow-single" transform="translate(61.51 74.95)">
        <path id="SvgjsPath8395" d="M83.41,160.9c3,1.6,18.4,1.6,21.4,0,2.3-1.22,14.94-13.04,22.02-20.04L122.94,93.1H76.82l-4.61,58.02c5.18,4.83,9.98,9.09,11.2,9.78Z" transform="translate(-72.21 -93.1)" fill="#d19271"/>
      </g>
      <g id="svga-group-humanbody-front" transform="translate(4.1 73.592)">
        <path id="SvgjsPath8400" d="M184.5,219c-.1-6.4-.1-12.8-.1-19.2l-.3-.1a.138.138,0,0,1,.2,0,.1.1,0,0,1,.1.1v-.4l-.1-.5-.1-.9-.2-1.9c-.2-1.3-.4-2.5-.6-3.8a26.155,26.155,0,0,0-.9-3.8,16.135,16.135,0,0,0-1.5-3.6,11.929,11.929,0,0,0-2.9-2.1c-1-.6-2.1-1.1-3.2-1.7-2.1-1.1-4.3-2.1-6.5-3.1-4.4-2-8.7-3.9-13.1-5.7-4.4-1.9-8.8-3.7-13.2-5.5l-13-5.2-1.2-16.9c-.4-5.7-.9-11.5-1.3-17.2l-1.3-17.2L123.8,93l-.1-.8h-.8c-7.7,0-15.4.1-23.1.1l-23.1.2h-.5V93L75,110.2l-1.3,17.2c-.8,11.4-1.8,22.8-2.8,34.2-5.6,2.1-11.2,4.2-16.7,6.4q-8.4,3.3-16.8,6.9c-2.8,1.2-5.6,2.4-8.3,3.6a89.553,89.553,0,0,0-8.2,4.1,12.141,12.141,0,0,0-2,1.4,1.47,1.47,0,0,0-.5.6l-.3.6a5.359,5.359,0,0,0-.5,1.1,25.424,25.424,0,0,0-1.3,4.5,90.7,90.7,0,0,0-1.4,9.1L14.8,219v.9h.9l42.1.1H100c14,0,28.1-.1,42.1-.2l42.1-.5h.3V219ZM100,218l-42.1-.1-41.2.1-.1-18.1c.3-3,.6-5.9,1.2-8.9a28.755,28.755,0,0,1,1.1-4.2,7.93,7.93,0,0,1,.4-.9l.2-.4.3-.3a14.036,14.036,0,0,1,1.8-1.2c2.5-1.5,5.3-2.8,8-4.1s5.5-2.5,8.2-3.7c5.5-2.4,11.1-4.8,16.7-7.1s11.2-4.5,16.9-6.7l.2-.1v-.2c.9-11.5,1.7-23,2.7-34.4l1.4-17.2,1.5-16.7,22.6.2c7.4.1,14.8.1,22.3.1l1.3,16.4,1.5,17.2c.5,5.7,1,11.5,1.5,17.2l1.6,17.2v.3l.3.1,13.4,5c4.4,1.7,8.9,3.4,13.3,5.2s8.8,3.7,13.2,5.6c2.2,1,4.3,2,6.5,3,1.1.5,2.1,1.1,3.2,1.6a14.92,14.92,0,0,1,2.9,2,11.669,11.669,0,0,1,1.4,3.5c.3,1.2.6,2.5.8,3.7.2,1.3.4,2.5.6,3.8l.2,1.9.1.9.1.5v.4c0,6.3,0,12.6-.1,18.9l-41.8-.5c-14,.1-28.1,0-42.1,0Z" transform="translate(-14.8 -92.2)" fill="#c27b55"/>
        <path id="SvgjsPath8401" d="M125.1,142.4s-1.8,23-9.1,32.9C116,175.3,123.9,150.3,125.1,142.4Zm-34.5,16s5,7.9,11.5,10.1C102.1,168.5,92.6,170.7,90.6,158.4ZM73.4,140c6.7,25.6,6.7,25.6,8.5,30.7C81.9,170.7,82.3,158.1,73.4,140Z" transform="translate(-14.8 -92.2)" fill="#d19271"/>
      </g>
      <g id="svga-group-clothes-single" transform="translate(0 120.392)">
        <path id="SvgjsPath10867" d="M10.9,220c0-15.2,1.2-32.2,2.3-34.1,1-1.9,5-3.3,5-3.3a48.529,48.529,0,0,1,7.1-4.8c3.5-1.9,15.7-3.9,15.7-3.9a5.307,5.307,0,0,1,.4-1.9c.4-.9,1.9-1.2,5-5.2s2.1-4.8,2.7-6.7,4.4-1.5,4.4-1.5a16.348,16.348,0,0,1,4.8-10c4.4-3.9,13.6-6.6,13.6-6.6s-.1,6.9-.1,11.3-1.3,4.6,5.1,12.6c6.5,7.9,12.4,15.1,15.4,17,3.1,1.9,7.2,4,9.1,9.5,0,0,1.7-4.4,3.7-5.9s6.2-6,7.9-7.7,5.3-8.1,7.5-9.5a53.049,53.049,0,0,0,8.3-7.9c.9-1.4-.9-21.7-.9-21.7s6.9,3.7,9.4,5.4,4.9,9.5,4.9,9.5,2.4,2.1,5.1,4.1,4.7,2.9,6.2,5.7.8,5.3,1.4,6.5c.6,1.1,1.2,2,1.6,2.6,0,0,17.1,5.1,20,6.4a23.969,23.969,0,0,1,5.7,4s3.1,1.9,3.9,9.8,1.8,26.4,1.8,26.4l-177-.1Z" transform="translate(-10.7 -139)" fill="#1d1a1a"/>
        <path id="SvgjsPath10868" d="M188.6,219.9l-1.2-18.6c-.2-3.1-.4-6.2-.9-9.3a19.1,19.1,0,0,0-1.2-4.7,15.053,15.053,0,0,0-1.1-2.2,3.915,3.915,0,0,0-.8-1,7.636,7.636,0,0,0-.9-.9,24.742,24.742,0,0,0-4.9-3.6,16.855,16.855,0,0,0-2.8-1.2l-2.8-1.1L156.7,173a14.917,14.917,0,0,1-1.4-2.4,4.438,4.438,0,0,1-.2-1.3c0-.5-.1-1-.1-1.6a10.07,10.07,0,0,0-2.7-5.9,35.494,35.494,0,0,0-5.1-3.8,54.5,54.5,0,0,1-4.7-3.7c-.6-1.7-1.2-3.3-1.9-4.9-.4-.8-.8-1.6-1.3-2.4a6.574,6.574,0,0,0-1.9-2.2c-1.5-1-3.1-1.9-4.7-2.8s-3.2-1.7-4.8-2.6l-.7-.4s.7,11.7,1,17.3c0,1.4.4,3,.3,4.3a.9.9,0,0,1-.1.5c0,.1,0,.1-.1.2l-.1.2c-.2.3-.4.5-.6.8a19.2,19.2,0,0,1-1.4,1.5,65.3,65.3,0,0,1-6.2,5.6,16.925,16.925,0,0,0-2.8,3.2c-.8,1.1-1.6,2.3-2.4,3.4-.4.6-.8,1.1-1.2,1.7a5.017,5.017,0,0,1-1.4,1.5c-1.1.8-3.5,4.2-6.3,6.5a10.15,10.15,0,0,0-1.8,1.3,10.917,10.917,0,0,0-1.3,1.7,15.089,15.089,0,0,0-1.5,2.8,14.712,14.712,0,0,0-4.4-5.8,41.449,41.449,0,0,0-3.4-2.4,39.184,39.184,0,0,1-3.2-2.5c-4.4-4-4.4-6-8.3-9.7a60.97,60.97,0,0,1-5.2-6.2c-.8-1.1-1.7-2.1-2.4-3.2a12.4,12.4,0,0,1-1.8-3.4,9.552,9.552,0,0,1-.1-3.8l.1-4.1.1-8.1v-1.2l-1.2.3a42.851,42.851,0,0,0-6.3,2.3,34.56,34.56,0,0,0-6,3.2,13.569,13.569,0,0,0-4.6,5.2,17.2,17.2,0,0,0-1.9,5.8,17.961,17.961,0,0,0-2.2.2,3.4,3.4,0,0,0-1.5.7,2.407,2.407,0,0,0-.6.8,4.116,4.116,0,0,0-.3.8,7.845,7.845,0,0,0-.2,1.4,3.6,3.6,0,0,1-.2,1.1,11.3,11.3,0,0,1-1.1,2.2,31.888,31.888,0,0,1-3.3,4c-.6.6-1.2,1.1-2,1.8a4.349,4.349,0,0,0-.6.7,2.614,2.614,0,0,0-.3.8,2.959,2.959,0,0,0-.2,1c-1.5.4-7.5.9-9,1.4-1.6.6-3.2,1.1-4.8,1.8a25.089,25.089,0,0,0-4.5,2.6,37.917,37.917,0,0,0-4,3,15.041,15.041,0,0,0-4.4,2.6,6.233,6.233,0,0,0-.9,1.2,7.894,7.894,0,0,0-.3,1.3c-.2.9-.3,1.7-.4,2.5-.4,3.4-.6,6.7-.8,10.1s-.3,6.7-.3,10.1c0,1.7-.1,3.4-.1,5,0,1.7,0,3.3.1,5.1l43.9.4,44.2.3c14.7.1,29.5.1,44.3.2,14.8,0,29.6.1,44.4,0h1.1l-.1-1.1Zm-85-30.9c.4-.6.8-1.1,1.2-1.6a6.7,6.7,0,0,1,1.6-1.2c2.4-1.4,3.4-4.9,12.8-9.5a52.217,52.217,0,0,0,8.7-5.7c1.4-1.1,2.7-2.2,4-3.3a11.629,11.629,0,0,0,1.8-2c.5-.8.9-1.6,1.3-2.4a15.75,15.75,0,0,0,1.2-5.2,7.084,7.084,0,0,0-.1-1.4,6.469,6.469,0,0,0-.4-1.3,10.076,10.076,0,0,0-1.2-2.3,18.242,18.242,0,0,1,.7,2.5,6.456,6.456,0,0,1,0,2.4,14.993,14.993,0,0,1-1.7,4.6,13.735,13.735,0,0,1-1.3,2c-.5.6-1.1,1.1-1.7,1.7-1.3,1.1-2.6,2.1-3.9,3.2s-2.7,2.1-4.1,3.1l-2.1,1.5c-.7.5-1.4.9-2.1,1.4-1.5.9-2.9,1.9-4.4,2.9.1-.1.1-.2.2-.2.4-.6.8-1.1,1.2-1.7.8-1.1,1.6-2.3,2.4-3.4a16.255,16.255,0,0,1,2.7-3.1,47.624,47.624,0,0,0,6.3-5.6l1.5-1.5c.2-.3.5-.5.7-.8a21.68,21.68,0,0,0,2.4-3.6,9.788,9.788,0,0,0,.7-4.2,28.576,28.576,0,0,0-1.6-6.4,29.425,29.425,0,0,1-2.2-7.2c1.4.8,2.7,1.5,4.1,2.3,1.6.9,3.1,1.8,4.6,2.8a7.657,7.657,0,0,1,1.6,1.9c.4.8.8,1.5,1.2,2.4.7,1.6,1.3,3.3,1.9,5l.1.1.1.1a.1.1,0,0,1,.1.1v.1a19.529,19.529,0,0,1-.3,3.4,29.912,29.912,0,0,1-1.8,6.5c-1.5,4.2-3.9,8.1-7.5,10.4-.9.6-1.8,1.1-2.9,1.7l-3,1.8-5.8,3.6c-1,.6-1.9,1.1-2.9,1.6a12.053,12.053,0,0,1-3.1,1c-2.2.6-4.4,1.2-6.6,1.9,2.3-.3,4.6-.6,6.8-.9a10.106,10.106,0,0,0,1.7-.3,4.924,4.924,0,0,0,1.7-.6c1.1-.4,2.1-1,3.2-1.5,2.1-1.1,4-2.3,6-3.4,1-.6,2-1.1,3-1.7a18.342,18.342,0,0,0,3-1.8,18.656,18.656,0,0,0,5-5.1,25.323,25.323,0,0,0,2.9-6.5,26.258,26.258,0,0,0,1.2-6.9c0-1,0-2.1-.1-3.1a42.3,42.3,0,0,0,4.1,3.3,30.056,30.056,0,0,1,4.8,3.6,8.863,8.863,0,0,1,2.3,5.2,7.568,7.568,0,0,1,.1,1.5,3.816,3.816,0,0,0,.3,1.7c-.8.9-1.6,1.9-2.3,2.8-.9,1.2-1.9,2.3-2.8,3.4-1.9,2.1-4.2,4.2-6.1,6.6a26.7,26.7,0,0,0,4.1-2.2,20.467,20.467,0,0,0,3.5-3,16.585,16.585,0,0,0,2.6-3.9,16.924,16.924,0,0,0,1.3-3.1,11.844,11.844,0,0,0,1.4,2.2l.1.2h.1c-1.5,2.2-3,4.4-4.7,6.6a40.016,40.016,0,0,1-5.9,6.4,31.053,31.053,0,0,1-7.5,4.3,79.81,79.81,0,0,1-8.2,2.9,81.978,81.978,0,0,1-8.6,1.8c-2.9.5-5.7,1.2-8.6,1.6a23.5,23.5,0,0,1-5.1.5,10.883,10.883,0,0,0-.3-2.8c.6-.3,1.4-.9.1-1.4-1.6-.5-3.1.2-3.1.9-.1.6.5.7,1.1.7a6.816,6.816,0,0,1,.2,2.1,2.178,2.178,0,0,1-.8-.5,7.993,7.993,0,0,1-1.3-1.3,5.988,5.988,0,0,1-.8-1.6l-.6-2.1c.6-.9,1.1-2,1.8-3ZM41.7,174.4v-.6a4.253,4.253,0,0,1,.2-1.1c0-.2.1-.4.2-.4q0-.15.3-.3a16.24,16.24,0,0,0,2-1.8,27.858,27.858,0,0,0,3.5-4.2,10.542,10.542,0,0,0,1.3-2.6c.3-1,.3-2,.5-2.7,0-1.1,1.6-1.3,3.1-1.3,0,.6.1,1.1.1,1.7a27.718,27.718,0,0,0,3.1,9.6,26.508,26.508,0,0,0,6.5,7.6,27.263,27.263,0,0,0,8.7,4.7,50.569,50.569,0,0,1-7.7-5.9,31.585,31.585,0,0,1-5.8-7.4,33.581,33.581,0,0,1-2-4.3,25.424,25.424,0,0,1-1.3-4.5c-.1-.5-.2-1.1-.3-1.6l.1-.6a15.718,15.718,0,0,1,1.9-5.9,12.991,12.991,0,0,1,4.1-4.6,34.2,34.2,0,0,1,5.7-3c1.6-.7,3.3-1.3,5-1.9,0,0-1.7,4.2-2.2,5.1a5.324,5.324,0,0,0-.7,3.9,4.779,4.779,0,0,0,.6,1.8,7.972,7.972,0,0,0,.8,1.6c.4.7,3,5.6,3.8,6.8.8,1.1,1.7,2.2,2.5,3.3a72.175,72.175,0,0,0,5.6,6.8c4.1,4,3.8,6.3,8.3,9.4a41.339,41.339,0,0,0,3.5,2.2,27.031,27.031,0,0,1,3.3,2.2,13.8,13.8,0,0,1,4.6,6.3l.1.3-.4,1.1a6.079,6.079,0,0,1-.9,1.8,2.411,2.411,0,0,1-1.2,1.1c-.1,0-.2.1-.4.1H96.9c0-.1.1-.2.1-.3.3-.6.6-1.2.8-1.5.4.1.9,0,1-.3.2-.5-.6-2.1-1.6-2-.9,0-1.3.3-.5,1.4a7.956,7.956,0,0,0-1.8,2.8h-.6c-3.1-.1-6.1-.4-9.2-.7a64.993,64.993,0,0,1-9-1.5c-2.9-.8-15.6-7.5-21.2-10a53.309,53.309,0,0,1-8.3-4.1,16.824,16.824,0,0,1-3.5-3,8.4,8.4,0,0,1-1.9-3.3l.5-.2Zm102,44.6c-14.7,0-29.3.1-44,.2l-44.2.3-44.5.4c.1-1.6.1-3.3.2-5l.2-5c.1-3.4.3-6.7.6-10.1.2-3.3.6-6.7,1-10a20.023,20.023,0,0,1,.4-2.4c.1-.4.2-.8.3-1.1a2.407,2.407,0,0,1,.6-.8,14.387,14.387,0,0,1,4.2-2.4h.1l.1-.1c1.3-1,2.7-2,4.1-2.9a26.073,26.073,0,0,1,4.3-2.4c3-1.3,10.9-2.2,14.1-3.1a9.731,9.731,0,0,0,1.8,3.5,20.5,20.5,0,0,0,3.4,3.2,43.632,43.632,0,0,0,8.2,4.5c5.6,2.7,18.2,9.9,21.2,10.8a37.831,37.831,0,0,0,4.6,1c1.5.2,3.1.5,4.6.7,3.1.4,6.2.6,9.3.8h.2v.1c-.3,2.9,1.6,8.7,2,12.1s-1,6.8-.3,7,2.5.9,2.8-.2.6-10.9-.9-13.9a11.66,11.66,0,0,1-1.3-5.1h1.7c.2,0,.5-.1.8-.1a4.415,4.415,0,0,0,2.3-1.9c.1-.1.1-.2.2-.3,0,.1.1.1.1.2a7.69,7.69,0,0,0,1.8,1.8,7.572,7.572,0,0,0,1.8.9c-.1.5-.1.9-.2,1.3-.4,1.9-2,3.1-1.2,7.2s3.1,6.1,3.4,7.7.4,2.9,1,2.9,2.4-.7,2.7-1.6-.8-3.5-2.3-5.4-2.8-4.6-2.8-6.1c0-1.3.9-3.7,1.3-5.7a130.426,130.426,0,0,0,14.2-2.3,82.594,82.594,0,0,0,8.6-2,59.333,59.333,0,0,0,8.3-3.2,33.59,33.59,0,0,0,7.6-4.8,41.724,41.724,0,0,0,5.8-6.8,61.206,61.206,0,0,0,4.3-6.9h.1l15.4,4.5,2.7,1.1c.9.4,1.8.8,2.6,1.2a24.837,24.837,0,0,1,4.6,3.4l.1.1.6.6.6.9a8.178,8.178,0,0,1,.9,1.9,20.878,20.878,0,0,1,1.1,4.3c.4,3,.6,6.1.8,9.2.4,5.8.7,11.7,1.1,17.5-14.5.2-28.8.2-43.1.3ZM32.8,203.3a16.332,16.332,0,0,0-1.7-4.7,62.5,62.5,0,0,0-5.1-8.2,27.618,27.618,0,0,0-3.1-3.7,11.033,11.033,0,0,0-4.1-2.6,11.579,11.579,0,0,1,3.4,3.2c.9,1.2,1.7,2.6,2.6,3.9,1.6,2.7,3.2,5.4,4.6,8.2a15.083,15.083,0,0,1,1.6,4.1c.3,1.5.4,3.1.6,4.6.3,3.1.6,6.3,1.1,9.5a61.694,61.694,0,0,0,.4-9.6A40.9,40.9,0,0,0,32.8,203.3Zm142.4-17.5a4.523,4.523,0,0,0-2.4,1.4,14.318,14.318,0,0,0-1.5,2.2c-1.8,2.8-3.6,5.7-5.2,8.7-.4.8-.7,1.6-1.1,2.4a4.951,4.951,0,0,0-.4,1.3c-.1.4-.2.9-.3,1.3a43.788,43.788,0,0,0-.4,5.1c-.1,3.4-.1,6.8.1,10.1.6-3.3,1-6.7,1.5-10,.2-1.6.4-3.3.7-4.9a18.2,18.2,0,0,1,1.7-4.4c1.5-3,3.2-5.8,4.7-8.9a20.138,20.138,0,0,1,1.1-2.1,3.708,3.708,0,0,1,1.7-1.3c.7-.3,1.6-.4,2.4-.8a7.994,7.994,0,0,0,2.2-1.3,11.276,11.276,0,0,1-2.4.8c-.7.2-1.5.2-2.4.4Z" transform="translate(-10.7 -139)"/>
        <path id="SvgjsPath10869" d="M173.1,180.5c-3.5-1.5-13.8-3-16.4-4.8,0,0,11.8,6.1,15.9,7.4a18.382,18.382,0,0,0,7.2.9,56.229,56.229,0,0,0-6.7-3.5Zm-32.6-24.6c0-3.2-2.4-7.4-4.1-9.5s-5.4-3.2-6.9-4.3c0,0,.9.9,2.6,2.8s5,6.7,5.6,10.6-2.6,11.3-4.8,14.1-10.8,7.2-14.8,9.5c-3.9,2.4-7.5,5.6-12.1,8.2a5.7,5.7,0,0,0-3,6.9,15.5,15.5,0,0,1,2.2-4.6c1.5-2,7.3-6.1,11.6-7.4s14.3-7.4,18.2-11.1C138.9,167.7,140.5,159.2,140.5,155.9Zm3.2,2.2s1.9,3,3.2,4.8c1.3,1.7,2.4,5.9-1.5,12.4s-15,13.2-15,13.2,9.5-4.3,12.6-6.5c3-2.2,8.9-9.5,9.3-11.3a10.776,10.776,0,0,0-1.5-6.9C149.6,161.6,144.6,159,143.7,158.1ZM84.4,180.7c-3.9-3-11.4-13.2-14.4-17.1s-3.2-8-3.5-10.8c0,0-2.4,2.6-2.8,4.8a8.987,8.987,0,0,0,3.2,8.9c3.7,3,17.5,18,22.7,20.4a45.5,45.5,0,0,1,9.3,5.9,15.1,15.1,0,0,0-2.4-3.9c-1.3-1.5-8.2-5.2-12.1-8.2ZM60,185.4c3.9,1.5,14.5,6.3,17.3,7.4s15.1,3,15.1,3-11.8-3.9-15.8-5.6c-3.8-1.7-16.6-4.8-16.6-4.8Z" transform="translate(-10.7 -139)" fill="#2c2c2c"/>
      </g>
      <g id="svga-group-head" transform="translate(37.442)">
        <g id="svga-group-ears-left-move" transform="translate(0 52.387)">
          <g id="svga-group-ears-left">
            <path id="SvgjsPath8299" d="M68.53,80.36s-11.15-9.8-12.94-9.96c-1.54-.14-5.36,8.01-7.05,13.16a5.866,5.866,0,0,0,.25,4.2c1.62,3.57,5.21,11.04,8.43,14.78a12.436,12.436,0,0,0,3.58.33c.86-.25,7.58-5.67,8.27-7.77s.83-11.3-.54-14.74Z" transform="translate(-48.142 -69.95)" fill="#f0c7b1"/>
            <path id="SvgjsPath8300" d="M69.49,84.19c.18,1.31.28,2.64.33,3.96s.06,2.65-.01,3.98q-.048,1-.17,1.99a7.647,7.647,0,0,1-.2,1.02,3.419,3.419,0,0,1-.46.96,16.382,16.382,0,0,1-2.47,2.8c-.88.84-1.78,1.63-2.71,2.4-.47.38-.93.75-1.42,1.11-.24.18-.49.35-.74.52l-.4.24a1.683,1.683,0,0,1-.53.19,6.784,6.784,0,0,1-1.82-.09c-.58-.08-1.15-.19-1.73-.32l-.13-.03-.08-.1a37.36,37.36,0,0,1-3.74-5.65c-1.1-1.98-2.1-4.03-3.06-6.1l-1.41-3.11a6.135,6.135,0,0,1-.54-3.46,7.594,7.594,0,0,1,.44-1.67c.18-.54.37-1.07.56-1.6.4-1.05.79-2.11,1.22-3.15a40.887,40.887,0,0,1,2.94-6.02,10.792,10.792,0,0,1,1-1.36,3.218,3.218,0,0,1,.67-.59.971.971,0,0,1,.52-.16,1.618,1.618,0,0,1,.47.12,15.946,15.946,0,0,1,2.75,1.76c1.72,1.29,3.37,2.66,5,4.09,1.64,1.41,3.22,2.86,4.81,4.38a17.718,17.718,0,0,1,.91,3.89ZM58.4,72.51a15.634,15.634,0,0,0-2.59-1.61,2.378,2.378,0,0,0-.26-.08.431.431,0,0,0-.2.07,2.033,2.033,0,0,0-.51.44,9.167,9.167,0,0,0-.94,1.24,48.217,48.217,0,0,0-3.11,5.77c-.46,1.01-.92,2.02-1.32,3.06-.2.52-.4,1.04-.59,1.57a7.637,7.637,0,0,0-.45,1.6,5.718,5.718,0,0,0,.55,3.26c.47,1.03.98,2.05,1.49,3.05,1.02,2.02,2.12,3.99,3.26,5.91a39.8,39.8,0,0,0,3.76,5.42l-.21-.13a12.675,12.675,0,0,0,3.29.33.745.745,0,0,0,.28-.11l.35-.22.7-.5c.47-.34.93-.71,1.39-1.08.92-.74,1.81-1.52,2.68-2.34a18.359,18.359,0,0,0,2.39-2.61,2.941,2.941,0,0,0,.38-.72,7.327,7.327,0,0,0,.19-.89c.09-.63.17-1.27.21-1.91.1-1.29.14-2.6.15-3.9s-.04-2.62-.15-3.92a17.533,17.533,0,0,0-.66-3.84c-3.33-2.62-6.67-5.35-10.08-7.86Z" transform="translate(-48.142 -69.95)" fill="#e1ac8f"/>
            <path id="SvgjsPath8301" d="M68.79,88.66S58.04,75.08,56.02,76.21s-5.19,7.53-5.18,9.67c.02,3.14,3.34,8.38,5.01,9.96a6.6,6.6,0,0,0,6.35,1.94c2.66-.61,6.59-9.12,6.59-9.12Z" transform="translate(-48.142 -69.95)" fill="#e1ac8f"/>
            <path id="SvgjsPath8302" d="M60.61,88.64c-.45-1.26-.95-2.5-1.45-3.74S58.1,82.451,57.5,81.26a31.687,31.687,0,0,0-1.97-3.45l-.08-.12-.08.12c-.75,1.18-1.45,2.38-2.12,3.62-.33.62-.66,1.25-.96,1.89s-.57,1.31-.84,1.98l-.04.1.04.12c.46,1.41.96,2.79,1.47,4.18.25.69.54,1.37.83,2.05a17,17,0,0,0,.99,2.01l.19.31.25-.23a6.516,6.516,0,0,0,.87-1.02,8.555,8.555,0,0,0,.69-1.17,5.911,5.911,0,0,0,.6-2.74v-.06l-.02-.04c-.5-.99-1.03-1.96-1.55-2.94l-.05.03c.42,1.01.83,2.03,1.26,3.03a5.833,5.833,0,0,1-.68,2.41,7.28,7.28,0,0,1-1.24,1.65c-.26-.49-.5-1.02-.73-1.56l-.81-2.03c-.53-1.32-1.03-2.66-1.52-3.99a38.442,38.442,0,0,1,1.52-3.82,25.473,25.473,0,0,1,1.96-3.51,24.3,24.3,0,0,1,1.68,3.39l1.54,3.67,1.56,3.67c.52,1.22,1.05,2.45,1.6,3.66l.06-.03c-.41-1.27-.85-2.54-1.31-3.8Z" transform="translate(-48.142 -69.95)" fill="#c27b55"/>
          </g>
        </g>
        <g id="svga-group-ears-right-move" transform="translate(82.014 52.417)">
          <g id="svga-group-ears-right">
            <path id="SvgjsPath8303" d="M131.47,80.36s11.15-9.8,12.94-9.96c1.54-.14,5.36,8.01,7.05,13.16a5.866,5.866,0,0,1-.25,4.2c-1.62,3.57-5.21,11.04-8.43,14.78a12.436,12.436,0,0,1-3.58.33c-.86-.25-7.58-5.67-8.27-7.77s-.83-11.3.54-14.74Z" transform="translate(-130.156 -69.98)" fill="#f0c7b1"/>
            <path id="SvgjsPath8304" d="M131.44,80.33c1.58-1.52,3.17-2.97,4.81-4.38,1.62-1.42,3.28-2.8,5-4.09A15.37,15.37,0,0,1,144,70.1a2.154,2.154,0,0,1,.47-.12,1.031,1.031,0,0,1,.52.16,2.58,2.58,0,0,1,.67.59,10.792,10.792,0,0,1,1,1.36,42.431,42.431,0,0,1,2.94,6.02c.43,1.04.82,2.09,1.22,3.15.19.53.38,1.06.56,1.6a8.194,8.194,0,0,1,.44,1.67,6.135,6.135,0,0,1-.54,3.46l-1.41,3.11c-.97,2.06-1.96,4.11-3.06,6.1a36.384,36.384,0,0,1-3.74,5.65l-.08.1-.13.03c-.58.13-1.15.23-1.73.32a7.746,7.746,0,0,1-1.82.09,1.683,1.683,0,0,1-.53-.19l-.4-.24c-.25-.17-.5-.34-.74-.52-.48-.36-.95-.73-1.42-1.11-.93-.76-1.83-1.56-2.71-2.4a16.771,16.771,0,0,1-2.47-2.8,3.42,3.42,0,0,1-.46-.96,10.168,10.168,0,0,1-.2-1.02c-.08-.67-.14-1.33-.17-1.99-.07-1.33-.07-2.65-.01-3.98s.15-2.65.33-3.96a15.1,15.1,0,0,1,.91-3.89Zm.06.06a16.334,16.334,0,0,0-.66,3.84c-.1,1.3-.15,2.61-.15,3.92s.06,2.61.15,3.9c.05.65.12,1.29.21,1.91.06.31.11.62.19.89a2.635,2.635,0,0,0,.38.72,18.916,18.916,0,0,0,2.39,2.61c.86.81,1.76,1.59,2.68,2.34.46.37.92.73,1.39,1.08l.7.5.35.22a.745.745,0,0,0,.28.11,12.674,12.674,0,0,0,3.29-.33l-.21.13a39.8,39.8,0,0,0,3.76-5.42c1.14-1.92,2.24-3.89,3.26-5.91.51-1.01,1.02-2.02,1.49-3.05a5.718,5.718,0,0,0,.55-3.26,7.471,7.471,0,0,0-.45-1.6c-.19-.53-.38-1.05-.59-1.57-.4-1.04-.86-2.06-1.32-3.06a47.458,47.458,0,0,0-3.11-5.77,9.167,9.167,0,0,0-.94-1.24,2.8,2.8,0,0,0-.51-.44.431.431,0,0,0-.2-.07,2.378,2.378,0,0,0-.26.08,15.633,15.633,0,0,0-2.59,1.61C138.19,75.02,134.85,77.75,131.5,80.39Z" transform="translate(-130.156 -69.98)" fill="#e1ac8f"/>
            <path id="SvgjsPath8305" d="M131.21,88.66s10.75-13.58,12.77-12.45,5.19,7.53,5.18,9.67c-.02,3.14-3.34,8.38-5.01,9.96a6.6,6.6,0,0,1-6.35,1.94C135.14,97.17,131.21,88.66,131.21,88.66Z" transform="translate(-130.156 -69.98)" fill="#e1ac8f"/>
            <path id="SvgjsPath8306" d="M148.54,85.31c-.26-.67-.52-1.34-.84-1.98q-.45-.96-.96-1.89c-.67-1.24-1.38-2.44-2.12-3.62l-.08-.12-.08.12a34.513,34.513,0,0,0-1.97,3.45c-.6,1.18-1.14,2.4-1.66,3.64-.49,1.24-1,2.48-1.45,3.74s-.9,2.53-1.28,3.81l.06.03c.55-1.21,1.07-2.44,1.6-3.66l1.56-3.67,1.54-3.67a24.3,24.3,0,0,1,1.68-3.39,26.072,26.072,0,0,1,1.96,3.51,37.032,37.032,0,0,1,1.52,3.82c-.5,1.34-.99,2.67-1.52,3.99l-.81,2.03c-.23.53-.47,1.07-.73,1.56a7.28,7.28,0,0,1-1.24-1.65,5.686,5.686,0,0,1-.68-2.41c.43-1,.84-2.02,1.26-3.03l-.05-.03c-.52.98-1.05,1.95-1.55,2.94l-.02.04v.06a5.911,5.911,0,0,0,.6,2.74,7.991,7.991,0,0,0,.69,1.17,6.437,6.437,0,0,0,.87,1.02l.25.23.19-.31a18.668,18.668,0,0,0,.99-2.01c.29-.68.57-1.36.83-2.05.51-1.38,1.01-2.77,1.47-4.18l.04-.12-.07-.11Z" transform="translate(-130.156 -69.98)" fill="#c27b55"/>
          </g>
        </g>
        <g id="svga-group-faceshape-wrap" transform="translate(10.97 11.506)">
          <g id="svga-group-faceshape-single">
            <path id="SvgjsPath8381" d="M140.728,54.9c-2.209-10-6.325-16-15.261-20.8-9.338-5-25.3-4.8-25.3-4.8s-15.964-.2-25.3,4.8C66.027,38.9,61.81,44.9,59.6,54.9c-.9,4,0,13.6,0,13.6s2.41,22.3,2.41,28.8-.8,25.8.6,27.9,23.8,23.4,26.808,25.1c3.012,1.6,18.474,1.6,21.486,0s25.4-23,26.808-25.1.6-21.4.6-27.9,2.309-28.9,2.309-28.9,1-9.5.1-13.5Z" transform="translate(-59.2 -29.299)" fill="#f0c7b1"/>
            <path id="SvgjsPath8382" d="M140.728,54.9c-2.209-10-6.325-16-15.261-20.8-9.338-5-25.3-4.8-25.3-4.8s-15.964-.2-25.3,4.8C66.027,38.9,61.81,44.9,59.6,54.9c-.9,4,0,13.6,0,13.6s2.41,22.3,2.41,28.8-.8,25.8.6,27.9,23.8,23.4,26.808,25.1c3.012,1.6,18.474,1.6,21.486,0s25.4-23,26.808-25.1.6-21.4.6-27.9,2.309-28.9,2.309-28.9,1-9.5.1-13.5Zm0,10.1c-.1,1.1-.2,2.3-.3,3.4-.8,6.8-1.606,13.6-2.309,20.4-.2,1.7-.3,3.4-.5,5.1-.1,1.7-.2,3.5-.2,5.2v15.3c0,1.7-.1,3.4-.1,5.1a20.97,20.97,0,0,1-.2,2.5c0,.4-.1.8-.1,1.2a3.583,3.583,0,0,1-.2,1.1l-.1.2-.3.4-.8.9-1.807,1.8c-2.41,2.4-4.92,4.8-7.329,7.1-2.51,2.3-4.92,4.7-7.43,7-1.2,1.2-2.51,2.3-3.815,3.4s-4.428,3.72-4.769,3.97a2.036,2.036,0,0,1-.7.32c-.612.15-1.868.44-2.46.51-1.606.2-3.313.3-5.02.4a42.029,42.029,0,0,1-5.02,0c-1.707-.1-5.723-.5-6.125-.6a4.163,4.163,0,0,1-1.807-.8l-1-.8c-1.305-1.1-2.61-2.2-3.815-3.3-2.51-2.2-5.121-4.5-7.631-6.9-2.51-2.3-5.02-4.6-7.53-7-1.2-1.2-2.51-2.3-3.715-3.5l-.9-.9-.9-.9a2.57,2.57,0,0,1-1.054-1.81c-.1-.8-.151-1.59-.251-2.49a20.819,20.819,0,0,1-.1-2.5c-.1-1.7-.1-3.4-.1-5.1V98.4c0-1.7-.1-3.4-.2-5.1-.5-6.8-1.1-13.6-1.707-20.4L60.3,70a22.766,22.766,0,0,1-.2-2.5c-.1-1.7-.2-3.4-.2-5.1s0-3.4.1-5a19.949,19.949,0,0,1,.4-2.4c.2-.8,2.309-6.8,2.51-7.1a26.665,26.665,0,0,1,2.51-4.3,38.051,38.051,0,0,1,3.313-3.7,28.928,28.928,0,0,1,3.916-3,46.548,46.548,0,0,1,4.317-2.4c.4-.2,2.209-.9,2.209-.9s2.008-.7,2.41-.8a64.651,64.651,0,0,1,9.94-1.9,84.959,84.959,0,0,1,10.141-.6c1.707,0,3.414.1,5.121.2a21.221,21.221,0,0,1,2.51.2c.8.1,1.707.2,2.51.3a48.888,48.888,0,0,1,9.94,2.1,37.834,37.834,0,0,1,4.619,2c.4.2.7.4,1.1.6l1.1.7c.7.5,1.406.9,2.108,1.4a23.03,23.03,0,0,1,6.627,7.6,27.589,27.589,0,0,1,2.008,4.7,44.044,44.044,0,0,1,1.305,4.89,22.076,22.076,0,0,1,.311,3.7c0,1.11-.11,5.21-.211,6.31Z" transform="translate(-59.2 -29.299)" fill="#c27b55"/>
          </g>
        </g>
        <g id="svga-group-mouth-single-move" transform="matrix(0.999, -0.035, 0.035, 0.999, 39.383, 102.459)">
          <g id="svga-group-mouth-single">
            <path id="SvgjsPath9712" d="M0,0A14.163,14.163,0,0,0,8.1,3.758C12.95,4.191,18.079.433,18.079.433S7.813,5.209,0,0Z" transform="translate(3.638 4.163)" fill="#d19271"/>
            <path id="SvgjsPath9713" d="M0,.362A12.771,12.771,0,0,0,2.853,1.468c1.859.481,4.311.761,6.066,1.322,2.4.761,2.821,2.148,3.758,2s1.9-1.859,3.71-2.22,6.94,0,9.112-1.194c0,0-8.727-1.17-13.207-1.322A119.69,119.69,0,0,0,0,.362Z" fill="#bf616e"/>
          </g>
        </g>
        <g id="svga-group-eyes-left-move" transform="translate(21.513 57.256) rotate(8)">
          <g id="svga-group-eyes-left" transform="translate(0)">
            <g id="svga-group-eyesback-left" transform="translate(0.524 0.437)">
              <path id="SvgjsPath10823" d="M11.795,0A11.547,11.547,0,0,1,23.589,11.358,11.547,11.547,0,0,1,11.795,22.716,11.547,11.547,0,0,1,0,11.358,11.547,11.547,0,0,1,11.795,0Z" fill="#fff"/>
            </g>
            <g id="svga-group-eyesiriswrapper-left" transform="translate(7.426 6.902)">
              <g id="svga-group-eyesiriscontrol-left">
                <g id="svga-group-eyesiris-left">
                  <path id="SvgjsPath8416" d="M4.893,0A4.893,4.893,0,1,1,0,4.893,4.885,4.885,0,0,1,4.893,0Z" fill="#392710"/>
                  <path id="SvgjsPath8417" d="M2.621,0A2.574,2.574,0,0,1,5.242,2.621,2.574,2.574,0,0,1,2.621,5.242,2.574,2.574,0,0,1,0,2.621,2.574,2.574,0,0,1,2.621,0Z" transform="translate(2.272 2.272)"/>
                  <path id="SvgjsPath8418" d="M2.184.786,1.66.262A.992.992,0,0,0,.961,0a.992.992,0,0,0-.7.262A.992.992,0,0,0,0,.961a.992.992,0,0,0,.262.7l.524.524a.944.944,0,0,0,.612.262.68.68,0,0,0,.612-.262c.524-.524.524-1.048.175-1.4ZM4.543,5.242a.655.655,0,0,0,0-1.311A.659.659,0,0,0,4.543,5.242Z" transform="translate(2.097 2.009)" fill="#fff"/>
                </g>
              </g>
            </g>
            <g id="svga-group-eyesfront-left">
              <path id="SvgjsPath10831" d="M12.319,0A12.106,12.106,0,0,0,0,11.882,12.106,12.106,0,0,0,12.319,23.764,12.106,12.106,0,0,0,24.638,11.882,12.106,12.106,0,0,0,12.319,0Zm8.213,10.047c-.175.262-1.223,3.757-3.145,5.417s-9.96,3.407-12.232,2.708S2.708,12.494,2.1,11.1C2.1,11.1,21.58,8.125,20.532,10.047Z" fill="#f0c7b1"/>
              <path id="SvgjsPath10833" d="M5.766,12.073a20.273,20.273,0,0,0,3.32-.437,22.851,22.851,0,0,0,3.32-.786l1.573-.524a6.616,6.616,0,0,0,1.573-.786,5.413,5.413,0,0,0,1.223-1.223,8.3,8.3,0,0,0,.874-1.485,19.893,19.893,0,0,0,1.311-3.145.164.164,0,0,0,0-.262c-.087-.087-.087-.087-.175-.087h.175l2.534-2.009S18.609.278,17.386.016C16.251-.246,5.5,2.725,4.543,2.9A32.121,32.121,0,0,0,0,5.084,2.445,2.445,0,0,0,.524,5c.175.437.262.961.437,1.485.087.524.262,1.136.349,1.66A7.2,7.2,0,0,0,1.835,9.8a4.857,4.857,0,0,0,.786,1.485,2.1,2.1,0,0,0,.7.524,2.777,2.777,0,0,0,.786.262h1.66ZM3.32,11.636a1.779,1.779,0,0,1-.612-.524A6.658,6.658,0,0,1,1.485,8.054a11.234,11.234,0,0,0-.349-1.66A9.14,9.14,0,0,0,.786,4.909C3.844,4.56,14.678,3.336,15.552,3.336c.786-.087,2.534,0,3.233,0,.087,0,.175.087.262.175a.164.164,0,0,1,0,.262,19.338,19.338,0,0,1-1.4,3.058,7.918,7.918,0,0,1-.961,1.4,7.545,7.545,0,0,1-1.223,1.136,10.2,10.2,0,0,1-3.058,1.223c-1.048.349-2.184.612-3.233.874a21.85,21.85,0,0,1-3.32.524,10.53,10.53,0,0,1-1.66,0A9.062,9.062,0,0,1,3.32,11.636Z" transform="translate(1.485 6.274)"/>
            </g>
          </g>
        </g>
        <g id="svga-group-eyes-right-move" transform="matrix(0.998, -0.07, 0.07, 0.998, 55.644, 56.551)">
          <g id="svga-group-eyes-right" transform="translate(0 0)">
            <g id="svga-group-eyesback-right" transform="translate(0.6 0.5)">
              <path id="SvgjsPath10824" d="M13.5,0A13.216,13.216,0,0,1,27,13,13.216,13.216,0,0,1,13.5,26,13.216,13.216,0,0,1,0,13,13.216,13.216,0,0,1,13.5,0Z" fill="#fff"/>
            </g>
            <g id="svga-group-eyesiriswrapper-right" transform="translate(9.2 8.6)">
              <g id="svga-group-eyesiriscontrol-right">
                <g id="svga-group-eyesiris-right">
                  <path id="SvgjsPath8419" d="M4.9,0A4.9,4.9,0,1,1,0,4.9,4.908,4.908,0,0,1,4.9,0Z" fill="#392710"/>
                  <path id="SvgjsPath8420" d="M2.6,0A2.647,2.647,0,0,1,5.2,2.6,2.647,2.647,0,0,1,2.6,5.2,2.647,2.647,0,0,1,0,2.6,2.647,2.647,0,0,1,2.6,0Z" transform="translate(2.3 2.3)"/>
                  <path id="SvgjsPath8421" d="M2.2.8C2,.6,1.9.4,1.7.3A.908.908,0,0,0,1,0,1.08,1.08,0,0,0,.3.3.908.908,0,0,0,0,1a1.08,1.08,0,0,0,.3.7c.2.2.4.3.5.5a.908.908,0,0,0,.7.3,1.08,1.08,0,0,0,.7-.3A1.191,1.191,0,0,0,2.2.8ZM4.6,5.3A.65.65,0,0,0,4.6,4C3.8,3.9,3.8,5.3,4.6,5.3Z" transform="translate(2.1 2)" fill="#fff"/>
                </g>
              </g>
            </g>
            <g id="svga-group-eyesfront-right">
              <path id="SvgjsPath10834" d="M14.1,0A13.856,13.856,0,0,0,0,13.6,13.856,13.856,0,0,0,14.1,27.2,13.856,13.856,0,0,0,28.2,13.6,13.856,13.856,0,0,0,14.1,0Zm9.8,18.7c-2.6.7-12.7.7-14.9-1s-3.5-5.2-3.6-5.4c-1.2-1.9,21.1,1.1,21.1,1.1C25.8,14.8,26.5,18.1,23.9,18.7Z" fill="#f0c7b1"/>
              <path id="SvgjsPath10837" d="M19.5,1.7c-1.1-.2-12.6-.9-14-.6S0,0,0,0L2.9,2.2h.2a.1.1,0,0,0-.1.1.188.188,0,0,0,0,.3c.2.5.5,1.1.7,1.6.3.5.5,1,.8,1.5a16.965,16.965,0,0,0,1,1.4l.6.6.3.3a.52.52,0,0,0,.4.2,8.509,8.509,0,0,0,1.7.6c.6.1,1.2.2,1.7.3a20.554,20.554,0,0,0,3.5.2h3.5c1.2-.1,2.3-.1,3.5-.3a3.486,3.486,0,0,0,1.7-.6,3.072,3.072,0,0,0,1-1.5,13.634,13.634,0,0,0,.4-1.7,6.642,6.642,0,0,1,.3-1.5,8.658,8.658,0,0,0,1.1.1A32.776,32.776,0,0,0,19.5,1.7Zm4,3.7a8.586,8.586,0,0,1-.3,1.7,2.3,2.3,0,0,1-.9,1.4,2.834,2.834,0,0,1-1.6.6,40.957,40.957,0,0,1-7,.2c-1.2-.1-2.3-.2-3.5-.3a12.255,12.255,0,0,1-3.3-.8c-.1-.1-.2-.1-.4-.2l-.3-.3-.6-.6A7.551,7.551,0,0,1,4.5,5.7,18.186,18.186,0,0,1,2.9,2.6a.188.188,0,0,1,0-.3c.1-.1.1-.1.2-.1.8,0,2.9-.1,3.8,0S19.6,3.4,23.8,3.8a4.973,4.973,0,0,0-.3,1.6Z" transform="translate(2.5 9.7)"/>
            </g>
          </g>
        </g>
        <g id="svga-group-beardwrap" transform="translate(13.151 81.19)">
          <g id="svga-group-beard-single-move">
            <g id="svga-group-beard-single">
              <g id="Group_4383" data-name="Group 4383">
                <path id="SvgjsPath10049" d="M133.014,90.174l.7.725-.815-4.708s-6.785,7.742-12.2,15.062c-4.193,5.672.75,2.106-2.482,2.5-.807.09-3.414,2.171-5.789,1.638-1.724-.386-3.163-2.731-5.137-3.913-1.706-1.021-4.868-.675-5.976-.791-3.145-.33-6.562-.5-6.562-.5-2.271-.594-5.021.732-7.467,1.062-.9.125-4.338-.28-6.839,1.315-1.81,1.155-3.085,3.741-5.3,4.142-1.286.236-3.624-1.96-4.332-2.423-4.63-3.034-9.534-9.424-14.826-16.287,0,0-.288,2.965.586,2.7,0,0,.175.989.349,7.716a76.457,76.457,0,0,0,3.058,18.269l.874-.725a9.5,9.5,0,0,0,1.136,2.836c.961,1.781,20.88,18.862,22.889,20.445,1.922,1.583,7.6,3.5,7.6,3.5v-.857l2.883.725a8.471,8.471,0,0,0,3.058-1.385l-.349,1.385a16.3,16.3,0,0,0,7.076-3.034c2.97-2.44,16.687-15.631,17.3-16.29l-.612,1.385a39.32,39.32,0,0,0,4.281-3.891A65.379,65.379,0,0,0,131,113.389c.612-1.385,1.835-10.486,1.573-14.839l.524,1.055-.087-9.431Zm-23.151,21.369c-.961,3.166-4.892,6.661-7.251,7.585-.332.13-1.585,1.087-2.427,0-.559-.724-.771-3.564-2.116-4.257-1.713-.884-4.534.194-6.725,0-1.408-.123-1.4,2.945-2.781,3.928-.93.663-3.221-.772-3.948-1.451-3.32-3.166-5.668-6.331-5.843-9.629,2.587,1.073,5.43-1.649,9.791-2.323a52.672,52.672,0,0,1,12.139,0c6.552.132,5.842,3.181,9.773,2.323A13.028,13.028,0,0,1,109.863,111.543Z" transform="translate(-55.486 -86.191)" fill="#2a232b"/>
                <path id="SvgjsPath10050" d="M132.363,85.874l.868.847-.267-1.394c-.045-.469-2.2,2.375-4.812,5.453-2.189,2.356-8.76,10.013-10.67,12.162a15.128,15.128,0,0,1-3.213,3,4.832,4.832,0,0,1-1.65.586c.695-.261-2.692.782-2.258,0a4.022,4.022,0,0,1-2.33-.326c-1.419-.533-3.452-1.663-5.349-1.825-.972-.083-2.23-.347-3.646-.448-2.931-.212-6.473-.223-10.273-.182-2.188.023-2.991,1.174-4.145,1.5a23.029,23.029,0,0,1-3.935.792,15.357,15.357,0,0,1-4.79-.081,11.012,11.012,0,0,1-2.344-.782c-1.476-.586-2.175-1.712-3.3-2.689-2.258-2.345-4.868-4.2-6.165-5.993-1.216-2.345-8.21-10.353-8.3-9.571-.253,2.266-.3,7.552-.3,9.571a53.624,53.624,0,0,0,.434,6.449c.26,2.15.608,4.3,1.042,6.383.434,2.15,1.563,4.3,2.258,6.383l.174.391.434-.326.521-.391a14.771,14.771,0,0,0,.695,1.759,3.634,3.634,0,0,0,.695,1.042,11.765,11.765,0,0,0,.868.912c1.216,1.172,2.518,2.345,3.821,3.517.174.2.434.326.608.521.174.261.434.586.608.847-.087-.2-.174-.326-.26-.521,2,1.824,4.081,3.583,6.078,5.341a4.17,4.17,0,0,0,.608.651c-.087-.065-.087-.2-.174-.261a1.2,1.2,0,0,0,.347.261c.521.456,1.129.912,1.65,1.433.087.13.087.2.174.326v-.2c2,1.759,4.081,3.452,6.078,5.146a.46.46,0,0,1,.174.261c0-.065,0-.065-.087-.13l1.91,1.563a16.115,16.115,0,0,0,2.344,1.433,44.6,44.6,0,0,0,4.949,2.019c0,.065.087.065.087.13v-.13a.391.391,0,0,0,.26.065l.174.065v-.782l2.692.651h.087c.087,0,.087,0,.174-.065v0a8.734,8.734,0,0,0,2.6-1.107l-.26,1.042-.087.2.26-.065a15.676,15.676,0,0,0,7.641-3.452c1.91-1.694,3.821-3.452,5.731-5.146l5.557-5.211c1.563-1.433,3.039-2.866,4.515-4.3l-.087.261-.434.912.868-.717c1.042-.847,2.084-1.694,3.126-2.605a12.351,12.351,0,0,0,1.389-1.433c.434-.521.781-1.042,1.129-1.5.781-1.042,1.476-2.084,2.171-3.127a15.11,15.11,0,0,0,.955-1.563,2.841,2.841,0,0,0,.434-.847c.087-.326.174-.586.26-.912a64.3,64.3,0,0,0,1.042-6.97,51.2,51.2,0,0,0,.347-5.146l.521,1.107-.087-1.889-.141-12.9Zm-22.782,22.67a8.6,8.6,0,0,1-.608,2.475,11.088,11.088,0,0,1-3.039,4.364,13.377,13.377,0,0,1-2.258,1.824l-1.3.782a5.327,5.327,0,0,1-1.476.456,37.41,37.41,0,0,1-6.6.391,31.877,31.877,0,0,1-6.6-.782,9.455,9.455,0,0,1-2.865-1.172,6.036,6.036,0,0,1-1.042-.912,6.185,6.185,0,0,1-.955-1.042c-.38-.422-5.377-7.634-3.894-8.256.377-.159.353.462,1.742.238s2.284-.9,3.813-1.135c1.466-.221,2.327-1.112,4.266-1.381a49.45,49.45,0,0,1,13.919.346c1.065.188,3.7.762,4.857,1.785l2.455.391Zm21.9-19.514a10.8,10.8,0,0,0,.159,3.165c.087.456.261.912.347,1.368l.087,3.452-.521-1.042.087,1.954c.087,1.042,0,2.15,0,3.192-.087-.717-.174-1.368-.26-2.084a20.186,20.186,0,0,0-.695-3.257,20.315,20.315,0,0,0-1.042-3.192L130.68,99.1l.695,4.755c0,.326-.087.651-.087.977a63.148,63.148,0,0,1-1.042,6.9c-.087.261-.174.586-.26.782a3.521,3.521,0,0,1-.434.782c-.347.521-.608,1.042-.955,1.563-.174.261-.434.586-.608.847.261-.717.434-1.5.695-2.28a29.785,29.785,0,0,0,.695-3.973,30.355,30.355,0,0,0,.087-3.973,30.88,30.88,0,0,0-.434-3.973c0,1.3,0,2.671-.087,3.973l-.26,3.908c-.087,1.3-.347,2.605-.521,3.908-.174.977-.347,1.954-.521,2.866-.347.586-.781,1.107-1.129,1.628s-.781,1.042-1.129,1.5-.868.912-1.3,1.368c-.695.651-1.389,1.238-2.171,1.889l.174-.391.434-.977c.347-.391.608-.782.955-1.172.521-.782,1.042-1.563,1.476-2.345a13.007,13.007,0,0,0,1.042-2.475,8.83,8.83,0,0,0,.521-2.54c-.347.782-.695,1.628-1.042,2.41s-.781,1.628-1.129,2.41l-1.3,2.345c-.347.651-.781,1.238-1.129,1.889l-.26.261c-1.129,1.107-2.258,2.15-3.3,3.257a20.184,20.184,0,0,0,1.389-2.15,11.607,11.607,0,0,0,1.216-2.931,12.6,12.6,0,0,0,.521-3c-.26.977-.608,1.954-.955,2.931a17.232,17.232,0,0,1-1.3,2.8c-.521.912-1.042,1.824-1.65,2.736-.347.521-.695.977-1.042,1.433-.087.065-.087.13-.174.2l-5.557,5.276-.087.065a20.919,20.919,0,0,0,1.476-2.15,19.108,19.108,0,0,0,1.563-3.127,14.156,14.156,0,0,0,.868-3.257l-1.3,3.127c-.521,1.042-1.042,2.019-1.65,3s-1.3,1.954-2,2.866a11.458,11.458,0,0,1-1.216,1.5c-1.042,1.042-2.171,2.019-3.3,3a13,13,0,0,1-4.689,2.671,13.214,13.214,0,0,0,2.344-1.628,13.912,13.912,0,0,0,2.084-2.15,9.586,9.586,0,0,0,1.476-2.475,9.246,9.246,0,0,0,.781-2.605,14.205,14.205,0,0,1-1.3,2.475l-1.563,2.345a26.348,26.348,0,0,1-1.91,2.215c-.695.651-1.389,1.3-2.084,1.889a15.426,15.426,0,0,1-2.344.586l.26-1.107a10.4,10.4,0,0,0,2.171-3.127,8.743,8.743,0,0,0,.955-3.843c-.521,1.238-.955,2.475-1.563,3.648-.434.912-.955,1.889-1.476,2.8l-.347.261a7.4,7.4,0,0,1-2.692,1.3c.087-1.107.087-2.215.087-3.322.087-1.238.174-2.41.26-3.648a9.077,9.077,0,0,0-.868,3.648,8.939,8.939,0,0,0,.434,3.387H95.08l-2.865-.717-.174-.065v.782a.391.391,0,0,0-.26-.065,19.88,19.88,0,0,1-.695-3.843,18.1,18.1,0,0,1,.26-4.3,8.376,8.376,0,0,0-.868,4.3,8.479,8.479,0,0,0,1.129,3.778c-1.563-.586-3.126-1.238-4.6-1.889a6.908,6.908,0,0,1-.955-.521,14.2,14.2,0,0,1-1.3-2.15,14.543,14.543,0,0,1-1.129-2.605c-.26-.912-.521-1.759-.695-2.671a14.485,14.485,0,0,1-.174-2.736,7.562,7.562,0,0,0-.26,2.8,14.178,14.178,0,0,0,.521,2.736,9.766,9.766,0,0,0,1.3,2.605,10.459,10.459,0,0,0,1.476,1.824,9.933,9.933,0,0,1-1.042-.717l-2-1.172c-.174-.13-.26-.261-.434-.391a29,29,0,0,1-1.129-2.8c-.521-1.172-.955-2.345-1.389-3.583a9.269,9.269,0,0,0,.781,3.713,8.924,8.924,0,0,0,1.042,1.954L79.8,133.557a34.7,34.7,0,0,1-1.65-3.713,25.043,25.043,0,0,1-1.042-4.364,8.814,8.814,0,0,0,.434,4.494,11.677,11.677,0,0,0,1.563,3.061c-.955-.847-1.91-1.628-2.865-2.475a15.514,15.514,0,0,0-.781-2.671,27.782,27.782,0,0,0-1.476-3.322,25.11,25.11,0,0,0,.868,3.452,21.214,21.214,0,0,0,.868,2.084,8.413,8.413,0,0,0-.868-.717c-.434-.326-.781-.717-1.216-1.042-.521-.912-.955-1.824-1.389-2.736-.695-1.368-1.216-2.736-1.823-4.1a12.564,12.564,0,0,0,1.216,4.234,11.035,11.035,0,0,0,.955,1.628c-.521-.521-1.129-.977-1.65-1.433a26.872,26.872,0,0,1-1.823-3.387,29.731,29.731,0,0,1-1.563-4.625,10.473,10.473,0,0,0,.955,4.82,19.819,19.819,0,0,0,1.216,2.215c-.868-.782-1.737-1.563-2.692-2.345-.26-.521-.434-1.042-.695-1.563-.434-1.042-.781-2.15-1.129-3.257a22.994,22.994,0,0,1-.781-3.322c-.174-1.107-.347-2.215-.434-3.387a14.745,14.745,0,0,0-.087,3.387,21.669,21.669,0,0,0,.608,3.387,22.152,22.152,0,0,0,1.3,3.257c.087.261.26.456.347.717l-2.084-1.954a15.772,15.772,0,0,1-.434-1.954c-.174-.847-.347-1.694-.434-2.54a24.62,24.62,0,0,1-.26-2.605c-.087-.847-.087-1.759-.087-2.605a8.967,8.967,0,0,0-.347,2.605,13.809,13.809,0,0,0,.174,2.671c.174.847.347,1.759.608,2.605a11.6,11.6,0,0,0,.608,1.563c-.174-.2-.347-.326-.521-.521-.26-.326-.608-.586-.868-.912a4.1,4.1,0,0,1-.608-.977,11.827,11.827,0,0,1-.781-2.084l-.087-.456-.174.13c.26-1.107.521-2.15.781-3.257a28.747,28.747,0,0,0,.608-3.908,16.265,16.265,0,0,0-1.3,3.778,15.43,15.43,0,0,0-.26,3.452l-.087.065-.521.391a50.159,50.159,0,0,1-1.216-4.885c.087-1.107.174-2.15.174-3.257.087-1.368.174-2.671.174-4.039a13.064,13.064,0,0,0-.868,4.039v.847c-.26-1.368-.434-2.736-.608-4.169l.608-5.341.695-5.341c-.347.847-.608,1.759-.868,2.605a14.509,14.509,0,0,0-.521,2.671c-.087.912-.174,1.824-.174,2.736a10.1,10.1,0,0,0,.174,2.28.645.645,0,0,0-.087-.391,53.624,53.624,0,0,1-.434-6.449v-.586L58,92.781c.347-1.368-.26-1.5-.608-.065-.087.456-.174.847-.26,1.3-.087-1.238,5.223.356,6.438,2.7.608,1.172,2.147,2.236,2.929,3.344a17.051,17.051,0,0,0,2.963,2.749,13.437,13.437,0,0,0,4,2.559,9.886,9.886,0,0,0,2.431.521h.347c.695.391,2.687,3.238,3.295,4.476a23.263,23.263,0,0,0,3.126,4.494,10.409,10.409,0,0,0,.955,1.042,7.023,7.023,0,0,0,1.129.977,9.363,9.363,0,0,0,2.952,1.238,28.779,28.779,0,0,0,6.686.847,39.331,39.331,0,0,0,6.773-.326,5.386,5.386,0,0,0,1.65-.521c.521-.261.955-.521,1.389-.782a28.738,28.738,0,0,0,2.344-1.889,14.322,14.322,0,0,0,3.213-4.494,13.5,13.5,0,0,0,.608-2.54,3.877,3.877,0,0,1,1.91-1.5,5.531,5.531,0,0,0,2.6-.717,12.265,12.265,0,0,0,3.56-2.931c2-2.15,4.337-3.985,5.552-6.461Z" transform="translate(-55.486 -85.191)" fill="#1b141c"/>
              </g>
            </g>
          </g>
        </g>
        <g id="svga-group-hair-front" transform="translate(8.612)">
          <path id="SvgjsPath8489" d="M142.42,55.29c-.13-2.39-.71-9.41-1.25-10.76a18.67,18.67,0,0,0-4.99-7.22c-3.07-2.66-3.8.08-3.8.08s.57-3.64-.47-5.23-2.29-4.15-5.53-5.56a73.789,73.789,0,0,0-8.3-2.87c-.14,0-4.62-1.48-6.71-1.92s-9.91-1.62-11.77-1.99-4.22-1.01-5.02-1.89-1.42,2.9-.44,3.71l-8.38-2.28c-7.75-3.21-7.11-1.17-4.16,1.45l-.08.03-.4-.1-4.85.87s-4.46-4.41-4.56-2.93a28.42,28.42,0,0,1-.57,3.54s-1.55,2.43-2.09,3.34-2.29,3.78-2.56,5.97-.2,3.37.24,4.35-.113-1.23-.113-1.23a22.94,22.94,0,0,0-3.37,2.66,17.031,17.031,0,0,0-4.42,6.27c-1.15,3.1-1.28,7.89-1.35,9.58s-.24,8.26.13,10.32,1.72,10.76,1.89,11.94,1.35,9.54,1.35,9.54l.95,4.44s-1.04-13.9,2.66-19.46c0,0,.69-13.32,1.85-16.56s1.74-7.3,6.83-11.58a18.6,18.6,0,0,0,10.31,2.55s6.14,4.29,9.5,2.66c0,0,3.65,2.73,7.44,1.41a6.271,6.271,0,0,0,2.75,1.65,4.123,4.123,0,0,0,3.34-.91l.13.05a6.37,6.37,0,0,0,4.63-.93s.95.9,5.51-1.23l8.23-5.94s2.6.51,6.54,6.68a48.415,48.415,0,0,1,2.19,7.12c.64,3.24,1.18,8.06,1.35,10.18s.2,5.02.2,5.02a27.916,27.916,0,0,1,2.23,5.94,100.033,100.033,0,0,1,.71,10.05s1.18-4.15,1.18-4.25,1.18-8.84,1.18-8.84l1.45-9.04c0,.02.54-6.28.41-8.68Z" transform="translate(-56.754 -17.563)" fill="#2a232b"/>
          <path id="SvgjsPath8490" d="M141.44,44.31a15.622,15.622,0,0,0-4.32-6.46,35.86,35.86,0,0,0-5.6-4.39c.22-.75,1.405,3.133,1.405,2.343a9.716,9.716,0,0,0-2.95-6.63,16,16,0,0,0-6.26-3.55,57.827,57.827,0,0,1-6.58-2.44,5.57,5.57,0,0,1-2.49-2.26,4.022,4.022,0,0,1-.15-3.36,4.039,4.039,0,0,0-.09,3.48,5.408,5.408,0,0,0,1.69,2.05,24.055,24.055,0,0,0-2.77-.8c-2.85-.68-5.73-1.07-8.6-1.47-1.43-.2-12.1-.12-11.09.95-1.53-.41-3.06-.79-4.58-1.17-2.64-.7-8.86-.24-7.7.82-1.45-.71-10.44.48-10.75,1.3a11.527,11.527,0,0,1-1.28,2.33c-.52.76-1.02,1.53-1.47,2.34a15.177,15.177,0,0,0-1.88,5.27c-.31,1.88-.975-.783-.275.927.16.41.35.8.54,1.19a22.589,22.589,0,0,0-5.17,4.54A17.4,17.4,0,0,0,59,42.46a15.9,15.9,0,0,0-1.21,3.58,56.962,56.962,0,0,0-.94,14.85,64.437,64.437,0,0,0,.95,7.38l1.23,7.29c.42,2.41.65,4.88,1.12,7.31.44,2.43.92,4.85,1.42,7.27l.4-.05c-.12-1.71-.16-3.42-.19-5.14s0-3.43.12-5.14a18.127,18.127,0,0,1,.89-5.01,25.786,25.786,0,0,1,1.95-4.68l.04-.08v-.09c.13-2.53.31-5.06.56-7.58.28-2.52.56-5.03,1.04-7.51a37.7,37.7,0,0,1,.88-3.67A18.378,18.378,0,0,1,68.6,47.7a29.473,29.473,0,0,1,2.12-3.11c.38-.5.77-1.01,1.18-1.48a7,7,0,0,1,1.07-1.04,12.731,12.731,0,0,0,5.01,2,22.857,22.857,0,0,0,5.15.3,23.127,23.127,0,0,0,3.72,2.11,13.023,13.023,0,0,0,2.99.89,5.216,5.216,0,0,0,2.93-.28,5.456,5.456,0,0,0,1.33.92,9.681,9.681,0,0,0,6.29.54,6.559,6.559,0,0,0,2.71,1.58,4.2,4.2,0,0,0,3.53-.97,4.893,4.893,0,0,0,4.06-.5c.16-.1.3-.22.45-.33a5.928,5.928,0,0,0,3.41-.19,14.631,14.631,0,0,0,3.22-1.53q3-1.89,5.82-4.05c.54-.41,1.07-.84,1.59-1.28a12.711,12.711,0,0,1,2.62,2.18,27.928,27.928,0,0,1,2.53,3.11,12.946,12.946,0,0,1,1.71,3.55,33.741,33.741,0,0,1,1.03,3.86c.56,2.62.88,5.29,1.18,7.96.28,2.67.48,5.36.61,8.04v.09l.04.08a25.493,25.493,0,0,1,1.95,4.68,18.5,18.5,0,0,1,.89,5.01c.11,1.71.15,3.42.12,5.14s-.08,3.43-.19,5.14l.4.05q.795-3.765,1.48-7.56c.22-1.26.43-2.54.59-3.81s.37-2.52.58-3.78L142,67.44c.21-1.27.41-2.54.58-3.82s.23-2.59.28-3.88c.16-5.17.07-10.39-1.42-15.43ZM71.72,42.92c-.46.45-.89.92-1.32,1.4a22.416,22.416,0,0,0-2.33,3.08,25.6,25.6,0,0,0-2.47,7.3,67.081,67.081,0,0,0-1.12,7.59c-.23,2.52-.37,5.04-.38,7.58a26.1,26.1,0,0,0-1.77,4.79,21.3,21.3,0,0,0-.77,5.13c-.08,1.72-.08,3.44-.09,5.16,0,.75.01,1.51.03,2.26-.24-1.48-.48-2.96-.69-4.45-.36-2.43-.55-4.88-.91-7.34-.34-2.45-.75-4.88-1.12-7.31s-.74-4.86-.88-7.29-.15-4.9-.05-7.34a46.441,46.441,0,0,1,.77-7.27c.76-4.63,3.96-8.46,7.69-11.32a16.317,16.317,0,0,0,2.37,3.44,25.808,25.808,0,0,0,4.18,3.65,6.956,6.956,0,0,0-1.14.94Zm6.39.68a11.925,11.925,0,0,1-4.79-2.23c-2.83-2.23-5.42-4.83-6.69-8.16-.68-1.65.045,1.313.285-.437a15.511,15.511,0,0,1,1.62-5.03c.4-.8.84-1.59,1.32-2.36a12.874,12.874,0,0,0,1.05-2.06c-.09,1.28-.17,2.57-.2,3.87a25.337,25.337,0,0,0,.54,6.24c.46,2.08.365-.663,1.525,1.077a36.922,36.922,0,0,0,8.81,8.74c.5.37,1.01.73,1.52,1.08a25.245,25.245,0,0,1-4.99-.73Zm11.8,3.53a11.971,11.971,0,0,1-2.84-1.05,28.4,28.4,0,0,1-5.05-3.39,39.365,39.365,0,0,1-8.45-8.7c-1.1-1.68-.885,1.143-1.355-.787a24.5,24.5,0,0,1-.59-6c0-2.03.18-4.07.27-6.13.05-1.03,2.9-.88,4.28,1.25a13.357,13.357,0,0,0,1,1.81,8.419,8.419,0,0,0,2.33,2.39c1.75,1.26,3.59,2.34,5.17,3.69a12.814,12.814,0,0,1,3.64,4.91c1.68,3.84.785,3.527,2.145,7.647a18.351,18.351,0,0,0,1.29,2.99,5.6,5.6,0,0,0,1.05,1.32,5.454,5.454,0,0,1-2.89.05Zm4.42.52a5.585,5.585,0,0,1-2.1-2.16,18.053,18.053,0,0,1-1.14-2.92c-1.14-4.03-.225-3.747-1.925-7.817a13.2,13.2,0,0,0-3.87-5.29c-1.69-1.41-3.55-2.47-5.28-3.68-.644-.405-3.12-2.293-2.84-3.35.235-.984,3.729-1.165,4.2-.97a18.914,18.914,0,0,0,1.69,1.39,29.6,29.6,0,0,0,6.09,3.21,11.225,11.225,0,0,1,4.66,4.55c2.18,3.91,1.975,3.8,2.645,8.277a20.642,20.642,0,0,0,1.75,6.66,10.876,10.876,0,0,0,2.22,3,9.847,9.847,0,0,1-6.1-.9Zm8.83,2.38a7.961,7.961,0,0,1-4.69-4.61,15.247,15.247,0,0,1-.95-3.24c-.21-1.11-.28-2.23-.41-3.38-.22-2.28.465.1-.065-2.147a23,23,0,0,0-2.49-6.49,11.375,11.375,0,0,0-5.09-4.78,29.555,29.555,0,0,1-6.12-2.95c-1.89-1.23,2.81-1.81,5.51-1.04s5.36,1.43,7.97,2.34a28.833,28.833,0,0,1,7.33,3.58,13.358,13.358,0,0,1,4.89,6.22c.97,2.52.365.6.455,3.337a26.794,26.794,0,0,1-.87,8.17,9.422,9.422,0,0,1-1.77,3.67,4.114,4.114,0,0,1-3.7,1.32Zm7.44-1.58a4.864,4.864,0,0,1-3.93.69,3,3,0,0,0,.32-.3,10.435,10.435,0,0,0,1.96-3.71,28.374,28.374,0,0,0,1.3-8.29c.01-2.81.7-.987-.285-3.677a14.5,14.5,0,0,0-5.22-6.72,27.729,27.729,0,0,0-7.63-3.64q-1.69-.56-3.41-1.02c-.96-1.12,5.15-1.03,6.59-.77s2.87.47,4.3.68c2.86.42,5.72.84,8.49,1.53s5.52,1.64,7.37,3.71a8.908,8.908,0,0,1,1.86,7.75c-.29,1.32-1.935-2-2.505-.7-.6,1.3-1.24,2.59-1.93,3.86a83.921,83.921,0,0,1-4.46,7.4,11.646,11.646,0,0,1-2.82,3.21Zm12.57-6.48c-1.79,1.51-3.69,2.89-5.6,4.27a14.192,14.192,0,0,1-3.06,1.67,6.039,6.039,0,0,1-3.33.41,14.632,14.632,0,0,0,2.58-2.81,73,73,0,0,0,4.72-7.32c.73-1.26,1.41-2.54,2.05-3.85s2.3,2.023,2.645.523a11.643,11.643,0,0,0,.01-4.48,8.662,8.662,0,0,0-2.01-4.05,9.366,9.366,0,0,0-1.63-1.46c1.3.52,2.62.99,3.9,1.51a16.208,16.208,0,0,1,5.88,3.46,8.835,8.835,0,0,1,2.61,5.99c.02,1.1-1.285-2.463-1.765-1.453a11.755,11.755,0,0,1-1.96,2.77,50.009,50.009,0,0,1-5.04,4.82Zm18.68,17.7a64.738,64.738,0,0,1-.8,7.58l-1.17,7.6c-.39,2.55-.59,5.11-.95,7.63-.22,1.58-.47,3.15-.73,4.73q.03-1.125.03-2.25c-.01-1.72-.01-3.44-.09-5.16a21.8,21.8,0,0,0-.77-5.13,26.1,26.1,0,0,0-1.77-4.79c-.01-2.69-.17-5.37-.43-8.05a66.539,66.539,0,0,0-1.27-8.04,19.644,19.644,0,0,0-3.07-7.58,24.589,24.589,0,0,0-2.73-3.04,12.538,12.538,0,0,0-2.77-2.02,35.906,35.906,0,0,0,3.55-3.43,13.1,13.1,0,0,0,2.14-2.96,9.173,9.173,0,0,0,.46-1.17,39.361,39.361,0,0,1,5.28,4.62,15.417,15.417,0,0,1,3.93,6.33,34.81,34.81,0,0,1,1.09,7.49q.225,3.825.07,7.64Z" transform="translate(-56.754 -17.563)" fill="#1b141c"/>
        </g>
        <path id="Path_26948" data-name="Path 26948" d="M0,0H1.291L1.2,4.608H.331Z" transform="matrix(1, -0.017, 0.017, 1, 50.929, 95.505)" fill="#e2b7a1"/>
        <g id="svga-group-nose-single-move" transform="matrix(1, -0.017, 0.017, 1, 42.223, 72.706)">
          <g id="svga-group-nose-single">
            <path id="SvgjsPath9758" d="M14.927,9.749a3.7,3.7,0,0,1-2.948.074c-.872-.3-1.914.725-2.277,1.187a2.288,2.288,0,0,1-3.033.955c-1.713-.84-1.659-1.648-2.585-1.953s-1.6.693-2.639.3S-.075,8.867.01,7.376A19.01,19.01,0,0,1,1.152,2.168c.509-1.092,7.957-4.515,13.405.451a12.955,12.955,0,0,1,1.127,4.536c-.023,2.026-.108,2.247-.756,2.593Z" transform="translate(0.27 10.421)" fill="#f0c7b1"/>
            <path id="SvgjsPath9759" d="M4.13,1.274c-.309,1.008-1.24,7.834-2.265,12.5A25.859,25.859,0,0,1,.55,17.02a5.4,5.4,0,0,0,.107,2.152l.08.231c.036.074.08.136.115.21a.935.935,0,0,0,.133.2c.053.053.089.126.142.168a1.523,1.523,0,0,0,.737.41,3.784,3.784,0,0,0,1.794-.136l.471-.126.249-.063.133-.032.16-.021a2.007,2.007,0,0,1,1.128.326,10.951,10.951,0,0,1,1.67,1.354l.187.168c.062.042.107.084.169.126a1.587,1.587,0,0,0,.373.178,2.3,2.3,0,0,0,.844.126,2.356,2.356,0,0,0,1.572-.63l.151-.168.187-.21a5.323,5.323,0,0,1,.4-.4,5.1,5.1,0,0,1,.9-.672,3.259,3.259,0,0,1,1.039-.389,1.839,1.839,0,0,1,.888.074l.258.115a2.523,2.523,0,0,0,.844.179,4.557,4.557,0,0,0,.924-.032,2.438,2.438,0,0,0,1.6-.735,1.733,1.733,0,0,0,.275-.9,5.728,5.728,0,0,0-.009-1.1c-.041-.5-1.762-1.361-2.365-4.047C14.674,8.8,14.34.934,13.972,0c.459.841.993,8.025,2.23,13.123.569,2.345,2.162,3.683,2.256,4.233a6.766,6.766,0,0,1,.08,1.207,2.45,2.45,0,0,1-.329,1.26,2.212,2.212,0,0,1-.915.745,4.431,4.431,0,0,1-1.013.325,4.836,4.836,0,0,1-1.03.094,2.951,2.951,0,0,1-1.084-.2l-.2-.084a1.051,1.051,0,0,0-.178-.032,1.239,1.239,0,0,0-.391.021,2.65,2.65,0,0,0-.808.336,5.046,5.046,0,0,0-.755.588c-.115.116-.231.231-.346.357l-.169.189-.213.22a3.079,3.079,0,0,1-2.061.861,3.026,3.026,0,0,1-1.093-.178,2.765,2.765,0,0,1-.524-.262c-.08-.053-.169-.126-.249-.189l-.2-.178a12.576,12.576,0,0,0-1.537-1.292,1.439,1.439,0,0,0-.746-.262h-.08l-.107.021-.231.053-.489.115a4.009,4.009,0,0,1-2.087.042,2.114,2.114,0,0,1-.986-.63,2.634,2.634,0,0,1-.586-1.113,5.773,5.773,0,0,1,0-2.436c.062-.341.3-.544.586-1.269.1-.28.986-2.294.986-2.294L4.13,1.274Z" fill="#c27b55"/>
            <path id="SvgjsPath9760" d="M5.173.756A2.143,2.143,0,0,0,3.136.273c-.094.021-.178.042-.262.063A1.8,1.8,0,0,0,1.844,0,1.879,1.879,0,0,0,.532.546a1.886,1.886,0,0,0,0,2.625c1.2,1.281,3.874,1.648,4.893-.084A1.98,1.98,0,0,0,5.173.756Z" transform="translate(6.056 15.214)" fill="#f8d5c3"/>
          </g>
        </g>
      </g>
    </g>
    <path id="SvgjsPath8396" d="M27.566,7.3s-2.289,2.738-5.328,1.286S10.087,3.4,9.239,3.521,3.839,2.063,0,5.832C0,5.832.708,3.1,9.547,0L27.566,7.3Z" transform="matrix(0.97, -0.242, 0.242, 0.97, 53.011, 58.423)" fill="#2a232b"/>
    <path id="SvgjsPath8396-2" data-name="SvgjsPath8396" d="M30.281,1.9S27.767-1.144,24.428.473,11.081,6.253,10.15,6.117,4.217,7.741,0,3.545c0,0,.778,3.038,10.488,6.494L30.281,1.9Z" transform="translate(123.649 67.666) rotate(-167)" fill="#2a232b"/>
  </g>
</svg>
