<svg id="sepide" xmlns="http://www.w3.org/2000/svg" width="200" height="220" viewBox="0 0 200 220">
  <g id="svga-group-backs-single">
    <path id="SvgjsPath5564" d="M0,0H200V220H0Z" fill="#9de0ad"/>
  </g>
  <g id="svga-group-humanwrap-move" transform="translate(27.9 28.673)">
    <g id="svga-group-humanwrap">
      <g id="svga-group-humanbody-back" transform="translate(4.827 72.827)">
        <path id="SvgjsPath3998" d="M77.8,105.9s4.8,37.7,10,55.8c0,0-6.4,8.8-14.5,11.9-28.7,11.2-35,11.2-39.6,15.2-2.4,2.1.2,11.1,1.8,17.2a83.315,83.315,0,0,1,1.7,13.2H169.4s1.6-33-.6-39.8-7.1-2.9-21.9-4.5-28.7-10.3-31-13.2l.3-60-38.4,4.2Z" transform="translate(-32.727 -101.7)" fill="#f3d4cf"/>
      </g>
      <g id="svga-group-chinshadow-single" transform="translate(49.8 72.82)">
        <path id="SvgjsPath3994" d="M85.6,152.8c6.6,3.5,10.7,3.5,10.7,3.5s8,0,19.6-9.5l.2-45.2-38.4,4.2c.1.1,3.6,27.7,7.9,47Z" transform="translate(-77.7 -101.6)" fill="#d4958a"/>
      </g>
      <g id="svga-group-humanbody-front" transform="translate(4.085 72.027)">
        <path id="SvgjsPath3999" d="M72.1,183.1s14.6-.2,20.4,2.6c5.8,2.9,12.7,2.4,16.1-1s21.6-7,21.6-7-19.7,1.9-25,4.6-22.3-2.8-33.1.8Z" transform="translate(-31.985 -100.9)" fill="#d4958a"/>
        <path id="SvgjsPath4000" d="M74.2,173.2c6.7-1.3,14.7-6.4,14.7-6.4l6.2,5.5c-4.3-7.9-12.7-41.1-12.7-41.1l-.7.7a295.669,295.669,0,0,0,6.1,29.7s-6,8.2-13.6,11.6Z" transform="translate(-31.985 -100.9)" fill="#d4958a"/>
        <path id="SvgjsPath4001" d="M170.7,188.5c-.1-2.1-.2-4.1-.4-6.2a19.848,19.848,0,0,0-.6-3.2c-.2-.5-.4-1-.6-1.6a6.528,6.528,0,0,0-1-1.5,3.269,3.269,0,0,0-1.5-1.1,11.505,11.505,0,0,0-1.7-.6,17.745,17.745,0,0,0-3.2-.2c-2.1,0-4.1.1-6.1.1s-4-.1-6-.2-4-.4-6-.7c-1-.2-2-.4-2.9-.6l-1.5-.4c-.5-.1-1-.3-1.4-.4a66.742,66.742,0,0,1-11.2-4.4l-1.3-.7-1.3-.7a9.129,9.129,0,0,1-1.3-.8c-.4-.3-.9-.5-1.3-.8a14.8,14.8,0,0,0-1.3-.8l-1.2-.9-.6-.5-.3-.2-.3-.2c-.2-.2-.4-.3-.5-.5l-.2-.3V116.5l-.1-15v-.6l-.6.1c-6.4.8-12.9,1.5-19.3,2.3l-19.1,2.3v.5l.1.4.1.9.2,1.8c.1,1.2.3,2.3.4,3.5l.9,7c.6,4.7,1.3,9.4,2.1,14,.8,4.7,1.5,9.3,2.5,14,.9,4.5,1.8,9,3,13.5a44.823,44.823,0,0,1-3.6,4,52.964,52.964,0,0,1-4.3,3.8,29.7,29.7,0,0,1-4.8,3l-1.3.6c-.4.2-.9.3-1.3.5l-2.7,1c-7.2,2.7-14.5,5.3-21.8,7.7l-5.5,1.8a42.038,42.038,0,0,0-5.5,2.2c-.4.2-.9.5-1.3.7a10.144,10.144,0,0,0-1.3.9l-.6.5a2.407,2.407,0,0,0-.6.8,4.939,4.939,0,0,0-.5,1.6,10.728,10.728,0,0,0,0,3.1c.1,1,.3,2,.4,2.9.4,1.9.8,3.8,1.3,5.7l.8,2.8a22.912,22.912,0,0,1,.7,2.8,56.223,56.223,0,0,1,.9,5.7c.2,1.9.4,3.8.5,5.7v.8H170.1V219c.2-4.1.4-8.2.5-12.3s.2-8.2.2-12.3c0-1.8-.1-3.8-.1-5.9Zm-67.4,30.3H70.2l-16.5-.1-16-.1c-.1-1.8-.2-3.5-.4-5.3a57.712,57.712,0,0,0-.8-5.8c-.2-1-.4-1.9-.7-2.9l-.7-2.8a55.942,55.942,0,0,1-1.2-5.6,26.955,26.955,0,0,1-.4-2.8,12.178,12.178,0,0,1,0-2.7,3.582,3.582,0,0,1,.4-1.1,1.38,1.38,0,0,1,.3-.4l.5-.4a10.475,10.475,0,0,1,1.1-.8c.4-.2.8-.5,1.2-.7a48.133,48.133,0,0,1,5.3-2l5.5-1.8c7.3-2.4,14.6-5,21.8-7.8l2.7-1c.5-.2.9-.3,1.4-.5l1.4-.6a32.652,32.652,0,0,0,5-3.2,40.868,40.868,0,0,0,4.4-3.9,32.344,32.344,0,0,0,3.8-4.5l.2-.3-.1-.3c-1.3-4.5-2.3-9.1-3.3-13.7s-1.9-9.3-2.7-13.9-1.6-9.3-2.4-14l-2.2-13.9,19.3-1.8c6.2-.6,12.3-1.2,18.5-1.8l-.2,14.4-.2,15-.3,30v.4l.2.2.6.7.6.6.3.3.3.2.6.5c.4.3.9.6,1.3.9s.9.6,1.3.9.9.5,1.3.8.9.5,1.3.8l1.4.8,1.4.7c.5.2.9.5,1.4.7l1.4.7c1,.4,1.9.8,2.9,1.2s1.9.8,2.9,1.1l1.5.5a8.33,8.33,0,0,0,1.5.4c.5.1,1,.3,1.5.4l1.5.4c1,.3,2,.4,3,.6a61.729,61.729,0,0,0,6.2.8c2.1.2,4.1.2,6.2.2s4.1-.1,6.1-.1,4,.1,5,1.3a7.139,7.139,0,0,1,1.2,2.3,27.973,27.973,0,0,1,.6,2.8c.3,2,.4,4,.5,6s.1,4.1.2,6.1c.1,7.9-.1,15.8-.4,23.7-10.8.1-21.5.1-32.3.2H103.3Z" transform="translate(-31.985 -100.9)" fill="#c5796d"/>
        <path id="SvgjsPath4002" d="M150.7,219.2,147,198l-.4,21.2Z" transform="translate(-31.985 -100.9)" fill="#d4958a"/>
        <path id="SvgjsPath4003" d="M47.3,203.5s2.2,11.5,2.9,15.7h3.5Z" transform="translate(-31.985 -100.9)" fill="#d4958a"/>
      </g>
      <g id="svga-group-clothes-single" transform="translate(0 135.687)">
        <path id="SvgjsPath5574" d="M70.5,188.4s17.7,11.1,20.6,13.2c2.9,2.2,13.3,5.2,13.3,5.2s13.5-6.3,15.2-7.7,16.3-17.4,16.3-17.4v38H71.7Z" transform="translate(-27.9 -164.56)" fill="#fff"/>
        <path id="SvgjsPath5575" d="M73.7,175c.4-1.1,6.3-6.7,6.3-6.7l-5.9.3L55,175.1l3.5,1.3s-17.8,6.5-20.2,6.7c-2.5.2-7.2,0-7,2.8,0,0-2.8,1.5-2.8,3.4s6.1,20.2,8.3,30.4H83.9s-7.1-19.1-8.2-23.6c-1.3-4.5-2.4-19.9-2-21.1Zm98.9-.1a4.183,4.183,0,0,0-3-.3s-.1-2.9-1.2-3-7.7.8-11.9,1.2-13.1-.3-13.1-.3l1.2-1.1c-2.9-.1-16.2-6-17.9-6.5a22.785,22.785,0,0,0-5.4-.3s3.6,2.6,4.2,3.8,6.9,20.1,6.5,24.5-5,26.9-5,26.9h45.5c.1,0,1.3-44.2.1-44.9Z" transform="translate(-27.9 -164.56)" fill="#256e0f"/>
        <path id="SvgjsPath5576" d="M173.6,177.7a7.568,7.568,0,0,0-.1-1.5,2.2,2.2,0,0,0-.1-.8.6.6,0,0,0-.1-.4c0-.1-.1-.2-.1-.3a.451.451,0,0,0-.3-.3l-.1-.1a4.075,4.075,0,0,0-1.8-.5h-.8a4.253,4.253,0,0,0-.2-1.1,4.18,4.18,0,0,0-.4-1,2.652,2.652,0,0,0-.5-.6,1.6,1.6,0,0,0-.8-.3,10.888,10.888,0,0,0-1.9.1l-1.8.2-7.1.8a53.877,53.877,0,0,1-7,.3c-1.7-.1-3.5-.1-5.2-.2l1.1-1-1.8-.2c-.8-.1-1.8-.4-2.8-.6-1-.3-1.9-.6-2.9-.9l-5.7-2.1c-1.9-.7-3.8-1.4-5.8-2.1a8.282,8.282,0,0,0-3.1-.4h-3.1a.1.1,0,0,0-.1.1l.1.1.1.1.2.1.3.3.7.6a15.38,15.38,0,0,1,1.3,1.2,14.2,14.2,0,0,1,1.2,1.3c.2.5.4,1.1.6,1.6.7,2.3,1.4,4.6,2.1,7,.7,2.3,1.3,4.7,1.9,7,.2,1,.5,2,.7,3-.6.6-1.2,1.3-1.8,1.9-2.4,2.4-4.7,4.9-7.1,7.3l-1.8,1.8a5.5,5.5,0,0,1-.9.7,10.911,10.911,0,0,1-1.1.6c-1.5.8-3,1.5-4.5,2.3l-8.9,4.3c-3-.9-5.9-1.9-8.8-3a18.328,18.328,0,0,1-4.2-2.1c-1.4-.9-2.7-1.8-4.1-2.6-2.8-1.7-5.5-3.4-8.3-5.1l-3.4-2c-.6-3.8-1-7.7-1.3-11.6-.1-1.1-.2-2.3-.2-3.4v-.8a.735.735,0,0,1,.2-.6c.3-.4.7-.9,1-1.3.7-.9,1.5-1.7,2.3-2.6l1.2-1.3.6-.6.3-.3.2-.2.1-.1a.349.349,0,0,0,.1-.2H73.8c-3.2,1-6.4,2-9.7,3-3.2,1-6.4,2-9.6,3.1l-2.1.7,2.1.8,1.3.5c-3.9,1.4-7.9,2.7-11.8,4.1-1.2.4-2.3.8-3.5,1.1a15.428,15.428,0,0,1-1.7.5c-.3.1-.5.1-.8.2l-.9.1a26.453,26.453,0,0,0-3.8.5,5.474,5.474,0,0,0-1.9.9l-.4.4-.3.6a1.268,1.268,0,0,0-.1.6v.2a10.1,10.1,0,0,0-1.6,1.3,3.84,3.84,0,0,0-1.1,2.3,3.73,3.73,0,0,0,.2,1.2c.1.4.2.7.3,1.1.2.7.4,1.4.6,2.2l2.6,8.6c.9,2.9,1.7,5.8,2.5,8.7s1.5,5.8,2.1,8.8l.1.4,136.8.1v-.5c.1-4,0-8,.1-12l.2-12,.2-12v-6ZM168.2,172.4Zm-108,46.5-8.9.1c-.2-3.1-.6-6.2-1.1-9.3-.5-3.5-1.1-7-1.7-10.4l-.5-2.6-.3-1.3a3.091,3.091,0,0,0-.2-.8,4.347,4.347,0,0,0-.4-.7,7.863,7.863,0,0,0-2.1-2,14.165,14.165,0,0,0-2.3-1.4,41.341,41.341,0,0,0-10-3.6,103.606,103.606,0,0,1,9.3,5,12.717,12.717,0,0,1,3.7,3.1.758.758,0,0,1,.2.4,2.034,2.034,0,0,1,.1.5l.2,1.3.5,2.6c.7,3.4,1.4,6.9,2.2,10.3.7,3,1.5,6,2.3,9H48.6l-11.4.2c-.7-2.8-1.5-5.6-2.3-8.4l-2.5-8.7c-.8-2.9-1.7-5.8-2.4-8.7a17.417,17.417,0,0,1-.5-2.2,4.253,4.253,0,0,1-.2-1.1,3.751,3.751,0,0,1-.1-1,2.4,2.4,0,0,1,.9-1.6,6.57,6.57,0,0,1,1.7-1.2l.3-.2v-.4a1.173,1.173,0,0,1,.5-1.1,3.506,3.506,0,0,1,1.4-.6,20.158,20.158,0,0,1,3.6-.3h1c.3-.1.7-.1,1-.2a12.092,12.092,0,0,0,1.8-.5c1.2-.4,2.4-.7,3.6-1.1,4.7-1.5,9.4-3.2,14-4.9l.8-.3c.1.1.2.1.4.1l2.1.6c.5.1.9.1,1.4.2-.5.4-1.1.8-1.6,1.2-1.1.9-2.2,1.7-3.2,2.6s-2.1,1.8-3.2,2.7l-.6.5.4.6c.9,1.3,1.8,2.7,2.6,4,.9,1.3,1.8,2.7,2.6,4,.4.7.8,1.4,1.1,2,.3.7.7,1.4,1,2.1l1.9,4.4c2.4,5.6,4.9,11.2,7.6,16.6-4.2.4-8.1.5-12.1.5Zm12-.1c-.8-2.8-1.8-5.5-2.7-8.3-1.1-3-2.2-6.1-3.3-9.1l-1.8-4.5a22.877,22.877,0,0,0-1-2.3c-.4-.8-.8-1.5-1.2-2.2-1.6-2.6-3.3-5-5-7.4.8-.8,1.6-1.5,2.4-2.3l3-2.9c2-1.9,4.1-3.7,6.1-5.7-1.6,1.1-3.2,2.2-4.8,3.4-.5-.2-1-.5-1.5-.7-.4-.2-.8-.3-1.3-.5l-.6-.2a.1.1,0,0,1-.1-.1.349.349,0,0,1-.2-.1l-1.2-.4-1.4-.5c2.5-.9,4.9-1.8,7.4-2.7,3.2-1.1,6.3-2.3,9.4-3.5,1.8-.1,3.6-.4,5.6-.6l-.2.1-.3.3-.7.6-1.3,1.2c-.8.8-1.7,1.6-2.5,2.4a15.378,15.378,0,0,0-1.2,1.3c-.1.1-.2.3-.3.4a1.087,1.087,0,0,0-.1.5c0,.3-.1.6-.1.9v3.5a132.194,132.194,0,0,0,1.1,13.9,21.689,21.689,0,0,0,.7,3.5c.3,1.1.7,2.2,1,3.4.7,2.2,1.4,4.4,2.2,6.6,1.3,3.9,2.7,7.8,4.1,11.6a87.83,87.83,0,0,1-10.2.4Zm15.6,0H84.6L80,206.4l-2.3-6.5c-.4-1.1-.8-2.2-1.1-3.2a32,32,0,0,1-.7-3.3c-.1-.4-.1-.9-.2-1.3l2.8,1.9,8.1,5.4c1.3.9,2.7,1.8,4,2.8a19.121,19.121,0,0,0,4.5,2.3c3,1.3,6.1,2.3,9.2,3.3l.3.1.3-.1c3.1-1.4,6.2-2.9,9.2-4.4l4.5-2.4a4.129,4.129,0,0,0,1.1-.7,10.629,10.629,0,0,0,1.1-.9c.6-.6,1.2-1.2,1.8-1.9,2.3-2.5,4.6-5.1,6.8-7.6l1.3-1.5c.2,1,.4,2,.5,2.9l.1.9v.8l-.3,1.8-.6,3.6-1.4,7.1-2.7,13.7c-7.4-.1-14.9-.1-22.3-.2-5.5-.2-10.9-.2-16.2-.2Zm50.6,0-10.1-.1c.9-4.4,1.7-8.7,2.5-13.1.4-2.4.9-4.8,1.2-7.2l.6-3.6a11.075,11.075,0,0,0,.2-1.9v-1l-.1-1c-.4-2.5-1-4.9-1.6-7.2-.7-2.4-1.4-4.7-2.2-7s-1.6-4.6-2.5-6.9a6.528,6.528,0,0,0-.8-1.7,17.877,17.877,0,0,0-1.3-1.4c-.5-.4-1-.8-1.4-1.1l-.8-.5-.4-.3-.1-.1h1.3c.5,0,1,.1,1.5.1a9.367,9.367,0,0,1,2.9.6l5.6,2.4c1.9.8,3.8,1.6,5.7,2.3.9.4,1.9.7,2.9,1.1.5.2,1,.3,1.5.5h-.1l-.7.6a7.633,7.633,0,0,0-1.1.8,29.563,29.563,0,0,0-2.6,2.4,34.71,34.71,0,0,0-3.7-2.1c1.2.9,2.5,1.9,3.7,2.9l1.8,1.5a13.736,13.736,0,0,0,2,1.3c1.4.8,2.8,1.5,4.2,2.2a35.393,35.393,0,0,0,3.4,1.6c-1.4,2.6-2.8,5.3-4.1,8l-2.1,4.5a32.941,32.941,0,0,0-1.9,4.7c-.4,1.7-.8,3.3-1.1,4.9s-.6,3.2-.9,4.9c-.5,3.1-1,6-1.4,8.9Zm34.1-11c-.1,3.8-.3,7.6-.4,11.5-4.1-.1-8.1-.2-12.2-.2.4-3.5.6-7,.7-10.6.1-3.9.2-7.8.1-11.7,0-1-.1-2-.1-3l-.1-.8v-.5a5.02,5.02,0,0,1,.2-1.2,38.5,38.5,0,0,1,2.2-5.2c1.8-3.4,3.7-6.8,5.8-10.1a53.8,53.8,0,0,0-7.2,9.3,24.5,24.5,0,0,0-2.6,5.4,4.146,4.146,0,0,0-.3,1.6v.9l.1.7a27.148,27.148,0,0,1,.1,2.9c.1,3.9.2,7.8.4,11.7.1,3.5.3,7,.7,10.6-3.3-.1-6.5-.1-9.8-.1l-11.1-.1c.8-2.8,1.5-5.7,2.3-8.5.8-3.2,1.6-6.4,2.5-9.5.2-.7.6-1.4.9-2.2l1-2.2,2.2-4.4,4.4-8.9.4-.9-.9-.4c-2.9-1.2-5.8-2.4-8.6-3.7a21.16,21.16,0,0,1-2.1-1.1c-.6-.4-1.3-.9-1.9-1.3a.1.1,0,0,1-.1-.1,5.91,5.91,0,0,0,1.4-.6,9.062,9.062,0,0,0,1.6-1.1,9.015,9.015,0,0,1,1-.9l.6.1c2.4.2,4.8.4,7.1.5a43.324,43.324,0,0,0,7.2-.2l7.1-.8,1.8-.2a9.735,9.735,0,0,1,1.6-.1l.1.1a3.329,3.329,0,0,1,.3.6c.1.5.2,1.1.3,1.6l.1.9.9-.2a3.56,3.56,0,0,1,2.3.1v.2c0,.2.1.5.1.7a7.568,7.568,0,0,1,.1,1.5l.3,6c.1,4,.2,8,.1,12-.4,3.9-.5,7.9-.6,11.9Z" transform="translate(-27.9 -164.56)" fill="#124f00"/>
      </g>
      <g id="svga-group-head" transform="translate(16.319)">
        <g id="svga-group-ears-left-move" transform="translate(0 53.217)">
          <g id="svga-group-ears-left">
            <path id="SvgjsPath3946" d="M62.22,91.07s-9.85-8.65-11.43-8.8c-1.36-.13-4.73,7.07-6.22,11.62a5.2,5.2,0,0,0,.22,3.7c1.43,3.16,4.6,9.75,7.44,13.05a10.965,10.965,0,0,0,3.16.29c.76-.23,6.69-5,7.3-6.86s.74-9.97-.47-13Z" transform="translate(-44.219 -81.89)" fill="#f3d4cf"/>
            <path id="SvgjsPath3947" d="M63.07,94.44a34.166,34.166,0,0,1,.29,3.5c.05,1.17.05,2.34-.01,3.51-.03.59-.08,1.17-.15,1.76-.05.3-.09.59-.17.9a3.05,3.05,0,0,1-.41.85,15,15,0,0,1-2.18,2.48c-.78.74-1.58,1.44-2.39,2.12-.41.33-.82.67-1.25.98-.21.16-.43.31-.65.46l-.35.22a1.557,1.557,0,0,1-.47.17,6.066,6.066,0,0,1-1.61-.08c-.51-.07-1.02-.17-1.53-.28l-.12-.03-.07-.09a32.658,32.658,0,0,1-3.3-4.99c-.97-1.75-1.85-3.56-2.7-5.38l-1.25-2.75a5.409,5.409,0,0,1-.48-3.05,7.155,7.155,0,0,1,.39-1.48c.16-.47.33-.94.5-1.41.35-.93.7-1.86,1.07-2.78a36.326,36.326,0,0,1,2.59-5.32,8.388,8.388,0,0,1,.88-1.2,2.556,2.556,0,0,1,.6-.52.894.894,0,0,1,.46-.14,1.724,1.724,0,0,1,.42.1,13.108,13.108,0,0,1,2.43,1.56c1.52,1.14,2.98,2.35,4.41,3.61s2.85,2.53,4.24,3.87a15.53,15.53,0,0,1,.81,3.41ZM53.28,84.13a13.581,13.581,0,0,0-2.29-1.42,1.834,1.834,0,0,0-.23-.07.363.363,0,0,0-.18.06,1.593,1.593,0,0,0-.45.39,8.44,8.44,0,0,0-.83,1.09,42.792,42.792,0,0,0-2.74,5.1c-.41.89-.81,1.78-1.16,2.71-.18.46-.35.92-.52,1.39a6.455,6.455,0,0,0-.4,1.41,5.108,5.108,0,0,0,.49,2.88q.63,1.365,1.32,2.7c.9,1.78,1.87,3.52,2.88,5.22a36,36,0,0,0,3.32,4.79l-.19-.11a11.014,11.014,0,0,0,2.91.29.771.771,0,0,0,.25-.1l.31-.2.62-.45c.41-.3.82-.63,1.23-.95.81-.66,1.6-1.34,2.37-2.06a16.926,16.926,0,0,0,2.11-2.3,2.541,2.541,0,0,0,.33-.63c.07-.24.12-.51.17-.78.08-.55.15-1.12.19-1.69.08-1.14.12-2.29.13-3.45s-.04-2.31-.13-3.46a14.248,14.248,0,0,0-.59-3.39c-2.96-2.34-5.91-4.75-8.92-6.97Z" transform="translate(-44.219 -81.89)" fill="#e4b3ab"/>
            <path id="SvgjsPath3948" d="M62.45,98.39S52.96,86.4,51.18,87.4s-4.58,6.65-4.57,8.53c.02,2.77,2.95,7.4,4.42,8.8a5.8,5.8,0,0,0,5.6,1.71c2.35-.54,5.82-8.05,5.82-8.05Z" transform="translate(-44.219 -81.89)" fill="#e4b3ab"/>
            <path id="SvgjsPath3949" d="M56.36,101.74c-.34-1.14-.73-2.26-1.13-3.37s-.833-2.208-1.28-3.3-.93-2.16-1.46-3.21a29.612,29.612,0,0,0-1.74-3.05l-.07-.11-.07.11c-.66,1.04-1.28,2.1-1.88,3.2-.3.55-.58,1.1-.85,1.67s-.51,1.16-.74,1.75l-.04.09.04.11c.41,1.24.84,2.46,1.29,3.69.22.61.48,1.21.73,1.81a15.362,15.362,0,0,0,.87,1.78l.17.27.22-.2a6.545,6.545,0,0,0,.77-.9,7.545,7.545,0,0,0,.61-1.03,5.229,5.229,0,0,0,.53-2.42v-.05l-.02-.04c-.44-.87-.91-1.73-1.36-2.6l-.05.03c.37.91.74,1.83,1.13,2.73l-.02-.09a4.994,4.994,0,0,1-.61,2.16,6.612,6.612,0,0,1-1.32,1.7l.39.07a15.549,15.549,0,0,1-.81-1.69l-.72-1.79c-.48-1.2-.93-2.41-1.38-3.62v.2a32.54,32.54,0,0,1,1.38-3.47,22.372,22.372,0,0,1,1.8-3.22H50.6a20.494,20.494,0,0,1,1.55,3.11l1.36,3.24,1.38,3.24c.46,1.08.92,2.16,1.41,3.23l.06-.03Z" transform="translate(-44.219 -81.89)" fill="#c5796d"/>
          </g>
        </g>
        <g id="svga-group-ears-right-move" transform="translate(92.404 53.227)">
          <g id="svga-group-ears-right">
            <path id="SvgjsPath3950" d="M137.78,91.07s9.85-8.65,11.43-8.8c1.36-.13,4.73,7.07,6.22,11.62a5.2,5.2,0,0,1-.22,3.7c-1.43,3.16-4.6,9.75-7.44,13.05a10.965,10.965,0,0,1-3.16.29c-.76-.23-6.69-5-7.3-6.86s-.74-9.97.47-13Z" transform="translate(-136.624 -81.9)" fill="#f3d4cf"/>
            <path id="SvgjsPath3951" d="M137.75,91.04c1.4-1.34,2.8-2.62,4.24-3.87s2.9-2.47,4.41-3.61A14.226,14.226,0,0,1,148.83,82a1.362,1.362,0,0,1,.42-.1.894.894,0,0,1,.46.14,2.775,2.775,0,0,1,.6.52,9.23,9.23,0,0,1,.88,1.2,36.327,36.327,0,0,1,2.59,5.32c.38.92.72,1.85,1.07,2.78.17.47.34.94.5,1.41a7.154,7.154,0,0,1,.39,1.48,5.409,5.409,0,0,1-.48,3.05l-1.25,2.75c-.85,1.82-1.73,3.63-2.7,5.38a32.175,32.175,0,0,1-3.3,4.99l-.07.09-.11.02c-.51.11-1.02.2-1.53.28a6.517,6.517,0,0,1-1.61.08,1.4,1.4,0,0,1-.47-.17l-.35-.22c-.22-.15-.44-.3-.65-.46-.43-.32-.84-.65-1.25-.98-.82-.67-1.62-1.38-2.39-2.12a14.608,14.608,0,0,1-2.18-2.48,3.05,3.05,0,0,1-.41-.85,6.161,6.161,0,0,1-.17-.9c-.07-.59-.12-1.18-.15-1.76-.06-1.17-.06-2.34-.01-3.51s.13-2.34.29-3.5a13.792,13.792,0,0,1,.8-3.4Zm.06.05a15.226,15.226,0,0,0-.59,3.39c-.09,1.15-.14,2.31-.13,3.46s.05,2.3.13,3.45c.04.57.11,1.14.19,1.69.05.27.1.54.17.78a2.378,2.378,0,0,0,.33.63,16.925,16.925,0,0,0,2.11,2.3c.76.72,1.56,1.41,2.37,2.06.41.33.81.65,1.23.95l.62.45.31.2a.771.771,0,0,0,.25.1,11.014,11.014,0,0,0,2.91-.29l-.19.11a36,36,0,0,0,3.32-4.79q1.523-2.564,2.88-5.22c.45-.89.9-1.79,1.32-2.7a5.108,5.108,0,0,0,.49-2.88,6.455,6.455,0,0,0-.4-1.41c-.16-.47-.34-.93-.52-1.39-.35-.92-.76-1.82-1.16-2.71a42.792,42.792,0,0,0-2.74-5.1,8.439,8.439,0,0,0-.83-1.09,2.547,2.547,0,0,0-.45-.39.314.314,0,0,0-.18-.06c-.05,0-.15.06-.23.07a13.581,13.581,0,0,0-2.29,1.42c-3.02,2.23-5.97,4.64-8.92,6.97Z" transform="translate(-136.624 -81.9)" fill="#e4b3ab"/>
            <path id="SvgjsPath3952" d="M137.55,98.39s9.49-11.99,11.27-10.99,4.58,6.65,4.57,8.53c-.02,2.77-2.95,7.4-4.42,8.8a5.823,5.823,0,0,1-5.6,1.71C141.02,105.9,137.55,98.39,137.55,98.39Z" transform="translate(-136.624 -81.9)" fill="#e4b3ab"/>
            <path id="SvgjsPath3953" d="M143.64,101.74c.34-1.14.73-2.26,1.13-3.37s.84-2.21,1.28-3.3.93-2.16,1.46-3.21a29.61,29.61,0,0,1,1.74-3.05l.07-.11.07.11c.66,1.04,1.28,2.1,1.88,3.2.3.55.58,1.1.85,1.67s.51,1.16.74,1.75l.04.09-.04.11c-.41,1.24-.84,2.46-1.29,3.69-.22.61-.48,1.21-.73,1.81a15.363,15.363,0,0,1-.87,1.78l-.17.27-.22-.2a6.545,6.545,0,0,1-.77-.9,7.546,7.546,0,0,1-.61-1.03,5.228,5.228,0,0,1-.53-2.42v-.05l.02-.04c.44-.87.91-1.73,1.36-2.6l.05.03c-.37.91-.74,1.83-1.13,2.73l.02-.09a4.994,4.994,0,0,0,.61,2.16,6.612,6.612,0,0,0,1.32,1.7l-.39.07a15.548,15.548,0,0,0,.81-1.69l.72-1.79c.48-1.2.93-2.41,1.38-3.62v.2a32.539,32.539,0,0,0-1.38-3.47,22.372,22.372,0,0,0-1.8-3.22h.14a20.494,20.494,0,0,0-1.55,3.11l-1.36,3.24-1.38,3.24c-.46,1.08-.92,2.16-1.41,3.23l-.06-.03Z" transform="translate(-136.624 -81.9)" fill="#c5796d"/>
          </g>
        </g>
        <g id="svga-group-faceshape-wrap" transform="translate(10.481 3.527)">
          <g id="svga-group-faceshape-single">
            <path id="SvgjsPath3980" d="M135.9,49.8c-6.7-7.4-11.3-13.2-28.8-17.3a82.987,82.987,0,0,0-14.1,0c-17.5,4.1-22.1,9.9-28.8,17.3-7.1,7.8-9.5,29-9.5,29,0,9.6,1.3,32.3,13.3,47.2,17.8,22.2,32.1,22.3,32.1,22.3s14.2,0,32.1-22.3c12-14.9,13.3-37.6,13.3-47.2-.1,0-2.5-21.2-9.6-29Z" transform="translate(-54.7 -32.2)" fill="#f3d4cf"/>
            <path id="SvgjsPath3981" d="M107.1,32.5a82.987,82.987,0,0,0-14.1,0c-17.5,4.1-22.1,9.9-28.8,17.3-7.1,7.8-9.5,29-9.5,29,0,9.6,1.3,32.3,13.3,47.2,17.8,22.2,32.1,22.3,32.1,22.3s14.2,0,32.1-22.3c12-14.9,13.3-37.6,13.3-47.2,0,0-2.4-21.2-9.5-29-6.9-7.4-11.5-13.2-28.9-17.3ZM142,63.8c.7,2.5,1.1,5,1.6,7.5.4,2.5.7,5,1,7.5a108.879,108.879,0,0,1-3,22,75.3,75.3,0,0,1-3.3,10.5c-.7,1.7-1.4,3.4-2.2,5a43.913,43.913,0,0,1-2.7,4.7l-1.5,2.2c-.3.4-3.4,4.2-3.4,4.2l-3.7,4.1-6.1,5.7a55.353,55.353,0,0,1-9,6.2l-1.2.6-1.2.6a18.613,18.613,0,0,1-2.5,1l-1.3.4c-.4.1-.8.2-1.3.3a11.652,11.652,0,0,1-2.9.4s-1.4-.2-1.9-.3c-.4-.1-.9-.2-1.3-.3l-1.3-.4a26.045,26.045,0,0,1-2.5-1l-1.2-.5-1.2-.6a49.372,49.372,0,0,1-9.1-6L76.7,134l-3.9-3.9-1-1-.9-1L69.1,126a36.064,36.064,0,0,1-3.3-4.4,37.679,37.679,0,0,1-2.8-4.8c-.8-1.6-1.6-3.3-2.3-5.1a47.181,47.181,0,0,1-1.8-5.3c-.5-1.8-1-3.6-1.4-5.4a48.563,48.563,0,0,1-1-5.5c-.3-1.8-.5-3.7-.7-5.5a103.062,103.062,0,0,1-.5-11.1c.3-2.3.8-4.6,1.2-6.9.5-2.3,1.1-4.6,1.7-6.8.7-2.2,1.4-4.5,2.3-6.6a29.174,29.174,0,0,1,1.4-3.1,35.052,35.052,0,0,1,6.3-8.1,54.72,54.72,0,0,1,5-4.7,43.5,43.5,0,0,1,12-6.5l1.6-.6a37.672,37.672,0,0,1,11.8-2.3,62.923,62.923,0,0,1,7-.1,33.814,33.814,0,0,1,6.8,1.4,40.794,40.794,0,0,1,6.7,2.3c.3.1,1.6.7,1.6.7.5.3,2.6,1.3,3.1,1.7a59.036,59.036,0,0,1,6.9,5.4c1.7,1.7,3.3,3.4,4.9,5.2a23.018,23.018,0,0,1,3.9,6.6,39.36,39.36,0,0,1,2.5,7.3Z" transform="translate(-54.7 -32.2)" fill="#c5796d"/>
          </g>
        </g>
        <g id="svga-group-mouth-single-move" transform="translate(41.428 92.369)">
          <g id="svga-group-mouth-single" transform="translate(0 0)">
            <path id="SvgjsPath5904" d="M81.985,116.631s3.591,4.95,6.137,6.422a13.709,13.709,0,0,0,10.8,1.406c4.4-1.3,8.9-6.09,8.9-6.09s-5.206-2.707-7.457-3.106-5.7,1.577-5.7,1.577-2.347-1.862-3.753-2.09-8.93,1.881-8.93,1.881Z" transform="translate(-80.646 -114.733)" fill="#da7c87"/>
            <path id="SvgjsPath5905" d="M80.646,116.214c2.413.456,4.807,1.017,7.191,1.634,1.2.3,2.375.636,3.572.988a10.211,10.211,0,0,0,1.719.447,10.9,10.9,0,0,0,1.767.1,21.687,21.687,0,0,0,3.581-.295c.294-.048.589-.095.893-.152s.618-.114.922-.152c.608-.1,1.226-.161,1.834-.228,1.226-.124,2.451-.2,3.676-.238A17.4,17.4,0,0,0,109.44,118a13.243,13.243,0,0,1-3.6.845q-1.81.242-3.619.542l-1.8.323c-.295.057-.589.123-.883.19l-.912.2a21.121,21.121,0,0,1-3.715.361,12.759,12.759,0,0,1-1.891-.143,9.381,9.381,0,0,1-1.843-.5l-3.506-1.149c-2.365-.779-4.7-1.568-7.03-2.451Z" transform="translate(-80.646 -114.733)" fill="#cb5f6c"/>
          </g>
        </g>
        <g id="svga-group-eyes-left-move" transform="translate(21.383 49.436)">
          <g id="svga-group-eyes-left" transform="translate(0 0)">
            <g id="svga-group-eyesback-left" transform="translate(2.448 0.45)">
              <path id="SvgjsPath5161" d="M72.18,69.48a11.708,11.708,0,1,1-12.15,11.7A11.894,11.894,0,0,1,72.18,69.48Z" transform="translate(-60.03 -69.48)" fill="#fff"/>
            </g>
            <g id="svga-group-eyesiriswrapper-left" transform="translate(9.558 7.11)">
              <g id="svga-group-eyesiriscontrol-left">
                <g id="svga-group-eyesiris-left">
                  <path id="SvgjsPath4018" d="M72.18,76.14a5.04,5.04,0,1,1-5.04,5.04A5.032,5.032,0,0,1,72.18,76.14Z" transform="translate(-67.14 -76.14)" fill="#4c361a"/>
                  <path id="SvgjsPath4019" d="M72.18,78.48a2.7,2.7,0,1,1-2.7,2.7A2.652,2.652,0,0,1,72.18,78.48Z" transform="translate(-67.14 -76.14)"/>
                  <path id="SvgjsPath4020" d="M71.55,79.02l-.54-.54a1.019,1.019,0,0,0-1.44,1.44l.54.54a1.095,1.095,0,0,0,1.44,0A1.089,1.089,0,0,0,71.55,79.02Zm2.43,4.59a.675.675,0,1,0,0-1.35A.675.675,0,0,0,73.98,83.61Z" transform="translate(-67.14 -76.14)" fill="#fff"/>
                </g>
              </g>
            </g>
            <g id="svga-group-eyesfront-left">
              <path id="SvgjsPath5169" d="M72.18,69.03A12.248,12.248,0,1,0,84.87,81.27,12.47,12.47,0,0,0,72.18,69.03Zm0,18.45c-4.95,0-9.63-2.34-9.72-3.15s.81-3.51,2.88-5.76,7.2-2.97,11.52-1.26,5.31,6.75,5.31,6.75C82.26,85.59,77.13,87.48,72.18,87.48Z" transform="translate(-57.582 -69.03)" fill="#f3d4cf"/>
              <path id="SvgjsPath5170" d="M81.18,81.27l-.81-1.35a9.759,9.759,0,0,0-3.78-3.33,10.731,10.731,0,0,0-6.48-.9,12.825,12.825,0,0,0-3.15.99,8.424,8.424,0,0,0-2.52,1.89h-.09a11.2,11.2,0,0,1-1.8-.9,4.166,4.166,0,0,1-1.17-1.62c-.09-.18-.45-.09-.45.09a3.456,3.456,0,0,0,.99,2.07,3.758,3.758,0,0,0,1.89,1.17c-.09.18-.27.36-.36.54-.63-.18-1.35-.09-1.98-.27a5.455,5.455,0,0,1-2.34-1.71c-.18-.18-.45,0-.36.18a3.766,3.766,0,0,0,2.16,2.07,5.076,5.076,0,0,0,2.07.63,6.2,6.2,0,0,0-.27.72h-.09a17.7,17.7,0,0,1-2.16.27,2.8,2.8,0,0,1-2.52-1.35c-.18-.18-.45,0-.36.18.81,1.26,3.24,2.61,4.86,1.98,0,.18-.09.36-.09.54a3.235,3.235,0,0,0-.18.99v.18c0,.09.09.18.09.27l.27.27.09.09a2.594,2.594,0,0,0-2.43,1.62c0,.18.18.36.36.27a8.445,8.445,0,0,1,1.08-.81c.36-.18,1.17-.45,1.62-.63.09.09.18.09.27.18a2.057,2.057,0,0,0-.9.63,1.881,1.881,0,0,0-.36,1.53c.09.18.36.18.36-.09a1.569,1.569,0,0,1,.54-1.08c.27-.27.72-.36.99-.63.09.09.18.09.36.18a19.727,19.727,0,0,0,6.12,1.53,18.557,18.557,0,0,0,6.3-.63c.99-.27,1.98-.63,2.97-.99a9.835,9.835,0,0,0,1.35-.72,3.055,3.055,0,0,0,.54-.54,1.2,1.2,0,0,0,.27-.72,8.419,8.419,0,0,0-.9-2.79Zm.72,3.51a2.386,2.386,0,0,1-.54.45,9.837,9.837,0,0,1-1.35.72,18.221,18.221,0,0,1-2.97.81,23.565,23.565,0,0,1-6.12.36,22.06,22.06,0,0,1-5.94-1.44c-.45-.18-.9-.45-1.35-.63A2.735,2.735,0,0,1,63,84.6c-.09-.09-.18-.18-.18-.27a.088.088,0,0,0-.09-.09v-.18a3.235,3.235,0,0,1,.18-.99,11.3,11.3,0,0,1,2.52-3.6,10.354,10.354,0,0,1,5.13-2.34,10.182,10.182,0,0,1,5.67.54,12.9,12.9,0,0,1,4.41,2.88,10.383,10.383,0,0,1,1.62,3.51,1.809,1.809,0,0,1-.36.72Z" transform="translate(-57.582 -69.03)" fill="#2c1630"/>
            </g>
          </g>
        </g>
        <g id="svga-group-eyes-right-move" transform="translate(62.891 49.387)">
          <g id="svga-group-eyes-right" transform="translate(0 0)">
            <g id="svga-group-eyesback-right" transform="translate(0.54 0.45)">
              <path id="SvgjsPath5162" d="M107.82,69.48a11.708,11.708,0,1,1-12.15,11.7A11.894,11.894,0,0,1,107.82,69.48Z" transform="translate(-95.67 -69.48)" fill="#fff"/>
            </g>
            <g id="svga-group-eyesiriswrapper-right" transform="translate(8.28 7.74)">
              <g id="svga-group-eyesiriscontrol-right">
                <g id="svga-group-eyesiris-right">
                  <path id="SvgjsPath4021" d="M107.82,76.77a4.41,4.41,0,1,1-4.41,4.41A4.417,4.417,0,0,1,107.82,76.77Z" transform="translate(-103.41 -76.77)" fill="#4c361a"/>
                  <path id="SvgjsPath4022" d="M107.82,78.75a2.43,2.43,0,1,1-2.43,2.43A2.42,2.42,0,0,1,107.82,78.75Z" transform="translate(-103.41 -76.77)"/>
                  <path id="SvgjsPath4023" d="M107.28,79.29c-.18-.18-.27-.36-.45-.45a1.344,1.344,0,0,0-.63-.27.972.972,0,0,0-.63.27.817.817,0,0,0-.27.63.972.972,0,0,0,.27.63c.18.18.36.27.45.45a.7.7,0,0,0,.63.27.972.972,0,0,0,.63-.27A1.072,1.072,0,0,0,107.28,79.29Zm2.16,4.05a.587.587,0,0,0,0-1.17A.587.587,0,0,0,109.44,83.34Z" transform="translate(-103.41 -76.77)" fill="#fff"/>
                </g>
              </g>
            </g>
            <g id="svga-group-eyesfront-right">
              <path id="SvgjsPath5171" d="M107.82,69.03a12.248,12.248,0,1,0,12.69,12.24,12.47,12.47,0,0,0-12.69-12.24Zm0,17.46c-4.95,0-10.17-1.71-9.99-3.06,0,0,1.08-4.59,5.31-6.21,4.32-1.62,8.73-.63,10.8,1.44s3.78,4.32,3.6,5.04-4.86,2.79-9.72,2.79Z" transform="translate(-95.13 -69.03)" fill="#f3d4cf"/>
              <path id="SvgjsPath5174" d="M121.23,80.19a5.515,5.515,0,0,1-4.14,1.8c-.09-.09-.18-.18-.18-.27-.09-.09-.09-.18-.18-.27a2.9,2.9,0,0,0,1.89-.72,3.379,3.379,0,0,0,1.26-1.89c0-.27-.27-.36-.36-.18a5.51,5.51,0,0,1-1.35,1.53c-.45.27-1.26.27-1.71.54v-.09l-.81-1.08a3.224,3.224,0,0,0,.99-.36,2.555,2.555,0,0,0,1.44-1.62c.09-.27-.27-.36-.45-.18a3.274,3.274,0,0,1-1.44,1.26,2.658,2.658,0,0,1-1.17.18c-.09-.09-.09-.18-.18-.18l-.27-.27-.36-.27-.81-.72-.72-.45-.36-.18-.36-.18c-.27-.09-.54-.27-.81-.36a14.354,14.354,0,0,0-3.42-.63,10.687,10.687,0,0,0-6.57,1.98,8.937,8.937,0,0,0-3.24,5.58.314.314,0,0,1-.09.18,1.022,1.022,0,0,0,.27.72,1.614,1.614,0,0,0,.63.45c.45.27.9.45,1.35.72a15.313,15.313,0,0,0,2.88.9,22.248,22.248,0,0,0,5.94.63,18.484,18.484,0,0,0,4.86-.9,4,4,0,0,1,.72.99c.18.36.18.72.36.99.09.18.36.18.45-.09a2.31,2.31,0,0,0-.81-2.16c.09,0,.27-.09.36-.09.36-.18.72-.27,1.08-.45a3.425,3.425,0,0,1,1.17.81c.27.36.36.81.72,1.08.09.09.36.09.36-.09.27-.54-.09-1.17-.54-1.62a3.371,3.371,0,0,0-1.08-.63,6.713,6.713,0,0,0,1.08-.63l.27-.27a.331.331,0,0,0,.09-.27v-.27c0-.18-.09-.27-.18-.45,1.62.27,3.78-.72,4.05-2.52-.27,0-.45-.18-.63,0Zm-3.87,3.33h0c-.09.18-.18.18-.27.27a11.689,11.689,0,0,1-2.61,1.26,25.18,25.18,0,0,1-5.76,1.17,31.451,31.451,0,0,1-5.85-.36,14.988,14.988,0,0,1-2.88-.72,9.083,9.083,0,0,1-1.35-.63,2.735,2.735,0,0,1-.63-.45.817.817,0,0,1-.27-.63c0-.09,0-.09.09-.18a10.831,10.831,0,0,1,3.87-4.59,7.52,7.52,0,0,1,2.79-1.08,11.409,11.409,0,0,1,6.03.09c.27.09.45.18.72.27l.36.09.36.18.72.36.63.45a12.1,12.1,0,0,1,1.26.99l1.08,1.08.99,1.26a9.487,9.487,0,0,0,.63.99v.18h.09Z" transform="translate(-95.13 -69.03)" fill="#2c1630"/>
            </g>
          </g>
        </g>
        <g id="svga-group-eyebrows-left-move" transform="translate(21.629 42.671)">
          <g id="svga-group-eyebrows-left-rotate" transform="translate(1.93 0) rotate(7.5)">
            <g id="svga-group-eyebrows-left" transform="translate(0 0)">
              <path id="SvgjsPath5436" d="M13.348,3.591c1.425-.446,3.9.6,5.453,1.216s6.223.627,5.8-1.653S19.884-1.254,14.649.884C1.9,5.8,0,14.782,0,14.782,4.855,7.505,7.837,4.874,13.348,3.591Z" fill="#2a232b"/>
            </g>
          </g>
        </g>
        <g id="svga-group-eyebrows-right-move" transform="translate(63.014 45.657)">
          <g id="svga-group-eyebrows-right-rotate" transform="translate(0 3.102) rotate(-7.5)">
            <g id="svga-group-eyebrows-right" transform="translate(0 0)">
              <path id="SvgjsPath5437" d="M23.767,12.345S21.325,4.128,9.089.527C4.054-1.059.216,1.24.007,3.387s4.132,1.805,5.529,1.1S9.156,2.636,10.514,2.94c5.215.789,8.189,3,13.252,9.4Z" fill="#2a232b"/>
            </g>
          </g>
        </g>
        <g id="svga-group-nose-single-move" transform="translate(46.571 60.787)">
          <g id="svga-group-nose-single">
            <path id="SvgjsPath4096" d="M109.52,109.12a7.355,7.355,0,0,0-1.59-2.29,10.378,10.378,0,0,1,1.22,2.42,2.733,2.733,0,0,1,.14,1.25,1.2,1.2,0,0,1-.23.53,2.308,2.308,0,0,1-.41.47,2.828,2.828,0,0,1-2.35.68,4.516,4.516,0,0,1-1.28-.35,9.739,9.739,0,0,1-1.13-.54,12.456,12.456,0,0,0,.89-1.55c-.86.8-1.66,1.61-2.52,2.32a9.835,9.835,0,0,1-1.32.96,2.626,2.626,0,0,1-1.33.46,1.176,1.176,0,0,1-.27-.03,1.37,1.37,0,0,1-.26-.14c-.21-.13-.43-.31-.65-.48-.44-.34-.87-.72-1.31-1.08-.87-.74-1.75-1.48-2.69-2.17a19.023,19.023,0,0,0,1.47,1.97,6.857,6.857,0,0,1-1.34.46,2.683,2.683,0,0,1-1.62-.09,2.553,2.553,0,0,1-1.35-2.58,1.537,1.537,0,0,1,.26-.65c.15-.23.32-.46.49-.69.35-.45.72-.9,1.11-1.33l.58-.65a7.49,7.49,0,0,0,.58-.74,9.168,9.168,0,0,0,.94-1.61,7.58,7.58,0,0,0,.52-1.81c.1-.59.2-1.18.26-1.77.13-1.18.24-2.36.27-3.55a30.492,30.492,0,0,0-.45-7.08,58.793,58.793,0,0,1-.35,7.03c-.13,1.16-.26,2.33-.44,3.48-.09.58-.18,1.15-.28,1.72a6.1,6.1,0,0,1-.47,1.57,8.686,8.686,0,0,1-.82,1.45,5.838,5.838,0,0,1-.5.65c-.2.23-.39.45-.58.68-.38.46-.74.94-1.09,1.43-.17.25-.35.5-.5.77a2.263,2.263,0,0,0-.32,1,3.085,3.085,0,0,0,1.98,3.12,2.943,2.943,0,0,0,1.86-.1,5.785,5.785,0,0,0,1.31-.67c.21.25.41.5.63.74.39.44.8.84,1.24,1.25a6.023,6.023,0,0,0,.72.57,2.553,2.553,0,0,0,.5.27,2.352,2.352,0,0,0,.58.1,3.424,3.424,0,0,0,1.88-.66,7.843,7.843,0,0,0,1.36-1.2,11.342,11.342,0,0,0,1.06-1.34,5.124,5.124,0,0,0,2.36,1.27,3.423,3.423,0,0,0,1.46,0,3.037,3.037,0,0,0,1.31-.7,3.226,3.226,0,0,0,.48-.57,1.489,1.489,0,0,0,.28-.73,3.223,3.223,0,0,0-.29-1.47Z" transform="translate(-90.79 -89.46)" fill="#c5796d"/>
          </g>
        </g>
        <g id="svga-group-hair-front" transform="translate(6.481)">
          <path id="SvgjsPath4145" d="M74,50.3s7.4,13.6,20.3,15.6,34.1,4,35.1,4,7.7,5.4,9.4,14.1.1,19.4-1.1,28.6A105.664,105.664,0,0,0,146,84.2c1.5-10.8-1.2-25.7-2.7-29.7S129.4,37,124.9,34.2,96.2,28.8,87.8,29s-14.1,5.2-15.1,9.1a10.461,10.461,0,0,0-9.4,4.5c-3.5,5.2-5.4,12.9-8.2,18.8s-4,19-4,19,4,17.6,5.2,20.3,8.4,11.1,8.4,11.1-5.9-11.9-6.2-19.3,3.7-16.1,5.2-21.3,6.9-12.6,8.2-15.1A30.312,30.312,0,0,0,74,50.3Z" transform="translate(-50.7 -28.673)" fill="#472d13"/>
          <path id="SvgjsPath4146" d="M144.8,60.1c-.3-1.5-.6-2.9-1-4.4a7.607,7.607,0,0,0-.8-2.1c-.4-.7-.8-1.3-1.2-1.9a63.6,63.6,0,0,0-5.6-7c-2-2.2-4-4.4-6.2-6.5-1.1-1-2.2-2.1-3.3-3a12.735,12.735,0,0,0-1.9-1.3,9.037,9.037,0,0,0-2.1-.8,65.636,65.636,0,0,0-8.8-1.9c-2.9-.5-5.9-.9-8.9-1.3s-6-.7-9-.9-6-.4-9-.3a20.34,20.34,0,0,0-8.7,2.5A16.547,16.547,0,0,0,74.7,34a8.712,8.712,0,0,0-2.2,3.7,11.319,11.319,0,0,0-6,1.4,13.29,13.29,0,0,0-2.6,2.1A12.591,12.591,0,0,0,62,44a86.951,86.951,0,0,0-5,11.8c-.8,2-1.5,3.9-2.4,5.9a44.4,44.4,0,0,0-1.9,6.2c-.9,4.2-1.5,8.4-2,12.6v.2c1.3,5.7,2.6,11.3,4.2,17l.6,2.1a7.837,7.837,0,0,0,.9,2.1c.8,1.3,1.7,2.4,2.5,3.6,1.8,2.3,3.6,4.6,5.5,6.8l2.3,2.7-1.6-3.2q-1.8-3.6-3.3-7.5a54,54,0,0,1-2.4-7.8,18.251,18.251,0,0,1-.5-4c0-1.3.1-2.7.2-4.1A53.453,53.453,0,0,1,61,80.5c.8-2.6,1.8-5.2,2.6-7.8a29.245,29.245,0,0,1,3.2-7.5c1.3-2.4,2.8-4.7,4.2-7a24.348,24.348,0,0,0,2.9-7.6,9.992,9.992,0,0,0,.8,1.4c.3.5.6.9.9,1.4.7.9,1.3,1.8,2.1,2.7a36.275,36.275,0,0,0,4.8,4.8,30.95,30.95,0,0,0,5.7,3.7,21.969,21.969,0,0,0,6.5,1.9c8.9,1.3,17.8,2.3,26.8,3.3,2.2.2,4.5.4,6.7.6l.9.1h.3c.1,0,.2.1.3.2a11.32,11.32,0,0,1,1.3,1,17.525,17.525,0,0,1,2.3,2.4,24.192,24.192,0,0,1,5.3,12,66.583,66.583,0,0,1,.2,13.4c-.4,4.5-.9,8.9-1.5,13.4l-.3,2.3,1-2.1a103.674,103.674,0,0,0,5.9-17c.7-2.9,1.4-5.8,1.9-8.8a53.781,53.781,0,0,0,.8-9,90.6,90.6,0,0,0-1.8-18.2Zm.4,26.7c-.5,2.9-1.2,5.8-1.9,8.7a95.608,95.608,0,0,1-5,14.5c.5-3.6,1-7.2,1.3-10.9a61.889,61.889,0,0,0-.1-13.6A24.928,24.928,0,0,0,134,73.1a13.63,13.63,0,0,0-2.4-2.4,7.1,7.1,0,0,0-1.4-1,.758.758,0,0,0-.4-.2c-.1,0-.2-.1-.3-.1h-.2l-.8-.1c-2.2-.2-4.5-.4-6.7-.6-8.9-.9-17.9-1.8-26.8-3.1a25.888,25.888,0,0,1-12.1-5.3,38.832,38.832,0,0,1-8.8-10.1A23,23,0,0,1,71,57.8c-1.5,2.3-3,4.6-4.3,7a30.19,30.19,0,0,0-3.3,7.6c-.8,2.6-1.8,5.2-2.7,7.8a55.052,55.052,0,0,0-2,8,29.662,29.662,0,0,0-.3,4.2,18.406,18.406,0,0,0,.5,4.1,55.258,55.258,0,0,0,2.4,7.9c.6,1.5,1.2,3.1,1.9,4.6-1.1-1.4-2.3-2.8-3.3-4.2-.9-1.2-1.7-2.3-2.5-3.5a6.391,6.391,0,0,1-.8-1.9L56,97.3c-1.5-5.6-2.8-11.2-4.1-16.8a86.567,86.567,0,0,1,2-12.4,37.992,37.992,0,0,1,1.8-6,60.7,60.7,0,0,0,2.4-5.9A93.046,93.046,0,0,1,63,44.5a14.523,14.523,0,0,1,1.7-2.6A8.338,8.338,0,0,1,67,40a9.922,9.922,0,0,1,5.8-1.3h.4l.1-.4a8.774,8.774,0,0,1,2.1-3.6A12.665,12.665,0,0,1,78.8,32a18.67,18.67,0,0,1,8.3-2.5,66.5,66.5,0,0,1,8.9.2c3,.2,5.9.5,8.9.8s5.9.7,8.9,1.2a64.216,64.216,0,0,1,8.7,1.9,18.029,18.029,0,0,1,2.1.8,18.758,18.758,0,0,1,1.8,1.2,23.52,23.52,0,0,1,3.3,3c2.1,2.1,4.2,4.2,6.2,6.5a73.4,73.4,0,0,1,5.6,6.9c1.9,2.3,2.4,5.4,3,8.3a88.644,88.644,0,0,1,1.6,17.8,43.579,43.579,0,0,1-.9,8.7Zm-12-26.2a4.92,4.92,0,0,0-1.8-1.3,15.985,15.985,0,0,0-2.1-.5c-5.5-.8-11-1.2-16.5-1.7-2.7-.2-5.5-.5-8.2-.8-1.4-.2-2.7-.3-4-.6S98,55,96.7,54.6c-2.6-.8-5.2-1.8-7.7-2.8-2.6-1-5.1-2.1-7.7-3.1a129.608,129.608,0,0,0,15.2,6.7,26.428,26.428,0,0,0,4,1.2c1.4.3,2.8.5,4.1.7,2.8.3,5.5.6,8.2.9,5.5.5,11,.9,16.5,1.5a9.022,9.022,0,0,1,1.9.4,5.715,5.715,0,0,1,1.6,1.1,19.419,19.419,0,0,1,2.6,3.1,63.286,63.286,0,0,1,4.4,7,62.99,62.99,0,0,0-4-7.2,31.784,31.784,0,0,0-2.6-3.5ZM85.4,45.9c.9.2,1.8.3,2.6.4,1.7.2,3.4.3,5.2.5,3.4.3,6.9.4,10.3.6s6.9.3,10.3.4l3.3.5c1.1.2,2.2.3,3.3.5-1.1-.3-2.2-.5-3.3-.8l-3.3-.7c-3.4-.2-6.9-.5-10.3-.7l-10.3-.7c-1.7-.1-3.4-.2-5.2-.4-.9-.1-1.7-.2-2.5-.3a16.818,16.818,0,0,1-2.4-.7,42.066,42.066,0,0,1-9.2-4.7,34.948,34.948,0,0,0,8.9,5.3,25.825,25.825,0,0,0,2.6.8Z" transform="translate(-50.7 -28.673)" fill="#1b141c"/>
        </g>
      </g>
    </g>
  </g>
</svg>
