<svg xmlns="http://www.w3.org/2000/svg" width="586" height="521" viewBox="0 0 586 521">
  <g id="st4" transform="translate(-1216 -2408)">
    <g id="bi2" transform="translate(0 702)">
      <rect id="Rectangle_95" data-name="Rectangle 95" width="586" height="521" transform="translate(1216 1706)" fill="#b8e0e0"/>
    </g>
    <g id="st4-2" data-name="st4" transform="translate(1322.066 2442.466)">
      <g id="freepik--Floor--inject-2" transform="translate(14.51 361.278)">
        <line id="Line_152" data-name="Line 152" x2="344.847" fill="none" stroke="#263238" stroke-linecap="round" stroke-linejoin="round" stroke-width="1"/>
      </g>
      <g id="freepik--Stairs--inject-2" transform="translate(68.24 112.083)">
        <rect id="Rectangle_61" data-name="Rectangle 61" width="44.335" height="247.581" transform="translate(13.07 1.614)" fill="#129996" stroke="#263238" stroke-linecap="round" stroke-linejoin="round" stroke-width="1"/>
        <rect id="Rectangle_62" data-name="Rectangle 62" width="158.17" height="14.903" transform="translate(0 0.139)" fill="#263238" stroke="#263238" stroke-linecap="round" stroke-linejoin="round" stroke-width="1"/>
        <rect id="Rectangle_63" data-name="Rectangle 63" width="100.713" height="14.903" transform="translate(57.464 0.139)" fill="#fff" stroke="#263238" stroke-linecap="round" stroke-linejoin="round" stroke-width="1"/>
        <rect id="Rectangle_64" data-name="Rectangle 64" width="44.335" height="58.131" transform="translate(87.233)" fill="#263238" stroke="#263238" stroke-linecap="round" stroke-linejoin="round" stroke-width="1"/>
        <rect id="Rectangle_65" data-name="Rectangle 65" width="44.335" height="58.131" transform="translate(89.426)" fill="#129996" stroke="#263238" stroke-linecap="round" stroke-linejoin="round" stroke-width="1"/>
        <rect id="Rectangle_66" data-name="Rectangle 66" width="158.17" height="14.903" transform="translate(91.626 174.532)" fill="#263238" stroke="#263238" stroke-linecap="round" stroke-linejoin="round" stroke-width="1"/>
        <rect id="Rectangle_67" data-name="Rectangle 67" width="100.713" height="14.903" transform="translate(149.09 174.532)" fill="#fff" stroke="#263238" stroke-linecap="round" stroke-linejoin="round" stroke-width="1"/>
        <rect id="Rectangle_69" data-name="Rectangle 69" width="44.335" height="58.131" transform="translate(179.578 174.532)" fill="#129996" stroke="#263238" stroke-linecap="round" stroke-linejoin="round" stroke-width="1"/>
        <rect id="Rectangle_70" data-name="Rectangle 70" width="158.17" height="14.903" transform="translate(30.54 58.27)" fill="#263238" stroke="#263238" stroke-linecap="round" stroke-linejoin="round" stroke-width="1"/>
        <rect id="Rectangle_71" data-name="Rectangle 71" width="100.713" height="14.903" transform="translate(88.003 58.27)" fill="#fff" stroke="#263238" stroke-linecap="round" stroke-linejoin="round" stroke-width="1"/>
        <rect id="Rectangle_73" data-name="Rectangle 73" width="44.335" height="58.131" transform="translate(119.482 58.27)" fill="#129996" stroke="#263238" stroke-linecap="round" stroke-linejoin="round" stroke-width="1"/>
        <rect id="Rectangle_74" data-name="Rectangle 74" width="158.17" height="14.903" transform="translate(61.087 116.401)" fill="#263238" stroke="#263238" stroke-linecap="round" stroke-linejoin="round" stroke-width="1"/>
        <rect id="Rectangle_75" data-name="Rectangle 75" width="100.713" height="14.903" transform="translate(118.55 116.401)" fill="#fff" stroke="#263238" stroke-linecap="round" stroke-linejoin="round" stroke-width="1"/>
        <rect id="Rectangle_77" data-name="Rectangle 77" width="44.335" height="58.131" transform="translate(149.53 116.401)" fill="#129996" stroke="#263238" stroke-linecap="round" stroke-linejoin="round" stroke-width="1"/>
        <rect id="Rectangle_79" data-name="Rectangle 79" width="158.17" height="14.903" transform="translate(122.173 233.397)" fill="#263238" stroke="#263238" stroke-linecap="round" stroke-linejoin="round" stroke-width="1"/>
        <rect id="Rectangle_80" data-name="Rectangle 80" width="100.713" height="14.903" transform="translate(179.637 233.397)" fill="#fff" stroke="#263238" stroke-linecap="round" stroke-linejoin="round" stroke-width="1"/>
        <rect id="Rectangle_81" data-name="Rectangle 81" width="44.335" height="16.531" transform="translate(207.433 232.663)" fill="#263238" stroke="#263238" stroke-linecap="round" stroke-linejoin="round" stroke-width="1"/>
        <rect id="Rectangle_82" data-name="Rectangle 82" width="44.335" height="16.531" transform="translate(209.634 232.663)" fill="#129996" stroke="#263238" stroke-linecap="round" stroke-linejoin="round" stroke-width="1"/>
      </g>
      <g id="freepik--Gears--inject-2" transform="translate(277.324 182.396)">
        <path id="Path_237" data-name="Path 237" d="M390.481,263.68l3.1.425.733-3.264-2.875-.924h0a7.891,7.891,0,0,0-.623-3.066l2.164-2.061-2.09-2.618-2.406,1.6a7.9,7.9,0,0,0-2.934-1.467l-.257-2.875h-3.308l-.249,2.831a7.877,7.877,0,0,0-2.934,1.423l-2.42-1.606-2.083,2.618,2.112,2.017a7.833,7.833,0,0,0-.682,3.11l-2.875.924.733,3.264,3.029-.418a8.134,8.134,0,0,0,1.914,2.376l-1.107,2.934,3.014,1.467,1.606-2.706a7.831,7.831,0,0,0,2.978,0l1.636,2.743,3.014-1.467-1.107-2.934a7.877,7.877,0,0,0,1.922-2.325ZM379.3,259.889a4.269,4.269,0,1,1,4.269,4.268A4.269,4.269,0,0,1,379.3,259.889Z" transform="translate(-372.85 -244.56)" fill="#263238"/>
        <path id="Path_238" data-name="Path 238" d="M417.646,257.048l3.1.425.733-3.264-2.875-.924h0a7.928,7.928,0,0,0-.616-3.073l2.156-2.061-2.083-2.611-2.406,1.592a7.987,7.987,0,0,0-2.934-1.467l-.249-2.875h-3.344l-.249,2.838a7.847,7.847,0,0,0-2.97,1.415l-2.413-1.606-2.09,2.618,2.12,2.017a7.863,7.863,0,0,0-.682,3.11l-2.838.9.733,3.264,3.036-.418a7.789,7.789,0,0,0,1.914,2.369l-1.115,2.934,3.014,1.467,1.614-2.714a7.833,7.833,0,0,0,2.978,0l1.636,2.75,3.014-1.467-1.107-2.934a7.907,7.907,0,0,0,1.929-2.288Zm-11.177-3.784a4.261,4.261,0,1,1,1.251,3.016A4.268,4.268,0,0,1,406.469,253.263Z" transform="translate(-380.088 -242.79)" fill="#263238"/>
      </g>
      <g id="freepik--Tab--inject-2" transform="translate(264.255 126.348)">
        <rect id="Rectangle_83" data-name="Rectangle 83" width="45.025" height="50.628" fill="#fff" stroke="#263238" stroke-linecap="round" stroke-linejoin="round" stroke-width="1"/>
        <rect id="Rectangle_84" data-name="Rectangle 84" width="45.025" height="3.638" fill="#129996" stroke="#263238" stroke-linecap="round" stroke-linejoin="round" stroke-width="1"/>
        <line id="Line_153" data-name="Line 153" x2="10.202" transform="translate(5.493 7.07)" fill="#fff" stroke="#263238" stroke-linecap="round" stroke-linejoin="round" stroke-width="1"/>
        <line id="Line_154" data-name="Line 154" x2="6.579" transform="translate(8.295 9.865)" fill="#fff" stroke="#263238" stroke-linecap="round" stroke-linejoin="round" stroke-width="1"/>
        <line id="Line_155" data-name="Line 155" x2="10.202" transform="translate(5.493 35.835)" fill="#fff" stroke="#263238" stroke-linecap="round" stroke-linejoin="round" stroke-width="1"/>
        <line id="Line_156" data-name="Line 156" x2="6.579" transform="translate(8.295 38.629)" fill="#fff" stroke="#263238" stroke-linecap="round" stroke-linejoin="round" stroke-width="1"/>
        <line id="Line_157" data-name="Line 157" x2="12.167" transform="translate(11.258 41.262)" fill="#fff" stroke="#263238" stroke-linecap="round" stroke-linejoin="round" stroke-width="1"/>
        <line id="Line_158" data-name="Line 158" x2="12.167" transform="translate(11.258 43.895)" fill="#fff" stroke="#263238" stroke-linecap="round" stroke-linejoin="round" stroke-width="1"/>
        <line id="Line_159" data-name="Line 159" x2="12.167" transform="translate(11.258 46.521)" fill="#fff" stroke="#263238" stroke-linecap="round" stroke-linejoin="round" stroke-width="1"/>
        <line id="Line_160" data-name="Line 160" x2="4.114" transform="translate(36.737 12.82)" fill="#fff" stroke="#263238" stroke-linecap="round" stroke-linejoin="round" stroke-width="1"/>
        <line id="Line_161" data-name="Line 161" x2="6.417" transform="translate(27.694 12.82)" fill="#fff" stroke="#263238" stroke-linecap="round" stroke-linejoin="round" stroke-width="1"/>
        <line id="Line_162" data-name="Line 162" x2="8.06" transform="translate(17.008 12.82)" fill="#fff" stroke="#263238" stroke-linecap="round" stroke-linejoin="round" stroke-width="1"/>
        <line id="Line_163" data-name="Line 163" x2="1.973" transform="translate(13.722 12.82)" fill="#fff" stroke="#263238" stroke-linecap="round" stroke-linejoin="round" stroke-width="1"/>
        <line id="Line_164" data-name="Line 164" x1="4.114" transform="translate(13.722 15.285)" fill="#fff" stroke="#263238" stroke-linecap="round" stroke-linejoin="round" stroke-width="1"/>
        <line id="Line_165" data-name="Line 165" x1="6.41" transform="translate(20.462 15.285)" fill="#fff" stroke="#263238" stroke-linecap="round" stroke-linejoin="round" stroke-width="1"/>
        <line id="Line_166" data-name="Line 166" x1="8.053" transform="translate(29.506 15.285)" fill="#fff" stroke="#263238" stroke-linecap="round" stroke-linejoin="round" stroke-width="1"/>
        <line id="Line_167" data-name="Line 167" x1="1.973" transform="translate(38.879 15.285)" fill="#fff" stroke="#263238" stroke-linecap="round" stroke-linejoin="round" stroke-width="1"/>
        <line id="Line_168" data-name="Line 168" x2="4.114" transform="translate(36.737 17.917)" fill="#fff" stroke="#263238" stroke-linecap="round" stroke-linejoin="round" stroke-width="1"/>
        <line id="Line_169" data-name="Line 169" x2="6.417" transform="translate(27.694 17.917)" fill="#fff" stroke="#263238" stroke-linecap="round" stroke-linejoin="round" stroke-width="1"/>
        <line id="Line_170" data-name="Line 170" x2="8.06" transform="translate(17.008 17.917)" fill="#fff" stroke="#263238" stroke-linecap="round" stroke-linejoin="round" stroke-width="1"/>
        <line id="Line_171" data-name="Line 171" x2="1.973" transform="translate(13.722 17.917)" fill="#fff" stroke="#263238" stroke-linecap="round" stroke-linejoin="round" stroke-width="1"/>
        <line id="Line_172" data-name="Line 172" x1="4.114" transform="translate(13.722 20.382)" fill="#fff" stroke="#263238" stroke-linecap="round" stroke-linejoin="round" stroke-width="1"/>
        <line id="Line_173" data-name="Line 173" x1="6.41" transform="translate(20.462 20.382)" fill="#fff" stroke="#263238" stroke-linecap="round" stroke-linejoin="round" stroke-width="1"/>
        <line id="Line_174" data-name="Line 174" x1="8.053" transform="translate(29.506 20.382)" fill="#fff" stroke="#263238" stroke-linecap="round" stroke-linejoin="round" stroke-width="1"/>
        <line id="Line_175" data-name="Line 175" x1="1.973" transform="translate(38.879 20.382)" fill="#fff" stroke="#263238" stroke-linecap="round" stroke-linejoin="round" stroke-width="1"/>
        <line id="Line_176" data-name="Line 176" x2="4.114" transform="translate(36.737 22.685)" fill="#fff" stroke="#263238" stroke-linecap="round" stroke-linejoin="round" stroke-width="1"/>
        <line id="Line_177" data-name="Line 177" x2="6.417" transform="translate(27.694 22.685)" fill="#fff" stroke="#263238" stroke-linecap="round" stroke-linejoin="round" stroke-width="1"/>
        <line id="Line_178" data-name="Line 178" x2="8.06" transform="translate(17.008 22.685)" fill="#fff" stroke="#263238" stroke-linecap="round" stroke-linejoin="round" stroke-width="1"/>
        <line id="Line_179" data-name="Line 179" x2="1.973" transform="translate(13.722 22.685)" fill="#fff" stroke="#263238" stroke-linecap="round" stroke-linejoin="round" stroke-width="1"/>
        <line id="Line_180" data-name="Line 180" x1="4.114" transform="translate(13.722 25.149)" fill="#fff" stroke="#263238" stroke-linecap="round" stroke-linejoin="round" stroke-width="1"/>
        <line id="Line_181" data-name="Line 181" x1="6.41" transform="translate(20.462 25.149)" fill="#fff" stroke="#263238" stroke-linecap="round" stroke-linejoin="round" stroke-width="1"/>
        <line id="Line_182" data-name="Line 182" x1="8.053" transform="translate(29.506 25.149)" fill="#fff" stroke="#263238" stroke-linecap="round" stroke-linejoin="round" stroke-width="1"/>
        <line id="Line_183" data-name="Line 183" x1="1.973" transform="translate(38.879 25.149)" fill="#fff" stroke="#263238" stroke-linecap="round" stroke-linejoin="round" stroke-width="1"/>
        <line id="Line_184" data-name="Line 184" x2="4.114" transform="translate(36.737 27.782)" fill="#fff" stroke="#263238" stroke-linecap="round" stroke-linejoin="round" stroke-width="1"/>
        <line id="Line_185" data-name="Line 185" x2="6.417" transform="translate(27.694 27.782)" fill="#fff" stroke="#263238" stroke-linecap="round" stroke-linejoin="round" stroke-width="1"/>
        <line id="Line_186" data-name="Line 186" x2="8.06" transform="translate(17.008 27.782)" fill="#fff" stroke="#263238" stroke-linecap="round" stroke-linejoin="round" stroke-width="1"/>
        <line id="Line_187" data-name="Line 187" x2="1.973" transform="translate(13.722 27.782)" fill="#fff" stroke="#263238" stroke-linecap="round" stroke-linejoin="round" stroke-width="1"/>
        <line id="Line_188" data-name="Line 188" x1="4.114" transform="translate(13.722 30.246)" fill="#fff" stroke="#263238" stroke-linecap="round" stroke-linejoin="round" stroke-width="1"/>
        <line id="Line_189" data-name="Line 189" x1="6.41" transform="translate(20.462 30.246)" fill="#fff" stroke="#263238" stroke-linecap="round" stroke-linejoin="round" stroke-width="1"/>
        <line id="Line_190" data-name="Line 190" x1="8.053" transform="translate(29.506 30.246)" fill="#fff" stroke="#263238" stroke-linecap="round" stroke-linejoin="round" stroke-width="1"/>
        <line id="Line_191" data-name="Line 191" x1="1.973" transform="translate(38.879 30.246)" fill="#fff" stroke="#263238" stroke-linecap="round" stroke-linejoin="round" stroke-width="1"/>
      </g>
      <g id="freepik--drawign-table--inject-2" transform="translate(178.342 100.635)">
        <path id="Path_239" data-name="Path 239" d="M296.619,144.99v58.7H241.59" transform="translate(-238.876 -134.957)" fill="none" stroke="#263238" stroke-linecap="round" stroke-linejoin="round" stroke-width="2"/>
        <line id="Line_192" data-name="Line 192" y2="47.672" transform="translate(19.216 21.064)" fill="none" stroke="#263238" stroke-linecap="round" stroke-linejoin="round" stroke-width="2"/>
        <path id="Path_240" data-name="Path 240" d="M283.958,166.87,297.7,183.255H259.77L247.83,166.87" transform="translate(-240.54 -140.79)" fill="none" stroke="#263238" stroke-linecap="round" stroke-linejoin="round" stroke-width="2"/>
        <path id="Path_241" data-name="Path 241" d="M239.68,162.737h48.244l17.441-31.427H257.128Z" transform="translate(-238.367 -131.31)" fill="#a1a1a1" stroke="#263238" stroke-linecap="round" stroke-linejoin="round" stroke-width="1"/>
        <path id="Path_242" data-name="Path 242" d="M262.925,136.367l-11.045,20.4h35.776l11.4-20.734Z" transform="translate(-241.619 -132.568)" fill="#fff" stroke="#263238" stroke-linecap="round" stroke-linejoin="round" stroke-width="1"/>
        <path id="Path_243" data-name="Path 243" d="M255.72,158.36h20.11l-3.022,4.232" transform="translate(-242.643 -138.521)" fill="#fff" stroke="#263238" stroke-linecap="round" stroke-linejoin="round" stroke-width="1"/>
        <path id="Path_244" data-name="Path 244" d="M239.2,173.568l-1.313-1.628h47.562l1.995,1.628Z" transform="translate(-237.89 -142.141)" fill="#fff" stroke="#263238" stroke-linecap="round" stroke-linejoin="round" stroke-width="1"/>
      </g>
      <g id="freepik--Clipboard--inject-2" transform="translate(136.155 16.24)">
        <rect id="Rectangle_85" data-name="Rectangle 85" width="33.569" height="43.756" transform="translate(9.96 3.733)" fill="#a1a1a1" stroke="#263238" stroke-linecap="round" stroke-linejoin="round" stroke-width="1"/>
        <rect id="Rectangle_86" data-name="Rectangle 86" width="30.188" height="39.348" transform="translate(11.654 5.941)" fill="#fff" stroke="#263238" stroke-linecap="round" stroke-linejoin="round" stroke-width="1"/>
        <path id="Path_245" data-name="Path 245" d="M218.919,17.788h-1.254V16.24h-6.278v1.548h-1.254a1.966,1.966,0,0,0-1.973,1.944V23.56H220.9V19.731a1.973,1.973,0,0,0-1.98-1.944Z" transform="translate(-187.778 -16.24)" fill="#263238" stroke="#263238" stroke-linecap="round" stroke-linejoin="round" stroke-width="1"/>
        <rect id="Rectangle_87" data-name="Rectangle 87" width="5.339" height="5.339" transform="translate(14.008 15.138)" fill="#fff" stroke="#263238" stroke-linecap="round" stroke-linejoin="round" stroke-width="1"/>
        <rect id="Rectangle_88" data-name="Rectangle 88" width="5.339" height="5.339" transform="translate(14.008 24.628)" fill="#fff" stroke="#263238" stroke-linecap="round" stroke-linejoin="round" stroke-width="1"/>
        <rect id="Rectangle_89" data-name="Rectangle 89" width="5.339" height="5.339" transform="translate(14.008 34.119)" fill="#fff" stroke="#263238" stroke-linecap="round" stroke-linejoin="round" stroke-width="1"/>
        <line id="Line_193" data-name="Line 193" x2="16.414" transform="translate(21.915 17.514)" fill="none" stroke="#263238" stroke-linecap="round" stroke-linejoin="round" stroke-width="1"/>
        <line id="Line_194" data-name="Line 194" x2="16.414" transform="translate(21.915 27.797)" fill="none" stroke="#263238" stroke-linecap="round" stroke-linejoin="round" stroke-width="1"/>
        <line id="Line_195" data-name="Line 195" x2="16.414" transform="translate(21.915 37.485)" fill="none" stroke="#263238" stroke-linecap="round" stroke-linejoin="round" stroke-width="1"/>
        <path id="Path_246" data-name="Path 246" d="M201.57,37.992l1.181,1.892L207,35.08" transform="translate(-186.021 -21.262)" fill="#fff" stroke="#263238" stroke-linecap="round" stroke-linejoin="round" stroke-width="1"/>
        <path id="Path_247" data-name="Path 247" d="M201.57,51.082l1.181,1.892L207,48.17" transform="translate(-186.021 -24.752)" fill="#fff" stroke="#263238" stroke-linecap="round" stroke-linejoin="round" stroke-width="1"/>
        <path id="Path_248" data-name="Path 248" d="M201.57,64.172l1.181,1.892L207,61.26" transform="translate(-186.021 -28.241)" fill="#fff" stroke="#263238" stroke-linecap="round" stroke-linejoin="round" stroke-width="1"/>
        <line id="Line_196" data-name="Line 196" x1="9.395" transform="translate(0 31.002)" fill="none" stroke="#263238" stroke-linecap="round" stroke-linejoin="round" stroke-width="1"/>
      </g>
      <g id="freepik--character-5--inject-2" transform="translate(287.426 243.036)">
        <path id="Path_249" data-name="Path 249" d="M447.033,359.76l2.574,16.473-.623,14.052H446.7l-1.313-12.593Z" transform="translate(-402.289 -334.611)" fill="#fff" stroke="#263238" stroke-linecap="round" stroke-linejoin="round" stroke-width="1"/>
        <path id="Path_250" data-name="Path 250" d="M437.795,390.93H420.163l-.953,47.988h4.276l5.493-36.48,5.493,36.48h4.276Z" transform="translate(-395.31 -342.92)" fill="#263238" stroke="#263238" stroke-linecap="round" stroke-linejoin="round" stroke-width="1"/>
        <path id="Path_251" data-name="Path 251" d="M431.7,355.53l-3.124.66-3.124-.66-7.848,3.1,2.134,22.861H437.4l2.134-22.861Z" transform="translate(-394.881 -333.483)" fill="#fff" stroke="#263238" stroke-linecap="round" stroke-linejoin="round" stroke-width="1"/>
        <path id="Path_252" data-name="Path 252" d="M429.9,361.267l1.276,3.154-1,13.612,1.606,2.956,1.885-3.088-1.547-13.341,1.342-2.758L431.7,359.25Z" transform="translate(-398.16 -334.475)" fill="#263238" stroke="#263238" stroke-linecap="round" stroke-linejoin="round" stroke-width="1"/>
        <path id="Path_253" data-name="Path 253" d="M434.5,354.234l-3.132,3.953-2.934-3.953V350.67H434.5Z" transform="translate(-397.768 -332.188)" fill="#263238" stroke="#263238" stroke-linecap="round" stroke-linejoin="round" stroke-width="1"/>
        <path id="Path_254" data-name="Path 254" d="M426.583,345.417s-.733-1.041-.909-.132,1.1,2.545,1.1,2.545Z" transform="translate(-397.029 -330.653)" fill="#fff" stroke="#263238" stroke-linecap="round" stroke-linejoin="round" stroke-width="1"/>
        <path id="Path_255" data-name="Path 255" d="M438.013,345.417s.733-1.041.917-.132-1.1,2.545-1.1,2.545Z" transform="translate(-400.274 -330.653)" fill="#fff" stroke="#263238" stroke-linecap="round" stroke-linejoin="round" stroke-width="1"/>
        <path id="Path_256" data-name="Path 256" d="M433.967,349.311l-.623.8a2.64,2.64,0,0,1-2.083,1.019h0a2.64,2.64,0,0,1-1.966-.873l-.777-.873a5.178,5.178,0,0,1-1.327-3.469v-4.246a3.931,3.931,0,0,1,3.938-3.938h0a3.938,3.938,0,0,1,3.946,3.938v4.452A5.178,5.178,0,0,1,433.967,349.311Z" transform="translate(-397.438 -328.738)" fill="#fff" stroke="#263238" stroke-linecap="round" stroke-linejoin="round" stroke-width="1"/>
        <path id="Path_257" data-name="Path 257" d="M431.086,349.61s-.271.565,0,.8a2.2,2.2,0,0,0,1.672.2c.587-.176.264-1.107.264-1.107" transform="translate(-398.444 -331.876)" fill="none" stroke="#263238" stroke-linecap="round" stroke-linejoin="round" stroke-width="0.5"/>
        <path id="Path_258" data-name="Path 258" d="M431.13,352.479a3.014,3.014,0,0,0,2.061-.059" transform="translate(-398.488 -332.654)" fill="none" stroke="#263238" stroke-linecap="round" stroke-linejoin="round" stroke-width="0.5"/>
        <path id="Path_259" data-name="Path 259" d="M430.614,345.79a1.65,1.65,0,0,0-1.724.176" transform="translate(-397.891 -330.843)" fill="none" stroke="#263238" stroke-linecap="round" stroke-linejoin="round" stroke-width="0.5"/>
        <path id="Path_260" data-name="Path 260" d="M433.41,345.941a1.716,1.716,0,0,1,1.826.235" transform="translate(-399.096 -330.884)" fill="none" stroke="#263238" stroke-linecap="round" stroke-linejoin="round" stroke-width="0.5"/>
        <path id="Path_261" data-name="Path 261" d="M430.5,347.41a.381.381,0,1,1-.374-.44A.411.411,0,0,1,430.5,347.41Z" transform="translate(-398.119 -331.201)" fill="#263238"/>
        <path id="Path_262" data-name="Path 262" d="M435.074,347.41a.381.381,0,1,1-.374-.44A.411.411,0,0,1,435.074,347.41Z" transform="translate(-399.337 -331.201)" fill="#263238"/>
        <path id="Path_263" data-name="Path 263" d="M435.064,341.728a3.946,3.946,0,0,0-7.884,0v1.467l.271.367s.455,0,.455-.323v-1.694a11.492,11.492,0,0,0,3,0,4.8,4.8,0,0,0,3.058-1.305s-.323,1.371,0,1.892.733,1.3.733,1.3l.264.851.117-.733Z" transform="translate(-397.435 -328.797)" fill="#263238" stroke="#263238" stroke-linecap="round" stroke-linejoin="round" stroke-width="1"/>
        <path id="Path_264" data-name="Path 264" d="M427.676,354.77l-.836,1.027.946,5.838,3.154-2.354,3.44,2.259.557-5.743-.821-.821-3.227,3.08Z" transform="translate(-397.344 -333.281)" fill="#fff" stroke="#263238" stroke-linecap="round" stroke-linejoin="round" stroke-width="1"/>
        <path id="Path_265" data-name="Path 265" d="M418.64,456.36s-1.812,5.6-1.54,5.691,6.1,0,6.1,0l-.286-5.691Z" transform="translate(-394.741 -360.363)" fill="#fff" stroke="#263238" stroke-linecap="round" stroke-linejoin="round" stroke-width="1"/>
        <path id="Path_266" data-name="Path 266" d="M444.345,456.36s1.812,5.6,1.54,5.691-6.095,0-6.095,0l.279-5.691Z" transform="translate(-400.797 -360.363)" fill="#fff" stroke="#263238" stroke-linecap="round" stroke-linejoin="round" stroke-width="1"/>
        <path id="Path_267" data-name="Path 267" d="M449.162,401.38l.33,3.894a14.724,14.724,0,0,1-1.79.733c-.22,0-.587-.594-.587-.594h0a.836.836,0,0,1-.873-1.012l.645-2.992Z" transform="translate(-402.512 -345.706)" fill="#fff" stroke="#263238" stroke-linecap="round" stroke-linejoin="round" stroke-width="1"/>
        <path id="Path_268" data-name="Path 268" d="M412.311,359.76l-14.551,24.6.616,3.2,14.551-17.03Z" transform="translate(-389.592 -334.611)" fill="#fff" stroke="#263238" stroke-linecap="round" stroke-linejoin="round" stroke-width="1"/>
        <path id="Path_269" data-name="Path 269" d="M394.433,392.72s-2.017,2.552-1.914,3.4,2.45,4.254,2.552,3.828S394.433,392.72,394.433,392.72Z" transform="translate(-388.194 -343.397)" fill="#fff" stroke="#263238" stroke-linecap="round" stroke-linejoin="round" stroke-width="1"/>
        <rect id="Rectangle_90" data-name="Rectangle 90" width="10.913" height="57.089" transform="translate(6.649 20.279)" fill="#fff" stroke="#263238" stroke-linecap="round" stroke-linejoin="round" stroke-width="1"/>
        <path id="Path_270" data-name="Path 270" d="M405.453,325.859l.1,10.752-6.645,4.364-6.5-4.577.513-10.928a12.189,12.189,0,1,0,12.534.389Z" transform="translate(-386.636 -325.47)" fill="#fff" stroke="#263238" stroke-linecap="round" stroke-linejoin="round" stroke-width="1"/>
        <path id="Path_271" data-name="Path 271" d="M405.661,449.768v-.931l-.147-10.055-6.645-4.364-6.5,4.584.183,10.048v.865a11.874,11.874,0,0,1-5.926-10.613,12.182,12.182,0,1,1,24.364,0,12.373,12.373,0,0,1-5.332,10.466Z" transform="translate(-386.624 -352.568)" fill="#fff" stroke="#263238" stroke-linecap="round" stroke-linejoin="round" stroke-width="1"/>
        <rect id="Rectangle_91" data-name="Rectangle 91" width="4.819" height="35.014" rx="2.409" transform="translate(9.693 31.948)" fill="#fff" stroke="#263238" stroke-linecap="round" stroke-linejoin="round" stroke-width="0.75"/>
      </g>
      <g id="freepik--character-4--inject-2" transform="translate(155.642 182.182)">
        <path id="Path_272" data-name="Path 272" d="M267.809,281.16l-.161.763L266.32,294l-6.373-1.562-2.376,2.714,11.185,4.063.587-2.215Z" transform="translate(-220.437 -252.804)" fill="#fff" stroke="#263238" stroke-linecap="round" stroke-linejoin="round" stroke-width="1"/>
        <path id="Path_273" data-name="Path 273" d="M290.034,312.01H272.586l-.946,47.511h4.232l5.435-36.114,5.442,36.114h4.232Z" transform="translate(-224.188 -261.028)" fill="#263238" stroke="#263238" stroke-linecap="round" stroke-linejoin="round" stroke-width="1"/>
        <path id="Path_274" data-name="Path 274" d="M284.394,276.96l-3.1.653-3.1-.653-6.674,3.08,1.027,22.626h17.485l1.034-22.626Z" transform="translate(-224.158 -251.684)" fill="#fff" stroke="#263238" stroke-linecap="round" stroke-linejoin="round" stroke-width="1"/>
        <path id="Path_275" data-name="Path 275" d="M282.22,282.645l1.262,3.124-1,13.473,1.6,2.926,1.863-3.058L284.413,285.9l1.328-2.721-1.731-2.53Z" transform="translate(-227.008 -252.668)" fill="#263238" stroke="#263238" stroke-linecap="round" stroke-linejoin="round" stroke-width="1"/>
        <path id="Path_276" data-name="Path 276" d="M280.019,276.21l-.829,1.019.931,5.779,3.132-2.332,3.4,2.237.565-5.684-.814-.814-3.2,3.051Z" transform="translate(-226.2 -251.484)" fill="#fff" stroke="#263238" stroke-linecap="round" stroke-linejoin="round" stroke-width="1"/>
        <path id="Path_277" data-name="Path 277" d="M271.075,376.78s-1.8,5.545-1.525,5.633,6.036,0,6.036,0l-.279-5.633Z" transform="translate(-223.623 -278.294)" fill="#fff" stroke="#263238" stroke-linecap="round" stroke-linejoin="round" stroke-width="1"/>
        <path id="Path_278" data-name="Path 278" d="M296.471,376.78s1.8,5.545,1.525,5.633-6.036,0-6.036,0l.279-5.633Z" transform="translate(-229.605 -278.294)" fill="#fff" stroke="#263238" stroke-linecap="round" stroke-linejoin="round" stroke-width="1"/>
        <path id="Path_279" data-name="Path 279" d="M286.769,275.678l-3.1,3.916-2.9-3.916V272.15h6Z" transform="translate(-226.622 -250.402)" fill="#263238" stroke="#263238" stroke-linecap="round" stroke-linejoin="round" stroke-width="1"/>
        <path id="Path_280" data-name="Path 280" d="M278.936,266.958s-.733-1.034-.9-.132,1.085,2.516,1.085,2.516Z" transform="translate(-225.888 -248.884)" fill="#a1a1a1" stroke="#263238" stroke-linecap="round" stroke-linejoin="round" stroke-width="1"/>
        <path id="Path_281" data-name="Path 281" d="M290.253,266.958s.733-1.034.9-.132-1.085,2.516-1.085,2.516Z" transform="translate(-229.101 -248.884)" fill="#a1a1a1" stroke="#263238" stroke-linecap="round" stroke-linejoin="round" stroke-width="1"/>
        <path id="Path_282" data-name="Path 282" d="M286.245,270.831l-.623.792a2.626,2.626,0,0,1-2.061,1h0a2.626,2.626,0,0,1-1.944-.865l-.777-.858a5.134,5.134,0,0,1-1.32-3.44v-4.2a3.909,3.909,0,0,1,3.909-3.909h0a3.909,3.909,0,0,1,3.9,3.909v4.4a5.134,5.134,0,0,1-1.085,3.161Z" transform="translate(-226.288 -246.993)" fill="#a1a1a1" stroke="#263238" stroke-linecap="round" stroke-linejoin="round" stroke-width="1"/>
        <path id="Path_283" data-name="Path 283" d="M283.6,270.88s-.279.565,0,.8a2.2,2.2,0,0,0,1.68.2c.587-.176.257-1.107.257-1.107" transform="translate(-227.344 -250.034)" fill="none" stroke="#263238" stroke-linecap="round" stroke-linejoin="round" stroke-width="0.5"/>
        <path id="Path_284" data-name="Path 284" d="M283.65,273.749a2.993,2.993,0,0,0,2.054-.059" transform="translate(-227.389 -250.813)" fill="none" stroke="#263238" stroke-linecap="round" stroke-linejoin="round" stroke-width="0.5"/>
        <path id="Path_285" data-name="Path 285" d="M283.124,267.061a1.665,1.665,0,0,0-1.724.176" transform="translate(-226.789 -249.002)" fill="none" stroke="#263238" stroke-linecap="round" stroke-linejoin="round" stroke-width="0.5"/>
        <path id="Path_286" data-name="Path 286" d="M285.93,267.251a1.7,1.7,0,0,1,1.819.235" transform="translate(-227.997 -249.053)" fill="none" stroke="#263238" stroke-linecap="round" stroke-linejoin="round" stroke-width="0.5"/>
        <path id="Path_287" data-name="Path 287" d="M283.021,268.68a.411.411,0,0,1-.374.44.447.447,0,0,1,0-.88A.411.411,0,0,1,283.021,268.68Z" transform="translate(-227.024 -249.36)" fill="#263238"/>
        <path id="Path_288" data-name="Path 288" d="M287.594,268.68a.381.381,0,1,1-.381-.44.411.411,0,0,1,.381.44Z" transform="translate(-228.239 -249.36)" fill="#263238"/>
        <path id="Path_289" data-name="Path 289" d="M212.712,248.968a20.88,20.88,0,1,0,29.52-.7,20.88,20.88,0,0,0-29.52.7Zm26.851,25.611a16.231,16.231,0,1,1-.543-22.949,16.231,16.231,0,0,1,.543,22.949Z" transform="translate(-206.94 -242.497)" fill="#263238" stroke="#263238" stroke-linecap="round" stroke-linejoin="round" stroke-width="1"/>
        <path id="Path_290" data-name="Path 290" d="M281.827,315.513h0a4.239,4.239,0,0,1-6.131,0L253.37,292.006,257,288.2l24.533,21.2a4.232,4.232,0,0,1,.293,6.117Z" transform="translate(-219.317 -254.681)" fill="#a1a1a1" stroke="#263238" stroke-linecap="round" stroke-linejoin="round" stroke-width="1"/>
        <path id="Path_291" data-name="Path 291" d="M292.707,281.16l-1.775,14.874-13.282,8.09.726,2.178,16.348-4.9,1.54-2.662Z" transform="translate(-225.79 -252.804)" fill="#fff" stroke="#263238" stroke-linecap="round" stroke-linejoin="round" stroke-width="1"/>
        <path id="Path_292" data-name="Path 292" d="M276.269,312.294l-1.988-.484s-1.584,1.225-1.768,1.782a.88.88,0,0,0,.557,1.107s1.107,1.3,1.57,1.3A10.376,10.376,0,0,0,277,314.472Z" transform="translate(-224.409 -260.975)" fill="#a1a1a1" stroke="#263238" stroke-linecap="round" stroke-linejoin="round" stroke-width="1"/>
        <rect id="Rectangle_92" data-name="Rectangle 92" width="3.476" height="2.413" transform="translate(36.131 38.247) rotate(41.46)" fill="#a1a1a1" stroke="#263238" stroke-linecap="round" stroke-linejoin="round" stroke-width="1"/>
      </g>
      <g id="freepik--character-3--inject-2" transform="translate(236.856 136.162)">
        <path id="Path_293" data-name="Path 293" d="M349.49,232.62H331.976l-.946,47.68h4.247l5.457-36.246L346.2,280.3h4.247Z" transform="translate(-321.234 -193.844)" fill="#263238" stroke="#263238" stroke-linecap="round" stroke-linejoin="round" stroke-width="1"/>
        <path id="Path_294" data-name="Path 294" d="M343.431,196.854l-3.1-1.614-3.1,1.614-7.8,3.088,2.12,22.714H349.1l2.127-22.714Z" transform="translate(-320.807 -183.879)" fill="#fff" stroke="#263238" stroke-linecap="round" stroke-linejoin="round" stroke-width="1"/>
        <path id="Path_295" data-name="Path 295" d="M338.353,187.389s-.733-1.034-.909-.125,1.093,2.523,1.093,2.523Z" transform="translate(-322.939 -181.653)" fill="#fff" stroke="#263238" stroke-linecap="round" stroke-linejoin="round" stroke-width="1"/>
        <path id="Path_296" data-name="Path 296" d="M349.713,187.389s.733-1.034.9-.125-1.085,2.523-1.085,2.523Z" transform="translate(-326.165 -181.653)" fill="#fff" stroke="#263238" stroke-linecap="round" stroke-linejoin="round" stroke-width="1"/>
        <path id="Path_297" data-name="Path 297" d="M346.78,183.725a3.924,3.924,0,0,0-7.84,0v4.217a5.178,5.178,0,0,0,.917,2.934v1.914l2.934-.44,3.11.44v-1.738a5.134,5.134,0,0,0,.895-2.9Z" transform="translate(-323.342 -179.809)" fill="#fff" stroke="#263238" stroke-linecap="round" stroke-linejoin="round" stroke-width="1"/>
        <path id="Path_298" data-name="Path 298" d="M330.433,297.63s-1.8,5.559-1.533,5.647,6.058,0,6.058,0l-.279-5.647Z" transform="translate(-320.658 -211.174)" fill="#fff" stroke="#263238" stroke-linecap="round" stroke-linejoin="round" stroke-width="1"/>
        <path id="Path_299" data-name="Path 299" d="M355.953,297.63s1.8,5.559,1.533,5.647-6.065,0-6.065,0l.286-5.647Z" transform="translate(-326.669 -211.174)" fill="#fff" stroke="#263238" stroke-linecap="round" stroke-linejoin="round" stroke-width="1"/>
        <path id="Path_300" data-name="Path 300" d="M337.3,197.558l2.2-2.332,5.508-.066,2.325,2.325a88.283,88.283,0,0,0-10.033.073Z" transform="translate(-322.905 -183.858)" fill="#fff" stroke="#263238" stroke-linecap="round" stroke-linejoin="round" stroke-width="1"/>
        <path id="Path_301" data-name="Path 301" d="M342.864,179.75a3.916,3.916,0,0,0-3.924,3.916v4.217a2.156,2.156,0,0,0,.037.484l1.592,2.068h4.459l1.753-2.347v-4.4a3.916,3.916,0,0,0-3.916-3.938Z" transform="translate(-323.342 -179.75)" fill="#263238" stroke="#263238" stroke-linecap="round" stroke-linejoin="round" stroke-width="1"/>
        <path id="Path_302" data-name="Path 302" d="M326.3,201.65s-8.383,13.781-8.618,14.192,7.694,9.292,7.694,9.292l.733-2.714-2.024-7.334,3.029-3.154Z" transform="translate(-317.673 -185.588)" fill="#fff" stroke="#263238" stroke-linecap="round" stroke-linejoin="round" stroke-width="1"/>
        <path id="Path_303" data-name="Path 303" d="M328.933,229.93l2.78,2.046-1.276,3.432-1.606-.286-.051-.66-.609-1.819Z" transform="translate(-320.471 -193.127)" fill="#fff" stroke="#263238" stroke-linecap="round" stroke-linejoin="round" stroke-width="1"/>
        <path id="Path_304" data-name="Path 304" d="M358.825,199.92l4.5,4.144,5.273-8.9,3.1.931-6.828,18.057-6.946-4.3Z" transform="translate(-328.405 -183.858)" fill="#fff" stroke="#263238" stroke-linecap="round" stroke-linejoin="round" stroke-width="1"/>
        <path id="Path_305" data-name="Path 305" d="M372.48,192.737l1.239-3.564,3.256-3.1.777,1.012-1.379,1.988,1.379,1.078-.081,1.914-2.09,1.606Z" transform="translate(-332.283 -181.435)" fill="#fff" stroke="#263238" stroke-linecap="round" stroke-linejoin="round" stroke-width="1"/>
      </g>
      <g id="freepik--character-2--inject-2" transform="translate(145.631 77.935)">
        <path id="Path_306" data-name="Path 306" d="M202.84,122.17l-.169.763L200.3,134.059l-4.305-.7.227,2.677,7.569,4.2.587-2.215Z" transform="translate(-194.01 -106.174)" fill="#fff" stroke="#263238" stroke-linecap="round" stroke-linejoin="round" stroke-width="1"/>
        <path id="Path_307" data-name="Path 307" d="M231.652,122.17l3.52,12.7h3.616L237.74,137.9l-6.99.931Z" transform="translate(-203.276 -106.174)" fill="#fff" stroke="#263238" stroke-linecap="round" stroke-linejoin="round" stroke-width="1"/>
        <path id="Path_308" data-name="Path 308" d="M223.834,153.03H206.386l-.946,47.5h4.232l5.442-36.114,5.435,36.114h4.232Z" transform="translate(-196.529 -114.401)" fill="#263238" stroke="#263238" stroke-linecap="round" stroke-linejoin="round" stroke-width="1"/>
        <path id="Path_309" data-name="Path 309" d="M218.194,117.98l-3.1.653-3.1-.653-6.674,3.073,1.027,22.633h17.485l1.034-22.633Z" transform="translate(-196.5 -105.057)" fill="#fff" stroke="#263238" stroke-linecap="round" stroke-linejoin="round" stroke-width="1"/>
        <path id="Path_310" data-name="Path 310" d="M216.02,123.665l1.261,3.124-1,13.473,1.6,2.926,1.856-3.058-1.526-13.209,1.328-2.728-1.731-2.523Z" transform="translate(-199.349 -106.041)" fill="#263238" stroke="#263238" stroke-linecap="round" stroke-linejoin="round" stroke-width="1"/>
        <path id="Path_311" data-name="Path 311" d="M213.819,117.23l-.829,1.012.931,5.787,3.132-2.332,3.4,2.237.565-5.691-.814-.814-3.2,3.058Z" transform="translate(-198.542 -104.857)" fill="#fff" stroke="#263238" stroke-linecap="round" stroke-linejoin="round" stroke-width="1"/>
        <path id="Path_312" data-name="Path 312" d="M204.875,217.8s-1.8,5.545-1.525,5.633,6.036,0,6.036,0l-.279-5.633Z" transform="translate(-195.964 -131.667)" fill="#fff" stroke="#263238" stroke-linecap="round" stroke-linejoin="round" stroke-width="1"/>
        <path id="Path_313" data-name="Path 313" d="M230.271,217.8s1.8,5.545,1.526,5.633-6.036,0-6.036,0l.279-5.633Z" transform="translate(-201.946 -131.667)" fill="#fff" stroke="#263238" stroke-linecap="round" stroke-linejoin="round" stroke-width="1"/>
        <path id="Path_314" data-name="Path 314" d="M220.569,116.7l-3.1,3.916-2.9-3.916V113.17h6Z" transform="translate(-198.963 -103.775)" fill="#263238" stroke="#263238" stroke-linecap="round" stroke-linejoin="round" stroke-width="1"/>
        <path id="Path_315" data-name="Path 315" d="M212.736,107.97s-.733-1.027-.9-.125,1.085,2.516,1.085,2.516Z" transform="translate(-198.229 -102.256)" fill="#a1a1a1" stroke="#263238" stroke-linecap="round" stroke-linejoin="round" stroke-width="1"/>
        <path id="Path_316" data-name="Path 316" d="M224.053,107.97s.733-1.027.9-.125-1.085,2.516-1.085,2.516Z" transform="translate(-201.442 -102.256)" fill="#a1a1a1" stroke="#263238" stroke-linecap="round" stroke-linejoin="round" stroke-width="1"/>
        <path id="Path_317" data-name="Path 317" d="M220.045,111.833l-.623.8a2.626,2.626,0,0,1-2.061,1h0a2.626,2.626,0,0,1-1.944-.865l-.777-.865a5.134,5.134,0,0,1-1.32-3.432v-4.2a3.909,3.909,0,0,1,3.909-3.9h0a3.9,3.9,0,0,1,3.9,3.9v4.4a5.134,5.134,0,0,1-1.085,3.161Z" transform="translate(-198.63 -100.363)" fill="#a1a1a1" stroke="#263238" stroke-linecap="round" stroke-linejoin="round" stroke-width="1"/>
        <path id="Path_318" data-name="Path 318" d="M215.57,110.7a1.254,1.254,0,0,0,1.408.044" transform="translate(-199.229 -103.116)" fill="none" stroke="#263238" stroke-linecap="round" stroke-linejoin="round" stroke-width="0.5"/>
        <path id="Path_319" data-name="Path 319" d="M220,110.82a1.056,1.056,0,0,0,1.284,0" transform="translate(-200.41 -103.148)" fill="none" stroke="#263238" stroke-linecap="round" stroke-linejoin="round" stroke-width="0.5"/>
        <path id="Path_320" data-name="Path 320" d="M217.4,112.963s-.279.572,0,.807a2.2,2.2,0,0,0,1.672.191c.587-.176.257-1.1.257-1.1" transform="translate(-199.686 -103.692)" fill="none" stroke="#263238" stroke-linecap="round" stroke-linejoin="round" stroke-width="0.5"/>
        <path id="Path_321" data-name="Path 321" d="M217.45,115.619a2.992,2.992,0,0,0,2.054-.059" transform="translate(-199.731 -104.412)" fill="none" stroke="#263238" stroke-linecap="round" stroke-linejoin="round" stroke-width="0.5"/>
        <path id="Path_322" data-name="Path 322" d="M216.924,109.44a1.65,1.65,0,0,0-1.724.176" transform="translate(-199.131 -102.737)" fill="none" stroke="#263238" stroke-linecap="round" stroke-linejoin="round" stroke-width="0.5"/>
        <path id="Path_323" data-name="Path 323" d="M219.73,109.631a1.7,1.7,0,0,1,1.819.235" transform="translate(-200.338 -102.788)" fill="none" stroke="#263238" stroke-linecap="round" stroke-linejoin="round" stroke-width="0.5"/>
        <path id="Path_324" data-name="Path 324" d="M217.229,100.36a3.909,3.909,0,0,0-3.909,3.9v1.812h.66V104l1.694-1.511,1.694.3,1.694-.3L220.757,104v2.076h.4v-1.812a3.9,3.9,0,0,0-3.924-3.9Z" transform="translate(-198.63 -100.36)" fill="#263238" stroke="#263238" stroke-linecap="round" stroke-linejoin="round" stroke-width="1"/>
        <path id="Path_325" data-name="Path 325" d="M194,127.58s10.407,4.833,16.172,5.765,21.181-4.833,21.181-4.833l-4.085,18.211s-11.148,1.856-16.539,2.2-15.607-3.344-15.607-3.344S194.917,130.558,194,127.58Z" transform="translate(-193.479 -107.616)" fill="#fff" stroke="#263238" stroke-linecap="round" stroke-linejoin="round" stroke-width="1"/>
        <line id="Line_197" data-name="Line 197" x1="0.785" y2="10.921" transform="translate(18.16 28.625)" fill="none" stroke="#263238" stroke-linecap="round" stroke-linejoin="round" stroke-width="0.5"/>
        <path id="Path_326" data-name="Path 326" d="M239.536,137s-2.34,2.728-5.266,6.241" transform="translate(-204.214 -110.127)" fill="none" stroke="#263238" stroke-linecap="round" stroke-linejoin="round" stroke-width="0.5"/>
        <path id="Path_327" data-name="Path 327" d="M196,137.43a18.758,18.758,0,0,1,5.068,5.926" transform="translate(-194.012 -110.242)" fill="none" stroke="#263238" stroke-linecap="round" stroke-linejoin="round" stroke-width="0.5"/>
        <path id="Path_328" data-name="Path 328" d="M242.652,137.43s.931.235.931,1.049-.117,3.139-1.049,3.491-1.4.235-1.166-1.394S241.134,137.782,242.652,137.43Z" transform="translate(-206.091 -110.242)" fill="#a1a1a1" stroke="#263238" stroke-linecap="round" stroke-linejoin="round" stroke-width="1"/>
        <path id="Path_329" data-name="Path 329" d="M194.221,137.43s-.931.235-.931,1.049.117,3.139,1.049,3.491,1.393.235,1.159-1.394S195.732,137.782,194.221,137.43Z" transform="translate(-193.29 -110.242)" fill="#a1a1a1" stroke="#263238" stroke-linecap="round" stroke-linejoin="round" stroke-width="1"/>
      </g>
      <g id="freepik--character-1--inject-2" transform="translate(110.717 21.521)">
        <path id="Path_330" data-name="Path 330" d="M156.68,37.681a4.4,4.4,0,1,0,4.4-4.4A4.4,4.4,0,0,0,156.68,37.681Z" transform="translate(-148.616 -26.063)" fill="#263238" stroke="#263238" stroke-linecap="round" stroke-linejoin="round" stroke-width="1"/>
        <path id="Path_331" data-name="Path 331" d="M171.358,100.62l-.22,7.928-.213,20.4h-3.1l-2.186-20.184-.557-8.258Z" transform="translate(-150.855 -43.985)" fill="#fff" stroke="#263238" stroke-linecap="round" stroke-linejoin="round" stroke-width="1"/>
        <path id="Path_332" data-name="Path 332" d="M171.858,139.29a52.513,52.513,0,0,1,1.122,5.559c-.191.088-4.4,0-4.4,0l.205-5.559Z" transform="translate(-151.788 -54.323)" fill="#fff" stroke="#263238" stroke-linecap="round" stroke-linejoin="round" stroke-width="1"/>
        <path id="Path_333" data-name="Path 333" d="M172.981,146.121c-.2.088-4.4,0-4.4,0l.073-2.061h4.026A8.545,8.545,0,0,1,172.981,146.121Z" transform="translate(-151.788 -55.595)" fill="#263238" stroke="#263238" stroke-linecap="round" stroke-linejoin="round" stroke-width="1"/>
        <path id="Path_334" data-name="Path 334" d="M151.57,100.62l.22,7.928.213,20.4h3.1l2.193-20.184.55-8.258Z" transform="translate(-147.254 -43.985)" fill="#fff" stroke="#263238" stroke-linecap="round" stroke-linejoin="round" stroke-width="1"/>
        <path id="Path_335" data-name="Path 335" d="M151.747,139.29s-1.313,5.471-1.115,5.559,4.4,0,4.4,0l-.205-5.559Z" transform="translate(-146.999 -54.323)" fill="#fff" stroke="#263238" stroke-linecap="round" stroke-linejoin="round" stroke-width="1"/>
        <path id="Path_336" data-name="Path 336" d="M150.64,146.121c.191.088,4.4,0,4.4,0l-.073-2.061h-4.026a8.317,8.317,0,0,0-.3,2.061Z" transform="translate(-147.006 -55.595)" fill="#263238" stroke="#263238" stroke-linecap="round" stroke-linejoin="round" stroke-width="1"/>
        <path id="Path_337" data-name="Path 337" d="M152.726,56.632,149.55,45.778l6.6-3.029L159.2,41.7l3.051,1.049,6.6,3.029-3.176,10.811.1,1.782,2.024,5.75a9.535,9.535,0,0,1,.543,3.168v5.559l-9.087,2.4-9.087-2.384V67.3a9.711,9.711,0,0,1,.535-3.168l2.032-5.75Z" transform="translate(-146.715 -28.308)" fill="#fff" stroke="#263238" stroke-linecap="round" stroke-linejoin="round" stroke-width="1"/>
        <path id="Path_338" data-name="Path 338" d="M156.931,41.725l1.049-.477.1.022-.015-.022.689-5.178h4.694l.535,5.178-.059.081.4.022.653.3.623,4.694h-9.16Z" transform="translate(-148.552 -26.807)" fill="#fff" stroke="#263238" stroke-linecap="round" stroke-linejoin="round" stroke-width="1"/>
        <path id="Path_339" data-name="Path 339" d="M168.154,30.95s.7-1.019.887-.132S168,33.3,168,33.3Z" transform="translate(-151.634 -25.31)" fill="#a1a1a1" stroke="#263238" stroke-linecap="round" stroke-linejoin="round" stroke-width="1"/>
        <path id="Path_340" data-name="Path 340" d="M156.98,30.95s-.733-1.019-.895-.132,1.078,2.486,1.078,2.486Z" transform="translate(-148.454 -25.31)" fill="#a1a1a1" stroke="#263238" stroke-linecap="round" stroke-linejoin="round" stroke-width="1"/>
        <path id="Path_341" data-name="Path 341" d="M158.541,34.749l.616.785a2.567,2.567,0,0,0,2.032.99h0a2.574,2.574,0,0,0,1.914-.851l.77-.821a5.083,5.083,0,0,0,1.327-3.418V27.29a3.85,3.85,0,0,0-3.85-3.85h0a3.85,3.85,0,0,0-3.85,3.85v4.342A5.046,5.046,0,0,0,158.541,34.749Z" transform="translate(-148.835 -23.44)" fill="#fff" stroke="#263238" stroke-linecap="round" stroke-linejoin="round" stroke-width="1"/>
        <path id="Path_342" data-name="Path 342" d="M161.13,37.05a2.2,2.2,0,0,0,2.127,0" transform="translate(-149.802 -27.068)" fill="#fff" stroke="#263238" stroke-linecap="round" stroke-linejoin="round" stroke-width="0.5"/>
        <path id="Path_343" data-name="Path 343" d="M162.843,34.41s.1.895-.2.946-.645-.513-.645-.513" transform="translate(-150.034 -26.364)" fill="#fff" stroke="#263238" stroke-linecap="round" stroke-linejoin="round" stroke-width="0.5"/>
        <path id="Path_344" data-name="Path 344" d="M159.5,33.19a1.342,1.342,0,0,0,1.636.051" transform="translate(-149.368 -26.039)" fill="#fff" stroke="#263238" stroke-linecap="round" stroke-linejoin="round" stroke-width="0.5"/>
        <path id="Path_345" data-name="Path 345" d="M163.76,33.19a1.342,1.342,0,0,0,1.636.051" transform="translate(-150.504 -26.039)" fill="#fff" stroke="#263238" stroke-linecap="round" stroke-linejoin="round" stroke-width="0.5"/>
        <path id="Path_346" data-name="Path 346" d="M161.07,32.178a2.3,2.3,0,0,0-2.2-.2" transform="translate(-149.2 -25.666)" fill="#fff" stroke="#263238" stroke-linecap="round" stroke-linejoin="round" stroke-width="0.5"/>
        <path id="Path_347" data-name="Path 347" d="M163.69,32.181a2.3,2.3,0,0,1,1.936.051" transform="translate(-150.485 -25.72)" fill="#fff" stroke="#263238" stroke-linecap="round" stroke-linejoin="round" stroke-width="0.5"/>
        <path id="Path_348" data-name="Path 348" d="M161.332,23.44a3.85,3.85,0,0,1,3.88,3.85v1.694c-.851-.308-4.555-1.724-6.2-3.7l-1.467,3.513v-1.5a3.851,3.851,0,0,1,3.792-3.85Z" transform="translate(-148.845 -23.44)" fill="#263238" stroke="#263238" stroke-linecap="round" stroke-linejoin="round" stroke-width="1"/>
        <path id="Path_349" data-name="Path 349" d="M150.4,78.688a22.291,22.291,0,0,1,.592-5.113L153,65.29h14.911l2.011,8.285a21.87,21.87,0,0,1,.6,5.113l-.049,29.708H150.465Z" transform="translate(-147.903 -34.596)" fill="#263238" stroke="#263238" stroke-linecap="round" stroke-linejoin="round" stroke-width="1"/>
        <path id="Path_350" data-name="Path 350" d="M177.823,61.35a17.614,17.614,0,0,1,.5,3.594c-.139.77-.909,1.775-1.636,1.731s-2.486-2.934-2.486-2.934l.279-1.672Z" transform="translate(-153.287 -33.546)" fill="#fff" stroke="#263238" stroke-linecap="round" stroke-linejoin="round" stroke-width="1"/>
        <line id="Line_198" data-name="Line 198" x2="1.907" y2="1.005" transform="translate(22.175 28.486)" fill="none" stroke="#263238" stroke-linecap="round" stroke-linejoin="round" stroke-width="1"/>
        <path id="Path_351" data-name="Path 351" d="M175.008,47.27l3.315,10.217-5.332,1.225-.3-3.447Z" transform="translate(-152.884 -29.792)" fill="#fff" stroke="#263238" stroke-linecap="round" stroke-linejoin="round" stroke-width="1"/>
        <path id="Path_352" data-name="Path 352" d="M145.916,61.79s-.455,2.589-.088,3.315a4.158,4.158,0,0,0,3.278,1.416c1.078-.132,1.467-3.667,1.467-3.667Z" transform="translate(-145.685 -33.663)" fill="#fff" stroke="#263238" stroke-linecap="round" stroke-linejoin="round" stroke-width="1"/>
        <path id="Path_353" data-name="Path 353" d="M148.6,47.27l-2.8,10.217,5.3,1.46-.183-3.682Z" transform="translate(-145.716 -29.792)" fill="#fff" stroke="#263238" stroke-linecap="round" stroke-linejoin="round" stroke-width="1"/>
        <path id="Path_354" data-name="Path 354" d="M147.9,61.647l7.371-3.41s1.636-1.951,1.907-1.907,3.234,3.139,2.934,3.271a1.8,1.8,0,0,1-1.041.279l-1.592-.506a7.9,7.9,0,0,1-1.276.821,1.65,1.65,0,0,1-.733.139s-4.437,4.4-4.98,4.606-2.266,1.019-3.425,0a1.966,1.966,0,0,1-.645-1.063" transform="translate(-145.881 -32.207)" fill="#fff" stroke="#263238" stroke-linecap="round" stroke-linejoin="round" stroke-width="1"/>
        <rect id="Rectangle_93" data-name="Rectangle 93" width="9.806" height="12.087" transform="translate(19.436 33.821) rotate(-170.94)" fill="#129996" stroke="#263238" stroke-linecap="round" stroke-linejoin="round" stroke-width="1"/>
        <path id="Path_355" data-name="Path 355" d="M169.629,51.337l-.367,1.863-4.452-.733.367-1.826Z" transform="translate(-150.783 -30.691)" fill="#fff" stroke="#263238" stroke-linecap="round" stroke-linejoin="round" stroke-width="1"/>
        <path id="Path_356" data-name="Path 356" d="M174.436,61.495c-.139-1.012-.389-2.134-.389-2.2a3.964,3.964,0,0,0-2.508.242,4.4,4.4,0,0,0-.279,1.327l1.562.4a15.206,15.206,0,0,0,.594,1.9c.213.345.631.308,1.012,0a.382.382,0,0,0,.088-.205" transform="translate(-152.503 -32.972)" fill="#fff" stroke="#263238" stroke-linecap="round" stroke-linejoin="round" stroke-width="1"/>
      </g>
      <g id="freepik--Plant--inject-2" transform="translate(24.703 271.347)">
        <path id="Path_357" data-name="Path 357" d="M125.676,394.458c-2.618.777-8.676-.081-8.676-.081s1.8-3.814,1.944-4.041c1.68-2.618,6.469-6.689,9.843-5.8a4.129,4.129,0,0,1,2.64,5.537C130.561,392.338,127.906,393.8,125.676,394.458Z" transform="translate(-52.025 -369.494)" fill="#129996" stroke="#263238" stroke-width="1"/>
        <path id="Path_358" data-name="Path 358" d="M51.551,389.246c-.059,0-.6-4.173-.6-4.444-.044-3.11,1.7-9.146,5-10.268a4.122,4.122,0,0,1,5.259,3.161c.55,2.4-.858,5.083-2.354,6.857C57.1,386.65,51.558,389.246,51.551,389.246Z" transform="translate(-34.417 -366.812)" fill="#129996" stroke="#263238" stroke-width="1"/>
        <path id="Path_359" data-name="Path 359" d="M32.59,375.27c1.826,1.027,6.139,1.467,7.21,1.57.535.733,1.093,1.518,1.694,2.406,1.049,1.562,2.2,3.337,3.359,5.354.3.543.609,1.129.917,1.694-.733-.843-1.716-1.995-1.826-2.1-2.01-1.848-6.982-4.254-9.652-2.743a3.623,3.623,0,0,0-1.049,5.3c1.247,1.768,3.836,2.413,5.867,2.479s6.256-1.577,7.158-1.944c.66,1.262,1.305,2.574,1.907,3.982a46.645,46.645,0,0,1,2.67,7.892l-.161.066c-.565-.865-1.79-2.648-1.907-2.78-1.8-2.068-6.476-4.995-9.292-3.792a3.623,3.623,0,0,0-1.6,5.134c1.049,1.9,3.542,2.824,5.567,3.117,2.332.33,7.334-1.144,7.5-1.2a64.9,64.9,0,0,1,1.181,8.2c.169,2.039.257,4.107.323,6.19-.381-.616-1.988-2.934-2.127-3.117-1.79-2.061-6.476-4.995-9.292-3.792a3.667,3.667,0,0,0-1.592,5.134c1.049,1.892,3.542,2.824,5.567,3.11,2.274.33,7.048-1.071,7.452-1.188,0,.946.066,1.892.088,2.838.081,3.088.139,6.19.3,9.241.051,1.063.147,2.1.235,3.146-.6-.9-1.724-2.53-1.834-2.662-1.8-2.061-6.476-4.995-9.292-3.792a3.623,3.623,0,0,0-1.592,5.134c1.041,1.892,3.542,2.824,5.559,3.11s6.073-.792,7.21-1.115c.154,1.738.352,3.454.631,5.134.132.733.22,1.467.389,2.156l.462,2.068c.359,1.394.689,2.7,1.063,3.99.183.66.367,1.269.557,1.907-.469-1.012-1.239-2.6-1.327-2.728-1.467-2.318-5.647-5.926-8.61-5.134a3.623,3.623,0,0,0-2.354,4.848c.733,2.032,3.073,3.33,5.024,3.924,2.156.653,6.931.037,7.51-.044.469,1.548.931,3.058,1.394,4.459.374,1.144.733,2.2,1.1,3.242h2.01c-.447-1.2-.917-2.472-1.394-3.828s-.895-2.6-1.342-3.975c.535-.213,4.687-1.907,6.373-3.491a37.773,37.773,0,0,0,4.034,2.266c-.462,1.555-.909,3.066-1.3,4.489q-.66,2.42-1.181,4.54h1.98c.293-1.284.609-2.633.975-4.085.323-1.291.682-2.655,1.071-4.056.587.125,5.3,1.071,7.488.565,1.988-.455,4.4-1.584,5.288-3.557a3.667,3.667,0,0,0-2.01-5.009c-2.934-.968-7.334,2.34-8.955,4.547-.1.139-1.137,1.951-1.65,2.882.242-.843.469-1.687.733-2.56.367-1.261.792-2.582,1.2-3.865.235-.66.477-1.32.733-1.995s.528-1.3.8-1.966c.4-.961.873-1.936,1.342-2.934,1.261.455,4.987,1.709,6.96,1.562s4.591-.9,5.772-2.714a3.623,3.623,0,0,0-1.232-5.251c-2.728-1.4-7.6,1.2-9.534,3.132-.066.066-.433.521-.858,1.056.484-.931.961-1.87,1.467-2.8,1.467-2.648,3.073-5.3,4.657-7.95.337-.557.653-1.115.983-1.672,1.063.389,5.083,1.782,7.151,1.636s4.591-.9,5.772-2.721a3.623,3.623,0,0,0-1.232-5.251c-2.728-1.4-7.6,1.2-9.534,3.139-.073.066-.506.609-.99,1.217.843-1.467,1.665-2.934,2.428-4.4a63.268,63.268,0,0,0,3.469-7.76c.374.139,5.061,1.87,7.334,1.7,2.039-.147,4.591-.9,5.772-2.714a3.623,3.623,0,0,0-1.232-5.251c-2.728-1.4-7.6,1.2-9.534,3.132-.139.139-1.7,2.1-2.2,2.824v-.1a48.017,48.017,0,0,0,2.061-8.163,66.322,66.322,0,0,0,.733-7.481c.11-2.325.073-4.452,0-6.344,0-1.019-.088-1.951-.147-2.824l.051.044c.044,0,1.327-3.462,1.386-3.667.645-2.662.323-8.178-2.288-9.776a3.667,3.667,0,0,0-5.134,1.687c-.939,1.951-.249,4.525.682,6.337s4.313,4.613,5.134,5.288c.037.9.073,1.87.088,2.934,0,1.885,0,4.012-.161,6.322-.044.616-.11,1.276-.169,1.914-.132-1.1-.33-2.611-.359-2.75-.66-2.655-3.484-7.408-6.535-7.62a3.623,3.623,0,0,0-3.777,3.858c.066,2.164,1.863,4.129,3.528,5.31s6.095,2.134,7.048,2.325c-.147,1.415-.33,2.868-.609,4.4a47.356,47.356,0,0,1-2.149,8.068l-.169-.037c0-1.027-.037-3.19-.059-3.374-.359-2.706-2.648-7.738-5.662-8.288a3.667,3.667,0,0,0-4.173,3.418c-.169,2.156,1.4,4.313,2.934,5.669,1.76,1.562,6.725,3.073,6.916,3.132a63.525,63.525,0,0,1-3.542,7.488c-.983,1.79-2.054,3.572-3.139,5.339,0-.733,0-3.564-.059-3.77-.359-2.706-2.64-7.738-5.655-8.288a3.667,3.667,0,0,0-4.18,3.388c-.176,2.156,1.394,4.313,2.934,5.669,1.724,1.525,6.476,3,6.872,3.117-.491.807-.983,1.614-1.467,2.413-1.636,2.626-3.293,5.244-4.848,7.877-.543.917-1.034,1.834-1.54,2.75,0-1.078,0-3.058-.059-3.227-.359-2.714-2.648-7.738-5.662-8.288a3.623,3.623,0,0,0-4.173,3.418c-.169,2.156,1.4,4.313,2.934,5.669s5.5,2.684,6.6,3.044c-.829,1.533-1.614,3.073-2.31,4.628-.286.675-.623,1.349-.865,2.017s-.506,1.32-.733,1.973c-.469,1.364-.909,2.633-1.313,3.916-.213.653-.389,1.269-.587,1.9.161-1.1.4-2.846.4-3.007.059-2.736-1.467-8.068-4.335-9.05a3.616,3.616,0,0,0-4.65,2.714,4.877,4.877,0,0,0-.11.8,14.126,14.126,0,0,0-2.376,6.689c0,.176.125,2.259.213,3.315-.264-.836-.535-1.665-.8-2.538-.389-1.254-.733-2.589-1.129-3.887-.169-.675-.33-1.364-.506-2.054s-.271-1.379-.418-2.083c-.191-1.027-.337-2.1-.484-3.168,1.3-.323,5.134-1.327,6.667-2.538s3.33-3.286,3.315-5.449a3.623,3.623,0,0,0-3.924-3.667c-3.051.337-5.677,5.193-6.227,7.877,0,.088-.073.66-.132,1.349-.11-1.049-.227-2.1-.308-3.161-.22-3.022-.352-6.109-.491-9.2-.037-.645-.073-1.283-.1-1.929,1.093-.264,5.222-1.32,6.865-2.582s3.33-3.293,3.308-5.457a3.623,3.623,0,0,0-3.924-3.667c-3.044.337-5.677,5.193-6.219,7.877,0,.1-.088.785-.154,1.555-.1-1.672-.227-3.352-.4-5a63.646,63.646,0,0,0-1.46-8.508c.389-.088,5.251-1.225,7.078-2.633,1.621-1.247,3.33-3.286,3.308-5.449a3.623,3.623,0,0,0-3.924-3.667c-3.044.337-5.669,5.2-6.219,7.877,0,.191-.257,2.692-.308,3.586v-.1a46.941,46.941,0,0,0-2.868-7.943,64.011,64.011,0,0,0-3.528-6.637c-1.188-2-2.4-3.755-3.476-5.3-.594-.829-1.151-1.584-1.68-2.274h.066c.051,0-.807-3.616-.887-3.836-.924-2.574-4.232-7-7.334-6.887a3.623,3.623,0,0,0-3.344,4.232C28.842,372.5,30.808,374.287,32.59,375.27Z" transform="translate(-28.408 -364.072)" fill="#129996" stroke="#263238" stroke-width="1"/>
      </g>
    </g>
  </g>
</svg>
