<svg width="120" height="120" fill="none" xmlns="http://www.w3.org/2000/svg"><path d="M87.988 108.323c-9.67 8.224-23.308 10.885-40.123 11.536-16.815.651-36.835-.7-42.775-10.486-5.94-9.786 2.124-28 8.187-48.788 6.062-20.788 9.982-44.098 24.993-54.341C53.28-4 79.307-1.271 92.976 11.944c13.669 13.215 14.909 36.863 12.699 55.587-2.21 18.725-7.984 32.538-17.687 40.792z" fill="#DDF3EE"/><path d="M42.003 52.945c-.88 0-1.63.65-1.986 1.579a1.075 1.075 0 01.883-.476 1.1 1.1 0 11-1.07 1.257c-.017.13-.027.262-.03.393 0 1.519.985 2.751 2.2 2.751 1.216 0 2.201-1.232 2.201-2.75 0-1.52-.985-2.754-2.198-2.754zm4.822-5.991a18.977 18.977 0 00-4.514-.605H41.415c-.24 0-.482.016-.721.03l-.21.014c-.392.027-.783.069-1.174.124l-.357.052c-.097 0-.19.03-.275.05-.176.027-.35.06-.526.096-.176.035-.36.071-.55.112l.754 1.439a15.24 15.24 0 013.647-.413 14.81 14.81 0 014.547.688l.955-1.405a18.915 18.915 0 00-.68-.182zm6.18 20.765a.521.521 0 00-.073-.201.658.658 0 00-.066-.088l-.058-.055-.022-.017-.044-.03a.138.138 0 00-.044-.025.271.271 0 00-.08-.03h-.022a.153.153 0 00-.05 0 .552.552 0 00-.096 0h-.071a.445.445 0 00-.105.028.544.544 0 00-.099.044.647.647 0 00-.16.145 1.207 1.207 0 01-.112.121 1.667 1.667 0 01-.388.292 3.73 3.73 0 01-3.617 0 1.765 1.765 0 01-.393-.32 2.293 2.293 0 01-.11-.12l-.022-.025a.646.646 0 00-.162-.138.55.55 0 00-.24-.063h-.058a.55.55 0 00-.393.886c.057.068.117.133.181.195a3.217 3.217 0 00.625.493c.14.08.275.154.432.22.156.066.302.123.456.176a4.824 4.824 0 003.444-.176c.149-.066.297-.14.44-.22a3.22 3.22 0 00.806-.688.549.549 0 00.102-.41v.006zm3.302 19.169a.55.55 0 00-.578-.448.552.552 0 00-.093.016c-.712.159-1.43.28-2.154.366a.549.549 0 00-.292.126.55.55 0 00-.151.644.742.742 0 00.085.135.506.506 0 00.27.175c.07.02.142.026.214.017a25.17 25.17 0 002.25-.385l.055-.013a.55.55 0 00.305-.217.57.57 0 00.089-.19.578.578 0 000-.226zm2.178-14.958a.389.389 0 00-.115-.176.255.255 0 00-.06-.047.43.43 0 00-.155-.055.45.45 0 00-.16 0l-.08.028a.437.437 0 00-.065.04s-.058.04-.163.097c-.104.058-.175.105-.302.173l-.138.072c-.143.077-.31.16-.503.248l-.198.09a16.896 16.896 0 01-6.84 1.45c-4.88 0-8.113-2.096-8.146-2.118a.347.347 0 00-.143-.069.403.403 0 00-.162 0 .426.426 0 00-.217.1.41.41 0 00-.124.205.396.396 0 000 .24c.021.057.055.109.099.151a.34.34 0 00.047.041c.137.105 3.468 2.558 8.637 2.558 5.168 0 8.497-2.453 8.634-2.558l.03-.025.028-.03a.314.314 0 00.077-.126.535.535 0 00.025-.088.353.353 0 000-.132.481.481 0 00-.006-.07zm-1.078-18.98c-.88 0-1.631.65-1.986 1.58a1.1 1.1 0 11-.184.778c-.017.13-.027.261-.03.393 0 1.518.984 2.75 2.2 2.75a1.927 1.927 0 001.397-.626c.084-.086.162-.178.231-.276.38-.54.58-1.187.573-1.848 0-1.524-.988-2.756-2.201-2.756v.005zm0-6.601a19.013 19.013 0 00-5.501.795l.951 1.405a14.851 14.851 0 014.55-.687c1.227-.01 2.45.128 3.645.412l.756-1.441a19.278 19.278 0 00-4.401-.49v.006zm-1.1 40.545a.55.55 0 00-.578-.449.562.562 0 00-.093.017c-.712.158-1.43.28-2.154.365a.552.552 0 00-.292.126.55.55 0 00-.151.644.742.742 0 00.085.135.506.506 0 00.27.176c.07.02.142.026.214.017a25.17 25.17 0 002.25-.385l.055-.014a.55.55 0 00.393-.638v.006zm2.178-14.959a.389.389 0 00-.115-.176.255.255 0 00-.06-.046.43.43 0 00-.155-.055.45.45 0 00-.16 0l-.08.027a.437.437 0 00-.065.041s-.058.039-.163.097c-.104.057-.175.104-.302.173l-.138.072c-.143.076-.31.159-.503.247l-.198.09a16.895 16.895 0 01-6.84 1.445c-4.88 0-8.113-2.096-8.146-2.118a.347.347 0 00-.143-.069.403.403 0 00-.162 0 .426.426 0 00-.217.1.41.41 0 00-.124.205.396.396 0 000 .24c.021.057.055.109.099.151a.34.34 0 00.047.041c.137.105 3.468 2.558 8.637 2.558 5.168 0 8.497-2.453 8.634-2.558l.03-.025.028-.03a.314.314 0 00.077-.126.535.535 0 00.025-.088.353.353 0 000-.132.481.481 0 00-.006-.07v.006zm-5.48-4.216a.521.521 0 00-.073-.201.658.658 0 00-.066-.088l-.058-.055-.022-.017-.044-.03a.138.138 0 00-.044-.025.271.271 0 00-.08-.03h-.022a.153.153 0 00-.05 0 .552.552 0 00-.096 0h-.071a.445.445 0 00-.105.028.544.544 0 00-.099.044.647.647 0 00-.085.066.425.425 0 00-.077.08 1.667 1.667 0 01-.498.413 3.73 3.73 0 01-3.617-.001 1.765 1.765 0 01-.393-.32 1.195 1.195 0 01-.113-.12l-.02-.025a.646.646 0 00-.162-.138.55.55 0 00-.239-.063h-.058a.55.55 0 00-.393.886c.057.068.117.133.181.195a3.217 3.217 0 00.625.493c.14.08.275.154.432.22.156.066.302.123.456.176a4.824 4.824 0 003.444-.176c.149-.066.297-.14.44-.22a3.22 3.22 0 00.806-.688.549.549 0 00.102-.41v.006zm4.402-14.774c-.88 0-1.631.65-1.986 1.579a1.1 1.1 0 11-.184.778c-.017.13-.027.262-.03.394 0 1.518.984 2.75 2.2 2.75a1.926 1.926 0 001.397-.627c.084-.085.162-.177.231-.275.38-.54.58-1.188.573-1.848 0-1.519-.988-2.751-2.201-2.751zm-15.404 0c-.88 0-1.63.65-1.986 1.579a1.075 1.075 0 01.883-.476 1.1 1.1 0 11-1.07 1.257c-.017.13-.027.262-.03.393 0 1.519.985 2.751 2.2 2.751 1.216 0 2.201-1.232 2.201-2.75 0-1.52-.985-2.754-2.198-2.754zm15.404-6.602a19.013 19.013 0 00-5.501.795l.951 1.406a14.854 14.854 0 014.55-.688c1.227-.01 2.45.129 3.645.413l.756-1.442a19.275 19.275 0 00-4.401-.484zm-10.582.611a18.977 18.977 0 00-4.514-.605H41.415c-.24 0-.482.016-.721.03l-.21.014c-.392.027-.783.069-1.174.124l-.357.052c-.097 0-.19.03-.275.05-.176.027-.35.06-.526.096-.176.035-.36.071-.55.112l.754 1.439a15.24 15.24 0 013.647-.413 14.81 14.81 0 014.547.688l.955-1.405a18.915 18.915 0 00-.68-.182zm-4.822 5.99c-.88 0-1.63.65-1.986 1.58a1.075 1.075 0 01.883-.476 1.1 1.1 0 11-1.07 1.257c-.017.13-.027.262-.03.393 0 1.519.985 2.751 2.2 2.751 1.216 0 2.201-1.232 2.201-2.75 0-1.52-.985-2.754-2.198-2.754zm4.822-5.99a18.977 18.977 0 00-4.514-.605H41.415c-.24 0-.482.016-.721.03l-.21.014c-.392.027-.783.069-1.174.124l-.357.052c-.097 0-.19.03-.275.05-.176.027-.35.06-.526.096-.176.035-.36.071-.55.112l.754 1.439a15.24 15.24 0 013.647-.413 14.81 14.81 0 014.547.688l.955-1.405a18.915 18.915 0 00-.68-.182zm6.18 20.765a.521.521 0 00-.073-.201.658.658 0 00-.066-.088l-.058-.055-.022-.017-.044-.03a.138.138 0 00-.044-.025.271.271 0 00-.08-.03h-.022a.153.153 0 00-.05 0 .552.552 0 00-.096 0h-.071a.445.445 0 00-.105.028.544.544 0 00-.099.044.647.647 0 00-.16.145 1.207 1.207 0 01-.112.121 1.667 1.667 0 01-.388.292 3.73 3.73 0 01-3.617 0 1.765 1.765 0 01-.393-.32 2.293 2.293 0 01-.11-.12l-.022-.025a.646.646 0 00-.162-.138.55.55 0 00-.24-.063h-.058a.55.55 0 00-.393.886c.057.068.117.133.181.195a3.217 3.217 0 00.625.493c.14.08.275.154.432.22.156.066.302.123.456.176a4.824 4.824 0 003.444-.176c.149-.066.297-.14.44-.22a3.22 3.22 0 00.806-.688.549.549 0 00.102-.41v.006zm3.302 19.169a.55.55 0 00-.578-.448.552.552 0 00-.093.016c-.712.159-1.43.28-2.154.366a.549.549 0 00-.292.126.55.55 0 00-.151.644.742.742 0 00.085.135.506.506 0 00.27.175c.07.02.142.026.214.017a25.17 25.17 0 002.25-.385l.055-.013a.55.55 0 00.305-.217.57.57 0 00.089-.19.578.578 0 000-.226zm2.178-14.958a.389.389 0 00-.115-.176.255.255 0 00-.06-.047.43.43 0 00-.155-.055.45.45 0 00-.16 0l-.08.028a.437.437 0 00-.065.04s-.058.04-.163.097c-.104.058-.175.105-.302.173l-.138.072c-.143.077-.31.16-.503.248l-.198.09a16.896 16.896 0 01-6.84 1.45c-4.88 0-8.113-2.096-8.146-2.118a.347.347 0 00-.143-.069.403.403 0 00-.162 0 .426.426 0 00-.217.1.41.41 0 00-.124.205.396.396 0 000 .24c.021.057.055.109.099.151a.34.34 0 00.047.041c.137.105 3.468 2.558 8.637 2.558 5.168 0 8.497-2.453 8.634-2.558l.03-.025.028-.03a.314.314 0 00.077-.126.535.535 0 00.025-.088.353.353 0 000-.132.481.481 0 00-.006-.07zm-1.078-18.98c-.88 0-1.631.65-1.986 1.58a1.1 1.1 0 11-.184.778c-.017.13-.027.261-.03.393 0 1.518.984 2.75 2.2 2.75a1.927 1.927 0 001.397-.626c.084-.086.162-.178.231-.276.38-.54.58-1.187.573-1.848 0-1.524-.988-2.756-2.201-2.756v.005zm0-6.601a19.013 19.013 0 00-5.501.795l.951 1.405a14.851 14.851 0 014.55-.687c1.227-.01 2.45.128 3.645.412l.756-1.441a19.278 19.278 0 00-4.401-.49v.006zm-1.1 40.545a.55.55 0 00-.578-.449.562.562 0 00-.093.017c-.712.158-1.43.28-2.154.365a.552.552 0 00-.292.126.55.55 0 00-.151.644.742.742 0 00.085.135.506.506 0 00.27.176c.07.02.142.026.214.017a25.17 25.17 0 002.25-.385l.055-.014a.55.55 0 00.393-.638v.006zm2.178-14.959a.389.389 0 00-.115-.176.255.255 0 00-.06-.046.43.43 0 00-.155-.055.45.45 0 00-.16 0l-.08.027a.437.437 0 00-.065.041s-.058.039-.163.097c-.104.057-.175.104-.302.173l-.138.072c-.143.076-.31.159-.503.247l-.198.09a16.895 16.895 0 01-6.84 1.445c-4.88 0-8.113-2.096-8.146-2.118a.347.347 0 00-.143-.069.403.403 0 00-.162 0 .426.426 0 00-.217.1.41.41 0 00-.124.205.396.396 0 000 .24c.021.057.055.109.099.151a.34.34 0 00.047.041c.137.105 3.468 2.558 8.637 2.558 5.168 0 8.497-2.453 8.634-2.558l.03-.025.028-.03a.314.314 0 00.077-.126.535.535 0 00.025-.088.353.353 0 000-.132.481.481 0 00-.006-.07v.006zm-5.48-4.216a.521.521 0 00-.073-.201.658.658 0 00-.066-.088l-.058-.055-.022-.017-.044-.03a.138.138 0 00-.044-.025.271.271 0 00-.08-.03h-.022a.153.153 0 00-.05 0 .552.552 0 00-.096 0h-.071a.445.445 0 00-.105.028.544.544 0 00-.099.044.647.647 0 00-.085.066.425.425 0 00-.077.08 1.667 1.667 0 01-.498.413 3.73 3.73 0 01-3.617-.001 1.765 1.765 0 01-.393-.32 1.195 1.195 0 01-.113-.12l-.02-.025a.646.646 0 00-.162-.138.55.55 0 00-.239-.063h-.058a.55.55 0 00-.393.886c.057.068.117.133.181.195a3.217 3.217 0 00.625.493c.14.08.275.154.432.22.156.066.302.123.456.176a4.824 4.824 0 003.444-.176c.149-.066.297-.14.44-.22a3.22 3.22 0 00.806-.688.549.549 0 00.102-.41v.006zm4.402-14.774c-.88 0-1.631.65-1.986 1.579a1.1 1.1 0 11-.184.778c-.017.13-.027.262-.03.394 0 1.518.984 2.75 2.2 2.75a1.926 1.926 0 001.397-.627c.084-.085.162-.177.231-.275.38-.54.58-1.188.573-1.848 0-1.519-.988-2.751-2.201-2.751zm-15.404 0c-.88 0-1.63.65-1.986 1.579a1.075 1.075 0 01.883-.476 1.1 1.1 0 11-1.07 1.257c-.017.13-.027.262-.03.393 0 1.519.985 2.751 2.2 2.751 1.216 0 2.201-1.232 2.201-2.75 0-1.52-.985-2.754-2.198-2.754zm15.404-6.602a19.013 19.013 0 00-5.501.795l.951 1.406a14.854 14.854 0 014.55-.688c1.227-.01 2.45.129 3.645.413l.756-1.442a19.275 19.275 0 00-4.401-.484zm-10.582.611a18.977 18.977 0 00-4.514-.605H41.415c-.24 0-.482.016-.721.03l-.21.014c-.392.027-.783.069-1.174.124l-.357.052c-.097 0-.19.03-.275.05-.176.027-.35.06-.526.096-.176.035-.36.071-.55.112l.754 1.439a15.24 15.24 0 013.647-.413 14.81 14.81 0 014.547.688l.955-1.405a18.915 18.915 0 00-.68-.182zm-4.822 5.99c-.88 0-1.63.65-1.986 1.58a1.075 1.075 0 01.883-.476 1.1 1.1 0 11-1.07 1.257c-.017.13-.027.262-.03.393 0 1.519.985 2.751 2.2 2.751 1.216 0 2.201-1.232 2.201-2.75 0-1.52-.985-2.754-2.198-2.754zm4.822-5.99a18.977 18.977 0 00-4.514-.605H41.415c-.24 0-.482.016-.721.03l-.21.014c-.392.027-.783.069-1.174.124l-.357.052c-.097 0-.19.03-.275.05-.176.027-.35.06-.526.096-.176.035-.36.071-.55.112l.754 1.439a15.24 15.24 0 013.647-.413 14.81 14.81 0 014.547.688l.955-1.405a18.915 18.915 0 00-.68-.182zm6.18 20.765a.521.521 0 00-.073-.201.658.658 0 00-.066-.088l-.058-.055-.022-.017-.044-.03a.138.138 0 00-.044-.025.271.271 0 00-.08-.03h-.022a.153.153 0 00-.05 0 .552.552 0 00-.096 0h-.071a.445.445 0 00-.105.028.544.544 0 00-.099.044.647.647 0 00-.16.145 1.207 1.207 0 01-.112.121 1.667 1.667 0 01-.388.292 3.73 3.73 0 01-3.617 0 1.765 1.765 0 01-.393-.32 2.293 2.293 0 01-.11-.12l-.022-.025a.646.646 0 00-.162-.138.55.55 0 00-.24-.063h-.058a.55.55 0 00-.393.886c.057.068.117.133.181.195a3.217 3.217 0 00.625.493c.14.08.275.154.432.22.156.066.302.123.456.176a4.824 4.824 0 003.444-.176c.149-.066.297-.14.44-.22a3.22 3.22 0 00.806-.688.549.549 0 00.102-.41v.006zm3.302 19.169a.55.55 0 00-.578-.448.552.552 0 00-.093.016c-.712.159-1.43.28-2.154.366a.549.549 0 00-.292.126.55.55 0 00-.151.644.742.742 0 00.085.135.506.506 0 00.27.175c.07.02.142.026.214.017a25.17 25.17 0 002.25-.385l.055-.013a.55.55 0 00.305-.217.57.57 0 00.089-.19.578.578 0 000-.226zm2.178-14.958a.389.389 0 00-.115-.176.255.255 0 00-.06-.047.43.43 0 00-.155-.055.45.45 0 00-.16 0l-.08.028a.437.437 0 00-.065.04s-.058.04-.163.097c-.104.058-.175.105-.302.173l-.138.072c-.143.077-.31.16-.503.248l-.198.09a16.896 16.896 0 01-6.84 1.45c-4.88 0-8.113-2.096-8.146-2.118a.347.347 0 00-.143-.069.403.403 0 00-.162 0 .426.426 0 00-.217.1.41.41 0 00-.124.205.396.396 0 000 .24c.021.057.055.109.099.151a.34.34 0 00.047.041c.137.105 3.468 2.558 8.637 2.558 5.168 0 8.497-2.453 8.634-2.558l.03-.025.028-.03a.314.314 0 00.077-.126.535.535 0 00.025-.088.353.353 0 000-.132.481.481 0 00-.006-.07zm-1.078-18.98c-.88 0-1.631.65-1.986 1.58a1.1 1.1 0 11-.184.778c-.017.13-.027.261-.03.393 0 1.518.984 2.75 2.2 2.75a1.927 1.927 0 001.397-.626c.084-.086.162-.178.231-.276.38-.54.58-1.187.573-1.848 0-1.524-.988-2.756-2.201-2.756v.005zm0-6.601a19.013 19.013 0 00-5.501.795l.951 1.405a14.851 14.851 0 014.55-.687c1.227-.01 2.45.128 3.645.412l.756-1.441a19.278 19.278 0 00-4.401-.49v.006zm-1.1 40.545a.55.55 0 00-.578-.449.562.562 0 00-.093.017c-.712.158-1.43.28-2.154.365a.552.552 0 00-.292.126.55.55 0 00-.151.644.742.742 0 00.085.135.506.506 0 00.27.176c.07.02.142.026.214.017a25.17 25.17 0 002.25-.385l.055-.014a.55.55 0 00.393-.638v.006zm2.178-14.959a.389.389 0 00-.115-.176.255.255 0 00-.06-.046.43.43 0 00-.155-.055.45.45 0 00-.16 0l-.08.027a.437.437 0 00-.065.041s-.058.039-.163.097c-.104.057-.175.104-.302.173l-.138.072c-.143.076-.31.159-.503.247l-.198.09a16.895 16.895 0 01-6.84 1.445c-4.88 0-8.113-2.096-8.146-2.118a.347.347 0 00-.143-.069.403.403 0 00-.162 0 .426.426 0 00-.217.1.41.41 0 00-.124.205.396.396 0 000 .24c.021.057.055.109.099.151a.34.34 0 00.047.041c.137.105 3.468 2.558 8.637 2.558 5.168 0 8.497-2.453 8.634-2.558l.03-.025.028-.03a.314.314 0 00.077-.126.535.535 0 00.025-.088.353.353 0 000-.132.481.481 0 00-.006-.07v.006zm-5.48-4.216a.644.644 0 00-.068-.201.658.658 0 00-.066-.088l-.058-.055a.074.074 0 00-.022-.02l-.044-.027a.138.138 0 00-.044-.025.271.271 0 00-.08-.03.298.298 0 00-.071-.016.552.552 0 00-.096 0h-.072a.646.646 0 00-.203.068.656.656 0 00-.16.146 1.207 1.207 0 01-.113.121 1.664 1.664 0 01-.388.292 3.73 3.73 0 01-3.617 0 1.764 1.764 0 01-.508-.421l-.022-.025a.646.646 0 00-.162-.138.55.55 0 00-.24-.063h-.058a.55.55 0 00-.393.886c.057.068.117.133.181.195a3.217 3.217 0 00.617.493 5.086 5.086 0 00.896.396 4.824 4.824 0 003.444-.176c.149-.066.292-.14.432-.22.305-.184.577-.416.806-.688a.55.55 0 00.11-.404zm4.402-14.774c-.88 0-1.631.65-1.986 1.579a1.1 1.1 0 11-.184.778c-.017.13-.027.262-.03.394 0 1.518.984 2.75 2.2 2.75a1.926 1.926 0 001.397-.627c.084-.085.162-.177.231-.275.38-.54.58-1.188.573-1.848 0-1.519-.988-2.751-2.201-2.751zm-15.404 0c-.88 0-1.63.65-1.986 1.579a1.075 1.075 0 01.883-.476 1.1 1.1 0 11-1.07 1.257c-.017.13-.027.262-.03.393 0 1.519.985 2.751 2.2 2.751 1.216 0 2.201-1.232 2.201-2.75 0-1.52-.985-2.754-2.198-2.754zm15.404-6.602a19.013 19.013 0 00-5.501.795l.951 1.406a14.854 14.854 0 014.55-.688c1.227-.01 2.45.129 3.645.413l.756-1.442a19.275 19.275 0 00-4.401-.484zm-10.582.611a19.746 19.746 0 00-4.514-.605H41.415a20.076 20.076 0 00-3.276.371c-.176.036-.36.072-.55.113l.753 1.439a15.24 15.24 0 013.648-.413 14.81 14.81 0 014.546.688l.955-1.406a8.979 8.979 0 00-.666-.187zm0 0a18.977 18.977 0 00-4.514-.605H41.415c-.24 0-.482.016-.721.03l-.21.014c-.392.027-.783.069-1.174.124l-.357.052c-.097 0-.19.03-.275.05-.176.027-.35.06-.526.096-.176.035-.36.071-.55.112l.754 1.439a15.24 15.24 0 013.647-.413 14.81 14.81 0 014.547.688l.955-1.405a18.915 18.915 0 00-.68-.182zm-4.822 5.99c-.88 0-1.63.65-1.986 1.58.097-.148.228-.27.383-.355a1.09 1.09 0 01.242-.094 1.1 1.1 0 11-.811 1.221c-.018.131-.028.263-.031.394 0 1.518.985 2.75 2.2 2.75 1.216 0 2.201-1.232 2.201-2.75s-.985-2.745-2.198-2.745zM53.006 67.72a.521.521 0 00-.074-.201.658.658 0 00-.066-.088l-.058-.055a.074.074 0 00-.022-.02l-.044-.027a.138.138 0 00-.044-.025.271.271 0 00-.08-.03h-.022a.153.153 0 00-.05 0 .552.552 0 00-.096 0h-.071a.445.445 0 00-.105.028.544.544 0 00-.099.044.647.647 0 00-.085.066.425.425 0 00-.077.08 1.667 1.667 0 01-.498.413 3.73 3.73 0 01-3.617-.001 1.765 1.765 0 01-.393-.32 2.293 2.293 0 01-.11-.12l-.022-.025a.646.646 0 00-.162-.138.55.55 0 00-.24-.063h-.058a.55.55 0 00-.393.886c.057.068.117.133.181.195a3.217 3.217 0 00.617.493 5.086 5.086 0 00.896.396 4.824 4.824 0 003.444-.176c.149-.066.297-.14.44-.22a3.22 3.22 0 00.806-.688.549.549 0 00.102-.41v.006zm3.336 19.197a.551.551 0 00-.621-.48.548.548 0 00-.094.017c-.711.159-1.43.281-2.154.366a.498.498 0 00-.291.127.55.55 0 00-.151.644.747.747 0 00.085.134.514.514 0 00.269.176.55.55 0 00.215.017 25.137 25.137 0 002.25-.385l.055-.014a.534.534 0 00.314-.198.552.552 0 00.123-.404zm2.174-14.964a.35.35 0 00-.072-.151.374.374 0 00-.124-.113.453.453 0 00-.16-.052.417.417 0 00-.164.016.23.23 0 00-.083.039.437.437 0 00-.066.04s-.058.04-.162.097c-.105.058-.176.105-.303.173l-.137.072a8.76 8.76 0 01-.504.248l-.198.09a16.896 16.896 0 01-6.838 1.439c-4.88 0-8.112-2.096-8.145-2.118a.347.347 0 00-.143-.069.403.403 0 00-.162 0 .426.426 0 00-.217.1.41.41 0 00-.124.205.396.396 0 000 .24c.021.057.055.109.099.151a.34.34 0 00.047.041c.137.105 3.468 2.558 8.637 2.558 5.168 0 8.497-2.453 8.634-2.558l.03-.025a.398.398 0 00.151-.248.383.383 0 00-.005-.175h.009zm-1.1-19.007c-.881 0-1.632.65-1.987 1.579a1.1 1.1 0 11-.184.778c-.017.13-.027.262-.03.394 0 1.518.984 2.75 2.2 2.75a1.925 1.925 0 001.398-.627c.084-.085.161-.177.23-.275.38-.54.58-1.188.573-1.848-.008-1.519-.996-2.751-2.21-2.751h.01zm0-6.602a19.013 19.013 0 00-5.502.795l.952 1.406a14.855 14.855 0 014.55-.688c1.226-.01 2.45.129 3.644.413l.756-1.442a19.273 19.273 0 00-4.41-.484h.01zM56.35 86.915a.551.551 0 00-.622-.478.552.552 0 00-.093.016c-.712.159-1.43.281-2.154.366a.496.496 0 00-.292.127.55.55 0 00-.151.644.742.742 0 00.085.134.55.55 0 00.484.193 25.134 25.134 0 002.25-.385l.055-.014a.534.534 0 00.314-.198.55.55 0 00.115-.404h.009zm2.173-14.963a.35.35 0 00-.072-.151.373.373 0 00-.124-.113.453.453 0 00-.16-.052.417.417 0 00-.164.016.23.23 0 00-.083.039.437.437 0 00-.066.04s-.057.04-.162.097c-.104.058-.176.105-.303.173l-.137.072c-.143.077-.31.16-.504.248l-.198.09a16.896 16.896 0 01-6.846 1.439c-4.88 0-8.112-2.096-8.145-2.118a.347.347 0 00-.143-.069.403.403 0 00-.162 0 .426.426 0 00-.217.1.41.41 0 00-.124.205.396.396 0 000 .24c.021.057.055.109.099.151a.34.34 0 00.047.041c.137.105 3.468 2.558 8.637 2.558 5.168 0 8.497-2.453 8.634-2.558l.03-.025a.398.398 0 00.151-.248.383.383 0 00-.005-.175h.017zm-5.502-4.233a.521.521 0 00-.074-.201.658.658 0 00-.066-.088l-.058-.055a.074.074 0 00-.022-.02l-.044-.027a.138.138 0 00-.044-.025.271.271 0 00-.08-.03h-.021a.153.153 0 00-.05 0 .552.552 0 00-.096 0h-.072a.444.444 0 00-.104.028.547.547 0 00-.1.044.647.647 0 00-.085.066.425.425 0 00-.077.08 1.667 1.667 0 01-.498.413 3.73 3.73 0 01-3.617-.001 1.765 1.765 0 01-.41-.32 2.293 2.293 0 01-.11-.12l-.021-.025a.646.646 0 00-.162-.138.55.55 0 00-.24-.063h-.058a.55.55 0 00-.393.886c.057.068.117.133.181.195a3.217 3.217 0 00.617.493 5.086 5.086 0 00.896.396 4.824 4.824 0 003.444-.176c.149-.066.297-.14.44-.22a3.22 3.22 0 00.806-.688.549.549 0 00.102-.41l.016.006zm4.401-14.774c-.88 0-1.63.65-1.986 1.579a1.1 1.1 0 11-.184.778c-.017.13-.027.262-.03.394 0 1.518.985 2.75 2.2 2.75a1.926 1.926 0 001.398-.627c.084-.085.161-.177.23-.275.381-.54.581-1.188.573-1.848-.017-1.519-1.004-2.751-2.217-2.751h.017zm-15.403 0c-.88 0-1.631.65-1.986 1.579.096-.148.227-.27.382-.355a1.09 1.09 0 01.242-.094 1.1 1.1 0 11-.811 1.221c-.017.131-.027.263-.03.394 0 1.518.984 2.75 2.2 2.75 1.216 0 2.2-1.232 2.2-2.75s-1-2.745-2.214-2.745h.017zm15.403-6.602a19.013 19.013 0 00-5.5.795l.95 1.406a14.854 14.854 0 014.55-.688c1.227-.01 2.451.129 3.645.413l.757-1.442a19.277 19.277 0 00-4.418-.484h.017zm-10.598.611a18.977 18.977 0 00-4.514-.605H41.415c-.24 0-.482.016-.721.03l-.21.014c-.392.027-.783.069-1.174.124l-.357.052c-.097 0-.19.03-.275.05-.176.027-.35.06-.526.096-.176.035-.36.071-.55.112l.754 1.439a15.24 15.24 0 013.647-.413 14.81 14.81 0 014.547.688l.955-1.405a18.915 18.915 0 00-.68-.182zm0 0a18.977 18.977 0 00-4.514-.605H41.415c-.24 0-.482.016-.721.03l-.21.014c-.392.027-.783.069-1.174.124l-.357.052c-.097 0-.19.03-.275.05-.176.027-.35.06-.526.096-.176.035-.36.071-.55.112l.754 1.439a15.24 15.24 0 013.647-.413 14.81 14.81 0 014.547.688l.955-1.405a18.915 18.915 0 00-.68-.182zm-4.822 5.99c-.88 0-1.63.65-1.986 1.58.097-.148.228-.27.383-.355a1.09 1.09 0 01.242-.094 1.1 1.1 0 11-.811 1.221c-.018.131-.028.263-.031.394 0 1.518.985 2.75 2.2 2.75 1.216 0 2.201-1.232 2.201-2.75s-.985-2.745-2.198-2.745zM53.006 67.72a.521.521 0 00-.074-.201.658.658 0 00-.066-.088l-.058-.055a.074.074 0 00-.022-.02l-.044-.027a.138.138 0 00-.044-.025.271.271 0 00-.08-.03h-.022a.153.153 0 00-.05 0 .552.552 0 00-.096 0h-.071a.445.445 0 00-.105.028.544.544 0 00-.099.044.647.647 0 00-.085.066.425.425 0 00-.077.08 1.667 1.667 0 01-.498.413 3.73 3.73 0 01-3.617-.001 1.765 1.765 0 01-.393-.32 2.293 2.293 0 01-.11-.12l-.022-.025a.646.646 0 00-.162-.138.55.55 0 00-.24-.063h-.058a.55.55 0 00-.393.886c.057.068.117.133.181.195a3.217 3.217 0 00.617.493 5.086 5.086 0 00.896.396 4.824 4.824 0 003.444-.176c.149-.066.297-.14.44-.22a3.22 3.22 0 00.806-.688.549.549 0 00.102-.41v.006zm3.336 19.197a.551.551 0 00-.621-.48.548.548 0 00-.094.017c-.711.159-1.43.281-2.154.366a.498.498 0 00-.291.127.55.55 0 00-.151.644.747.747 0 00.085.134.514.514 0 00.269.176.55.55 0 00.215.017 25.137 25.137 0 002.25-.385l.055-.014a.534.534 0 00.314-.198.552.552 0 00.123-.404zm2.174-14.964a.35.35 0 00-.072-.151.374.374 0 00-.124-.113.453.453 0 00-.16-.052.417.417 0 00-.164.016.23.23 0 00-.083.039.437.437 0 00-.066.04s-.058.04-.162.097c-.105.058-.176.105-.303.173l-.137.072a8.76 8.76 0 01-.504.248l-.198.09a16.896 16.896 0 01-6.838 1.439c-4.88 0-8.112-2.096-8.145-2.118a.347.347 0 00-.143-.069.403.403 0 00-.162 0 .426.426 0 00-.217.1.41.41 0 00-.124.205.396.396 0 000 .24c.021.057.055.109.099.151a.34.34 0 00.047.041c.137.105 3.468 2.558 8.637 2.558 5.168 0 8.497-2.453 8.634-2.558l.03-.025a.398.398 0 00.151-.248.383.383 0 00-.005-.175h.009zm-1.1-19.007c-.881 0-1.632.65-1.987 1.579a1.1 1.1 0 11-.184.778c-.017.13-.027.262-.03.394 0 1.518.984 2.75 2.2 2.75a1.925 1.925 0 001.398-.627c.084-.085.161-.177.23-.275.38-.54.58-1.188.573-1.848-.008-1.519-.996-2.751-2.21-2.751h.01zm0-6.602a19.013 19.013 0 00-5.502.795l.952 1.406a14.855 14.855 0 014.55-.688c1.226-.01 2.45.129 3.644.413l.756-1.442a19.273 19.273 0 00-4.41-.484h.01zM56.35 86.915a.551.551 0 00-.622-.478.552.552 0 00-.093.016c-.712.159-1.43.281-2.154.366a.496.496 0 00-.292.127.55.55 0 00-.151.644.742.742 0 00.085.134.55.55 0 00.484.193 25.134 25.134 0 002.25-.385l.055-.014a.534.534 0 00.314-.198.55.55 0 00.115-.404h.009zm2.173-14.963a.35.35 0 00-.072-.151.373.373 0 00-.124-.113.453.453 0 00-.16-.052.417.417 0 00-.164.016.23.23 0 00-.083.039.437.437 0 00-.066.04s-.057.04-.162.097c-.104.058-.176.105-.303.173l-.137.072c-.143.077-.31.16-.504.248l-.198.09a16.896 16.896 0 01-6.846 1.439c-4.88 0-8.112-2.096-8.145-2.118a.347.347 0 00-.143-.069.403.403 0 00-.162 0 .426.426 0 00-.217.1.41.41 0 00-.124.205.396.396 0 000 .24c.021.057.055.109.099.151a.34.34 0 00.047.041c.137.105 3.468 2.558 8.637 2.558 5.168 0 8.497-2.453 8.634-2.558l.03-.025a.398.398 0 00.151-.248.383.383 0 00-.005-.175h.017zM46.71 68.324a3.216 3.216 0 00.616.492 5.057 5.057 0 00.896.396 4.826 4.826 0 002.987 0 5.398 5.398 0 00.897-.396c.305-.183.578-.415.806-.688a.55.55 0 00-.038-.698l-.058-.055a.075.075 0 00-.022-.02l-.044-.027a.14.14 0 00-.044-.025.273.273 0 00-.08-.03h-.022a.152.152 0 00-.05 0 .553.553 0 00-.096 0h-.071a.445.445 0 00-.105.028.541.541 0 00-.098.044.635.635 0 00-.086.066.419.419 0 00-.077.08c-.036.04-.071.082-.11.12a1.667 1.667 0 01-.388.292 3.73 3.73 0 01-3.617 0 1.765 1.765 0 01-.401-.32 2.293 2.293 0 01-.11-.12l-.022-.025a.646.646 0 00-.162-.138.55.55 0 00-.24-.063h-.058a.55.55 0 00-.393.886c.057.07.117.137.181.2h.009zm10.697-15.38c-.88 0-1.631.65-1.986 1.58a1.1 1.1 0 11-.184.778c-.017.13-.027.262-.03.394 0 1.518.984 2.75 2.2 2.75a1.926 1.926 0 001.397-.627c.084-.085.162-.177.231-.275.38-.54.58-1.188.573-1.848 0-1.519-.988-2.751-2.201-2.751zm-15.404 0c-.88 0-1.63.65-1.986 1.58.097-.148.228-.27.383-.355a1.09 1.09 0 01.242-.094 1.1 1.1 0 11-.811 1.221c-.018.131-.028.263-.031.394 0 1.518.985 2.75 2.2 2.75 1.216 0 2.201-1.232 2.201-2.75s-.985-2.745-2.198-2.745zm15.404-6.6a19.013 19.013 0 00-5.501.794l.951 1.406a14.854 14.854 0 014.55-.688c1.227-.01 2.45.129 3.645.413l.756-1.442a19.275 19.275 0 00-4.401-.484zm-15.096 0H41.415c-.24 0-.482.016-.721.03l-.21.013c-.392.028-.783.07-1.174.124l-.357.052c-.097 0-.19.03-.275.05-.176.027-.35.06-.526.096-.176.036-.36.072-.55.113l.754 1.438a15.24 15.24 0 013.647-.412 14.81 14.81 0 014.547.688l.955-1.406a18.977 18.977 0 00-5.193-.784v-.003zm27.584 41.87a603.83 603.83 0 00-9.817-3.606l-.842-.297a1.067 1.067 0 01-.53-.4 1.12 1.12 0 01-.196-.637v-2.792a29.156 29.156 0 005.985-5.458c1.65-2.04 2.817-3.823 2.817-5.575v-3.623a3.75 3.75 0 002.071-1.565c.586-1.02.85-2.173 1.183-3.3.644-2.188 1.147-4.402 1.147-5.813 0-.96-.621-1.637-1.273-2.09.112-.33.17-.675.173-1.024a3.078 3.078 0 00-.347-1.254 4.16 4.16 0 00-.157-6.434 3.682 3.682 0 00.504-1.65V28.189a.585.585 0 00-.06-.245s-1.318-2.6-4.556-5.14c-3.237-2.542-8.474-5.067-16.292-5.067-7.817 0-13.046 2.536-16.295 5.066-3.248 2.53-4.552 5.141-4.552 5.141a.55.55 0 00-.058.245v14.49c.035.582.207 1.148.5 1.65a4.165 4.165 0 00-.156 6.435c-.203.393-.32.825-.344 1.268.003.348.06.693.17 1.023-.651.454-1.27 1.13-1.27 2.09 0 1.417.5 3.626 1.144 5.813.333 1.13.597 2.283 1.183 3.3a3.768 3.768 0 002.074 1.568v3.623c0 1.752 1.152 3.534 2.814 5.575a29.252 29.252 0 005.988 5.458v2.803a1.077 1.077 0 01-.729 1.037 577.35 577.35 0 00-10.662 3.903c-9.404 3.526-9.514 13.131-9.514 13.131a1.1 1.1 0 001.1 1.101h57.214a1.098 1.098 0 001.1-1.101s-.113-9.605-9.517-13.142zm.338-42.085c.245.468.374.987.377 1.515a3.274 3.274 0 01-1.276 2.586.55.55 0 00-.135.71c.2.332.308.712.31 1.1a1.878 1.878 0 01-.07.462 11.458 11.458 0 00-1.555-.55 19.282 19.282 0 00-2.775-.597c0-1.183-.1-7.663-2.644-13.607 4.099 1.622 6.525 3.474 7.056 3.914v1.023a2.71 2.71 0 01-.454 1.505c-.077.12-.105.264-.077.404a.55.55 0 00.223.344c.43.309.78.718 1.02 1.19zm-29.33 4.615a36.927 36.927 0 00-5.614.487c.041-1.507.366-8.301 3.136-13.998a34.612 34.612 0 016.574-1.573c.275-.036.55-.063.825-.096.399-.044.803-.083 1.213-.113l.655-.047a36.44 36.44 0 012.005-.063c.688 0 1.348.027 2.002.063l.655.047c.41.03.825.069 1.213.112.275.033.55.061.825.097 2.247.308 4.458.835 6.602 1.573 2.75 5.68 2.99 12.458 3.009 13.982a35.924 35.924 0 00-5.496-.47c-2.2 0-5.776.475-7.094 2.17-.138.368-.25.746-.333 1.13h-2.75a7.768 7.768 0 00-.344-1.13c-1.307-1.695-4.883-2.17-7.083-2.17zm6.566 6.53c-.204 2.413-1.293 5.331-5.317 5.568-5.675 0-6.75-2.325-6.75-6.602v-1.997a2.2 2.2 0 011.964-2.2 31.695 31.695 0 013.537-.198c2.275 0 5.114.511 6.126 1.63.409 1.223.559 2.516.44 3.8zm4.91-3.798c1.012-1.12 3.85-1.631 6.128-1.631 1.181.005 2.361.074 3.535.209a2.2 2.2 0 011.966 2.2v1.992c0 4.271-1.078 6.587-6.75 6.601-4.024-.236-5.113-3.155-5.317-5.567a9.25 9.25 0 01.438-3.804zM29.9 28.346c.066-.135 1.202-2.338 4.19-4.676 3.078-2.407 8.029-4.833 15.615-4.833s12.535 2.426 15.613 4.835c2.987 2.336 4.126 4.539 4.192 4.677v11.957c-1.816-1.345-7.529-5.09-16.37-5.903l-.41-.03a37.581 37.581 0 00-1.229-.086 38.825 38.825 0 00-1.807-.047 34.65 34.65 0 00-3.04.132l-.398.03c-8.84.826-14.554 4.559-16.367 5.904l.011-11.96zm-.764 20.726a3.301 3.301 0 011.07-4.126.55.55 0 00.146-.748 2.734 2.734 0 01-.452-1.519v-1.012c.529-.426 2.952-2.28 7.053-3.903-2.572 5.972-2.75 12.502-2.773 13.627-.897.121-1.785.305-2.657.55-.531.146-1.051.33-1.557.55a1.962 1.962 0 01.242-1.562.55.55 0 00-.134-.71 3.3 3.3 0 01-.938-1.147zm7.484 24.563c-1.515-1.862-2.319-3.74-2.319-4.186v-4.401a1.1 1.1 0 00-1.1-1.1c-.754 0-.921-.18-1.268-.782-.346-.602-.63-1.65-.98-2.83-.61-2.069-1.053-4.401-1.053-5.19 0 0 .042-.13.427-.372a7.616 7.616 0 011.799-.729c.148-.041.291-.071.44-.11.137-.031.277-.046.418-.044 1.1.058 1.317 1.376 1.317 2.344 0 4.4 1.1 7.702 7.878 7.702 5.006-.276 6.178-4.127 6.385-6.575.06-.656.06-1.316 0-1.972a2.68 2.68 0 011.141-.245c.397-.005.79.072 1.155.226a11 11 0 00-.016 1.997c.206 2.434 1.375 6.296 6.384 6.574 6.78 0 7.88-3.3 7.88-7.702 0-1.073.276-2.574 1.734-2.3.148.04.291.07.44.11a7.595 7.595 0 011.799.721c.385.242.423.372.429.372 0 .786-.446 3.119-1.056 5.187-.35 1.183-.636 2.231-.98 2.83-.344.6-.514.782-1.265.782a1.1 1.1 0 00-1.1 1.1v4.401c0 .446-.806 2.325-2.322 4.19a27.122 27.122 0 01-5.98 5.385c-2.572 1.673-5.042 2.528-7.102 2.528-2.06 0-4.533-.855-7.105-2.528a27.122 27.122 0 01-5.98-5.383zm-14.33 26.618c.274-2.2 1.534-7.55 7.995-9.974 1.95-.731 2.583-.946 4.016-1.474v3.196a.55.55 0 00.245.457l2.949 1.97-.965 2.904a.55.55 0 00.19.614l3.083 2.31-17.514-.003zm19.345 0l-3.936-2.951.973-2.927a.55.55 0 00-.217-.63l-3.053-2.035v-3.3c1.499-.551 3.738-1.376 4.635-1.7l4.838 13.546-3.24-.003zm4.4 0l-4.76-13.354c1.76.605 4.524 1.251 8.43 1.251.589 0 1.144-.019 1.678-.044a.55.55 0 10-.058-1.1c-.522.025-1.056.044-1.62.044-3.658 0-6.255-.58-7.913-1.136a3.3 3.3 0 001.311-2.632v-2.668c2.311 1.323 4.561 2.035 6.602 2.035 2.041 0 4.288-.712 6.602-2.035v2.668a3.3 3.3 0 002.032 3.026l-4.975 13.945h-7.328zm8.49 0l4.838-13.552c.896.319 3.135 1.155 4.637 1.703v3.3l-3.056 2.039a.551.551 0 00-.217.63l.974 2.918-3.931 2.954-3.246.008zm5.083 0l3.08-2.31a.55.55 0 00.195-.614l-.965-2.901 2.949-1.97a.55.55 0 00.247-.457v-3.19c1.43.525 2.063.74 4.013 1.471 6.462 2.424 7.735 7.76 7.997 9.974l-17.516-.003zm-2.201-52.4c1.227-.01 2.45.129 3.645.413l.756-1.441a19.27 19.27 0 00-4.401-.484 19.013 19.013 0 00-5.501.794l.951 1.406a14.853 14.853 0 014.55-.685v-.003zm0 10.59a1.926 1.926 0 001.397-.627c.084-.085.162-.177.231-.275.38-.54.58-1.187.573-1.848 0-1.519-.988-2.75-2.201-2.75-.88 0-1.631.648-1.986 1.578a1.1 1.1 0 11-.184.779c-.017.13-.027.261-.03.393 0 1.52.984 2.753 2.2 2.753v-.002zm.932 13.946l.03-.024a.398.398 0 00.151-.248.383.383 0 00-.07-.32.374.374 0 00-.124-.112.453.453 0 00-.16-.052.417.417 0 00-.165.016.226.226 0 00-.082.039.429.429 0 00-.066.041s-.058.039-.163.096c-.104.058-.176.105-.302.174l-.138.071c-.143.077-.31.16-.503.248l-.198.09a16.894 16.894 0 01-6.844 1.442c-4.88 0-8.112-2.096-8.145-2.118a.347.347 0 00-.143-.069.403.403 0 00-.162 0 .426.426 0 00-.217.1.41.41 0 00-.124.205.396.396 0 000 .24c.021.057.055.109.099.151a.34.34 0 00.047.041c.137.105 3.468 2.558 8.637 2.558 5.168 0 8.505-2.461 8.642-2.566v-.003zm-2.2 14.155a.55.55 0 00-.41-.11.552.552 0 00-.093.017c-.712.158-1.43.28-2.154.366a.549.549 0 00-.292.126.55.55 0 00-.151.644.742.742 0 00.085.134.506.506 0 00.27.176c.07.02.142.026.214.017a25.17 25.17 0 002.25-.385l.055-.014a.55.55 0 00.426-.608.563.563 0 00-.208-.36l.008-.003zm-9.43-18.223a3.207 3.207 0 00.617.492 5.03 5.03 0 00.896.397c.187.058.376.107.567.145a4.834 4.834 0 002.42-.145 5.363 5.363 0 00.897-.397 3.22 3.22 0 00.806-.687.552.552 0 00.028-.61.673.673 0 00-.066-.089l-.058-.055a.075.075 0 00-.022-.02l-.044-.027a.142.142 0 00-.044-.024.276.276 0 00-.08-.03h-.022a.158.158 0 00-.05 0 .573.573 0 00-.096 0h-.071a.455.455 0 00-.105.027.548.548 0 00-.098.044.643.643 0 00-.086.066.422.422 0 00-.077.08 1.664 1.664 0 01-.498.413 3.73 3.73 0 01-3.617 0 1.764 1.764 0 01-.401-.317 2.293 2.293 0 01-.11-.121l-.022-.025a.646.646 0 00-.162-.138.55.55 0 00-.24-.063h-.058a.55.55 0 00-.393.886c.057.07.117.137.181.2l.009-.002zm-6.683-13.8a1.076 1.076 0 01.497-.407 1.151 1.151 0 01.385-.077 1.1 1.1 0 11-1.07 1.257 3.72 3.72 0 00-.03.393c0 1.519.985 2.751 2.2 2.751 1.217 0 2.201-1.232 2.201-2.75 0-1.52-.987-2.751-2.2-2.751-.886.008-1.637.657-1.992 1.587l.009-.003zm2.294-8.178h-.905c-.24 0-.482.017-.721.03l-.21.014c-.392.028-.783.07-1.174.124l-.357.052c-.097 0-.19.03-.275.05-.176.027-.35.06-.526.096-.176.036-.36.072-.55.113l.754 1.438a15.24 15.24 0 013.647-.412 14.81 14.81 0 014.547.688l.955-1.406a18.977 18.977 0 00-5.193-.784l.008-.003zm4.513.605a18.976 18.976 0 00-4.513-.605h-.905c-.24 0-.482.017-.721.03l-.21.014c-.392.028-.783.07-1.174.124l-.357.052c-.097 0-.19.03-.275.05-.176.027-.35.06-.526.096-.176.036-.36.072-.55.113l.754 1.438a15.24 15.24 0 013.647-.412 14.81 14.81 0 014.547.688l.955-1.406c-.226-.058-.452-.121-.68-.176l.008-.005zm10.574-.605a19.013 19.013 0 00-5.501.795l.951 1.406a14.854 14.854 0 014.55-.688c1.227-.01 2.45.129 3.645.413l.756-1.442a19.275 19.275 0 00-4.401-.484zm-15.404 6.602c-.88 0-1.63.65-1.986 1.579.097-.148.228-.27.383-.355a1.09 1.09 0 01.242-.094 1.1 1.1 0 11-.811 1.221c-.018.131-.028.263-.031.394 0 1.518.985 2.75 2.2 2.75 1.216 0 2.201-1.232 2.201-2.75s-.985-2.745-2.198-2.745zm15.404 0c-.88 0-1.631.65-1.986 1.579a1.1 1.1 0 11-.184.778c-.017.13-.027.262-.03.394 0 1.518.984 2.75 2.2 2.75a1.926 1.926 0 001.397-.627c.084-.085.162-.177.231-.275.38-.54.58-1.188.573-1.848 0-1.519-.988-2.751-2.201-2.751zm-4.401 14.774a.521.521 0 00-.074-.201.658.658 0 00-.066-.088l-.058-.055a.074.074 0 00-.022-.02l-.044-.027a.138.138 0 00-.044-.025.271.271 0 00-.08-.03h-.022a.153.153 0 00-.05 0 .552.552 0 00-.096 0h-.071a.445.445 0 00-.105.028.544.544 0 00-.099.044.647.647 0 00-.085.066.425.425 0 00-.077.08 1.667 1.667 0 01-.498.413 3.73 3.73 0 01-3.617-.001 1.765 1.765 0 01-.393-.32 2.293 2.293 0 01-.11-.12l-.022-.025a.646.646 0 00-.162-.138.55.55 0 00-.24-.063h-.058a.55.55 0 00-.393.886c.057.068.117.133.181.195a3.217 3.217 0 00.617.493 5.086 5.086 0 00.896.396 4.824 4.824 0 003.444-.176c.149-.066.297-.14.44-.22a3.22 3.22 0 00.806-.688.549.549 0 00.102-.41v.006zm5.501 4.233a.35.35 0 00-.071-.151.373.373 0 00-.124-.113.453.453 0 00-.16-.052.417.417 0 00-.165.016.23.23 0 00-.082.039.437.437 0 00-.066.04s-.058.04-.163.097c-.104.058-.175.105-.302.173l-.138.072c-.143.077-.31.16-.503.248l-.198.09a16.895 16.895 0 01-6.83 1.439c-4.88 0-8.112-2.096-8.145-2.118a.347.347 0 00-.143-.069.403.403 0 00-.162 0 .426.426 0 00-.217.1.41.41 0 00-.124.205.396.396 0 000 .24c.021.057.055.109.099.151a.34.34 0 00.047.041c.137.105 3.468 2.558 8.637 2.558 5.168 0 8.497-2.453 8.634-2.558l.03-.025a.398.398 0 00.151-.248.383.383 0 00-.005-.175zm-2.173 14.963a.551.551 0 00-.622-.478.552.552 0 00-.093.016c-.711.159-1.43.281-2.154.366a.496.496 0 00-.291.127.551.551 0 00-.151.644.742.742 0 00.085.134.55.55 0 00.484.193 25.134 25.134 0 002.25-.385l.055-.014a.534.534 0 00.313-.198.549.549 0 00.132-.404h-.008zm1.073-40.572a19.013 19.013 0 00-5.501.795l.951 1.406a14.854 14.854 0 014.55-.688c1.227-.01 2.45.129 3.645.413l.756-1.442a19.275 19.275 0 00-4.401-.484zm0 6.602c-.88 0-1.631.65-1.986 1.579a1.1 1.1 0 11-.184.778c-.017.13-.027.262-.03.394 0 1.518.984 2.75 2.2 2.75a1.926 1.926 0 001.397-.627c.084-.085.162-.177.231-.275.38-.54.58-1.188.573-1.848 0-1.519-.988-2.751-2.201-2.751zm1.1 19.007a.35.35 0 00-.071-.151.373.373 0 00-.124-.113.453.453 0 00-.16-.052.417.417 0 00-.165.016.23.23 0 00-.082.039.437.437 0 00-.066.04s-.058.04-.163.097c-.104.058-.175.105-.302.173l-.138.072c-.143.077-.31.16-.503.248l-.198.09a16.895 16.895 0 01-6.83 1.439c-4.88 0-8.112-2.096-8.145-2.118a.347.347 0 00-.143-.069.403.403 0 00-.162 0 .426.426 0 00-.217.1.41.41 0 00-.124.205.396.396 0 000 .24c.021.057.055.109.099.151a.34.34 0 00.047.041c.137.105 3.468 2.558 8.637 2.558 5.168 0 8.497-2.453 8.634-2.558l.03-.025a.398.398 0 00.151-.248.383.383 0 00-.005-.175zm-2.173 14.963a.551.551 0 00-.622-.478.552.552 0 00-.093.016c-.711.159-1.43.281-2.154.366a.496.496 0 00-.291.127.551.551 0 00-.151.644.742.742 0 00.085.134.55.55 0 00.484.193 25.134 25.134 0 002.25-.385l.055-.014a.534.534 0 00.313-.198.549.549 0 00.132-.404h-.008zM53.006 67.72a.521.521 0 00-.074-.201.658.658 0 00-.066-.088l-.058-.055a.074.074 0 00-.022-.02l-.044-.027a.138.138 0 00-.044-.025.271.271 0 00-.08-.03h-.022a.153.153 0 00-.05 0 .552.552 0 00-.096 0h-.071a.445.445 0 00-.105.028.544.544 0 00-.099.044.647.647 0 00-.085.066.425.425 0 00-.077.08 1.667 1.667 0 01-.498.413 3.73 3.73 0 01-3.617-.001 1.765 1.765 0 01-.393-.32 2.293 2.293 0 01-.11-.12l-.022-.025a.646.646 0 00-.162-.138.55.55 0 00-.24-.063h-.058a.55.55 0 00-.393.886c.057.068.117.133.181.195a3.217 3.217 0 00.617.493 5.086 5.086 0 00.896.396 4.824 4.824 0 003.444-.176c.149-.066.297-.14.44-.22a3.22 3.22 0 00.806-.688.549.549 0 00.102-.41v.006zM42.003 52.945c-.88 0-1.63.65-1.986 1.579.097-.148.228-.27.383-.355a1.09 1.09 0 01.242-.094 1.1 1.1 0 11-.811 1.221c-.018.131-.028.263-.031.394 0 1.518.985 2.75 2.2 2.75 1.216 0 2.201-1.232 2.201-2.75s-.985-2.745-2.198-2.745zm4.822-5.991a18.977 18.977 0 00-4.514-.605H41.415c-.24 0-.482.016-.721.03l-.21.014c-.392.027-.783.069-1.174.124l-.357.052c-.097 0-.19.03-.275.05-.176.027-.35.06-.526.096-.176.035-.36.071-.55.112l.754 1.439a15.24 15.24 0 013.647-.413 14.81 14.81 0 014.547.688l.955-1.405a18.915 18.915 0 00-.68-.182zm0 0a18.977 18.977 0 00-4.514-.605H41.415c-.24 0-.482.016-.721.03l-.21.014c-.392.027-.783.069-1.174.124l-.357.052c-.097 0-.19.03-.275.05-.176.027-.35.06-.526.096-.176.035-.36.071-.55.112l.754 1.439a15.24 15.24 0 013.647-.413 14.81 14.81 0 014.547.688l.955-1.405a18.915 18.915 0 00-.68-.182zm10.582-.61a19.013 19.013 0 00-5.501.794l.951 1.406a14.854 14.854 0 014.55-.688c1.227-.01 2.45.129 3.645.413l.756-1.442a19.275 19.275 0 00-4.401-.484zm-15.404 6.6c-.88 0-1.63.65-1.986 1.58.097-.148.228-.27.383-.355a1.09 1.09 0 01.242-.094 1.1 1.1 0 11-.811 1.221c-.018.131-.028.263-.031.394 0 1.518.985 2.75 2.2 2.75 1.216 0 2.201-1.232 2.201-2.75s-.985-2.745-2.198-2.745zm15.404 0c-.88 0-1.631.65-1.986 1.58a1.1 1.1 0 11-.184.778c-.017.13-.027.262-.03.394 0 1.518.984 2.75 2.2 2.75a1.926 1.926 0 001.397-.627c.084-.085.162-.177.231-.275.38-.54.58-1.188.573-1.848 0-1.519-.988-2.751-2.201-2.751zM53.006 67.72a.521.521 0 00-.074-.201.658.658 0 00-.066-.088l-.058-.055a.074.074 0 00-.022-.02l-.044-.027a.138.138 0 00-.044-.025.271.271 0 00-.08-.03h-.022a.153.153 0 00-.05 0 .552.552 0 00-.096 0h-.071a.445.445 0 00-.105.028.544.544 0 00-.099.044.647.647 0 00-.085.066.425.425 0 00-.077.08 1.667 1.667 0 01-.498.413 3.73 3.73 0 01-3.617-.001 1.765 1.765 0 01-.393-.32 2.293 2.293 0 01-.11-.12l-.022-.025a.646.646 0 00-.162-.138.55.55 0 00-.24-.063h-.058a.55.55 0 00-.393.886c.057.068.117.133.181.195a3.217 3.217 0 00.617.493 5.086 5.086 0 00.896.396 4.824 4.824 0 003.444-.176c.149-.066.297-.14.44-.22a3.22 3.22 0 00.806-.688.549.549 0 00.102-.41v.006zm5.501 4.233a.35.35 0 00-.071-.151.373.373 0 00-.124-.113.453.453 0 00-.16-.052.417.417 0 00-.165.016.23.23 0 00-.082.039.437.437 0 00-.066.04s-.058.04-.163.097c-.104.058-.175.105-.302.173l-.138.072c-.143.077-.31.16-.503.248l-.198.09a16.895 16.895 0 01-6.83 1.439c-4.88 0-8.112-2.096-8.145-2.118a.347.347 0 00-.143-.069.403.403 0 00-.162 0 .426.426 0 00-.217.1.41.41 0 00-.124.205.396.396 0 000 .24c.021.057.055.109.099.151a.34.34 0 00.047.041c.137.105 3.468 2.558 8.637 2.558 5.168 0 8.497-2.453 8.634-2.558l.03-.025a.398.398 0 00.151-.248.383.383 0 00-.005-.175zm-2.173 14.963a.551.551 0 00-.622-.478.552.552 0 00-.093.016c-.711.159-1.43.281-2.154.366a.496.496 0 00-.291.127.551.551 0 00-.151.644.742.742 0 00.085.134.55.55 0 00.484.193 25.134 25.134 0 002.25-.385l.055-.014a.534.534 0 00.313-.198.549.549 0 00.132-.404h-.008zm1.073-40.572a19.013 19.013 0 00-5.501.795l.951 1.406a14.854 14.854 0 014.55-.688c1.227-.01 2.45.129 3.645.413l.756-1.442a19.275 19.275 0 00-4.401-.484zm0 6.602c-.88 0-1.631.65-1.986 1.579a1.1 1.1 0 11-.184.778c-.017.13-.027.262-.03.394 0 1.518.984 2.75 2.2 2.75a1.926 1.926 0 001.397-.627c.084-.085.162-.177.231-.275.38-.54.58-1.188.573-1.848 0-1.519-.988-2.751-2.201-2.751zm1.1 19.007a.35.35 0 00-.071-.151.373.373 0 00-.124-.113.453.453 0 00-.16-.052.417.417 0 00-.165.016.23.23 0 00-.082.039.437.437 0 00-.066.04s-.058.04-.163.097c-.104.058-.175.105-.302.173l-.138.072c-.143.077-.31.16-.503.248l-.198.09a16.895 16.895 0 01-6.83 1.439c-4.88 0-8.112-2.096-8.145-2.118a.347.347 0 00-.143-.069.403.403 0 00-.162 0 .426.426 0 00-.217.1.41.41 0 00-.124.205.396.396 0 000 .24.433.433 0 00.143.192c.138.105 3.469 2.558 8.637 2.558 5.169 0 8.497-2.453 8.634-2.558l.03-.025a.4.4 0 00.151-.248.382.382 0 00-.002-.175zm-2.173 14.963a.551.551 0 00-.622-.478.552.552 0 00-.093.016c-.711.159-1.43.281-2.154.366a.496.496 0 00-.291.127.675.675 0 00-.075.08.551.551 0 00.493.89 25.134 25.134 0 002.25-.384l.055-.014a.534.534 0 00.313-.198.549.549 0 00.132-.404h-.008zM53.006 67.72a.644.644 0 00-.069-.201.658.658 0 00-.066-.088l-.058-.055a.074.074 0 00-.022-.02l-.044-.027a.138.138 0 00-.044-.025.271.271 0 00-.08-.03.298.298 0 00-.071-.016.552.552 0 00-.096 0h-.072a.646.646 0 00-.203.068.656.656 0 00-.16.146 1.207 1.207 0 01-.113.121 1.664 1.664 0 01-.388.292 3.73 3.73 0 01-3.617 0 1.764 1.764 0 01-.508-.421l-.022-.025a.646.646 0 00-.162-.138.55.55 0 00-.24-.063h-.058a.55.55 0 00-.393.886c.057.068.117.133.181.195a3.217 3.217 0 00.617.493 5.086 5.086 0 00.896.396 4.824 4.824 0 003.444-.176c.149-.066.292-.14.432-.22.305-.184.577-.416.806-.688a.55.55 0 00.11-.404zm-6.18-20.765a19.746 19.746 0 00-4.515-.605H41.415a20.076 20.076 0 00-3.276.371c-.176.036-.36.072-.55.113l.753 1.439a15.24 15.24 0 013.648-.413 14.81 14.81 0 014.546.688l.955-1.406a8.979 8.979 0 00-.666-.187zm-4.823 5.99c-.88 0-1.63.65-1.986 1.58.097-.148.228-.27.383-.355a1.09 1.09 0 01.242-.094 1.1 1.1 0 11-.811 1.221c-.018.131-.028.263-.031.394 0 1.518.985 2.75 2.2 2.75 1.216 0 2.201-1.232 2.201-2.75s-.985-2.745-2.198-2.745zm4.822-5.99a18.977 18.977 0 00-4.514-.605H41.415c-.24 0-.482.016-.721.03l-.21.014c-.392.027-.783.069-1.174.124l-.357.052c-.097 0-.19.03-.275.05-.176.027-.35.06-.526.096-.176.035-.36.071-.55.112l.754 1.439a15.24 15.24 0 013.647-.413 14.81 14.81 0 014.547.688l.955-1.405a18.915 18.915 0 00-.68-.182zm10.582-.61a19.013 19.013 0 00-5.501.794l.951 1.406a14.854 14.854 0 014.55-.688c1.227-.01 2.45.129 3.645.413l.756-1.442a19.275 19.275 0 00-4.401-.484zm-15.404 6.6c-.88 0-1.63.65-1.986 1.58a1.075 1.075 0 01.883-.476 1.1 1.1 0 11-1.07 1.257c-.017.13-.027.262-.03.393 0 1.519.985 2.751 2.2 2.751 1.216 0 2.201-1.232 2.201-2.75 0-1.52-.985-2.754-2.198-2.754zm15.404 0c-.88 0-1.631.65-1.986 1.58a1.1 1.1 0 11-.184.778c-.017.13-.027.262-.03.394 0 1.518.984 2.75 2.2 2.75a1.926 1.926 0 001.397-.627c.084-.085.162-.177.231-.275.38-.54.58-1.188.573-1.848 0-1.519-.988-2.751-2.201-2.751zM53.006 67.72a.521.521 0 00-.074-.201.658.658 0 00-.066-.088l-.058-.055-.022-.017-.044-.03a.138.138 0 00-.044-.025.271.271 0 00-.08-.03h-.022a.153.153 0 00-.05 0 .552.552 0 00-.096 0h-.071a.445.445 0 00-.105.028.544.544 0 00-.099.044.647.647 0 00-.16.145 1.207 1.207 0 01-.112.121 1.667 1.667 0 01-.388.292 3.73 3.73 0 01-3.617 0 1.765 1.765 0 01-.393-.32 2.293 2.293 0 01-.11-.12l-.022-.025a.646.646 0 00-.162-.138.55.55 0 00-.24-.063h-.058a.55.55 0 00-.393.886c.057.068.117.133.181.195a3.217 3.217 0 00.625.493c.14.08.275.154.432.22.156.066.302.123.456.176a4.824 4.824 0 003.444-.176c.149-.066.297-.14.44-.22a3.22 3.22 0 00.806-.688.549.549 0 00.102-.41v.006zm5.501 4.266a.39.39 0 00-.132-.236.255.255 0 00-.06-.047.43.43 0 00-.154-.055.45.45 0 00-.16 0l-.08.027a.437.437 0 00-.066.041s-.057.039-.162.097c-.104.057-.176.104-.303.173l-.137.071c-.143.078-.31.16-.504.248l-.198.09a16.895 16.895 0 01-6.846 1.456c-4.88 0-8.112-2.096-8.145-2.118a.347.347 0 00-.143-.069.403.403 0 00-.162 0 .426.426 0 00-.217.1.41.41 0 00-.124.205.396.396 0 000 .24.433.433 0 00.143.192c.138.105 3.469 2.558 8.637 2.558 5.169 0 8.497-2.453 8.634-2.558l.03-.025.028-.03a.314.314 0 00.077-.126.383.383 0 00.028-.091.34.34 0 00.016-.143zm-2.2 14.897a.55.55 0 00-.578-.448.552.552 0 00-.093.017c-.712.158-1.43.28-2.154.366a.549.549 0 00-.292.126.55.55 0 00-.151.644.742.742 0 00.085.134.506.506 0 00.27.176c.07.02.142.026.214.017a25.17 25.17 0 002.25-.385l.055-.014a.55.55 0 00.305-.217.569.569 0 00.089-.184.578.578 0 000-.226v-.006zm1.1-40.544a19.013 19.013 0 00-5.501.795l.951 1.405a14.854 14.854 0 014.55-.687c1.227-.01 2.45.128 3.645.412l.756-1.441a19.278 19.278 0 00-4.401-.479v-.005zm0 6.601c-.88 0-1.631.65-1.986 1.58a1.1 1.1 0 11-.184.778c-.017.13-.027.262-.03.393 0 1.518.984 2.75 2.2 2.75a1.926 1.926 0 001.397-.626c.084-.086.162-.178.231-.276.38-.54.58-1.187.573-1.848 0-1.513-.988-2.745-2.201-2.745v-.006zm1.1 19.046a.39.39 0 00-.132-.236.255.255 0 00-.06-.047.43.43 0 00-.154-.055.45.45 0 00-.16 0l-.08.027a.437.437 0 00-.066.041s-.057.039-.162.097c-.104.057-.176.104-.303.173l-.137.071c-.143.078-.31.16-.504.248l-.198.09a16.895 16.895 0 01-6.846 1.456c-4.88 0-8.112-2.096-8.145-2.118a.347.347 0 00-.143-.069.403.403 0 00-.162 0 .426.426 0 00-.217.1.41.41 0 00-.124.205.396.396 0 000 .24.433.433 0 00.143.192c.138.105 3.469 2.558 8.637 2.558 5.169 0 8.497-2.453 8.634-2.558l.03-.025.028-.03a.314.314 0 00.077-.126.383.383 0 00.028-.091.34.34 0 00.016-.143zm-2.2 14.897a.55.55 0 00-.578-.448.552.552 0 00-.093.017c-.712.158-1.43.28-2.154.366a.549.549 0 00-.292.126.55.55 0 00-.151.644.742.742 0 00.085.134.506.506 0 00.27.176c.07.02.142.026.214.017a25.17 25.17 0 002.25-.385l.055-.014a.55.55 0 00.305-.217.569.569 0 00.089-.184.578.578 0 000-.226v-.006zm-3.301-19.169a.521.521 0 00-.074-.2.665.665 0 00-.066-.089l-.058-.055-.022-.016-.044-.03a.138.138 0 00-.044-.025.271.271 0 00-.08-.03h-.022a.153.153 0 00-.05 0 .552.552 0 00-.096 0h-.071a.445.445 0 00-.105.027.544.544 0 00-.099.044.647.647 0 00-.16.146 1.207 1.207 0 01-.112.12 1.667 1.667 0 01-.388.292 3.73 3.73 0 01-3.617 0 1.762 1.762 0 01-.393-.313 2.293 2.293 0 01-.11-.121l-.022-.025a.646.646 0 00-.162-.138.55.55 0 00-.24-.063h-.058a.55.55 0 00-.393.886c.057.068.117.133.181.195a3.217 3.217 0 00.625.493c.14.08.275.154.432.22.156.066.302.123.456.176a4.824 4.824 0 003.444-.176c.149-.066.297-.14.44-.22a3.22 3.22 0 00.806-.688.549.549 0 00.102-.41zm-6.18-20.759a18.977 18.977 0 00-4.515-.605H41.415c-.24 0-.482.016-.721.03l-.21.014c-.392.027-.783.069-1.174.124l-.357.052c-.097 0-.19.03-.275.05-.176.027-.35.06-.526.096-.176.035-.36.071-.55.112l.754 1.439a15.24 15.24 0 013.647-.413 14.81 14.81 0 014.547.688l.955-1.405a18.915 18.915 0 00-.68-.182zm-4.823 5.99c-.88 0-1.63.65-1.986 1.58a1.075 1.075 0 01.883-.476 1.1 1.1 0 11-1.07 1.257c-.017.13-.027.262-.03.393 0 1.519.985 2.751 2.2 2.751 1.216 0 2.201-1.232 2.201-2.75 0-1.52-.985-2.754-2.198-2.754zm4.822-5.99a18.977 18.977 0 00-4.514-.605H41.415c-.24 0-.482.016-.721.03l-.21.014c-.392.027-.783.069-1.174.124l-.357.052c-.097 0-.19.03-.275.05-.176.027-.35.06-.526.096-.176.035-.36.071-.55.112l.754 1.439a15.24 15.24 0 013.647-.413 14.81 14.81 0 014.547.688l.955-1.405a18.915 18.915 0 00-.68-.182zm10.582-.61a19.013 19.013 0 00-5.501.794l.951 1.406a14.854 14.854 0 014.55-.688c1.227-.01 2.45.129 3.645.413l.756-1.442a19.275 19.275 0 00-4.401-.484zm-15.404 6.6c-.88 0-1.63.65-1.986 1.58a1.075 1.075 0 01.883-.476 1.1 1.1 0 11-1.07 1.257c-.017.13-.027.262-.03.393 0 1.519.985 2.751 2.2 2.751 1.216 0 2.201-1.232 2.201-2.75 0-1.52-.985-2.754-2.198-2.754zm15.404 0c-.88 0-1.631.65-1.986 1.58a1.1 1.1 0 11-.184.778c-.017.13-.027.262-.03.394 0 1.518.984 2.75 2.2 2.75a1.926 1.926 0 001.397-.627c.084-.085.162-.177.231-.275.38-.54.58-1.188.573-1.848 0-1.519-.988-2.751-2.201-2.751zM53.006 67.72a.521.521 0 00-.074-.201.658.658 0 00-.066-.088l-.058-.055-.022-.017-.044-.03a.138.138 0 00-.044-.025.271.271 0 00-.08-.03h-.022a.153.153 0 00-.05 0 .552.552 0 00-.096 0h-.071a.445.445 0 00-.105.028.544.544 0 00-.099.044.647.647 0 00-.16.145 1.207 1.207 0 01-.112.121 1.667 1.667 0 01-.388.292 3.73 3.73 0 01-3.617 0 1.765 1.765 0 01-.393-.32 2.293 2.293 0 01-.11-.12l-.022-.025a.646.646 0 00-.162-.138.55.55 0 00-.24-.063h-.058a.55.55 0 00-.393.886c.057.068.117.133.181.195a3.217 3.217 0 00.625.493c.14.08.275.154.432.22.156.066.302.123.456.176a4.824 4.824 0 003.444-.176c.149-.066.297-.14.44-.22a3.22 3.22 0 00.806-.688.549.549 0 00.102-.41v.006zm5.501 4.266a.39.39 0 00-.132-.236.255.255 0 00-.06-.047.43.43 0 00-.154-.055.45.45 0 00-.16 0l-.08.027a.437.437 0 00-.066.041s-.057.039-.162.097c-.104.057-.176.104-.303.173l-.137.071c-.143.078-.31.16-.504.248l-.198.09a16.895 16.895 0 01-6.846 1.456c-4.88 0-8.112-2.096-8.145-2.118a.347.347 0 00-.143-.069.403.403 0 00-.162 0 .426.426 0 00-.217.1.41.41 0 00-.124.205.396.396 0 000 .24.433.433 0 00.143.192c.138.105 3.469 2.558 8.637 2.558 5.169 0 8.497-2.453 8.634-2.558l.03-.025.028-.03a.314.314 0 00.077-.126.383.383 0 00.028-.091.34.34 0 00.016-.143zm-2.2 14.897a.55.55 0 00-.578-.448.552.552 0 00-.093.017c-.712.158-1.43.28-2.154.366a.549.549 0 00-.292.126.55.55 0 00-.151.644.742.742 0 00.085.134.506.506 0 00.27.176c.07.02.142.026.214.017a25.17 25.17 0 002.25-.385l.055-.014a.55.55 0 00.305-.217.569.569 0 00.089-.184.578.578 0 000-.226v-.006zm1.1-40.544a19.013 19.013 0 00-5.501.795l.951 1.405a14.854 14.854 0 014.55-.687c1.227-.01 2.45.128 3.645.412l.756-1.441a19.278 19.278 0 00-4.401-.479v-.005zm0 6.601c-.88 0-1.631.65-1.986 1.58a1.1 1.1 0 11-.184.778c-.017.13-.027.262-.03.393 0 1.518.984 2.75 2.2 2.75a1.926 1.926 0 001.397-.626c.084-.086.162-.178.231-.276.38-.54.58-1.187.573-1.848 0-1.513-.988-2.745-2.201-2.745v-.006zm1.1 19.046a.39.39 0 00-.132-.236.255.255 0 00-.06-.047.43.43 0 00-.154-.055.45.45 0 00-.16 0l-.08.027a.437.437 0 00-.066.041s-.057.039-.162.097c-.104.057-.176.104-.303.173l-.137.071c-.143.078-.31.16-.504.248l-.198.09a16.895 16.895 0 01-6.846 1.456c-4.88 0-8.112-2.096-8.145-2.118a.347.347 0 00-.143-.069.403.403 0 00-.162 0 .426.426 0 00-.217.1.41.41 0 00-.124.205.396.396 0 000 .24.433.433 0 00.143.192c.138.105 3.469 2.558 8.637 2.558 5.169 0 8.497-2.453 8.634-2.558l.03-.025.028-.03a.314.314 0 00.077-.126.383.383 0 00.028-.091.34.34 0 00.016-.143zm-2.2 14.897a.55.55 0 00-.578-.448.552.552 0 00-.093.017c-.712.158-1.43.28-2.154.366a.549.549 0 00-.292.126.55.55 0 00-.151.644.742.742 0 00.085.134.506.506 0 00.27.176c.07.02.142.026.214.017a25.17 25.17 0 002.25-.385l.055-.014a.55.55 0 00.305-.217.569.569 0 00.089-.184.578.578 0 000-.226v-.006zm-3.301-19.169a.521.521 0 00-.074-.2.665.665 0 00-.066-.089l-.058-.055-.022-.016-.044-.03a.138.138 0 00-.044-.025.271.271 0 00-.08-.03h-.022a.153.153 0 00-.05 0 .552.552 0 00-.096 0h-.071a.445.445 0 00-.105.027.544.544 0 00-.099.044.647.647 0 00-.16.146 1.207 1.207 0 01-.112.12 1.667 1.667 0 01-.388.292 3.73 3.73 0 01-3.617 0 1.762 1.762 0 01-.393-.313 2.293 2.293 0 01-.11-.121l-.022-.025a.646.646 0 00-.162-.138.55.55 0 00-.24-.063h-.058a.55.55 0 00-.393.886c.057.068.117.133.181.195a3.217 3.217 0 00.625.493c.14.08.275.154.432.22.156.066.302.123.456.176a4.824 4.824 0 003.444-.176c.149-.066.297-.14.44-.22a3.22 3.22 0 00.806-.688.549.549 0 00.102-.41zm-6.18-20.759a18.977 18.977 0 00-4.515-.605H41.415c-.24 0-.482.016-.721.03l-.21.014c-.392.027-.783.069-1.174.124l-.357.052c-.097 0-.19.03-.275.05-.176.027-.35.06-.526.096-.176.035-.36.071-.55.112l.754 1.439a15.24 15.24 0 013.647-.413 14.81 14.81 0 014.547.688l.955-1.405a18.915 18.915 0 00-.68-.182zm-4.823 5.99c-.88 0-1.63.65-1.986 1.58a1.075 1.075 0 01.883-.476 1.1 1.1 0 11-1.07 1.257c-.017.13-.027.262-.03.393 0 1.519.985 2.751 2.2 2.751 1.216 0 2.201-1.232 2.201-2.75 0-1.52-.985-2.754-2.198-2.754zm4.822-5.99a18.977 18.977 0 00-4.514-.605H41.415c-.24 0-.482.016-.721.03l-.21.014c-.392.027-.783.069-1.174.124l-.357.052c-.097 0-.19.03-.275.05-.176.027-.35.06-.526.096-.176.035-.36.071-.55.112l.754 1.439a15.24 15.24 0 013.647-.413 14.81 14.81 0 014.547.688l.955-1.405a18.915 18.915 0 00-.68-.182zm10.582-.61a19.013 19.013 0 00-5.501.794l.951 1.406a14.854 14.854 0 014.55-.688c1.227-.01 2.45.129 3.645.413l.756-1.442a19.275 19.275 0 00-4.401-.484zm-10.582.61a18.977 18.977 0 00-4.514-.605H41.415c-.24 0-.482.016-.721.03l-.21.014c-.392.027-.783.069-1.174.124l-.357.052c-.097 0-.19.03-.275.05-.176.027-.35.06-.526.096-.176.035-.36.071-.55.112l.754 1.439a15.24 15.24 0 013.647-.413 14.81 14.81 0 014.547.688l.955-1.405a18.915 18.915 0 00-.68-.182zm10.582-.61a19.013 19.013 0 00-5.501.794l.951 1.406a14.854 14.854 0 014.55-.688c1.227-.01 2.45.129 3.645.413l.756-1.442a19.275 19.275 0 00-4.401-.484zm-15.404 6.6c-.88 0-1.63.65-1.986 1.58a1.075 1.075 0 01.883-.476 1.1 1.1 0 11-1.07 1.257c-.017.13-.027.262-.03.393 0 1.519.985 2.751 2.2 2.751 1.216 0 2.201-1.232 2.201-2.75 0-1.52-.985-2.754-2.198-2.754zm15.404 0c-.88 0-1.631.65-1.986 1.58a1.1 1.1 0 11-.184.778c-.017.13-.027.262-.03.394 0 1.518.984 2.75 2.2 2.75a1.926 1.926 0 001.397-.627c.084-.085.162-.177.231-.275.38-.54.58-1.188.573-1.848 0-1.519-.988-2.751-2.201-2.751zm-15.404 0c-.88 0-1.63.65-1.986 1.58a1.075 1.075 0 01.883-.476 1.1 1.1 0 11-1.07 1.257c-.017.13-.027.262-.03.393 0 1.519.985 2.751 2.2 2.751 1.216 0 2.201-1.232 2.201-2.75 0-1.52-.985-2.754-2.198-2.754zm15.404 0c-.88 0-1.631.65-1.986 1.58a1.1 1.1 0 11-.184.778c-.017.13-.027.262-.03.394 0 1.518.984 2.75 2.2 2.75a1.926 1.926 0 001.397-.627c.084-.085.162-.177.231-.275.38-.54.58-1.188.573-1.848 0-1.519-.988-2.751-2.201-2.751zM53.006 67.72a.521.521 0 00-.074-.201.658.658 0 00-.066-.088l-.058-.055-.022-.017-.044-.03a.138.138 0 00-.044-.025.271.271 0 00-.08-.03h-.022a.153.153 0 00-.05 0 .552.552 0 00-.096 0h-.071a.445.445 0 00-.105.028.544.544 0 00-.099.044.647.647 0 00-.16.145 1.207 1.207 0 01-.112.121 1.667 1.667 0 01-.388.292 3.73 3.73 0 01-3.617 0 1.765 1.765 0 01-.393-.32 2.293 2.293 0 01-.11-.12l-.022-.025a.646.646 0 00-.162-.138.55.55 0 00-.24-.063h-.058a.55.55 0 00-.393.886c.057.068.117.133.181.195a3.217 3.217 0 00.625.493c.14.08.275.154.432.22.156.066.302.123.456.176a4.824 4.824 0 003.444-.176c.149-.066.297-.14.44-.22a3.22 3.22 0 00.806-.688.549.549 0 00.102-.41v.006zm5.501 4.266a.39.39 0 00-.132-.236.255.255 0 00-.06-.047.43.43 0 00-.154-.055.45.45 0 00-.16 0l-.08.027a.437.437 0 00-.066.041s-.057.039-.162.097c-.104.057-.176.104-.303.173l-.137.071c-.143.078-.31.16-.504.248l-.198.09a16.895 16.895 0 01-6.846 1.456c-4.88 0-8.112-2.096-8.145-2.118a.347.347 0 00-.143-.069.403.403 0 00-.162 0 .426.426 0 00-.217.1.41.41 0 00-.124.205.396.396 0 000 .24.433.433 0 00.143.192c.138.105 3.469 2.558 8.637 2.558 5.169 0 8.497-2.453 8.634-2.558l.03-.025.028-.03a.314.314 0 00.077-.126.383.383 0 00.028-.091.34.34 0 00.016-.143zm-5.501-4.272a.521.521 0 00-.074-.2.665.665 0 00-.066-.089l-.058-.055-.022-.016-.044-.03a.138.138 0 00-.044-.025.271.271 0 00-.08-.03h-.022a.153.153 0 00-.05 0 .552.552 0 00-.096 0h-.071a.445.445 0 00-.105.027.544.544 0 00-.099.044.647.647 0 00-.16.146 1.207 1.207 0 01-.112.12 1.667 1.667 0 01-.388.292 3.73 3.73 0 01-3.617 0 1.762 1.762 0 01-.393-.313 2.293 2.293 0 01-.11-.121l-.022-.025a.646.646 0 00-.162-.138.55.55 0 00-.24-.063h-.058a.55.55 0 00-.393.886c.057.068.117.133.181.195a3.217 3.217 0 00.625.493c.14.08.275.154.432.22.156.066.302.123.456.176a4.824 4.824 0 003.444-.176c.149-.066.297-.14.44-.22a3.22 3.22 0 00.806-.688.549.549 0 00.102-.41zm5.501 4.272a.39.39 0 00-.132-.236.255.255 0 00-.06-.047.43.43 0 00-.154-.055.45.45 0 00-.16 0l-.08.027a.437.437 0 00-.066.041s-.057.039-.162.097c-.104.057-.176.104-.303.173l-.137.071c-.143.078-.31.16-.504.248l-.198.09a16.895 16.895 0 01-6.846 1.456c-4.88 0-8.112-2.096-8.145-2.118a.347.347 0 00-.143-.069.403.403 0 00-.162 0 .426.426 0 00-.217.1.41.41 0 00-.124.205.396.396 0 000 .24.433.433 0 00.143.192c.138.105 3.469 2.558 8.637 2.558 5.169 0 8.497-2.453 8.634-2.558l.03-.025.028-.03a.314.314 0 00.077-.126.383.383 0 00.028-.091.34.34 0 00.016-.143zm-2.2 14.897a.55.55 0 00-.578-.448.552.552 0 00-.093.017c-.712.158-1.43.28-2.154.366a.549.549 0 00-.292.126.55.55 0 00-.151.644.742.742 0 00.085.134.506.506 0 00.27.176c.07.02.142.026.214.017a25.17 25.17 0 002.25-.385l.055-.014a.55.55 0 00.305-.217.569.569 0 00.089-.184.578.578 0 000-.226v-.006zm0 0a.55.55 0 00-.578-.448.552.552 0 00-.093.017c-.712.158-1.43.28-2.154.366a.549.549 0 00-.292.126.55.55 0 00-.151.644.742.742 0 00.085.134.506.506 0 00.27.176c.07.02.142.026.214.017a25.17 25.17 0 002.25-.385l.055-.014a.55.55 0 00.305-.217.569.569 0 00.089-.184.578.578 0 000-.226v-.006z" fill="#4F6470"/><path d="M56.858 85.103a3.3 3.3 0 01-.55-1.818v-2.668c-2.314 1.323-4.561 2.035-6.602 2.035-2.041 0-4.291-.712-6.602-2.035v2.668a3.3 3.3 0 01-1.312 2.632c1.65.55 4.255 1.136 7.914 1.136.564 0 1.1-.02 1.62-.044a.55.55 0 11.058 1.1c-.534.025-1.1.044-1.678.044-3.906 0-6.67-.646-8.431-1.251l4.761 13.354h7.328L58.34 86.31a3.3 3.3 0 01-1.483-1.207zm-.639 2.222a.533.533 0 01-.313.198l-.055.014c-.674.149-1.425.275-2.25.385a.55.55 0 01-.484-.192.748.748 0 01-.086-.135.552.552 0 01.443-.77 21.414 21.414 0 002.154-.366.548.548 0 01.093-.017.549.549 0 01.51.883h-.012z" fill="#fff"/><path d="M69.08 54.777a7.593 7.593 0 00-1.798-.72c-.149-.042-.292-.072-.44-.11-1.458-.276-1.733 1.226-1.733 2.299 0 4.4-1.1 7.702-7.88 7.702-5.01-.275-6.179-4.126-6.385-6.574-.055-.665-.05-1.334.017-1.997a2.876 2.876 0 00-1.156-.226 2.68 2.68 0 00-1.141.245c.06.656.06 1.316 0 1.972-.206 2.448-1.376 6.3-6.385 6.574-6.777 0-7.877-3.3-7.877-7.702 0-.968-.218-2.285-1.318-2.343a1.782 1.782 0 00-.418.044c-.149.038-.292.069-.44.11a7.622 7.622 0 00-1.8.729c-.384.242-.425.371-.425.371 0 .79.442 3.122 1.053 5.19.35 1.18.633 2.229.98 2.831.346.602.514.781 1.267.781a1.1 1.1 0 011.1 1.1v4.401c0 .446.804 2.325 2.32 4.19a27.12 27.12 0 005.98 5.385c2.571 1.673 5.044 2.528 7.104 2.528 2.06 0 4.53-.855 7.102-2.528a27.122 27.122 0 005.98-5.394c1.516-1.864 2.322-3.743 2.322-4.189v-4.4a1.1 1.1 0 011.1-1.101c.751 0 .922-.182 1.266-.781.343-.6.63-1.65.979-2.83.61-2.07 1.056-4.402 1.056-5.188 0 .002-.044-.127-.43-.369zM46.54 67.43a.55.55 0 01.373-.187h.058a.55.55 0 01.292.096.646.646 0 01.11.105l.022.025c.035.04.071.082.11.12.116.115.247.213.39.292a3.73 3.73 0 003.617 0 1.668 1.668 0 00.504-.418.421.421 0 01.077-.08.64.64 0 01.085-.066.552.552 0 01.1-.044.455.455 0 01.104-.027h.074a.572.572 0 01.096 0 .158.158 0 01.05 0h.022a.275.275 0 01.08.03.14.14 0 01.044.025l.044.027a.073.073 0 01.021.02l.058.055a.665.665 0 01.066.087.549.549 0 01-.028.61 3.22 3.22 0 01-.805.689c-.143.08-.275.154-.44.22-.165.066-.303.124-.457.176a4.876 4.876 0 01-2.987 0 5.39 5.39 0 01-.897-.396 3.217 3.217 0 01-.616-.492 2.484 2.484 0 01-.181-.196.55.55 0 01-.116-.305.55.55 0 01.13-.366zm11.981 4.69a.4.4 0 01-.151.247l-.03.025c-.138.105-3.466 2.558-8.635 2.558-5.168 0-8.5-2.453-8.637-2.558a.34.34 0 01-.046-.041.4.4 0 01-.1-.151.396.396 0 010-.24.41.41 0 01.124-.206.428.428 0 01.218-.099.403.403 0 01.162 0 .347.347 0 01.143.069c.033.022 3.265 2.118 8.145 2.118a16.896 16.896 0 006.838-1.439l.198-.09c.183-.089.35-.171.503-.248l.138-.072c.126-.068.228-.126.302-.173.075-.047.157-.093.163-.096a.437.437 0 01.066-.041.23.23 0 01.082-.039.42.42 0 01.165-.017c.056.008.11.026.16.053.049.027.091.066.123.113a.382.382 0 01.069.327zM69.51 28.349v11.957c-1.815-1.345-7.528-5.089-16.369-5.903l-.41-.03a37.304 37.304 0 00-1.229-.086 38.825 38.825 0 00-1.807-.046 34.416 34.416 0 00-3.04.132l-.398.03c-8.841.825-14.554 4.558-16.367 5.903v-11.96c.066-.135 1.202-2.338 4.19-4.676 3.088-2.407 8.04-4.833 15.626-4.833s12.534 2.426 15.612 4.836c2.988 2.335 4.127 4.538 4.192 4.676z" fill="#fff"/><path d="M60.983 37.233a34.733 34.733 0 00-6.602-1.573c-.275-.036-.55-.063-.825-.096a31.355 31.355 0 00-1.213-.113l-.655-.047a36.431 36.431 0 00-2.002-.063c-.688 0-1.35.027-2.005.063l-.655.047c-.41.03-.825.069-1.213.112-.275.034-.55.061-.825.097a34.62 34.62 0 00-6.574 1.573c-2.77 5.697-3.095 12.49-3.136 13.998 1.86-.305 3.74-.468 5.625-.487 2.2 0 5.776.476 7.083 2.17.143.368.258.746.344 1.131h2.75c.084-.384.195-.762.333-1.13 1.318-1.695 4.894-2.17 7.094-2.17a35.92 35.92 0 015.485.47c-.02-1.51-.258-8.302-3.01-13.982zM46.55 48.543a14.81 14.81 0 00-4.547-.687 15.24 15.24 0 00-3.647.413l-.754-1.439c.18-.041.358-.08.55-.112a18.427 18.427 0 013.274-.366H42.322a18.977 18.977 0 015.194.792l-.966 1.4zm10.857-.687a14.851 14.851 0 00-4.55.688l-.951-1.406c1.785-.533 3.638-.8 5.501-.795a19.27 19.27 0 014.401.484l-.756 1.442a15.202 15.202 0 00-3.645-.413z" fill="#fff"/><path d="M44.876 100.256h-3.24l-3.937-2.951.974-2.927a.55.55 0 00-.218-.63l-3.053-2.038v-3.3c1.5-.55 3.738-1.376 4.635-1.7l4.839 13.546z" fill="#07A68D"/><path d="M39.803 100.256H22.29c.275-2.2 1.535-7.55 7.996-9.974 1.95-.731 2.583-.946 4.016-1.474v3.196a.552.552 0 00.245.457l2.948 1.97-.965 2.901a.55.55 0 000 .336.55.55 0 00.193.275l3.08 2.313zM62.689 97.946a.55.55 0 00.193-.275.55.55 0 000-.336l-.966-2.902 2.949-1.97a.55.55 0 00.247-.456v-3.196c1.43.525 2.063.74 4.014 1.471 6.46 2.424 7.734 7.76 7.996 9.974H59.608l3.081-2.31z" fill="#08B89D"/><path d="M60.735 94.378l.974 2.927-3.939 2.951h-3.237l4.838-13.552c.897.319 3.136 1.155 4.638 1.703v3.3l-3.056 2.039a.55.55 0 00-.218.632z" fill="#07A68D"/><path d="M69.199 50.926c.2.332.308.712.31 1.1-.005.157-.03.312-.07.462a11.458 11.458 0 00-1.555-.55 19.263 19.263 0 00-2.775-.583c0-1.183-.1-7.663-2.644-13.607 4.099 1.623 6.525 3.474 7.056 3.914v1.023c0 .535-.158 1.059-.454 1.505a.55.55 0 00.146.748 3.287 3.287 0 011.408 2.607 3.285 3.285 0 01-1.276 2.677.55.55 0 00-.135.699l-.011.005zM36.954 37.753c-2.572 5.972-2.751 12.502-2.773 13.627-.897.121-1.785.305-2.657.55-.532.146-1.052.33-1.557.55a1.962 1.962 0 01.242-1.562.55.55 0 00-.135-.71 3.278 3.278 0 01.13-5.284.55.55 0 00.145-.748 2.715 2.715 0 01-.448-1.496v-1.013c.528-.437 2.951-2.291 7.053-3.914zM91.312 51.27c-11.415 0-20.704 7.248-20.704 16.16 0 4.327 2.148 8.378 6.052 11.429 0 3.262-.042 6.073-1.874 7.905a.484.484 0 00-.137.259.5.5 0 00.214.52.509.509 0 00.275.085c2.603 0 7.364-.616 10.4-4.676 1.89.423 3.821.636 5.758.633 11.415 0 20.704-7.248 20.704-16.158S102.728 51.27 91.312 51.27zm0 31.308a25.226 25.226 0 01-5.848-.69.497.497 0 00-.53.2c-2.39 3.403-6.115 4.3-8.673 4.481 1.425-2.115 1.425-4.951 1.425-7.93v-.041a.515.515 0 00-.201-.402c-3.78-2.872-5.86-6.698-5.86-10.777 0-8.354 8.833-15.15 19.693-15.15 10.859 0 19.695 6.796 19.695 15.15s-8.844 15.159-19.7 15.159z" fill="#4F6470"/><path d="M111.007 67.43c0 8.35-8.838 15.148-19.695 15.148a25.23 25.23 0 01-5.848-.69.498.498 0 00-.53.2c-2.39 3.403-6.115 4.3-8.673 4.481 1.425-2.115 1.425-4.951 1.425-7.93v-.041a.515.515 0 00-.201-.402c-3.78-2.872-5.86-6.698-5.86-10.777 0-8.354 8.833-15.15 19.693-15.15 10.859 0 19.689 6.807 19.689 15.16z" fill="#08B89D"/><path d="M88.449 64.33c0-1.393 1.116-2.522 2.493-2.522h5.783c1.377 0 2.493 1.129 2.493 2.521v7.06c0 1.393-1.117 2.522-2.493 2.522h-5.783c-1.377 0-2.493-1.13-2.493-2.522v-7.06zm-.798 5.76l-2.776 2.194c-.655.517-1.611.045-1.611-.795v-7.26c0-.84.956-1.312 1.61-.794l2.777 2.193v4.463z" fill="#fff"/><path d="M111.007 67.43c0 8.35-8.838 15.148-19.695 15.148a25.22 25.22 0 01-5.848-.69.498.498 0 00-.53.2c-2.391 3.403-6.115 4.3-8.674 4.48.297-.446.54-.926.724-1.43 2.2-.511 4.626-1.65 6.365-4.125a.498.498 0 01.53-.2c1.919.453 3.883.68 5.854.678 10.857 0 19.695-6.797 19.695-15.148 0-4.208-2.245-8.023-5.862-10.771 4.528 2.78 7.441 7.06 7.441 11.858z" fill="#07A68D"/><path d="M52.373 27.424h-2.172v-2.172a.91.91 0 00-.276-.644.897.897 0 00-1.48.285.905.905 0 00-.068.348v2.183h-2.173a.908.908 0 000 1.816h2.173v2.173a.91.91 0 00.907.908.898.898 0 00.641-.275.907.907 0 00.276-.641v-2.173h2.172a.9.9 0 00.641-.275.908.908 0 000-1.285.898.898 0 00-.64-.248z" fill="#C81E11"/></svg>