<?xml version="1.0" encoding="UTF-8" standalone="no"?> <svg id="Layer_1" data-name="Layer 1" xmlns="http://www.w3.org/2000/svg" viewBox="0 0 48 48"><defs><style>.cls-1{fill:#fac100;}.cls-2{fill:#ff9500;}.cls-3{fill:#2d4a60;}.cls-4{fill:#263f52;}</style></defs><title>Crisis</title><path class="cls-1" d="M44.5,34.5,28.33,6.5a5,5,0,0,0-8.66,0L3.5,34.5A5,5,0,0,0,7.834,42H40.166a5,5,0,0,0,4.33-7.5Z"/><path class="cls-2" d="M34,37A24.006,24.006,0,0,1,11.344,20.921L3.5,34.5A5,5,0,0,0,7.834,42H40.166a5,5,0,0,0,4.364-7.431A23.9,23.9,0,0,1,34,37Z"/><path class="cls-3" d="M24,30A2.1,2.1,0,0,0,26.1,28.1l1.18-11.8A3,3,0,0,0,24.29,13h-.58a3,3,0,0,0-2.985,3.3L21.905,28.1A2.1,2.1,0,0,0,24,30Z"/><circle class="cls-3" cx="24" cy="34.5" r="3.5"/><path class="cls-4" d="M24,38a3.5,3.5,0,0,0,3.154-2.009,23.838,23.838,0,0,1-6.326-2.949A3.46,3.46,0,0,0,20.5,34.5,3.5,3.5,0,0,0,24,38Z"/></svg>